<svg width="990" height="108" viewBox="0 0 990 108" fill="none" xmlns="http://www.w3.org/2000/svg">
<g filter="url(#filter0_d_156_1543)">
<rect x="3.28564" y="0.761719" width="984" height="101" rx="20" fill="#E0E7F5"/>
</g>
<path d="M52.2888 40.8572C56.9264 40.8572 60.3592 41.8802 62.587 43.9262C64.8376 45.9495 65.9629 48.8593 65.9629 52.6558C65.9629 55.1337 65.406 57.3048 64.292 59.1689C63.2008 61.0103 61.6095 62.4425 59.518 63.4655C57.4266 64.4885 54.9145 65 51.9819 65C51.6182 65 51.1408 64.9886 50.5497 64.9659C49.9587 64.9432 49.3335 64.9318 48.6742 64.9318C48.0377 64.9091 47.458 64.8977 46.9351 64.8977C45.8667 64.8977 44.8209 64.9091 43.7979 64.9318C42.7749 64.9318 41.9565 64.9545 41.3427 65V64.318C42.0475 64.2725 42.5703 64.1816 42.9113 64.0452C43.2751 63.9088 43.5138 63.636 43.6274 63.2268C43.7638 62.8176 43.832 62.2038 43.832 61.3854V44.4718C43.832 43.6307 43.7638 43.0169 43.6274 42.6304C43.5138 42.2212 43.2751 41.9484 42.9113 41.812C42.5703 41.6529 42.0475 41.5619 41.3427 41.5392V40.8572C41.9565 40.8799 42.7749 40.914 43.7979 40.9595C44.8209 40.9822 45.8439 40.9822 46.8669 40.9595C47.6853 40.9368 48.6174 40.914 49.6631 40.8913C50.7089 40.8686 51.5841 40.8572 52.2888 40.8572ZM52.5275 41.471C51.4818 41.471 50.7998 41.6642 50.4815 42.0507C50.1633 42.4372 50.0041 43.2215 50.0041 44.4036V61.4536C50.0041 62.6357 50.1633 63.42 50.4815 63.8065C50.8225 64.193 51.5159 64.3862 52.5616 64.3862C54.2894 64.3862 55.6647 63.9429 56.6877 63.0563C57.7107 62.147 58.4382 60.8284 58.8701 59.1007C59.3248 57.373 59.5521 55.2701 59.5521 52.7922C59.5521 50.2461 59.3134 48.1432 58.836 46.4837C58.3586 44.8014 57.5971 43.5511 56.5513 42.7327C55.5283 41.8916 54.1871 41.471 52.5275 41.471ZM77.0444 46.8588C78.7494 46.8588 80.2384 47.1657 81.5115 47.7795C82.8073 48.3706 83.8075 49.3481 84.5123 50.7121C85.2397 52.0761 85.6035 53.8948 85.6035 56.1681C85.6035 58.4414 85.2397 60.2601 84.5123 61.6241C83.8075 62.9881 82.8073 63.977 81.5115 64.5908C80.2384 65.1819 78.7494 65.4774 77.0444 65.4774C75.3621 65.4774 73.8731 65.1819 72.5773 64.5908C71.3042 63.977 70.3039 62.9881 69.5765 61.6241C68.849 60.2601 68.4853 58.4414 68.4853 56.1681C68.4853 53.8948 68.849 52.0761 69.5765 50.7121C70.3039 49.3481 71.3042 48.3706 72.5773 47.7795C73.8731 47.1657 75.3621 46.8588 77.0444 46.8588ZM77.0444 47.5408C76.2487 47.5408 75.5781 48.2228 75.0325 49.5868C74.5096 50.9281 74.2482 53.1218 74.2482 56.1681C74.2482 59.2144 74.5096 61.4195 75.0325 62.7835C75.5781 64.1248 76.2487 64.7954 77.0444 64.7954C77.8628 64.7954 78.5334 64.1248 79.0563 62.7835C79.5791 61.4195 79.8406 59.2144 79.8406 56.1681C79.8406 53.1218 79.5791 50.9281 79.0563 49.5868C78.5334 48.2228 77.8628 47.5408 77.0444 47.5408ZM111.198 47.3362V48.0523C110.766 48.1887 110.346 48.4729 109.936 48.9048C109.55 49.3367 109.175 50.0869 108.811 51.1554L104.276 64.2498L102.775 67.4211L94.9666 49.9619C94.5801 49.098 94.205 48.5638 93.8413 48.3592C93.4776 48.1546 93.1707 48.0523 92.9206 48.0523V47.3362C93.7617 47.4044 94.6256 47.4612 95.5122 47.5067C96.3988 47.5294 97.2399 47.5408 98.0356 47.5408C99.0359 47.5408 99.9225 47.5181 100.695 47.4726C101.468 47.4271 102.196 47.3817 102.878 47.3362V48.0523C102.446 48.0523 102.037 48.075 101.65 48.1205C101.264 48.166 100.991 48.3024 100.832 48.5297C100.695 48.7343 100.741 49.1094 100.968 49.655L105.299 60.0214L104.958 60.2601L107.038 54.2244C107.515 52.8377 107.72 51.701 107.652 50.8144C107.584 49.9278 107.322 49.2572 106.867 48.8025C106.413 48.3478 105.833 48.0978 105.128 48.0523V47.3362C105.469 47.3589 105.844 47.3817 106.254 47.4044C106.686 47.4271 107.106 47.4499 107.515 47.4726C107.925 47.4726 108.277 47.4726 108.572 47.4726C109.004 47.4726 109.482 47.4612 110.005 47.4385C110.528 47.4158 110.925 47.3817 111.198 47.3362ZM104.276 64.2498L102.912 68.1372C102.707 68.7055 102.48 69.1943 102.23 69.6035C102.003 70.0127 101.73 70.3423 101.411 70.5924C101.093 70.8425 100.684 71.0357 100.184 71.1721C99.7065 71.3312 99.0927 71.4108 98.3425 71.4108C97.7514 71.4108 97.1263 71.3085 96.467 71.1039C95.8305 70.922 95.2849 70.6151 94.8302 70.1832C94.3983 69.7513 94.1823 69.1716 94.1823 68.4441C94.1823 67.6939 94.4551 67.0915 95.0007 66.6368C95.5463 66.2049 96.2851 65.9889 97.2172 65.9889C98.0583 65.9889 98.729 66.1821 99.2291 66.5686C99.752 66.9551 100.013 67.5348 100.013 68.3077C100.013 68.7851 99.8543 69.2511 99.536 69.7058C99.2177 70.1605 98.7176 70.5015 98.0356 70.7288C98.1947 70.7515 98.3652 70.7629 98.5471 70.7629C98.7517 70.7856 98.9108 70.797 99.0245 70.797C99.7292 70.797 100.354 70.5697 100.9 70.115C101.446 69.6831 101.878 69.0011 102.196 68.069L103.389 64.4544L104.276 64.2498ZM120.535 46.8588C122.24 46.8588 123.729 47.1657 125.002 47.7795C126.298 48.3706 127.298 49.3481 128.003 50.7121C128.731 52.0761 129.094 53.8948 129.094 56.1681C129.094 58.4414 128.731 60.2601 128.003 61.6241C127.298 62.9881 126.298 63.977 125.002 64.5908C123.729 65.1819 122.24 65.4774 120.535 65.4774C118.853 65.4774 117.364 65.1819 116.068 64.5908C114.795 63.977 113.795 62.9881 113.067 61.6241C112.34 60.2601 111.976 58.4414 111.976 56.1681C111.976 53.8948 112.34 52.0761 113.067 50.7121C113.795 49.3481 114.795 48.3706 116.068 47.7795C117.364 47.1657 118.853 46.8588 120.535 46.8588ZM120.535 47.5408C119.74 47.5408 119.069 48.2228 118.523 49.5868C118 50.9281 117.739 53.1218 117.739 56.1681C117.739 59.2144 118 61.4195 118.523 62.7835C119.069 64.1248 119.74 64.7954 120.535 64.7954C121.354 64.7954 122.024 64.1248 122.547 62.7835C123.07 61.4195 123.331 59.2144 123.331 56.1681C123.331 53.1218 123.07 50.9281 122.547 49.5868C122.024 48.2228 121.354 47.5408 120.535 47.5408ZM148.508 46.9611V61.2831C148.508 62.3061 148.656 63.0677 148.951 63.5678C149.269 64.0452 149.804 64.2839 150.554 64.2839V65C149.849 64.9318 149.144 64.8977 148.44 64.8977C147.394 64.8977 146.416 64.9318 145.507 65C144.62 65.0682 143.779 65.1932 142.984 65.3751V62.613C142.438 63.636 141.688 64.3748 140.733 64.8295C139.801 65.2614 138.733 65.4774 137.528 65.4774C136.527 65.4774 135.72 65.3524 135.107 65.1023C134.515 64.8522 134.061 64.5226 133.743 64.1134C133.379 63.7042 133.117 63.1586 132.958 62.4766C132.799 61.7719 132.72 60.8512 132.72 59.7145V51.0531C132.72 50.0301 132.572 49.2799 132.276 48.8025C131.981 48.3024 131.446 48.0523 130.674 48.0523V47.3362C131.401 47.4044 132.106 47.4385 132.788 47.4385C133.833 47.4385 134.811 47.4044 135.72 47.3362C136.63 47.2453 137.471 47.1202 138.244 46.9611V61.3513C138.244 61.8742 138.301 62.3175 138.414 62.6812C138.528 63.0449 138.721 63.3291 138.994 63.5337C139.267 63.7383 139.63 63.8406 140.085 63.8406C140.608 63.8406 141.085 63.7042 141.517 63.4314C141.949 63.1586 142.302 62.7835 142.574 62.3061C142.847 61.806 142.984 61.249 142.984 60.6352V51.0531C142.984 50.0301 142.836 49.2799 142.54 48.8025C142.245 48.3024 141.711 48.0523 140.938 48.0523V47.3362C141.665 47.4044 142.37 47.4385 143.052 47.4385C144.098 47.4385 145.075 47.4044 145.984 47.3362C146.894 47.2453 147.735 47.1202 148.508 46.9611ZM172.814 46.8588C173.814 46.8588 174.61 46.9838 175.201 47.2339C175.815 47.484 176.281 47.8022 176.599 48.1887C176.963 48.6206 177.224 49.1776 177.384 49.8596C177.565 50.5416 177.656 51.4623 177.656 52.6217V61.8287C177.656 62.7835 177.804 63.4314 178.1 63.7724C178.418 64.1134 178.952 64.2839 179.702 64.2839V65C179.248 64.9773 178.566 64.9545 177.656 64.9318C176.77 64.8863 175.906 64.8636 175.065 64.8636C174.133 64.8636 173.235 64.8863 172.371 64.9318C171.507 64.9545 170.859 64.9773 170.427 65V64.2839C171.064 64.2839 171.507 64.1134 171.757 63.7724C172.007 63.4314 172.132 62.7835 172.132 61.8287V50.9849C172.132 50.462 172.075 50.0187 171.962 49.655C171.848 49.2685 171.655 48.9844 171.382 48.8025C171.109 48.5979 170.723 48.4956 170.223 48.4956C169.7 48.4956 169.211 48.632 168.756 48.9048C168.324 49.1776 167.972 49.5641 167.699 50.0642C167.449 50.5416 167.324 51.0872 167.324 51.701V61.8287C167.324 62.7835 167.449 63.4314 167.699 63.7724C167.949 64.1134 168.393 64.2839 169.029 64.2839V65C168.597 64.9773 167.972 64.9545 167.154 64.9318C166.335 64.8863 165.505 64.8636 164.664 64.8636C163.732 64.8636 162.8 64.8863 161.868 64.9318C160.936 64.9545 160.231 64.9773 159.754 65V64.2839C160.504 64.2839 161.027 64.1134 161.323 63.7724C161.641 63.4314 161.8 62.7835 161.8 61.8287V51.0531C161.8 50.0301 161.652 49.2799 161.357 48.8025C161.061 48.3024 160.527 48.0523 159.754 48.0523V47.3362C160.481 47.4044 161.186 47.4385 161.868 47.4385C162.891 47.4385 163.857 47.4044 164.767 47.3362C165.699 47.2453 166.551 47.1202 167.324 46.9611V49.7232C167.87 48.6775 168.609 47.9386 169.541 47.5067C170.495 47.0748 171.587 46.8588 172.814 46.8588ZM189.801 46.8588C191.801 46.8588 193.37 47.4499 194.507 48.632C195.643 49.8141 196.212 51.7578 196.212 54.4631H185.266L185.231 53.8152H191.574C191.619 52.7013 191.574 51.6783 191.438 50.7462C191.301 49.7914 191.074 49.0298 190.756 48.4615C190.46 47.8932 190.062 47.609 189.562 47.609C188.88 47.609 188.3 48.0978 187.823 49.0753C187.346 50.0528 187.05 51.7124 186.936 54.0539L187.073 54.2926C187.027 54.5427 187.005 54.8041 187.005 55.0769C187.005 55.327 187.005 55.5998 187.005 55.8953C187.005 57.4639 187.209 58.7142 187.618 59.6463C188.05 60.5784 188.585 61.2376 189.221 61.6241C189.858 62.0106 190.517 62.2038 191.199 62.2038C191.585 62.2038 192.017 62.147 192.495 62.0333C192.972 61.9196 193.472 61.6809 193.995 61.3172C194.518 60.9535 195.018 60.4192 195.496 59.7145L196.075 59.9191C195.825 60.8057 195.393 61.6809 194.779 62.5448C194.188 63.3859 193.427 64.0907 192.495 64.659C191.563 65.2046 190.437 65.4774 189.119 65.4774C187.618 65.4774 186.277 65.1705 185.095 64.5567C183.913 63.9202 182.969 62.9313 182.265 61.59C181.583 60.226 181.242 58.4528 181.242 56.2704C181.242 54.1107 181.617 52.3375 182.367 50.9508C183.117 49.5641 184.14 48.5411 185.436 47.8818C186.732 47.1998 188.187 46.8588 189.801 46.8588ZM206.984 46.8588C208.985 46.8588 210.553 47.4499 211.69 48.632C212.826 49.8141 213.395 51.7578 213.395 54.4631H202.449L202.415 53.8152H208.757C208.803 52.7013 208.757 51.6783 208.621 50.7462C208.484 49.7914 208.257 49.0298 207.939 48.4615C207.643 47.8932 207.245 47.609 206.745 47.609C206.063 47.609 205.484 48.0978 205.006 49.0753C204.529 50.0528 204.233 51.7124 204.12 54.0539L204.256 54.2926C204.211 54.5427 204.188 54.8041 204.188 55.0769C204.188 55.327 204.188 55.5998 204.188 55.8953C204.188 57.4639 204.392 58.7142 204.802 59.6463C205.234 60.5784 205.768 61.2376 206.404 61.6241C207.041 62.0106 207.7 62.2038 208.382 62.2038C208.769 62.2038 209.201 62.147 209.678 62.0333C210.155 61.9196 210.655 61.6809 211.178 61.3172C211.701 60.9535 212.201 60.4192 212.679 59.7145L213.258 59.9191C213.008 60.8057 212.576 61.6809 211.963 62.5448C211.372 63.3859 210.61 64.0907 209.678 64.659C208.746 65.2046 207.621 65.4774 206.302 65.4774C204.802 65.4774 203.46 65.1705 202.278 64.5567C201.096 63.9202 200.153 62.9313 199.448 61.59C198.766 60.226 198.425 58.4528 198.425 56.2704C198.425 54.1107 198.8 52.3375 199.55 50.9508C200.3 49.5641 201.323 48.5411 202.619 47.8818C203.915 47.1998 205.37 46.8588 206.984 46.8588ZM232.385 38.3338V61.249C232.385 62.272 232.533 63.0336 232.829 63.5337C233.147 64.0111 233.681 64.2498 234.431 64.2498V64.9659C233.727 64.8977 233.022 64.8636 232.317 64.8636C231.294 64.8636 230.328 64.8977 229.419 64.9659C228.509 65.0341 227.657 65.1591 226.861 65.341V42.4258C226.861 41.4028 226.713 40.6526 226.418 40.1752C226.145 39.6751 225.611 39.425 224.815 39.425V38.7089C225.543 38.7771 226.247 38.8112 226.929 38.8112C227.975 38.8112 228.953 38.7771 229.862 38.7089C230.771 38.618 231.612 38.4929 232.385 38.3338ZM223.212 46.8588C224.213 46.8588 225.077 47.0066 225.804 47.3021C226.531 47.5749 227.134 48.0409 227.611 48.7002L227.202 49.0412C226.907 48.6547 226.543 48.3706 226.111 48.1887C225.702 48.0068 225.27 47.9159 224.815 47.9159C223.724 47.9159 222.871 48.5979 222.258 49.9619C221.667 51.3032 221.371 53.3719 221.371 56.1681C221.371 58.1232 221.485 59.669 221.712 60.8057C221.962 61.9196 222.292 62.7039 222.701 63.1586C223.133 63.6133 223.61 63.8406 224.133 63.8406C224.838 63.8406 225.463 63.5792 226.009 63.0563C226.577 62.5107 226.872 61.7946 226.895 60.908L226.998 62.3402C226.588 63.3859 226.02 64.1702 225.293 64.6931C224.588 65.216 223.678 65.4774 222.565 65.4774C221.246 65.4774 220.052 65.1478 218.984 64.4885C217.938 63.8292 217.109 62.8176 216.495 61.4536C215.904 60.0669 215.608 58.2709 215.608 56.0658C215.608 53.9971 215.926 52.2921 216.563 50.9508C217.222 49.5868 218.12 48.5638 219.257 47.8818C220.416 47.1998 221.735 46.8588 223.212 46.8588ZM250.461 46.8588C251.461 46.8588 252.325 46.9725 253.053 47.1998C253.78 47.4271 254.314 47.6431 254.655 47.8477C255.451 48.3478 255.928 48.0296 256.087 46.8929H256.804C256.758 47.5522 256.724 48.3478 256.701 49.2799C256.679 50.1892 256.667 51.4168 256.667 52.9627H255.951C255.86 52.1216 255.656 51.2918 255.337 50.4734C255.042 49.655 254.598 48.9844 254.007 48.4615C253.416 47.9159 252.643 47.6431 251.689 47.6431C251.075 47.6431 250.552 47.825 250.12 48.1887C249.711 48.5524 249.506 49.0526 249.506 49.6891C249.506 50.3711 249.711 50.9735 250.12 51.4964C250.529 52.0193 251.052 52.5194 251.689 52.9968C252.348 53.4742 253.007 53.9857 253.666 54.5313C254.394 55.0769 255.042 55.6339 255.61 56.2022C256.201 56.7478 256.667 57.3502 257.008 58.0095C257.372 58.646 257.554 59.419 257.554 60.3283C257.554 61.3513 257.247 62.2493 256.633 63.0222C256.019 63.7951 255.212 64.3976 254.212 64.8295C253.212 65.2614 252.098 65.4774 250.87 65.4774C250.12 65.4774 249.461 65.3978 248.892 65.2387C248.347 65.1023 247.892 64.9204 247.528 64.6931C247.187 64.534 246.88 64.3976 246.608 64.2839C246.358 64.1702 246.108 64.0907 245.857 64.0452C245.63 64.0225 245.437 64.1248 245.278 64.3521C245.119 64.5794 244.994 64.875 244.903 65.2387H244.187C244.232 64.5112 244.266 63.6246 244.289 62.5789C244.312 61.5332 244.323 60.1464 244.323 58.4187H245.039C245.175 59.6463 245.426 60.7261 245.789 61.6582C246.176 62.5903 246.687 63.3291 247.324 63.8747C247.96 64.3976 248.711 64.659 249.574 64.659C249.961 64.659 250.313 64.5908 250.631 64.4544C250.972 64.2953 251.245 64.0566 251.45 63.7383C251.677 63.42 251.791 63.0108 251.791 62.5107C251.791 61.5104 251.473 60.6807 250.836 60.0214C250.2 59.3394 249.415 58.6006 248.483 57.8049C247.756 57.1911 247.074 56.5887 246.437 55.9976C245.823 55.4065 245.312 54.7586 244.903 54.0539C244.516 53.3492 244.323 52.5535 244.323 51.6669C244.323 50.6439 244.607 49.78 245.175 49.0753C245.767 48.3478 246.528 47.8022 247.46 47.4385C248.392 47.052 249.393 46.8588 250.461 46.8588ZM276.916 46.9611V61.2831C276.916 62.3061 277.063 63.0677 277.359 63.5678C277.677 64.0452 278.211 64.2839 278.962 64.2839V65C278.257 64.9318 277.552 64.8977 276.847 64.8977C275.802 64.8977 274.824 64.9318 273.915 65C273.028 65.0682 272.187 65.1932 271.391 65.3751V62.613C270.846 63.636 270.096 64.3748 269.141 64.8295C268.209 65.2614 267.14 65.4774 265.935 65.4774C264.935 65.4774 264.128 65.3524 263.514 65.1023C262.923 64.8522 262.469 64.5226 262.15 64.1134C261.787 63.7042 261.525 63.1586 261.366 62.4766C261.207 61.7719 261.127 60.8512 261.127 59.7145V51.0531C261.127 50.0301 260.98 49.2799 260.684 48.8025C260.389 48.3024 259.854 48.0523 259.081 48.0523V47.3362C259.809 47.4044 260.514 47.4385 261.196 47.4385C262.241 47.4385 263.219 47.4044 264.128 47.3362C265.037 47.2453 265.879 47.1202 266.652 46.9611V61.3513C266.652 61.8742 266.708 62.3175 266.822 62.6812C266.936 63.0449 267.129 63.3291 267.402 63.5337C267.675 63.7383 268.038 63.8406 268.493 63.8406C269.016 63.8406 269.493 63.7042 269.925 63.4314C270.357 63.1586 270.709 62.7835 270.982 62.3061C271.255 61.806 271.391 61.249 271.391 60.6352V51.0531C271.391 50.0301 271.244 49.2799 270.948 48.8025C270.653 48.3024 270.118 48.0523 269.345 48.0523V47.3362C270.073 47.4044 270.778 47.4385 271.46 47.4385C272.505 47.4385 273.483 47.4044 274.392 47.3362C275.302 47.2453 276.143 47.1202 276.916 46.9611ZM287.836 46.9952V67.728C287.836 68.8192 288.098 69.5467 288.621 69.9104C289.166 70.2741 289.905 70.456 290.837 70.456V71.1721C290.223 71.1494 289.371 71.1153 288.28 71.0698C287.189 71.0471 286.041 71.0357 284.836 71.0357C283.972 71.0357 283.108 71.0471 282.244 71.0698C281.403 71.1153 280.766 71.1494 280.334 71.1721V70.456C281.062 70.456 281.573 70.2855 281.869 69.9445C282.164 69.6262 282.312 69.0011 282.312 68.069V51.0872C282.312 50.0642 282.164 49.314 281.869 48.8366C281.573 48.3365 281.039 48.0864 280.266 48.0864V47.3703C280.994 47.4385 281.698 47.4726 282.38 47.4726C283.426 47.4726 284.404 47.4385 285.313 47.3703C286.222 47.2794 287.064 47.1543 287.836 46.9952ZM293.054 46.8588C294.213 46.8588 295.236 47.1771 296.123 47.8136C297.032 48.4274 297.748 49.3708 298.271 50.6439C298.817 51.8942 299.089 53.4742 299.089 55.3838C299.089 57.1797 298.885 58.7142 298.476 59.9873C298.089 61.2604 297.532 62.3061 296.805 63.1245C296.1 63.9429 295.259 64.5453 294.281 64.9318C293.327 65.2955 292.292 65.4774 291.178 65.4774C290.337 65.4774 289.553 65.3524 288.825 65.1023C288.121 64.875 287.564 64.4999 287.154 63.977L287.495 63.5337C287.7 63.852 287.984 64.0907 288.348 64.2498C288.712 64.4089 289.098 64.4885 289.507 64.4885C290.439 64.4885 291.178 64.1702 291.724 63.5337C292.292 62.8744 292.701 61.9196 292.951 60.6693C293.202 59.419 293.327 57.8958 293.327 56.0999C293.327 54.1221 293.213 52.5876 292.986 51.4964C292.758 50.3825 292.451 49.5982 292.065 49.1435C291.678 48.6888 291.224 48.4615 290.701 48.4615C289.973 48.4615 289.314 48.7457 288.723 49.314C288.155 49.8596 287.836 50.6098 287.768 51.5646L287.7 50.1324C288.177 49.0412 288.882 48.2228 289.814 47.6772C290.746 47.1316 291.826 46.8588 293.054 46.8588ZM308.516 46.9952V67.728C308.516 68.8192 308.778 69.5467 309.301 69.9104C309.846 70.2741 310.585 70.456 311.517 70.456V71.1721C310.903 71.1494 310.051 71.1153 308.96 71.0698C307.868 71.0471 306.72 71.0357 305.515 71.0357C304.652 71.0357 303.788 71.0471 302.924 71.0698C302.083 71.1153 301.446 71.1494 301.014 71.1721V70.456C301.742 70.456 302.253 70.2855 302.549 69.9445C302.844 69.6262 302.992 69.0011 302.992 68.069V51.0872C302.992 50.0642 302.844 49.314 302.549 48.8366C302.253 48.3365 301.719 48.0864 300.946 48.0864V47.3703C301.673 47.4385 302.378 47.4726 303.06 47.4726C304.106 47.4726 305.083 47.4385 305.993 47.3703C306.902 47.2794 307.743 47.1543 308.516 46.9952ZM313.734 46.8588C314.893 46.8588 315.916 47.1771 316.803 47.8136C317.712 48.4274 318.428 49.3708 318.951 50.6439C319.496 51.8942 319.769 53.4742 319.769 55.3838C319.769 57.1797 319.565 58.7142 319.155 59.9873C318.769 61.2604 318.212 62.3061 317.485 63.1245C316.78 63.9429 315.939 64.5453 314.961 64.9318C314.006 65.2955 312.972 65.4774 311.858 65.4774C311.017 65.4774 310.233 65.3524 309.505 65.1023C308.8 64.875 308.243 64.4999 307.834 63.977L308.175 63.5337C308.38 63.852 308.664 64.0907 309.028 64.2498C309.391 64.4089 309.778 64.4885 310.187 64.4885C311.119 64.4885 311.858 64.1702 312.404 63.5337C312.972 62.8744 313.381 61.9196 313.631 60.6693C313.881 59.419 314.006 57.8958 314.006 56.0999C314.006 54.1221 313.893 52.5876 313.665 51.4964C313.438 50.3825 313.131 49.5982 312.745 49.1435C312.358 48.6888 311.903 48.4615 311.381 48.4615C310.653 48.4615 309.994 48.7457 309.403 49.314C308.834 49.8596 308.516 50.6098 308.448 51.5646L308.38 50.1324C308.857 49.0412 309.562 48.2228 310.494 47.6772C311.426 47.1316 312.506 46.8588 313.734 46.8588ZM330.696 46.8588C332.401 46.8588 333.89 47.1657 335.164 47.7795C336.459 48.3706 337.46 49.3481 338.164 50.7121C338.892 52.0761 339.256 53.8948 339.256 56.1681C339.256 58.4414 338.892 60.2601 338.164 61.6241C337.46 62.9881 336.459 63.977 335.164 64.5908C333.89 65.1819 332.401 65.4774 330.696 65.4774C329.014 65.4774 327.525 65.1819 326.229 64.5908C324.956 63.977 323.956 62.9881 323.229 61.6241C322.501 60.2601 322.137 58.4414 322.137 56.1681C322.137 53.8948 322.501 52.0761 323.229 50.7121C323.956 49.3481 324.956 48.3706 326.229 47.7795C327.525 47.1657 329.014 46.8588 330.696 46.8588ZM330.696 47.5408C329.901 47.5408 329.23 48.2228 328.685 49.5868C328.162 50.9281 327.9 53.1218 327.9 56.1681C327.9 59.2144 328.162 61.4195 328.685 62.7835C329.23 64.1248 329.901 64.7954 330.696 64.7954C331.515 64.7954 332.185 64.1248 332.708 62.7835C333.231 61.4195 333.493 59.2144 333.493 56.1681C333.493 53.1218 333.231 50.9281 332.708 49.5868C332.185 48.2228 331.515 47.5408 330.696 47.5408ZM353.281 46.8588C354.054 46.8588 354.668 47.0293 355.123 47.3703C355.577 47.6886 355.907 48.1091 356.112 48.632C356.316 49.1321 356.418 49.6323 356.418 50.1324C356.418 51.0645 356.146 51.8147 355.6 52.383C355.077 52.9513 354.384 53.2355 353.52 53.2355C352.611 53.2355 351.917 53.0309 351.44 52.6217C350.962 52.1898 350.724 51.6214 350.724 50.9167C350.724 50.212 350.872 49.6323 351.167 49.1776C351.485 48.7229 351.872 48.3365 352.326 48.0182C351.985 47.9727 351.656 48.0182 351.338 48.1546C350.974 48.2455 350.633 48.416 350.315 48.6661C349.996 48.9162 349.724 49.2117 349.496 49.5527C349.269 49.8937 349.087 50.2688 348.951 50.678C348.837 51.0645 348.78 51.4623 348.78 51.8715V61.4877C348.78 62.5789 349.019 63.3177 349.496 63.7042C349.996 64.0907 350.781 64.2839 351.849 64.2839V65C351.326 64.9773 350.553 64.9545 349.53 64.9318C348.507 64.8863 347.45 64.8636 346.359 64.8636C345.381 64.8636 344.393 64.8863 343.392 64.9318C342.415 64.9545 341.687 64.9773 341.21 65V64.2839C341.96 64.2839 342.483 64.1134 342.778 63.7724C343.097 63.4314 343.256 62.7835 343.256 61.8287V51.0531C343.256 50.0301 343.108 49.2799 342.813 48.8025C342.517 48.3024 341.983 48.0523 341.21 48.0523V47.3362C341.937 47.4044 342.642 47.4385 343.324 47.4385C344.347 47.4385 345.313 47.4044 346.223 47.3362C347.155 47.2453 348.007 47.1202 348.78 46.9611V49.7573C349.053 49.1662 349.405 48.6547 349.837 48.2228C350.292 47.7909 350.803 47.4612 351.372 47.2339C351.963 46.9838 352.599 46.8588 353.281 46.8588ZM364.76 41.7779V47.3362H368.443V48.0182H364.76V61.9651C364.76 62.5334 364.863 62.9426 365.067 63.1927C365.272 63.42 365.579 63.5337 365.988 63.5337C366.329 63.5337 366.681 63.42 367.045 63.1927C367.432 62.9654 367.784 62.5789 368.102 62.0333L368.648 62.3743C368.216 63.3064 367.613 64.0566 366.841 64.6249C366.09 65.1932 365.101 65.4774 363.874 65.4774C363.124 65.4774 362.453 65.3751 361.862 65.1705C361.294 64.9886 360.816 64.7045 360.43 64.318C359.93 63.8179 359.6 63.2041 359.441 62.4766C359.304 61.7264 359.236 60.7602 359.236 59.5781V48.0182H356.508V47.3362H359.236V43.0737C360.305 43.0737 361.282 42.9714 362.169 42.7668C363.078 42.5622 363.942 42.2326 364.76 41.7779ZM376.852 38.3338C378.557 38.3338 380.046 38.5839 381.319 39.084C382.592 39.5614 383.581 40.2661 384.286 41.1982C385.013 42.1075 385.377 43.1987 385.377 44.4718C385.377 45.7449 384.99 46.8815 384.217 47.8818C383.467 48.8821 382.41 49.7346 381.046 50.4393C379.705 51.1213 378.136 51.6555 376.34 52.042V57.0206H375.658V51.7351C376.863 51.1668 377.761 50.5416 378.352 49.8596C378.966 49.1776 379.375 48.4388 379.58 47.6431C379.784 46.8474 379.887 46.0063 379.887 45.1197C379.887 42.96 379.512 41.4028 378.761 40.448C378.034 39.4932 377.079 39.0158 375.897 39.0158C375.26 39.0158 374.692 39.084 374.192 39.2204C373.692 39.3568 373.317 39.5387 373.067 39.766C373.749 40.0161 374.26 40.3684 374.601 40.8231C374.965 41.255 375.147 41.8234 375.147 42.5281C375.147 43.2783 374.874 43.9148 374.328 44.4377C373.783 44.9378 373.055 45.1879 372.146 45.1879C371.373 45.1879 370.748 44.9378 370.271 44.4377C369.793 43.9148 369.554 43.3124 369.554 42.6304C369.554 41.8802 369.748 41.2664 370.134 40.789C370.521 40.2889 371.009 39.8683 371.6 39.5273C372.169 39.209 372.896 38.9362 373.783 38.7089C374.669 38.4588 375.692 38.3338 376.852 38.3338ZM376.068 59.9191C377.022 59.9191 377.784 60.1578 378.352 60.6352C378.921 61.1126 379.205 61.7946 379.205 62.6812C379.205 63.5905 378.921 64.2839 378.352 64.7613C377.784 65.2387 377.022 65.4774 376.068 65.4774C375.067 65.4774 374.294 65.2387 373.749 64.7613C373.203 64.2839 372.93 63.5905 372.93 62.6812C372.93 61.7946 373.203 61.1126 373.749 60.6352C374.294 60.1578 375.067 59.9191 376.068 59.9191Z" fill="#302C60"/>
<path d="M452.758 52L450.198 48.4C449.91 48.432 449.611 48.448 449.302 48.448H446.294V52H445.11V40.8H449.302C450.731 40.8 451.851 41.1413 452.662 41.824C453.472 42.5067 453.878 43.4453 453.878 44.64C453.878 45.5147 453.654 46.256 453.206 46.864C452.768 47.4613 452.139 47.8933 451.318 48.16L454.054 52H452.758ZM449.27 47.44C450.379 47.44 451.227 47.1947 451.814 46.704C452.4 46.2133 452.694 45.5253 452.694 44.64C452.694 43.7333 452.4 43.04 451.814 42.56C451.227 42.0693 450.379 41.824 449.27 41.824H446.294V47.44H449.27ZM463.76 48.144H456.72C456.784 49.0187 457.12 49.728 457.728 50.272C458.336 50.8053 459.104 51.072 460.032 51.072C460.555 51.072 461.035 50.9813 461.472 50.8C461.909 50.608 462.288 50.3307 462.608 49.968L463.248 50.704C462.875 51.152 462.405 51.4933 461.84 51.728C461.285 51.9627 460.672 52.08 460 52.08C459.136 52.08 458.368 51.8987 457.696 51.536C457.035 51.1627 456.517 50.6507 456.144 50C455.771 49.3493 455.584 48.6133 455.584 47.792C455.584 46.9707 455.76 46.2347 456.112 45.584C456.475 44.9333 456.965 44.4267 457.584 44.064C458.213 43.7013 458.917 43.52 459.696 43.52C460.475 43.52 461.173 43.7013 461.792 44.064C462.411 44.4267 462.896 44.9333 463.248 45.584C463.6 46.224 463.776 46.96 463.776 47.792L463.76 48.144ZM459.696 44.496C458.885 44.496 458.203 44.7573 457.648 45.28C457.104 45.792 456.795 46.464 456.72 47.296H462.688C462.613 46.464 462.299 45.792 461.744 45.28C461.2 44.7573 460.517 44.496 459.696 44.496ZM468.798 43.52C469.897 43.52 470.739 43.7973 471.326 44.352C471.913 44.896 472.206 45.7067 472.206 46.784V52H471.118V50.688C470.862 51.1253 470.483 51.4667 469.982 51.712C469.491 51.9573 468.905 52.08 468.222 52.08C467.283 52.08 466.537 51.856 465.982 51.408C465.427 50.96 465.15 50.368 465.15 49.632C465.15 48.9173 465.406 48.3413 465.918 47.904C466.441 47.4667 467.267 47.248 468.398 47.248H471.07V46.736C471.07 46.0107 470.867 45.4613 470.462 45.088C470.057 44.704 469.465 44.512 468.686 44.512C468.153 44.512 467.641 44.6027 467.15 44.784C466.659 44.9547 466.238 45.1947 465.886 45.504L465.374 44.656C465.801 44.2933 466.313 44.016 466.91 43.824C467.507 43.6213 468.137 43.52 468.798 43.52ZM468.398 51.184C469.038 51.184 469.587 51.04 470.046 50.752C470.505 50.4533 470.846 50.0267 471.07 49.472V48.096H468.43C466.99 48.096 466.27 48.5973 466.27 49.6C466.27 50.0907 466.457 50.48 466.83 50.768C467.203 51.0453 467.726 51.184 468.398 51.184ZM478.811 52.08C477.979 52.08 477.232 51.8987 476.571 51.536C475.92 51.1733 475.408 50.6667 475.035 50.016C474.661 49.3547 474.475 48.6133 474.475 47.792C474.475 46.9707 474.661 46.2347 475.035 45.584C475.408 44.9333 475.92 44.4267 476.571 44.064C477.232 43.7013 477.979 43.52 478.811 43.52C479.536 43.52 480.181 43.664 480.747 43.952C481.323 44.2293 481.776 44.64 482.107 45.184L481.259 45.76C480.981 45.344 480.629 45.0347 480.203 44.832C479.776 44.6187 479.312 44.512 478.811 44.512C478.203 44.512 477.653 44.6507 477.163 44.928C476.683 45.1947 476.304 45.5787 476.027 46.08C475.76 46.5813 475.627 47.152 475.627 47.792C475.627 48.4427 475.76 49.0187 476.027 49.52C476.304 50.0107 476.683 50.3947 477.163 50.672C477.653 50.9387 478.203 51.072 478.811 51.072C479.312 51.072 479.776 50.9707 480.203 50.768C480.629 50.5653 480.981 50.256 481.259 49.84L482.107 50.416C481.776 50.96 481.323 51.376 480.747 51.664C480.171 51.9413 479.525 52.08 478.811 52.08ZM488.501 43.52C489.557 43.52 490.395 43.8293 491.013 44.448C491.643 45.056 491.957 45.9467 491.957 47.12V52H490.821V47.232C490.821 46.3573 490.603 45.6907 490.165 45.232C489.728 44.7733 489.104 44.544 488.293 44.544C487.387 44.544 486.667 44.816 486.133 45.36C485.611 45.8933 485.349 46.6347 485.349 47.584V52H484.213V40.128H485.349V45.056C485.659 44.5653 486.085 44.1867 486.629 43.92C487.173 43.6533 487.797 43.52 488.501 43.52ZM502.669 52.08C501.858 52.08 501.128 51.8987 500.477 51.536C499.826 51.1627 499.314 50.6507 498.941 50C498.568 49.3493 498.381 48.6133 498.381 47.792C498.381 46.9707 498.568 46.2347 498.941 45.584C499.314 44.9333 499.826 44.4267 500.477 44.064C501.128 43.7013 501.858 43.52 502.669 43.52C503.48 43.52 504.21 43.7013 504.861 44.064C505.512 44.4267 506.018 44.9333 506.381 45.584C506.754 46.2347 506.941 46.9707 506.941 47.792C506.941 48.6133 506.754 49.3493 506.381 50C506.018 50.6507 505.512 51.1627 504.861 51.536C504.21 51.8987 503.48 52.08 502.669 52.08ZM502.669 51.072C503.266 51.072 503.8 50.9387 504.269 50.672C504.749 50.3947 505.122 50.0053 505.389 49.504C505.656 49.0027 505.789 48.432 505.789 47.792C505.789 47.152 505.656 46.5813 505.389 46.08C505.122 45.5787 504.749 45.1947 504.269 44.928C503.8 44.6507 503.266 44.512 502.669 44.512C502.072 44.512 501.533 44.6507 501.053 44.928C500.584 45.1947 500.21 45.5787 499.933 46.08C499.666 46.5813 499.533 47.152 499.533 47.792C499.533 48.432 499.666 49.0027 499.933 49.504C500.21 50.0053 500.584 50.3947 501.053 50.672C501.533 50.9387 502.072 51.072 502.669 51.072ZM516.844 43.584V52H515.756V50.464C515.458 50.976 515.047 51.376 514.524 51.664C514.002 51.9413 513.404 52.08 512.732 52.08C511.634 52.08 510.764 51.776 510.124 51.168C509.495 50.5493 509.18 49.648 509.18 48.464V43.584H510.316V48.352C510.316 49.2373 510.535 49.9093 510.972 50.368C511.41 50.8267 512.034 51.056 512.844 51.056C513.73 51.056 514.428 50.7893 514.94 50.256C515.452 49.712 515.708 48.96 515.708 48V43.584H516.844ZM524.458 51.488C524.245 51.68 523.978 51.8293 523.658 51.936C523.349 52.032 523.023 52.08 522.682 52.08C521.893 52.08 521.285 51.8667 520.858 51.44C520.431 51.0133 520.218 50.4107 520.218 49.632V44.544H518.714V43.584H520.218V41.744H521.354V43.584H523.914V44.544H521.354V49.568C521.354 50.0693 521.477 50.4533 521.722 50.72C521.978 50.976 522.341 51.104 522.81 51.104C523.045 51.104 523.269 51.0667 523.482 50.992C523.706 50.9173 523.898 50.8107 524.058 50.672L524.458 51.488ZM537.785 43.584L534.041 52H532.873L529.145 43.584H530.329L533.481 50.752L536.665 43.584H537.785ZM539.385 43.584H540.521V52H539.385V43.584ZM539.961 41.744C539.727 41.744 539.529 41.664 539.369 41.504C539.209 41.344 539.129 41.152 539.129 40.928C539.129 40.7147 539.209 40.528 539.369 40.368C539.529 40.208 539.727 40.128 539.961 40.128C540.196 40.128 540.393 40.208 540.553 40.368C540.713 40.5173 540.793 40.6987 540.793 40.912C540.793 41.1467 540.713 41.344 540.553 41.504C540.393 41.664 540.196 41.744 539.961 41.744ZM546.626 43.52C547.725 43.52 548.567 43.7973 549.154 44.352C549.741 44.896 550.034 45.7067 550.034 46.784V52H548.946V50.688C548.69 51.1253 548.311 51.4667 547.81 51.712C547.319 51.9573 546.733 52.08 546.05 52.08C545.111 52.08 544.365 51.856 543.81 51.408C543.255 50.96 542.978 50.368 542.978 49.632C542.978 48.9173 543.234 48.3413 543.746 47.904C544.269 47.4667 545.095 47.248 546.226 47.248H548.898V46.736C548.898 46.0107 548.695 45.4613 548.29 45.088C547.885 44.704 547.293 44.512 546.514 44.512C545.981 44.512 545.469 44.6027 544.978 44.784C544.487 44.9547 544.066 45.1947 543.714 45.504L543.202 44.656C543.629 44.2933 544.141 44.016 544.738 43.824C545.335 43.6213 545.965 43.52 546.626 43.52ZM546.226 51.184C546.866 51.184 547.415 51.04 547.874 50.752C548.333 50.4533 548.674 50.0267 548.898 49.472V48.096H546.258C544.818 48.096 544.098 48.5973 544.098 49.6C544.098 50.0907 544.285 50.48 544.658 50.768C545.031 51.0453 545.554 51.184 546.226 51.184ZM557.547 40.8H562.107C563.291 40.8 564.336 41.04 565.243 41.52C566.15 41.9893 566.854 42.6507 567.355 43.504C567.856 44.3467 568.107 45.312 568.107 46.4C568.107 47.488 567.856 48.4587 567.355 49.312C566.854 50.1547 566.15 50.816 565.243 51.296C564.336 51.7653 563.291 52 562.107 52H557.547V40.8ZM562.043 50.976C563.024 50.976 563.883 50.784 564.619 50.4C565.355 50.0053 565.926 49.4667 566.331 48.784C566.736 48.0907 566.939 47.296 566.939 46.4C566.939 45.504 566.736 44.7147 566.331 44.032C565.926 43.3387 565.355 42.8 564.619 42.416C563.883 42.0213 563.024 41.824 562.043 41.824H558.731V50.976H562.043ZM570.526 43.584H571.662V52H570.526V43.584ZM571.102 41.744C570.867 41.744 570.67 41.664 570.51 41.504C570.35 41.344 570.27 41.152 570.27 40.928C570.27 40.7147 570.35 40.528 570.51 40.368C570.67 40.208 570.867 40.128 571.102 40.128C571.337 40.128 571.534 40.208 571.694 40.368C571.854 40.5173 571.934 40.6987 571.934 40.912C571.934 41.1467 571.854 41.344 571.694 41.504C571.534 41.664 571.337 41.744 571.102 41.744ZM577.079 52.08C576.396 52.08 575.74 51.984 575.111 51.792C574.492 51.5893 574.007 51.3387 573.655 51.04L574.167 50.144C574.519 50.4213 574.961 50.6507 575.495 50.832C576.028 51.0027 576.583 51.088 577.159 51.088C577.927 51.088 578.492 50.9707 578.855 50.736C579.228 50.4907 579.415 50.1493 579.415 49.712C579.415 49.4027 579.313 49.1627 579.111 48.992C578.908 48.8107 578.652 48.6773 578.343 48.592C578.033 48.496 577.623 48.4053 577.111 48.32C576.428 48.192 575.879 48.064 575.463 47.936C575.047 47.7973 574.689 47.568 574.391 47.248C574.103 46.928 573.959 46.4853 573.959 45.92C573.959 45.216 574.252 44.64 574.839 44.192C575.425 43.744 576.241 43.52 577.287 43.52C577.831 43.52 578.375 43.5947 578.919 43.744C579.463 43.8827 579.911 44.0693 580.263 44.304L579.767 45.216C579.073 44.736 578.247 44.496 577.287 44.496C576.561 44.496 576.012 44.624 575.639 44.88C575.276 45.136 575.095 45.472 575.095 45.888C575.095 46.208 575.196 46.464 575.399 46.656C575.612 46.848 575.873 46.992 576.183 47.088C576.492 47.1733 576.919 47.264 577.463 47.36C578.135 47.488 578.673 47.616 579.079 47.744C579.484 47.872 579.831 48.0907 580.119 48.4C580.407 48.7093 580.551 49.136 580.551 49.68C580.551 50.416 580.241 51.0027 579.623 51.44C579.015 51.8667 578.167 52.08 577.079 52.08ZM586.139 52.08C585.307 52.08 584.56 51.8987 583.899 51.536C583.248 51.1733 582.736 50.6667 582.363 50.016C581.99 49.3547 581.803 48.6133 581.803 47.792C581.803 46.9707 581.99 46.2347 582.363 45.584C582.736 44.9333 583.248 44.4267 583.899 44.064C584.56 43.7013 585.307 43.52 586.139 43.52C586.864 43.52 587.51 43.664 588.075 43.952C588.651 44.2293 589.104 44.64 589.435 45.184L588.587 45.76C588.31 45.344 587.958 45.0347 587.531 44.832C587.104 44.6187 586.64 44.512 586.139 44.512C585.531 44.512 584.982 44.6507 584.491 44.928C584.011 45.1947 583.632 45.5787 583.355 46.08C583.088 46.5813 582.955 47.152 582.955 47.792C582.955 48.4427 583.088 49.0187 583.355 49.52C583.632 50.0107 584.011 50.3947 584.491 50.672C584.982 50.9387 585.531 51.072 586.139 51.072C586.64 51.072 587.104 50.9707 587.531 50.768C587.958 50.5653 588.31 50.256 588.587 49.84L589.435 50.416C589.104 50.96 588.651 51.376 588.075 51.664C587.499 51.9413 586.854 52.08 586.139 52.08ZM594.966 52.08C594.155 52.08 593.425 51.8987 592.774 51.536C592.123 51.1627 591.611 50.6507 591.238 50C590.865 49.3493 590.678 48.6133 590.678 47.792C590.678 46.9707 590.865 46.2347 591.238 45.584C591.611 44.9333 592.123 44.4267 592.774 44.064C593.425 43.7013 594.155 43.52 594.966 43.52C595.777 43.52 596.507 43.7013 597.158 44.064C597.809 44.4267 598.315 44.9333 598.678 45.584C599.051 46.2347 599.238 46.9707 599.238 47.792C599.238 48.6133 599.051 49.3493 598.678 50C598.315 50.6507 597.809 51.1627 597.158 51.536C596.507 51.8987 595.777 52.08 594.966 52.08ZM594.966 51.072C595.563 51.072 596.097 50.9387 596.566 50.672C597.046 50.3947 597.419 50.0053 597.686 49.504C597.953 49.0027 598.086 48.432 598.086 47.792C598.086 47.152 597.953 46.5813 597.686 46.08C597.419 45.5787 597.046 45.1947 596.566 44.928C596.097 44.6507 595.563 44.512 594.966 44.512C594.369 44.512 593.83 44.6507 593.35 44.928C592.881 45.1947 592.507 45.5787 592.23 46.08C591.963 46.5813 591.83 47.152 591.83 47.792C591.83 48.432 591.963 49.0027 592.23 49.504C592.507 50.0053 592.881 50.3947 593.35 50.672C593.83 50.9387 594.369 51.072 594.966 51.072ZM602.645 45.232C602.912 44.6667 603.306 44.24 603.829 43.952C604.362 43.664 605.018 43.52 605.797 43.52V44.624L605.525 44.608C604.64 44.608 603.946 44.88 603.445 45.424C602.944 45.968 602.693 46.7307 602.693 47.712V52H601.557V43.584H602.645V45.232ZM615.456 40.128V52H614.368V50.336C614.027 50.9013 613.573 51.3333 613.008 51.632C612.453 51.9307 611.824 52.08 611.12 52.08C610.331 52.08 609.616 51.8987 608.976 51.536C608.336 51.1733 607.835 50.6667 607.472 50.016C607.109 49.3653 606.928 48.624 606.928 47.792C606.928 46.96 607.109 46.2187 607.472 45.568C607.835 44.9173 608.336 44.416 608.976 44.064C609.616 43.7013 610.331 43.52 611.12 43.52C611.803 43.52 612.416 43.664 612.96 43.952C613.515 44.2293 613.968 44.64 614.32 45.184V40.128H615.456ZM611.216 51.072C611.803 51.072 612.331 50.9387 612.8 50.672C613.28 50.3947 613.653 50.0053 613.92 49.504C614.197 49.0027 614.336 48.432 614.336 47.792C614.336 47.152 614.197 46.5813 613.92 46.08C613.653 45.5787 613.28 45.1947 612.8 44.928C612.331 44.6507 611.803 44.512 611.216 44.512C610.619 44.512 610.08 44.6507 609.6 44.928C609.131 45.1947 608.757 45.5787 608.48 46.08C608.213 46.5813 608.08 47.152 608.08 47.792C608.08 48.432 608.213 49.0027 608.48 49.504C608.757 50.0053 609.131 50.3947 609.6 50.672C610.08 50.9387 610.619 51.072 611.216 51.072ZM618.748 50.336C618.993 50.336 619.196 50.4213 619.356 50.592C619.516 50.752 619.596 50.9547 619.596 51.2C619.596 51.328 619.574 51.4667 619.532 51.616C619.5 51.7653 619.446 51.936 619.372 52.128L618.7 54.336H617.932L618.476 52.016C618.305 51.9627 618.166 51.8667 618.06 51.728C617.953 51.5787 617.9 51.4027 617.9 51.2C617.9 50.9547 617.98 50.752 618.14 50.592C618.3 50.4213 618.502 50.336 618.748 50.336ZM633.526 48.144H626.486C626.55 49.0187 626.886 49.728 627.494 50.272C628.102 50.8053 628.87 51.072 629.798 51.072C630.32 51.072 630.8 50.9813 631.238 50.8C631.675 50.608 632.054 50.3307 632.374 49.968L633.014 50.704C632.64 51.152 632.171 51.4933 631.606 51.728C631.051 51.9627 630.438 52.08 629.766 52.08C628.902 52.08 628.134 51.8987 627.462 51.536C626.8 51.1627 626.283 50.6507 625.91 50C625.536 49.3493 625.35 48.6133 625.35 47.792C625.35 46.9707 625.526 46.2347 625.878 45.584C626.24 44.9333 626.731 44.4267 627.35 44.064C627.979 43.7013 628.683 43.52 629.462 43.52C630.24 43.52 630.939 43.7013 631.558 44.064C632.176 44.4267 632.662 44.9333 633.014 45.584C633.366 46.224 633.542 46.96 633.542 47.792L633.526 48.144ZM629.462 44.496C628.651 44.496 627.968 44.7573 627.414 45.28C626.87 45.792 626.56 46.464 626.486 47.296H632.454C632.379 46.464 632.064 45.792 631.51 45.28C630.966 44.7573 630.283 44.496 629.462 44.496ZM646.35 43.52C647.406 43.52 648.233 43.824 648.83 44.432C649.438 45.04 649.742 45.936 649.742 47.12V52H648.606V47.232C648.606 46.3573 648.393 45.6907 647.966 45.232C647.55 44.7733 646.958 44.544 646.19 44.544C645.315 44.544 644.627 44.816 644.126 45.36C643.625 45.8933 643.374 46.6347 643.374 47.584V52H642.238V47.232C642.238 46.3573 642.025 45.6907 641.598 45.232C641.182 44.7733 640.585 44.544 639.806 44.544C638.942 44.544 638.254 44.816 637.742 45.36C637.241 45.8933 636.99 46.6347 636.99 47.584V52H635.854V43.584H636.942V45.12C637.241 44.608 637.657 44.2133 638.19 43.936C638.723 43.6587 639.337 43.52 640.03 43.52C640.734 43.52 641.342 43.6693 641.854 43.968C642.377 44.2667 642.766 44.7093 643.022 45.296C643.331 44.7413 643.774 44.3093 644.35 44C644.937 43.68 645.603 43.52 646.35 43.52ZM655.767 43.52C656.865 43.52 657.708 43.7973 658.295 44.352C658.881 44.896 659.175 45.7067 659.175 46.784V52H658.087V50.688C657.831 51.1253 657.452 51.4667 656.951 51.712C656.46 51.9573 655.873 52.08 655.191 52.08C654.252 52.08 653.505 51.856 652.951 51.408C652.396 50.96 652.119 50.368 652.119 49.632C652.119 48.9173 652.375 48.3413 652.887 47.904C653.409 47.4667 654.236 47.248 655.367 47.248H658.039V46.736C658.039 46.0107 657.836 45.4613 657.431 45.088C657.025 44.704 656.433 44.512 655.655 44.512C655.121 44.512 654.609 44.6027 654.119 44.784C653.628 44.9547 653.207 45.1947 652.855 45.504L652.343 44.656C652.769 44.2933 653.281 44.016 653.879 43.824C654.476 43.6213 655.105 43.52 655.767 43.52ZM655.367 51.184C656.007 51.184 656.556 51.04 657.015 50.752C657.473 50.4533 657.815 50.0267 658.039 49.472V48.096H655.399C653.959 48.096 653.239 48.5973 653.239 49.6C653.239 50.0907 653.425 50.48 653.799 50.768C654.172 51.0453 654.695 51.184 655.367 51.184ZM662.26 43.584H663.396V52H662.26V43.584ZM662.836 41.744C662.602 41.744 662.404 41.664 662.244 41.504C662.084 41.344 662.004 41.152 662.004 40.928C662.004 40.7147 662.084 40.528 662.244 40.368C662.404 40.208 662.602 40.128 662.836 40.128C663.071 40.128 663.268 40.208 663.428 40.368C663.588 40.5173 663.668 40.6987 663.668 40.912C663.668 41.1467 663.588 41.344 663.428 41.504C663.268 41.664 663.071 41.744 662.836 41.744ZM666.557 40.128H667.693V52H666.557V40.128ZM673.11 52.08C672.427 52.08 671.771 51.984 671.142 51.792C670.523 51.5893 670.038 51.3387 669.686 51.04L670.198 50.144C670.55 50.4213 670.993 50.6507 671.526 50.832C672.059 51.0027 672.614 51.088 673.19 51.088C673.958 51.088 674.523 50.9707 674.886 50.736C675.259 50.4907 675.446 50.1493 675.446 49.712C675.446 49.4027 675.345 49.1627 675.142 48.992C674.939 48.8107 674.683 48.6773 674.374 48.592C674.065 48.496 673.654 48.4053 673.142 48.32C672.459 48.192 671.91 48.064 671.494 47.936C671.078 47.7973 670.721 47.568 670.422 47.248C670.134 46.928 669.99 46.4853 669.99 45.92C669.99 45.216 670.283 44.64 670.87 44.192C671.457 43.744 672.273 43.52 673.318 43.52C673.862 43.52 674.406 43.5947 674.95 43.744C675.494 43.8827 675.942 44.0693 676.294 44.304L675.798 45.216C675.105 44.736 674.278 44.496 673.318 44.496C672.593 44.496 672.043 44.624 671.67 44.88C671.307 45.136 671.126 45.472 671.126 45.888C671.126 46.208 671.227 46.464 671.43 46.656C671.643 46.848 671.905 46.992 672.214 47.088C672.523 47.1733 672.95 47.264 673.494 47.36C674.166 47.488 674.705 47.616 675.11 47.744C675.515 47.872 675.862 48.0907 676.15 48.4C676.438 48.7093 676.582 49.136 676.582 49.68C676.582 50.416 676.273 51.0027 675.654 51.44C675.046 51.8667 674.198 52.08 673.11 52.08ZM685.814 43.52C686.912 43.52 687.755 43.7973 688.342 44.352C688.928 44.896 689.222 45.7067 689.222 46.784V52H688.134V50.688C687.878 51.1253 687.499 51.4667 686.998 51.712C686.507 51.9573 685.92 52.08 685.238 52.08C684.299 52.08 683.552 51.856 682.998 51.408C682.443 50.96 682.166 50.368 682.166 49.632C682.166 48.9173 682.422 48.3413 682.934 47.904C683.456 47.4667 684.283 47.248 685.414 47.248H688.086V46.736C688.086 46.0107 687.883 45.4613 687.478 45.088C687.072 44.704 686.48 44.512 685.702 44.512C685.168 44.512 684.656 44.6027 684.166 44.784C683.675 44.9547 683.254 45.1947 682.902 45.504L682.39 44.656C682.816 44.2933 683.328 44.016 683.926 43.824C684.523 43.6213 685.152 43.52 685.814 43.52ZM685.414 51.184C686.054 51.184 686.603 51.04 687.062 50.752C687.52 50.4533 687.862 50.0267 688.086 49.472V48.096H685.446C684.006 48.096 683.286 48.5973 683.286 49.6C683.286 50.0907 683.472 50.48 683.846 50.768C684.219 51.0453 684.742 51.184 685.414 51.184ZM696.595 43.52C697.651 43.52 698.488 43.8293 699.107 44.448C699.736 45.056 700.051 45.9467 700.051 47.12V52H698.915V47.232C698.915 46.3573 698.696 45.6907 698.259 45.232C697.822 44.7733 697.198 44.544 696.387 44.544C695.48 44.544 694.76 44.816 694.227 45.36C693.704 45.8933 693.443 46.6347 693.443 47.584V52H692.307V43.584H693.395V45.136C693.704 44.624 694.131 44.2293 694.675 43.952C695.23 43.664 695.87 43.52 696.595 43.52ZM710.847 40.128V52H709.759V50.336C709.417 50.9013 708.964 51.3333 708.399 51.632C707.844 51.9307 707.215 52.08 706.511 52.08C705.721 52.08 705.007 51.8987 704.367 51.536C703.727 51.1733 703.225 50.6667 702.863 50.016C702.5 49.3653 702.319 48.624 702.319 47.792C702.319 46.96 702.5 46.2187 702.863 45.568C703.225 44.9173 703.727 44.416 704.367 44.064C705.007 43.7013 705.721 43.52 706.511 43.52C707.193 43.52 707.807 43.664 708.351 43.952C708.905 44.2293 709.359 44.64 709.711 45.184V40.128H710.847ZM706.607 51.072C707.193 51.072 707.721 50.9387 708.191 50.672C708.671 50.3947 709.044 50.0053 709.311 49.504C709.588 49.0027 709.727 48.432 709.727 47.792C709.727 47.152 709.588 46.5813 709.311 46.08C709.044 45.5787 708.671 45.1947 708.191 44.928C707.721 44.6507 707.193 44.512 706.607 44.512C706.009 44.512 705.471 44.6507 704.991 44.928C704.521 45.1947 704.148 45.5787 703.871 46.08C703.604 46.5813 703.471 47.152 703.471 47.792C703.471 48.432 703.604 49.0027 703.871 49.504C704.148 50.0053 704.521 50.3947 704.991 50.672C705.471 50.9387 706.009 51.072 706.607 51.072ZM719.286 45.232C719.552 44.6667 719.947 44.24 720.47 43.952C721.003 43.664 721.659 43.52 722.438 43.52V44.624L722.166 44.608C721.28 44.608 720.587 44.88 720.086 45.424C719.584 45.968 719.334 46.7307 719.334 47.712V52H718.198V43.584H719.286V45.232ZM731.745 48.144H724.705C724.769 49.0187 725.105 49.728 725.713 50.272C726.321 50.8053 727.089 51.072 728.017 51.072C728.539 51.072 729.019 50.9813 729.457 50.8C729.894 50.608 730.273 50.3307 730.593 49.968L731.233 50.704C730.859 51.152 730.39 51.4933 729.825 51.728C729.27 51.9627 728.657 52.08 727.985 52.08C727.121 52.08 726.353 51.8987 725.681 51.536C725.019 51.1627 724.502 50.6507 724.129 50C723.755 49.3493 723.569 48.6133 723.569 47.792C723.569 46.9707 723.745 46.2347 724.097 45.584C724.459 44.9333 724.95 44.4267 725.569 44.064C726.198 43.7013 726.902 43.52 727.681 43.52C728.459 43.52 729.158 43.7013 729.777 44.064C730.395 44.4267 730.881 44.9333 731.233 45.584C731.585 46.224 731.761 46.96 731.761 47.792L731.745 48.144ZM727.681 44.496C726.87 44.496 726.187 44.7573 725.633 45.28C725.089 45.792 724.779 46.464 724.705 47.296H730.673C730.598 46.464 730.283 45.792 729.729 45.28C729.185 44.7573 728.502 44.496 727.681 44.496ZM738.409 43.52C739.198 43.52 739.913 43.7013 740.553 44.064C741.193 44.416 741.694 44.9173 742.057 45.568C742.419 46.2187 742.601 46.96 742.601 47.792C742.601 48.6347 742.419 49.3813 742.057 50.032C741.694 50.6827 741.193 51.1893 740.553 51.552C739.923 51.904 739.209 52.08 738.409 52.08C737.726 52.08 737.107 51.9413 736.553 51.664C736.009 51.376 735.561 50.96 735.209 50.416V55.104H734.073V43.584H735.161V45.248C735.502 44.6933 735.95 44.2667 736.505 43.968C737.07 43.6693 737.705 43.52 738.409 43.52ZM738.329 51.072C738.915 51.072 739.449 50.9387 739.929 50.672C740.409 50.3947 740.782 50.0053 741.049 49.504C741.326 49.0027 741.465 48.432 741.465 47.792C741.465 47.152 741.326 46.5867 741.049 46.096C740.782 45.5947 740.409 45.2053 739.929 44.928C739.449 44.6507 738.915 44.512 738.329 44.512C737.731 44.512 737.193 44.6507 736.713 44.928C736.243 45.2053 735.87 45.5947 735.593 46.096C735.326 46.5867 735.193 47.152 735.193 47.792C735.193 48.432 735.326 49.0027 735.593 49.504C735.87 50.0053 736.243 50.3947 736.713 50.672C737.193 50.9387 737.731 51.072 738.329 51.072ZM748.357 52.08C747.546 52.08 746.815 51.8987 746.165 51.536C745.514 51.1627 745.002 50.6507 744.629 50C744.255 49.3493 744.069 48.6133 744.069 47.792C744.069 46.9707 744.255 46.2347 744.629 45.584C745.002 44.9333 745.514 44.4267 746.165 44.064C746.815 43.7013 747.546 43.52 748.357 43.52C749.167 43.52 749.898 43.7013 750.549 44.064C751.199 44.4267 751.706 44.9333 752.069 45.584C752.442 46.2347 752.629 46.9707 752.629 47.792C752.629 48.6133 752.442 49.3493 752.069 50C751.706 50.6507 751.199 51.1627 750.549 51.536C749.898 51.8987 749.167 52.08 748.357 52.08ZM748.357 51.072C748.954 51.072 749.487 50.9387 749.957 50.672C750.437 50.3947 750.81 50.0053 751.077 49.504C751.343 49.0027 751.477 48.432 751.477 47.792C751.477 47.152 751.343 46.5813 751.077 46.08C750.81 45.5787 750.437 45.1947 749.957 44.928C749.487 44.6507 748.954 44.512 748.357 44.512C747.759 44.512 747.221 44.6507 746.741 44.928C746.271 45.1947 745.898 45.5787 745.621 46.08C745.354 46.5813 745.221 47.152 745.221 47.792C745.221 48.432 745.354 49.0027 745.621 49.504C745.898 50.0053 746.271 50.3947 746.741 50.672C747.221 50.9387 747.759 51.072 748.357 51.072ZM757.204 52.08C756.521 52.08 755.865 51.984 755.236 51.792C754.617 51.5893 754.132 51.3387 753.78 51.04L754.292 50.144C754.644 50.4213 755.086 50.6507 755.62 50.832C756.153 51.0027 756.708 51.088 757.284 51.088C758.052 51.088 758.617 50.9707 758.98 50.736C759.353 50.4907 759.54 50.1493 759.54 49.712C759.54 49.4027 759.438 49.1627 759.236 48.992C759.033 48.8107 758.777 48.6773 758.468 48.592C758.158 48.496 757.748 48.4053 757.236 48.32C756.553 48.192 756.004 48.064 755.588 47.936C755.172 47.7973 754.814 47.568 754.516 47.248C754.228 46.928 754.084 46.4853 754.084 45.92C754.084 45.216 754.377 44.64 754.964 44.192C755.55 43.744 756.366 43.52 757.412 43.52C757.956 43.52 758.5 43.5947 759.044 43.744C759.588 43.8827 760.036 44.0693 760.388 44.304L759.892 45.216C759.198 44.736 758.372 44.496 757.412 44.496C756.686 44.496 756.137 44.624 755.764 44.88C755.401 45.136 755.22 45.472 755.22 45.888C755.22 46.208 755.321 46.464 755.524 46.656C755.737 46.848 755.998 46.992 756.308 47.088C756.617 47.1733 757.044 47.264 757.588 47.36C758.26 47.488 758.798 47.616 759.204 47.744C759.609 47.872 759.956 48.0907 760.244 48.4C760.532 48.7093 760.676 49.136 760.676 49.68C760.676 50.416 760.366 51.0027 759.748 51.44C759.14 51.8667 758.292 52.08 757.204 52.08ZM769.907 43.52C771.006 43.52 771.849 43.7973 772.435 44.352C773.022 44.896 773.315 45.7067 773.315 46.784V52H772.227V50.688C771.971 51.1253 771.593 51.4667 771.091 51.712C770.601 51.9573 770.014 52.08 769.331 52.08C768.393 52.08 767.646 51.856 767.091 51.408C766.537 50.96 766.259 50.368 766.259 49.632C766.259 48.9173 766.515 48.3413 767.027 47.904C767.55 47.4667 768.377 47.248 769.507 47.248H772.179V46.736C772.179 46.0107 771.977 45.4613 771.571 45.088C771.166 44.704 770.574 44.512 769.795 44.512C769.262 44.512 768.75 44.6027 768.259 44.784C767.769 44.9547 767.347 45.1947 766.995 45.504L766.483 44.656C766.91 44.2933 767.422 44.016 768.019 43.824C768.617 43.6213 769.246 43.52 769.907 43.52ZM769.507 51.184C770.147 51.184 770.697 51.04 771.155 50.752C771.614 50.4533 771.955 50.0267 772.179 49.472V48.096H769.539C768.099 48.096 767.379 48.5973 767.379 49.6C767.379 50.0907 767.566 50.48 767.939 50.768C768.313 51.0453 768.835 51.184 769.507 51.184ZM780.689 43.52C781.745 43.52 782.582 43.8293 783.201 44.448C783.83 45.056 784.145 45.9467 784.145 47.12V52H783.009V47.232C783.009 46.3573 782.79 45.6907 782.353 45.232C781.916 44.7733 781.292 44.544 780.481 44.544C779.574 44.544 778.854 44.816 778.321 45.36C777.798 45.8933 777.537 46.6347 777.537 47.584V52H776.401V43.584H777.489V45.136C777.798 44.624 778.225 44.2293 778.769 43.952C779.324 43.664 779.964 43.52 780.689 43.52ZM794.94 40.128V52H793.852V50.336C793.511 50.9013 793.058 51.3333 792.492 51.632C791.938 51.9307 791.308 52.08 790.604 52.08C789.815 52.08 789.1 51.8987 788.46 51.536C787.82 51.1733 787.319 50.6667 786.956 50.016C786.594 49.3653 786.412 48.624 786.412 47.792C786.412 46.96 786.594 46.2187 786.956 45.568C787.319 44.9173 787.82 44.416 788.46 44.064C789.1 43.7013 789.815 43.52 790.604 43.52C791.287 43.52 791.9 43.664 792.444 43.952C792.999 44.2293 793.452 44.64 793.804 45.184V40.128H794.94ZM790.7 51.072C791.287 51.072 791.815 50.9387 792.284 50.672C792.764 50.3947 793.138 50.0053 793.404 49.504C793.682 49.0027 793.82 48.432 793.82 47.792C793.82 47.152 793.682 46.5813 793.404 46.08C793.138 45.5787 792.764 45.1947 792.284 44.928C791.815 44.6507 791.287 44.512 790.7 44.512C790.103 44.512 789.564 44.6507 789.084 44.928C788.615 45.1947 788.242 45.5787 787.964 46.08C787.698 46.5813 787.564 47.152 787.564 47.792C787.564 48.432 787.698 49.0027 787.964 49.504C788.242 50.0053 788.615 50.3947 789.084 50.672C789.564 50.9387 790.103 51.072 790.7 51.072ZM810.084 43.584V50.976C810.084 52.4053 809.732 53.4613 809.028 54.144C808.334 54.8373 807.284 55.184 805.876 55.184C805.097 55.184 804.356 55.0667 803.652 54.832C802.958 54.608 802.393 54.2933 801.956 53.888L802.532 53.024C802.937 53.3867 803.428 53.6693 804.004 53.872C804.59 54.0747 805.204 54.176 805.844 54.176C806.91 54.176 807.694 53.9253 808.196 53.424C808.697 52.9333 808.948 52.1653 808.948 51.12V50.048C808.596 50.5813 808.132 50.9867 807.556 51.264C806.99 51.5413 806.361 51.68 805.668 51.68C804.878 51.68 804.158 51.5093 803.508 51.168C802.868 50.816 802.361 50.3307 801.988 49.712C801.625 49.0827 801.444 48.3733 801.444 47.584C801.444 46.7947 801.625 46.0907 801.988 45.472C802.361 44.8533 802.868 44.3733 803.508 44.032C804.148 43.6907 804.868 43.52 805.668 43.52C806.382 43.52 807.028 43.664 807.604 43.952C808.18 44.24 808.644 44.656 808.996 45.2V43.584H810.084ZM805.78 50.672C806.388 50.672 806.937 50.544 807.428 50.288C807.918 50.0213 808.297 49.6533 808.564 49.184C808.841 48.7147 808.98 48.1813 808.98 47.584C808.98 46.9867 808.841 46.4587 808.564 46C808.297 45.5307 807.918 45.168 807.428 44.912C806.948 44.6453 806.398 44.512 805.78 44.512C805.172 44.512 804.622 44.64 804.132 44.896C803.652 45.152 803.273 45.5147 802.996 45.984C802.729 46.4533 802.596 46.9867 802.596 47.584C802.596 48.1813 802.729 48.7147 802.996 49.184C803.273 49.6533 803.652 50.0213 804.132 50.288C804.622 50.544 805.172 50.672 805.78 50.672ZM820.588 48.144H813.548C813.612 49.0187 813.948 49.728 814.556 50.272C815.164 50.8053 815.932 51.072 816.86 51.072C817.383 51.072 817.863 50.9813 818.3 50.8C818.738 50.608 819.116 50.3307 819.436 49.968L820.076 50.704C819.703 51.152 819.234 51.4933 818.668 51.728C818.114 51.9627 817.5 52.08 816.828 52.08C815.964 52.08 815.196 51.8987 814.524 51.536C813.863 51.1627 813.346 50.6507 812.972 50C812.599 49.3493 812.412 48.6133 812.412 47.792C812.412 46.9707 812.588 46.2347 812.94 45.584C813.303 44.9333 813.794 44.4267 814.412 44.064C815.042 43.7013 815.746 43.52 816.524 43.52C817.303 43.52 818.002 43.7013 818.62 44.064C819.239 44.4267 819.724 44.9333 820.076 45.584C820.428 46.224 820.604 46.96 820.604 47.792L820.588 48.144ZM816.524 44.496C815.714 44.496 815.031 44.7573 814.476 45.28C813.932 45.792 813.623 46.464 813.548 47.296H819.516C819.442 46.464 819.127 45.792 818.572 45.28C818.028 44.7573 817.346 44.496 816.524 44.496ZM827.349 51.488C827.135 51.68 826.869 51.8293 826.549 51.936C826.239 52.032 825.914 52.08 825.573 52.08C824.783 52.08 824.175 51.8667 823.749 51.44C823.322 51.0133 823.109 50.4107 823.109 49.632V44.544H821.605V43.584H823.109V41.744H824.245V43.584H826.805V44.544H824.245V49.568C824.245 50.0693 824.367 50.4533 824.613 50.72C824.869 50.976 825.231 51.104 825.701 51.104C825.935 51.104 826.159 51.0667 826.373 50.992C826.597 50.9173 826.789 50.8107 826.949 50.672L827.349 51.488ZM447.814 61.52C448.912 61.52 449.755 61.7973 450.342 62.352C450.928 62.896 451.222 63.7067 451.222 64.784V70H450.134V68.688C449.878 69.1253 449.499 69.4667 448.998 69.712C448.507 69.9573 447.92 70.08 447.238 70.08C446.299 70.08 445.552 69.856 444.998 69.408C444.443 68.96 444.166 68.368 444.166 67.632C444.166 66.9173 444.422 66.3413 444.934 65.904C445.456 65.4667 446.283 65.248 447.414 65.248H450.086V64.736C450.086 64.0107 449.883 63.4613 449.478 63.088C449.072 62.704 448.48 62.512 447.702 62.512C447.168 62.512 446.656 62.6027 446.166 62.784C445.675 62.9547 445.254 63.1947 444.902 63.504L444.39 62.656C444.816 62.2933 445.328 62.016 445.926 61.824C446.523 61.6213 447.152 61.52 447.814 61.52ZM447.414 69.184C448.054 69.184 448.603 69.04 449.062 68.752C449.52 68.4533 449.862 68.0267 450.086 67.472V66.096H447.446C446.006 66.096 445.286 66.5973 445.286 67.6C445.286 68.0907 445.472 68.48 445.846 68.768C446.219 69.0453 446.742 69.184 447.414 69.184ZM454.307 58.128H455.443V70H454.307V58.128ZM458.604 58.128H459.74V70H458.604V58.128ZM471.52 69.488C471.307 69.68 471.04 69.8293 470.72 69.936C470.411 70.032 470.086 70.08 469.744 70.08C468.955 70.08 468.347 69.8667 467.92 69.44C467.494 69.0133 467.28 68.4107 467.28 67.632V62.544H465.776V61.584H467.28V59.744H468.416V61.584H470.976V62.544H468.416V67.568C468.416 68.0693 468.539 68.4533 468.784 68.72C469.04 68.976 469.403 69.104 469.872 69.104C470.107 69.104 470.331 69.0667 470.544 68.992C470.768 68.9173 470.96 68.8107 471.12 68.672L471.52 69.488ZM477.876 61.52C478.932 61.52 479.77 61.8293 480.388 62.448C481.018 63.056 481.332 63.9467 481.332 65.12V70H480.196V65.232C480.196 64.3573 479.978 63.6907 479.54 63.232C479.103 62.7733 478.479 62.544 477.668 62.544C476.762 62.544 476.042 62.816 475.508 63.36C474.986 63.8933 474.724 64.6347 474.724 65.584V70H473.588V58.128H474.724V63.056C475.034 62.5653 475.46 62.1867 476.004 61.92C476.548 61.6533 477.172 61.52 477.876 61.52ZM491.776 66.144H484.736C484.8 67.0187 485.136 67.728 485.744 68.272C486.352 68.8053 487.12 69.072 488.048 69.072C488.57 69.072 489.05 68.9813 489.488 68.8C489.925 68.608 490.304 68.3307 490.624 67.968L491.264 68.704C490.89 69.152 490.421 69.4933 489.856 69.728C489.301 69.9627 488.688 70.08 488.016 70.08C487.152 70.08 486.384 69.8987 485.712 69.536C485.05 69.1627 484.533 68.6507 484.16 68C483.786 67.3493 483.6 66.6133 483.6 65.792C483.6 64.9707 483.776 64.2347 484.128 63.584C484.49 62.9333 484.981 62.4267 485.6 62.064C486.229 61.7013 486.933 61.52 487.712 61.52C488.49 61.52 489.189 61.7013 489.808 62.064C490.426 62.4267 490.912 62.9333 491.264 63.584C491.616 64.224 491.792 64.96 491.792 65.792L491.776 66.144ZM487.712 62.496C486.901 62.496 486.218 62.7573 485.664 63.28C485.12 63.792 484.81 64.464 484.736 65.296H490.704C490.629 64.464 490.314 63.792 489.76 63.28C489.216 62.7573 488.533 62.496 487.712 62.496ZM500.548 70.08C499.865 70.08 499.209 69.984 498.58 69.792C497.961 69.5893 497.476 69.3387 497.124 69.04L497.636 68.144C497.988 68.4213 498.43 68.6507 498.964 68.832C499.497 69.0027 500.052 69.088 500.628 69.088C501.396 69.088 501.961 68.9707 502.324 68.736C502.697 68.4907 502.884 68.1493 502.884 67.712C502.884 67.4027 502.782 67.1627 502.58 66.992C502.377 66.8107 502.121 66.6773 501.812 66.592C501.502 66.496 501.092 66.4053 500.58 66.32C499.897 66.192 499.348 66.064 498.932 65.936C498.516 65.7973 498.158 65.568 497.86 65.248C497.572 64.928 497.428 64.4853 497.428 63.92C497.428 63.216 497.721 62.64 498.308 62.192C498.894 61.744 499.71 61.52 500.756 61.52C501.3 61.52 501.844 61.5947 502.388 61.744C502.932 61.8827 503.38 62.0693 503.732 62.304L503.236 63.216C502.542 62.736 501.716 62.496 500.756 62.496C500.03 62.496 499.481 62.624 499.108 62.88C498.745 63.136 498.564 63.472 498.564 63.888C498.564 64.208 498.665 64.464 498.868 64.656C499.081 64.848 499.342 64.992 499.652 65.088C499.961 65.1733 500.388 65.264 500.932 65.36C501.604 65.488 502.142 65.616 502.548 65.744C502.953 65.872 503.3 66.0907 503.588 66.4C503.876 66.7093 504.02 67.136 504.02 67.68C504.02 68.416 503.71 69.0027 503.092 69.44C502.484 69.8667 501.636 70.08 500.548 70.08ZM513.704 61.584V70H512.616V68.464C512.317 68.976 511.906 69.376 511.384 69.664C510.861 69.9413 510.264 70.08 509.592 70.08C508.493 70.08 507.624 69.776 506.984 69.168C506.354 68.5493 506.04 67.648 506.04 66.464V61.584H507.176V66.352C507.176 67.2373 507.394 67.9093 507.832 68.368C508.269 68.8267 508.893 69.056 509.704 69.056C510.589 69.056 511.288 68.7893 511.8 68.256C512.312 67.712 512.568 66.96 512.568 66V61.584H513.704ZM521.221 61.52C522.011 61.52 522.725 61.7013 523.365 62.064C524.005 62.416 524.507 62.9173 524.869 63.568C525.232 64.2187 525.413 64.96 525.413 65.792C525.413 66.6347 525.232 67.3813 524.869 68.032C524.507 68.6827 524.005 69.1893 523.365 69.552C522.736 69.904 522.021 70.08 521.221 70.08C520.539 70.08 519.92 69.9413 519.365 69.664C518.821 69.376 518.373 68.96 518.021 68.416V73.104H516.885V61.584H517.973V63.248C518.315 62.6933 518.763 62.2667 519.317 61.968C519.883 61.6693 520.517 61.52 521.221 61.52ZM521.141 69.072C521.728 69.072 522.261 68.9387 522.741 68.672C523.221 68.3947 523.595 68.0053 523.861 67.504C524.139 67.0027 524.277 66.432 524.277 65.792C524.277 65.152 524.139 64.5867 523.861 64.096C523.595 63.5947 523.221 63.2053 522.741 62.928C522.261 62.6507 521.728 62.512 521.141 62.512C520.544 62.512 520.005 62.6507 519.525 62.928C519.056 63.2053 518.683 63.5947 518.405 64.096C518.139 64.5867 518.005 65.152 518.005 65.792C518.005 66.432 518.139 67.0027 518.405 67.504C518.683 68.0053 519.056 68.3947 519.525 68.672C520.005 68.9387 520.544 69.072 521.141 69.072ZM532.065 61.52C532.854 61.52 533.569 61.7013 534.209 62.064C534.849 62.416 535.35 62.9173 535.713 63.568C536.076 64.2187 536.257 64.96 536.257 65.792C536.257 66.6347 536.076 67.3813 535.713 68.032C535.35 68.6827 534.849 69.1893 534.209 69.552C533.58 69.904 532.865 70.08 532.065 70.08C531.382 70.08 530.764 69.9413 530.209 69.664C529.665 69.376 529.217 68.96 528.865 68.416V73.104H527.729V61.584H528.817V63.248C529.158 62.6933 529.606 62.2667 530.161 61.968C530.726 61.6693 531.361 61.52 532.065 61.52ZM531.985 69.072C532.572 69.072 533.105 68.9387 533.585 68.672C534.065 68.3947 534.438 68.0053 534.705 67.504C534.982 67.0027 535.121 66.432 535.121 65.792C535.121 65.152 534.982 64.5867 534.705 64.096C534.438 63.5947 534.065 63.2053 533.585 62.928C533.105 62.6507 532.572 62.512 531.985 62.512C531.388 62.512 530.849 62.6507 530.369 62.928C529.9 63.2053 529.526 63.5947 529.249 64.096C528.982 64.5867 528.849 65.152 528.849 65.792C528.849 66.432 528.982 67.0027 529.249 67.504C529.526 68.0053 529.9 68.3947 530.369 68.672C530.849 68.9387 531.388 69.072 531.985 69.072ZM542.013 70.08C541.202 70.08 540.471 69.8987 539.821 69.536C539.17 69.1627 538.658 68.6507 538.285 68C537.911 67.3493 537.725 66.6133 537.725 65.792C537.725 64.9707 537.911 64.2347 538.285 63.584C538.658 62.9333 539.17 62.4267 539.821 62.064C540.471 61.7013 541.202 61.52 542.013 61.52C542.823 61.52 543.554 61.7013 544.205 62.064C544.855 62.4267 545.362 62.9333 545.725 63.584C546.098 64.2347 546.285 64.9707 546.285 65.792C546.285 66.6133 546.098 67.3493 545.725 68C545.362 68.6507 544.855 69.1627 544.205 69.536C543.554 69.8987 542.823 70.08 542.013 70.08ZM542.013 69.072C542.61 69.072 543.143 68.9387 543.613 68.672C544.093 68.3947 544.466 68.0053 544.733 67.504C544.999 67.0027 545.133 66.432 545.133 65.792C545.133 65.152 544.999 64.5813 544.733 64.08C544.466 63.5787 544.093 63.1947 543.613 62.928C543.143 62.6507 542.61 62.512 542.013 62.512C541.415 62.512 540.877 62.6507 540.397 62.928C539.927 63.1947 539.554 63.5787 539.277 64.08C539.01 64.5813 538.877 65.152 538.877 65.792C538.877 66.432 539.01 67.0027 539.277 67.504C539.554 68.0053 539.927 68.3947 540.397 68.672C540.877 68.9387 541.415 69.072 542.013 69.072ZM549.692 63.232C549.959 62.6667 550.353 62.24 550.876 61.952C551.409 61.664 552.065 61.52 552.844 61.52V62.624L552.572 62.608C551.687 62.608 550.993 62.88 550.492 63.424C549.991 63.968 549.74 64.7307 549.74 65.712V70H548.604V61.584H549.692V63.232ZM559.692 69.488C559.479 69.68 559.212 69.8293 558.892 69.936C558.583 70.032 558.258 70.08 557.916 70.08C557.127 70.08 556.519 69.8667 556.092 69.44C555.666 69.0133 555.452 68.4107 555.452 67.632V62.544H553.948V61.584H555.452V59.744H556.588V61.584H559.148V62.544H556.588V67.568C556.588 68.0693 556.711 68.4533 556.956 68.72C557.212 68.976 557.575 69.104 558.044 69.104C558.279 69.104 558.503 69.0667 558.716 68.992C558.94 68.9173 559.132 68.8107 559.292 68.672L559.692 69.488ZM577.207 61.584L572.999 71.008C572.658 71.7973 572.263 72.3573 571.815 72.688C571.367 73.0187 570.829 73.184 570.199 73.184C569.794 73.184 569.415 73.12 569.063 72.992C568.711 72.864 568.407 72.672 568.151 72.416L568.679 71.568C569.106 71.9947 569.618 72.208 570.215 72.208C570.599 72.208 570.925 72.1013 571.191 71.888C571.469 71.6747 571.725 71.312 571.959 70.8L572.327 69.984L568.567 61.584H569.751L572.919 68.736L576.087 61.584H577.207ZM582.013 70.08C581.202 70.08 580.471 69.8987 579.821 69.536C579.17 69.1627 578.658 68.6507 578.285 68C577.911 67.3493 577.725 66.6133 577.725 65.792C577.725 64.9707 577.911 64.2347 578.285 63.584C578.658 62.9333 579.17 62.4267 579.821 62.064C580.471 61.7013 581.202 61.52 582.013 61.52C582.823 61.52 583.554 61.7013 584.205 62.064C584.855 62.4267 585.362 62.9333 585.725 63.584C586.098 64.2347 586.285 64.9707 586.285 65.792C586.285 66.6133 586.098 67.3493 585.725 68C585.362 68.6507 584.855 69.1627 584.205 69.536C583.554 69.8987 582.823 70.08 582.013 70.08ZM582.013 69.072C582.61 69.072 583.143 68.9387 583.613 68.672C584.093 68.3947 584.466 68.0053 584.733 67.504C584.999 67.0027 585.133 66.432 585.133 65.792C585.133 65.152 584.999 64.5813 584.733 64.08C584.466 63.5787 584.093 63.1947 583.613 62.928C583.143 62.6507 582.61 62.512 582.013 62.512C581.415 62.512 580.877 62.6507 580.397 62.928C579.927 63.1947 579.554 63.5787 579.277 64.08C579.01 64.5813 578.877 65.152 578.877 65.792C578.877 66.432 579.01 67.0027 579.277 67.504C579.554 68.0053 579.927 68.3947 580.397 68.672C580.877 68.9387 581.415 69.072 582.013 69.072ZM596.188 61.584V70H595.1V68.464C594.801 68.976 594.391 69.376 593.868 69.664C593.345 69.9413 592.748 70.08 592.076 70.08C590.977 70.08 590.108 69.776 589.468 69.168C588.839 68.5493 588.524 67.648 588.524 66.464V61.584H589.66V66.352C589.66 67.2373 589.879 67.9093 590.316 68.368C590.753 68.8267 591.377 69.056 592.188 69.056C593.073 69.056 593.772 68.7893 594.284 68.256C594.796 67.712 595.052 66.96 595.052 66V61.584H596.188ZM614.053 61.52C615.109 61.52 615.936 61.824 616.533 62.432C617.141 63.04 617.445 63.936 617.445 65.12V70H616.309V65.232C616.309 64.3573 616.096 63.6907 615.669 63.232C615.253 62.7733 614.661 62.544 613.893 62.544C613.018 62.544 612.33 62.816 611.829 63.36C611.328 63.8933 611.077 64.6347 611.077 65.584V70H609.941V65.232C609.941 64.3573 609.728 63.6907 609.301 63.232C608.885 62.7733 608.288 62.544 607.509 62.544C606.645 62.544 605.957 62.816 605.445 63.36C604.944 63.8933 604.693 64.6347 604.693 65.584V70H603.557V61.584H604.645V63.12C604.944 62.608 605.36 62.2133 605.893 61.936C606.426 61.6587 607.04 61.52 607.733 61.52C608.437 61.52 609.045 61.6693 609.557 61.968C610.08 62.2667 610.469 62.7093 610.725 63.296C611.034 62.7413 611.477 62.3093 612.053 62C612.64 61.68 613.306 61.52 614.053 61.52ZM620.526 61.584H621.662V70H620.526V61.584ZM621.102 59.744C620.867 59.744 620.67 59.664 620.51 59.504C620.35 59.344 620.27 59.152 620.27 58.928C620.27 58.7147 620.35 58.528 620.51 58.368C620.67 58.208 620.867 58.128 621.102 58.128C621.337 58.128 621.534 58.208 621.694 58.368C621.854 58.5173 621.934 58.6987 621.934 58.912C621.934 59.1467 621.854 59.344 621.694 59.504C621.534 59.664 621.337 59.744 621.102 59.744ZM632.615 61.584V68.976C632.615 70.4053 632.263 71.4613 631.559 72.144C630.865 72.8373 629.815 73.184 628.407 73.184C627.628 73.184 626.887 73.0667 626.183 72.832C625.489 72.608 624.924 72.2933 624.487 71.888L625.063 71.024C625.468 71.3867 625.959 71.6693 626.535 71.872C627.121 72.0747 627.735 72.176 628.375 72.176C629.441 72.176 630.225 71.9253 630.727 71.424C631.228 70.9333 631.479 70.1653 631.479 69.12V68.048C631.127 68.5813 630.663 68.9867 630.087 69.264C629.521 69.5413 628.892 69.68 628.199 69.68C627.409 69.68 626.689 69.5093 626.039 69.168C625.399 68.816 624.892 68.3307 624.519 67.712C624.156 67.0827 623.975 66.3733 623.975 65.584C623.975 64.7947 624.156 64.0907 624.519 63.472C624.892 62.8533 625.399 62.3733 626.039 62.032C626.679 61.6907 627.399 61.52 628.199 61.52C628.913 61.52 629.559 61.664 630.135 61.952C630.711 62.24 631.175 62.656 631.527 63.2V61.584H632.615ZM628.311 68.672C628.919 68.672 629.468 68.544 629.959 68.288C630.449 68.0213 630.828 67.6533 631.095 67.184C631.372 66.7147 631.511 66.1813 631.511 65.584C631.511 64.9867 631.372 64.4587 631.095 64C630.828 63.5307 630.449 63.168 629.959 62.912C629.479 62.6453 628.929 62.512 628.311 62.512C627.703 62.512 627.153 62.64 626.663 62.896C626.183 63.152 625.804 63.5147 625.527 63.984C625.26 64.4533 625.127 64.9867 625.127 65.584C625.127 66.1813 625.26 66.7147 625.527 67.184C625.804 67.6533 626.183 68.0213 626.663 68.288C627.153 68.544 627.703 68.672 628.311 68.672ZM640.08 61.52C641.136 61.52 641.973 61.8293 642.592 62.448C643.221 63.056 643.536 63.9467 643.536 65.12V70H642.4V65.232C642.4 64.3573 642.181 63.6907 641.744 63.232C641.306 62.7733 640.682 62.544 639.872 62.544C638.965 62.544 638.245 62.816 637.712 63.36C637.189 63.8933 636.928 64.6347 636.928 65.584V70H635.792V58.128H636.928V63.056C637.237 62.5653 637.664 62.1867 638.208 61.92C638.752 61.6533 639.376 61.52 640.08 61.52ZM651.052 69.488C650.838 69.68 650.572 69.8293 650.252 69.936C649.942 70.032 649.617 70.08 649.276 70.08C648.486 70.08 647.878 69.8667 647.452 69.44C647.025 69.0133 646.812 68.4107 646.812 67.632V62.544H645.308V61.584H646.812V59.744H647.948V61.584H650.508V62.544H647.948V67.568C647.948 68.0693 648.07 68.4533 648.316 68.72C648.572 68.976 648.934 69.104 649.404 69.104C649.638 69.104 649.862 69.0667 650.076 68.992C650.3 68.9173 650.492 68.8107 650.652 68.672L651.052 69.488ZM661.595 61.52C662.651 61.52 663.488 61.8293 664.107 62.448C664.736 63.056 665.051 63.9467 665.051 65.12V70H663.915V65.232C663.915 64.3573 663.696 63.6907 663.259 63.232C662.822 62.7733 662.198 62.544 661.387 62.544C660.48 62.544 659.76 62.816 659.227 63.36C658.704 63.8933 658.443 64.6347 658.443 65.584V70H657.307V61.584H658.395V63.136C658.704 62.624 659.131 62.2293 659.675 61.952C660.23 61.664 660.87 61.52 661.595 61.52ZM675.495 66.144H668.455C668.519 67.0187 668.855 67.728 669.463 68.272C670.071 68.8053 670.839 69.072 671.767 69.072C672.289 69.072 672.769 68.9813 673.207 68.8C673.644 68.608 674.023 68.3307 674.343 67.968L674.983 68.704C674.609 69.152 674.14 69.4933 673.575 69.728C673.02 69.9627 672.407 70.08 671.735 70.08C670.871 70.08 670.103 69.8987 669.431 69.536C668.769 69.1627 668.252 68.6507 667.879 68C667.505 67.3493 667.319 66.6133 667.319 65.792C667.319 64.9707 667.495 64.2347 667.847 63.584C668.209 62.9333 668.7 62.4267 669.319 62.064C669.948 61.7013 670.652 61.52 671.431 61.52C672.209 61.52 672.908 61.7013 673.527 62.064C674.145 62.4267 674.631 62.9333 674.983 63.584C675.335 64.224 675.511 64.96 675.511 65.792L675.495 66.144ZM671.431 62.496C670.62 62.496 669.937 62.7573 669.383 63.28C668.839 63.792 668.529 64.464 668.455 65.296H674.423C674.348 64.464 674.033 63.792 673.479 63.28C672.935 62.7573 672.252 62.496 671.431 62.496ZM685.151 66.144H678.111C678.175 67.0187 678.511 67.728 679.119 68.272C679.727 68.8053 680.495 69.072 681.423 69.072C681.945 69.072 682.425 68.9813 682.863 68.8C683.3 68.608 683.679 68.3307 683.999 67.968L684.639 68.704C684.265 69.152 683.796 69.4933 683.231 69.728C682.676 69.9627 682.063 70.08 681.391 70.08C680.527 70.08 679.759 69.8987 679.087 69.536C678.425 69.1627 677.908 68.6507 677.535 68C677.161 67.3493 676.975 66.6133 676.975 65.792C676.975 64.9707 677.151 64.2347 677.503 63.584C677.865 62.9333 678.356 62.4267 678.975 62.064C679.604 61.7013 680.308 61.52 681.087 61.52C681.865 61.52 682.564 61.7013 683.183 62.064C683.801 62.4267 684.287 62.9333 684.639 63.584C684.991 64.224 685.167 64.96 685.167 65.792L685.151 66.144ZM681.087 62.496C680.276 62.496 679.593 62.7573 679.039 63.28C678.495 63.792 678.185 64.464 678.111 65.296H684.079C684.004 64.464 683.689 63.792 683.135 63.28C682.591 62.7573 681.908 62.496 681.087 62.496ZM695.159 58.128V70H694.071V68.336C693.73 68.9013 693.276 69.3333 692.711 69.632C692.156 69.9307 691.527 70.08 690.823 70.08C690.034 70.08 689.319 69.8987 688.679 69.536C688.039 69.1733 687.538 68.6667 687.175 68.016C686.812 67.3653 686.631 66.624 686.631 65.792C686.631 64.96 686.812 64.2187 687.175 63.568C687.538 62.9173 688.039 62.416 688.679 62.064C689.319 61.7013 690.034 61.52 690.823 61.52C691.506 61.52 692.119 61.664 692.663 61.952C693.218 62.2293 693.671 62.64 694.023 63.184V58.128H695.159ZM690.919 69.072C691.506 69.072 692.034 68.9387 692.503 68.672C692.983 68.3947 693.356 68.0053 693.623 67.504C693.9 67.0027 694.039 66.432 694.039 65.792C694.039 65.152 693.9 64.5813 693.623 64.08C693.356 63.5787 692.983 63.1947 692.503 62.928C692.034 62.6507 691.506 62.512 690.919 62.512C690.322 62.512 689.783 62.6507 689.303 62.928C688.834 63.1947 688.46 63.5787 688.183 64.08C687.916 64.5813 687.783 65.152 687.783 65.792C687.783 66.432 687.916 67.0027 688.183 67.504C688.46 68.0053 688.834 68.3947 689.303 68.672C689.783 68.9387 690.322 69.072 690.919 69.072ZM698.147 58.8H699.491L699.251 66.64H698.371L698.147 58.8ZM698.819 70.08C698.584 70.08 698.381 70 698.211 69.84C698.051 69.6693 697.971 69.472 697.971 69.248C697.971 69.0133 698.051 68.8213 698.211 68.672C698.371 68.512 698.573 68.432 698.819 68.432C699.053 68.432 699.251 68.512 699.411 68.672C699.571 68.8213 699.651 69.0133 699.651 69.248C699.651 69.472 699.571 69.6693 699.411 69.84C699.251 70 699.053 70.08 698.819 70.08Z" fill="#302C60"/>
<mask id="path-4-inside-1_156_1543" fill="white">
<path fill-rule="evenodd" clip-rule="evenodd" d="M883.706 25.5273C880.16 25.5273 877.286 28.4018 877.286 31.9477V66.4835C877.286 70.0294 880.16 72.9038 883.706 72.9038H923.747L934.098 83.9128L934.098 72.9038H939.298C942.844 72.9038 945.718 70.0294 945.718 66.4835V31.9477C945.718 28.4018 942.844 25.5273 939.298 25.5273H883.706Z"/>
</mask>
<path d="M923.747 72.9038L925.204 71.5338L924.612 70.9038H923.747V72.9038ZM934.098 83.9128L932.641 85.2828L936.098 88.9595L936.098 83.9128L934.098 83.9128ZM934.098 72.9038V70.9038H932.098L932.098 72.9038L934.098 72.9038ZM879.286 31.9477C879.286 29.5064 881.265 27.5273 883.706 27.5273V23.5273C879.056 23.5273 875.286 27.2973 875.286 31.9477H879.286ZM879.286 66.4835V31.9477H875.286V66.4835H879.286ZM883.706 70.9038C881.265 70.9038 879.286 68.9248 879.286 66.4835H875.286C875.286 71.1339 879.056 74.9038 883.706 74.9038V70.9038ZM923.747 70.9038H883.706V74.9038H923.747V70.9038ZM935.555 82.5428L925.204 71.5338L922.29 74.2739L932.641 85.2828L935.555 82.5428ZM932.098 72.9038L932.098 83.9128L936.098 83.9128L936.098 72.9038L932.098 72.9038ZM939.298 70.9038H934.098V74.9038H939.298V70.9038ZM943.718 66.4835C943.718 68.9248 941.739 70.9038 939.298 70.9038V74.9038C943.948 74.9038 947.718 71.1339 947.718 66.4835H943.718ZM943.718 31.9477V66.4835H947.718V31.9477H943.718ZM939.298 27.5273C941.739 27.5273 943.718 29.5064 943.718 31.9477H947.718C947.718 27.2972 943.948 23.5273 939.298 23.5273V27.5273ZM883.706 27.5273H939.298V23.5273H883.706V27.5273Z" fill="#302C60" mask="url(#path-4-inside-1_156_1543)"/>
<path d="M911.333 42C912.28 42 913.107 42.1432 913.812 42.4296C914.529 42.7031 915.082 43.1067 915.471 43.6404C915.872 44.1612 916.072 44.7862 916.072 45.5152C916.072 46.2443 915.859 46.8953 915.434 47.4682C915.021 48.041 914.438 48.5292 913.684 48.9329C912.931 49.3234 912.056 49.6294 911.059 49.8507V52.702H910.694V49.675C911.302 49.3495 911.752 48.9914 912.043 48.6009C912.347 48.2103 912.548 47.7871 912.645 47.3315C912.754 46.8758 912.809 46.3941 912.809 45.8863C912.809 44.6495 912.621 43.7576 912.244 43.2108C911.867 42.664 911.381 42.3906 910.786 42.3906C910.433 42.3906 910.129 42.4296 909.874 42.5078C909.631 42.5729 909.455 42.6575 909.346 42.7616C909.734 42.9179 910.026 43.1327 910.221 43.4061C910.427 43.6795 910.53 44.0375 910.53 44.4802C910.53 44.9359 910.372 45.3265 910.056 45.652C909.74 45.9644 909.315 46.1207 908.78 46.1207C908.331 46.1207 907.966 45.9644 907.687 45.652C907.419 45.3265 907.286 44.9619 907.286 44.5583C907.286 44.0766 907.395 43.6925 907.614 43.4061C907.845 43.1197 908.124 42.8788 908.452 42.6835C908.768 42.5012 909.169 42.345 909.655 42.2148C910.142 42.0716 910.701 42 911.333 42ZM910.913 54.1862C911.484 54.1862 911.928 54.3294 912.244 54.6158C912.56 54.8892 912.718 55.3059 912.718 55.8657C912.718 56.4255 912.56 56.8487 912.244 57.1351C911.928 57.4085 911.484 57.5452 910.913 57.5452C910.33 57.5452 909.88 57.4085 909.564 57.1351C909.26 56.8487 909.109 56.4255 909.109 55.8657C909.109 55.3059 909.26 54.8892 909.564 54.6158C909.88 54.3294 910.33 54.1862 910.913 54.1862Z" fill="#302C60"/>
<path d="M909.107 33.2635L909.08 33.116C913.614 32.2879 917.709 33.4065 921.288 36.2879C923.691 38.2228 925.36 40.685 926.401 43.5656C926.446 43.6921 926.49 43.7506 926.535 43.7829C926.581 43.8152 926.651 43.8375 926.789 43.839C929.442 43.8685 931.431 45.8873 931.433 48.5323C931.434 48.7623 931.434 48.9922 931.434 49.2222C931.436 50.5533 931.437 51.8847 931.433 53.2161C931.424 55.7044 929.354 57.8372 926.848 57.7506C926.302 57.7317 925.9 57.8004 925.563 57.9804C925.226 58.1605 924.937 58.4612 924.635 58.9394C922.299 62.6343 918.944 65 914.604 65.8853C914.095 65.9891 913.572 66.0395 913.059 66.089C912.89 66.1053 912.722 66.1215 912.556 66.1395C912.31 66.166 912.066 66.1443 911.866 66.0513C911.659 65.9556 911.503 65.7858 911.448 65.5369M909.107 33.2635L912.283 64.7242L912.275 64.5745C912.021 64.5882 911.788 64.6916 911.63 64.8623C911.469 65.0355 911.391 65.2742 911.448 65.5369M909.107 33.2635L909.08 33.116C904.88 33.8829 901.588 36.1543 899.211 39.6472L899.324 39.7242M909.107 33.2635L899.324 39.7242M911.448 65.5369L911.595 65.5047L911.448 65.5369C911.448 65.5369 911.448 65.5369 911.448 65.5369ZM899.324 39.7242L899.211 39.6472C898.595 40.5515 898.089 41.5368 897.588 42.5124C897.364 42.9487 897.141 43.383 896.91 43.8073L896.909 43.8083L896.899 43.8192C896.894 43.8252 896.891 43.8292 896.888 43.8321C896.884 43.8325 896.879 43.8327 896.871 43.8327C896.863 43.8327 896.855 43.8324 896.844 43.832L896.841 43.8319C896.83 43.8315 896.815 43.831 896.8 43.8312L896.8 43.8312C894.151 43.8615 892.145 45.8751 892.139 48.5165C892.136 50.0941 892.133 51.6722 892.14 53.2502L892.29 53.2495M899.324 39.7242L892.29 53.2495M892.29 53.2495L892.14 53.2502C892.151 55.7082 894.231 57.7688 896.704 57.779C897.885 57.7839 899.066 57.7826 900.246 57.7812C900.636 57.7808 901.026 57.7803 901.416 57.7801C901.594 57.78 901.744 57.7748 901.866 57.7528C901.99 57.7305 902.101 57.6882 902.186 57.6012C902.271 57.5146 902.312 57.4019 902.334 57.2771C902.355 57.1533 902.36 57.0008 902.36 56.8193C902.361 52.8337 902.361 48.848 902.36 44.8625C902.36 44.6577 902.357 44.4888 902.337 44.3549M892.29 53.2495L902.337 44.3549M902.337 44.3549C902.317 44.2205 902.277 44.0987 902.186 44.007M902.337 44.3549L902.186 44.007M902.186 44.007C902.095 43.9151 901.974 43.8749 901.84 43.8546M902.186 44.007L901.84 43.8546M901.84 43.8546C901.706 43.8344 901.539 43.831 901.335 43.831L901.84 43.8546ZM923.218 57.7779C923.328 57.7786 923.438 57.7793 923.55 57.7798L901.335 43.831C900.701 43.8307 900.066 43.8307 899.424 43.8308C899.216 43.8308 899.007 43.8308 898.797 43.8309C900.501 38.9119 905.779 33.8331 913.031 34.481C915.765 34.7252 918.192 35.7767 920.31 37.517C922.368 39.2083 923.849 41.3001 924.815 43.8311C924.572 43.8313 924.335 43.832 924.102 43.8326C923.384 43.8346 922.705 43.8364 922.025 43.8267C921.777 43.8231 921.562 43.8702 921.411 44.0158C921.26 44.162 921.207 44.376 921.208 44.6276C921.215 48.7458 921.215 52.8641 921.207 56.9825C921.207 57.2328 921.259 57.4481 921.408 57.5956C921.558 57.7435 921.774 57.791 922.024 57.784L922.024 57.784C922.42 57.7729 922.815 57.7754 923.218 57.7779ZM893.579 48.3156C893.552 49.9749 893.551 51.6344 893.577 53.2937L893.729 48.3181C893.756 46.7554 895.04 45.4584 896.609 45.4147C897.558 45.3883 898.508 45.392 899.46 45.3956C899.86 45.3972 900.26 45.3987 900.661 45.398L900.661 45.398C900.683 45.398 900.707 45.4003 900.745 45.4054C900.749 45.406 900.754 45.4067 900.759 45.4074V56.2012C900.731 56.2083 900.717 56.2104 900.707 56.2104H900.707C900.312 56.2105 899.918 56.2128 899.524 56.2151C898.549 56.2209 897.577 56.2266 896.605 56.1988C895.036 56.1541 893.75 54.8498 893.727 53.2914L893.727 53.2913C893.701 51.6337 893.702 49.9758 893.729 48.3182L893.579 48.3156ZM926.939 56.2003C925.965 56.2254 924.991 56.2194 924 56.2132C923.605 56.2108 923.207 56.2083 922.805 56.2078V45.423C922.817 45.42 922.827 45.4172 922.837 45.415C922.881 45.4043 922.913 45.3988 922.941 45.3988C923.305 45.3988 923.668 45.3972 924.031 45.3956C925.004 45.3913 925.973 45.387 926.943 45.4137C928.541 45.4577 929.82 46.7531 929.845 48.3468C929.871 49.9877 929.871 51.6297 929.847 53.2707C929.824 54.8554 928.538 56.1589 926.939 56.2003Z" fill="#302C60" stroke="#302C60" stroke-width="0.3"/>
<defs>
<filter id="filter0_d_156_1543" x="0.611732" y="0.761719" width="989.348" height="106.348" filterUnits="userSpaceOnUse" color-interpolation-filters="sRGB">
<feFlood flood-opacity="0" result="BackgroundImageFix"/>
<feColorMatrix in="SourceAlpha" type="matrix" values="0 0 0 0 0 0 0 0 0 0 0 0 0 0 0 0 0 0 127 0" result="hardAlpha"/>
<feOffset dy="2.67391"/>
<feGaussianBlur stdDeviation="1.33696"/>
<feComposite in2="hardAlpha" operator="out"/>
<feColorMatrix type="matrix" values="0 0 0 0 0 0 0 0 0 0 0 0 0 0 0 0 0 0 0.1 0"/>
<feBlend mode="normal" in2="BackgroundImageFix" result="effect1_dropShadow_156_1543"/>
<feBlend mode="normal" in="SourceGraphic" in2="effect1_dropShadow_156_1543" result="shape"/>
</filter>
</defs>
</svg>
