<svg width="990" height="107" viewBox="0 0 990 107" fill="none" xmlns="http://www.w3.org/2000/svg">
<g filter="url(#filter0_d_333_3049)">
<rect x="3" width="984" height="101" rx="20" fill="#F8FAFF"/>
</g>
<path d="M52.0032 40.0955C56.6408 40.0955 60.0735 41.1185 62.3014 43.1645C64.552 45.1877 65.6773 48.0976 65.6773 51.8941C65.6773 54.372 65.1203 56.543 64.0064 58.4072C62.9152 60.2486 61.3239 61.6808 59.2324 62.7038C57.1409 63.7268 54.6289 64.2383 51.6963 64.2383C51.3326 64.2383 50.8552 64.2269 50.2641 64.2042C49.673 64.1814 49.0479 64.1701 48.3886 64.1701C47.7521 64.1473 47.1724 64.136 46.6495 64.136C45.581 64.136 44.5353 64.1473 43.5123 64.1701C42.4893 64.1701 41.6709 64.1928 41.0571 64.2383V63.5563C41.7618 63.5108 42.2847 63.4199 42.6257 63.2835C42.9894 63.1471 43.2281 62.8743 43.3418 62.4651C43.4782 62.0559 43.5464 61.4421 43.5464 60.6237V43.7101C43.5464 42.8689 43.4782 42.2551 43.3418 41.8687C43.2281 41.4595 42.9894 41.1867 42.6257 41.0503C42.2847 40.8911 41.7618 40.8002 41.0571 40.7775V40.0955C41.6709 40.1182 42.4893 40.1523 43.5123 40.1978C44.5353 40.2205 45.5583 40.2205 46.5813 40.1978C47.3997 40.175 48.3318 40.1523 49.3775 40.1296C50.4232 40.1068 51.2985 40.0955 52.0032 40.0955ZM52.2419 40.7093C51.1962 40.7093 50.5142 40.9025 50.1959 41.289C49.8776 41.6754 49.7185 42.4597 49.7185 43.6419V60.6919C49.7185 61.874 49.8776 62.6583 50.1959 63.0448C50.5369 63.4312 51.2303 63.6245 52.276 63.6245C54.0037 63.6245 55.3791 63.1812 56.4021 62.2946C57.4251 61.3852 58.1526 60.0667 58.5845 58.339C59.0392 56.6112 59.2665 54.5084 59.2665 52.0305C59.2665 49.4843 59.0278 47.3815 58.5504 45.722C58.073 44.0397 57.3114 42.7894 56.2657 41.971C55.2427 41.1298 53.9014 40.7093 52.2419 40.7093ZM76.7587 46.0971C78.4637 46.0971 79.9528 46.404 81.2258 47.0178C82.5216 47.6088 83.5219 48.5864 84.2266 49.9504C84.9541 51.3144 85.3178 53.133 85.3178 55.4064C85.3178 57.6797 84.9541 59.4984 84.2266 60.8624C83.5219 62.2264 82.5216 63.2153 81.2258 63.8291C79.9528 64.4201 78.4637 64.7157 76.7587 64.7157C75.0765 64.7157 73.5874 64.4201 72.2916 63.8291C71.0186 63.2153 70.0183 62.2264 69.2908 60.8624C68.5634 59.4984 68.1996 57.6797 68.1996 55.4064C68.1996 53.133 68.5634 51.3144 69.2908 49.9504C70.0183 48.5864 71.0186 47.6088 72.2916 47.0178C73.5874 46.404 75.0765 46.0971 76.7587 46.0971ZM76.7587 46.7791C75.9631 46.7791 75.2924 47.4611 74.7468 48.8251C74.224 50.1663 73.9625 52.3601 73.9625 55.4064C73.9625 58.4526 74.224 60.6578 74.7468 62.0218C75.2924 63.363 75.9631 64.0337 76.7587 64.0337C77.5771 64.0337 78.2478 63.363 78.7706 62.0218C79.2935 60.6578 79.5549 58.4526 79.5549 55.4064C79.5549 52.3601 79.2935 50.1663 78.7706 48.8251C78.2478 47.4611 77.5771 46.7791 76.7587 46.7791ZM110.913 46.5745V47.2906C110.481 47.427 110.06 47.7111 109.651 48.1431C109.264 48.575 108.889 49.3252 108.526 50.3937L103.99 63.4881L102.49 66.6594L94.6809 49.2002C94.2945 48.3363 93.9194 47.8021 93.5556 47.5975C93.1919 47.3929 92.885 47.2906 92.6349 47.2906V46.5745C93.4761 46.6427 94.3399 46.6995 95.2265 46.745C96.1131 46.7677 96.9543 46.7791 97.7499 46.7791C98.7502 46.7791 99.6368 46.7563 100.41 46.7109C101.183 46.6654 101.91 46.6199 102.592 46.5745V47.2906C102.16 47.2906 101.751 47.3133 101.365 47.3588C100.978 47.4042 100.705 47.5406 100.546 47.768C100.41 47.9726 100.455 48.3477 100.683 48.8933L105.013 59.2597L104.672 59.4984L106.752 53.4627C107.23 52.0759 107.434 50.9393 107.366 50.0527C107.298 49.1661 107.037 48.4954 106.582 48.0408C106.127 47.5861 105.547 47.336 104.843 47.2906V46.5745C105.184 46.5972 105.559 46.6199 105.968 46.6427C106.4 46.6654 106.821 46.6881 107.23 46.7109C107.639 46.7109 107.991 46.7109 108.287 46.7109C108.719 46.7109 109.196 46.6995 109.719 46.6768C110.242 46.654 110.64 46.6199 110.913 46.5745ZM103.99 63.4881L102.626 67.3755C102.422 67.9438 102.194 68.4326 101.944 68.8418C101.717 69.251 101.444 69.5806 101.126 69.8307C100.808 70.0807 100.398 70.274 99.8982 70.4104C99.4208 70.5695 98.807 70.6491 98.0568 70.6491C97.4658 70.6491 96.8406 70.5468 96.1813 70.3422C95.5448 70.1603 94.9992 69.8534 94.5445 69.4215C94.1126 68.9895 93.8966 68.4098 93.8966 67.6824C93.8966 66.9322 94.1694 66.3297 94.715 65.8751C95.2606 65.4431 95.9995 65.2272 96.9315 65.2272C97.7727 65.2272 98.4433 65.4204 98.9434 65.8069C99.4663 66.1933 99.7277 66.773 99.7277 67.546C99.7277 68.0234 99.5686 68.4894 99.2503 68.9441C98.9321 69.3987 98.4319 69.7397 97.7499 69.9671C97.9091 69.9898 98.0796 70.0012 98.2614 70.0012C98.466 70.0239 98.6252 70.0353 98.7388 70.0353C99.4436 70.0353 100.069 69.8079 100.614 69.3533C101.16 68.9213 101.592 68.2393 101.91 67.3073L103.104 63.6927L103.99 63.4881ZM120.25 46.0971C121.955 46.0971 123.444 46.404 124.717 47.0178C126.012 47.6088 127.013 48.5864 127.717 49.9504C128.445 51.3144 128.809 53.133 128.809 55.4064C128.809 57.6797 128.445 59.4984 127.717 60.8624C127.013 62.2264 126.012 63.2153 124.717 63.8291C123.444 64.4201 121.955 64.7157 120.25 64.7157C118.567 64.7157 117.078 64.4201 115.782 63.8291C114.509 63.2153 113.509 62.2264 112.782 60.8624C112.054 59.4984 111.69 57.6797 111.69 55.4064C111.69 53.133 112.054 51.3144 112.782 49.9504C113.509 48.5864 114.509 47.6088 115.782 47.0178C117.078 46.404 118.567 46.0971 120.25 46.0971ZM120.25 46.7791C119.454 46.7791 118.783 47.4611 118.238 48.8251C117.715 50.1663 117.453 52.3601 117.453 55.4064C117.453 58.4526 117.715 60.6578 118.238 62.0218C118.783 63.363 119.454 64.0337 120.25 64.0337C121.068 64.0337 121.739 63.363 122.261 62.0218C122.784 60.6578 123.046 58.4526 123.046 55.4064C123.046 52.3601 122.784 50.1663 122.261 48.8251C121.739 47.4611 121.068 46.7791 120.25 46.7791ZM148.222 46.1994V60.5214C148.222 61.5444 148.37 62.3059 148.666 62.8061C148.984 63.2835 149.518 63.5222 150.268 63.5222V64.2383C149.563 64.1701 148.859 64.136 148.154 64.136C147.108 64.136 146.131 64.1701 145.221 64.2383C144.335 64.3065 143.494 64.4315 142.698 64.6134V61.8513C142.152 62.8743 141.402 63.6131 140.447 64.0678C139.515 64.4997 138.447 64.7157 137.242 64.7157C136.242 64.7157 135.435 64.5906 134.821 64.3406C134.23 64.0905 133.775 63.7609 133.457 63.3517C133.093 62.9425 132.832 62.3969 132.673 61.7149C132.513 61.0101 132.434 60.0894 132.434 58.9528V50.2914C132.434 49.2684 132.286 48.5182 131.991 48.0408C131.695 47.5406 131.161 47.2906 130.388 47.2906V46.5745C131.115 46.6427 131.82 46.6768 132.502 46.6768C133.548 46.6768 134.525 46.6427 135.435 46.5745C136.344 46.4835 137.185 46.3585 137.958 46.1994V60.5896C137.958 61.1124 138.015 61.5557 138.129 61.9195C138.242 62.2832 138.436 62.5674 138.708 62.772C138.981 62.9766 139.345 63.0789 139.8 63.0789C140.322 63.0789 140.8 62.9425 141.232 62.6697C141.664 62.3969 142.016 62.0218 142.289 61.5444C142.562 61.0442 142.698 60.4873 142.698 59.8735V50.2914C142.698 49.2684 142.55 48.5182 142.255 48.0408C141.959 47.5406 141.425 47.2906 140.652 47.2906V46.5745C141.379 46.6427 142.084 46.6768 142.766 46.6768C143.812 46.6768 144.789 46.6427 145.699 46.5745C146.608 46.4835 147.449 46.3585 148.222 46.1994ZM172.529 46.0971C173.529 46.0971 174.325 46.2221 174.916 46.4722C175.529 46.7222 175.995 47.0405 176.314 47.427C176.677 47.8589 176.939 48.4159 177.098 49.0979C177.28 49.7799 177.371 50.7006 177.371 51.86V61.067C177.371 62.0218 177.519 62.6697 177.814 63.0107C178.132 63.3517 178.667 63.5222 179.417 63.5222V64.2383C178.962 64.2155 178.28 64.1928 177.371 64.1701C176.484 64.1246 175.62 64.1019 174.779 64.1019C173.847 64.1019 172.949 64.1246 172.085 64.1701C171.221 64.1928 170.574 64.2155 170.142 64.2383V63.5222C170.778 63.5222 171.221 63.3517 171.471 63.0107C171.722 62.6697 171.847 62.0218 171.847 61.067V50.2232C171.847 49.7003 171.79 49.257 171.676 48.8933C171.562 48.5068 171.369 48.2226 171.096 48.0408C170.824 47.8362 170.437 47.7339 169.937 47.7339C169.414 47.7339 168.925 47.8703 168.471 48.1431C168.039 48.4159 167.686 48.8023 167.414 49.3025C167.164 49.7799 167.038 50.3255 167.038 50.9393V61.067C167.038 62.0218 167.164 62.6697 167.414 63.0107C167.664 63.3517 168.107 63.5222 168.743 63.5222V64.2383C168.312 64.2155 167.686 64.1928 166.868 64.1701C166.05 64.1246 165.22 64.1019 164.379 64.1019C163.447 64.1019 162.515 64.1246 161.582 64.1701C160.65 64.1928 159.946 64.2155 159.468 64.2383V63.5222C160.218 63.5222 160.741 63.3517 161.037 63.0107C161.355 62.6697 161.514 62.0218 161.514 61.067V50.2914C161.514 49.2684 161.367 48.5182 161.071 48.0408C160.775 47.5406 160.241 47.2906 159.468 47.2906V46.5745C160.196 46.6427 160.9 46.6768 161.582 46.6768C162.605 46.6768 163.572 46.6427 164.481 46.5745C165.413 46.4835 166.266 46.3585 167.038 46.1994V48.9615C167.584 47.9157 168.323 47.1769 169.255 46.745C170.21 46.313 171.301 46.0971 172.529 46.0971ZM189.515 46.0971C191.516 46.0971 193.084 46.6881 194.221 47.8703C195.358 49.0524 195.926 50.9961 195.926 53.7014H184.98L184.946 53.0535H191.288C191.334 51.9395 191.288 50.9165 191.152 49.9845C191.016 49.0297 190.788 48.2681 190.47 47.6998C190.174 47.1314 189.777 46.8473 189.276 46.8473C188.594 46.8473 188.015 47.336 187.537 48.3136C187.06 49.2911 186.764 50.9506 186.651 53.2922L186.787 53.5309C186.742 53.7809 186.719 54.0424 186.719 54.3152C186.719 54.5652 186.719 54.838 186.719 55.1336C186.719 56.7022 186.924 57.9525 187.333 58.8846C187.765 59.8166 188.299 60.4759 188.935 60.8624C189.572 61.2488 190.231 61.4421 190.913 61.4421C191.3 61.4421 191.732 61.3852 192.209 61.2716C192.686 61.1579 193.187 60.9192 193.709 60.5555C194.232 60.1917 194.732 59.6575 195.21 58.9528L195.79 59.1574C195.54 60.044 195.108 60.9192 194.494 61.7831C193.903 62.6242 193.141 63.3289 192.209 63.8973C191.277 64.4429 190.152 64.7157 188.833 64.7157C187.333 64.7157 185.992 64.4088 184.809 63.795C183.627 63.1584 182.684 62.1695 181.979 60.8283C181.297 59.4643 180.956 57.6911 180.956 55.5087C180.956 53.349 181.331 51.5758 182.081 50.1891C182.832 48.8023 183.855 47.7793 185.15 47.1201C186.446 46.4381 187.901 46.0971 189.515 46.0971ZM206.698 46.0971C208.699 46.0971 210.268 46.6881 211.404 47.8703C212.541 49.0524 213.109 50.9961 213.109 53.7014H202.163L202.129 53.0535H208.472C208.517 51.9395 208.472 50.9165 208.335 49.9845C208.199 49.0297 207.971 48.2681 207.653 47.6998C207.358 47.1314 206.96 46.8473 206.46 46.8473C205.778 46.8473 205.198 47.336 204.721 48.3136C204.243 49.2911 203.948 50.9506 203.834 53.2922L203.97 53.5309C203.925 53.7809 203.902 54.0424 203.902 54.3152C203.902 54.5652 203.902 54.838 203.902 55.1336C203.902 56.7022 204.107 57.9525 204.516 58.8846C204.948 59.8166 205.482 60.4759 206.119 60.8624C206.755 61.2488 207.414 61.4421 208.096 61.4421C208.483 61.4421 208.915 61.3852 209.392 61.2716C209.87 61.1579 210.37 60.9192 210.893 60.5555C211.416 60.1917 211.916 59.6575 212.393 58.9528L212.973 59.1574C212.723 60.044 212.291 60.9192 211.677 61.7831C211.086 62.6242 210.324 63.3289 209.392 63.8973C208.46 64.4429 207.335 64.7157 206.016 64.7157C204.516 64.7157 203.175 64.4088 201.993 63.795C200.81 63.1584 199.867 62.1695 199.162 60.8283C198.48 59.4643 198.139 57.6911 198.139 55.5087C198.139 53.349 198.514 51.5758 199.265 50.1891C200.015 48.8023 201.038 47.7793 202.334 47.1201C203.629 46.4381 205.084 46.0971 206.698 46.0971ZM232.1 37.5721V60.4873C232.1 61.5103 232.247 62.2718 232.543 62.772C232.861 63.2494 233.395 63.4881 234.146 63.4881V64.2042C233.441 64.136 232.736 64.1019 232.031 64.1019C231.008 64.1019 230.042 64.136 229.133 64.2042C228.224 64.2724 227.371 64.3974 226.575 64.5793V41.6641C226.575 40.6411 226.428 39.8909 226.132 39.4135C225.859 38.9133 225.325 38.6633 224.529 38.6633V37.9472C225.257 38.0154 225.962 38.0495 226.644 38.0495C227.689 38.0495 228.667 38.0154 229.576 37.9472C230.486 37.8562 231.327 37.7312 232.1 37.5721ZM222.927 46.0971C223.927 46.0971 224.791 46.2448 225.518 46.5404C226.246 46.8132 226.848 47.2792 227.326 47.9385L226.916 48.2795C226.621 47.893 226.257 47.6088 225.825 47.427C225.416 47.2451 224.984 47.1542 224.529 47.1542C223.438 47.1542 222.586 47.8362 221.972 49.2002C221.381 50.5414 221.085 52.6102 221.085 55.4064C221.085 57.3614 221.199 58.9073 221.426 60.044C221.676 61.1579 222.006 61.9422 222.415 62.3969C222.847 62.8515 223.325 63.0789 223.847 63.0789C224.552 63.0789 225.177 62.8174 225.723 62.2946C226.291 61.749 226.587 61.0329 226.61 60.1463L226.712 61.5785C226.303 62.6242 225.734 63.4085 225.007 63.9314C224.302 64.4542 223.393 64.7157 222.279 64.7157C220.96 64.7157 219.767 64.386 218.698 63.7268C217.653 63.0675 216.823 62.0559 216.209 60.6919C215.618 59.3051 215.322 57.5092 215.322 55.3041C215.322 53.2353 215.641 51.5303 216.277 50.1891C216.937 48.8251 217.835 47.8021 218.971 47.1201C220.131 46.4381 221.449 46.0971 222.927 46.0971ZM250.175 46.0971C251.176 46.0971 252.039 46.2107 252.767 46.4381C253.494 46.6654 254.029 46.8814 254.37 47.086C255.165 47.5861 255.643 47.2678 255.802 46.1312H256.518C256.472 46.7904 256.438 47.5861 256.416 48.5182C256.393 49.4275 256.382 50.6551 256.382 52.201H255.665C255.575 51.3598 255.37 50.5301 255.052 49.7117C254.756 48.8933 254.313 48.2226 253.722 47.6998C253.131 47.1542 252.358 46.8814 251.403 46.8814C250.789 46.8814 250.266 47.0632 249.834 47.427C249.425 47.7907 249.221 48.2908 249.221 48.9274C249.221 49.6094 249.425 50.2118 249.834 50.7347C250.244 51.2575 250.766 51.7577 251.403 52.2351C252.062 52.7125 252.721 53.224 253.381 53.7696C254.108 54.3152 254.756 54.8721 255.324 55.4405C255.916 55.9861 256.382 56.5885 256.723 57.2478C257.086 57.8843 257.268 58.6572 257.268 59.5666C257.268 60.5896 256.961 61.4875 256.347 62.2605C255.734 63.0334 254.927 63.6358 253.926 64.0678C252.926 64.4997 251.812 64.7157 250.585 64.7157C249.834 64.7157 249.175 64.6361 248.607 64.477C248.061 64.3406 247.606 64.1587 247.243 63.9314C246.902 63.7722 246.595 63.6358 246.322 63.5222C246.072 63.4085 245.822 63.3289 245.572 63.2835C245.345 63.2607 245.151 63.363 244.992 63.5904C244.833 63.8177 244.708 64.1132 244.617 64.477H243.901C243.946 63.7495 243.981 62.8629 244.003 61.8172C244.026 60.7714 244.037 59.3847 244.037 57.657H244.753C244.89 58.8846 245.14 59.9644 245.504 60.8965C245.89 61.8285 246.402 62.5674 247.038 63.113C247.675 63.6358 248.425 63.8973 249.289 63.8973C249.675 63.8973 250.028 63.8291 250.346 63.6927C250.687 63.5335 250.96 63.2948 251.164 62.9766C251.392 62.6583 251.505 62.2491 251.505 61.749C251.505 60.7487 251.187 59.9189 250.55 59.2597C249.914 58.5777 249.13 57.8388 248.198 57.0432C247.47 56.4294 246.788 55.8269 246.152 55.2359C245.538 54.6448 245.026 53.9969 244.617 53.2922C244.231 52.5874 244.037 51.7918 244.037 50.9052C244.037 49.8822 244.322 49.0183 244.89 48.3136C245.481 47.5861 246.242 47.0405 247.175 46.6768C248.107 46.2903 249.107 46.0971 250.175 46.0971ZM276.63 46.1994V60.5214C276.63 61.5444 276.778 62.3059 277.073 62.8061C277.392 63.2835 277.926 63.5222 278.676 63.5222V64.2383C277.971 64.1701 277.267 64.136 276.562 64.136C275.516 64.136 274.539 64.1701 273.629 64.2383C272.743 64.3065 271.901 64.4315 271.106 64.6134V61.8513C270.56 62.8743 269.81 63.6131 268.855 64.0678C267.923 64.4997 266.855 64.7157 265.65 64.7157C264.65 64.7157 263.843 64.5906 263.229 64.3406C262.638 64.0905 262.183 63.7609 261.865 63.3517C261.501 62.9425 261.24 62.3969 261.08 61.7149C260.921 61.0101 260.842 60.0894 260.842 58.9528V50.2914C260.842 49.2684 260.694 48.5182 260.398 48.0408C260.103 47.5406 259.569 47.2906 258.796 47.2906V46.5745C259.523 46.6427 260.228 46.6768 260.91 46.6768C261.956 46.6768 262.933 46.6427 263.843 46.5745C264.752 46.4835 265.593 46.3585 266.366 46.1994V60.5896C266.366 61.1124 266.423 61.5557 266.536 61.9195C266.65 62.2832 266.843 62.5674 267.116 62.772C267.389 62.9766 267.753 63.0789 268.207 63.0789C268.73 63.0789 269.208 62.9425 269.64 62.6697C270.071 62.3969 270.424 62.0218 270.697 61.5444C270.969 61.0442 271.106 60.4873 271.106 59.8735V50.2914C271.106 49.2684 270.958 48.5182 270.663 48.0408C270.367 47.5406 269.833 47.2906 269.06 47.2906V46.5745C269.787 46.6427 270.492 46.6768 271.174 46.6768C272.22 46.6768 273.197 46.6427 274.107 46.5745C275.016 46.4835 275.857 46.3585 276.63 46.1994ZM287.551 46.2335V66.9663C287.551 68.0575 287.812 68.7849 288.335 69.1487C288.881 69.5124 289.62 69.6943 290.552 69.6943V70.4104C289.938 70.3876 289.085 70.3535 287.994 70.3081C286.903 70.2853 285.755 70.274 284.55 70.274C283.686 70.274 282.822 70.2853 281.958 70.3081C281.117 70.3535 280.481 70.3876 280.049 70.4104V69.6943C280.776 69.6943 281.288 69.5238 281.583 69.1828C281.879 68.8645 282.027 68.2393 282.027 67.3073V50.3255C282.027 49.3025 281.879 48.5523 281.583 48.0749C281.288 47.5747 280.754 47.3247 279.981 47.3247V46.6086C280.708 46.6768 281.413 46.7109 282.095 46.7109C283.141 46.7109 284.118 46.6768 285.027 46.6086C285.937 46.5176 286.778 46.3926 287.551 46.2335ZM292.768 46.0971C293.928 46.0971 294.951 46.4153 295.837 47.0519C296.746 47.6657 297.463 48.6091 297.985 49.8822C298.531 51.1325 298.804 52.7125 298.804 54.6221C298.804 56.418 298.599 57.9525 298.19 59.2256C297.804 60.4986 297.247 61.5444 296.519 62.3628C295.814 63.1812 294.973 63.7836 293.996 64.1701C293.041 64.5338 292.007 64.7157 290.893 64.7157C290.051 64.7157 289.267 64.5906 288.54 64.3406C287.835 64.1132 287.278 63.7381 286.869 63.2153L287.21 62.772C287.414 63.0902 287.699 63.3289 288.062 63.4881C288.426 63.6472 288.813 63.7268 289.222 63.7268C290.154 63.7268 290.893 63.4085 291.438 62.772C292.007 62.1127 292.416 61.1579 292.666 59.9076C292.916 58.6572 293.041 57.1341 293.041 55.3382C293.041 53.3604 292.927 51.8259 292.7 50.7347C292.473 49.6207 292.166 48.8364 291.779 48.3818C291.393 47.9271 290.938 47.6998 290.415 47.6998C289.688 47.6998 289.028 47.9839 288.437 48.5523C287.869 49.0979 287.551 49.8481 287.483 50.8029L287.414 49.3707C287.892 48.2795 288.597 47.4611 289.529 46.9155C290.461 46.3699 291.541 46.0971 292.768 46.0971ZM308.231 46.2335V66.9663C308.231 68.0575 308.492 68.7849 309.015 69.1487C309.56 69.5124 310.299 69.6943 311.231 69.6943V70.4104C310.618 70.3876 309.765 70.3535 308.674 70.3081C307.583 70.2853 306.435 70.274 305.23 70.274C304.366 70.274 303.502 70.2853 302.638 70.3081C301.797 70.3535 301.161 70.3876 300.729 70.4104V69.6943C301.456 69.6943 301.968 69.5238 302.263 69.1828C302.559 68.8645 302.706 68.2393 302.706 67.3073V50.3255C302.706 49.3025 302.559 48.5523 302.263 48.0749C301.968 47.5747 301.433 47.3247 300.66 47.3247V46.6086C301.388 46.6768 302.093 46.7109 302.775 46.7109C303.82 46.7109 304.798 46.6768 305.707 46.6086C306.617 46.5176 307.458 46.3926 308.231 46.2335ZM313.448 46.0971C314.607 46.0971 315.63 46.4153 316.517 47.0519C317.426 47.6657 318.142 48.6091 318.665 49.8822C319.211 51.1325 319.484 52.7125 319.484 54.6221C319.484 56.418 319.279 57.9525 318.87 59.2256C318.483 60.4986 317.926 61.5444 317.199 62.3628C316.494 63.1812 315.653 63.7836 314.675 64.1701C313.721 64.5338 312.686 64.7157 311.572 64.7157C310.731 64.7157 309.947 64.5906 309.219 64.3406C308.515 64.1132 307.958 63.7381 307.549 63.2153L307.89 62.772C308.094 63.0902 308.378 63.3289 308.742 63.4881C309.106 63.6472 309.492 63.7268 309.901 63.7268C310.834 63.7268 311.572 63.4085 312.118 62.772C312.686 62.1127 313.096 61.1579 313.346 59.9076C313.596 58.6572 313.721 57.1341 313.721 55.3382C313.721 53.3604 313.607 51.8259 313.38 50.7347C313.152 49.6207 312.845 48.8364 312.459 48.3818C312.073 47.9271 311.618 47.6998 311.095 47.6998C310.368 47.6998 309.708 47.9839 309.117 48.5523C308.549 49.0979 308.231 49.8481 308.162 50.8029L308.094 49.3707C308.572 48.2795 309.276 47.4611 310.208 46.9155C311.14 46.3699 312.22 46.0971 313.448 46.0971ZM330.411 46.0971C332.116 46.0971 333.605 46.404 334.878 47.0178C336.174 47.6088 337.174 48.5864 337.879 49.9504C338.606 51.3144 338.97 53.133 338.97 55.4064C338.97 57.6797 338.606 59.4984 337.879 60.8624C337.174 62.2264 336.174 63.2153 334.878 63.8291C333.605 64.4201 332.116 64.7157 330.411 64.7157C328.728 64.7157 327.239 64.4201 325.944 63.8291C324.671 63.2153 323.67 62.2264 322.943 60.8624C322.215 59.4984 321.852 57.6797 321.852 55.4064C321.852 53.133 322.215 51.3144 322.943 49.9504C323.67 48.5864 324.671 47.6088 325.944 47.0178C327.239 46.404 328.728 46.0971 330.411 46.0971ZM330.411 46.7791C329.615 46.7791 328.944 47.4611 328.399 48.8251C327.876 50.1663 327.615 52.3601 327.615 55.4064C327.615 58.4526 327.876 60.6578 328.399 62.0218C328.944 63.363 329.615 64.0337 330.411 64.0337C331.229 64.0337 331.9 63.363 332.423 62.0218C332.946 60.6578 333.207 58.4526 333.207 55.4064C333.207 52.3601 332.946 50.1663 332.423 48.8251C331.9 47.4611 331.229 46.7791 330.411 46.7791ZM352.996 46.0971C353.769 46.0971 354.382 46.2676 354.837 46.6086C355.292 46.9268 355.621 47.3474 355.826 47.8703C356.031 48.3704 356.133 48.8705 356.133 49.3707C356.133 50.3027 355.86 51.0529 355.314 51.6213C354.792 52.1896 354.098 52.4738 353.234 52.4738C352.325 52.4738 351.632 52.2692 351.154 51.86C350.677 51.428 350.438 50.8597 350.438 50.155C350.438 49.4502 350.586 48.8705 350.881 48.4159C351.2 47.9612 351.586 47.5747 352.041 47.2565C351.7 47.211 351.37 47.2565 351.052 47.3929C350.688 47.4838 350.347 47.6543 350.029 47.9044C349.711 48.1544 349.438 48.45 349.211 48.791C348.983 49.132 348.801 49.5071 348.665 49.9163C348.551 50.3027 348.494 50.7006 348.494 51.1098V60.726C348.494 61.8172 348.733 62.556 349.211 62.9425C349.711 63.3289 350.495 63.5222 351.563 63.5222V64.2383C351.041 64.2155 350.268 64.1928 349.245 64.1701C348.222 64.1246 347.165 64.1019 346.073 64.1019C345.096 64.1019 344.107 64.1246 343.107 64.1701C342.129 64.1928 341.402 64.2155 340.924 64.2383V63.5222C341.674 63.5222 342.197 63.3517 342.493 63.0107C342.811 62.6697 342.97 62.0218 342.97 61.067V50.2914C342.97 49.2684 342.822 48.5182 342.527 48.0408C342.231 47.5406 341.697 47.2906 340.924 47.2906V46.5745C341.652 46.6427 342.356 46.6768 343.038 46.6768C344.061 46.6768 345.028 46.6427 345.937 46.5745C346.869 46.4835 347.721 46.3585 348.494 46.1994V48.9956C348.767 48.4045 349.12 47.893 349.552 47.4611C350.006 47.0291 350.518 46.6995 351.086 46.4722C351.677 46.2221 352.314 46.0971 352.996 46.0971ZM364.475 41.0162V46.5745H368.158V47.2565H364.475V61.2034C364.475 61.7717 364.577 62.1809 364.782 62.431C364.986 62.6583 365.293 62.772 365.702 62.772C366.043 62.772 366.396 62.6583 366.76 62.431C367.146 62.2036 367.498 61.8172 367.817 61.2716L368.362 61.6126C367.93 62.5446 367.328 63.2948 366.555 63.8632C365.805 64.4315 364.816 64.7157 363.588 64.7157C362.838 64.7157 362.167 64.6134 361.576 64.4088C361.008 64.2269 360.531 63.9427 360.144 63.5563C359.644 63.0561 359.314 62.4423 359.155 61.7149C359.019 60.9647 358.951 59.9985 358.951 58.8164V47.2565H356.223V46.5745H358.951V42.312C360.019 42.312 360.997 42.2097 361.883 42.0051C362.793 41.8005 363.656 41.4708 364.475 41.0162ZM376.566 37.5721C378.271 37.5721 379.76 37.8221 381.033 38.3223C382.306 38.7997 383.295 39.5044 384 40.4365C384.727 41.3458 385.091 42.437 385.091 43.7101C385.091 44.9831 384.705 46.1198 383.932 47.1201C383.182 48.1203 382.124 48.9728 380.76 49.6776C379.419 50.3596 377.851 50.8938 376.055 51.2803V56.2589H375.373V50.9734C376.578 50.405 377.476 49.7799 378.067 49.0979C378.68 48.4159 379.09 47.677 379.294 46.8814C379.499 46.0857 379.601 45.2446 379.601 44.358C379.601 42.1983 379.226 40.6411 378.476 39.6863C377.748 38.7315 376.794 38.2541 375.611 38.2541C374.975 38.2541 374.407 38.3223 373.906 38.4587C373.406 38.5951 373.031 38.7769 372.781 39.0043C373.463 39.2543 373.975 39.6067 374.316 40.0614C374.679 40.4933 374.861 41.0616 374.861 41.7664C374.861 42.5166 374.588 43.1531 374.043 43.676C373.497 44.1761 372.77 44.4262 371.86 44.4262C371.087 44.4262 370.462 44.1761 369.985 43.676C369.507 43.1531 369.269 42.5507 369.269 41.8687C369.269 41.1185 369.462 40.5047 369.848 40.0273C370.235 39.5271 370.724 39.1066 371.315 38.7656C371.883 38.4473 372.611 38.1745 373.497 37.9472C374.384 37.6971 375.407 37.5721 376.566 37.5721ZM375.782 59.1574C376.737 59.1574 377.498 59.3961 378.067 59.8735C378.635 60.3509 378.919 61.0329 378.919 61.9195C378.919 62.8288 378.635 63.5222 378.067 63.9996C377.498 64.477 376.737 64.7157 375.782 64.7157C374.782 64.7157 374.009 64.477 373.463 63.9996C372.917 63.5222 372.645 62.8288 372.645 61.9195C372.645 61.0329 372.917 60.3509 373.463 59.8735C374.009 59.3961 374.782 59.1574 375.782 59.1574Z" fill="#302C60"/>
<path d="M452.472 51.2383L449.912 47.6383C449.624 47.6703 449.325 47.6863 449.016 47.6863H446.008V51.2383H444.824V40.0383H449.016C450.445 40.0383 451.565 40.3796 452.376 41.0623C453.187 41.7449 453.592 42.6836 453.592 43.8783C453.592 44.7529 453.368 45.4943 452.92 46.1023C452.483 46.6996 451.853 47.1316 451.032 47.3983L453.768 51.2383H452.472ZM448.984 46.6783C450.093 46.6783 450.941 46.4329 451.528 45.9423C452.115 45.4516 452.408 44.7636 452.408 43.8783C452.408 42.9716 452.115 42.2783 451.528 41.7983C450.941 41.3076 450.093 41.0623 448.984 41.0623H446.008V46.6783H448.984ZM463.475 47.3823H456.435C456.499 48.2569 456.835 48.9663 457.443 49.5103C458.051 50.0436 458.819 50.3103 459.747 50.3103C460.269 50.3103 460.749 50.2196 461.187 50.0383C461.624 49.8463 462.003 49.5689 462.323 49.2063L462.963 49.9423C462.589 50.3903 462.12 50.7316 461.555 50.9663C461 51.2009 460.387 51.3183 459.715 51.3183C458.851 51.3183 458.083 51.1369 457.411 50.7743C456.749 50.4009 456.232 49.8889 455.859 49.2383C455.485 48.5876 455.299 47.8516 455.299 47.0303C455.299 46.2089 455.475 45.4729 455.827 44.8223C456.189 44.1716 456.68 43.6649 457.299 43.3023C457.928 42.9396 458.632 42.7583 459.411 42.7583C460.189 42.7583 460.888 42.9396 461.507 43.3023C462.125 43.6649 462.611 44.1716 462.963 44.8223C463.315 45.4623 463.491 46.1983 463.491 47.0303L463.475 47.3823ZM459.411 43.7343C458.6 43.7343 457.917 43.9956 457.363 44.5183C456.819 45.0303 456.509 45.7023 456.435 46.5343H462.403C462.328 45.7023 462.013 45.0303 461.459 44.5183C460.915 43.9956 460.232 43.7343 459.411 43.7343ZM468.512 42.7583C469.611 42.7583 470.454 43.0356 471.04 43.5903C471.627 44.1343 471.92 44.9449 471.92 46.0223V51.2383H470.832V49.9263C470.576 50.3636 470.198 50.7049 469.696 50.9503C469.206 51.1956 468.619 51.3183 467.936 51.3183C466.998 51.3183 466.251 51.0943 465.696 50.6463C465.142 50.1983 464.864 49.6063 464.864 48.8703C464.864 48.1556 465.12 47.5796 465.632 47.1423C466.155 46.7049 466.982 46.4863 468.112 46.4863H470.784V45.9743C470.784 45.2489 470.582 44.6996 470.176 44.3263C469.771 43.9423 469.179 43.7503 468.4 43.7503C467.867 43.7503 467.355 43.8409 466.864 44.0223C466.374 44.1929 465.952 44.4329 465.6 44.7423L465.088 43.8943C465.515 43.5316 466.027 43.2543 466.624 43.0623C467.222 42.8596 467.851 42.7583 468.512 42.7583ZM468.112 50.4223C468.752 50.4223 469.302 50.2783 469.76 49.9903C470.219 49.6916 470.56 49.2649 470.784 48.7103V47.3343H468.144C466.704 47.3343 465.984 47.8356 465.984 48.8383C465.984 49.3289 466.171 49.7183 466.544 50.0063C466.918 50.2836 467.44 50.4223 468.112 50.4223ZM478.525 51.3183C477.693 51.3183 476.946 51.1369 476.285 50.7743C475.634 50.4116 475.122 49.9049 474.749 49.2543C474.376 48.5929 474.189 47.8516 474.189 47.0303C474.189 46.2089 474.376 45.4729 474.749 44.8223C475.122 44.1716 475.634 43.6649 476.285 43.3023C476.946 42.9396 477.693 42.7583 478.525 42.7583C479.25 42.7583 479.896 42.9023 480.461 43.1903C481.037 43.4676 481.49 43.8783 481.821 44.4223L480.973 44.9983C480.696 44.5823 480.344 44.2729 479.917 44.0703C479.49 43.8569 479.026 43.7503 478.525 43.7503C477.917 43.7503 477.368 43.8889 476.877 44.1663C476.397 44.4329 476.018 44.8169 475.741 45.3183C475.474 45.8196 475.341 46.3903 475.341 47.0303C475.341 47.6809 475.474 48.2569 475.741 48.7583C476.018 49.2489 476.397 49.6329 476.877 49.9103C477.368 50.1769 477.917 50.3103 478.525 50.3103C479.026 50.3103 479.49 50.2089 479.917 50.0063C480.344 49.8036 480.696 49.4943 480.973 49.0783L481.821 49.6543C481.49 50.1983 481.037 50.6143 480.461 50.9023C479.885 51.1796 479.24 51.3183 478.525 51.3183ZM488.216 42.7583C489.272 42.7583 490.109 43.0676 490.728 43.6863C491.357 44.2943 491.672 45.1849 491.672 46.3583V51.2383H490.536V46.4703C490.536 45.5956 490.317 44.9289 489.88 44.4703C489.442 44.0116 488.818 43.7823 488.008 43.7823C487.101 43.7823 486.381 44.0543 485.848 44.5983C485.325 45.1316 485.064 45.8729 485.064 46.8223V51.2383H483.928V39.3663H485.064V44.2943C485.373 43.8036 485.8 43.4249 486.344 43.1583C486.888 42.8916 487.512 42.7583 488.216 42.7583ZM502.383 51.3183C501.573 51.3183 500.842 51.1369 500.191 50.7743C499.541 50.4009 499.029 49.8889 498.655 49.2383C498.282 48.5876 498.095 47.8516 498.095 47.0303C498.095 46.2089 498.282 45.4729 498.655 44.8223C499.029 44.1716 499.541 43.6649 500.191 43.3023C500.842 42.9396 501.573 42.7583 502.383 42.7583C503.194 42.7583 503.925 42.9396 504.575 43.3023C505.226 43.6649 505.733 44.1716 506.095 44.8223C506.469 45.4729 506.655 46.2089 506.655 47.0303C506.655 47.8516 506.469 48.5876 506.095 49.2383C505.733 49.8889 505.226 50.4009 504.575 50.7743C503.925 51.1369 503.194 51.3183 502.383 51.3183ZM502.383 50.3103C502.981 50.3103 503.514 50.1769 503.983 49.9103C504.463 49.6329 504.837 49.2436 505.103 48.7423C505.37 48.2409 505.503 47.6703 505.503 47.0303C505.503 46.3903 505.37 45.8196 505.103 45.3183C504.837 44.8169 504.463 44.4329 503.983 44.1663C503.514 43.8889 502.981 43.7503 502.383 43.7503C501.786 43.7503 501.247 43.8889 500.767 44.1663C500.298 44.4329 499.925 44.8169 499.647 45.3183C499.381 45.8196 499.247 46.3903 499.247 47.0303C499.247 47.6703 499.381 48.2409 499.647 48.7423C499.925 49.2436 500.298 49.6329 500.767 49.9103C501.247 50.1769 501.786 50.3103 502.383 50.3103ZM516.559 42.8223V51.2383H515.471V49.7023C515.172 50.2143 514.761 50.6143 514.239 50.9023C513.716 51.1796 513.119 51.3183 512.447 51.3183C511.348 51.3183 510.479 51.0143 509.839 50.4063C509.209 49.7876 508.895 48.8863 508.895 47.7023V42.8223H510.031V47.5903C510.031 48.4756 510.249 49.1476 510.687 49.6063C511.124 50.0649 511.748 50.2943 512.559 50.2943C513.444 50.2943 514.143 50.0276 514.655 49.4943C515.167 48.9503 515.423 48.1983 515.423 47.2383V42.8223H516.559ZM524.172 50.7263C523.959 50.9183 523.692 51.0676 523.372 51.1743C523.063 51.2703 522.738 51.3183 522.396 51.3183C521.607 51.3183 520.999 51.1049 520.572 50.6783C520.146 50.2516 519.932 49.6489 519.932 48.8703V43.7823H518.428V42.8223H519.932V40.9823H521.068V42.8223H523.628V43.7823H521.068V48.8063C521.068 49.3076 521.191 49.6916 521.436 49.9583C521.692 50.2143 522.055 50.3423 522.524 50.3423C522.759 50.3423 522.983 50.3049 523.196 50.2303C523.42 50.1556 523.612 50.0489 523.772 49.9103L524.172 50.7263ZM537.5 42.8223L533.756 51.2383H532.588L528.86 42.8223H530.044L533.196 49.9903L536.38 42.8223H537.5ZM539.1 42.8223H540.236V51.2383H539.1V42.8223ZM539.676 40.9823C539.441 40.9823 539.244 40.9023 539.084 40.7423C538.924 40.5823 538.844 40.3903 538.844 40.1663C538.844 39.9529 538.924 39.7663 539.084 39.6063C539.244 39.4463 539.441 39.3663 539.676 39.3663C539.91 39.3663 540.108 39.4463 540.268 39.6063C540.428 39.7556 540.508 39.9369 540.508 40.1503C540.508 40.3849 540.428 40.5823 540.268 40.7423C540.108 40.9023 539.91 40.9823 539.676 40.9823ZM546.341 42.7583C547.439 42.7583 548.282 43.0356 548.869 43.5903C549.455 44.1343 549.749 44.9449 549.749 46.0223V51.2383H548.661V49.9263C548.405 50.3636 548.026 50.7049 547.525 50.9503C547.034 51.1956 546.447 51.3183 545.765 51.3183C544.826 51.3183 544.079 51.0943 543.525 50.6463C542.97 50.1983 542.693 49.6063 542.693 48.8703C542.693 48.1556 542.949 47.5796 543.461 47.1423C543.983 46.7049 544.81 46.4863 545.941 46.4863H548.613V45.9743C548.613 45.2489 548.41 44.6996 548.005 44.3263C547.599 43.9423 547.007 43.7503 546.229 43.7503C545.695 43.7503 545.183 43.8409 544.693 44.0223C544.202 44.1929 543.781 44.4329 543.429 44.7423L542.917 43.8943C543.343 43.5316 543.855 43.2543 544.453 43.0623C545.05 42.8596 545.679 42.7583 546.341 42.7583ZM545.941 50.4223C546.581 50.4223 547.13 50.2783 547.589 49.9903C548.047 49.6916 548.389 49.2649 548.613 48.7103V47.3343H545.973C544.533 47.3343 543.812 47.8356 543.812 48.8383C543.812 49.3289 543.999 49.7183 544.373 50.0063C544.746 50.2836 545.269 50.4223 545.941 50.4223ZM557.262 40.0383H561.822C563.006 40.0383 564.051 40.2783 564.958 40.7583C565.864 41.2276 566.568 41.8889 567.07 42.7423C567.571 43.5849 567.822 44.5503 567.822 45.6383C567.822 46.7263 567.571 47.6969 567.07 48.5503C566.568 49.3929 565.864 50.0543 564.958 50.5343C564.051 51.0036 563.006 51.2383 561.822 51.2383H557.262V40.0383ZM561.758 50.2143C562.739 50.2143 563.598 50.0223 564.334 49.6383C565.07 49.2436 565.64 48.7049 566.046 48.0223C566.451 47.3289 566.654 46.5343 566.654 45.6383C566.654 44.7423 566.451 43.9529 566.046 43.2703C565.64 42.5769 565.07 42.0383 564.334 41.6543C563.598 41.2596 562.739 41.0623 561.758 41.0623H558.446V50.2143H561.758ZM570.24 42.8223H571.376V51.2383H570.24V42.8223ZM570.816 40.9823C570.582 40.9823 570.384 40.9023 570.224 40.7423C570.064 40.5823 569.984 40.3903 569.984 40.1663C569.984 39.9529 570.064 39.7663 570.224 39.6063C570.384 39.4463 570.582 39.3663 570.816 39.3663C571.051 39.3663 571.248 39.4463 571.408 39.6063C571.568 39.7556 571.648 39.9369 571.648 40.1503C571.648 40.3849 571.568 40.5823 571.408 40.7423C571.248 40.9023 571.051 40.9823 570.816 40.9823ZM576.793 51.3183C576.11 51.3183 575.454 51.2223 574.825 51.0303C574.206 50.8276 573.721 50.5769 573.369 50.2783L573.881 49.3823C574.233 49.6596 574.676 49.8889 575.209 50.0703C575.742 50.2409 576.297 50.3263 576.873 50.3263C577.641 50.3263 578.206 50.2089 578.569 49.9743C578.942 49.7289 579.129 49.3876 579.129 48.9503C579.129 48.6409 579.028 48.4009 578.825 48.2303C578.622 48.0489 578.366 47.9156 578.057 47.8303C577.748 47.7343 577.337 47.6436 576.825 47.5583C576.142 47.4303 575.593 47.3023 575.177 47.1743C574.761 47.0356 574.404 46.8063 574.105 46.4863C573.817 46.1663 573.673 45.7236 573.673 45.1583C573.673 44.4543 573.966 43.8783 574.553 43.4303C575.14 42.9823 575.956 42.7583 577.001 42.7583C577.545 42.7583 578.089 42.8329 578.633 42.9823C579.177 43.1209 579.625 43.3076 579.977 43.5423L579.481 44.4543C578.788 43.9743 577.961 43.7343 577.001 43.7343C576.276 43.7343 575.726 43.8623 575.353 44.1183C574.99 44.3743 574.809 44.7103 574.809 45.1263C574.809 45.4463 574.91 45.7023 575.113 45.8943C575.326 46.0863 575.588 46.2303 575.897 46.3263C576.206 46.4116 576.633 46.5023 577.177 46.5983C577.849 46.7263 578.388 46.8543 578.793 46.9823C579.198 47.1103 579.545 47.3289 579.833 47.6383C580.121 47.9476 580.265 48.3743 580.265 48.9183C580.265 49.6543 579.956 50.2409 579.337 50.6783C578.729 51.1049 577.881 51.3183 576.793 51.3183ZM585.853 51.3183C585.021 51.3183 584.275 51.1369 583.613 50.7743C582.963 50.4116 582.451 49.9049 582.077 49.2543C581.704 48.5929 581.517 47.8516 581.517 47.0303C581.517 46.2089 581.704 45.4729 582.077 44.8223C582.451 44.1716 582.963 43.6649 583.613 43.3023C584.275 42.9396 585.021 42.7583 585.853 42.7583C586.579 42.7583 587.224 42.9023 587.789 43.1903C588.365 43.4676 588.819 43.8783 589.149 44.4223L588.301 44.9983C588.024 44.5823 587.672 44.2729 587.245 44.0703C586.819 43.8569 586.355 43.7503 585.853 43.7503C585.245 43.7503 584.696 43.8889 584.205 44.1663C583.725 44.4329 583.347 44.8169 583.069 45.3183C582.803 45.8196 582.669 46.3903 582.669 47.0303C582.669 47.6809 582.803 48.2569 583.069 48.7583C583.347 49.2489 583.725 49.6329 584.205 49.9103C584.696 50.1769 585.245 50.3103 585.853 50.3103C586.355 50.3103 586.819 50.2089 587.245 50.0063C587.672 49.8036 588.024 49.4943 588.301 49.0783L589.149 49.6543C588.819 50.1983 588.365 50.6143 587.789 50.9023C587.213 51.1796 586.568 51.3183 585.853 51.3183ZM594.68 51.3183C593.87 51.3183 593.139 51.1369 592.488 50.7743C591.838 50.4009 591.326 49.8889 590.952 49.2383C590.579 48.5876 590.392 47.8516 590.392 47.0303C590.392 46.2089 590.579 45.4729 590.952 44.8223C591.326 44.1716 591.838 43.6649 592.488 43.3023C593.139 42.9396 593.87 42.7583 594.68 42.7583C595.491 42.7583 596.222 42.9396 596.872 43.3023C597.523 43.6649 598.03 44.1716 598.392 44.8223C598.766 45.4729 598.952 46.2089 598.952 47.0303C598.952 47.8516 598.766 48.5876 598.392 49.2383C598.03 49.8889 597.523 50.4009 596.872 50.7743C596.222 51.1369 595.491 51.3183 594.68 51.3183ZM594.68 50.3103C595.278 50.3103 595.811 50.1769 596.28 49.9103C596.76 49.6329 597.134 49.2436 597.4 48.7423C597.667 48.2409 597.8 47.6703 597.8 47.0303C597.8 46.3903 597.667 45.8196 597.4 45.3183C597.134 44.8169 596.76 44.4329 596.28 44.1663C595.811 43.8889 595.278 43.7503 594.68 43.7503C594.083 43.7503 593.544 43.8889 593.064 44.1663C592.595 44.4329 592.222 44.8169 591.944 45.3183C591.678 45.8196 591.544 46.3903 591.544 47.0303C591.544 47.6703 591.678 48.2409 591.944 48.7423C592.222 49.2436 592.595 49.6329 593.064 49.9103C593.544 50.1769 594.083 50.3103 594.68 50.3103ZM602.36 44.4703C602.626 43.9049 603.021 43.4783 603.544 43.1903C604.077 42.9023 604.733 42.7583 605.512 42.7583V43.8623L605.24 43.8463C604.354 43.8463 603.661 44.1183 603.16 44.6623C602.658 45.2063 602.408 45.9689 602.408 46.9503V51.2383H601.272V42.8223H602.36V44.4703ZM615.17 39.3663V51.2383H614.082V49.5743C613.741 50.1396 613.288 50.5716 612.722 50.8703C612.168 51.1689 611.538 51.3183 610.834 51.3183C610.045 51.3183 609.33 51.1369 608.69 50.7743C608.05 50.4116 607.549 49.9049 607.186 49.2543C606.824 48.6036 606.642 47.8623 606.642 47.0303C606.642 46.1983 606.824 45.4569 607.186 44.8063C607.549 44.1556 608.05 43.6543 608.69 43.3023C609.33 42.9396 610.045 42.7583 610.834 42.7583C611.517 42.7583 612.13 42.9023 612.674 43.1903C613.229 43.4676 613.682 43.8783 614.034 44.4223V39.3663H615.17ZM610.93 50.3103C611.517 50.3103 612.045 50.1769 612.514 49.9103C612.994 49.6329 613.368 49.2436 613.634 48.7423C613.912 48.2409 614.05 47.6703 614.05 47.0303C614.05 46.3903 613.912 45.8196 613.634 45.3183C613.368 44.8169 612.994 44.4329 612.514 44.1663C612.045 43.8889 611.517 43.7503 610.93 43.7503C610.333 43.7503 609.794 43.8889 609.314 44.1663C608.845 44.4329 608.472 44.8169 608.194 45.3183C607.928 45.8196 607.794 46.3903 607.794 47.0303C607.794 47.6703 607.928 48.2409 608.194 48.7423C608.472 49.2436 608.845 49.6329 609.314 49.9103C609.794 50.1769 610.333 50.3103 610.93 50.3103ZM618.462 49.5743C618.707 49.5743 618.91 49.6596 619.07 49.8303C619.23 49.9903 619.31 50.1929 619.31 50.4383C619.31 50.5663 619.289 50.7049 619.246 50.8543C619.214 51.0036 619.161 51.1743 619.086 51.3663L618.414 53.5743H617.646L618.19 51.2543C618.019 51.2009 617.881 51.1049 617.774 50.9663C617.667 50.8169 617.614 50.6409 617.614 50.4383C617.614 50.1929 617.694 49.9903 617.854 49.8303C618.014 49.6596 618.217 49.5743 618.462 49.5743ZM633.24 47.3823H626.2C626.264 48.2569 626.6 48.9663 627.208 49.5103C627.816 50.0436 628.584 50.3103 629.512 50.3103C630.035 50.3103 630.515 50.2196 630.952 50.0383C631.389 49.8463 631.768 49.5689 632.088 49.2063L632.728 49.9423C632.355 50.3903 631.885 50.7316 631.32 50.9663C630.765 51.2009 630.152 51.3183 629.48 51.3183C628.616 51.3183 627.848 51.1369 627.176 50.7743C626.515 50.4009 625.997 49.8889 625.624 49.2383C625.251 48.5876 625.064 47.8516 625.064 47.0303C625.064 46.2089 625.24 45.4729 625.592 44.8223C625.955 44.1716 626.445 43.6649 627.064 43.3023C627.693 42.9396 628.397 42.7583 629.176 42.7583C629.955 42.7583 630.653 42.9396 631.272 43.3023C631.891 43.6649 632.376 44.1716 632.728 44.8223C633.08 45.4623 633.256 46.1983 633.256 47.0303L633.24 47.3823ZM629.176 43.7343C628.365 43.7343 627.683 43.9956 627.128 44.5183C626.584 45.0303 626.275 45.7023 626.2 46.5343H632.168C632.093 45.7023 631.779 45.0303 631.224 44.5183C630.68 43.9956 629.997 43.7343 629.176 43.7343ZM646.064 42.7583C647.12 42.7583 647.947 43.0623 648.544 43.6703C649.152 44.2783 649.456 45.1743 649.456 46.3583V51.2383H648.32V46.4703C648.32 45.5956 648.107 44.9289 647.68 44.4703C647.264 44.0116 646.672 43.7823 645.904 43.7823C645.03 43.7823 644.342 44.0543 643.84 44.5983C643.339 45.1316 643.088 45.8729 643.088 46.8223V51.2383H641.952V46.4703C641.952 45.5956 641.739 44.9289 641.312 44.4703C640.896 44.0116 640.299 43.7823 639.52 43.7823C638.656 43.7823 637.968 44.0543 637.456 44.5983C636.955 45.1316 636.704 45.8729 636.704 46.8223V51.2383H635.568V42.8223H636.656V44.3583C636.955 43.8463 637.371 43.4516 637.904 43.1743C638.438 42.8969 639.051 42.7583 639.744 42.7583C640.448 42.7583 641.056 42.9076 641.568 43.2063C642.091 43.5049 642.48 43.9476 642.736 44.5343C643.046 43.9796 643.488 43.5476 644.064 43.2383C644.651 42.9183 645.318 42.7583 646.064 42.7583ZM655.481 42.7583C656.58 42.7583 657.422 43.0356 658.009 43.5903C658.596 44.1343 658.889 44.9449 658.889 46.0223V51.2383H657.801V49.9263C657.545 50.3636 657.166 50.7049 656.665 50.9503C656.174 51.1956 655.588 51.3183 654.905 51.3183C653.966 51.3183 653.22 51.0943 652.665 50.6463C652.11 50.1983 651.833 49.6063 651.833 48.8703C651.833 48.1556 652.089 47.5796 652.601 47.1423C653.124 46.7049 653.95 46.4863 655.081 46.4863H657.753V45.9743C657.753 45.2489 657.55 44.6996 657.145 44.3263C656.74 43.9423 656.148 43.7503 655.369 43.7503C654.836 43.7503 654.324 43.8409 653.833 44.0223C653.342 44.1929 652.921 44.4329 652.569 44.7423L652.057 43.8943C652.484 43.5316 652.996 43.2543 653.593 43.0623C654.19 42.8596 654.82 42.7583 655.481 42.7583ZM655.081 50.4223C655.721 50.4223 656.27 50.2783 656.729 49.9903C657.188 49.6916 657.529 49.2649 657.753 48.7103V47.3343H655.113C653.673 47.3343 652.953 47.8356 652.953 48.8383C652.953 49.3289 653.14 49.7183 653.513 50.0063C653.886 50.2836 654.409 50.4223 655.081 50.4223ZM661.975 42.8223H663.111V51.2383H661.975V42.8223ZM662.551 40.9823C662.316 40.9823 662.119 40.9023 661.959 40.7423C661.799 40.5823 661.719 40.3903 661.719 40.1663C661.719 39.9529 661.799 39.7663 661.959 39.6063C662.119 39.4463 662.316 39.3663 662.551 39.3663C662.785 39.3663 662.983 39.4463 663.143 39.6063C663.303 39.7556 663.383 39.9369 663.383 40.1503C663.383 40.3849 663.303 40.5823 663.143 40.7423C662.983 40.9023 662.785 40.9823 662.551 40.9823ZM666.272 39.3663H667.408V51.2383H666.272V39.3663ZM672.824 51.3183C672.142 51.3183 671.486 51.2223 670.856 51.0303C670.238 50.8276 669.752 50.5769 669.4 50.2783L669.912 49.3823C670.264 49.6596 670.707 49.8889 671.24 50.0703C671.774 50.2409 672.328 50.3263 672.904 50.3263C673.672 50.3263 674.238 50.2089 674.6 49.9743C674.974 49.7289 675.16 49.3876 675.16 48.9503C675.16 48.6409 675.059 48.4009 674.856 48.2303C674.654 48.0489 674.398 47.9156 674.088 47.8303C673.779 47.7343 673.368 47.6436 672.856 47.5583C672.174 47.4303 671.624 47.3023 671.208 47.1743C670.792 47.0356 670.435 46.8063 670.136 46.4863C669.848 46.1663 669.704 45.7236 669.704 45.1583C669.704 44.4543 669.998 43.8783 670.584 43.4303C671.171 42.9823 671.987 42.7583 673.032 42.7583C673.576 42.7583 674.12 42.8329 674.664 42.9823C675.208 43.1209 675.656 43.3076 676.008 43.5423L675.512 44.4543C674.819 43.9743 673.992 43.7343 673.032 43.7343C672.307 43.7343 671.758 43.8623 671.384 44.1183C671.022 44.3743 670.84 44.7103 670.84 45.1263C670.84 45.4463 670.942 45.7023 671.144 45.8943C671.358 46.0863 671.619 46.2303 671.928 46.3263C672.238 46.4116 672.664 46.5023 673.208 46.5983C673.88 46.7263 674.419 46.8543 674.824 46.9823C675.23 47.1103 675.576 47.3289 675.864 47.6383C676.152 47.9476 676.296 48.3743 676.296 48.9183C676.296 49.6543 675.987 50.2409 675.368 50.6783C674.76 51.1049 673.912 51.3183 672.824 51.3183ZM685.528 42.7583C686.627 42.7583 687.469 43.0356 688.056 43.5903C688.643 44.1343 688.936 44.9449 688.936 46.0223V51.2383H687.848V49.9263C687.592 50.3636 687.213 50.7049 686.712 50.9503C686.221 51.1956 685.635 51.3183 684.952 51.3183C684.013 51.3183 683.267 51.0943 682.712 50.6463C682.157 50.1983 681.88 49.6063 681.88 48.8703C681.88 48.1556 682.136 47.5796 682.648 47.1423C683.171 46.7049 683.997 46.4863 685.128 46.4863H687.8V45.9743C687.8 45.2489 687.597 44.6996 687.192 44.3263C686.787 43.9423 686.195 43.7503 685.416 43.7503C684.883 43.7503 684.371 43.8409 683.88 44.0223C683.389 44.1929 682.968 44.4329 682.616 44.7423L682.104 43.8943C682.531 43.5316 683.043 43.2543 683.64 43.0623C684.237 42.8596 684.867 42.7583 685.528 42.7583ZM685.128 50.4223C685.768 50.4223 686.317 50.2783 686.776 49.9903C687.235 49.6916 687.576 49.2649 687.8 48.7103V47.3343H685.16C683.72 47.3343 683 47.8356 683 48.8383C683 49.3289 683.187 49.7183 683.56 50.0063C683.933 50.2836 684.456 50.4223 685.128 50.4223ZM696.31 42.7583C697.366 42.7583 698.203 43.0676 698.822 43.6863C699.451 44.2943 699.766 45.1849 699.766 46.3583V51.2383H698.63V46.4703C698.63 45.5956 698.411 44.9289 697.974 44.4703C697.536 44.0116 696.912 43.7823 696.102 43.7823C695.195 43.7823 694.475 44.0543 693.942 44.5983C693.419 45.1316 693.158 45.8729 693.158 46.8223V51.2383H692.022V42.8223H693.11V44.3743C693.419 43.8623 693.846 43.4676 694.39 43.1903C694.944 42.9023 695.584 42.7583 696.31 42.7583ZM710.561 39.3663V51.2383H709.473V49.5743C709.132 50.1396 708.678 50.5716 708.113 50.8703C707.558 51.1689 706.929 51.3183 706.225 51.3183C705.436 51.3183 704.721 51.1369 704.081 50.7743C703.441 50.4116 702.94 49.9049 702.577 49.2543C702.214 48.6036 702.033 47.8623 702.033 47.0303C702.033 46.1983 702.214 45.4569 702.577 44.8063C702.94 44.1556 703.441 43.6543 704.081 43.3023C704.721 42.9396 705.436 42.7583 706.225 42.7583C706.908 42.7583 707.521 42.9023 708.065 43.1903C708.62 43.4676 709.073 43.8783 709.425 44.4223V39.3663H710.561ZM706.321 50.3103C706.908 50.3103 707.436 50.1769 707.905 49.9103C708.385 49.6329 708.758 49.2436 709.025 48.7423C709.302 48.2409 709.441 47.6703 709.441 47.0303C709.441 46.3903 709.302 45.8196 709.025 45.3183C708.758 44.8169 708.385 44.4329 707.905 44.1663C707.436 43.8889 706.908 43.7503 706.321 43.7503C705.724 43.7503 705.185 43.8889 704.705 44.1663C704.236 44.4329 703.862 44.8169 703.585 45.3183C703.318 45.8196 703.185 46.3903 703.185 47.0303C703.185 47.6703 703.318 48.2409 703.585 48.7423C703.862 49.2436 704.236 49.6329 704.705 49.9103C705.185 50.1769 705.724 50.3103 706.321 50.3103ZM719 44.4703C719.267 43.9049 719.661 43.4783 720.184 43.1903C720.717 42.9023 721.373 42.7583 722.152 42.7583V43.8623L721.88 43.8463C720.995 43.8463 720.301 44.1183 719.8 44.6623C719.299 45.2063 719.048 45.9689 719.048 46.9503V51.2383H717.912V42.8223H719V44.4703ZM731.459 47.3823H724.419C724.483 48.2569 724.819 48.9663 725.427 49.5103C726.035 50.0436 726.803 50.3103 727.731 50.3103C728.254 50.3103 728.734 50.2196 729.171 50.0383C729.608 49.8463 729.987 49.5689 730.307 49.2063L730.947 49.9423C730.574 50.3903 730.104 50.7316 729.539 50.9663C728.984 51.2009 728.371 51.3183 727.699 51.3183C726.835 51.3183 726.067 51.1369 725.395 50.7743C724.734 50.4009 724.216 49.8889 723.843 49.2383C723.47 48.5876 723.283 47.8516 723.283 47.0303C723.283 46.2089 723.459 45.4729 723.811 44.8223C724.174 44.1716 724.664 43.6649 725.283 43.3023C725.912 42.9396 726.616 42.7583 727.395 42.7583C728.174 42.7583 728.872 42.9396 729.491 43.3023C730.11 43.6649 730.595 44.1716 730.947 44.8223C731.299 45.4623 731.475 46.1983 731.475 47.0303L731.459 47.3823ZM727.395 43.7343C726.584 43.7343 725.902 43.9956 725.347 44.5183C724.803 45.0303 724.494 45.7023 724.419 46.5343H730.387C730.312 45.7023 729.998 45.0303 729.443 44.5183C728.899 43.9956 728.216 43.7343 727.395 43.7343ZM738.123 42.7583C738.912 42.7583 739.627 42.9396 740.267 43.3023C740.907 43.6543 741.408 44.1556 741.771 44.8063C742.134 45.4569 742.315 46.1983 742.315 47.0303C742.315 47.8729 742.134 48.6196 741.771 49.2703C741.408 49.9209 740.907 50.4276 740.267 50.7903C739.638 51.1423 738.923 51.3183 738.123 51.3183C737.44 51.3183 736.822 51.1796 736.267 50.9023C735.723 50.6143 735.275 50.1983 734.923 49.6543V54.3423H733.787V42.8223H734.875V44.4863C735.216 43.9316 735.664 43.5049 736.219 43.2063C736.784 42.9076 737.419 42.7583 738.123 42.7583ZM738.043 50.3103C738.63 50.3103 739.163 50.1769 739.643 49.9103C740.123 49.6329 740.496 49.2436 740.763 48.7423C741.04 48.2409 741.179 47.6703 741.179 47.0303C741.179 46.3903 741.04 45.8249 740.763 45.3343C740.496 44.8329 740.123 44.4436 739.643 44.1663C739.163 43.8889 738.63 43.7503 738.043 43.7503C737.446 43.7503 736.907 43.8889 736.427 44.1663C735.958 44.4436 735.584 44.8329 735.307 45.3343C735.04 45.8249 734.907 46.3903 734.907 47.0303C734.907 47.6703 735.04 48.2409 735.307 48.7423C735.584 49.2436 735.958 49.6329 736.427 49.9103C736.907 50.1769 737.446 50.3103 738.043 50.3103ZM748.071 51.3183C747.26 51.3183 746.53 51.1369 745.879 50.7743C745.228 50.4009 744.716 49.8889 744.343 49.2383C743.97 48.5876 743.783 47.8516 743.783 47.0303C743.783 46.2089 743.97 45.4729 744.343 44.8223C744.716 44.1716 745.228 43.6649 745.879 43.3023C746.53 42.9396 747.26 42.7583 748.071 42.7583C748.882 42.7583 749.612 42.9396 750.263 43.3023C750.914 43.6649 751.42 44.1716 751.783 44.8223C752.156 45.4729 752.343 46.2089 752.343 47.0303C752.343 47.8516 752.156 48.5876 751.783 49.2383C751.42 49.8889 750.914 50.4009 750.263 50.7743C749.612 51.1369 748.882 51.3183 748.071 51.3183ZM748.071 50.3103C748.668 50.3103 749.202 50.1769 749.671 49.9103C750.151 49.6329 750.524 49.2436 750.791 48.7423C751.058 48.2409 751.191 47.6703 751.191 47.0303C751.191 46.3903 751.058 45.8196 750.791 45.3183C750.524 44.8169 750.151 44.4329 749.671 44.1663C749.202 43.8889 748.668 43.7503 748.071 43.7503C747.474 43.7503 746.935 43.8889 746.455 44.1663C745.986 44.4329 745.612 44.8169 745.335 45.3183C745.068 45.8196 744.935 46.3903 744.935 47.0303C744.935 47.6703 745.068 48.2409 745.335 48.7423C745.612 49.2436 745.986 49.6329 746.455 49.9103C746.935 50.1769 747.474 50.3103 748.071 50.3103ZM756.918 51.3183C756.235 51.3183 755.579 51.2223 754.95 51.0303C754.331 50.8276 753.846 50.5769 753.494 50.2783L754.006 49.3823C754.358 49.6596 754.801 49.8889 755.334 50.0703C755.867 50.2409 756.422 50.3263 756.998 50.3263C757.766 50.3263 758.331 50.2089 758.694 49.9743C759.067 49.7289 759.254 49.3876 759.254 48.9503C759.254 48.6409 759.153 48.4009 758.95 48.2303C758.747 48.0489 758.491 47.9156 758.182 47.8303C757.873 47.7343 757.462 47.6436 756.95 47.5583C756.267 47.4303 755.718 47.3023 755.302 47.1743C754.886 47.0356 754.529 46.8063 754.23 46.4863C753.942 46.1663 753.798 45.7236 753.798 45.1583C753.798 44.4543 754.091 43.8783 754.678 43.4303C755.265 42.9823 756.081 42.7583 757.126 42.7583C757.67 42.7583 758.214 42.8329 758.758 42.9823C759.302 43.1209 759.75 43.3076 760.102 43.5423L759.606 44.4543C758.913 43.9743 758.086 43.7343 757.126 43.7343C756.401 43.7343 755.851 43.8623 755.478 44.1183C755.115 44.3743 754.934 44.7103 754.934 45.1263C754.934 45.4463 755.035 45.7023 755.238 45.8943C755.451 46.0863 755.713 46.2303 756.022 46.3263C756.331 46.4116 756.758 46.5023 757.302 46.5983C757.974 46.7263 758.513 46.8543 758.918 46.9823C759.323 47.1103 759.67 47.3289 759.958 47.6383C760.246 47.9476 760.39 48.3743 760.39 48.9183C760.39 49.6543 760.081 50.2409 759.462 50.6783C758.854 51.1049 758.006 51.3183 756.918 51.3183ZM769.622 42.7583C770.72 42.7583 771.563 43.0356 772.15 43.5903C772.736 44.1343 773.03 44.9449 773.03 46.0223V51.2383H771.942V49.9263C771.686 50.3636 771.307 50.7049 770.806 50.9503C770.315 51.1956 769.728 51.3183 769.046 51.3183C768.107 51.3183 767.36 51.0943 766.806 50.6463C766.251 50.1983 765.974 49.6063 765.974 48.8703C765.974 48.1556 766.23 47.5796 766.742 47.1423C767.264 46.7049 768.091 46.4863 769.222 46.4863H771.894V45.9743C771.894 45.2489 771.691 44.6996 771.286 44.3263C770.88 43.9423 770.288 43.7503 769.51 43.7503C768.976 43.7503 768.464 43.8409 767.974 44.0223C767.483 44.1929 767.062 44.4329 766.71 44.7423L766.198 43.8943C766.624 43.5316 767.136 43.2543 767.734 43.0623C768.331 42.8596 768.96 42.7583 769.622 42.7583ZM769.222 50.4223C769.862 50.4223 770.411 50.2783 770.87 49.9903C771.328 49.6916 771.67 49.2649 771.894 48.7103V47.3343H769.254C767.814 47.3343 767.094 47.8356 767.094 48.8383C767.094 49.3289 767.28 49.7183 767.654 50.0063C768.027 50.2836 768.55 50.4223 769.222 50.4223ZM780.403 42.7583C781.459 42.7583 782.297 43.0676 782.915 43.6863C783.545 44.2943 783.859 45.1849 783.859 46.3583V51.2383H782.723V46.4703C782.723 45.5956 782.505 44.9289 782.067 44.4703C781.63 44.0116 781.006 43.7823 780.195 43.7823C779.289 43.7823 778.569 44.0543 778.035 44.5983C777.513 45.1316 777.251 45.8729 777.251 46.8223V51.2383H776.115V42.8223H777.203V44.3743C777.513 43.8623 777.939 43.4676 778.483 43.1903C779.038 42.9023 779.678 42.7583 780.403 42.7583ZM794.655 39.3663V51.2383H793.567V49.5743C793.225 50.1396 792.772 50.5716 792.207 50.8703C791.652 51.1689 791.023 51.3183 790.319 51.3183C789.529 51.3183 788.815 51.1369 788.175 50.7743C787.535 50.4116 787.033 49.9049 786.671 49.2543C786.308 48.6036 786.127 47.8623 786.127 47.0303C786.127 46.1983 786.308 45.4569 786.671 44.8063C787.033 44.1556 787.535 43.6543 788.175 43.3023C788.815 42.9396 789.529 42.7583 790.319 42.7583C791.001 42.7583 791.615 42.9023 792.159 43.1903C792.713 43.4676 793.167 43.8783 793.519 44.4223V39.3663H794.655ZM790.415 50.3103C791.001 50.3103 791.529 50.1769 791.999 49.9103C792.479 49.6329 792.852 49.2436 793.119 48.7423C793.396 48.2409 793.535 47.6703 793.535 47.0303C793.535 46.3903 793.396 45.8196 793.119 45.3183C792.852 44.8169 792.479 44.4329 791.999 44.1663C791.529 43.8889 791.001 43.7503 790.415 43.7503C789.817 43.7503 789.279 43.8889 788.799 44.1663C788.329 44.4329 787.956 44.8169 787.679 45.3183C787.412 45.8196 787.279 46.3903 787.279 47.0303C787.279 47.6703 787.412 48.2409 787.679 48.7423C787.956 49.2436 788.329 49.6329 788.799 49.9103C789.279 50.1769 789.817 50.3103 790.415 50.3103ZM809.798 42.8223V50.2143C809.798 51.6436 809.446 52.6996 808.742 53.3823C808.049 54.0756 806.998 54.4223 805.59 54.4223C804.811 54.4223 804.07 54.3049 803.366 54.0703C802.673 53.8463 802.107 53.5316 801.67 53.1263L802.246 52.2623C802.651 52.6249 803.142 52.9076 803.718 53.1103C804.305 53.3129 804.918 53.4143 805.558 53.4143C806.625 53.4143 807.409 53.1636 807.91 52.6623C808.411 52.1716 808.662 51.4036 808.662 50.3583V49.2863C808.31 49.8196 807.846 50.2249 807.27 50.5023C806.705 50.7796 806.075 50.9183 805.382 50.9183C804.593 50.9183 803.873 50.7476 803.222 50.4063C802.582 50.0543 802.075 49.5689 801.702 48.9503C801.339 48.3209 801.158 47.6116 801.158 46.8223C801.158 46.0329 801.339 45.3289 801.702 44.7103C802.075 44.0916 802.582 43.6116 803.222 43.2703C803.862 42.9289 804.582 42.7583 805.382 42.7583C806.097 42.7583 806.742 42.9023 807.318 43.1903C807.894 43.4783 808.358 43.8943 808.71 44.4383V42.8223H809.798ZM805.494 49.9103C806.102 49.9103 806.651 49.7823 807.142 49.5263C807.633 49.2596 808.011 48.8916 808.278 48.4223C808.555 47.9529 808.694 47.4196 808.694 46.8223C808.694 46.2249 808.555 45.6969 808.278 45.2383C808.011 44.7689 807.633 44.4063 807.142 44.1503C806.662 43.8836 806.113 43.7503 805.494 43.7503C804.886 43.7503 804.337 43.8783 803.846 44.1343C803.366 44.3903 802.987 44.7529 802.71 45.2223C802.443 45.6916 802.31 46.2249 802.31 46.8223C802.31 47.4196 802.443 47.9529 802.71 48.4223C802.987 48.8916 803.366 49.2596 803.846 49.5263C804.337 49.7823 804.886 49.9103 805.494 49.9103ZM820.303 47.3823H813.263C813.327 48.2569 813.663 48.9663 814.271 49.5103C814.879 50.0436 815.647 50.3103 816.575 50.3103C817.097 50.3103 817.577 50.2196 818.015 50.0383C818.452 49.8463 818.831 49.5689 819.151 49.2063L819.791 49.9423C819.417 50.3903 818.948 50.7316 818.383 50.9663C817.828 51.2009 817.215 51.3183 816.543 51.3183C815.679 51.3183 814.911 51.1369 814.239 50.7743C813.577 50.4009 813.06 49.8889 812.687 49.2383C812.313 48.5876 812.127 47.8516 812.127 47.0303C812.127 46.2089 812.303 45.4729 812.655 44.8223C813.017 44.1716 813.508 43.6649 814.127 43.3023C814.756 42.9396 815.46 42.7583 816.239 42.7583C817.017 42.7583 817.716 42.9396 818.335 43.3023C818.953 43.6649 819.439 44.1716 819.791 44.8223C820.143 45.4623 820.319 46.1983 820.319 47.0303L820.303 47.3823ZM816.239 43.7343C815.428 43.7343 814.745 43.9956 814.191 44.5183C813.647 45.0303 813.337 45.7023 813.263 46.5343H819.231C819.156 45.7023 818.841 45.0303 818.287 44.5183C817.743 43.9956 817.06 43.7343 816.239 43.7343ZM827.063 50.7263C826.85 50.9183 826.583 51.0676 826.263 51.1743C825.954 51.2703 825.628 51.3183 825.287 51.3183C824.498 51.3183 823.89 51.1049 823.463 50.6783C823.036 50.2516 822.823 49.6489 822.823 48.8703V43.7823H821.319V42.8223H822.823V40.9823H823.959V42.8223H826.519V43.7823H823.959V48.8063C823.959 49.3076 824.082 49.6916 824.327 49.9583C824.583 50.2143 824.946 50.3423 825.415 50.3423C825.65 50.3423 825.874 50.3049 826.087 50.2303C826.311 50.1556 826.503 50.0489 826.663 49.9103L827.063 50.7263ZM447.528 60.7583C448.627 60.7583 449.469 61.0356 450.056 61.5903C450.643 62.1343 450.936 62.9449 450.936 64.0223V69.2383H449.848V67.9263C449.592 68.3636 449.213 68.7049 448.712 68.9503C448.221 69.1956 447.635 69.3183 446.952 69.3183C446.013 69.3183 445.267 69.0943 444.712 68.6463C444.157 68.1983 443.88 67.6063 443.88 66.8703C443.88 66.1556 444.136 65.5796 444.648 65.1423C445.171 64.7049 445.997 64.4863 447.128 64.4863H449.8V63.9743C449.8 63.2489 449.597 62.6996 449.192 62.3263C448.787 61.9423 448.195 61.7503 447.416 61.7503C446.883 61.7503 446.371 61.8409 445.88 62.0223C445.389 62.1929 444.968 62.4329 444.616 62.7423L444.104 61.8943C444.531 61.5316 445.043 61.2543 445.64 61.0623C446.237 60.8596 446.867 60.7583 447.528 60.7583ZM447.128 68.4223C447.768 68.4223 448.317 68.2783 448.776 67.9903C449.235 67.6916 449.576 67.2649 449.8 66.7103V65.3343H447.16C445.72 65.3343 445 65.8356 445 66.8383C445 67.3289 445.187 67.7183 445.56 68.0063C445.933 68.2836 446.456 68.4223 447.128 68.4223ZM454.022 57.3663H455.158V69.2383H454.022V57.3663ZM458.318 57.3663H459.454V69.2383H458.318V57.3663ZM471.235 68.7263C471.021 68.9183 470.755 69.0676 470.435 69.1743C470.125 69.2703 469.8 69.3183 469.459 69.3183C468.669 69.3183 468.061 69.1049 467.635 68.6783C467.208 68.2516 466.995 67.6489 466.995 66.8703V61.7823H465.491V60.8223H466.995V58.9823H468.131V60.8223H470.691V61.7823H468.131V66.8063C468.131 67.3076 468.253 67.6916 468.499 67.9583C468.755 68.2143 469.117 68.3423 469.587 68.3423C469.821 68.3423 470.045 68.3049 470.259 68.2303C470.483 68.1556 470.675 68.0489 470.835 67.9103L471.235 68.7263ZM477.591 60.7583C478.647 60.7583 479.484 61.0676 480.103 61.6863C480.732 62.2943 481.047 63.1849 481.047 64.3583V69.2383H479.911V64.4703C479.911 63.5956 479.692 62.9289 479.255 62.4703C478.817 62.0116 478.193 61.7823 477.383 61.7823C476.476 61.7823 475.756 62.0543 475.223 62.5983C474.7 63.1316 474.439 63.8729 474.439 64.8223V69.2383H473.303V57.3663H474.439V62.2943C474.748 61.8036 475.175 61.4249 475.719 61.1583C476.263 60.8916 476.887 60.7583 477.591 60.7583ZM491.49 65.3823H484.45C484.514 66.2569 484.85 66.9663 485.458 67.5103C486.066 68.0436 486.834 68.3103 487.762 68.3103C488.285 68.3103 488.765 68.2196 489.202 68.0383C489.639 67.8463 490.018 67.5689 490.338 67.2063L490.978 67.9423C490.605 68.3903 490.135 68.7316 489.57 68.9663C489.015 69.2009 488.402 69.3183 487.73 69.3183C486.866 69.3183 486.098 69.1369 485.426 68.7743C484.765 68.4009 484.247 67.8889 483.874 67.2383C483.501 66.5876 483.314 65.8516 483.314 65.0303C483.314 64.2089 483.49 63.4729 483.842 62.8223C484.205 62.1716 484.695 61.6649 485.314 61.3023C485.943 60.9396 486.647 60.7583 487.426 60.7583C488.205 60.7583 488.903 60.9396 489.522 61.3023C490.141 61.6649 490.626 62.1716 490.978 62.8223C491.33 63.4623 491.506 64.1983 491.506 65.0303L491.49 65.3823ZM487.426 61.7343C486.615 61.7343 485.933 61.9956 485.378 62.5183C484.834 63.0303 484.525 63.7023 484.45 64.5343H490.418C490.343 63.7023 490.029 63.0303 489.474 62.5183C488.93 61.9956 488.247 61.7343 487.426 61.7343ZM500.262 69.3183C499.579 69.3183 498.923 69.2223 498.294 69.0303C497.675 68.8276 497.19 68.5769 496.838 68.2783L497.35 67.3823C497.702 67.6596 498.145 67.8889 498.678 68.0703C499.211 68.2409 499.766 68.3263 500.342 68.3263C501.11 68.3263 501.675 68.2089 502.038 67.9743C502.411 67.7289 502.598 67.3876 502.598 66.9503C502.598 66.6409 502.497 66.4009 502.294 66.2303C502.091 66.0489 501.835 65.9156 501.526 65.8303C501.217 65.7343 500.806 65.6436 500.294 65.5583C499.611 65.4303 499.062 65.3023 498.646 65.1743C498.23 65.0356 497.873 64.8063 497.574 64.4863C497.286 64.1663 497.142 63.7236 497.142 63.1583C497.142 62.4543 497.435 61.8783 498.022 61.4303C498.609 60.9823 499.425 60.7583 500.47 60.7583C501.014 60.7583 501.558 60.8329 502.102 60.9823C502.646 61.1209 503.094 61.3076 503.446 61.5423L502.95 62.4543C502.257 61.9743 501.43 61.7343 500.47 61.7343C499.745 61.7343 499.195 61.8623 498.822 62.1183C498.459 62.3743 498.278 62.7103 498.278 63.1263C498.278 63.4463 498.379 63.7023 498.582 63.8943C498.795 64.0863 499.057 64.2303 499.366 64.3263C499.675 64.4116 500.102 64.5023 500.646 64.5983C501.318 64.7263 501.857 64.8543 502.262 64.9823C502.667 65.1103 503.014 65.3289 503.302 65.6383C503.59 65.9476 503.734 66.3743 503.734 66.9183C503.734 67.6543 503.425 68.2409 502.806 68.6783C502.198 69.1049 501.35 69.3183 500.262 69.3183ZM513.418 60.8223V69.2383H512.33V67.7023C512.031 68.2143 511.621 68.6143 511.098 68.9023C510.575 69.1796 509.978 69.3183 509.306 69.3183C508.207 69.3183 507.338 69.0143 506.698 68.4063C506.069 67.7876 505.754 66.8863 505.754 65.7023V60.8223H506.89V65.5903C506.89 66.4756 507.109 67.1476 507.546 67.6063C507.983 68.0649 508.607 68.2943 509.418 68.2943C510.303 68.2943 511.002 68.0276 511.514 67.4943C512.026 66.9503 512.282 66.1983 512.282 65.2383V60.8223H513.418ZM520.936 60.7583C521.725 60.7583 522.44 60.9396 523.08 61.3023C523.72 61.6543 524.221 62.1556 524.584 62.8063C524.946 63.4569 525.128 64.1983 525.128 65.0303C525.128 65.8729 524.946 66.6196 524.584 67.2703C524.221 67.9209 523.72 68.4276 523.08 68.7903C522.45 69.1423 521.736 69.3183 520.936 69.3183C520.253 69.3183 519.634 69.1796 519.08 68.9023C518.536 68.6143 518.088 68.1983 517.736 67.6543V72.3423H516.6V60.8223H517.688V62.4863C518.029 61.9316 518.477 61.5049 519.032 61.2063C519.597 60.9076 520.232 60.7583 520.936 60.7583ZM520.856 68.3103C521.442 68.3103 521.976 68.1769 522.456 67.9103C522.936 67.6329 523.309 67.2436 523.576 66.7423C523.853 66.2409 523.992 65.6703 523.992 65.0303C523.992 64.3903 523.853 63.8249 523.576 63.3343C523.309 62.8329 522.936 62.4436 522.456 62.1663C521.976 61.8889 521.442 61.7503 520.856 61.7503C520.258 61.7503 519.72 61.8889 519.24 62.1663C518.77 62.4436 518.397 62.8329 518.12 63.3343C517.853 63.8249 517.72 64.3903 517.72 65.0303C517.72 65.6703 517.853 66.2409 518.12 66.7423C518.397 67.2436 518.77 67.6329 519.24 67.9103C519.72 68.1769 520.258 68.3103 520.856 68.3103ZM531.779 60.7583C532.569 60.7583 533.283 60.9396 533.923 61.3023C534.563 61.6543 535.065 62.1556 535.427 62.8063C535.79 63.4569 535.971 64.1983 535.971 65.0303C535.971 65.8729 535.79 66.6196 535.427 67.2703C535.065 67.9209 534.563 68.4276 533.923 68.7903C533.294 69.1423 532.579 69.3183 531.779 69.3183C531.097 69.3183 530.478 69.1796 529.923 68.9023C529.379 68.6143 528.931 68.1983 528.579 67.6543V72.3423H527.443V60.8223H528.531V62.4863C528.873 61.9316 529.321 61.5049 529.875 61.2063C530.441 60.9076 531.075 60.7583 531.779 60.7583ZM531.699 68.3103C532.286 68.3103 532.819 68.1769 533.299 67.9103C533.779 67.6329 534.153 67.2436 534.419 66.7423C534.697 66.2409 534.835 65.6703 534.835 65.0303C534.835 64.3903 534.697 63.8249 534.419 63.3343C534.153 62.8329 533.779 62.4436 533.299 62.1663C532.819 61.8889 532.286 61.7503 531.699 61.7503C531.102 61.7503 530.563 61.8889 530.083 62.1663C529.614 62.4436 529.241 62.8329 528.963 63.3343C528.697 63.8249 528.563 64.3903 528.563 65.0303C528.563 65.6703 528.697 66.2409 528.963 66.7423C529.241 67.2436 529.614 67.6329 530.083 67.9103C530.563 68.1769 531.102 68.3103 531.699 68.3103ZM541.727 69.3183C540.916 69.3183 540.186 69.1369 539.535 68.7743C538.884 68.4009 538.372 67.8889 537.999 67.2383C537.626 66.5876 537.439 65.8516 537.439 65.0303C537.439 64.2089 537.626 63.4729 537.999 62.8223C538.372 62.1716 538.884 61.6649 539.535 61.3023C540.186 60.9396 540.916 60.7583 541.727 60.7583C542.538 60.7583 543.268 60.9396 543.919 61.3023C544.57 61.6649 545.076 62.1716 545.439 62.8223C545.812 63.4729 545.999 64.2089 545.999 65.0303C545.999 65.8516 545.812 66.5876 545.439 67.2383C545.076 67.8889 544.57 68.4009 543.919 68.7743C543.268 69.1369 542.538 69.3183 541.727 69.3183ZM541.727 68.3103C542.324 68.3103 542.858 68.1769 543.327 67.9103C543.807 67.6329 544.18 67.2436 544.447 66.7423C544.714 66.2409 544.847 65.6703 544.847 65.0303C544.847 64.3903 544.714 63.8196 544.447 63.3183C544.18 62.8169 543.807 62.4329 543.327 62.1663C542.858 61.8889 542.324 61.7503 541.727 61.7503C541.13 61.7503 540.591 61.8889 540.111 62.1663C539.642 62.4329 539.268 62.8169 538.991 63.3183C538.724 63.8196 538.591 64.3903 538.591 65.0303C538.591 65.6703 538.724 66.2409 538.991 66.7423C539.268 67.2436 539.642 67.6329 540.111 67.9103C540.591 68.1769 541.13 68.3103 541.727 68.3103ZM549.406 62.4703C549.673 61.9049 550.068 61.4783 550.59 61.1903C551.124 60.9023 551.78 60.7583 552.558 60.7583V61.8623L552.286 61.8463C551.401 61.8463 550.708 62.1183 550.206 62.6623C549.705 63.2063 549.454 63.9689 549.454 64.9503V69.2383H548.318V60.8223H549.406V62.4703ZM559.407 68.7263C559.193 68.9183 558.927 69.0676 558.607 69.1743C558.297 69.2703 557.972 69.3183 557.631 69.3183C556.841 69.3183 556.233 69.1049 555.807 68.6783C555.38 68.2516 555.167 67.6489 555.167 66.8703V61.7823H553.663V60.8223H555.167V58.9823H556.303V60.8223H558.863V61.7823H556.303V66.8063C556.303 67.3076 556.425 67.6916 556.671 67.9583C556.927 68.2143 557.289 68.3423 557.759 68.3423C557.993 68.3423 558.217 68.3049 558.431 68.2303C558.655 68.1556 558.847 68.0489 559.007 67.9103L559.407 68.7263ZM576.922 60.8223L572.714 70.2463C572.372 71.0356 571.978 71.5956 571.53 71.9263C571.082 72.2569 570.543 72.4223 569.914 72.4223C569.508 72.4223 569.13 72.3583 568.778 72.2303C568.426 72.1023 568.122 71.9103 567.866 71.6543L568.394 70.8063C568.82 71.2329 569.332 71.4463 569.93 71.4463C570.314 71.4463 570.639 71.3396 570.906 71.1263C571.183 70.9129 571.439 70.5503 571.674 70.0383L572.042 69.2223L568.282 60.8223H569.466L572.634 67.9743L575.802 60.8223H576.922ZM581.727 69.3183C580.916 69.3183 580.186 69.1369 579.535 68.7743C578.884 68.4009 578.372 67.8889 577.999 67.2383C577.626 66.5876 577.439 65.8516 577.439 65.0303C577.439 64.2089 577.626 63.4729 577.999 62.8223C578.372 62.1716 578.884 61.6649 579.535 61.3023C580.186 60.9396 580.916 60.7583 581.727 60.7583C582.538 60.7583 583.268 60.9396 583.919 61.3023C584.57 61.6649 585.076 62.1716 585.439 62.8223C585.812 63.4729 585.999 64.2089 585.999 65.0303C585.999 65.8516 585.812 66.5876 585.439 67.2383C585.076 67.8889 584.57 68.4009 583.919 68.7743C583.268 69.1369 582.538 69.3183 581.727 69.3183ZM581.727 68.3103C582.324 68.3103 582.858 68.1769 583.327 67.9103C583.807 67.6329 584.18 67.2436 584.447 66.7423C584.714 66.2409 584.847 65.6703 584.847 65.0303C584.847 64.3903 584.714 63.8196 584.447 63.3183C584.18 62.8169 583.807 62.4329 583.327 62.1663C582.858 61.8889 582.324 61.7503 581.727 61.7503C581.13 61.7503 580.591 61.8889 580.111 62.1663C579.642 62.4329 579.268 62.8169 578.991 63.3183C578.724 63.8196 578.591 64.3903 578.591 65.0303C578.591 65.6703 578.724 66.2409 578.991 66.7423C579.268 67.2436 579.642 67.6329 580.111 67.9103C580.591 68.1769 581.13 68.3103 581.727 68.3103ZM595.902 60.8223V69.2383H594.814V67.7023C594.516 68.2143 594.105 68.6143 593.582 68.9023C593.06 69.1796 592.462 69.3183 591.79 69.3183C590.692 69.3183 589.822 69.0143 589.182 68.4063C588.553 67.7876 588.238 66.8863 588.238 65.7023V60.8223H589.374V65.5903C589.374 66.4756 589.593 67.1476 590.03 67.6063C590.468 68.0649 591.092 68.2943 591.902 68.2943C592.788 68.2943 593.486 68.0276 593.998 67.4943C594.51 66.9503 594.766 66.1983 594.766 65.2383V60.8223H595.902ZM613.768 60.7583C614.824 60.7583 615.65 61.0623 616.248 61.6703C616.856 62.2783 617.16 63.1743 617.16 64.3583V69.2383H616.024V64.4703C616.024 63.5956 615.81 62.9289 615.384 62.4703C614.968 62.0116 614.376 61.7823 613.608 61.7823C612.733 61.7823 612.045 62.0543 611.544 62.5983C611.042 63.1316 610.792 63.8729 610.792 64.8223V69.2383H609.656V64.4703C609.656 63.5956 609.442 62.9289 609.016 62.4703C608.6 62.0116 608.002 61.7823 607.224 61.7823C606.36 61.7823 605.672 62.0543 605.16 62.5983C604.658 63.1316 604.408 63.8729 604.408 64.8223V69.2383H603.272V60.8223H604.36V62.3583C604.658 61.8463 605.074 61.4516 605.608 61.1743C606.141 60.8969 606.754 60.7583 607.448 60.7583C608.152 60.7583 608.76 60.9076 609.272 61.2063C609.794 61.5049 610.184 61.9476 610.44 62.5343C610.749 61.9796 611.192 61.5476 611.768 61.2383C612.354 60.9183 613.021 60.7583 613.768 60.7583ZM620.24 60.8223H621.376V69.2383H620.24V60.8223ZM620.816 58.9823C620.582 58.9823 620.384 58.9023 620.224 58.7423C620.064 58.5823 619.984 58.3903 619.984 58.1663C619.984 57.9529 620.064 57.7663 620.224 57.6063C620.384 57.4463 620.582 57.3663 620.816 57.3663C621.051 57.3663 621.248 57.4463 621.408 57.6063C621.568 57.7556 621.648 57.9369 621.648 58.1503C621.648 58.3849 621.568 58.5823 621.408 58.7423C621.248 58.9023 621.051 58.9823 620.816 58.9823ZM632.329 60.8223V68.2143C632.329 69.6436 631.977 70.6996 631.273 71.3823C630.58 72.0756 629.529 72.4223 628.121 72.4223C627.342 72.4223 626.601 72.3049 625.897 72.0703C625.204 71.8463 624.638 71.5316 624.201 71.1263L624.777 70.2623C625.182 70.6249 625.673 70.9076 626.249 71.1103C626.836 71.3129 627.449 71.4143 628.089 71.4143C629.156 71.4143 629.94 71.1636 630.441 70.6623C630.942 70.1716 631.193 69.4036 631.193 68.3583V67.2863C630.841 67.8196 630.377 68.2249 629.801 68.5023C629.236 68.7796 628.606 68.9183 627.913 68.9183C627.124 68.9183 626.404 68.7476 625.753 68.4063C625.113 68.0543 624.606 67.5689 624.233 66.9503C623.87 66.3209 623.689 65.6116 623.689 64.8223C623.689 64.0329 623.87 63.3289 624.233 62.7103C624.606 62.0916 625.113 61.6116 625.753 61.2703C626.393 60.9289 627.113 60.7583 627.913 60.7583C628.628 60.7583 629.273 60.9023 629.849 61.1903C630.425 61.4783 630.889 61.8943 631.241 62.4383V60.8223H632.329ZM628.025 67.9103C628.633 67.9103 629.182 67.7823 629.673 67.5263C630.164 67.2596 630.542 66.8916 630.809 66.4223C631.086 65.9529 631.225 65.4196 631.225 64.8223C631.225 64.2249 631.086 63.6969 630.809 63.2383C630.542 62.7689 630.164 62.4063 629.673 62.1503C629.193 61.8836 628.644 61.7503 628.025 61.7503C627.417 61.7503 626.868 61.8783 626.377 62.1343C625.897 62.3903 625.518 62.7529 625.241 63.2223C624.974 63.6916 624.841 64.2249 624.841 64.8223C624.841 65.4196 624.974 65.9529 625.241 66.4223C625.518 66.8916 625.897 67.2596 626.377 67.5263C626.868 67.7823 627.417 67.9103 628.025 67.9103ZM639.794 60.7583C640.85 60.7583 641.687 61.0676 642.306 61.6863C642.935 62.2943 643.25 63.1849 643.25 64.3583V69.2383H642.114V64.4703C642.114 63.5956 641.895 62.9289 641.458 62.4703C641.021 62.0116 640.397 61.7823 639.586 61.7823C638.679 61.7823 637.959 62.0543 637.426 62.5983C636.903 63.1316 636.642 63.8729 636.642 64.8223V69.2383H635.506V57.3663H636.642V62.2943C636.951 61.8036 637.378 61.4249 637.922 61.1583C638.466 60.8916 639.09 60.7583 639.794 60.7583ZM650.766 68.7263C650.553 68.9183 650.286 69.0676 649.966 69.1743C649.657 69.2703 649.331 69.3183 648.99 69.3183C648.201 69.3183 647.593 69.1049 647.166 68.6783C646.739 68.2516 646.526 67.6489 646.526 66.8703V61.7823H645.022V60.8223H646.526V58.9823H647.662V60.8223H650.222V61.7823H647.662V66.8063C647.662 67.3076 647.785 67.6916 648.03 67.9583C648.286 68.2143 648.649 68.3423 649.118 68.3423C649.353 68.3423 649.577 68.3049 649.79 68.2303C650.014 68.1556 650.206 68.0489 650.366 67.9103L650.766 68.7263ZM661.31 60.7583C662.366 60.7583 663.203 61.0676 663.822 61.6863C664.451 62.2943 664.766 63.1849 664.766 64.3583V69.2383H663.63V64.4703C663.63 63.5956 663.411 62.9289 662.974 62.4703C662.536 62.0116 661.912 61.7823 661.102 61.7823C660.195 61.7823 659.475 62.0543 658.942 62.5983C658.419 63.1316 658.158 63.8729 658.158 64.8223V69.2383H657.022V60.8223H658.11V62.3743C658.419 61.8623 658.846 61.4676 659.39 61.1903C659.944 60.9023 660.584 60.7583 661.31 60.7583ZM675.209 65.3823H668.169C668.233 66.2569 668.569 66.9663 669.177 67.5103C669.785 68.0436 670.553 68.3103 671.481 68.3103C672.004 68.3103 672.484 68.2196 672.921 68.0383C673.358 67.8463 673.737 67.5689 674.057 67.2063L674.697 67.9423C674.324 68.3903 673.854 68.7316 673.289 68.9663C672.734 69.2009 672.121 69.3183 671.449 69.3183C670.585 69.3183 669.817 69.1369 669.145 68.7743C668.484 68.4009 667.966 67.8889 667.593 67.2383C667.22 66.5876 667.033 65.8516 667.033 65.0303C667.033 64.2089 667.209 63.4729 667.561 62.8223C667.924 62.1716 668.414 61.6649 669.033 61.3023C669.662 60.9396 670.366 60.7583 671.145 60.7583C671.924 60.7583 672.622 60.9396 673.241 61.3023C673.86 61.6649 674.345 62.1716 674.697 62.8223C675.049 63.4623 675.225 64.1983 675.225 65.0303L675.209 65.3823ZM671.145 61.7343C670.334 61.7343 669.652 61.9956 669.097 62.5183C668.553 63.0303 668.244 63.7023 668.169 64.5343H674.137C674.062 63.7023 673.748 63.0303 673.193 62.5183C672.649 61.9956 671.966 61.7343 671.145 61.7343ZM684.865 65.3823H677.825C677.889 66.2569 678.225 66.9663 678.833 67.5103C679.441 68.0436 680.209 68.3103 681.137 68.3103C681.66 68.3103 682.14 68.2196 682.577 68.0383C683.014 67.8463 683.393 67.5689 683.713 67.2063L684.353 67.9423C683.98 68.3903 683.51 68.7316 682.945 68.9663C682.39 69.2009 681.777 69.3183 681.105 69.3183C680.241 69.3183 679.473 69.1369 678.801 68.7743C678.14 68.4009 677.622 67.8889 677.249 67.2383C676.876 66.5876 676.689 65.8516 676.689 65.0303C676.689 64.2089 676.865 63.4729 677.217 62.8223C677.58 62.1716 678.07 61.6649 678.689 61.3023C679.318 60.9396 680.022 60.7583 680.801 60.7583C681.58 60.7583 682.278 60.9396 682.897 61.3023C683.516 61.6649 684.001 62.1716 684.353 62.8223C684.705 63.4623 684.881 64.1983 684.881 65.0303L684.865 65.3823ZM680.801 61.7343C679.99 61.7343 679.308 61.9956 678.753 62.5183C678.209 63.0303 677.9 63.7023 677.825 64.5343H683.793C683.718 63.7023 683.404 63.0303 682.849 62.5183C682.305 61.9956 681.622 61.7343 680.801 61.7343ZM694.873 57.3663V69.2383H693.785V67.5743C693.444 68.1396 692.991 68.5716 692.425 68.8703C691.871 69.1689 691.241 69.3183 690.537 69.3183C689.748 69.3183 689.033 69.1369 688.393 68.7743C687.753 68.4116 687.252 67.9049 686.889 67.2543C686.527 66.6036 686.345 65.8623 686.345 65.0303C686.345 64.1983 686.527 63.4569 686.889 62.8063C687.252 62.1556 687.753 61.6543 688.393 61.3023C689.033 60.9396 689.748 60.7583 690.537 60.7583C691.22 60.7583 691.833 60.9023 692.377 61.1903C692.932 61.4676 693.385 61.8783 693.737 62.4223V57.3663H694.873ZM690.633 68.3103C691.22 68.3103 691.748 68.1769 692.217 67.9103C692.697 67.6329 693.071 67.2436 693.337 66.7423C693.615 66.2409 693.753 65.6703 693.753 65.0303C693.753 64.3903 693.615 63.8196 693.337 63.3183C693.071 62.8169 692.697 62.4329 692.217 62.1663C691.748 61.8889 691.22 61.7503 690.633 61.7503C690.036 61.7503 689.497 61.8889 689.017 62.1663C688.548 62.4329 688.175 62.8169 687.897 63.3183C687.631 63.8196 687.497 64.3903 687.497 65.0303C687.497 65.6703 687.631 66.2409 687.897 66.7423C688.175 67.2436 688.548 67.6329 689.017 67.9103C689.497 68.1769 690.036 68.3103 690.633 68.3103ZM697.861 58.0383H699.205L698.965 65.8783H698.085L697.861 58.0383ZM698.533 69.3183C698.298 69.3183 698.096 69.2383 697.925 69.0783C697.765 68.9076 697.685 68.7103 697.685 68.4863C697.685 68.2516 697.765 68.0596 697.925 67.9103C698.085 67.7503 698.288 67.6703 698.533 67.6703C698.768 67.6703 698.965 67.7503 699.125 67.9103C699.285 68.0596 699.365 68.2516 699.365 68.4863C699.365 68.7103 699.285 68.9076 699.125 69.0783C698.965 69.2383 698.768 69.3183 698.533 69.3183Z" fill="#302C60"/>
<path fill-rule="evenodd" clip-rule="evenodd" d="M928.051 72.486H940V22.2891H880.191V72.486H916.618L928.052 84.6458L928.051 72.486ZM925.899 79.2154L925.899 70.3339H937.848V24.4411H882.343V70.3339H917.548L925.899 79.2154Z" fill="#302C60"/>
<path d="M910.145 39.8828C911.157 39.8828 912.04 40.0358 912.793 40.3417C913.558 40.6337 914.149 41.0647 914.564 41.6348C914.993 42.191 915.207 42.8585 915.207 43.6372C915.207 44.4158 914.98 45.1111 914.525 45.7229C914.084 46.3347 913.461 46.8562 912.656 47.2872C911.852 47.7044 910.917 48.0311 909.853 48.2675V51.3127H909.463V48.0798C910.112 47.7322 910.593 47.3498 910.904 46.9327C911.229 46.5155 911.443 46.0636 911.547 45.5769C911.663 45.0902 911.722 44.5758 911.722 44.0335C911.722 42.7125 911.521 41.76 911.118 41.176C910.716 40.592 910.197 40.3 909.561 40.3C909.184 40.3 908.86 40.3417 908.587 40.4251C908.328 40.4946 908.14 40.585 908.023 40.6963C908.438 40.8631 908.75 41.0925 908.957 41.3846C909.178 41.6766 909.288 42.0589 909.288 42.5317C909.288 43.0184 909.12 43.4355 908.782 43.7832C908.445 44.1169 907.99 44.2837 907.419 44.2837C906.939 44.2837 906.55 44.1169 906.251 43.7832C905.966 43.4355 905.823 43.0462 905.823 42.6151C905.823 42.1007 905.94 41.6905 906.173 41.3846C906.42 41.0786 906.718 40.8214 907.069 40.6128C907.406 40.4182 907.835 40.2513 908.354 40.1122C908.873 39.9593 909.47 39.8828 910.145 39.8828ZM909.697 52.8979C910.307 52.8979 910.781 53.0509 911.118 53.3568C911.456 53.6488 911.625 54.0937 911.625 54.6916C911.625 55.2896 911.456 55.7415 911.118 56.0474C910.781 56.3394 910.307 56.4854 909.697 56.4854C909.074 56.4854 908.594 56.3394 908.256 56.0474C907.932 55.7415 907.77 55.2896 907.77 54.6916C907.77 54.0937 907.932 53.6488 908.256 53.3568C908.594 53.0509 909.074 52.8979 909.697 52.8979Z" fill="#302C60"/>
<path d="M894.874 41.9027C895.686 40.4165 896.383 38.853 897.331 37.459C899.848 33.7616 903.328 31.3619 907.768 30.551C912.563 29.6754 916.89 30.8563 920.677 33.9059C923.219 35.9523 924.985 38.5568 926.088 41.6083C926.194 41.9031 926.33 42.0025 926.651 42.006C929.397 42.0365 931.45 44.121 931.453 46.8585C931.455 48.5258 931.458 50.193 931.452 51.8601C931.444 54.4334 929.302 56.6327 926.721 56.5435C925.524 56.5021 924.878 56.8414 924.217 57.8878C921.745 61.7978 918.198 64.2981 913.607 65.2347C912.894 65.3801 912.16 65.4253 911.435 65.5038C910.946 65.5567 910.519 65.4098 910.425 64.9852C910.326 64.532 910.693 64.177 911.16 64.1516C916.448 63.864 920.372 61.3095 923.229 56.9797C923.278 56.9057 923.325 56.8303 923.368 56.7527C923.383 56.724 923.384 56.6875 923.41 56.575C922.782 56.575 922.171 56.562 921.56 56.5792C921.062 56.593 920.851 56.3835 920.852 55.8836C920.86 51.4849 920.86 47.0863 920.852 42.6877C920.851 42.1867 921.066 41.9857 921.563 41.9928C922.596 42.0076 923.63 41.9974 924.776 41.9974C923.737 39.1718 922.114 36.843 919.835 34.97C917.55 33.0923 914.928 31.9555 911.974 31.6917C904.034 30.9824 898.293 36.6255 896.534 41.9973C897.527 41.9973 898.497 41.997 899.468 41.9974C900.342 41.9976 900.403 42.0586 900.403 42.9389C900.403 47.1955 900.403 51.4523 900.402 55.709C900.402 56.4827 900.312 56.5746 899.554 56.5749C897.877 56.5759 896.199 56.5808 894.522 56.5738C891.967 56.5632 889.819 54.4325 889.807 51.8964C889.8 50.2116 889.803 48.5267 889.807 46.8418C889.812 44.109 891.883 42.029 894.625 41.9976C894.674 41.9971 894.725 42.005 894.772 41.9905C894.816 41.977 894.846 41.9361 894.874 41.9027ZM899.012 43.3808C898.886 43.3658 898.817 43.3505 898.747 43.3507C897.303 43.3531 895.858 43.3284 894.415 43.3686C892.655 43.4176 891.214 44.8719 891.184 46.6269C891.155 48.399 891.154 50.1715 891.182 51.9436C891.208 53.6939 892.65 55.1562 894.411 55.2064C895.872 55.2482 897.334 55.2193 898.796 55.2189C898.862 55.2189 898.928 55.1911 899.012 55.1721V43.3808ZM922.238 55.216C923.797 55.216 925.308 55.247 926.817 55.208C928.611 55.1616 930.054 53.7001 930.079 51.9213C930.104 50.1671 930.105 48.4119 930.077 46.6577C930.049 44.8698 928.614 43.4168 926.822 43.3675C925.397 43.3282 923.969 43.3515 922.543 43.3515C922.444 43.3515 922.346 43.3895 922.238 43.4118V55.216Z" fill="#302C60"/>
<defs>
<filter id="filter0_d_333_3049" x="0.326087" y="0" width="989.348" height="106.348" filterUnits="userSpaceOnUse" color-interpolation-filters="sRGB">
<feFlood flood-opacity="0" result="BackgroundImageFix"/>
<feColorMatrix in="SourceAlpha" type="matrix" values="0 0 0 0 0 0 0 0 0 0 0 0 0 0 0 0 0 0 127 0" result="hardAlpha"/>
<feOffset dy="2.67391"/>
<feGaussianBlur stdDeviation="1.33696"/>
<feColorMatrix type="matrix" values="0 0 0 0 0 0 0 0 0 0 0 0 0 0 0 0 0 0 0.1 0"/>
<feBlend mode="normal" in2="BackgroundImageFix" result="effect1_dropShadow_333_3049"/>
<feBlend mode="normal" in="SourceGraphic" in2="effect1_dropShadow_333_3049" result="shape"/>
</filter>
</defs>
</svg>
