<svg width="220" height="156" viewBox="0 0 220 156" fill="none" xmlns="http://www.w3.org/2000/svg">
<g filter="url(#filter0_d_271_1799)">
<rect x="2.41064" width="215.384" height="151.861" rx="14.1994" fill="#E0E7F5"/>
</g>
<path d="M37.5466 25.609V25.989C37.1666 26.0524 36.8752 26.1727 36.6726 26.35C36.4699 26.5274 36.3306 26.7997 36.2546 27.167C36.1912 27.5344 36.1596 28.0537 36.1596 28.725V39.08C35.9949 39.0547 35.8176 39.042 35.6276 39.042C35.4376 39.042 35.2349 39.0547 35.0196 39.08L26.6786 29.257V35.641C26.6786 36.4137 26.7166 37.009 26.7926 37.427C26.8686 37.8324 27.0396 38.1237 27.3056 38.301C27.5716 38.4784 27.9896 38.605 28.5596 38.681V39.061C28.3189 39.0357 27.9959 39.023 27.5906 39.023C27.1979 39.0104 26.8242 39.004 26.4696 39.004C26.1909 39.004 25.8996 39.0104 25.5956 39.023C25.3042 39.023 25.0572 39.0357 24.8546 39.061V38.681C25.2599 38.605 25.5576 38.4847 25.7476 38.32C25.9502 38.1427 26.0832 37.8704 26.1466 37.503C26.2099 37.123 26.2416 36.6037 26.2416 35.945V27.623C26.2416 27.1544 26.2099 26.8124 26.1466 26.597C26.0832 26.369 25.9502 26.217 25.7476 26.141C25.5449 26.0524 25.2472 26.0017 24.8546 25.989V25.609C25.0572 25.6217 25.3042 25.6344 25.5956 25.647C25.8996 25.6597 26.1909 25.666 26.4696 25.666C26.7862 25.666 27.0902 25.6597 27.3816 25.647C27.6729 25.6344 27.9389 25.6217 28.1796 25.609L35.7226 34.235V29.029C35.7226 28.2564 35.6846 27.6674 35.6086 27.262C35.5452 26.844 35.3806 26.5464 35.1146 26.369C34.8612 26.179 34.4369 26.0524 33.8416 25.989V25.609C34.0949 25.6217 34.4179 25.6344 34.8106 25.647C35.2159 25.6597 35.5896 25.666 35.9316 25.666C36.2356 25.666 36.5332 25.6597 36.8246 25.647C37.1159 25.6344 37.3566 25.6217 37.5466 25.609ZM43.0952 28.953C44.0452 28.953 44.8748 29.124 45.5842 29.466C46.3062 29.7954 46.8635 30.34 47.2562 31.1C47.6615 31.86 47.8642 32.8734 47.8642 34.14C47.8642 35.4067 47.6615 36.42 47.2562 37.18C46.8635 37.94 46.3062 38.491 45.5842 38.833C44.8748 39.1624 44.0452 39.327 43.0952 39.327C42.1578 39.327 41.3282 39.1624 40.6062 38.833C39.8968 38.491 39.3395 37.94 38.9342 37.18C38.5288 36.42 38.3262 35.4067 38.3262 34.14C38.3262 32.8734 38.5288 31.86 38.9342 31.1C39.3395 30.34 39.8968 29.7954 40.6062 29.466C41.3282 29.124 42.1578 28.953 43.0952 28.953ZM43.0952 29.333C42.6518 29.333 42.2782 29.713 41.9742 30.473C41.6828 31.2204 41.5372 32.4427 41.5372 34.14C41.5372 35.8374 41.6828 37.066 41.9742 37.826C42.2782 38.5734 42.6518 38.947 43.0952 38.947C43.5512 38.947 43.9248 38.5734 44.2162 37.826C44.5075 37.066 44.6532 35.8374 44.6532 34.14C44.6532 32.4427 44.5075 31.2204 44.2162 30.473C43.9248 29.713 43.5512 29.333 43.0952 29.333ZM58.5101 24.203V36.971C58.5101 37.541 58.5924 37.9654 58.7571 38.244C58.9344 38.51 59.2321 38.643 59.6501 38.643V39.042C59.2574 39.004 58.8648 38.985 58.4721 38.985C57.9021 38.985 57.3638 39.004 56.8571 39.042C56.3504 39.08 55.8754 39.1497 55.4321 39.251V26.483C55.4321 25.913 55.3498 25.495 55.1851 25.229C55.0331 24.9504 54.7354 24.811 54.2921 24.811V24.412C54.6974 24.45 55.0901 24.469 55.4701 24.469C56.0528 24.469 56.5974 24.45 57.1041 24.412C57.6108 24.3614 58.0794 24.2917 58.5101 24.203ZM53.3991 28.953C53.9564 28.953 54.4378 29.0354 54.8431 29.2C55.2484 29.352 55.5841 29.6117 55.8501 29.979L55.6221 30.169C55.4574 29.9537 55.2548 29.7954 55.0141 29.694C54.7861 29.5927 54.5454 29.542 54.2921 29.542C53.6841 29.542 53.2091 29.922 52.8671 30.682C52.5378 31.4294 52.3731 32.582 52.3731 34.14C52.3731 35.2294 52.4364 36.0907 52.5631 36.724C52.7024 37.3447 52.8861 37.7817 53.1141 38.035C53.3548 38.2884 53.6208 38.415 53.9121 38.415C54.3048 38.415 54.6531 38.2694 54.9571 37.978C55.2738 37.674 55.4384 37.275 55.4511 36.781L55.5081 37.579C55.2801 38.1617 54.9634 38.5987 54.5581 38.89C54.1654 39.1814 53.6588 39.327 53.0381 39.327C52.3034 39.327 51.6384 39.1434 51.0431 38.776C50.4604 38.4087 49.9981 37.845 49.6561 37.085C49.3268 36.3124 49.1621 35.3117 49.1621 34.083C49.1621 32.9304 49.3394 31.9804 49.6941 31.233C50.0614 30.473 50.5618 29.903 51.1951 29.523C51.8411 29.143 52.5758 28.953 53.3991 28.953ZM65.3794 28.953C66.494 28.953 67.368 29.2824 68.0014 29.941C68.6347 30.5997 68.9514 31.6827 68.9514 33.19H62.8524L62.8334 32.829H66.3674C66.3927 32.2084 66.3674 31.6384 66.2914 31.119C66.2154 30.587 66.0887 30.1627 65.9114 29.846C65.7467 29.5294 65.525 29.371 65.2464 29.371C64.8664 29.371 64.5434 29.6434 64.2774 30.188C64.0114 30.7327 63.8467 31.6574 63.7834 32.962L63.8594 33.095C63.834 33.2344 63.8214 33.38 63.8214 33.532C63.8214 33.6714 63.8214 33.8234 63.8214 33.988C63.8214 34.862 63.9354 35.5587 64.1634 36.078C64.404 36.5974 64.7017 36.9647 65.0564 37.18C65.411 37.3954 65.7784 37.503 66.1584 37.503C66.3737 37.503 66.6144 37.4714 66.8804 37.408C67.1464 37.3447 67.425 37.2117 67.7164 37.009C68.0077 36.8064 68.2864 36.5087 68.5524 36.116L68.8754 36.23C68.736 36.724 68.4954 37.2117 68.1534 37.693C67.824 38.1617 67.3997 38.5544 66.8804 38.871C66.361 39.175 65.734 39.327 64.9994 39.327C64.1634 39.327 63.416 39.156 62.7574 38.814C62.0987 38.4594 61.573 37.9084 61.1804 37.161C60.8004 36.401 60.6104 35.413 60.6104 34.197C60.6104 32.9937 60.8194 32.0057 61.2374 31.233C61.6554 30.4604 62.2254 29.8904 62.9474 29.523C63.6694 29.143 64.48 28.953 65.3794 28.953ZM31.9416 45.343C33.3349 45.343 34.5509 45.6154 35.5896 46.16C36.6282 46.7047 37.4326 47.49 38.0026 48.516C38.5852 49.5294 38.8766 50.7644 38.8766 52.221C38.8766 53.6397 38.5789 54.881 37.9836 55.945C37.4009 57.009 36.5839 57.8387 35.5326 58.434C34.4812 59.0294 33.2779 59.327 31.9226 59.327C30.5419 59.327 29.3259 59.0547 28.2746 58.51C27.2359 57.9654 26.4252 57.18 25.8426 56.154C25.2726 55.128 24.9876 53.893 24.9876 52.449C24.9876 51.0304 25.2852 49.789 25.8806 48.725C26.4886 47.661 27.3119 46.8314 28.3506 46.236C29.3892 45.6407 30.5862 45.343 31.9416 45.343ZM31.8656 45.685C31.1942 45.685 30.6116 45.97 30.1176 46.54C29.6236 47.11 29.2372 47.8954 28.9586 48.896C28.6926 49.8967 28.5596 51.0557 28.5596 52.373C28.5596 53.7157 28.7116 54.8874 29.0156 55.888C29.3322 56.876 29.7502 57.6424 30.2696 58.187C30.7889 58.719 31.3652 58.985 31.9986 58.985C32.6699 58.985 33.2526 58.7 33.7466 58.13C34.2532 57.56 34.6396 56.7747 34.9056 55.774C35.1716 54.7607 35.3046 53.6017 35.3046 52.297C35.3046 50.9417 35.1526 49.77 34.8486 48.782C34.5446 47.794 34.1266 47.034 33.5946 46.502C33.0752 45.9574 32.4989 45.685 31.8656 45.685ZM44.2074 49.029V60.581C44.2074 61.189 44.3531 61.5944 44.6444 61.797C44.9484 61.9997 45.3601 62.101 45.8794 62.101V62.5C45.5374 62.4874 45.0624 62.4684 44.4544 62.443C43.8464 62.4304 43.2068 62.424 42.5354 62.424C42.0541 62.424 41.5728 62.4304 41.0914 62.443C40.6228 62.4684 40.2681 62.4874 40.0274 62.5V62.101C40.4328 62.101 40.7178 62.006 40.8824 61.816C41.0471 61.6387 41.1294 61.2904 41.1294 60.771V51.309C41.1294 50.739 41.0471 50.321 40.8824 50.055C40.7178 49.7764 40.4201 49.637 39.9894 49.637V49.238C40.3948 49.276 40.7874 49.295 41.1674 49.295C41.7501 49.295 42.2948 49.276 42.8014 49.238C43.3081 49.1874 43.7768 49.1177 44.2074 49.029ZM47.1144 48.953C47.7604 48.953 48.3304 49.1304 48.8244 49.485C49.3311 49.827 49.7301 50.3527 50.0214 51.062C50.3254 51.7587 50.4774 52.639 50.4774 53.703C50.4774 54.7037 50.3634 55.5587 50.1354 56.268C49.9201 56.9774 49.6098 57.56 49.2044 58.016C48.8118 58.472 48.3431 58.8077 47.7984 59.023C47.2664 59.2257 46.6901 59.327 46.0694 59.327C45.6008 59.327 45.1638 59.2574 44.7584 59.118C44.3658 58.9914 44.0554 58.7824 43.8274 58.491L44.0174 58.244C44.1314 58.4214 44.2898 58.5544 44.4924 58.643C44.6951 58.7317 44.9104 58.776 45.1384 58.776C45.6578 58.776 46.0694 58.5987 46.3734 58.244C46.6901 57.8767 46.9181 57.3447 47.0574 56.648C47.1968 55.9514 47.2664 55.1027 47.2664 54.102C47.2664 53 47.2031 52.145 47.0764 51.537C46.9498 50.9164 46.7788 50.4794 46.5634 50.226C46.3481 49.9727 46.0948 49.846 45.8034 49.846C45.3981 49.846 45.0308 50.0044 44.7014 50.321C44.3848 50.625 44.2074 51.043 44.1694 51.575L44.1314 50.777C44.3974 50.169 44.7901 49.713 45.3094 49.409C45.8288 49.105 46.4304 48.953 47.1144 48.953ZM56.5659 48.953C57.6805 48.953 58.5545 49.2824 59.1879 49.941C59.8212 50.5997 60.1379 51.6827 60.1379 53.19H54.0389L54.0199 52.829H57.5539C57.5792 52.2084 57.5539 51.6384 57.4779 51.119C57.4019 50.587 57.2752 50.1627 57.0979 49.846C56.9332 49.5294 56.7115 49.371 56.4329 49.371C56.0529 49.371 55.7299 49.6434 55.4639 50.188C55.1979 50.7327 55.0332 51.6574 54.9699 52.962L55.0459 53.095C55.0205 53.2344 55.0079 53.38 55.0079 53.532C55.0079 53.6714 55.0079 53.8234 55.0079 53.988C55.0079 54.862 55.1219 55.5587 55.3499 56.078C55.5905 56.5974 55.8882 56.9647 56.2429 57.18C56.5975 57.3954 56.9649 57.503 57.3449 57.503C57.5602 57.503 57.8009 57.4714 58.0669 57.408C58.3329 57.3447 58.6115 57.2117 58.9029 57.009C59.1942 56.8064 59.4729 56.5087 59.7389 56.116L60.0619 56.23C59.9225 56.724 59.6819 57.2117 59.3399 57.693C59.0105 58.1617 58.5862 58.5544 58.0669 58.871C57.5475 59.175 56.9205 59.327 56.1859 59.327C55.3499 59.327 54.6025 59.156 53.9439 58.814C53.2852 58.4594 52.7595 57.9084 52.3669 57.161C51.9869 56.401 51.7969 55.413 51.7969 54.197C51.7969 52.9937 52.0059 52.0057 52.4239 51.233C52.8419 50.4604 53.4119 49.8904 54.1339 49.523C54.8559 49.143 55.6665 48.953 56.5659 48.953ZM67.7397 48.953C68.1703 48.953 68.5123 49.048 68.7657 49.238C69.019 49.4154 69.2027 49.6497 69.3167 49.941C69.4307 50.2197 69.4877 50.4984 69.4877 50.777C69.4877 51.2964 69.3357 51.7144 69.0317 52.031C68.7403 52.3477 68.354 52.506 67.8727 52.506C67.366 52.506 66.9797 52.392 66.7137 52.164C66.4477 51.9234 66.3147 51.6067 66.3147 51.214C66.3147 50.8214 66.397 50.4984 66.5617 50.245C66.739 49.9917 66.9543 49.7764 67.2077 49.599C67.0177 49.5737 66.834 49.599 66.6567 49.675C66.454 49.7257 66.264 49.8207 66.0867 49.96C65.9093 50.0994 65.7573 50.264 65.6307 50.454C65.504 50.644 65.4027 50.853 65.3267 51.081C65.2633 51.2964 65.2317 51.518 65.2317 51.746V57.104C65.2317 57.712 65.3647 58.1237 65.6307 58.339C65.9093 58.5544 66.3463 58.662 66.9417 58.662V59.061C66.6503 59.0484 66.2197 59.0357 65.6497 59.023C65.0797 58.9977 64.4907 58.985 63.8827 58.985C63.338 58.985 62.787 58.9977 62.2297 59.023C61.685 59.0357 61.2797 59.0484 61.0137 59.061V58.662C61.4317 58.662 61.723 58.567 61.8877 58.377C62.065 58.187 62.1537 57.826 62.1537 57.294V51.29C62.1537 50.72 62.0713 50.302 61.9067 50.036C61.742 49.7574 61.4443 49.618 61.0137 49.618V49.219C61.419 49.257 61.8117 49.276 62.1917 49.276C62.7617 49.276 63.3 49.257 63.8067 49.219C64.326 49.1684 64.801 49.0987 65.2317 49.01V50.568C65.3837 50.2387 65.58 49.9537 65.8207 49.713C66.074 49.4724 66.359 49.2887 66.6757 49.162C67.005 49.0227 67.3597 48.953 67.7397 48.953ZM72.5967 59.194C72.014 59.194 71.5327 59.0864 71.1527 58.871C70.7727 58.643 70.494 58.3454 70.3167 57.978C70.1394 57.6107 70.0507 57.218 70.0507 56.8C70.0507 56.268 70.171 55.831 70.4117 55.489C70.665 55.147 70.988 54.8747 71.3807 54.672C71.7734 54.4567 72.185 54.2794 72.6157 54.14C73.0464 54.0007 73.458 53.8677 73.8507 53.741C74.2434 53.6017 74.56 53.4434 74.8007 53.266C75.0414 53.076 75.1617 52.8354 75.1617 52.544V50.967C75.1617 50.6884 75.1174 50.4287 75.0287 50.188C74.9527 49.9347 74.807 49.732 74.5917 49.58C74.389 49.4154 74.104 49.333 73.7367 49.333C73.5087 49.333 73.287 49.3647 73.0717 49.428C72.8564 49.4914 72.6664 49.5927 72.5017 49.732C72.907 49.8714 73.2047 50.0804 73.3947 50.359C73.5974 50.6377 73.6987 50.948 73.6987 51.29C73.6987 51.7587 73.534 52.1324 73.2047 52.411C72.888 52.677 72.508 52.81 72.0647 52.81C71.5834 52.81 71.2097 52.658 70.9437 52.354C70.6904 52.05 70.5637 51.6827 70.5637 51.252C70.5637 50.872 70.6587 50.5554 70.8487 50.302C71.0387 50.036 71.3174 49.7954 71.6847 49.58C72.052 49.3647 72.4954 49.2064 73.0147 49.105C73.534 49.0037 74.085 48.953 74.6677 48.953C75.263 48.953 75.8077 49.0164 76.3017 49.143C76.8084 49.257 77.239 49.4914 77.5937 49.846C77.8724 50.1374 78.0497 50.492 78.1257 50.91C78.2017 51.328 78.2397 51.86 78.2397 52.506V57.636C78.2397 57.9527 78.265 58.1744 78.3157 58.301C78.379 58.415 78.474 58.472 78.6007 58.472C78.7147 58.472 78.8224 58.4404 78.9237 58.377C79.025 58.3137 79.1264 58.244 79.2277 58.168L79.4367 58.491C79.158 58.719 78.8287 58.8964 78.4487 59.023C78.0687 59.137 77.657 59.194 77.2137 59.194C76.707 59.194 76.308 59.1307 76.0167 59.004C75.738 58.8647 75.5354 58.681 75.4087 58.453C75.2947 58.225 75.2314 57.9717 75.2187 57.693C74.94 58.149 74.5917 58.5164 74.1737 58.795C73.7557 59.061 73.23 59.194 72.5967 59.194ZM74.1737 57.826C74.3764 57.826 74.5537 57.788 74.7057 57.712C74.8704 57.6234 75.0224 57.4777 75.1617 57.275V53.323C75.0604 53.5004 74.921 53.6714 74.7437 53.836C74.579 53.988 74.4017 54.1464 74.2117 54.311C74.0217 54.463 73.838 54.634 73.6607 54.824C73.496 55.014 73.3567 55.242 73.2427 55.508C73.1414 55.7614 73.0907 56.0717 73.0907 56.439C73.0907 56.933 73.192 57.2877 73.3947 57.503C73.5974 57.7184 73.857 57.826 74.1737 57.826ZM84.0996 46.122V49.219H86.1516V49.599H84.0996V57.37C84.0996 57.6867 84.1566 57.9147 84.2706 58.054C84.3846 58.1807 84.5556 58.244 84.7836 58.244C84.9736 58.244 85.1699 58.1807 85.3726 58.054C85.5879 57.9274 85.7842 57.712 85.9616 57.408L86.2656 57.598C86.0249 58.1174 85.6892 58.5354 85.2586 58.852C84.8406 59.1687 84.2896 59.327 83.6056 59.327C83.1876 59.327 82.8139 59.27 82.4846 59.156C82.1679 59.0547 81.9019 58.8964 81.6866 58.681C81.4079 58.4024 81.2242 58.0604 81.1356 57.655C81.0596 57.237 81.0216 56.6987 81.0216 56.04V49.599H79.5016V49.219H81.0216V46.844C81.6169 46.844 82.1616 46.787 82.6556 46.673C83.1622 46.559 83.6436 46.3754 84.0996 46.122ZM89.1837 44.26C89.779 44.26 90.2414 44.393 90.5707 44.659C90.9127 44.925 91.0837 45.3114 91.0837 45.818C91.0837 46.3247 90.9127 46.711 90.5707 46.977C90.2414 47.243 89.779 47.376 89.1837 47.376C88.5884 47.376 88.1197 47.243 87.7777 46.977C87.4484 46.711 87.2837 46.3247 87.2837 45.818C87.2837 45.3114 87.4484 44.925 87.7777 44.659C88.1197 44.393 88.5884 44.26 89.1837 44.26ZM90.8557 49.01V57.294C90.8557 57.826 90.938 58.187 91.1027 58.377C91.28 58.567 91.5777 58.662 91.9957 58.662V59.061C91.7424 59.0484 91.3687 59.0357 90.8747 59.023C90.3807 58.9977 89.8804 58.985 89.3737 58.985C88.867 58.985 88.3477 58.9977 87.8157 59.023C87.2964 59.0357 86.9037 59.0484 86.6377 59.061V58.662C87.0557 58.662 87.347 58.567 87.5117 58.377C87.689 58.187 87.7777 57.826 87.7777 57.294V51.29C87.7777 50.72 87.6954 50.302 87.5307 50.036C87.366 49.7574 87.0684 49.618 86.6377 49.618V49.219C87.043 49.257 87.4357 49.276 87.8157 49.276C88.3857 49.276 88.924 49.257 89.4307 49.219C89.95 49.1684 90.425 49.0987 90.8557 49.01ZM97.7573 48.953C98.7073 48.953 99.537 49.124 100.246 49.466C100.968 49.7954 101.526 50.34 101.918 51.1C102.324 51.86 102.526 52.8734 102.526 54.14C102.526 55.4067 102.324 56.42 101.918 57.18C101.526 57.94 100.968 58.491 100.246 58.833C99.537 59.1624 98.7073 59.327 97.7573 59.327C96.82 59.327 95.9903 59.1624 95.2683 58.833C94.559 58.491 94.0016 57.94 93.5963 57.18C93.191 56.42 92.9883 55.4067 92.9883 54.14C92.9883 52.8734 93.191 51.86 93.5963 51.1C94.0016 50.34 94.559 49.7954 95.2683 49.466C95.9903 49.124 96.82 48.953 97.7573 48.953ZM97.7573 49.333C97.314 49.333 96.9403 49.713 96.6363 50.473C96.345 51.2204 96.1993 52.4427 96.1993 54.14C96.1993 55.8374 96.345 57.066 96.6363 57.826C96.9403 58.5734 97.314 58.947 97.7573 58.947C98.2133 58.947 98.587 58.5734 98.8783 57.826C99.1696 57.066 99.3153 55.8374 99.3153 54.14C99.3153 52.4427 99.1696 51.2204 98.8783 50.473C98.587 49.713 98.2133 49.333 97.7573 49.333ZM110.892 48.953C111.45 48.953 111.893 49.0227 112.222 49.162C112.564 49.3014 112.824 49.4787 113.001 49.694C113.204 49.9347 113.35 50.245 113.438 50.625C113.54 51.005 113.59 51.518 113.59 52.164V57.294C113.59 57.826 113.673 58.187 113.837 58.377C114.015 58.567 114.312 58.662 114.73 58.662V59.061C114.477 59.0484 114.097 59.0357 113.59 59.023C113.096 58.9977 112.615 58.985 112.146 58.985C111.627 58.985 111.127 58.9977 110.645 59.023C110.164 59.0357 109.803 59.0484 109.562 59.061V58.662C109.917 58.662 110.164 58.567 110.303 58.377C110.443 58.187 110.512 57.826 110.512 57.294V51.252C110.512 50.9607 110.481 50.7137 110.417 50.511C110.354 50.2957 110.246 50.1374 110.094 50.036C109.942 49.922 109.727 49.865 109.448 49.865C109.157 49.865 108.885 49.941 108.631 50.093C108.391 50.245 108.194 50.4604 108.042 50.739C107.903 51.005 107.833 51.309 107.833 51.651V57.294C107.833 57.826 107.903 58.187 108.042 58.377C108.182 58.567 108.429 58.662 108.783 58.662V59.061C108.543 59.0484 108.194 59.0357 107.738 59.023C107.282 58.9977 106.82 58.985 106.351 58.985C105.832 58.985 105.313 58.9977 104.793 59.023C104.274 59.0357 103.881 59.0484 103.615 59.061V58.662C104.033 58.662 104.325 58.567 104.489 58.377C104.667 58.187 104.755 57.826 104.755 57.294V51.29C104.755 50.72 104.673 50.302 104.508 50.036C104.344 49.7574 104.046 49.618 103.615 49.618V49.219C104.021 49.257 104.413 49.276 104.793 49.276C105.363 49.276 105.902 49.257 106.408 49.219C106.928 49.1684 107.403 49.0987 107.833 49.01V50.549C108.137 49.9664 108.549 49.5547 109.068 49.314C109.6 49.0734 110.208 48.953 110.892 48.953ZM119.236 48.953C119.793 48.953 120.275 49.0164 120.68 49.143C121.085 49.2697 121.383 49.39 121.573 49.504C122.016 49.7827 122.282 49.6054 122.371 48.972H122.77C122.745 49.3394 122.726 49.7827 122.713 50.302C122.7 50.8087 122.694 51.4927 122.694 52.354H122.295C122.244 51.8854 122.13 51.423 121.953 50.967C121.788 50.511 121.541 50.1374 121.212 49.846C120.883 49.542 120.452 49.39 119.92 49.39C119.578 49.39 119.287 49.4914 119.046 49.694C118.818 49.8967 118.704 50.1754 118.704 50.53C118.704 50.91 118.818 51.2457 119.046 51.537C119.274 51.8284 119.565 52.107 119.92 52.373C120.287 52.639 120.655 52.924 121.022 53.228C121.427 53.532 121.788 53.8424 122.105 54.159C122.434 54.463 122.694 54.7987 122.884 55.166C123.087 55.5207 123.188 55.9514 123.188 56.458C123.188 57.028 123.017 57.5284 122.675 57.959C122.333 58.3897 121.883 58.7254 121.326 58.966C120.769 59.2067 120.148 59.327 119.464 59.327C119.046 59.327 118.679 59.2827 118.362 59.194C118.058 59.118 117.805 59.0167 117.602 58.89C117.412 58.8014 117.241 58.7254 117.089 58.662C116.95 58.5987 116.81 58.5544 116.671 58.529C116.544 58.5164 116.437 58.5734 116.348 58.7C116.259 58.8267 116.19 58.9914 116.139 59.194H115.74C115.765 58.7887 115.784 58.2947 115.797 57.712C115.81 57.1294 115.816 56.3567 115.816 55.394H116.215C116.291 56.078 116.43 56.6797 116.633 57.199C116.848 57.7184 117.133 58.13 117.488 58.434C117.843 58.7254 118.261 58.871 118.742 58.871C118.957 58.871 119.154 58.833 119.331 58.757C119.521 58.6684 119.673 58.5354 119.787 58.358C119.914 58.1807 119.977 57.9527 119.977 57.674C119.977 57.1167 119.8 56.6544 119.445 56.287C119.09 55.907 118.653 55.4954 118.134 55.052C117.729 54.71 117.349 54.3744 116.994 54.045C116.652 53.7157 116.367 53.3547 116.139 52.962C115.924 52.5694 115.816 52.126 115.816 51.632C115.816 51.062 115.974 50.5807 116.291 50.188C116.62 49.7827 117.045 49.4787 117.564 49.276C118.083 49.0607 118.641 48.953 119.236 48.953Z" fill="#302C60"/>
<path d="M27.6236 100.388C27.0516 100.388 26.5016 100.297 25.9736 100.113C25.4529 99.9299 25.0496 99.6879 24.7636 99.3873L25.0826 98.7603C25.3612 99.0389 25.7316 99.2663 26.1936 99.4423C26.6556 99.6109 27.1322 99.6953 27.6236 99.6953C28.3129 99.6953 28.8299 99.5706 29.1746 99.3213C29.5192 99.0646 29.6916 98.7346 29.6916 98.3313C29.6916 98.0233 29.5962 97.7776 29.4056 97.5943C29.2222 97.4109 28.9949 97.2716 28.7236 97.1763C28.4522 97.0736 28.0746 96.9636 27.5906 96.8463C27.0112 96.6996 26.5492 96.5603 26.2046 96.4283C25.8599 96.2889 25.5629 96.0799 25.3136 95.8013C25.0716 95.5226 24.9506 95.1449 24.9506 94.6683C24.9506 94.2796 25.0532 93.9276 25.2586 93.6123C25.4639 93.2896 25.7792 93.0329 26.2046 92.8423C26.6299 92.6516 27.1579 92.5563 27.7886 92.5563C28.2286 92.5563 28.6576 92.6186 29.0756 92.7433C29.5009 92.8606 29.8676 93.0256 30.1756 93.2383L29.9006 93.8873C29.5779 93.6746 29.2332 93.5169 28.8666 93.4143C28.4999 93.3043 28.1406 93.2493 27.7886 93.2493C27.1139 93.2493 26.6042 93.3813 26.2596 93.6453C25.9222 93.9019 25.7536 94.2356 25.7536 94.6463C25.7536 94.9543 25.8452 95.2036 26.0286 95.3943C26.2192 95.5776 26.4539 95.7206 26.7326 95.8233C27.0186 95.9186 27.3999 96.0249 27.8766 96.1423C28.4412 96.2816 28.8959 96.4209 29.2406 96.5603C29.5926 96.6923 29.8896 96.8976 30.1316 97.1763C30.3736 97.4476 30.4946 97.8179 30.4946 98.2873C30.4946 98.6759 30.3882 99.0316 30.1756 99.3543C29.9702 99.6696 29.6512 99.9226 29.2186 100.113C28.7859 100.297 28.2542 100.388 27.6236 100.388ZM35.1502 99.9703C35.0035 100.102 34.8202 100.205 34.6002 100.278C34.3875 100.344 34.1638 100.377 33.9292 100.377C33.3865 100.377 32.9685 100.231 32.6752 99.9373C32.3818 99.6439 32.2352 99.2296 32.2352 98.6943V95.1963H31.2012V94.5363H32.2352V93.2713H33.0162V94.5363H34.7762V95.1963H33.0162V98.6503C33.0162 98.9949 33.1005 99.2589 33.2692 99.4423C33.4452 99.6183 33.6945 99.7063 34.0172 99.7063C34.1785 99.7063 34.3325 99.6806 34.4792 99.6293C34.6332 99.5779 34.7652 99.5046 34.8752 99.4093L35.1502 99.9703ZM41.4058 97.6713H36.5658C36.6098 98.2726 36.8408 98.7603 37.2588 99.1343C37.6768 99.5009 38.2048 99.6843 38.8428 99.6843C39.2021 99.6843 39.5321 99.6219 39.8328 99.4973C40.1335 99.3653 40.3938 99.1746 40.6138 98.9253L41.0538 99.4313C40.7971 99.7393 40.4745 99.9739 40.0858 100.135C39.7045 100.297 39.2828 100.377 38.8208 100.377C38.2268 100.377 37.6988 100.253 37.2368 100.003C36.7821 99.7466 36.4265 99.3946 36.1698 98.9473C35.9131 98.4999 35.7848 97.9939 35.7848 97.4293C35.7848 96.8646 35.9058 96.3586 36.1478 95.9113C36.3971 95.4639 36.7345 95.1156 37.1598 94.8663C37.5925 94.6169 38.0765 94.4923 38.6118 94.4923C39.1471 94.4923 39.6275 94.6169 40.0528 94.8663C40.4781 95.1156 40.8118 95.4639 41.0538 95.9113C41.2958 96.3513 41.4168 96.8573 41.4168 97.4293L41.4058 97.6713ZM38.6118 95.1633C38.0545 95.1633 37.5851 95.3429 37.2038 95.7023C36.8298 96.0543 36.6171 96.5163 36.5658 97.0883H40.6688C40.6175 96.5163 40.4011 96.0543 40.0198 95.7023C39.6458 95.3429 39.1765 95.1633 38.6118 95.1633ZM45.9875 94.4923C46.5301 94.4923 47.0215 94.6169 47.4615 94.8663C47.9015 95.1083 48.2461 95.4529 48.4955 95.9003C48.7448 96.3476 48.8695 96.8573 48.8695 97.4293C48.8695 98.0086 48.7448 98.5219 48.4955 98.9693C48.2461 99.4166 47.9015 99.7649 47.4615 100.014C47.0288 100.256 46.5375 100.377 45.9875 100.377C45.5181 100.377 45.0928 100.282 44.7115 100.091C44.3375 99.8933 44.0295 99.6073 43.7875 99.2333V102.456H43.0065V94.5363H43.7545V95.6803C43.9891 95.2989 44.2971 95.0056 44.6785 94.8003C45.0671 94.5949 45.5035 94.4923 45.9875 94.4923ZM45.9325 99.6843C46.3358 99.6843 46.7025 99.5926 47.0325 99.4093C47.3625 99.2186 47.6191 98.9509 47.8025 98.6063C47.9931 98.2616 48.0885 97.8693 48.0885 97.4293C48.0885 96.9893 47.9931 96.6006 47.8025 96.2633C47.6191 95.9186 47.3625 95.6509 47.0325 95.4603C46.7025 95.2696 46.3358 95.1743 45.9325 95.1743C45.5218 95.1743 45.1515 95.2696 44.8215 95.4603C44.4988 95.6509 44.2421 95.9186 44.0515 96.2633C43.8681 96.6006 43.7765 96.9893 43.7765 97.4293C43.7765 97.8693 43.8681 98.2616 44.0515 98.6063C44.2421 98.9509 44.4988 99.2186 44.8215 99.4093C45.1515 99.5926 45.5218 99.6843 45.9325 99.6843ZM50.14 97.0003H53.022V97.6823H50.14V97.0003ZM57.7502 94.4923C58.2928 94.4923 58.7842 94.6169 59.2242 94.8663C59.6642 95.1083 60.0088 95.4529 60.2582 95.9003C60.5075 96.3476 60.6322 96.8573 60.6322 97.4293C60.6322 98.0013 60.5075 98.5109 60.2582 98.9583C60.0088 99.4056 59.6642 99.7539 59.2242 100.003C58.7842 100.253 58.2928 100.377 57.7502 100.377C57.2662 100.377 56.8298 100.275 56.4412 100.069C56.0598 99.8639 55.7518 99.5669 55.5172 99.1783V100.322H54.7692V92.1603H55.5502V95.6363C55.7922 95.2623 56.1002 94.9799 56.4742 94.7893C56.8555 94.5913 57.2808 94.4923 57.7502 94.4923ZM57.6952 99.6843C58.0985 99.6843 58.4652 99.5926 58.7952 99.4093C59.1252 99.2186 59.3818 98.9509 59.5652 98.6063C59.7558 98.2616 59.8512 97.8693 59.8512 97.4293C59.8512 96.9893 59.7558 96.5969 59.5652 96.2523C59.3818 95.9076 59.1252 95.6436 58.7952 95.4603C58.4652 95.2696 58.0985 95.1743 57.6952 95.1743C57.2845 95.1743 56.9142 95.2696 56.5842 95.4603C56.2615 95.6436 56.0048 95.9076 55.8142 96.2523C55.6308 96.5969 55.5392 96.9893 55.5392 97.4293C55.5392 97.8693 55.6308 98.2616 55.8142 98.6063C56.0048 98.9509 56.2615 99.2186 56.5842 99.4093C56.9142 99.5926 57.2845 99.6843 57.6952 99.6843ZM66.9251 94.5363L64.0321 101.015C63.7975 101.558 63.5261 101.943 63.2181 102.17C62.9101 102.398 62.5398 102.511 62.1071 102.511C61.8285 102.511 61.5681 102.467 61.3261 102.379C61.0841 102.291 60.8751 102.159 60.6991 101.983L61.0621 101.4C61.3555 101.694 61.7075 101.84 62.1181 101.84C62.3821 101.84 62.6058 101.767 62.7891 101.62C62.9798 101.474 63.1558 101.224 63.3171 100.872L63.5701 100.311L60.9851 94.5363H61.7991L63.9771 99.4533L66.1551 94.5363H66.9251ZM67.4671 97.0003H70.3491V97.6823H67.4671V97.0003ZM73.6473 100.377C73.178 100.377 72.727 100.311 72.2943 100.179C71.869 100.04 71.5353 99.8676 71.2933 99.6623L71.6453 99.0463C71.8873 99.2369 72.1917 99.3946 72.5583 99.5193C72.925 99.6366 73.3063 99.6953 73.7023 99.6953C74.2303 99.6953 74.619 99.6146 74.8683 99.4533C75.125 99.2846 75.2533 99.0499 75.2533 98.7493C75.2533 98.5366 75.1837 98.3716 75.0443 98.2543C74.905 98.1296 74.729 98.0379 74.5163 97.9793C74.3037 97.9133 74.0213 97.8509 73.6693 97.7923C73.2 97.7043 72.8223 97.6163 72.5363 97.5283C72.2503 97.4329 72.0047 97.2753 71.7993 97.0553C71.6013 96.8353 71.5023 96.5309 71.5023 96.1423C71.5023 95.6583 71.704 95.2623 72.1073 94.9543C72.5107 94.6463 73.0717 94.4923 73.7903 94.4923C74.1643 94.4923 74.5383 94.5436 74.9123 94.6463C75.2863 94.7416 75.5943 94.8699 75.8363 95.0313L75.4953 95.6583C75.0187 95.3283 74.4503 95.1633 73.7903 95.1633C73.2917 95.1633 72.914 95.2513 72.6573 95.4273C72.408 95.6033 72.2833 95.8343 72.2833 96.1203C72.2833 96.3403 72.353 96.5163 72.4923 96.6483C72.639 96.7803 72.8187 96.8793 73.0313 96.9453C73.244 97.0039 73.5373 97.0663 73.9113 97.1323C74.3733 97.2203 74.7437 97.3083 75.0223 97.3963C75.301 97.4843 75.5393 97.6346 75.7373 97.8473C75.9353 98.0599 76.0343 98.3533 76.0343 98.7273C76.0343 99.2333 75.8217 99.6366 75.3963 99.9373C74.9783 100.231 74.3953 100.377 73.6473 100.377ZM80.5252 99.9703C80.3785 100.102 80.1952 100.205 79.9752 100.278C79.7625 100.344 79.5388 100.377 79.3042 100.377C78.7615 100.377 78.3435 100.231 78.0502 99.9373C77.7568 99.6439 77.6102 99.2296 77.6102 98.6943V95.1963H76.5762V94.5363H77.6102V93.2713H78.3912V94.5363H80.1512V95.1963H78.3912V98.6503C78.3912 98.9949 78.4755 99.2589 78.6442 99.4423C78.8202 99.6183 79.0695 99.7063 79.3922 99.7063C79.5535 99.7063 79.7075 99.6806 79.8542 99.6293C80.0082 99.5779 80.1402 99.5046 80.2502 99.4093L80.5252 99.9703ZM86.7808 97.6713H81.9408C81.9848 98.2726 82.2158 98.7603 82.6338 99.1343C83.0518 99.5009 83.5798 99.6843 84.2178 99.6843C84.5771 99.6843 84.9071 99.6219 85.2078 99.4973C85.5085 99.3653 85.7688 99.1746 85.9888 98.9253L86.4288 99.4313C86.1721 99.7393 85.8495 99.9739 85.4608 100.135C85.0795 100.297 84.6578 100.377 84.1958 100.377C83.6018 100.377 83.0738 100.253 82.6118 100.003C82.1571 99.7466 81.8015 99.3946 81.5448 98.9473C81.2881 98.4999 81.1598 97.9939 81.1598 97.4293C81.1598 96.8646 81.2808 96.3586 81.5228 95.9113C81.7721 95.4639 82.1095 95.1156 82.5348 94.8663C82.9675 94.6169 83.4515 94.4923 83.9868 94.4923C84.5221 94.4923 85.0025 94.6169 85.4278 94.8663C85.8531 95.1156 86.1868 95.4639 86.4288 95.9113C86.6708 96.3513 86.7918 96.8573 86.7918 97.4293L86.7808 97.6713ZM83.9868 95.1633C83.4295 95.1633 82.9601 95.3429 82.5788 95.7023C82.2048 96.0543 81.9921 96.5163 81.9408 97.0883H86.0438C85.9925 96.5163 85.7761 96.0543 85.3948 95.7023C85.0208 95.3429 84.5515 95.1633 83.9868 95.1633ZM91.3625 94.4923C91.9051 94.4923 92.3965 94.6169 92.8365 94.8663C93.2765 95.1083 93.6211 95.4529 93.8705 95.9003C94.1198 96.3476 94.2445 96.8573 94.2445 97.4293C94.2445 98.0086 94.1198 98.5219 93.8705 98.9693C93.6211 99.4166 93.2765 99.7649 92.8365 100.014C92.4038 100.256 91.9125 100.377 91.3625 100.377C90.8931 100.377 90.4678 100.282 90.0865 100.091C89.7125 99.8933 89.4045 99.6073 89.1625 99.2333V102.456H88.3815V94.5363H89.1295V95.6803C89.3641 95.2989 89.6721 95.0056 90.0535 94.8003C90.4421 94.5949 90.8785 94.4923 91.3625 94.4923ZM91.3075 99.6843C91.7108 99.6843 92.0775 99.5926 92.4075 99.4093C92.7375 99.2186 92.9941 98.9509 93.1775 98.6063C93.3681 98.2616 93.4635 97.8693 93.4635 97.4293C93.4635 96.9893 93.3681 96.6006 93.1775 96.2633C92.9941 95.9186 92.7375 95.6509 92.4075 95.4603C92.0775 95.2696 91.7108 95.1743 91.3075 95.1743C90.8968 95.1743 90.5265 95.2696 90.1965 95.4603C89.8738 95.6509 89.6171 95.9186 89.4265 96.2633C89.2431 96.6006 89.1515 96.9893 89.1515 97.4293C89.1515 97.8693 89.2431 98.2616 89.4265 98.6063C89.6171 98.9509 89.8738 99.2186 90.1965 99.4093C90.5265 99.5926 90.8968 99.6843 91.3075 99.6843ZM104.072 94.5363V99.6183C104.072 100.601 103.83 101.327 103.346 101.796C102.87 102.273 102.147 102.511 101.179 102.511C100.644 102.511 100.134 102.431 99.6505 102.269C99.1738 102.115 98.7851 101.899 98.4845 101.62L98.8805 101.026C99.1591 101.276 99.4965 101.47 99.8925 101.609C100.296 101.749 100.717 101.818 101.157 101.818C101.891 101.818 102.43 101.646 102.774 101.301C103.119 100.964 103.291 100.436 103.291 99.7173V98.9803C103.049 99.3469 102.73 99.6256 102.334 99.8163C101.946 100.007 101.513 100.102 101.036 100.102C100.494 100.102 99.9988 99.9849 99.5515 99.7503C99.1115 99.5083 98.7631 99.1746 98.5065 98.7493C98.2571 98.3166 98.1325 97.8289 98.1325 97.2863C98.1325 96.7436 98.2571 96.2596 98.5065 95.8343C98.7631 95.4089 99.1115 95.0789 99.5515 94.8443C99.9915 94.6096 100.486 94.4923 101.036 94.4923C101.528 94.4923 101.971 94.5913 102.367 94.7893C102.763 94.9873 103.082 95.2733 103.324 95.6473V94.5363H104.072ZM101.113 99.4093C101.531 99.4093 101.909 99.3213 102.246 99.1453C102.584 98.9619 102.844 98.7089 103.027 98.3863C103.218 98.0636 103.313 97.6969 103.313 97.2863C103.313 96.8756 103.218 96.5126 103.027 96.1973C102.844 95.8746 102.584 95.6253 102.246 95.4493C101.916 95.2659 101.539 95.1743 101.113 95.1743C100.695 95.1743 100.318 95.2623 99.9805 95.4383C99.6505 95.6143 99.3901 95.8636 99.1995 96.1863C99.0161 96.5089 98.9245 96.8756 98.9245 97.2863C98.9245 97.6969 99.0161 98.0636 99.1995 98.3863C99.3901 98.7089 99.6505 98.9619 99.9805 99.1453C100.318 99.3213 100.695 99.4093 101.113 99.4093ZM111.47 94.5363V100.322H110.722V99.2663C110.517 99.6183 110.235 99.8933 109.875 100.091C109.516 100.282 109.105 100.377 108.643 100.377C107.888 100.377 107.29 100.168 106.85 99.7503C106.418 99.3249 106.201 98.7053 106.201 97.8913V94.5363H106.982V97.8143C106.982 98.4229 107.133 98.8849 107.433 99.2003C107.734 99.5156 108.163 99.6733 108.72 99.6733C109.329 99.6733 109.809 99.4899 110.161 99.1233C110.513 98.7493 110.689 98.2323 110.689 97.5723V94.5363H111.47ZM113.658 94.5363H114.439V100.322H113.658V94.5363ZM114.054 93.2713C113.893 93.2713 113.757 93.2163 113.647 93.1063C113.537 92.9963 113.482 92.8643 113.482 92.7103C113.482 92.5636 113.537 92.4353 113.647 92.3253C113.757 92.2153 113.893 92.1603 114.054 92.1603C114.215 92.1603 114.351 92.2153 114.461 92.3253C114.571 92.4279 114.626 92.5526 114.626 92.6993C114.626 92.8606 114.571 92.9963 114.461 93.1063C114.351 93.2163 114.215 93.2713 114.054 93.2713ZM121.892 92.1603V100.322H121.144V99.1783C120.909 99.5669 120.598 99.8639 120.209 100.069C119.828 100.275 119.395 100.377 118.911 100.377C118.368 100.377 117.877 100.253 117.437 100.003C116.997 99.7539 116.652 99.4056 116.403 98.9583C116.154 98.5109 116.029 98.0013 116.029 97.4293C116.029 96.8573 116.154 96.3476 116.403 95.9003C116.652 95.4529 116.997 95.1083 117.437 94.8663C117.877 94.6169 118.368 94.4923 118.911 94.4923C119.38 94.4923 119.802 94.5913 120.176 94.7893C120.557 94.9799 120.869 95.2623 121.111 95.6363V92.1603H121.892ZM118.977 99.6843C119.38 99.6843 119.743 99.5926 120.066 99.4093C120.396 99.2186 120.653 98.9509 120.836 98.6063C121.027 98.2616 121.122 97.8693 121.122 97.4293C121.122 96.9893 121.027 96.5969 120.836 96.2523C120.653 95.9076 120.396 95.6436 120.066 95.4603C119.743 95.2696 119.38 95.1743 118.977 95.1743C118.566 95.1743 118.196 95.2696 117.866 95.4603C117.543 95.6436 117.287 95.9076 117.096 96.2523C116.913 96.5969 116.821 96.9893 116.821 97.4293C116.821 97.8693 116.913 98.2616 117.096 98.6063C117.287 98.9509 117.543 99.2186 117.866 99.4093C118.196 99.5926 118.566 99.6843 118.977 99.6843ZM129.105 97.6713H124.265C124.309 98.2726 124.54 98.7603 124.958 99.1343C125.376 99.5009 125.904 99.6843 126.542 99.6843C126.901 99.6843 127.231 99.6219 127.532 99.4973C127.833 99.3653 128.093 99.1746 128.313 98.9253L128.753 99.4313C128.496 99.7393 128.174 99.9739 127.785 100.135C127.404 100.297 126.982 100.377 126.52 100.377C125.926 100.377 125.398 100.253 124.936 100.003C124.481 99.7466 124.126 99.3946 123.869 98.9473C123.612 98.4999 123.484 97.9939 123.484 97.4293C123.484 96.8646 123.605 96.3586 123.847 95.9113C124.096 95.4639 124.434 95.1156 124.859 94.8663C125.292 94.6169 125.776 94.4923 126.311 94.4923C126.846 94.4923 127.327 94.6169 127.752 94.8663C128.177 95.1156 128.511 95.4639 128.753 95.9113C128.995 96.3513 129.116 96.8573 129.116 97.4293L129.105 97.6713ZM126.311 95.1633C125.754 95.1633 125.284 95.3429 124.903 95.7023C124.529 96.0543 124.316 96.5163 124.265 97.0883H128.368C128.317 96.5163 128.1 96.0543 127.719 95.7023C127.345 95.3429 126.876 95.1633 126.311 95.1633ZM136.632 99.9703C136.485 100.102 136.302 100.205 136.082 100.278C135.869 100.344 135.645 100.377 135.411 100.377C134.868 100.377 134.45 100.231 134.157 99.9373C133.863 99.6439 133.717 99.2296 133.717 98.6943V95.1963H132.683V94.5363H133.717V93.2713H134.498V94.5363H136.258V95.1963H134.498V98.6503C134.498 98.9949 134.582 99.2589 134.751 99.4423C134.927 99.6183 135.176 99.7063 135.499 99.7063C135.66 99.7063 135.814 99.6806 135.961 99.6293C136.115 99.5779 136.247 99.5046 136.357 99.4093L136.632 99.9703ZM140.214 100.377C139.657 100.377 139.155 100.253 138.707 100.003C138.26 99.7466 137.908 99.3946 137.651 98.9473C137.395 98.4999 137.266 97.9939 137.266 97.4293C137.266 96.8646 137.395 96.3586 137.651 95.9113C137.908 95.4639 138.26 95.1156 138.707 94.8663C139.155 94.6169 139.657 94.4923 140.214 94.4923C140.772 94.4923 141.274 94.6169 141.721 94.8663C142.169 95.1156 142.517 95.4639 142.766 95.9113C143.023 96.3586 143.151 96.8646 143.151 97.4293C143.151 97.9939 143.023 98.4999 142.766 98.9473C142.517 99.3946 142.169 99.7466 141.721 100.003C141.274 100.253 140.772 100.377 140.214 100.377ZM140.214 99.6843C140.625 99.6843 140.992 99.5926 141.314 99.4093C141.644 99.2186 141.901 98.9509 142.084 98.6063C142.268 98.2616 142.359 97.8693 142.359 97.4293C142.359 96.9893 142.268 96.5969 142.084 96.2523C141.901 95.9076 141.644 95.6436 141.314 95.4603C140.992 95.2696 140.625 95.1743 140.214 95.1743C139.804 95.1743 139.433 95.2696 139.103 95.4603C138.781 95.6436 138.524 95.9076 138.333 96.2523C138.15 96.5969 138.058 96.9893 138.058 97.4293C138.058 97.8693 138.15 98.2616 138.333 98.6063C138.524 98.9509 138.781 99.2186 139.103 99.4093C139.433 99.5926 139.804 99.6843 140.214 99.6843ZM148.373 95.6693C148.556 95.2806 148.827 94.9873 149.187 94.7893C149.553 94.5913 150.004 94.4923 150.54 94.4923V95.2513L150.353 95.2403C149.744 95.2403 149.267 95.4273 148.923 95.8013C148.578 96.1753 148.406 96.6996 148.406 97.3743V100.322H147.625V94.5363H148.373V95.6693ZM157.254 94.5363V100.322H156.506V99.2663C156.3 99.6183 156.018 99.8933 155.659 100.091C155.299 100.282 154.889 100.377 154.427 100.377C153.671 100.377 153.074 100.168 152.634 99.7503C152.201 99.3249 151.985 98.7053 151.985 97.8913V94.5363H152.766V97.8143C152.766 98.4229 152.916 98.8849 153.217 99.2003C153.517 99.5156 153.946 99.6733 154.504 99.6733C155.112 99.6733 155.593 99.4899 155.945 99.1233C156.297 98.7493 156.473 98.2323 156.473 97.5723V94.5363H157.254ZM162.389 94.4923C163.115 94.4923 163.691 94.7049 164.116 95.1303C164.549 95.5483 164.765 96.1606 164.765 96.9673V100.322H163.984V97.0443C163.984 96.4429 163.834 95.9846 163.533 95.6693C163.232 95.3539 162.803 95.1963 162.246 95.1963C161.623 95.1963 161.128 95.3833 160.761 95.7573C160.402 96.1239 160.222 96.6336 160.222 97.2863V100.322H159.441V94.5363H160.189V95.6033C160.402 95.2513 160.695 94.9799 161.069 94.7893C161.45 94.5913 161.89 94.4923 162.389 94.4923ZM169.833 94.4923C170.559 94.4923 171.135 94.7049 171.56 95.1303C171.993 95.5483 172.209 96.1606 172.209 96.9673V100.322H171.428V97.0443C171.428 96.4429 171.278 95.9846 170.977 95.6693C170.677 95.3539 170.248 95.1963 169.69 95.1963C169.067 95.1963 168.572 95.3833 168.205 95.7573C167.846 96.1239 167.666 96.6336 167.666 97.2863V100.322H166.885V94.5363H167.633V95.6033C167.846 95.2513 168.139 94.9799 168.513 94.7893C168.895 94.5913 169.335 94.4923 169.833 94.4923ZM174.33 94.5363H175.111V100.322H174.33V94.5363ZM174.726 93.2713C174.564 93.2713 174.429 93.2163 174.319 93.1063C174.209 92.9963 174.154 92.8643 174.154 92.7103C174.154 92.5636 174.209 92.4353 174.319 92.3253C174.429 92.2153 174.564 92.1603 174.726 92.1603C174.887 92.1603 175.023 92.2153 175.133 92.3253C175.243 92.4279 175.298 92.5526 175.298 92.6993C175.298 92.8606 175.243 92.9963 175.133 93.1063C175.023 93.2163 174.887 93.2713 174.726 93.2713ZM180.232 94.4923C180.958 94.4923 181.533 94.7049 181.959 95.1303C182.391 95.5483 182.608 96.1606 182.608 96.9673V100.322H181.827V97.0443C181.827 96.4429 181.676 95.9846 181.376 95.6693C181.075 95.3539 180.646 95.1963 180.089 95.1963C179.465 95.1963 178.97 95.3833 178.604 95.7573C178.244 96.1239 178.065 96.6336 178.065 97.2863V100.322H177.284V94.5363H178.032V95.6033C178.244 95.2513 178.538 94.9799 178.912 94.7893C179.293 94.5913 179.733 94.4923 180.232 94.4923ZM190.107 94.5363V99.6183C190.107 100.601 189.865 101.327 189.381 101.796C188.904 102.273 188.182 102.511 187.214 102.511C186.678 102.511 186.169 102.431 185.685 102.269C185.208 102.115 184.819 101.899 184.519 101.62L184.915 101.026C185.193 101.276 185.531 101.47 185.927 101.609C186.33 101.749 186.752 101.818 187.192 101.818C187.925 101.818 188.464 101.646 188.809 101.301C189.153 100.964 189.326 100.436 189.326 99.7173V98.9803C189.084 99.3469 188.765 99.6256 188.369 99.8163C187.98 100.007 187.547 100.102 187.071 100.102C186.528 100.102 186.033 99.9849 185.586 99.7503C185.146 99.5083 184.797 99.1746 184.541 98.7493C184.291 98.3166 184.167 97.8289 184.167 97.2863C184.167 96.7436 184.291 96.2596 184.541 95.8343C184.797 95.4089 185.146 95.0789 185.586 94.8443C186.026 94.6096 186.521 94.4923 187.071 94.4923C187.562 94.4923 188.006 94.5913 188.402 94.7893C188.798 94.9873 189.117 95.2733 189.359 95.6473V94.5363H190.107ZM187.148 99.4093C187.566 99.4093 187.943 99.3213 188.281 99.1453C188.618 98.9619 188.878 98.7089 189.062 98.3863C189.252 98.0636 189.348 97.6969 189.348 97.2863C189.348 96.8756 189.252 96.5126 189.062 96.1973C188.878 95.8746 188.618 95.6253 188.281 95.4493C187.951 95.2659 187.573 95.1743 187.148 95.1743C186.73 95.1743 186.352 95.2623 186.015 95.4383C185.685 95.6143 185.424 95.8636 185.234 96.1863C185.05 96.5089 184.959 96.8756 184.959 97.2863C184.959 97.6969 185.05 98.0636 185.234 98.3863C185.424 98.7089 185.685 98.9619 186.015 99.1453C186.352 99.3213 186.73 99.4093 187.148 99.4093ZM27.3596 107.492C28.1149 107.492 28.6942 107.683 29.0976 108.064C29.5009 108.438 29.7026 108.996 29.7026 109.736V113.322H28.9546V112.42C28.7786 112.721 28.5182 112.956 28.1736 113.124C27.8362 113.293 27.4329 113.377 26.9636 113.377C26.3182 113.377 25.8049 113.223 25.4236 112.915C25.0422 112.607 24.8516 112.2 24.8516 111.694C24.8516 111.203 25.0276 110.807 25.3796 110.506C25.7389 110.206 26.3072 110.055 27.0846 110.055H28.9216V109.703C28.9216 109.205 28.7822 108.827 28.5036 108.57C28.2249 108.306 27.8179 108.174 27.2826 108.174C26.9159 108.174 26.5639 108.237 26.2266 108.361C25.8892 108.479 25.5996 108.644 25.3576 108.856L25.0056 108.273C25.2989 108.024 25.6509 107.833 26.0616 107.701C26.4722 107.562 26.9049 107.492 27.3596 107.492ZM27.0846 112.761C27.5246 112.761 27.9022 112.662 28.2176 112.464C28.5329 112.259 28.7676 111.966 28.9216 111.584V110.638H27.1066C26.1166 110.638 25.6216 110.983 25.6216 111.672C25.6216 112.01 25.7499 112.277 26.0066 112.475C26.2632 112.666 26.6226 112.761 27.0846 112.761ZM37.6508 107.492C38.3768 107.492 38.9524 107.705 39.3778 108.13C39.8104 108.548 40.0268 109.161 40.0268 109.967V113.322H39.2458V110.044C39.2458 109.443 39.0954 108.985 38.7948 108.669C38.4941 108.354 38.0651 108.196 37.5078 108.196C36.8844 108.196 36.3894 108.383 36.0228 108.757C35.6634 109.124 35.4838 109.634 35.4838 110.286V113.322H34.7028V107.536H35.4508V108.603C35.6634 108.251 35.9568 107.98 36.3308 107.789C36.7121 107.591 37.1521 107.492 37.6508 107.492ZM44.5336 113.377C43.9763 113.377 43.4739 113.253 43.0266 113.003C42.5793 112.747 42.2273 112.395 41.9706 111.947C41.7139 111.5 41.5856 110.994 41.5856 110.429C41.5856 109.865 41.7139 109.359 41.9706 108.911C42.2273 108.464 42.5793 108.116 43.0266 107.866C43.4739 107.617 43.9763 107.492 44.5336 107.492C45.0909 107.492 45.5933 107.617 46.0406 107.866C46.4879 108.116 46.8363 108.464 47.0856 108.911C47.3423 109.359 47.4706 109.865 47.4706 110.429C47.4706 110.994 47.3423 111.5 47.0856 111.947C46.8363 112.395 46.4879 112.747 46.0406 113.003C45.5933 113.253 45.0909 113.377 44.5336 113.377ZM44.5336 112.684C44.9443 112.684 45.3109 112.593 45.6336 112.409C45.9636 112.219 46.2203 111.951 46.4036 111.606C46.5869 111.262 46.6786 110.869 46.6786 110.429C46.6786 109.989 46.5869 109.597 46.4036 109.252C46.2203 108.908 45.9636 108.644 45.6336 108.46C45.3109 108.27 44.9443 108.174 44.5336 108.174C44.1229 108.174 43.7526 108.27 43.4226 108.46C43.0999 108.644 42.8433 108.908 42.6526 109.252C42.4693 109.597 42.3776 109.989 42.3776 110.429C42.3776 110.869 42.4693 111.262 42.6526 111.606C42.8433 111.951 43.0999 112.219 43.4226 112.409C43.7526 112.593 44.1229 112.684 44.5336 112.684ZM54.3451 105.16V113.322H53.5971V112.178C53.3624 112.567 53.0507 112.864 52.6621 113.069C52.2807 113.275 51.8481 113.377 51.3641 113.377C50.8214 113.377 50.3301 113.253 49.8901 113.003C49.4501 112.754 49.1054 112.406 48.8561 111.958C48.6067 111.511 48.4821 111.001 48.4821 110.429C48.4821 109.857 48.6067 109.348 48.8561 108.9C49.1054 108.453 49.4501 108.108 49.8901 107.866C50.3301 107.617 50.8214 107.492 51.3641 107.492C51.8334 107.492 52.2551 107.591 52.6291 107.789C53.0104 107.98 53.3221 108.262 53.5641 108.636V105.16H54.3451ZM51.4301 112.684C51.8334 112.684 52.1964 112.593 52.5191 112.409C52.8491 112.219 53.1057 111.951 53.2891 111.606C53.4797 111.262 53.5751 110.869 53.5751 110.429C53.5751 109.989 53.4797 109.597 53.2891 109.252C53.1057 108.908 52.8491 108.644 52.5191 108.46C52.1964 108.27 51.8334 108.174 51.4301 108.174C51.0194 108.174 50.6491 108.27 50.3191 108.46C49.9964 108.644 49.7397 108.908 49.5491 109.252C49.3657 109.597 49.2741 109.989 49.2741 110.429C49.2741 110.869 49.3657 111.262 49.5491 111.606C49.7397 111.951 49.9964 112.219 50.3191 112.409C50.6491 112.593 51.0194 112.684 51.4301 112.684ZM61.5582 110.671H56.7182C56.7622 111.273 56.9932 111.76 57.4112 112.134C57.8292 112.501 58.3572 112.684 58.9952 112.684C59.3545 112.684 59.6845 112.622 59.9852 112.497C60.2858 112.365 60.5462 112.175 60.7662 111.925L61.2062 112.431C60.9495 112.739 60.6268 112.974 60.2382 113.135C59.8568 113.297 59.4352 113.377 58.9732 113.377C58.3792 113.377 57.8512 113.253 57.3892 113.003C56.9345 112.747 56.5788 112.395 56.3222 111.947C56.0655 111.5 55.9372 110.994 55.9372 110.429C55.9372 109.865 56.0582 109.359 56.3002 108.911C56.5495 108.464 56.8868 108.116 57.3122 107.866C57.7448 107.617 58.2288 107.492 58.7642 107.492C59.2995 107.492 59.7798 107.617 60.2052 107.866C60.6305 108.116 60.9642 108.464 61.2062 108.911C61.4482 109.351 61.5692 109.857 61.5692 110.429L61.5582 110.671ZM58.7642 108.163C58.2068 108.163 57.7375 108.343 57.3562 108.702C56.9822 109.054 56.7695 109.516 56.7182 110.088H60.8212C60.7698 109.516 60.5535 109.054 60.1722 108.702C59.7982 108.343 59.3288 108.163 58.7642 108.163ZM63.2358 113.377C63.0745 113.377 62.9352 113.319 62.8178 113.201C62.7078 113.084 62.6528 112.941 62.6528 112.772C62.6528 112.604 62.7078 112.464 62.8178 112.354C62.9352 112.237 63.0745 112.178 63.2358 112.178C63.3972 112.178 63.5365 112.237 63.6538 112.354C63.7712 112.464 63.8298 112.604 63.8298 112.772C63.8298 112.941 63.7712 113.084 63.6538 113.201C63.5365 113.319 63.3972 113.377 63.2358 113.377ZM73.7918 113.322L72.0318 110.847C71.8338 110.869 71.6285 110.88 71.4158 110.88H69.3478V113.322H68.5338V105.622H71.4158C72.3985 105.622 73.1685 105.857 73.7258 106.326C74.2831 106.796 74.5618 107.441 74.5618 108.262C74.5618 108.864 74.4078 109.373 74.0998 109.791C73.7991 110.202 73.3665 110.499 72.8018 110.682L74.6828 113.322H73.7918ZM71.3938 110.187C72.1565 110.187 72.7395 110.019 73.1428 109.681C73.5461 109.344 73.7478 108.871 73.7478 108.262C73.7478 107.639 73.5461 107.162 73.1428 106.832C72.7395 106.495 72.1565 106.326 71.3938 106.326H69.3478V110.187H71.3938ZM81.356 110.671H76.516C76.56 111.273 76.791 111.76 77.209 112.134C77.627 112.501 78.155 112.684 78.793 112.684C79.1523 112.684 79.4823 112.622 79.783 112.497C80.0837 112.365 80.344 112.175 80.564 111.925L81.004 112.431C80.7473 112.739 80.4247 112.974 80.036 113.135C79.6547 113.297 79.233 113.377 78.771 113.377C78.177 113.377 77.649 113.253 77.187 113.003C76.7323 112.747 76.3767 112.395 76.12 111.947C75.8633 111.5 75.735 110.994 75.735 110.429C75.735 109.865 75.856 109.359 76.098 108.911C76.3473 108.464 76.6847 108.116 77.11 107.866C77.5427 107.617 78.0267 107.492 78.562 107.492C79.0973 107.492 79.5777 107.617 80.003 107.866C80.4283 108.116 80.762 108.464 81.004 108.911C81.246 109.351 81.367 109.857 81.367 110.429L81.356 110.671ZM78.562 108.163C78.0047 108.163 77.5353 108.343 77.154 108.702C76.78 109.054 76.5673 109.516 76.516 110.088H80.619C80.5677 109.516 80.3513 109.054 79.97 108.702C79.596 108.343 79.1267 108.163 78.562 108.163ZM88.2367 107.536V115.456H87.4557V112.233C87.2137 112.607 86.902 112.893 86.5207 113.091C86.1467 113.282 85.725 113.377 85.2557 113.377C84.7057 113.377 84.2107 113.256 83.7707 113.014C83.338 112.765 82.997 112.417 82.7477 111.969C82.4983 111.522 82.3737 111.009 82.3737 110.429C82.3737 109.857 82.4983 109.348 82.7477 108.9C82.997 108.453 83.3417 108.108 83.7817 107.866C84.2217 107.617 84.713 107.492 85.2557 107.492C85.7397 107.492 86.1723 107.595 86.5537 107.8C86.9423 108.006 87.254 108.299 87.4887 108.68V107.536H88.2367ZM85.3217 112.684C85.725 112.684 86.088 112.593 86.4107 112.409C86.7407 112.219 86.9973 111.951 87.1807 111.606C87.3713 111.262 87.4667 110.869 87.4667 110.429C87.4667 109.989 87.3713 109.601 87.1807 109.263C86.9973 108.919 86.7407 108.651 86.4107 108.46C86.088 108.27 85.725 108.174 85.3217 108.174C84.911 108.174 84.5407 108.27 84.2107 108.46C83.888 108.651 83.6313 108.919 83.4407 109.263C83.2573 109.601 83.1657 109.989 83.1657 110.429C83.1657 110.869 83.2573 111.262 83.4407 111.606C83.6313 111.951 83.888 112.219 84.2107 112.409C84.5407 112.593 84.911 112.684 85.3217 112.684ZM95.6258 107.536V113.322H94.8778V112.266C94.6724 112.618 94.3901 112.893 94.0308 113.091C93.6714 113.282 93.2608 113.377 92.7988 113.377C92.0434 113.377 91.4458 113.168 91.0058 112.75C90.5731 112.325 90.3568 111.705 90.3568 110.891V107.536H91.1378V110.814C91.1378 111.423 91.2881 111.885 91.5888 112.2C91.8894 112.516 92.3184 112.673 92.8758 112.673C93.4844 112.673 93.9648 112.49 94.3168 112.123C94.6688 111.749 94.8448 111.232 94.8448 110.572V107.536H95.6258ZM97.8131 107.536H98.5941V113.322H97.8131V107.536ZM98.2091 106.271C98.0478 106.271 97.9121 106.216 97.8021 106.106C97.6921 105.996 97.6371 105.864 97.6371 105.71C97.6371 105.564 97.6921 105.435 97.8021 105.325C97.9121 105.215 98.0478 105.16 98.2091 105.16C98.3705 105.16 98.5061 105.215 98.6161 105.325C98.7261 105.428 98.7811 105.553 98.7811 105.699C98.7811 105.861 98.7261 105.996 98.6161 106.106C98.5061 106.216 98.3705 106.271 98.2091 106.271ZM101.515 108.669C101.699 108.281 101.97 107.987 102.329 107.789C102.696 107.591 103.147 107.492 103.682 107.492V108.251L103.495 108.24C102.887 108.24 102.41 108.427 102.065 108.801C101.721 109.175 101.548 109.7 101.548 110.374V113.322H100.767V107.536H101.515V108.669ZM110.081 110.671H105.241C105.285 111.273 105.516 111.76 105.934 112.134C106.352 112.501 106.88 112.684 107.518 112.684C107.877 112.684 108.207 112.622 108.508 112.497C108.808 112.365 109.069 112.175 109.289 111.925L109.729 112.431C109.472 112.739 109.149 112.974 108.761 113.135C108.379 113.297 107.958 113.377 107.496 113.377C106.902 113.377 106.374 113.253 105.912 113.003C105.457 112.747 105.101 112.395 104.845 111.947C104.588 111.5 104.46 110.994 104.46 110.429C104.46 109.865 104.581 109.359 104.823 108.911C105.072 108.464 105.409 108.116 105.835 107.866C106.267 107.617 106.751 107.492 107.287 107.492C107.822 107.492 108.302 107.617 108.728 107.866C109.153 108.116 109.487 108.464 109.729 108.911C109.971 109.351 110.092 109.857 110.092 110.429L110.081 110.671ZM107.287 108.163C106.729 108.163 106.26 108.343 105.879 108.702C105.505 109.054 105.292 109.516 105.241 110.088H109.344C109.292 109.516 109.076 109.054 108.695 108.702C108.321 108.343 107.851 108.163 107.287 108.163ZM118.897 107.492C119.623 107.492 120.192 107.701 120.602 108.119C121.02 108.537 121.229 109.153 121.229 109.967V113.322H120.448V110.044C120.448 109.443 120.302 108.985 120.008 108.669C119.722 108.354 119.315 108.196 118.787 108.196C118.186 108.196 117.713 108.383 117.368 108.757C117.024 109.124 116.851 109.634 116.851 110.286V113.322H116.07V110.044C116.07 109.443 115.924 108.985 115.63 108.669C115.344 108.354 114.934 108.196 114.398 108.196C113.804 108.196 113.331 108.383 112.979 108.757C112.635 109.124 112.462 109.634 112.462 110.286V113.322H111.681V107.536H112.429V108.592C112.635 108.24 112.921 107.969 113.287 107.778C113.654 107.588 114.076 107.492 114.552 107.492C115.036 107.492 115.454 107.595 115.806 107.8C116.166 108.006 116.433 108.31 116.609 108.713C116.822 108.332 117.126 108.035 117.522 107.822C117.926 107.602 118.384 107.492 118.897 107.492ZM128.407 110.671H123.567C123.611 111.273 123.842 111.76 124.26 112.134C124.678 112.501 125.206 112.684 125.844 112.684C126.203 112.684 126.533 112.622 126.834 112.497C127.134 112.365 127.395 112.175 127.615 111.925L128.055 112.431C127.798 112.739 127.475 112.974 127.087 113.135C126.705 113.297 126.284 113.377 125.822 113.377C125.228 113.377 124.7 113.253 124.238 113.003C123.783 112.747 123.427 112.395 123.171 111.947C122.914 111.5 122.786 110.994 122.786 110.429C122.786 109.865 122.907 109.359 123.149 108.911C123.398 108.464 123.735 108.116 124.161 107.866C124.593 107.617 125.077 107.492 125.613 107.492C126.148 107.492 126.628 107.617 127.054 107.866C127.479 108.116 127.813 108.464 128.055 108.911C128.297 109.351 128.418 109.857 128.418 110.429L128.407 110.671ZM125.613 108.163C125.055 108.163 124.586 108.343 124.205 108.702C123.831 109.054 123.618 109.516 123.567 110.088H127.67C127.618 109.516 127.402 109.054 127.021 108.702C126.647 108.343 126.177 108.163 125.613 108.163ZM132.955 107.492C133.681 107.492 134.257 107.705 134.682 108.13C135.115 108.548 135.331 109.161 135.331 109.967V113.322H134.55V110.044C134.55 109.443 134.4 108.985 134.099 108.669C133.799 108.354 133.37 108.196 132.812 108.196C132.189 108.196 131.694 108.383 131.327 108.757C130.968 109.124 130.788 109.634 130.788 110.286V113.322H130.007V107.536H130.755V108.603C130.968 108.251 131.261 107.98 131.635 107.789C132.017 107.591 132.457 107.492 132.955 107.492ZM140.499 112.97C140.352 113.102 140.169 113.205 139.949 113.278C139.736 113.344 139.512 113.377 139.278 113.377C138.735 113.377 138.317 113.231 138.024 112.937C137.73 112.644 137.584 112.23 137.584 111.694V108.196H136.55V107.536H137.584V106.271H138.365V107.536H140.125V108.196H138.365V111.65C138.365 111.995 138.449 112.259 138.618 112.442C138.794 112.618 139.043 112.706 139.366 112.706C139.527 112.706 139.681 112.681 139.828 112.629C139.982 112.578 140.114 112.505 140.224 112.409L140.499 112.97ZM143.472 113.377C143.002 113.377 142.551 113.311 142.119 113.179C141.693 113.04 141.36 112.868 141.118 112.662L141.47 112.046C141.712 112.237 142.016 112.395 142.383 112.519C142.749 112.637 143.131 112.695 143.527 112.695C144.055 112.695 144.443 112.615 144.693 112.453C144.949 112.285 145.078 112.05 145.078 111.749C145.078 111.537 145.008 111.372 144.869 111.254C144.729 111.13 144.553 111.038 144.341 110.979C144.128 110.913 143.846 110.851 143.494 110.792C143.024 110.704 142.647 110.616 142.361 110.528C142.075 110.433 141.829 110.275 141.624 110.055C141.426 109.835 141.327 109.531 141.327 109.142C141.327 108.658 141.528 108.262 141.932 107.954C142.335 107.646 142.896 107.492 143.615 107.492C143.989 107.492 144.363 107.544 144.737 107.646C145.111 107.742 145.419 107.87 145.661 108.031L145.32 108.658C144.843 108.328 144.275 108.163 143.615 108.163C143.116 108.163 142.738 108.251 142.482 108.427C142.232 108.603 142.108 108.834 142.108 109.12C142.108 109.34 142.177 109.516 142.317 109.648C142.463 109.78 142.643 109.879 142.856 109.945C143.068 110.004 143.362 110.066 143.736 110.132C144.198 110.22 144.568 110.308 144.847 110.396C145.125 110.484 145.364 110.635 145.562 110.847C145.76 111.06 145.859 111.353 145.859 111.727C145.859 112.233 145.646 112.637 145.221 112.937C144.803 113.231 144.22 113.377 143.472 113.377ZM147.39 112.178C147.559 112.178 147.698 112.237 147.808 112.354C147.918 112.464 147.973 112.604 147.973 112.772C147.973 112.86 147.959 112.956 147.929 113.058C147.907 113.161 147.871 113.278 147.819 113.41L147.357 114.928H146.829L147.203 113.333C147.086 113.297 146.991 113.231 146.917 113.135C146.844 113.033 146.807 112.912 146.807 112.772C146.807 112.604 146.862 112.464 146.972 112.354C147.082 112.237 147.222 112.178 147.39 112.178ZM25.3356 120.536H26.1166V126.322H25.3356V120.536ZM25.7316 119.271C25.5702 119.271 25.4346 119.216 25.3246 119.106C25.2146 118.996 25.1596 118.864 25.1596 118.71C25.1596 118.564 25.2146 118.435 25.3246 118.325C25.4346 118.215 25.5702 118.16 25.7316 118.16C25.8929 118.16 26.0286 118.215 26.1386 118.325C26.2486 118.428 26.3036 118.553 26.3036 118.699C26.3036 118.861 26.2486 118.996 26.1386 119.106C26.0286 119.216 25.8929 119.271 25.7316 119.271ZM31.2377 120.492C31.9637 120.492 32.5394 120.705 32.9647 121.13C33.3974 121.548 33.6137 122.161 33.6137 122.967V126.322H32.8327V123.044C32.8327 122.443 32.6824 121.985 32.3817 121.669C32.081 121.354 31.652 121.196 31.0947 121.196C30.4714 121.196 29.9764 121.383 29.6097 121.757C29.2504 122.124 29.0707 122.634 29.0707 123.286V126.322H28.2897V120.536H29.0377V121.603C29.2504 121.251 29.5437 120.98 29.9177 120.789C30.299 120.591 30.739 120.492 31.2377 120.492ZM37.285 126.377C36.8157 126.377 36.3647 126.311 35.932 126.179C35.5067 126.04 35.173 125.868 34.931 125.662L35.283 125.046C35.525 125.237 35.8294 125.395 36.196 125.519C36.5627 125.637 36.944 125.695 37.34 125.695C37.868 125.695 38.2567 125.615 38.506 125.453C38.7627 125.285 38.891 125.05 38.891 124.749C38.891 124.537 38.8214 124.372 38.682 124.254C38.5427 124.13 38.3667 124.038 38.154 123.979C37.9414 123.913 37.659 123.851 37.307 123.792C36.8377 123.704 36.46 123.616 36.174 123.528C35.888 123.433 35.6424 123.275 35.437 123.055C35.239 122.835 35.14 122.531 35.14 122.142C35.14 121.658 35.3417 121.262 35.745 120.954C36.1484 120.646 36.7094 120.492 37.428 120.492C37.802 120.492 38.176 120.544 38.55 120.646C38.924 120.742 39.232 120.87 39.474 121.031L39.133 121.658C38.6564 121.328 38.088 121.163 37.428 121.163C36.9294 121.163 36.5517 121.251 36.295 121.427C36.0457 121.603 35.921 121.834 35.921 122.12C35.921 122.34 35.9907 122.516 36.13 122.648C36.2767 122.78 36.4564 122.879 36.669 122.945C36.8817 123.004 37.175 123.066 37.549 123.132C38.011 123.22 38.3814 123.308 38.66 123.396C38.9387 123.484 39.177 123.635 39.375 123.847C39.573 124.06 39.672 124.353 39.672 124.727C39.672 125.233 39.4594 125.637 39.034 125.937C38.616 126.231 38.033 126.377 37.285 126.377ZM44.1629 125.97C44.0162 126.102 43.8329 126.205 43.6129 126.278C43.4002 126.344 43.1765 126.377 42.9419 126.377C42.3992 126.377 41.9812 126.231 41.6879 125.937C41.3945 125.644 41.2479 125.23 41.2479 124.694V121.196H40.2139V120.536H41.2479V119.271H42.0289V120.536H43.7889V121.196H42.0289V124.65C42.0289 124.995 42.1132 125.259 42.2819 125.442C42.4579 125.618 42.7072 125.706 43.0299 125.706C43.1912 125.706 43.3452 125.681 43.4919 125.629C43.6459 125.578 43.7779 125.505 43.8879 125.409L44.1629 125.97ZM46.3326 121.669C46.5159 121.281 46.7873 120.987 47.1466 120.789C47.5133 120.591 47.9643 120.492 48.4996 120.492V121.251L48.3126 121.24C47.7039 121.24 47.2273 121.427 46.8826 121.801C46.5379 122.175 46.3656 122.7 46.3656 123.374V126.322H45.5846V120.536H46.3326V121.669ZM55.2136 120.536V126.322H54.4656V125.266C54.2603 125.618 53.978 125.893 53.6186 126.091C53.2593 126.282 52.8486 126.377 52.3866 126.377C51.6313 126.377 51.0336 126.168 50.5936 125.75C50.161 125.325 49.9446 124.705 49.9446 123.891V120.536H50.7256V123.814C50.7256 124.423 50.876 124.885 51.1766 125.2C51.4773 125.516 51.9063 125.673 52.4636 125.673C53.0723 125.673 53.5526 125.49 53.9046 125.123C54.2566 124.749 54.4326 124.232 54.4326 123.572V120.536H55.2136ZM59.799 126.377C59.227 126.377 58.7137 126.253 58.259 126.003C57.8117 125.754 57.4597 125.406 57.203 124.958C56.9463 124.504 56.818 123.994 56.818 123.429C56.818 122.865 56.9463 122.359 57.203 121.911C57.4597 121.464 57.8117 121.116 58.259 120.866C58.7137 120.617 59.227 120.492 59.799 120.492C60.2977 120.492 60.7413 120.591 61.13 120.789C61.526 120.98 61.8377 121.262 62.065 121.636L61.482 122.032C61.2913 121.746 61.0493 121.534 60.756 121.394C60.4627 121.248 60.1437 121.174 59.799 121.174C59.381 121.174 59.0033 121.27 58.666 121.46C58.336 121.644 58.0757 121.908 57.885 122.252C57.7017 122.597 57.61 122.989 57.61 123.429C57.61 123.877 57.7017 124.273 57.885 124.617C58.0757 124.955 58.336 125.219 58.666 125.409C59.0033 125.593 59.381 125.684 59.799 125.684C60.1437 125.684 60.4627 125.615 60.756 125.475C61.0493 125.336 61.2913 125.123 61.482 124.837L62.065 125.233C61.8377 125.607 61.526 125.893 61.13 126.091C60.734 126.282 60.2903 126.377 59.799 126.377ZM66.7107 125.97C66.564 126.102 66.3807 126.205 66.1607 126.278C65.948 126.344 65.7244 126.377 65.4897 126.377C64.947 126.377 64.529 126.231 64.2357 125.937C63.9424 125.644 63.7957 125.23 63.7957 124.694V121.196H62.7617V120.536H63.7957V119.271H64.5767V120.536H66.3367V121.196H64.5767V124.65C64.5767 124.995 64.661 125.259 64.8297 125.442C65.0057 125.618 65.255 125.706 65.5777 125.706C65.739 125.706 65.893 125.681 66.0397 125.629C66.1937 125.578 66.3257 125.505 66.4357 125.409L66.7107 125.97ZM68.1325 120.536H68.9135V126.322H68.1325V120.536ZM68.5285 119.271C68.3671 119.271 68.2315 119.216 68.1215 119.106C68.0115 118.996 67.9565 118.864 67.9565 118.71C67.9565 118.564 68.0115 118.435 68.1215 118.325C68.2315 118.215 68.3671 118.16 68.5285 118.16C68.6898 118.16 68.8255 118.215 68.9355 118.325C69.0455 118.428 69.1005 118.553 69.1005 118.699C69.1005 118.861 69.0455 118.996 68.9355 119.106C68.8255 119.216 68.6898 119.271 68.5285 119.271ZM73.4516 126.377C72.8942 126.377 72.3919 126.253 71.9446 126.003C71.4972 125.747 71.1452 125.395 70.8886 124.947C70.6319 124.5 70.5036 123.994 70.5036 123.429C70.5036 122.865 70.6319 122.359 70.8886 121.911C71.1452 121.464 71.4972 121.116 71.9446 120.866C72.3919 120.617 72.8942 120.492 73.4516 120.492C74.0089 120.492 74.5112 120.617 74.9586 120.866C75.4059 121.116 75.7542 121.464 76.0036 121.911C76.2602 122.359 76.3886 122.865 76.3886 123.429C76.3886 123.994 76.2602 124.5 76.0036 124.947C75.7542 125.395 75.4059 125.747 74.9586 126.003C74.5112 126.253 74.0089 126.377 73.4516 126.377ZM73.4516 125.684C73.8622 125.684 74.2289 125.593 74.5516 125.409C74.8816 125.219 75.1382 124.951 75.3216 124.606C75.5049 124.262 75.5966 123.869 75.5966 123.429C75.5966 122.989 75.5049 122.597 75.3216 122.252C75.1382 121.908 74.8816 121.644 74.5516 121.46C74.2289 121.27 73.8622 121.174 73.4516 121.174C73.0409 121.174 72.6706 121.27 72.3406 121.46C72.0179 121.644 71.7612 121.908 71.5706 122.252C71.3872 122.597 71.2956 122.989 71.2956 123.429C71.2956 123.869 71.3872 124.262 71.5706 124.606C71.7612 124.951 72.0179 125.219 72.3406 125.409C72.6706 125.593 73.0409 125.684 73.4516 125.684ZM80.931 120.492C81.657 120.492 82.2327 120.705 82.658 121.13C83.0907 121.548 83.307 122.161 83.307 122.967V126.322H82.526V123.044C82.526 122.443 82.3757 121.985 82.075 121.669C81.7744 121.354 81.3454 121.196 80.788 121.196C80.1647 121.196 79.6697 121.383 79.303 121.757C78.9437 122.124 78.764 122.634 78.764 123.286V126.322H77.983V120.536H78.731V121.603C78.9437 121.251 79.237 120.98 79.611 120.789C79.9924 120.591 80.4324 120.492 80.931 120.492ZM86.9784 126.377C86.509 126.377 86.058 126.311 85.6254 126.179C85.2 126.04 84.8664 125.868 84.6244 125.662L84.9764 125.046C85.2184 125.237 85.5227 125.395 85.8894 125.519C86.256 125.637 86.6374 125.695 87.0334 125.695C87.5614 125.695 87.95 125.615 88.1994 125.453C88.456 125.285 88.5844 125.05 88.5844 124.749C88.5844 124.537 88.5147 124.372 88.3754 124.254C88.236 124.13 88.06 124.038 87.8474 123.979C87.6347 123.913 87.3524 123.851 87.0004 123.792C86.531 123.704 86.1534 123.616 85.8674 123.528C85.5814 123.433 85.3357 123.275 85.1304 123.055C84.9324 122.835 84.8334 122.531 84.8334 122.142C84.8334 121.658 85.035 121.262 85.4384 120.954C85.8417 120.646 86.4027 120.492 87.1214 120.492C87.4954 120.492 87.8694 120.544 88.2434 120.646C88.6174 120.742 88.9254 120.87 89.1674 121.031L88.8264 121.658C88.3497 121.328 87.7814 121.163 87.1214 121.163C86.6227 121.163 86.245 121.251 85.9884 121.427C85.739 121.603 85.6144 121.834 85.6144 122.12C85.6144 122.34 85.684 122.516 85.8234 122.648C85.97 122.78 86.1497 122.879 86.3624 122.945C86.575 123.004 86.8684 123.066 87.2424 123.132C87.7044 123.22 88.0747 123.308 88.3534 123.396C88.632 123.484 88.8704 123.635 89.0684 123.847C89.2664 124.06 89.3654 124.353 89.3654 124.727C89.3654 125.233 89.1527 125.637 88.7274 125.937C88.3094 126.231 87.7264 126.377 86.9784 126.377ZM95.7121 120.492C96.4675 120.492 97.0468 120.683 97.4501 121.064C97.8535 121.438 98.0551 121.996 98.0551 122.736V126.322H97.3071V125.42C97.1311 125.721 96.8708 125.956 96.5261 126.124C96.1888 126.293 95.7855 126.377 95.3161 126.377C94.6708 126.377 94.1575 126.223 93.7761 125.915C93.3948 125.607 93.2041 125.2 93.2041 124.694C93.2041 124.203 93.3801 123.807 93.7321 123.506C94.0915 123.206 94.6598 123.055 95.4371 123.055H97.2741V122.703C97.2741 122.205 97.1348 121.827 96.8561 121.57C96.5775 121.306 96.1705 121.174 95.6351 121.174C95.2685 121.174 94.9165 121.237 94.5791 121.361C94.2418 121.479 93.9521 121.644 93.7101 121.856L93.3581 121.273C93.6515 121.024 94.0035 120.833 94.4141 120.701C94.8248 120.562 95.2575 120.492 95.7121 120.492ZM95.4371 125.761C95.8771 125.761 96.2548 125.662 96.5701 125.464C96.8855 125.259 97.1201 124.966 97.2741 124.584V123.638H95.4591C94.4691 123.638 93.9741 123.983 93.9741 124.672C93.9741 125.01 94.1025 125.277 94.3591 125.475C94.6158 125.666 94.9751 125.761 95.4371 125.761ZM103.124 120.492C103.85 120.492 104.426 120.705 104.851 121.13C105.284 121.548 105.5 122.161 105.5 122.967V126.322H104.719V123.044C104.719 122.443 104.569 121.985 104.268 121.669C103.968 121.354 103.539 121.196 102.981 121.196C102.358 121.196 101.863 121.383 101.496 121.757C101.137 122.124 100.957 122.634 100.957 123.286V126.322H100.176V120.536H100.924V121.603C101.137 121.251 101.43 120.98 101.804 120.789C102.186 120.591 102.626 120.492 103.124 120.492ZM112.922 118.16V126.322H112.174V125.178C111.94 125.567 111.628 125.864 111.239 126.069C110.858 126.275 110.425 126.377 109.941 126.377C109.399 126.377 108.907 126.253 108.467 126.003C108.027 125.754 107.683 125.406 107.433 124.958C107.184 124.511 107.059 124.001 107.059 123.429C107.059 122.857 107.184 122.348 107.433 121.9C107.683 121.453 108.027 121.108 108.467 120.866C108.907 120.617 109.399 120.492 109.941 120.492C110.411 120.492 110.832 120.591 111.206 120.789C111.588 120.98 111.899 121.262 112.141 121.636V118.16H112.922ZM110.007 125.684C110.411 125.684 110.774 125.593 111.096 125.409C111.426 125.219 111.683 124.951 111.866 124.606C112.057 124.262 112.152 123.869 112.152 123.429C112.152 122.989 112.057 122.597 111.866 122.252C111.683 121.908 111.426 121.644 111.096 121.46C110.774 121.27 110.411 121.174 110.007 121.174C109.597 121.174 109.226 121.27 108.896 121.46C108.574 121.644 108.317 121.908 108.126 122.252C107.943 122.597 107.851 122.989 107.851 123.429C107.851 123.869 107.943 124.262 108.126 124.606C108.317 124.951 108.574 125.219 108.896 125.409C109.226 125.593 109.597 125.684 110.007 125.684ZM120.957 120.492C121.5 120.492 121.991 120.617 122.431 120.866C122.871 121.108 123.216 121.453 123.465 121.9C123.715 122.348 123.839 122.857 123.839 123.429C123.839 124.001 123.715 124.511 123.465 124.958C123.216 125.406 122.871 125.754 122.431 126.003C121.991 126.253 121.5 126.377 120.957 126.377C120.473 126.377 120.037 126.275 119.648 126.069C119.267 125.864 118.959 125.567 118.724 125.178V126.322H117.976V118.16H118.757V121.636C118.999 121.262 119.307 120.98 119.681 120.789C120.063 120.591 120.488 120.492 120.957 120.492ZM120.902 125.684C121.306 125.684 121.672 125.593 122.002 125.409C122.332 125.219 122.589 124.951 122.772 124.606C122.963 124.262 123.058 123.869 123.058 123.429C123.058 122.989 122.963 122.597 122.772 122.252C122.589 121.908 122.332 121.644 122.002 121.46C121.672 121.27 121.306 121.174 120.902 121.174C120.492 121.174 120.121 121.27 119.791 121.46C119.469 121.644 119.212 121.908 119.021 122.252C118.838 122.597 118.746 122.989 118.746 123.429C118.746 123.869 118.838 124.262 119.021 124.606C119.212 124.951 119.469 125.219 119.791 125.409C120.121 125.593 120.492 125.684 120.902 125.684ZM130.469 123.671H125.629C125.673 124.273 125.904 124.76 126.322 125.134C126.74 125.501 127.268 125.684 127.906 125.684C128.266 125.684 128.596 125.622 128.896 125.497C129.197 125.365 129.457 125.175 129.677 124.925L130.117 125.431C129.861 125.739 129.538 125.974 129.149 126.135C128.768 126.297 128.346 126.377 127.884 126.377C127.29 126.377 126.762 126.253 126.3 126.003C125.846 125.747 125.49 125.395 125.233 124.947C124.977 124.5 124.848 123.994 124.848 123.429C124.848 122.865 124.969 122.359 125.211 121.911C125.461 121.464 125.798 121.116 126.223 120.866C126.656 120.617 127.14 120.492 127.675 120.492C128.211 120.492 128.691 120.617 129.116 120.866C129.542 121.116 129.875 121.464 130.117 121.911C130.359 122.351 130.48 122.857 130.48 123.429L130.469 123.671ZM127.675 121.163C127.118 121.163 126.649 121.343 126.267 121.702C125.893 122.054 125.681 122.516 125.629 123.088H129.732C129.681 122.516 129.465 122.054 129.083 121.702C128.709 121.343 128.24 121.163 127.675 121.163ZM133.621 126.377C133.152 126.377 132.701 126.311 132.268 126.179C131.843 126.04 131.509 125.868 131.267 125.662L131.619 125.046C131.861 125.237 132.165 125.395 132.532 125.519C132.899 125.637 133.28 125.695 133.676 125.695C134.204 125.695 134.593 125.615 134.842 125.453C135.099 125.285 135.227 125.05 135.227 124.749C135.227 124.537 135.157 124.372 135.018 124.254C134.879 124.13 134.703 124.038 134.49 123.979C134.277 123.913 133.995 123.851 133.643 123.792C133.174 123.704 132.796 123.616 132.51 123.528C132.224 123.433 131.978 123.275 131.773 123.055C131.575 122.835 131.476 122.531 131.476 122.142C131.476 121.658 131.678 121.262 132.081 120.954C132.484 120.646 133.045 120.492 133.764 120.492C134.138 120.492 134.512 120.544 134.886 120.646C135.26 120.742 135.568 120.87 135.81 121.031L135.469 121.658C134.992 121.328 134.424 121.163 133.764 121.163C133.265 121.163 132.888 121.251 132.631 121.427C132.382 121.603 132.257 121.834 132.257 122.12C132.257 122.34 132.327 122.516 132.466 122.648C132.613 122.78 132.792 122.879 133.005 122.945C133.218 123.004 133.511 123.066 133.885 123.132C134.347 123.22 134.717 123.308 134.996 123.396C135.275 123.484 135.513 123.635 135.711 123.847C135.909 124.06 136.008 124.353 136.008 124.727C136.008 125.233 135.795 125.637 135.37 125.937C134.952 126.231 134.369 126.377 133.621 126.377ZM140.499 125.97C140.352 126.102 140.169 126.205 139.949 126.278C139.736 126.344 139.512 126.377 139.278 126.377C138.735 126.377 138.317 126.231 138.024 125.937C137.73 125.644 137.584 125.23 137.584 124.694V121.196H136.55V120.536H137.584V119.271H138.365V120.536H140.125V121.196H138.365V124.65C138.365 124.995 138.449 125.259 138.618 125.442C138.794 125.618 139.043 125.706 139.366 125.706C139.527 125.706 139.681 125.681 139.828 125.629C139.982 125.578 140.114 125.505 140.224 125.409L140.499 125.97ZM28.3166 133.492C28.8592 133.492 29.3506 133.617 29.7906 133.866C30.2306 134.108 30.5752 134.453 30.8246 134.9C31.0739 135.348 31.1986 135.857 31.1986 136.429C31.1986 137.009 31.0739 137.522 30.8246 137.969C30.5752 138.417 30.2306 138.765 29.7906 139.014C29.3579 139.256 28.8666 139.377 28.3166 139.377C27.8472 139.377 27.4219 139.282 27.0406 139.091C26.6666 138.893 26.3586 138.607 26.1166 138.233V141.456H25.3356V133.536H26.0836V134.68C26.3182 134.299 26.6262 134.006 27.0076 133.8C27.3962 133.595 27.8326 133.492 28.3166 133.492ZM28.2616 138.684C28.6649 138.684 29.0316 138.593 29.3616 138.409C29.6916 138.219 29.9482 137.951 30.1316 137.606C30.3222 137.262 30.4176 136.869 30.4176 136.429C30.4176 135.989 30.3222 135.601 30.1316 135.263C29.9482 134.919 29.6916 134.651 29.3616 134.46C29.0316 134.27 28.6649 134.174 28.2616 134.174C27.8509 134.174 27.4806 134.27 27.1506 134.46C26.8279 134.651 26.5712 134.919 26.3806 135.263C26.1972 135.601 26.1056 135.989 26.1056 136.429C26.1056 136.869 26.1972 137.262 26.3806 137.606C26.5712 137.951 26.8279 138.219 27.1506 138.409C27.4806 138.593 27.8509 138.684 28.2616 138.684ZM33.5387 134.669C33.722 134.281 33.9933 133.987 34.3527 133.789C34.7193 133.591 35.1703 133.492 35.7057 133.492V134.251L35.5187 134.24C34.91 134.24 34.4333 134.427 34.0887 134.801C33.744 135.175 33.5717 135.7 33.5717 136.374V139.322H32.7907V133.536H33.5387V134.669ZM39.133 133.492C39.8884 133.492 40.4677 133.683 40.871 134.064C41.2744 134.438 41.476 134.996 41.476 135.736V139.322H40.728V138.42C40.552 138.721 40.2917 138.956 39.947 139.124C39.6097 139.293 39.2064 139.377 38.737 139.377C38.0917 139.377 37.5784 139.223 37.197 138.915C36.8157 138.607 36.625 138.2 36.625 137.694C36.625 137.203 36.801 136.807 37.153 136.506C37.5124 136.206 38.0807 136.055 38.858 136.055H40.695V135.703C40.695 135.205 40.5557 134.827 40.277 134.57C39.9984 134.306 39.5914 134.174 39.056 134.174C38.6894 134.174 38.3374 134.237 38 134.361C37.6627 134.479 37.373 134.644 37.131 134.856L36.779 134.273C37.0724 134.024 37.4244 133.833 37.835 133.701C38.2457 133.562 38.6784 133.492 39.133 133.492ZM38.858 138.761C39.298 138.761 39.6757 138.662 39.991 138.464C40.3064 138.259 40.541 137.966 40.695 137.584V136.638H38.88C37.89 136.638 37.395 136.983 37.395 137.672C37.395 138.01 37.5234 138.277 37.78 138.475C38.0367 138.666 38.396 138.761 38.858 138.761ZM46.0168 139.377C45.4448 139.377 44.9315 139.253 44.4768 139.003C44.0295 138.754 43.6775 138.406 43.4208 137.958C43.1641 137.504 43.0358 136.994 43.0358 136.429C43.0358 135.865 43.1641 135.359 43.4208 134.911C43.6775 134.464 44.0295 134.116 44.4768 133.866C44.9315 133.617 45.4448 133.492 46.0168 133.492C46.5155 133.492 46.9591 133.591 47.3478 133.789C47.7438 133.98 48.0555 134.262 48.2828 134.636L47.6998 135.032C47.5091 134.746 47.2671 134.534 46.9738 134.394C46.6805 134.248 46.3615 134.174 46.0168 134.174C45.5988 134.174 45.2211 134.27 44.8838 134.46C44.5538 134.644 44.2935 134.908 44.1028 135.252C43.9195 135.597 43.8278 135.989 43.8278 136.429C43.8278 136.877 43.9195 137.273 44.1028 137.617C44.2935 137.955 44.5538 138.219 44.8838 138.409C45.2211 138.593 45.5988 138.684 46.0168 138.684C46.3615 138.684 46.6805 138.615 46.9738 138.475C47.2671 138.336 47.5091 138.123 47.6998 137.837L48.2828 138.233C48.0555 138.607 47.7438 138.893 47.3478 139.091C46.9518 139.282 46.5081 139.377 46.0168 139.377ZM52.9285 138.97C52.7818 139.102 52.5985 139.205 52.3785 139.278C52.1658 139.344 51.9421 139.377 51.7075 139.377C51.1648 139.377 50.7468 139.231 50.4535 138.937C50.1601 138.644 50.0135 138.23 50.0135 137.694V134.196H48.9795V133.536H50.0135V132.271H50.7945V133.536H52.5545V134.196H50.7945V137.65C50.7945 137.995 50.8788 138.259 51.0475 138.442C51.2235 138.618 51.4728 138.706 51.7955 138.706C51.9568 138.706 52.1108 138.681 52.2575 138.629C52.4115 138.578 52.5435 138.505 52.6535 138.409L52.9285 138.97ZM54.3502 133.536H55.1312V139.322H54.3502V133.536ZM54.7462 132.271C54.5849 132.271 54.4492 132.216 54.3392 132.106C54.2292 131.996 54.1742 131.864 54.1742 131.71C54.1742 131.564 54.2292 131.435 54.3392 131.325C54.4492 131.215 54.5849 131.16 54.7462 131.16C54.9076 131.16 55.0432 131.215 55.1532 131.325C55.2632 131.428 55.3182 131.553 55.3182 131.699C55.3182 131.861 55.2632 131.996 55.1532 132.106C55.0432 132.216 54.9076 132.271 54.7462 132.271ZM59.7023 139.377C59.1303 139.377 58.617 139.253 58.1623 139.003C57.715 138.754 57.363 138.406 57.1063 137.958C56.8497 137.504 56.7213 136.994 56.7213 136.429C56.7213 135.865 56.8497 135.359 57.1063 134.911C57.363 134.464 57.715 134.116 58.1623 133.866C58.617 133.617 59.1303 133.492 59.7023 133.492C60.201 133.492 60.6447 133.591 61.0333 133.789C61.4293 133.98 61.741 134.262 61.9683 134.636L61.3853 135.032C61.1947 134.746 60.9527 134.534 60.6593 134.394C60.366 134.248 60.047 134.174 59.7023 134.174C59.2843 134.174 58.9067 134.27 58.5693 134.46C58.2393 134.644 57.979 134.908 57.7883 135.252C57.605 135.597 57.5133 135.989 57.5133 136.429C57.5133 136.877 57.605 137.273 57.7883 137.617C57.979 137.955 58.2393 138.219 58.5693 138.409C58.9067 138.593 59.2843 138.684 59.7023 138.684C60.047 138.684 60.366 138.615 60.6593 138.475C60.9527 138.336 61.1947 138.123 61.3853 137.837L61.9683 138.233C61.741 138.607 61.4293 138.893 61.0333 139.091C60.6373 139.282 60.1937 139.377 59.7023 139.377ZM68.4439 136.671H63.6039C63.6479 137.273 63.8789 137.76 64.2969 138.134C64.7149 138.501 65.2429 138.684 65.8809 138.684C66.2402 138.684 66.5702 138.622 66.8709 138.497C67.1716 138.365 67.4319 138.175 67.6519 137.925L68.0919 138.431C67.8352 138.739 67.5126 138.974 67.1239 139.135C66.7426 139.297 66.3209 139.377 65.8589 139.377C65.2649 139.377 64.7369 139.253 64.2749 139.003C63.8202 138.747 63.4646 138.395 63.2079 137.947C62.9512 137.5 62.8229 136.994 62.8229 136.429C62.8229 135.865 62.9439 135.359 63.1859 134.911C63.4352 134.464 63.7726 134.116 64.1979 133.866C64.6306 133.617 65.1146 133.492 65.6499 133.492C66.1852 133.492 66.6656 133.617 67.0909 133.866C67.5162 134.116 67.8499 134.464 68.0919 134.911C68.3339 135.351 68.4549 135.857 68.4549 136.429L68.4439 136.671ZM65.6499 134.163C65.0926 134.163 64.6232 134.343 64.2419 134.702C63.8679 135.054 63.6552 135.516 63.6039 136.088H67.7069C67.6556 135.516 67.4392 135.054 67.0579 134.702C66.6839 134.343 66.2146 134.163 65.6499 134.163ZM71.5956 139.377C71.1262 139.377 70.6752 139.311 70.2426 139.179C69.8172 139.04 69.4836 138.868 69.2416 138.662L69.5936 138.046C69.8356 138.237 70.1399 138.395 70.5066 138.519C70.8732 138.637 71.2546 138.695 71.6506 138.695C72.1786 138.695 72.5672 138.615 72.8166 138.453C73.0732 138.285 73.2016 138.05 73.2016 137.749C73.2016 137.537 73.1319 137.372 72.9926 137.254C72.8532 137.13 72.6772 137.038 72.4646 136.979C72.2519 136.913 71.9696 136.851 71.6176 136.792C71.1482 136.704 70.7706 136.616 70.4846 136.528C70.1986 136.433 69.9529 136.275 69.7476 136.055C69.5496 135.835 69.4506 135.531 69.4506 135.142C69.4506 134.658 69.6522 134.262 70.0556 133.954C70.4589 133.646 71.0199 133.492 71.7386 133.492C72.1126 133.492 72.4866 133.544 72.8606 133.646C73.2346 133.742 73.5426 133.87 73.7846 134.031L73.4436 134.658C72.9669 134.328 72.3986 134.163 71.7386 134.163C71.2399 134.163 70.8622 134.251 70.6056 134.427C70.3562 134.603 70.2316 134.834 70.2316 135.12C70.2316 135.34 70.3012 135.516 70.4406 135.648C70.5872 135.78 70.7669 135.879 70.9796 135.945C71.1922 136.004 71.4856 136.066 71.8596 136.132C72.3216 136.22 72.6919 136.308 72.9706 136.396C73.2492 136.484 73.4876 136.635 73.6856 136.847C73.8836 137.06 73.9826 137.353 73.9826 137.727C73.9826 138.233 73.7699 138.637 73.3446 138.937C72.9266 139.231 72.3436 139.377 71.5956 139.377ZM75.5034 139.377C75.3421 139.377 75.2027 139.319 75.0854 139.201C74.9754 139.084 74.9204 138.941 74.9204 138.772C74.9204 138.604 74.9754 138.464 75.0854 138.354C75.2027 138.237 75.3421 138.178 75.5034 138.178C75.6647 138.178 75.8041 138.237 75.9214 138.354C76.0387 138.464 76.0974 138.604 76.0974 138.772C76.0974 138.941 76.0387 139.084 75.9214 139.201C75.8041 139.319 75.6647 139.377 75.5034 139.377Z" fill="#302C60"/>
<path d="M181.777 40.6956L187.678 37.3805L193.58 40.6956V47.2925L187.678 50.6076L181.777 47.2925V40.6956Z" stroke="#302C60" stroke-width="1.4238"/>
<path d="M158.222 25.6831L163.944 22.2873L169.667 25.6831V32.5088L163.944 35.9046L158.222 32.5088V25.6831Z" stroke="#302C60" stroke-width="1.4238"/>
<path d="M158.222 55.8164L163.944 52.4206L169.667 55.8164V62.6421L163.944 66.0379L158.222 62.6421V55.8164Z" stroke="#302C60" stroke-width="1.4238"/>
<path d="M165.679 40.8646L171.581 37.5494L177.482 40.8646V47.4614L171.581 50.7765L165.679 47.4614V40.8646Z" stroke="#302C60" stroke-width="1.4238"/>
<path d="M174.347 25.6887L180.249 22.2815L186.15 25.6887V32.5032L180.249 35.9104L174.347 32.5032V25.6887Z" stroke="#302C60" stroke-width="1.4238"/>
<path d="M149.58 40.8646L155.482 37.5494L161.383 40.8646V47.4614L155.482 50.7765L149.58 47.4614V40.8646Z" stroke="#302C60" stroke-width="1.4238"/>
<path d="M174.347 55.822L180.249 52.4148L186.15 55.822V62.6365L180.249 66.0437L174.347 62.6365V55.822Z" stroke="#302C60" stroke-width="1.4238"/>
<defs>
<filter id="filter0_d_271_1799" x="0.512247" y="0" width="219.181" height="155.658" filterUnits="userSpaceOnUse" color-interpolation-filters="sRGB">
<feFlood flood-opacity="0" result="BackgroundImageFix"/>
<feColorMatrix in="SourceAlpha" type="matrix" values="0 0 0 0 0 0 0 0 0 0 0 0 0 0 0 0 0 0 127 0" result="hardAlpha"/>
<feOffset dy="1.8984"/>
<feGaussianBlur stdDeviation="0.949199"/>
<feComposite in2="hardAlpha" operator="out"/>
<feColorMatrix type="matrix" values="0 0 0 0 0 0 0 0 0 0 0 0 0 0 0 0 0 0 0.1 0"/>
<feBlend mode="normal" in2="BackgroundImageFix" result="effect1_dropShadow_271_1799"/>
<feBlend mode="normal" in="SourceGraphic" in2="effect1_dropShadow_271_1799" result="shape"/>
</filter>
</defs>
</svg>
