<svg width="311" height="212" viewBox="0 0 311 212" fill="none" xmlns="http://www.w3.org/2000/svg">
<g filter="url(#filter0_d_156_1474)">
<rect x="3.17383" width="304.826" height="206.56" rx="20" fill="#F8FAFF"/>
</g>
<path d="M64.4089 79.2595V79.9395C63.7289 80.0529 63.2076 80.2682 62.8449 80.5855C62.4822 80.9029 62.2329 81.3902 62.0969 82.0475C61.9836 82.7049 61.9269 83.6342 61.9269 84.8355V103.366C61.6322 103.32 61.3149 103.298 60.9749 103.298C60.6349 103.298 60.2722 103.32 59.8869 103.366L44.9609 85.7875V97.2115C44.9609 98.5942 45.0289 99.6595 45.1649 100.408C45.3009 101.133 45.6069 101.654 46.0829 101.972C46.5589 102.289 47.3069 102.516 48.3269 102.652V103.332C47.8962 103.286 47.3182 103.264 46.5929 103.264C45.8902 103.241 45.2216 103.23 44.5869 103.23C44.0882 103.23 43.5669 103.241 43.0229 103.264C42.5016 103.264 42.0596 103.286 41.6969 103.332V102.652C42.4222 102.516 42.9549 102.3 43.2949 102.006C43.6576 101.688 43.8956 101.201 44.0089 100.544C44.1222 99.8635 44.1789 98.9342 44.1789 97.7555V82.8635C44.1789 82.0249 44.1222 81.4129 44.0089 81.0275C43.8956 80.6195 43.6576 80.3475 43.2949 80.2115C42.9322 80.0529 42.3996 79.9622 41.6969 79.9395V79.2595C42.0596 79.2822 42.5016 79.3049 43.0229 79.3275C43.5669 79.3502 44.0882 79.3615 44.5869 79.3615C45.1536 79.3615 45.6976 79.3502 46.2189 79.3275C46.7402 79.3049 47.2162 79.2822 47.6469 79.2595L61.1449 94.6955V85.3795C61.1449 83.9969 61.0769 82.9429 60.9409 82.2175C60.8276 81.4695 60.5329 80.9369 60.0569 80.6195C59.6036 80.2795 58.8442 80.0529 57.7789 79.9395V79.2595C58.2322 79.2822 58.8102 79.3049 59.5129 79.3275C60.2382 79.3502 60.9069 79.3615 61.5189 79.3615C62.0629 79.3615 62.5956 79.3502 63.1169 79.3275C63.6382 79.3049 64.0689 79.2822 64.4089 79.2595ZM74.338 85.2435C76.0379 85.2435 77.5226 85.5495 78.7919 86.1615C80.0839 86.7509 81.0813 87.7255 81.7839 89.0855C82.5093 90.4455 82.8719 92.2589 82.8719 94.5255C82.8719 96.7922 82.5093 98.6055 81.7839 99.9655C81.0813 101.326 80.0839 102.312 78.7919 102.924C77.5226 103.513 76.0379 103.808 74.338 103.808C72.6606 103.808 71.1759 103.513 69.8839 102.924C68.6146 102.312 67.6173 101.326 66.8919 99.9655C66.1666 98.6055 65.8039 96.7922 65.8039 94.5255C65.8039 92.2589 66.1666 90.4455 66.8919 89.0855C67.6173 87.7255 68.6146 86.7509 69.8839 86.1615C71.1759 85.5495 72.6606 85.2435 74.338 85.2435ZM74.338 85.9235C73.5446 85.9235 72.8759 86.6035 72.3319 87.9635C71.8106 89.3009 71.5499 91.4882 71.5499 94.5255C71.5499 97.5629 71.8106 99.7615 72.3319 101.122C72.8759 102.459 73.5446 103.128 74.338 103.128C75.1539 103.128 75.8226 102.459 76.3439 101.122C76.8653 99.7615 77.1259 97.5629 77.1259 94.5255C77.1259 91.4882 76.8653 89.3009 76.3439 87.9635C75.8226 86.6035 75.1539 85.9235 74.338 85.9235ZM101.923 76.7435V99.5915C101.923 100.612 102.07 101.371 102.365 101.87C102.682 102.346 103.215 102.584 103.963 102.584V103.298C103.26 103.23 102.557 103.196 101.855 103.196C100.835 103.196 99.8712 103.23 98.9646 103.298C98.0579 103.366 97.2079 103.49 96.4146 103.672V80.8235C96.4146 79.8035 96.2672 79.0555 95.9726 78.5795C95.7006 78.0809 95.1679 77.8315 94.3746 77.8315V77.1175C95.0999 77.1855 95.8026 77.2195 96.4826 77.2195C97.5252 77.2195 98.4999 77.1855 99.4066 77.1175C100.313 77.0269 101.152 76.9022 101.923 76.7435ZM92.7766 85.2435C93.7739 85.2435 94.6352 85.3909 95.3606 85.6855C96.0859 85.9575 96.6866 86.4222 97.1626 87.0795L96.7546 87.4195C96.4599 87.0342 96.0972 86.7509 95.6666 86.5695C95.2586 86.3882 94.8279 86.2975 94.3746 86.2975C93.2866 86.2975 92.4366 86.9775 91.8246 88.3375C91.2352 89.6749 90.9406 91.7375 90.9406 94.5255C90.9406 96.4749 91.0539 98.0162 91.2806 99.1495C91.5299 100.26 91.8586 101.042 92.2666 101.496C92.6972 101.949 93.1732 102.176 93.6946 102.176C94.3972 102.176 95.0206 101.915 95.5646 101.394C96.1312 100.85 96.4259 100.136 96.4486 99.2515L96.5506 100.68C96.1426 101.722 95.5759 102.504 94.8506 103.026C94.1479 103.547 93.2412 103.808 92.1306 103.808C90.8159 103.808 89.6259 103.479 88.5606 102.822C87.5179 102.164 86.6906 101.156 86.0786 99.7955C85.4892 98.4129 85.1946 96.6222 85.1946 94.4235C85.1946 92.3609 85.5119 90.6609 86.1466 89.3235C86.8039 87.9635 87.6992 86.9435 88.8326 86.2635C89.9886 85.5835 91.3032 85.2435 92.7766 85.2435ZM114.215 85.2435C116.21 85.2435 117.774 85.8329 118.907 87.0115C120.04 88.1902 120.607 90.1282 120.607 92.8255H109.693L109.659 92.1795H115.983C116.028 91.0689 115.983 90.0489 115.847 89.1195C115.711 88.1675 115.484 87.4082 115.167 86.8415C114.872 86.2749 114.476 85.9915 113.977 85.9915C113.297 85.9915 112.719 86.4789 112.243 87.4535C111.767 88.4282 111.472 90.0829 111.359 92.4175L111.495 92.6555C111.45 92.9049 111.427 93.1655 111.427 93.4375C111.427 93.6869 111.427 93.9589 111.427 94.2535C111.427 95.8175 111.631 97.0642 112.039 97.9935C112.47 98.9229 113.002 99.5802 113.637 99.9655C114.272 100.351 114.929 100.544 115.609 100.544C115.994 100.544 116.425 100.487 116.901 100.374C117.377 100.26 117.876 100.022 118.397 99.6595C118.918 99.2969 119.417 98.7642 119.893 98.0615L120.471 98.2655C120.222 99.1495 119.791 100.022 119.179 100.884C118.59 101.722 117.83 102.425 116.901 102.992C115.972 103.536 114.85 103.808 113.535 103.808C112.039 103.808 110.702 103.502 109.523 102.89C108.344 102.255 107.404 101.269 106.701 99.9315C106.021 98.5715 105.681 96.8035 105.681 94.6275C105.681 92.4742 106.055 90.7062 106.803 89.3235C107.551 87.9409 108.571 86.9209 109.863 86.2635C111.155 85.5835 112.606 85.2435 114.215 85.2435ZM54.3789 113.784C56.8722 113.784 59.0482 114.271 60.9069 115.246C62.7656 116.22 64.2049 117.626 65.2249 119.462C66.2676 121.275 66.7889 123.485 66.7889 126.092C66.7889 128.63 66.2562 130.852 65.1909 132.756C64.1482 134.66 62.6862 136.144 60.8049 137.21C58.9236 138.275 56.7702 138.808 54.3449 138.808C51.8742 138.808 49.6982 138.32 47.8169 137.346C45.9582 136.371 44.5076 134.966 43.4649 133.13C42.4449 131.294 41.9349 129.084 41.9349 126.5C41.9349 123.961 42.4676 121.74 43.5329 119.836C44.6209 117.932 46.0942 116.447 47.9529 115.382C49.8116 114.316 51.9536 113.784 54.3789 113.784ZM54.2429 114.396C53.0416 114.396 51.9989 114.906 51.1149 115.926C50.2309 116.946 49.5396 118.351 49.0409 120.142C48.5649 121.932 48.3269 124.006 48.3269 126.364C48.3269 128.766 48.5989 130.863 49.1429 132.654C49.7096 134.422 50.4576 135.793 51.3869 136.768C52.3162 137.72 53.3476 138.196 54.4809 138.196C55.6822 138.196 56.7249 137.686 57.6089 136.666C58.5156 135.646 59.2069 134.24 59.6829 132.45C60.1589 130.636 60.3969 128.562 60.3969 126.228C60.3969 123.802 60.1249 121.706 59.5809 119.938C59.0369 118.17 58.2889 116.81 57.3369 115.858C56.4076 114.883 55.3762 114.396 54.2429 114.396ZM76.3283 120.38V141.052C76.3283 142.14 76.5889 142.865 77.1103 143.228C77.6543 143.59 78.3909 143.772 79.3203 143.772V144.486C78.7083 144.463 77.8583 144.429 76.7703 144.384C75.6823 144.361 74.5376 144.35 73.3363 144.35C72.4749 144.35 71.6136 144.361 70.7523 144.384C69.9136 144.429 69.2789 144.463 68.8483 144.486V143.772C69.5736 143.772 70.0836 143.602 70.3783 143.262C70.6729 142.944 70.8203 142.321 70.8203 141.392V124.46C70.8203 123.44 70.6729 122.692 70.3783 122.216C70.0836 121.717 69.5509 121.468 68.7803 121.468V120.754C69.5056 120.822 70.2083 120.856 70.8883 120.856C71.9309 120.856 72.9056 120.822 73.8123 120.754C74.7189 120.663 75.5576 120.538 76.3283 120.38ZM81.5303 120.244C82.6863 120.244 83.7063 120.561 84.5903 121.196C85.4969 121.808 86.2109 122.748 86.7323 124.018C87.2763 125.264 87.5483 126.84 87.5483 128.744C87.5483 130.534 87.3443 132.064 86.9363 133.334C86.5509 134.603 85.9956 135.646 85.2703 136.462C84.5676 137.278 83.7289 137.878 82.7543 138.264C81.8023 138.626 80.7709 138.808 79.6603 138.808C78.8216 138.808 78.0396 138.683 77.3143 138.434C76.6116 138.207 76.0563 137.833 75.6483 137.312L75.9883 136.87C76.1923 137.187 76.4756 137.425 76.8383 137.584C77.2009 137.742 77.5863 137.822 77.9943 137.822C78.9236 137.822 79.6603 137.504 80.2043 136.87C80.7709 136.212 81.1789 135.26 81.4283 134.014C81.6776 132.767 81.8023 131.248 81.8023 129.458C81.8023 127.486 81.6889 125.956 81.4623 124.868C81.2356 123.757 80.9296 122.975 80.5443 122.522C80.1589 122.068 79.7056 121.842 79.1843 121.842C78.4589 121.842 77.8016 122.125 77.2123 122.692C76.6456 123.236 76.3283 123.984 76.2603 124.936L76.1923 123.508C76.6683 122.42 77.3709 121.604 78.3003 121.06C79.2296 120.516 80.3063 120.244 81.5303 120.244ZM98.4434 120.244C100.438 120.244 102.002 120.833 103.135 122.012C104.269 123.19 104.835 125.128 104.835 127.826H93.9214L93.8874 127.18H100.211C100.257 126.069 100.211 125.049 100.075 124.12C99.9394 123.168 99.7128 122.408 99.3954 121.842C99.1008 121.275 98.7041 120.992 98.2054 120.992C97.5254 120.992 96.9474 121.479 96.4714 122.454C95.9954 123.428 95.7008 125.083 95.5874 127.418L95.7234 127.656C95.6781 127.905 95.6554 128.166 95.6554 128.438C95.6554 128.687 95.6554 128.959 95.6554 129.254C95.6554 130.818 95.8594 132.064 96.2674 132.994C96.6981 133.923 97.2308 134.58 97.8654 134.966C98.5001 135.351 99.1574 135.544 99.8374 135.544C100.223 135.544 100.653 135.487 101.129 135.374C101.605 135.26 102.104 135.022 102.625 134.66C103.147 134.297 103.645 133.764 104.121 133.062L104.699 133.266C104.45 134.15 104.019 135.022 103.407 135.884C102.818 136.722 102.059 137.425 101.129 137.992C100.2 138.536 99.0781 138.808 97.7634 138.808C96.2674 138.808 94.9301 138.502 93.7514 137.89C92.5728 137.255 91.6321 136.269 90.9294 134.932C90.2494 133.572 89.9094 131.804 89.9094 129.628C89.9094 127.474 90.2834 125.706 91.0314 124.324C91.7794 122.941 92.7994 121.921 94.0914 121.264C95.3834 120.584 96.8341 120.244 98.4434 120.244ZM118.439 120.244C119.209 120.244 119.821 120.414 120.275 120.754C120.728 121.071 121.057 121.49 121.261 122.012C121.465 122.51 121.567 123.009 121.567 123.508C121.567 124.437 121.295 125.185 120.751 125.752C120.229 126.318 119.538 126.602 118.677 126.602C117.77 126.602 117.079 126.398 116.603 125.99C116.127 125.559 115.889 124.992 115.889 124.29C115.889 123.587 116.036 123.009 116.331 122.556C116.648 122.102 117.033 121.717 117.487 121.4C117.147 121.354 116.818 121.4 116.501 121.536C116.138 121.626 115.798 121.796 115.481 122.046C115.163 122.295 114.891 122.59 114.665 122.93C114.438 123.27 114.257 123.644 114.121 124.052C114.007 124.437 113.951 124.834 113.951 125.242V134.83C113.951 135.918 114.189 136.654 114.665 137.04C115.163 137.425 115.945 137.618 117.011 137.618V138.332C116.489 138.309 115.719 138.286 114.699 138.264C113.679 138.218 112.625 138.196 111.537 138.196C110.562 138.196 109.576 138.218 108.579 138.264C107.604 138.286 106.879 138.309 106.403 138.332V137.618C107.151 137.618 107.672 137.448 107.967 137.108C108.284 136.768 108.443 136.122 108.443 135.17V124.426C108.443 123.406 108.295 122.658 108.001 122.182C107.706 121.683 107.173 121.434 106.403 121.434V120.72C107.128 120.788 107.831 120.822 108.511 120.822C109.531 120.822 110.494 120.788 111.401 120.72C112.33 120.629 113.18 120.504 113.951 120.346V123.134C114.223 122.544 114.574 122.034 115.005 121.604C115.458 121.173 115.968 120.844 116.535 120.618C117.124 120.368 117.759 120.244 118.439 120.244ZM127.13 138.57C126.087 138.57 125.226 138.377 124.546 137.992C123.866 137.584 123.367 137.051 123.05 136.394C122.733 135.736 122.574 135.034 122.574 134.286C122.574 133.334 122.789 132.552 123.22 131.94C123.673 131.328 124.251 130.84 124.954 130.478C125.657 130.092 126.393 129.775 127.164 129.526C127.935 129.276 128.671 129.038 129.374 128.812C130.077 128.562 130.643 128.279 131.074 127.962C131.505 127.622 131.72 127.191 131.72 126.67V123.848C131.72 123.349 131.641 122.884 131.482 122.454C131.346 122 131.085 121.638 130.7 121.366C130.337 121.071 129.827 120.924 129.17 120.924C128.762 120.924 128.365 120.98 127.98 121.094C127.595 121.207 127.255 121.388 126.96 121.638C127.685 121.887 128.218 122.261 128.558 122.76C128.921 123.258 129.102 123.814 129.102 124.426C129.102 125.264 128.807 125.933 128.218 126.432C127.651 126.908 126.971 127.146 126.178 127.146C125.317 127.146 124.648 126.874 124.172 126.33C123.719 125.786 123.492 125.128 123.492 124.358C123.492 123.678 123.662 123.111 124.002 122.658C124.342 122.182 124.841 121.751 125.498 121.366C126.155 120.98 126.949 120.697 127.878 120.516C128.807 120.334 129.793 120.244 130.836 120.244C131.901 120.244 132.876 120.357 133.76 120.584C134.667 120.788 135.437 121.207 136.072 121.842C136.571 122.363 136.888 122.998 137.024 123.746C137.16 124.494 137.228 125.446 137.228 126.602V135.782C137.228 136.348 137.273 136.745 137.364 136.972C137.477 137.176 137.647 137.278 137.874 137.278C138.078 137.278 138.271 137.221 138.452 137.108C138.633 136.994 138.815 136.87 138.996 136.734L139.37 137.312C138.871 137.72 138.282 138.037 137.602 138.264C136.922 138.468 136.185 138.57 135.392 138.57C134.485 138.57 133.771 138.456 133.25 138.23C132.751 137.98 132.389 137.652 132.162 137.244C131.958 136.836 131.845 136.382 131.822 135.884C131.323 136.7 130.7 137.357 129.952 137.856C129.204 138.332 128.263 138.57 127.13 138.57ZM129.952 136.122C130.315 136.122 130.632 136.054 130.904 135.918C131.199 135.759 131.471 135.498 131.72 135.136V128.064C131.539 128.381 131.289 128.687 130.972 128.982C130.677 129.254 130.36 129.537 130.02 129.832C129.68 130.104 129.351 130.41 129.034 130.75C128.739 131.09 128.49 131.498 128.286 131.974C128.105 132.427 128.014 132.982 128.014 133.64C128.014 134.524 128.195 135.158 128.558 135.544C128.921 135.929 129.385 136.122 129.952 136.122ZM147.714 115.178V120.72H151.386V121.4H147.714V135.306C147.714 135.872 147.816 136.28 148.02 136.53C148.224 136.756 148.53 136.87 148.938 136.87C149.278 136.87 149.63 136.756 149.992 136.53C150.378 136.303 150.729 135.918 151.046 135.374L151.59 135.714C151.16 136.643 150.559 137.391 149.788 137.958C149.04 138.524 148.054 138.808 146.83 138.808C146.082 138.808 145.414 138.706 144.824 138.502C144.258 138.32 143.782 138.037 143.396 137.652C142.898 137.153 142.569 136.541 142.41 135.816C142.274 135.068 142.206 134.104 142.206 132.926V121.4H139.486V120.72H142.206V116.47C143.272 116.47 144.246 116.368 145.13 116.164C146.037 115.96 146.898 115.631 147.714 115.178ZM156.812 111.846C157.877 111.846 158.705 112.084 159.294 112.56C159.906 113.036 160.212 113.727 160.212 114.634C160.212 115.54 159.906 116.232 159.294 116.708C158.705 117.184 157.877 117.422 156.812 117.422C155.747 117.422 154.908 117.184 154.296 116.708C153.707 116.232 153.412 115.54 153.412 114.634C153.412 113.727 153.707 113.036 154.296 112.56C154.908 112.084 155.747 111.846 156.812 111.846ZM159.804 120.346V135.17C159.804 136.122 159.951 136.768 160.246 137.108C160.563 137.448 161.096 137.618 161.844 137.618V138.332C161.391 138.309 160.722 138.286 159.838 138.264C158.954 138.218 158.059 138.196 157.152 138.196C156.245 138.196 155.316 138.218 154.364 138.264C153.435 138.286 152.732 138.309 152.256 138.332V137.618C153.004 137.618 153.525 137.448 153.82 137.108C154.137 136.768 154.296 136.122 154.296 135.17V124.426C154.296 123.406 154.149 122.658 153.854 122.182C153.559 121.683 153.027 121.434 152.256 121.434V120.72C152.981 120.788 153.684 120.822 154.364 120.822C155.384 120.822 156.347 120.788 157.254 120.72C158.183 120.629 159.033 120.504 159.804 120.346ZM172.154 120.244C173.854 120.244 175.339 120.55 176.608 121.162C177.9 121.751 178.898 122.726 179.6 124.086C180.326 125.446 180.688 127.259 180.688 129.526C180.688 131.792 180.326 133.606 179.6 134.966C178.898 136.326 177.9 137.312 176.608 137.924C175.339 138.513 173.854 138.808 172.154 138.808C170.477 138.808 168.992 138.513 167.7 137.924C166.431 137.312 165.434 136.326 164.708 134.966C163.983 133.606 163.62 131.792 163.62 129.526C163.62 127.259 163.983 125.446 164.708 124.086C165.434 122.726 166.431 121.751 167.7 121.162C168.992 120.55 170.477 120.244 172.154 120.244ZM172.154 120.924C171.361 120.924 170.692 121.604 170.148 122.964C169.627 124.301 169.366 126.488 169.366 129.526C169.366 132.563 169.627 134.762 170.148 136.122C170.692 137.459 171.361 138.128 172.154 138.128C172.97 138.128 173.639 137.459 174.16 136.122C174.682 134.762 174.942 132.563 174.942 129.526C174.942 126.488 174.682 124.301 174.16 122.964C173.639 121.604 172.97 120.924 172.154 120.924ZM195.659 120.244C196.656 120.244 197.45 120.368 198.039 120.618C198.651 120.867 199.116 121.184 199.433 121.57C199.796 122 200.056 122.556 200.215 123.236C200.396 123.916 200.487 124.834 200.487 125.99V135.17C200.487 136.122 200.634 136.768 200.929 137.108C201.246 137.448 201.779 137.618 202.527 137.618V138.332C202.074 138.309 201.394 138.286 200.487 138.264C199.603 138.218 198.742 138.196 197.903 138.196C196.974 138.196 196.078 138.218 195.217 138.264C194.356 138.286 193.71 138.309 193.279 138.332V137.618C193.914 137.618 194.356 137.448 194.605 137.108C194.854 136.768 194.979 136.122 194.979 135.17V124.358C194.979 123.836 194.922 123.394 194.809 123.032C194.696 122.646 194.503 122.363 194.231 122.182C193.959 121.978 193.574 121.876 193.075 121.876C192.554 121.876 192.066 122.012 191.613 122.284C191.182 122.556 190.831 122.941 190.559 123.44C190.31 123.916 190.185 124.46 190.185 125.072V135.17C190.185 136.122 190.31 136.768 190.559 137.108C190.808 137.448 191.25 137.618 191.885 137.618V138.332C191.454 138.309 190.831 138.286 190.015 138.264C189.199 138.218 188.372 138.196 187.533 138.196C186.604 138.196 185.674 138.218 184.745 138.264C183.816 138.286 183.113 138.309 182.637 138.332V137.618C183.385 137.618 183.906 137.448 184.201 137.108C184.518 136.768 184.677 136.122 184.677 135.17V124.426C184.677 123.406 184.53 122.658 184.235 122.182C183.94 121.683 183.408 121.434 182.637 121.434V120.72C183.362 120.788 184.065 120.822 184.745 120.822C185.765 120.822 186.728 120.788 187.635 120.72C188.564 120.629 189.414 120.504 190.185 120.346V123.1C190.729 122.057 191.466 121.32 192.395 120.89C193.347 120.459 194.435 120.244 195.659 120.244ZM210.59 120.244C211.587 120.244 212.448 120.357 213.174 120.584C213.899 120.81 214.432 121.026 214.772 121.23C215.565 121.728 216.041 121.411 216.2 120.278H216.914C216.868 120.935 216.834 121.728 216.812 122.658C216.789 123.564 216.778 124.788 216.778 126.33H216.064C215.973 125.491 215.769 124.664 215.452 123.848C215.157 123.032 214.715 122.363 214.126 121.842C213.536 121.298 212.766 121.026 211.814 121.026C211.202 121.026 210.68 121.207 210.25 121.57C209.842 121.932 209.638 122.431 209.638 123.066C209.638 123.746 209.842 124.346 210.25 124.868C210.658 125.389 211.179 125.888 211.814 126.364C212.471 126.84 213.128 127.35 213.786 127.894C214.511 128.438 215.157 128.993 215.724 129.56C216.313 130.104 216.778 130.704 217.118 131.362C217.48 131.996 217.662 132.767 217.662 133.674C217.662 134.694 217.356 135.589 216.744 136.36C216.132 137.13 215.327 137.731 214.33 138.162C213.332 138.592 212.222 138.808 210.998 138.808C210.25 138.808 209.592 138.728 209.026 138.57C208.482 138.434 208.028 138.252 207.666 138.026C207.326 137.867 207.02 137.731 206.748 137.618C206.498 137.504 206.249 137.425 206 137.38C205.773 137.357 205.58 137.459 205.422 137.686C205.263 137.912 205.138 138.207 205.048 138.57H204.334C204.379 137.844 204.413 136.96 204.436 135.918C204.458 134.875 204.47 133.492 204.47 131.77H205.184C205.32 132.994 205.569 134.07 205.932 135C206.317 135.929 206.827 136.666 207.462 137.21C208.096 137.731 208.844 137.992 209.706 137.992C210.091 137.992 210.442 137.924 210.76 137.788C211.1 137.629 211.372 137.391 211.576 137.074C211.802 136.756 211.916 136.348 211.916 135.85C211.916 134.852 211.598 134.025 210.964 133.368C210.329 132.688 209.547 131.951 208.618 131.158C207.892 130.546 207.212 129.945 206.578 129.356C205.966 128.766 205.456 128.12 205.048 127.418C204.662 126.715 204.47 125.922 204.47 125.038C204.47 124.018 204.753 123.156 205.32 122.454C205.909 121.728 206.668 121.184 207.598 120.822C208.527 120.436 209.524 120.244 210.59 120.244Z" fill="#302C60"/>
<path d="M43.3556 164.06C42.8356 164.06 42.3356 163.977 41.8556 163.81C41.3823 163.643 41.0156 163.423 40.7556 163.15L41.0456 162.58C41.299 162.833 41.6356 163.04 42.0556 163.2C42.4756 163.353 42.909 163.43 43.3556 163.43C43.9823 163.43 44.4523 163.317 44.7656 163.09C45.079 162.857 45.2356 162.557 45.2356 162.19C45.2356 161.91 45.149 161.687 44.9756 161.52C44.809 161.353 44.6023 161.227 44.3556 161.14C44.109 161.047 43.7656 160.947 43.3256 160.84C42.799 160.707 42.379 160.58 42.0656 160.46C41.7523 160.333 41.4823 160.143 41.2556 159.89C41.0356 159.637 40.9256 159.293 40.9256 158.86C40.9256 158.507 41.019 158.187 41.2056 157.9C41.3923 157.607 41.679 157.373 42.0656 157.2C42.4523 157.027 42.9323 156.94 43.5056 156.94C43.9056 156.94 44.2956 156.997 44.6756 157.11C45.0623 157.217 45.3956 157.367 45.6756 157.56L45.4256 158.15C45.1323 157.957 44.819 157.813 44.4856 157.72C44.1523 157.62 43.8256 157.57 43.5056 157.57C42.8923 157.57 42.429 157.69 42.1156 157.93C41.809 158.163 41.6556 158.467 41.6556 158.84C41.6556 159.12 41.739 159.347 41.9056 159.52C42.079 159.687 42.2923 159.817 42.5456 159.91C42.8056 159.997 43.1523 160.093 43.5856 160.2C44.099 160.327 44.5123 160.453 44.8256 160.58C45.1456 160.7 45.4156 160.887 45.6356 161.14C45.8556 161.387 45.9656 161.723 45.9656 162.15C45.9656 162.503 45.869 162.827 45.6756 163.12C45.489 163.407 45.199 163.637 44.8056 163.81C44.4123 163.977 43.929 164.06 43.3556 164.06ZM50.198 163.68C50.0647 163.8 49.898 163.893 49.698 163.96C49.5047 164.02 49.3013 164.05 49.088 164.05C48.5947 164.05 48.2147 163.917 47.948 163.65C47.6813 163.383 47.548 163.007 47.548 162.52V159.34H46.608V158.74H47.548V157.59H48.258V158.74H49.858V159.34H48.258V162.48C48.258 162.793 48.3347 163.033 48.488 163.2C48.648 163.36 48.8747 163.44 49.168 163.44C49.3147 163.44 49.4547 163.417 49.588 163.37C49.728 163.323 49.848 163.257 49.948 163.17L50.198 163.68ZM55.8849 161.59H51.4849C51.5249 162.137 51.7349 162.58 52.1149 162.92C52.4949 163.253 52.9749 163.42 53.5549 163.42C53.8816 163.42 54.1816 163.363 54.4549 163.25C54.7283 163.13 54.9649 162.957 55.1649 162.73L55.5649 163.19C55.3316 163.47 55.0383 163.683 54.6849 163.83C54.3383 163.977 53.9549 164.05 53.5349 164.05C52.9949 164.05 52.5149 163.937 52.0949 163.71C51.6816 163.477 51.3583 163.157 51.1249 162.75C50.8916 162.343 50.7749 161.883 50.7749 161.37C50.7749 160.857 50.8849 160.397 51.1049 159.99C51.3316 159.583 51.6383 159.267 52.0249 159.04C52.4183 158.813 52.8583 158.7 53.3449 158.7C53.8316 158.7 54.2683 158.813 54.6549 159.04C55.0416 159.267 55.3449 159.583 55.5649 159.99C55.7849 160.39 55.8949 160.85 55.8949 161.37L55.8849 161.59ZM53.3449 159.31C52.8383 159.31 52.4116 159.473 52.0649 159.8C51.7249 160.12 51.5316 160.54 51.4849 161.06H55.2149C55.1683 160.54 54.9716 160.12 54.6249 159.8C54.2849 159.473 53.8583 159.31 53.3449 159.31ZM60.0501 158.7C60.5434 158.7 60.9901 158.813 61.3901 159.04C61.7901 159.26 62.1034 159.573 62.3301 159.98C62.5568 160.387 62.6701 160.85 62.6701 161.37C62.6701 161.897 62.5568 162.363 62.3301 162.77C62.1034 163.177 61.7901 163.493 61.3901 163.72C60.9968 163.94 60.5501 164.05 60.0501 164.05C59.6234 164.05 59.2368 163.963 58.8901 163.79C58.5501 163.61 58.2701 163.35 58.0501 163.01V165.94H57.3401V158.74H58.0201V159.78C58.2334 159.433 58.5134 159.167 58.8601 158.98C59.2134 158.793 59.6101 158.7 60.0501 158.7ZM60.0001 163.42C60.3668 163.42 60.7001 163.337 61.0001 163.17C61.3001 162.997 61.5334 162.753 61.7001 162.44C61.8734 162.127 61.9601 161.77 61.9601 161.37C61.9601 160.97 61.8734 160.617 61.7001 160.31C61.5334 159.997 61.3001 159.753 61.0001 159.58C60.7001 159.407 60.3668 159.32 60.0001 159.32C59.6268 159.32 59.2901 159.407 58.9901 159.58C58.6968 159.753 58.4634 159.997 58.2901 160.31C58.1234 160.617 58.0401 160.97 58.0401 161.37C58.0401 161.77 58.1234 162.127 58.2901 162.44C58.4634 162.753 58.6968 162.997 58.9901 163.17C59.2901 163.337 59.6268 163.42 60.0001 163.42ZM63.8251 160.98H66.4451V161.6H63.8251V160.98ZM70.7435 158.7C71.2368 158.7 71.6835 158.813 72.0835 159.04C72.4835 159.26 72.7968 159.573 73.0235 159.98C73.2501 160.387 73.3635 160.85 73.3635 161.37C73.3635 161.89 73.2501 162.353 73.0235 162.76C72.7968 163.167 72.4835 163.483 72.0835 163.71C71.6835 163.937 71.2368 164.05 70.7435 164.05C70.3035 164.05 69.9068 163.957 69.5535 163.77C69.2068 163.583 68.9268 163.313 68.7135 162.96V164H68.0335V156.58H68.7435V159.74C68.9635 159.4 69.2435 159.143 69.5835 158.97C69.9301 158.79 70.3168 158.7 70.7435 158.7ZM70.6935 163.42C71.0601 163.42 71.3935 163.337 71.6935 163.17C71.9935 162.997 72.2268 162.753 72.3935 162.44C72.5668 162.127 72.6535 161.77 72.6535 161.37C72.6535 160.97 72.5668 160.613 72.3935 160.3C72.2268 159.987 71.9935 159.747 71.6935 159.58C71.3935 159.407 71.0601 159.32 70.6935 159.32C70.3201 159.32 69.9835 159.407 69.6835 159.58C69.3901 159.747 69.1568 159.987 68.9835 160.3C68.8168 160.613 68.7335 160.97 68.7335 161.37C68.7335 161.77 68.8168 162.127 68.9835 162.44C69.1568 162.753 69.3901 162.997 69.6835 163.17C69.9835 163.337 70.3201 163.42 70.6935 163.42ZM79.0843 158.74L76.4543 164.63C76.241 165.123 75.9943 165.473 75.7143 165.68C75.4343 165.887 75.0976 165.99 74.7043 165.99C74.451 165.99 74.2143 165.95 73.9943 165.87C73.7743 165.79 73.5843 165.67 73.4243 165.51L73.7543 164.98C74.021 165.247 74.341 165.38 74.7143 165.38C74.9543 165.38 75.1576 165.313 75.3243 165.18C75.4976 165.047 75.6576 164.82 75.8043 164.5L76.0343 163.99L73.6843 158.74H74.4243L76.4043 163.21L78.3843 158.74H79.0843ZM79.5771 160.98H82.1971V161.6H79.5771V160.98ZM85.1954 164.05C84.7687 164.05 84.3587 163.99 83.9654 163.87C83.5787 163.743 83.2754 163.587 83.0554 163.4L83.3754 162.84C83.5954 163.013 83.8721 163.157 84.2054 163.27C84.5387 163.377 84.8854 163.43 85.2454 163.43C85.7254 163.43 86.0787 163.357 86.3054 163.21C86.5387 163.057 86.6554 162.843 86.6554 162.57C86.6554 162.377 86.5921 162.227 86.4654 162.12C86.3387 162.007 86.1787 161.923 85.9854 161.87C85.7921 161.81 85.5354 161.753 85.2154 161.7C84.7887 161.62 84.4454 161.54 84.1854 161.46C83.9254 161.373 83.7021 161.23 83.5154 161.03C83.3354 160.83 83.2454 160.553 83.2454 160.2C83.2454 159.76 83.4287 159.4 83.7954 159.12C84.1621 158.84 84.6721 158.7 85.3254 158.7C85.6654 158.7 86.0054 158.747 86.3454 158.84C86.6854 158.927 86.9654 159.043 87.1854 159.19L86.8754 159.76C86.4421 159.46 85.9254 159.31 85.3254 159.31C84.8721 159.31 84.5287 159.39 84.2954 159.55C84.0687 159.71 83.9554 159.92 83.9554 160.18C83.9554 160.38 84.0187 160.54 84.1454 160.66C84.2787 160.78 84.4421 160.87 84.6354 160.93C84.8287 160.983 85.0954 161.04 85.4354 161.1C85.8554 161.18 86.1921 161.26 86.4454 161.34C86.6987 161.42 86.9154 161.557 87.0954 161.75C87.2754 161.943 87.3654 162.21 87.3654 162.55C87.3654 163.01 87.1721 163.377 86.7854 163.65C86.4054 163.917 85.8754 164.05 85.1954 164.05ZM91.448 163.68C91.3147 163.8 91.148 163.893 90.948 163.96C90.7547 164.02 90.5513 164.05 90.338 164.05C89.8447 164.05 89.4647 163.917 89.198 163.65C88.9313 163.383 88.798 163.007 88.798 162.52V159.34H87.858V158.74H88.798V157.59H89.508V158.74H91.108V159.34H89.508V162.48C89.508 162.793 89.5847 163.033 89.738 163.2C89.898 163.36 90.1247 163.44 90.418 163.44C90.5647 163.44 90.7047 163.417 90.838 163.37C90.978 163.323 91.098 163.257 91.198 163.17L91.448 163.68ZM97.1349 161.59H92.7349C92.7749 162.137 92.9849 162.58 93.3649 162.92C93.7449 163.253 94.2249 163.42 94.8049 163.42C95.1316 163.42 95.4316 163.363 95.7049 163.25C95.9783 163.13 96.2149 162.957 96.4149 162.73L96.8149 163.19C96.5816 163.47 96.2883 163.683 95.9349 163.83C95.5883 163.977 95.2049 164.05 94.7849 164.05C94.2449 164.05 93.7649 163.937 93.3449 163.71C92.9316 163.477 92.6083 163.157 92.3749 162.75C92.1416 162.343 92.0249 161.883 92.0249 161.37C92.0249 160.857 92.1349 160.397 92.3549 159.99C92.5816 159.583 92.8883 159.267 93.2749 159.04C93.6683 158.813 94.1083 158.7 94.5949 158.7C95.0816 158.7 95.5183 158.813 95.9049 159.04C96.2916 159.267 96.5949 159.583 96.8149 159.99C97.0349 160.39 97.1449 160.85 97.1449 161.37L97.1349 161.59ZM94.5949 159.31C94.0883 159.31 93.6616 159.473 93.3149 159.8C92.9749 160.12 92.7816 160.54 92.7349 161.06H96.4649C96.4183 160.54 96.2216 160.12 95.8749 159.8C95.5349 159.473 95.1083 159.31 94.5949 159.31ZM101.3 158.7C101.793 158.7 102.24 158.813 102.64 159.04C103.04 159.26 103.353 159.573 103.58 159.98C103.807 160.387 103.92 160.85 103.92 161.37C103.92 161.897 103.807 162.363 103.58 162.77C103.353 163.177 103.04 163.493 102.64 163.72C102.247 163.94 101.8 164.05 101.3 164.05C100.873 164.05 100.487 163.963 100.14 163.79C99.8001 163.61 99.5201 163.35 99.3001 163.01V165.94H98.5901V158.74H99.2701V159.78C99.4834 159.433 99.7634 159.167 100.11 158.98C100.463 158.793 100.86 158.7 101.3 158.7ZM101.25 163.42C101.617 163.42 101.95 163.337 102.25 163.17C102.55 162.997 102.783 162.753 102.95 162.44C103.123 162.127 103.21 161.77 103.21 161.37C103.21 160.97 103.123 160.617 102.95 160.31C102.783 159.997 102.55 159.753 102.25 159.58C101.95 159.407 101.617 159.32 101.25 159.32C100.877 159.32 100.54 159.407 100.24 159.58C99.9468 159.753 99.7134 159.997 99.5401 160.31C99.3734 160.617 99.2901 160.97 99.2901 161.37C99.2901 161.77 99.3734 162.127 99.5401 162.44C99.7134 162.753 99.9468 162.997 100.24 163.17C100.54 163.337 100.877 163.42 101.25 163.42ZM112.855 158.74V163.36C112.855 164.253 112.635 164.913 112.195 165.34C111.761 165.773 111.105 165.99 110.225 165.99C109.738 165.99 109.275 165.917 108.835 165.77C108.401 165.63 108.048 165.433 107.775 165.18L108.135 164.64C108.388 164.867 108.695 165.043 109.055 165.17C109.421 165.297 109.805 165.36 110.205 165.36C110.871 165.36 111.361 165.203 111.675 164.89C111.988 164.583 112.145 164.103 112.145 163.45V162.78C111.925 163.113 111.635 163.367 111.275 163.54C110.921 163.713 110.528 163.8 110.095 163.8C109.601 163.8 109.151 163.693 108.745 163.48C108.345 163.26 108.028 162.957 107.795 162.57C107.568 162.177 107.455 161.733 107.455 161.24C107.455 160.747 107.568 160.307 107.795 159.92C108.028 159.533 108.345 159.233 108.745 159.02C109.145 158.807 109.595 158.7 110.095 158.7C110.541 158.7 110.945 158.79 111.305 158.97C111.665 159.15 111.955 159.41 112.175 159.75V158.74H112.855ZM110.165 163.17C110.545 163.17 110.888 163.09 111.195 162.93C111.501 162.763 111.738 162.533 111.905 162.24C112.078 161.947 112.165 161.613 112.165 161.24C112.165 160.867 112.078 160.537 111.905 160.25C111.738 159.957 111.501 159.73 111.195 159.57C110.895 159.403 110.551 159.32 110.165 159.32C109.785 159.32 109.441 159.4 109.135 159.56C108.835 159.72 108.598 159.947 108.425 160.24C108.258 160.533 108.175 160.867 108.175 161.24C108.175 161.613 108.258 161.947 108.425 162.24C108.598 162.533 108.835 162.763 109.135 162.93C109.441 163.09 109.785 163.17 110.165 163.17ZM119.58 158.74V164H118.9V163.04C118.713 163.36 118.457 163.61 118.13 163.79C117.803 163.963 117.43 164.05 117.01 164.05C116.323 164.05 115.78 163.86 115.38 163.48C114.987 163.093 114.79 162.53 114.79 161.79V158.74H115.5V161.72C115.5 162.273 115.637 162.693 115.91 162.98C116.183 163.267 116.573 163.41 117.08 163.41C117.633 163.41 118.07 163.243 118.39 162.91C118.71 162.57 118.87 162.1 118.87 161.5V158.74H119.58ZM121.569 158.74H122.279V164H121.569V158.74ZM121.929 157.59C121.782 157.59 121.659 157.54 121.559 157.44C121.459 157.34 121.409 157.22 121.409 157.08C121.409 156.947 121.459 156.83 121.559 156.73C121.659 156.63 121.782 156.58 121.929 156.58C122.075 156.58 122.199 156.63 122.299 156.73C122.399 156.823 122.449 156.937 122.449 157.07C122.449 157.217 122.399 157.34 122.299 157.44C122.199 157.54 122.075 157.59 121.929 157.59ZM129.054 156.58V164H128.374V162.96C128.161 163.313 127.877 163.583 127.524 163.77C127.177 163.957 126.784 164.05 126.344 164.05C125.851 164.05 125.404 163.937 125.004 163.71C124.604 163.483 124.291 163.167 124.064 162.76C123.837 162.353 123.724 161.89 123.724 161.37C123.724 160.85 123.837 160.387 124.064 159.98C124.291 159.573 124.604 159.26 125.004 159.04C125.404 158.813 125.851 158.7 126.344 158.7C126.771 158.7 127.154 158.79 127.494 158.97C127.841 159.143 128.124 159.4 128.344 159.74V156.58H129.054ZM126.404 163.42C126.771 163.42 127.101 163.337 127.394 163.17C127.694 162.997 127.927 162.753 128.094 162.44C128.267 162.127 128.354 161.77 128.354 161.37C128.354 160.97 128.267 160.613 128.094 160.3C127.927 159.987 127.694 159.747 127.394 159.58C127.101 159.407 126.771 159.32 126.404 159.32C126.031 159.32 125.694 159.407 125.394 159.58C125.101 159.747 124.867 159.987 124.694 160.3C124.527 160.613 124.444 160.97 124.444 161.37C124.444 161.77 124.527 162.127 124.694 162.44C124.867 162.753 125.101 162.997 125.394 163.17C125.694 163.337 126.031 163.42 126.404 163.42ZM135.612 161.59H131.212C131.252 162.137 131.462 162.58 131.842 162.92C132.222 163.253 132.702 163.42 133.282 163.42C133.608 163.42 133.908 163.363 134.182 163.25C134.455 163.13 134.692 162.957 134.892 162.73L135.292 163.19C135.058 163.47 134.765 163.683 134.412 163.83C134.065 163.977 133.682 164.05 133.262 164.05C132.722 164.05 132.242 163.937 131.822 163.71C131.408 163.477 131.085 163.157 130.852 162.75C130.618 162.343 130.502 161.883 130.502 161.37C130.502 160.857 130.612 160.397 130.832 159.99C131.058 159.583 131.365 159.267 131.752 159.04C132.145 158.813 132.585 158.7 133.072 158.7C133.558 158.7 133.995 158.813 134.382 159.04C134.768 159.267 135.072 159.583 135.292 159.99C135.512 160.39 135.622 160.85 135.622 161.37L135.612 161.59ZM133.072 159.31C132.565 159.31 132.138 159.473 131.792 159.8C131.452 160.12 131.258 160.54 131.212 161.06H134.942C134.895 160.54 134.698 160.12 134.352 159.8C134.012 159.473 133.585 159.31 133.072 159.31ZM142.454 163.68C142.321 163.8 142.154 163.893 141.954 163.96C141.761 164.02 141.557 164.05 141.344 164.05C140.851 164.05 140.471 163.917 140.204 163.65C139.937 163.383 139.804 163.007 139.804 162.52V159.34H138.864V158.74H139.804V157.59H140.514V158.74H142.114V159.34H140.514V162.48C140.514 162.793 140.591 163.033 140.744 163.2C140.904 163.36 141.131 163.44 141.424 163.44C141.571 163.44 141.711 163.417 141.844 163.37C141.984 163.323 142.104 163.257 142.204 163.17L142.454 163.68ZM145.711 164.05C145.204 164.05 144.747 163.937 144.341 163.71C143.934 163.477 143.614 163.157 143.381 162.75C143.147 162.343 143.031 161.883 143.031 161.37C143.031 160.857 143.147 160.397 143.381 159.99C143.614 159.583 143.934 159.267 144.341 159.04C144.747 158.813 145.204 158.7 145.711 158.7C146.217 158.7 146.674 158.813 147.081 159.04C147.487 159.267 147.804 159.583 148.031 159.99C148.264 160.397 148.381 160.857 148.381 161.37C148.381 161.883 148.264 162.343 148.031 162.75C147.804 163.157 147.487 163.477 147.081 163.71C146.674 163.937 146.217 164.05 145.711 164.05ZM145.711 163.42C146.084 163.42 146.417 163.337 146.711 163.17C147.011 162.997 147.244 162.753 147.411 162.44C147.577 162.127 147.661 161.77 147.661 161.37C147.661 160.97 147.577 160.613 147.411 160.3C147.244 159.987 147.011 159.747 146.711 159.58C146.417 159.407 146.084 159.32 145.711 159.32C145.337 159.32 145.001 159.407 144.701 159.58C144.407 159.747 144.174 159.987 144.001 160.3C143.834 160.613 143.751 160.97 143.751 161.37C143.751 161.77 143.834 162.127 144.001 162.44C144.174 162.753 144.407 162.997 144.701 163.17C145.001 163.337 145.337 163.42 145.711 163.42ZM153.128 159.77C153.294 159.417 153.541 159.15 153.868 158.97C154.201 158.79 154.611 158.7 155.098 158.7V159.39L154.928 159.38C154.374 159.38 153.941 159.55 153.628 159.89C153.314 160.23 153.158 160.707 153.158 161.32V164H152.448V158.74H153.128V159.77ZM161.201 158.74V164H160.521V163.04C160.335 163.36 160.078 163.61 159.751 163.79C159.425 163.963 159.051 164.05 158.631 164.05C157.945 164.05 157.401 163.86 157.001 163.48C156.608 163.093 156.411 162.53 156.411 161.79V158.74H157.121V161.72C157.121 162.273 157.258 162.693 157.531 162.98C157.805 163.267 158.195 163.41 158.701 163.41C159.255 163.41 159.691 163.243 160.011 162.91C160.331 162.57 160.491 162.1 160.491 161.5V158.74H161.201ZM165.87 158.7C166.53 158.7 167.053 158.893 167.44 159.28C167.833 159.66 168.03 160.217 168.03 160.95V164H167.32V161.02C167.32 160.473 167.183 160.057 166.91 159.77C166.636 159.483 166.246 159.34 165.74 159.34C165.173 159.34 164.723 159.51 164.39 159.85C164.063 160.183 163.9 160.647 163.9 161.24V164H163.19V158.74H163.87V159.71C164.063 159.39 164.33 159.143 164.67 158.97C165.016 158.79 165.416 158.7 165.87 158.7ZM172.637 158.7C173.297 158.7 173.821 158.893 174.207 159.28C174.601 159.66 174.797 160.217 174.797 160.95V164H174.087V161.02C174.087 160.473 173.951 160.057 173.677 159.77C173.404 159.483 173.014 159.34 172.507 159.34C171.941 159.34 171.491 159.51 171.157 159.85C170.831 160.183 170.667 160.647 170.667 161.24V164H169.957V158.74H170.637V159.71C170.831 159.39 171.097 159.143 171.437 158.97C171.784 158.79 172.184 158.7 172.637 158.7ZM176.725 158.74H177.435V164H176.725V158.74ZM177.085 157.59C176.938 157.59 176.815 157.54 176.715 157.44C176.615 157.34 176.565 157.22 176.565 157.08C176.565 156.947 176.615 156.83 176.715 156.73C176.815 156.63 176.938 156.58 177.085 156.58C177.232 156.58 177.355 156.63 177.455 156.73C177.555 156.823 177.605 156.937 177.605 157.07C177.605 157.217 177.555 157.34 177.455 157.44C177.355 157.54 177.232 157.59 177.085 157.59ZM182.09 158.7C182.75 158.7 183.274 158.893 183.66 159.28C184.054 159.66 184.25 160.217 184.25 160.95V164H183.54V161.02C183.54 160.473 183.404 160.057 183.13 159.77C182.857 159.483 182.467 159.34 181.96 159.34C181.394 159.34 180.944 159.51 180.61 159.85C180.284 160.183 180.12 160.647 180.12 161.24V164H179.41V158.74H180.09V159.71C180.284 159.39 180.55 159.143 180.89 158.97C181.237 158.79 181.637 158.7 182.09 158.7ZM191.068 158.74V163.36C191.068 164.253 190.848 164.913 190.408 165.34C189.974 165.773 189.318 165.99 188.438 165.99C187.951 165.99 187.488 165.917 187.048 165.77C186.614 165.63 186.261 165.433 185.988 165.18L186.348 164.64C186.601 164.867 186.908 165.043 187.268 165.17C187.634 165.297 188.018 165.36 188.418 165.36C189.084 165.36 189.574 165.203 189.888 164.89C190.201 164.583 190.358 164.103 190.358 163.45V162.78C190.138 163.113 189.848 163.367 189.488 163.54C189.134 163.713 188.741 163.8 188.308 163.8C187.814 163.8 187.364 163.693 186.958 163.48C186.558 163.26 186.241 162.957 186.008 162.57C185.781 162.177 185.668 161.733 185.668 161.24C185.668 160.747 185.781 160.307 186.008 159.92C186.241 159.533 186.558 159.233 186.958 159.02C187.358 158.807 187.808 158.7 188.308 158.7C188.754 158.7 189.158 158.79 189.518 158.97C189.878 159.15 190.168 159.41 190.388 159.75V158.74H191.068ZM188.378 163.17C188.758 163.17 189.101 163.09 189.408 162.93C189.714 162.763 189.951 162.533 190.118 162.24C190.291 161.947 190.378 161.613 190.378 161.24C190.378 160.867 190.291 160.537 190.118 160.25C189.951 159.957 189.714 159.73 189.408 159.57C189.108 159.403 188.764 159.32 188.378 159.32C187.998 159.32 187.654 159.4 187.348 159.56C187.048 159.72 186.811 159.947 186.638 160.24C186.471 160.533 186.388 160.867 186.388 161.24C186.388 161.613 186.471 161.947 186.638 162.24C186.811 162.533 187.048 162.763 187.348 162.93C187.654 163.09 187.998 163.17 188.378 163.17ZM197.51 158.7C198.197 158.7 198.724 158.873 199.09 159.22C199.457 159.56 199.64 160.067 199.64 160.74V164H198.96V163.18C198.8 163.453 198.564 163.667 198.25 163.82C197.944 163.973 197.577 164.05 197.15 164.05C196.564 164.05 196.097 163.91 195.75 163.63C195.404 163.35 195.23 162.98 195.23 162.52C195.23 162.073 195.39 161.713 195.71 161.44C196.037 161.167 196.554 161.03 197.26 161.03H198.93V160.71C198.93 160.257 198.804 159.913 198.55 159.68C198.297 159.44 197.927 159.32 197.44 159.32C197.107 159.32 196.787 159.377 196.48 159.49C196.174 159.597 195.91 159.747 195.69 159.94L195.37 159.41C195.637 159.183 195.957 159.01 196.33 158.89C196.704 158.763 197.097 158.7 197.51 158.7ZM197.26 163.49C197.66 163.49 198.004 163.4 198.29 163.22C198.577 163.033 198.79 162.767 198.93 162.42V161.56H197.28C196.38 161.56 195.93 161.873 195.93 162.5C195.93 162.807 196.047 163.05 196.28 163.23C196.514 163.403 196.84 163.49 197.26 163.49ZM206.866 158.7C207.526 158.7 208.049 158.893 208.436 159.28C208.829 159.66 209.026 160.217 209.026 160.95V164H208.316V161.02C208.316 160.473 208.179 160.057 207.906 159.77C207.632 159.483 207.242 159.34 206.736 159.34C206.169 159.34 205.719 159.51 205.386 159.85C205.059 160.183 204.896 160.647 204.896 161.24V164H204.186V158.74H204.866V159.71C205.059 159.39 205.326 159.143 205.666 158.97C206.012 158.79 206.412 158.7 206.866 158.7ZM213.123 164.05C212.616 164.05 212.16 163.937 211.753 163.71C211.346 163.477 211.026 163.157 210.793 162.75C210.56 162.343 210.443 161.883 210.443 161.37C210.443 160.857 210.56 160.397 210.793 159.99C211.026 159.583 211.346 159.267 211.753 159.04C212.16 158.813 212.616 158.7 213.123 158.7C213.63 158.7 214.086 158.813 214.493 159.04C214.9 159.267 215.216 159.583 215.443 159.99C215.676 160.397 215.793 160.857 215.793 161.37C215.793 161.883 215.676 162.343 215.443 162.75C215.216 163.157 214.9 163.477 214.493 163.71C214.086 163.937 213.63 164.05 213.123 164.05ZM213.123 163.42C213.496 163.42 213.83 163.337 214.123 163.17C214.423 162.997 214.656 162.753 214.823 162.44C214.99 162.127 215.073 161.77 215.073 161.37C215.073 160.97 214.99 160.613 214.823 160.3C214.656 159.987 214.423 159.747 214.123 159.58C213.83 159.407 213.496 159.32 213.123 159.32C212.75 159.32 212.413 159.407 212.113 159.58C211.82 159.747 211.586 159.987 211.413 160.3C211.246 160.613 211.163 160.97 211.163 161.37C211.163 161.77 211.246 162.127 211.413 162.44C211.586 162.753 211.82 162.997 212.113 163.17C212.413 163.337 212.75 163.42 213.123 163.42ZM222.042 156.58V164H221.362V162.96C221.149 163.313 220.866 163.583 220.512 163.77C220.166 163.957 219.772 164.05 219.332 164.05C218.839 164.05 218.392 163.937 217.992 163.71C217.592 163.483 217.279 163.167 217.052 162.76C216.826 162.353 216.712 161.89 216.712 161.37C216.712 160.85 216.826 160.387 217.052 159.98C217.279 159.573 217.592 159.26 217.992 159.04C218.392 158.813 218.839 158.7 219.332 158.7C219.759 158.7 220.142 158.79 220.482 158.97C220.829 159.143 221.112 159.4 221.332 159.74V156.58H222.042ZM219.392 163.42C219.759 163.42 220.089 163.337 220.382 163.17C220.682 162.997 220.916 162.753 221.082 162.44C221.256 162.127 221.342 161.77 221.342 161.37C221.342 160.97 221.256 160.613 221.082 160.3C220.916 159.987 220.682 159.747 220.382 159.58C220.089 159.407 219.759 159.32 219.392 159.32C219.019 159.32 218.682 159.407 218.382 159.58C218.089 159.747 217.856 159.987 217.682 160.3C217.516 160.613 217.432 160.97 217.432 161.37C217.432 161.77 217.516 162.127 217.682 162.44C217.856 162.753 218.089 162.997 218.382 163.17C218.682 163.337 219.019 163.42 219.392 163.42ZM228.6 161.59H224.2C224.24 162.137 224.45 162.58 224.83 162.92C225.21 163.253 225.69 163.42 226.27 163.42C226.596 163.42 226.896 163.363 227.17 163.25C227.443 163.13 227.68 162.957 227.88 162.73L228.28 163.19C228.046 163.47 227.753 163.683 227.4 163.83C227.053 163.977 226.67 164.05 226.25 164.05C225.71 164.05 225.23 163.937 224.81 163.71C224.396 163.477 224.073 163.157 223.84 162.75C223.606 162.343 223.49 161.883 223.49 161.37C223.49 160.857 223.6 160.397 223.82 159.99C224.046 159.583 224.353 159.267 224.74 159.04C225.133 158.813 225.573 158.7 226.06 158.7C226.546 158.7 226.983 158.813 227.37 159.04C227.756 159.267 228.06 159.583 228.28 159.99C228.5 160.39 228.61 160.85 228.61 161.37L228.6 161.59ZM226.06 159.31C225.553 159.31 225.126 159.473 224.78 159.8C224.44 160.12 224.246 160.54 224.2 161.06H227.93C227.883 160.54 227.686 160.12 227.34 159.8C227 159.473 226.573 159.31 226.06 159.31ZM230.125 164.05C229.978 164.05 229.852 163.997 229.745 163.89C229.645 163.783 229.595 163.653 229.595 163.5C229.595 163.347 229.645 163.22 229.745 163.12C229.852 163.013 229.978 162.96 230.125 162.96C230.272 162.96 230.398 163.013 230.505 163.12C230.612 163.22 230.665 163.347 230.665 163.5C230.665 163.653 230.612 163.783 230.505 163.89C230.398 163.997 230.272 164.05 230.125 164.05ZM46.2056 176L44.6056 173.75C44.4256 173.77 44.239 173.78 44.0456 173.78H42.1656V176H41.4256V169H44.0456C44.939 169 45.639 169.213 46.1456 169.64C46.6523 170.067 46.9056 170.653 46.9056 171.4C46.9056 171.947 46.7656 172.41 46.4856 172.79C46.2123 173.163 45.819 173.433 45.3056 173.6L47.0156 176H46.2056ZM44.0256 173.15C44.719 173.15 45.249 172.997 45.6156 172.69C45.9823 172.383 46.1656 171.953 46.1656 171.4C46.1656 170.833 45.9823 170.4 45.6156 170.1C45.249 169.793 44.719 169.64 44.0256 169.64H42.1656V173.15H44.0256ZM53.0822 173.59H48.6822C48.7222 174.137 48.9322 174.58 49.3122 174.92C49.6922 175.253 50.1722 175.42 50.7522 175.42C51.0789 175.42 51.3789 175.363 51.6522 175.25C51.9255 175.13 52.1622 174.957 52.3622 174.73L52.7622 175.19C52.5289 175.47 52.2355 175.683 51.8822 175.83C51.5355 175.977 51.1522 176.05 50.7322 176.05C50.1922 176.05 49.7122 175.937 49.2922 175.71C48.8789 175.477 48.5555 175.157 48.3222 174.75C48.0889 174.343 47.9722 173.883 47.9722 173.37C47.9722 172.857 48.0822 172.397 48.3022 171.99C48.5289 171.583 48.8355 171.267 49.2222 171.04C49.6155 170.813 50.0555 170.7 50.5422 170.7C51.0289 170.7 51.4655 170.813 51.8522 171.04C52.2389 171.267 52.5422 171.583 52.7622 171.99C52.9822 172.39 53.0922 172.85 53.0922 173.37L53.0822 173.59ZM50.5422 171.31C50.0355 171.31 49.6089 171.473 49.2622 171.8C48.9222 172.12 48.7289 172.54 48.6822 173.06H52.4122C52.3655 172.54 52.1689 172.12 51.8222 171.8C51.4822 171.473 51.0555 171.31 50.5422 171.31ZM59.3374 170.74V177.94H58.6274V175.01C58.4074 175.35 58.124 175.61 57.7774 175.79C57.4374 175.963 57.054 176.05 56.6274 176.05C56.1274 176.05 55.6774 175.94 55.2774 175.72C54.884 175.493 54.574 175.177 54.3474 174.77C54.1207 174.363 54.0074 173.897 54.0074 173.37C54.0074 172.85 54.1207 172.387 54.3474 171.98C54.574 171.573 54.8874 171.26 55.2874 171.04C55.6874 170.813 56.134 170.7 56.6274 170.7C57.0674 170.7 57.4607 170.793 57.8074 170.98C58.1607 171.167 58.444 171.433 58.6574 171.78V170.74H59.3374ZM56.6874 175.42C57.054 175.42 57.384 175.337 57.6774 175.17C57.9774 174.997 58.2107 174.753 58.3774 174.44C58.5507 174.127 58.6374 173.77 58.6374 173.37C58.6374 172.97 58.5507 172.617 58.3774 172.31C58.2107 171.997 57.9774 171.753 57.6774 171.58C57.384 171.407 57.054 171.32 56.6874 171.32C56.314 171.32 55.9774 171.407 55.6774 171.58C55.384 171.753 55.1507 171.997 54.9774 172.31C54.8107 172.617 54.7274 172.97 54.7274 173.37C54.7274 173.77 54.8107 174.127 54.9774 174.44C55.1507 174.753 55.384 174.997 55.6774 175.17C55.9774 175.337 56.314 175.42 56.6874 175.42ZM66.0547 170.74V176H65.3747V175.04C65.188 175.36 64.9314 175.61 64.6047 175.79C64.278 175.963 63.9047 176.05 63.4847 176.05C62.798 176.05 62.2547 175.86 61.8547 175.48C61.4614 175.093 61.2647 174.53 61.2647 173.79V170.74H61.9747V173.72C61.9747 174.273 62.1114 174.693 62.3847 174.98C62.658 175.267 63.048 175.41 63.5547 175.41C64.108 175.41 64.5447 175.243 64.8647 174.91C65.1847 174.57 65.3447 174.1 65.3447 173.5V170.74H66.0547ZM68.0432 170.74H68.7532V176H68.0432V170.74ZM68.4032 169.59C68.2566 169.59 68.1332 169.54 68.0332 169.44C67.9332 169.34 67.8832 169.22 67.8832 169.08C67.8832 168.947 67.9332 168.83 68.0332 168.73C68.1332 168.63 68.2566 168.58 68.4032 168.58C68.5499 168.58 68.6732 168.63 68.7732 168.73C68.8732 168.823 68.9232 168.937 68.9232 169.07C68.9232 169.217 68.8732 169.34 68.7732 169.44C68.6732 169.54 68.5499 169.59 68.4032 169.59ZM71.4088 171.77C71.5754 171.417 71.8221 171.15 72.1488 170.97C72.4821 170.79 72.8921 170.7 73.3788 170.7V171.39L73.2088 171.38C72.6554 171.38 72.2221 171.55 71.9088 171.89C71.5954 172.23 71.4388 172.707 71.4388 173.32V176H70.7288V170.74H71.4088V171.77ZM79.1955 173.59H74.7955C74.8355 174.137 75.0455 174.58 75.4255 174.92C75.8055 175.253 76.2855 175.42 76.8655 175.42C77.1922 175.42 77.4922 175.363 77.7655 175.25C78.0388 175.13 78.2755 174.957 78.4755 174.73L78.8755 175.19C78.6422 175.47 78.3488 175.683 77.9955 175.83C77.6488 175.977 77.2655 176.05 76.8455 176.05C76.3055 176.05 75.8255 175.937 75.4055 175.71C74.9922 175.477 74.6688 175.157 74.4355 174.75C74.2022 174.343 74.0855 173.883 74.0855 173.37C74.0855 172.857 74.1955 172.397 74.4155 171.99C74.6422 171.583 74.9488 171.267 75.3355 171.04C75.7288 170.813 76.1688 170.7 76.6555 170.7C77.1422 170.7 77.5788 170.813 77.9655 171.04C78.3522 171.267 78.6555 171.583 78.8755 171.99C79.0955 172.39 79.2055 172.85 79.2055 173.37L79.1955 173.59ZM76.6555 171.31C76.1488 171.31 75.7222 171.473 75.3755 171.8C75.0355 172.12 74.8422 172.54 74.7955 173.06H78.5255C78.4788 172.54 78.2822 172.12 77.9355 171.8C77.5955 171.473 77.1688 171.31 76.6555 171.31ZM87.2106 170.7C87.8706 170.7 88.3873 170.89 88.7606 171.27C89.1406 171.65 89.3306 172.21 89.3306 172.95V176H88.6206V173.02C88.6206 172.473 88.4873 172.057 88.2206 171.77C87.9606 171.483 87.5906 171.34 87.1106 171.34C86.564 171.34 86.134 171.51 85.8206 171.85C85.5073 172.183 85.3506 172.647 85.3506 173.24V176H84.6406V173.02C84.6406 172.473 84.5073 172.057 84.2406 171.77C83.9806 171.483 83.6073 171.34 83.1206 171.34C82.5806 171.34 82.1506 171.51 81.8306 171.85C81.5173 172.183 81.3606 172.647 81.3606 173.24V176H80.6506V170.74H81.3306V171.7C81.5173 171.38 81.7773 171.133 82.1106 170.96C82.444 170.787 82.8273 170.7 83.2606 170.7C83.7006 170.7 84.0806 170.793 84.4006 170.98C84.7273 171.167 84.9706 171.443 85.1306 171.81C85.324 171.463 85.6006 171.193 85.9606 171C86.3273 170.8 86.744 170.7 87.2106 170.7ZM95.8556 173.59H91.4556C91.4956 174.137 91.7056 174.58 92.0856 174.92C92.4656 175.253 92.9456 175.42 93.5256 175.42C93.8523 175.42 94.1523 175.363 94.4256 175.25C94.699 175.13 94.9356 174.957 95.1356 174.73L95.5356 175.19C95.3023 175.47 95.009 175.683 94.6556 175.83C94.309 175.977 93.9256 176.05 93.5056 176.05C92.9656 176.05 92.4856 175.937 92.0656 175.71C91.6523 175.477 91.329 175.157 91.0956 174.75C90.8623 174.343 90.7456 173.883 90.7456 173.37C90.7456 172.857 90.8556 172.397 91.0756 171.99C91.3023 171.583 91.609 171.267 91.9956 171.04C92.389 170.813 92.829 170.7 93.3156 170.7C93.8023 170.7 94.239 170.813 94.6256 171.04C95.0123 171.267 95.3156 171.583 95.5356 171.99C95.7556 172.39 95.8656 172.85 95.8656 173.37L95.8556 173.59ZM93.3156 171.31C92.809 171.31 92.3823 171.473 92.0356 171.8C91.6956 172.12 91.5023 172.54 91.4556 173.06H95.1856C95.139 172.54 94.9423 172.12 94.5956 171.8C94.2556 171.473 93.829 171.31 93.3156 171.31ZM99.9908 170.7C100.651 170.7 101.174 170.893 101.561 171.28C101.954 171.66 102.151 172.217 102.151 172.95V176H101.441V173.02C101.441 172.473 101.304 172.057 101.031 171.77C100.757 171.483 100.367 171.34 99.8608 171.34C99.2941 171.34 98.8441 171.51 98.5108 171.85C98.1841 172.183 98.0208 172.647 98.0208 173.24V176H97.3108V170.74H97.9908V171.71C98.1841 171.39 98.4508 171.143 98.7908 170.97C99.1375 170.79 99.5375 170.7 99.9908 170.7ZM106.848 175.68C106.715 175.8 106.548 175.893 106.348 175.96C106.155 176.02 105.952 176.05 105.738 176.05C105.245 176.05 104.865 175.917 104.598 175.65C104.332 175.383 104.198 175.007 104.198 174.52V171.34H103.258V170.74H104.198V169.59H104.908V170.74H106.508V171.34H104.908V174.48C104.908 174.793 104.985 175.033 105.138 175.2C105.298 175.36 105.525 175.44 105.818 175.44C105.965 175.44 106.105 175.417 106.238 175.37C106.378 175.323 106.498 175.257 106.598 175.17L106.848 175.68ZM109.551 176.05C109.124 176.05 108.714 175.99 108.321 175.87C107.934 175.743 107.631 175.587 107.411 175.4L107.731 174.84C107.951 175.013 108.228 175.157 108.561 175.27C108.894 175.377 109.241 175.43 109.601 175.43C110.081 175.43 110.434 175.357 110.661 175.21C110.894 175.057 111.011 174.843 111.011 174.57C111.011 174.377 110.948 174.227 110.821 174.12C110.694 174.007 110.534 173.923 110.341 173.87C110.148 173.81 109.891 173.753 109.571 173.7C109.144 173.62 108.801 173.54 108.541 173.46C108.281 173.373 108.058 173.23 107.871 173.03C107.691 172.83 107.601 172.553 107.601 172.2C107.601 171.76 107.784 171.4 108.151 171.12C108.518 170.84 109.028 170.7 109.681 170.7C110.021 170.7 110.361 170.747 110.701 170.84C111.041 170.927 111.321 171.043 111.541 171.19L111.231 171.76C110.798 171.46 110.281 171.31 109.681 171.31C109.228 171.31 108.884 171.39 108.651 171.55C108.424 171.71 108.311 171.92 108.311 172.18C108.311 172.38 108.374 172.54 108.501 172.66C108.634 172.78 108.798 172.87 108.991 172.93C109.184 172.983 109.451 173.04 109.791 173.1C110.211 173.18 110.548 173.26 110.801 173.34C111.054 173.42 111.271 173.557 111.451 173.75C111.631 173.943 111.721 174.21 111.721 174.55C111.721 175.01 111.528 175.377 111.141 175.65C110.761 175.917 110.231 176.05 109.551 176.05ZM113.113 174.96C113.267 174.96 113.393 175.013 113.493 175.12C113.593 175.22 113.643 175.347 113.643 175.5C113.643 175.58 113.63 175.667 113.603 175.76C113.583 175.853 113.55 175.96 113.503 176.08L113.083 177.46H112.603L112.943 176.01C112.837 175.977 112.75 175.917 112.683 175.83C112.617 175.737 112.583 175.627 112.583 175.5C112.583 175.347 112.633 175.22 112.733 175.12C112.833 175.013 112.96 174.96 113.113 174.96ZM117.77 170.74H118.48V176H117.77V170.74ZM118.13 169.59C117.983 169.59 117.86 169.54 117.76 169.44C117.66 169.34 117.61 169.22 117.61 169.08C117.61 168.947 117.66 168.83 117.76 168.73C117.86 168.63 117.983 168.58 118.13 168.58C118.276 168.58 118.4 168.63 118.5 168.73C118.6 168.823 118.65 168.937 118.65 169.07C118.65 169.217 118.6 169.34 118.5 169.44C118.4 169.54 118.276 169.59 118.13 169.59ZM123.135 170.7C123.795 170.7 124.319 170.893 124.705 171.28C125.099 171.66 125.295 172.217 125.295 172.95V176H124.585V173.02C124.585 172.473 124.449 172.057 124.175 171.77C123.902 171.483 123.512 171.34 123.005 171.34C122.439 171.34 121.989 171.51 121.655 171.85C121.329 172.183 121.165 172.647 121.165 173.24V176H120.455V170.74H121.135V171.71C121.329 171.39 121.595 171.143 121.935 170.97C122.282 170.79 122.682 170.7 123.135 170.7ZM128.633 176.05C128.206 176.05 127.796 175.99 127.403 175.87C127.016 175.743 126.713 175.587 126.493 175.4L126.813 174.84C127.033 175.013 127.31 175.157 127.643 175.27C127.976 175.377 128.323 175.43 128.683 175.43C129.163 175.43 129.516 175.357 129.743 175.21C129.976 175.057 130.093 174.843 130.093 174.57C130.093 174.377 130.03 174.227 129.903 174.12C129.776 174.007 129.616 173.923 129.423 173.87C129.23 173.81 128.973 173.753 128.653 173.7C128.226 173.62 127.883 173.54 127.623 173.46C127.363 173.373 127.14 173.23 126.953 173.03C126.773 172.83 126.683 172.553 126.683 172.2C126.683 171.76 126.866 171.4 127.233 171.12C127.6 170.84 128.11 170.7 128.763 170.7C129.103 170.7 129.443 170.747 129.783 170.84C130.123 170.927 130.403 171.043 130.623 171.19L130.313 171.76C129.88 171.46 129.363 171.31 128.763 171.31C128.31 171.31 127.966 171.39 127.733 171.55C127.506 171.71 127.393 171.92 127.393 172.18C127.393 172.38 127.456 172.54 127.583 172.66C127.716 172.78 127.88 172.87 128.073 172.93C128.266 172.983 128.533 173.04 128.873 173.1C129.293 173.18 129.63 173.26 129.883 173.34C130.136 173.42 130.353 173.557 130.533 173.75C130.713 173.943 130.803 174.21 130.803 174.55C130.803 175.01 130.61 175.377 130.223 175.65C129.843 175.917 129.313 176.05 128.633 176.05ZM134.885 175.68C134.752 175.8 134.585 175.893 134.385 175.96C134.192 176.02 133.989 176.05 133.775 176.05C133.282 176.05 132.902 175.917 132.635 175.65C132.369 175.383 132.235 175.007 132.235 174.52V171.34H131.295V170.74H132.235V169.59H132.945V170.74H134.545V171.34H132.945V174.48C132.945 174.793 133.022 175.033 133.175 175.2C133.335 175.36 133.562 175.44 133.855 175.44C134.002 175.44 134.142 175.417 134.275 175.37C134.415 175.323 134.535 175.257 134.635 175.17L134.885 175.68ZM136.858 171.77C137.025 171.417 137.271 171.15 137.598 170.97C137.931 170.79 138.341 170.7 138.828 170.7V171.39L138.658 171.38C138.105 171.38 137.671 171.55 137.358 171.89C137.045 172.23 136.888 172.707 136.888 173.32V176H136.178V170.74H136.858V171.77ZM144.932 170.74V176H144.252V175.04C144.065 175.36 143.808 175.61 143.482 175.79C143.155 175.963 142.782 176.05 142.362 176.05C141.675 176.05 141.132 175.86 140.732 175.48C140.338 175.093 140.142 174.53 140.142 173.79V170.74H140.852V173.72C140.852 174.273 140.988 174.693 141.262 174.98C141.535 175.267 141.925 175.41 142.432 175.41C142.985 175.41 143.422 175.243 143.742 174.91C144.062 174.57 144.222 174.1 144.222 173.5V170.74H144.932ZM149.1 176.05C148.58 176.05 148.114 175.937 147.7 175.71C147.294 175.483 146.974 175.167 146.74 174.76C146.507 174.347 146.39 173.883 146.39 173.37C146.39 172.857 146.507 172.397 146.74 171.99C146.974 171.583 147.294 171.267 147.7 171.04C148.114 170.813 148.58 170.7 149.1 170.7C149.554 170.7 149.957 170.79 150.31 170.97C150.67 171.143 150.954 171.4 151.16 171.74L150.63 172.1C150.457 171.84 150.237 171.647 149.97 171.52C149.704 171.387 149.414 171.32 149.1 171.32C148.72 171.32 148.377 171.407 148.07 171.58C147.77 171.747 147.534 171.987 147.36 172.3C147.194 172.613 147.11 172.97 147.11 173.37C147.11 173.777 147.194 174.137 147.36 174.45C147.534 174.757 147.77 174.997 148.07 175.17C148.377 175.337 148.72 175.42 149.1 175.42C149.414 175.42 149.704 175.357 149.97 175.23C150.237 175.103 150.457 174.91 150.63 174.65L151.16 175.01C150.954 175.35 150.67 175.61 150.31 175.79C149.95 175.963 149.547 176.05 149.1 176.05ZM155.384 175.68C155.25 175.8 155.084 175.893 154.884 175.96C154.69 176.02 154.487 176.05 154.274 176.05C153.78 176.05 153.4 175.917 153.134 175.65C152.867 175.383 152.734 175.007 152.734 174.52V171.34H151.794V170.74H152.734V169.59H153.444V170.74H155.044V171.34H153.444V174.48C153.444 174.793 153.52 175.033 153.674 175.2C153.834 175.36 154.06 175.44 154.354 175.44C154.5 175.44 154.64 175.417 154.774 175.37C154.914 175.323 155.034 175.257 155.134 175.17L155.384 175.68ZM156.676 170.74H157.386V176H156.676V170.74ZM157.036 169.59C156.889 169.59 156.766 169.54 156.666 169.44C156.566 169.34 156.516 169.22 156.516 169.08C156.516 168.947 156.566 168.83 156.666 168.73C156.766 168.63 156.889 168.58 157.036 168.58C157.183 168.58 157.306 168.63 157.406 168.73C157.506 168.823 157.556 168.937 157.556 169.07C157.556 169.217 157.506 169.34 157.406 169.44C157.306 169.54 157.183 169.59 157.036 169.59ZM161.512 176.05C161.005 176.05 160.548 175.937 160.142 175.71C159.735 175.477 159.415 175.157 159.182 174.75C158.948 174.343 158.832 173.883 158.832 173.37C158.832 172.857 158.948 172.397 159.182 171.99C159.415 171.583 159.735 171.267 160.142 171.04C160.548 170.813 161.005 170.7 161.512 170.7C162.018 170.7 162.475 170.813 162.882 171.04C163.288 171.267 163.605 171.583 163.832 171.99C164.065 172.397 164.182 172.857 164.182 173.37C164.182 173.883 164.065 174.343 163.832 174.75C163.605 175.157 163.288 175.477 162.882 175.71C162.475 175.937 162.018 176.05 161.512 176.05ZM161.512 175.42C161.885 175.42 162.218 175.337 162.512 175.17C162.812 174.997 163.045 174.753 163.212 174.44C163.378 174.127 163.462 173.77 163.462 173.37C163.462 172.97 163.378 172.613 163.212 172.3C163.045 171.987 162.812 171.747 162.512 171.58C162.218 171.407 161.885 171.32 161.512 171.32C161.138 171.32 160.802 171.407 160.502 171.58C160.208 171.747 159.975 171.987 159.802 172.3C159.635 172.613 159.552 172.97 159.552 173.37C159.552 173.77 159.635 174.127 159.802 174.44C159.975 174.753 160.208 174.997 160.502 175.17C160.802 175.337 161.138 175.42 161.512 175.42ZM168.311 170.7C168.971 170.7 169.494 170.893 169.881 171.28C170.274 171.66 170.471 172.217 170.471 172.95V176H169.761V173.02C169.761 172.473 169.624 172.057 169.351 171.77C169.078 171.483 168.688 171.34 168.181 171.34C167.614 171.34 167.164 171.51 166.831 171.85C166.504 172.183 166.341 172.647 166.341 173.24V176H165.631V170.74H166.311V171.71C166.504 171.39 166.771 171.143 167.111 170.97C167.458 170.79 167.858 170.7 168.311 170.7ZM173.809 176.05C173.382 176.05 172.972 175.99 172.579 175.87C172.192 175.743 171.889 175.587 171.669 175.4L171.989 174.84C172.209 175.013 172.485 175.157 172.819 175.27C173.152 175.377 173.499 175.43 173.859 175.43C174.339 175.43 174.692 175.357 174.919 175.21C175.152 175.057 175.269 174.843 175.269 174.57C175.269 174.377 175.205 174.227 175.079 174.12C174.952 174.007 174.792 173.923 174.599 173.87C174.405 173.81 174.149 173.753 173.829 173.7C173.402 173.62 173.059 173.54 172.799 173.46C172.539 173.373 172.315 173.23 172.129 173.03C171.949 172.83 171.859 172.553 171.859 172.2C171.859 171.76 172.042 171.4 172.409 171.12C172.775 170.84 173.285 170.7 173.939 170.7C174.279 170.7 174.619 170.747 174.959 170.84C175.299 170.927 175.579 171.043 175.799 171.19L175.489 171.76C175.055 171.46 174.539 171.31 173.939 171.31C173.485 171.31 173.142 171.39 172.909 171.55C172.682 171.71 172.569 171.92 172.569 172.18C172.569 172.38 172.632 172.54 172.759 172.66C172.892 172.78 173.055 172.87 173.249 172.93C173.442 172.983 173.709 173.04 174.049 173.1C174.469 173.18 174.805 173.26 175.059 173.34C175.312 173.42 175.529 173.557 175.709 173.75C175.889 173.943 175.979 174.21 175.979 174.55C175.979 175.01 175.785 175.377 175.399 175.65C175.019 175.917 174.489 176.05 173.809 176.05ZM181.748 170.7C182.435 170.7 182.962 170.873 183.328 171.22C183.695 171.56 183.878 172.067 183.878 172.74V176H183.198V175.18C183.038 175.453 182.802 175.667 182.488 175.82C182.182 175.973 181.815 176.05 181.388 176.05C180.802 176.05 180.335 175.91 179.988 175.63C179.642 175.35 179.468 174.98 179.468 174.52C179.468 174.073 179.628 173.713 179.948 173.44C180.275 173.167 180.792 173.03 181.498 173.03H183.168V172.71C183.168 172.257 183.042 171.913 182.788 171.68C182.535 171.44 182.165 171.32 181.678 171.32C181.345 171.32 181.025 171.377 180.718 171.49C180.412 171.597 180.148 171.747 179.928 171.94L179.608 171.41C179.875 171.183 180.195 171.01 180.568 170.89C180.942 170.763 181.335 170.7 181.748 170.7ZM181.498 175.49C181.898 175.49 182.242 175.4 182.528 175.22C182.815 175.033 183.028 174.767 183.168 174.42V173.56H181.518C180.618 173.56 180.168 173.873 180.168 174.5C180.168 174.807 180.285 175.05 180.518 175.23C180.752 175.403 181.078 175.49 181.498 175.49ZM188.487 170.7C189.147 170.7 189.67 170.893 190.057 171.28C190.45 171.66 190.647 172.217 190.647 172.95V176H189.937V173.02C189.937 172.473 189.8 172.057 189.527 171.77C189.254 171.483 188.864 171.34 188.357 171.34C187.79 171.34 187.34 171.51 187.007 171.85C186.68 172.183 186.517 172.647 186.517 173.24V176H185.807V170.74H186.487V171.71C186.68 171.39 186.947 171.143 187.287 170.97C187.634 170.79 188.034 170.7 188.487 170.7ZM197.394 168.58V176H196.714V174.96C196.501 175.313 196.217 175.583 195.864 175.77C195.517 175.957 195.124 176.05 194.684 176.05C194.191 176.05 193.744 175.937 193.344 175.71C192.944 175.483 192.631 175.167 192.404 174.76C192.177 174.353 192.064 173.89 192.064 173.37C192.064 172.85 192.177 172.387 192.404 171.98C192.631 171.573 192.944 171.26 193.344 171.04C193.744 170.813 194.191 170.7 194.684 170.7C195.111 170.7 195.494 170.79 195.834 170.97C196.181 171.143 196.464 171.4 196.684 171.74V168.58H197.394ZM194.744 175.42C195.111 175.42 195.441 175.337 195.734 175.17C196.034 174.997 196.267 174.753 196.434 174.44C196.607 174.127 196.694 173.77 196.694 173.37C196.694 172.97 196.607 172.613 196.434 172.3C196.267 171.987 196.034 171.747 195.734 171.58C195.441 171.407 195.111 171.32 194.744 171.32C194.371 171.32 194.034 171.407 193.734 171.58C193.441 171.747 193.207 171.987 193.034 172.3C192.867 172.613 192.784 172.97 192.784 173.37C192.784 173.77 192.867 174.127 193.034 174.44C193.207 174.753 193.441 174.997 193.734 175.17C194.034 175.337 194.371 175.42 194.744 175.42ZM204.699 170.7C205.192 170.7 205.639 170.813 206.039 171.04C206.439 171.26 206.752 171.573 206.979 171.98C207.205 172.387 207.319 172.85 207.319 173.37C207.319 173.89 207.205 174.353 206.979 174.76C206.752 175.167 206.439 175.483 206.039 175.71C205.639 175.937 205.192 176.05 204.699 176.05C204.259 176.05 203.862 175.957 203.509 175.77C203.162 175.583 202.882 175.313 202.669 174.96V176H201.989V168.58H202.699V171.74C202.919 171.4 203.199 171.143 203.539 170.97C203.885 170.79 204.272 170.7 204.699 170.7ZM204.649 175.42C205.015 175.42 205.349 175.337 205.649 175.17C205.949 174.997 206.182 174.753 206.349 174.44C206.522 174.127 206.609 173.77 206.609 173.37C206.609 172.97 206.522 172.613 206.349 172.3C206.182 171.987 205.949 171.747 205.649 171.58C205.349 171.407 205.015 171.32 204.649 171.32C204.275 171.32 203.939 171.407 203.639 171.58C203.345 171.747 203.112 171.987 202.939 172.3C202.772 172.613 202.689 172.97 202.689 173.37C202.689 173.77 202.772 174.127 202.939 174.44C203.112 174.753 203.345 174.997 203.639 175.17C203.939 175.337 204.275 175.42 204.649 175.42ZM213.346 173.59H208.946C208.986 174.137 209.196 174.58 209.576 174.92C209.956 175.253 210.436 175.42 211.016 175.42C211.343 175.42 211.643 175.363 211.916 175.25C212.189 175.13 212.426 174.957 212.626 174.73L213.026 175.19C212.793 175.47 212.499 175.683 212.146 175.83C211.799 175.977 211.416 176.05 210.996 176.05C210.456 176.05 209.976 175.937 209.556 175.71C209.143 175.477 208.819 175.157 208.586 174.75C208.353 174.343 208.236 173.883 208.236 173.37C208.236 172.857 208.346 172.397 208.566 171.99C208.793 171.583 209.099 171.267 209.486 171.04C209.879 170.813 210.319 170.7 210.806 170.7C211.293 170.7 211.729 170.813 212.116 171.04C212.503 171.267 212.806 171.583 213.026 171.99C213.246 172.39 213.356 172.85 213.356 173.37L213.346 173.59ZM210.806 171.31C210.299 171.31 209.873 171.473 209.526 171.8C209.186 172.12 208.993 172.54 208.946 173.06H212.676C212.629 172.54 212.433 172.12 212.086 171.8C211.746 171.473 211.319 171.31 210.806 171.31ZM216.211 176.05C215.784 176.05 215.374 175.99 214.981 175.87C214.594 175.743 214.291 175.587 214.071 175.4L214.391 174.84C214.611 175.013 214.888 175.157 215.221 175.27C215.554 175.377 215.901 175.43 216.261 175.43C216.741 175.43 217.094 175.357 217.321 175.21C217.554 175.057 217.671 174.843 217.671 174.57C217.671 174.377 217.608 174.227 217.481 174.12C217.354 174.007 217.194 173.923 217.001 173.87C216.808 173.81 216.551 173.753 216.231 173.7C215.804 173.62 215.461 173.54 215.201 173.46C214.941 173.373 214.718 173.23 214.531 173.03C214.351 172.83 214.261 172.553 214.261 172.2C214.261 171.76 214.444 171.4 214.811 171.12C215.178 170.84 215.688 170.7 216.341 170.7C216.681 170.7 217.021 170.747 217.361 170.84C217.701 170.927 217.981 171.043 218.201 171.19L217.891 171.76C217.458 171.46 216.941 171.31 216.341 171.31C215.888 171.31 215.544 171.39 215.311 171.55C215.084 171.71 214.971 171.92 214.971 172.18C214.971 172.38 215.034 172.54 215.161 172.66C215.294 172.78 215.458 172.87 215.651 172.93C215.844 172.983 216.111 173.04 216.451 173.1C216.871 173.18 217.208 173.26 217.461 173.34C217.714 173.42 217.931 173.557 218.111 173.75C218.291 173.943 218.381 174.21 218.381 174.55C218.381 175.01 218.188 175.377 217.801 175.65C217.421 175.917 216.891 176.05 216.211 176.05ZM222.464 175.68C222.33 175.8 222.164 175.893 221.964 175.96C221.77 176.02 221.567 176.05 221.354 176.05C220.86 176.05 220.48 175.917 220.214 175.65C219.947 175.383 219.814 175.007 219.814 174.52V171.34H218.874V170.74H219.814V169.59H220.524V170.74H222.124V171.34H220.524V174.48C220.524 174.793 220.6 175.033 220.754 175.2C220.914 175.36 221.14 175.44 221.434 175.44C221.58 175.44 221.72 175.417 221.854 175.37C221.994 175.323 222.114 175.257 222.214 175.17L222.464 175.68ZM229.083 170.7C229.577 170.7 230.023 170.813 230.423 171.04C230.823 171.26 231.137 171.573 231.363 171.98C231.59 172.387 231.703 172.85 231.703 173.37C231.703 173.897 231.59 174.363 231.363 174.77C231.137 175.177 230.823 175.493 230.423 175.72C230.03 175.94 229.583 176.05 229.083 176.05C228.657 176.05 228.27 175.963 227.923 175.79C227.583 175.61 227.303 175.35 227.083 175.01V177.94H226.373V170.74H227.053V171.78C227.267 171.433 227.547 171.167 227.893 170.98C228.247 170.793 228.643 170.7 229.083 170.7ZM229.033 175.42C229.4 175.42 229.733 175.337 230.033 175.17C230.333 174.997 230.567 174.753 230.733 174.44C230.907 174.127 230.993 173.77 230.993 173.37C230.993 172.97 230.907 172.617 230.733 172.31C230.567 171.997 230.333 171.753 230.033 171.58C229.733 171.407 229.4 171.32 229.033 171.32C228.66 171.32 228.323 171.407 228.023 171.58C227.73 171.753 227.497 171.997 227.323 172.31C227.157 172.617 227.073 172.97 227.073 173.37C227.073 173.77 227.157 174.127 227.323 174.44C227.497 174.753 227.73 174.997 228.023 175.17C228.323 175.337 228.66 175.42 229.033 175.42ZM233.831 171.77C233.997 171.417 234.244 171.15 234.571 170.97C234.904 170.79 235.314 170.7 235.801 170.7V171.39L235.631 171.38C235.077 171.38 234.644 171.55 234.331 171.89C234.017 172.23 233.861 172.707 233.861 173.32V176H233.151V170.74H233.831V171.77ZM238.916 170.7C239.603 170.7 240.13 170.873 240.496 171.22C240.863 171.56 241.046 172.067 241.046 172.74V176H240.366V175.18C240.206 175.453 239.97 175.667 239.656 175.82C239.35 175.973 238.983 176.05 238.556 176.05C237.97 176.05 237.503 175.91 237.156 175.63C236.81 175.35 236.636 174.98 236.636 174.52C236.636 174.073 236.796 173.713 237.116 173.44C237.443 173.167 237.96 173.03 238.666 173.03H240.336V172.71C240.336 172.257 240.21 171.913 239.956 171.68C239.703 171.44 239.333 171.32 238.846 171.32C238.513 171.32 238.193 171.377 237.886 171.49C237.58 171.597 237.316 171.747 237.096 171.94L236.776 171.41C237.043 171.183 237.363 171.01 237.736 170.89C238.11 170.763 238.503 170.7 238.916 170.7ZM238.666 175.49C239.066 175.49 239.41 175.4 239.696 175.22C239.983 175.033 240.196 174.767 240.336 174.42V173.56H238.686C237.786 173.56 237.336 173.873 237.336 174.5C237.336 174.807 237.453 175.05 237.686 175.23C237.92 175.403 238.246 175.49 238.666 175.49ZM245.174 176.05C244.654 176.05 244.188 175.937 243.774 175.71C243.368 175.483 243.048 175.167 242.814 174.76C242.581 174.347 242.464 173.883 242.464 173.37C242.464 172.857 242.581 172.397 242.814 171.99C243.048 171.583 243.368 171.267 243.774 171.04C244.188 170.813 244.654 170.7 245.174 170.7C245.628 170.7 246.031 170.79 246.384 170.97C246.744 171.143 247.028 171.4 247.234 171.74L246.704 172.1C246.531 171.84 246.311 171.647 246.044 171.52C245.778 171.387 245.488 171.32 245.174 171.32C244.794 171.32 244.451 171.407 244.144 171.58C243.844 171.747 243.608 171.987 243.434 172.3C243.268 172.613 243.184 172.97 243.184 173.37C243.184 173.777 243.268 174.137 243.434 174.45C243.608 174.757 243.844 174.997 244.144 175.17C244.451 175.337 244.794 175.42 245.174 175.42C245.488 175.42 245.778 175.357 246.044 175.23C246.311 175.103 246.531 174.91 246.704 174.65L247.234 175.01C247.028 175.35 246.744 175.61 246.384 175.79C246.024 175.963 245.621 176.05 245.174 176.05ZM251.458 175.68C251.324 175.8 251.158 175.893 250.958 175.96C250.764 176.02 250.561 176.05 250.348 176.05C249.854 176.05 249.474 175.917 249.208 175.65C248.941 175.383 248.808 175.007 248.808 174.52V171.34H247.868V170.74H248.808V169.59H249.518V170.74H251.118V171.34H249.518V174.48C249.518 174.793 249.594 175.033 249.748 175.2C249.908 175.36 250.134 175.44 250.428 175.44C250.574 175.44 250.714 175.417 250.848 175.37C250.988 175.323 251.108 175.257 251.208 175.17L251.458 175.68ZM252.75 170.74H253.46V176H252.75V170.74ZM253.11 169.59C252.964 169.59 252.84 169.54 252.74 169.44C252.64 169.34 252.59 169.22 252.59 169.08C252.59 168.947 252.64 168.83 252.74 168.73C252.84 168.63 252.964 168.58 253.11 168.58C253.257 168.58 253.38 168.63 253.48 168.73C253.58 168.823 253.63 168.937 253.63 169.07C253.63 169.217 253.58 169.34 253.48 169.44C253.38 169.54 253.257 169.59 253.11 169.59ZM257.616 176.05C257.096 176.05 256.629 175.937 256.216 175.71C255.809 175.483 255.489 175.167 255.256 174.76C255.022 174.347 254.906 173.883 254.906 173.37C254.906 172.857 255.022 172.397 255.256 171.99C255.489 171.583 255.809 171.267 256.216 171.04C256.629 170.813 257.096 170.7 257.616 170.7C258.069 170.7 258.472 170.79 258.826 170.97C259.186 171.143 259.469 171.4 259.676 171.74L259.146 172.1C258.972 171.84 258.752 171.647 258.486 171.52C258.219 171.387 257.929 171.32 257.616 171.32C257.236 171.32 256.892 171.407 256.586 171.58C256.286 171.747 256.049 171.987 255.876 172.3C255.709 172.613 255.626 172.97 255.626 173.37C255.626 173.777 255.709 174.137 255.876 174.45C256.049 174.757 256.286 174.997 256.586 175.17C256.892 175.337 257.236 175.42 257.616 175.42C257.929 175.42 258.219 175.357 258.486 175.23C258.752 175.103 258.972 174.91 259.146 174.65L259.676 175.01C259.469 175.35 259.186 175.61 258.826 175.79C258.466 175.963 258.062 176.05 257.616 176.05ZM265.563 173.59H261.163C261.203 174.137 261.413 174.58 261.793 174.92C262.173 175.253 262.653 175.42 263.233 175.42C263.559 175.42 263.859 175.363 264.133 175.25C264.406 175.13 264.643 174.957 264.843 174.73L265.243 175.19C265.009 175.47 264.716 175.683 264.363 175.83C264.016 175.977 263.633 176.05 263.213 176.05C262.673 176.05 262.193 175.937 261.773 175.71C261.359 175.477 261.036 175.157 260.803 174.75C260.569 174.343 260.453 173.883 260.453 173.37C260.453 172.857 260.563 172.397 260.783 171.99C261.009 171.583 261.316 171.267 261.703 171.04C262.096 170.813 262.536 170.7 263.023 170.7C263.509 170.7 263.946 170.813 264.333 171.04C264.719 171.267 265.023 171.583 265.243 171.99C265.463 172.39 265.573 172.85 265.573 173.37L265.563 173.59ZM263.023 171.31C262.516 171.31 262.089 171.473 261.743 171.8C261.403 172.12 261.209 172.54 261.163 173.06H264.893C264.846 172.54 264.649 172.12 264.303 171.8C263.963 171.473 263.536 171.31 263.023 171.31ZM268.428 176.05C268.001 176.05 267.591 175.99 267.198 175.87C266.811 175.743 266.508 175.587 266.288 175.4L266.608 174.84C266.828 175.013 267.104 175.157 267.438 175.27C267.771 175.377 268.118 175.43 268.478 175.43C268.958 175.43 269.311 175.357 269.538 175.21C269.771 175.057 269.888 174.843 269.888 174.57C269.888 174.377 269.824 174.227 269.698 174.12C269.571 174.007 269.411 173.923 269.218 173.87C269.024 173.81 268.768 173.753 268.448 173.7C268.021 173.62 267.678 173.54 267.418 173.46C267.158 173.373 266.934 173.23 266.748 173.03C266.568 172.83 266.478 172.553 266.478 172.2C266.478 171.76 266.661 171.4 267.028 171.12C267.394 170.84 267.904 170.7 268.558 170.7C268.898 170.7 269.238 170.747 269.578 170.84C269.918 170.927 270.198 171.043 270.418 171.19L270.108 171.76C269.674 171.46 269.158 171.31 268.558 171.31C268.104 171.31 267.761 171.39 267.528 171.55C267.301 171.71 267.188 171.92 267.188 172.18C267.188 172.38 267.251 172.54 267.378 172.66C267.511 172.78 267.674 172.87 267.868 172.93C268.061 172.983 268.328 173.04 268.668 173.1C269.088 173.18 269.424 173.26 269.678 173.34C269.931 173.42 270.148 173.557 270.328 173.75C270.508 173.943 270.598 174.21 270.598 174.55C270.598 175.01 270.404 175.377 270.018 175.65C269.638 175.917 269.108 176.05 268.428 176.05Z" fill="#302C60"/>
<path d="M247.43 57.8588L255.812 53.1501L264.195 57.8588V67.229L255.812 71.9376L247.43 67.229V57.8588Z" stroke="#302C60" stroke-width="2.00543"/>
<path d="M214.002 36.5545L222.131 31.7311L230.26 36.5545V46.2494L222.131 51.0727L214.002 46.2494V36.5545Z" stroke="#302C60" stroke-width="2.00543"/>
<path d="M214.002 79.3158L222.131 74.4924L230.26 79.3158V89.0106L222.131 93.834L214.002 89.0106V79.3158Z" stroke="#302C60" stroke-width="2.00543"/>
<path d="M224.585 58.097L232.968 53.3884L241.35 58.097V67.4673L232.968 72.1759L224.585 67.4673V58.097Z" stroke="#302C60" stroke-width="2.00543"/>
<path d="M236.887 36.5625L245.269 31.723L253.651 36.5625V46.2414L245.269 51.0809L236.887 46.2414V36.5625Z" stroke="#302C60" stroke-width="2.00543"/>
<path d="M201.74 58.097L210.122 53.3884L218.505 58.097V67.4673L210.122 72.1759L201.74 67.4673V58.097Z" stroke="#302C60" stroke-width="2.00543"/>
<path d="M236.887 79.3237L245.269 74.4843L253.651 79.3237V89.0026L245.269 93.8421L236.887 89.0026V79.3237Z" stroke="#302C60" stroke-width="2.00543"/>
<defs>
<filter id="filter0_d_156_1474" x="0.499915" y="0" width="310.174" height="211.908" filterUnits="userSpaceOnUse" color-interpolation-filters="sRGB">
<feFlood flood-opacity="0" result="BackgroundImageFix"/>
<feColorMatrix in="SourceAlpha" type="matrix" values="0 0 0 0 0 0 0 0 0 0 0 0 0 0 0 0 0 0 127 0" result="hardAlpha"/>
<feOffset dy="2.67391"/>
<feGaussianBlur stdDeviation="1.33696"/>
<feColorMatrix type="matrix" values="0 0 0 0 0 0 0 0 0 0 0 0 0 0 0 0 0 0 0.1 0"/>
<feBlend mode="normal" in2="BackgroundImageFix" result="effect1_dropShadow_156_1474"/>
<feBlend mode="normal" in="SourceGraphic" in2="effect1_dropShadow_156_1474" result="shape"/>
</filter>
</defs>
</svg>
