<svg width="220" height="156" viewBox="0 0 220 156" fill="none" xmlns="http://www.w3.org/2000/svg">
<g filter="url(#filter0_d_271_1767)">
<rect x="2" width="215.384" height="151.861" rx="14.1994" fill="#F8FAFF"/>
</g>
<path d="M24.4249 25.609C24.7669 25.6217 25.2229 25.6344 25.7929 25.647C26.3629 25.6597 26.9329 25.666 27.5029 25.666C28.1236 25.666 28.7189 25.6597 29.2889 25.647C29.8716 25.6344 30.2833 25.628 30.5239 25.628C32.3733 25.628 33.7476 25.9764 34.6469 26.673C35.5589 27.3697 36.0149 28.269 36.0149 29.371C36.0149 29.827 35.9199 30.3084 35.7299 30.815C35.5526 31.309 35.2423 31.7714 34.7989 32.202C34.3683 32.62 33.7666 32.962 32.9939 33.228C32.2339 33.494 31.2713 33.627 30.1059 33.627H28.1299V33.247H29.9159C30.6126 33.247 31.1383 33.076 31.4929 32.734C31.8603 32.392 32.1073 31.9424 32.2339 31.385C32.3733 30.8277 32.4429 30.226 32.4429 29.58C32.4429 28.3767 32.2846 27.4774 31.9679 26.882C31.6513 26.2867 31.1129 25.989 30.3529 25.989C29.8843 25.989 29.5803 26.0967 29.4409 26.312C29.3143 26.5274 29.2509 26.9644 29.2509 27.623V36.895C29.2509 37.4017 29.3016 37.7817 29.4029 38.035C29.5043 38.2757 29.7069 38.434 30.0109 38.51C30.3149 38.586 30.7519 38.6304 31.3219 38.643V39.061C30.9039 39.0484 30.3656 39.0357 29.7069 39.023C29.0483 39.0104 28.3579 39.004 27.6359 39.004C27.0659 39.004 26.5023 39.0104 25.9449 39.023C25.4003 39.0357 24.8936 39.0484 24.4249 39.061V38.681C24.8176 38.6557 25.1089 38.605 25.2989 38.529C25.5016 38.453 25.6346 38.301 25.6979 38.073C25.7739 37.845 25.8119 37.503 25.8119 37.047V27.623C25.8119 27.1544 25.7739 26.8124 25.6979 26.597C25.6346 26.369 25.5016 26.217 25.2989 26.141C25.1089 26.0524 24.8176 26.0017 24.4249 25.989V25.609ZM36.838 25.609C37.18 25.6217 37.636 25.6344 38.206 25.647C38.776 25.6597 39.346 25.666 39.916 25.666C40.5367 25.666 41.132 25.6597 41.702 25.647C42.2847 25.6344 42.6964 25.628 42.937 25.628C44.5837 25.628 45.8124 25.9067 46.623 26.464C47.4464 27.0214 47.858 27.737 47.858 28.611C47.858 29.0544 47.7124 29.5104 47.421 29.979C47.1297 30.435 46.68 30.8467 46.072 31.214C45.4767 31.5687 44.7104 31.8157 43.773 31.955V31.993C45.0144 32.069 46.0024 32.2844 46.737 32.639C47.4844 32.981 48.0227 33.3927 48.352 33.874C48.6814 34.3554 48.846 34.8557 48.846 35.375C48.846 36.1984 48.6244 36.8824 48.181 37.427C47.7504 37.9717 47.1234 38.3834 46.3 38.662C45.4894 38.928 44.514 39.061 43.374 39.061C43.07 39.061 42.6267 39.0547 42.044 39.042C41.4614 39.0167 40.7647 39.004 39.954 39.004C39.3587 39.004 38.776 39.0104 38.206 39.023C37.636 39.023 37.18 39.0357 36.838 39.061V38.681C37.2307 38.6557 37.522 38.605 37.712 38.529C37.9147 38.453 38.0477 38.301 38.111 38.073C38.187 37.845 38.225 37.503 38.225 37.047V27.623C38.225 27.1544 38.187 26.8124 38.111 26.597C38.0477 26.369 37.9147 26.217 37.712 26.141C37.522 26.0524 37.2307 26.0017 36.838 25.989V25.609ZM42.766 25.989C42.31 25.989 42.0124 26.0967 41.873 26.312C41.7337 26.5274 41.664 26.9644 41.664 27.623V37.047C41.664 37.4904 41.6957 37.826 41.759 38.054C41.835 38.282 41.9617 38.434 42.139 38.51C42.3164 38.586 42.5824 38.624 42.937 38.624C43.7477 38.624 44.3367 38.339 44.704 37.769C45.084 37.1864 45.274 36.363 45.274 35.299C45.274 34.3237 45.0334 33.57 44.552 33.038C44.0834 32.506 43.298 32.24 42.196 32.24H40.695C40.695 32.24 40.695 32.1894 40.695 32.088C40.695 31.974 40.695 31.917 40.695 31.917H42.329C42.8737 31.917 43.2917 31.7777 43.583 31.499C43.8744 31.2077 44.077 30.8277 44.191 30.359C44.305 29.8777 44.362 29.3647 44.362 28.82C44.362 27.8827 44.2354 27.1797 43.982 26.711C43.7414 26.2297 43.336 25.989 42.766 25.989ZM57.0251 25.343C57.8611 25.343 58.5451 25.4697 59.0771 25.723C59.6217 25.9637 60.1031 26.2487 60.5211 26.578C60.7744 26.768 60.9644 26.7934 61.0911 26.654C61.2304 26.502 61.3254 26.1537 61.3761 25.609H61.8131C61.7877 26.103 61.7687 26.711 61.7561 27.433C61.7434 28.155 61.7371 29.105 61.7371 30.283H61.3001C61.2494 29.6877 61.1671 29.1684 61.0531 28.725C60.9517 28.2817 60.7997 27.889 60.5971 27.547C60.3944 27.205 60.1031 26.901 59.7231 26.635C59.4317 26.3944 59.1024 26.2107 58.7351 26.084C58.3804 25.9447 58.0131 25.875 57.6331 25.875C56.9364 25.875 56.3474 26.0714 55.8661 26.464C55.3974 26.844 55.0174 27.3507 54.7261 27.984C54.4474 28.6047 54.2447 29.3014 54.1181 30.074C54.0041 30.834 53.9471 31.6004 53.9471 32.373C53.9471 33.1584 54.0104 33.9374 54.1371 34.71C54.2637 35.47 54.4664 36.1604 54.7451 36.781C55.0364 37.4017 55.4227 37.902 55.9041 38.282C56.3854 38.6494 56.9744 38.833 57.6711 38.833C58.0384 38.833 58.3994 38.7697 58.7541 38.643C59.1214 38.5164 59.4507 38.3327 59.7421 38.092C60.2994 37.712 60.6731 37.218 60.8631 36.61C61.0657 35.9894 61.2114 35.185 61.3001 34.197H61.7371C61.7371 35.4257 61.7434 36.42 61.7561 37.18C61.7687 37.9274 61.7877 38.5544 61.8131 39.061H61.3761C61.3254 38.5164 61.2367 38.1744 61.1101 38.035C60.9961 37.8957 60.7997 37.9147 60.5211 38.092C60.0524 38.4214 59.5521 38.7127 59.0201 38.966C58.5007 39.2067 57.8294 39.327 57.0061 39.327C55.6254 39.327 54.4094 39.0547 53.3581 38.51C52.3194 37.9654 51.5087 37.18 50.9261 36.154C50.3561 35.128 50.0711 33.893 50.0711 32.449C50.0711 31.0304 50.3687 29.789 50.9641 28.725C51.5594 27.661 52.3764 26.8314 53.4151 26.236C54.4664 25.6407 55.6697 25.343 57.0251 25.343ZM34.8179 45.609C34.7673 46.217 34.7293 46.7997 34.7039 47.357C34.6913 47.9144 34.6849 48.345 34.6849 48.649C34.6849 48.9277 34.6913 49.1874 34.7039 49.428C34.7166 49.6687 34.7293 49.8777 34.7419 50.055H34.3049C34.1149 49.0417 33.8489 48.2437 33.5069 47.661C33.1776 47.0657 32.7913 46.6477 32.3479 46.407C31.9173 46.1664 31.4423 46.046 30.9229 46.046H30.4859C30.1439 46.046 29.8779 46.0777 29.6879 46.141C29.5106 46.1917 29.3903 46.3057 29.3269 46.483C29.2763 46.6604 29.2509 46.939 29.2509 47.319V56.895C29.2509 57.4017 29.3016 57.7817 29.4029 58.035C29.5043 58.2757 29.7069 58.434 30.0109 58.51C30.3149 58.586 30.7519 58.6304 31.3219 58.643V59.061C30.9039 59.0484 30.3656 59.0357 29.7069 59.023C29.0483 59.0104 28.3579 59.004 27.6359 59.004C27.0659 59.004 26.5023 59.0104 25.9449 59.023C25.4003 59.0357 24.8936 59.0484 24.4249 59.061V58.681C24.8176 58.6557 25.1089 58.605 25.2989 58.529C25.5016 58.453 25.6346 58.301 25.6979 58.073C25.7739 57.845 25.8119 57.503 25.8119 57.047V47.623C25.8119 47.1544 25.7739 46.8124 25.6979 46.597C25.6346 46.369 25.5016 46.217 25.2989 46.141C25.1089 46.0524 24.8176 46.0017 24.4249 45.989V45.609C24.9696 45.6217 25.5396 45.6344 26.1349 45.647C26.7429 45.647 27.3383 45.6534 27.9209 45.666C28.5163 45.666 29.0673 45.666 29.5739 45.666C30.0933 45.666 30.5176 45.666 30.8469 45.666C31.4296 45.666 32.0883 45.666 32.8229 45.666C33.5703 45.6534 34.2353 45.6344 34.8179 45.609ZM32.0249 52.145C32.0249 52.145 32.0249 52.2084 32.0249 52.335C32.0249 52.4617 32.0249 52.525 32.0249 52.525H28.6809C28.6809 52.525 28.6809 52.4617 28.6809 52.335C28.6809 52.2084 28.6809 52.145 28.6809 52.145H32.0249ZM32.5379 49.637C32.4873 50.359 32.4619 50.91 32.4619 51.29C32.4746 51.67 32.4809 52.0184 32.4809 52.335C32.4809 52.6517 32.4873 53 32.4999 53.38C32.5126 53.76 32.5443 54.311 32.5949 55.033H32.1579C32.0819 54.577 31.9426 54.159 31.7399 53.779C31.5373 53.399 31.2649 53.095 30.9229 52.867C30.5936 52.639 30.1756 52.525 29.6689 52.525V52.145C30.0363 52.145 30.3593 52.069 30.6379 51.917C30.9166 51.7524 31.1509 51.5434 31.3409 51.29C31.5436 51.0367 31.7083 50.7644 31.8349 50.473C31.9616 50.1817 32.0503 49.903 32.1009 49.637H32.5379ZM45.3935 49.01V56.99C45.3935 57.56 45.4758 57.9844 45.6405 58.263C45.8178 58.529 46.1155 58.662 46.5335 58.662V59.061C46.1408 59.023 45.7482 59.004 45.3555 59.004C44.7728 59.004 44.2282 59.023 43.7215 59.061C43.2275 59.099 42.7588 59.1687 42.3155 59.27V57.731C42.0115 58.301 41.5935 58.7127 41.0615 58.966C40.5422 59.2067 39.9468 59.327 39.2755 59.327C38.7182 59.327 38.2685 59.2574 37.9265 59.118C37.5972 58.9787 37.3438 58.795 37.1665 58.567C36.9638 58.339 36.8182 58.035 36.7295 57.655C36.6408 57.2624 36.5965 56.7494 36.5965 56.116V51.29C36.5965 50.72 36.5142 50.302 36.3495 50.036C36.1848 49.7574 35.8872 49.618 35.4565 49.618V49.219C35.8618 49.257 36.2545 49.276 36.6345 49.276C37.2172 49.276 37.7618 49.257 38.2685 49.219C38.7752 49.1684 39.2438 49.0987 39.6745 49.01V57.028C39.6745 57.3194 39.7062 57.5664 39.7695 57.769C39.8328 57.9717 39.9405 58.13 40.0925 58.244C40.2445 58.358 40.4472 58.415 40.7005 58.415C40.9918 58.415 41.2578 58.339 41.4985 58.187C41.7392 58.035 41.9355 57.826 42.0875 57.56C42.2395 57.2814 42.3155 56.971 42.3155 56.629V51.29C42.3155 50.72 42.2332 50.302 42.0685 50.036C41.9038 49.7574 41.6062 49.618 41.1755 49.618V49.219C41.5808 49.257 41.9735 49.276 42.3535 49.276C42.9362 49.276 43.4808 49.257 43.9875 49.219C44.4942 49.1684 44.9628 49.0987 45.3935 49.01ZM54.6134 48.953C55.1707 48.953 55.6141 49.0227 55.9434 49.162C56.2854 49.3014 56.5451 49.4787 56.7224 49.694C56.9251 49.9347 57.0707 50.245 57.1594 50.625C57.2607 51.005 57.3114 51.518 57.3114 52.164V57.294C57.3114 57.826 57.3937 58.187 57.5584 58.377C57.7357 58.567 58.0334 58.662 58.4514 58.662V59.061C58.1981 59.0484 57.8181 59.0357 57.3114 59.023C56.8174 58.9977 56.3361 58.985 55.8674 58.985C55.3481 58.985 54.8477 58.9977 54.3664 59.023C53.8851 59.0357 53.5241 59.0484 53.2834 59.061V58.662C53.6381 58.662 53.8851 58.567 54.0244 58.377C54.1637 58.187 54.2334 57.826 54.2334 57.294V51.252C54.2334 50.9607 54.2017 50.7137 54.1384 50.511C54.0751 50.2957 53.9674 50.1374 53.8154 50.036C53.6634 49.922 53.4481 49.865 53.1694 49.865C52.8781 49.865 52.6057 49.941 52.3524 50.093C52.1117 50.245 51.9154 50.4604 51.7634 50.739C51.6241 51.005 51.5544 51.309 51.5544 51.651V57.294C51.5544 57.826 51.6241 58.187 51.7634 58.377C51.9027 58.567 52.1497 58.662 52.5044 58.662V59.061C52.2637 59.0484 51.9154 59.0357 51.4594 59.023C51.0034 58.9977 50.5411 58.985 50.0724 58.985C49.5531 58.985 49.0337 58.9977 48.5144 59.023C47.9951 59.0357 47.6024 59.0484 47.3364 59.061V58.662C47.7544 58.662 48.0457 58.567 48.2104 58.377C48.3877 58.187 48.4764 57.826 48.4764 57.294V51.29C48.4764 50.72 48.3941 50.302 48.2294 50.036C48.0647 49.7574 47.7671 49.618 47.3364 49.618V49.219C47.7417 49.257 48.1344 49.276 48.5144 49.276C49.0844 49.276 49.6227 49.257 50.1294 49.219C50.6487 49.1684 51.1237 49.0987 51.5544 49.01V50.549C51.8584 49.9664 52.2701 49.5547 52.7894 49.314C53.3214 49.0734 53.9294 48.953 54.6134 48.953ZM68.6571 44.203V56.971C68.6571 57.541 68.7394 57.9654 68.9041 58.244C69.0814 58.51 69.3791 58.643 69.7971 58.643V59.042C69.4044 59.004 69.0118 58.985 68.6191 58.985C68.0491 58.985 67.5108 59.004 67.0041 59.042C66.4974 59.08 66.0224 59.1497 65.5791 59.251V46.483C65.5791 45.913 65.4968 45.495 65.3321 45.229C65.1801 44.9504 64.8824 44.811 64.4391 44.811V44.412C64.8444 44.45 65.2371 44.469 65.6171 44.469C66.1998 44.469 66.7444 44.45 67.2511 44.412C67.7578 44.3614 68.2264 44.2917 68.6571 44.203ZM63.5461 48.953C64.1034 48.953 64.5848 49.0354 64.9901 49.2C65.3954 49.352 65.7311 49.6117 65.9971 49.979L65.7691 50.169C65.6044 49.9537 65.4018 49.7954 65.1611 49.694C64.9331 49.5927 64.6924 49.542 64.4391 49.542C63.8311 49.542 63.3561 49.922 63.0141 50.682C62.6848 51.4294 62.5201 52.582 62.5201 54.14C62.5201 55.2294 62.5834 56.0907 62.7101 56.724C62.8494 57.3447 63.0331 57.7817 63.2611 58.035C63.5018 58.2884 63.7678 58.415 64.0591 58.415C64.4518 58.415 64.8001 58.2694 65.1041 57.978C65.4208 57.674 65.5854 57.275 65.5981 56.781L65.6551 57.579C65.4271 58.1617 65.1104 58.5987 64.7051 58.89C64.3124 59.1814 63.8058 59.327 63.1851 59.327C62.4504 59.327 61.7854 59.1434 61.1901 58.776C60.6074 58.4087 60.1451 57.845 59.8031 57.085C59.4738 56.3124 59.3091 55.3117 59.3091 54.083C59.3091 52.9304 59.4864 51.9804 59.8411 51.233C60.2084 50.473 60.7088 49.903 61.3421 49.523C61.9881 49.143 62.7228 48.953 63.5461 48.953ZM73.1323 59.194C72.5497 59.194 72.0683 59.0864 71.6883 58.871C71.3083 58.643 71.0297 58.3454 70.8523 57.978C70.675 57.6107 70.5863 57.218 70.5863 56.8C70.5863 56.268 70.7067 55.831 70.9473 55.489C71.2007 55.147 71.5237 54.8747 71.9163 54.672C72.309 54.4567 72.7207 54.2794 73.1513 54.14C73.582 54.0007 73.9937 53.8677 74.3863 53.741C74.779 53.6017 75.0957 53.4434 75.3363 53.266C75.577 53.076 75.6973 52.8354 75.6973 52.544V50.967C75.6973 50.6884 75.653 50.4287 75.5643 50.188C75.4883 49.9347 75.3427 49.732 75.1273 49.58C74.9247 49.4154 74.6397 49.333 74.2723 49.333C74.0443 49.333 73.8227 49.3647 73.6073 49.428C73.392 49.4914 73.202 49.5927 73.0373 49.732C73.4427 49.8714 73.7403 50.0804 73.9303 50.359C74.133 50.6377 74.2343 50.948 74.2343 51.29C74.2343 51.7587 74.0697 52.1324 73.7403 52.411C73.4237 52.677 73.0437 52.81 72.6003 52.81C72.119 52.81 71.7453 52.658 71.4793 52.354C71.226 52.05 71.0993 51.6827 71.0993 51.252C71.0993 50.872 71.1943 50.5554 71.3843 50.302C71.5743 50.036 71.853 49.7954 72.2203 49.58C72.5877 49.3647 73.031 49.2064 73.5503 49.105C74.0697 49.0037 74.6207 48.953 75.2033 48.953C75.7987 48.953 76.3433 49.0164 76.8373 49.143C77.344 49.257 77.7747 49.4914 78.1293 49.846C78.408 50.1374 78.5853 50.492 78.6613 50.91C78.7373 51.328 78.7753 51.86 78.7753 52.506V57.636C78.7753 57.9527 78.8007 58.1744 78.8513 58.301C78.9147 58.415 79.0097 58.472 79.1363 58.472C79.2503 58.472 79.358 58.4404 79.4593 58.377C79.5607 58.3137 79.662 58.244 79.7633 58.168L79.9723 58.491C79.6937 58.719 79.3643 58.8964 78.9843 59.023C78.6043 59.137 78.1927 59.194 77.7493 59.194C77.2427 59.194 76.8437 59.1307 76.5523 59.004C76.2737 58.8647 76.071 58.681 75.9443 58.453C75.8303 58.225 75.767 57.9717 75.7543 57.693C75.4757 58.149 75.1273 58.5164 74.7093 58.795C74.2913 59.061 73.7657 59.194 73.1323 59.194ZM74.7093 57.826C74.912 57.826 75.0893 57.788 75.2413 57.712C75.406 57.6234 75.558 57.4777 75.6973 57.275V53.323C75.596 53.5004 75.4567 53.6714 75.2793 53.836C75.1147 53.988 74.9373 54.1464 74.7473 54.311C74.5573 54.463 74.3737 54.634 74.1963 54.824C74.0317 55.014 73.8923 55.242 73.7783 55.508C73.677 55.7614 73.6263 56.0717 73.6263 56.439C73.6263 56.933 73.7277 57.2877 73.9303 57.503C74.133 57.7184 74.3927 57.826 74.7093 57.826ZM87.6182 48.953C88.1629 48.953 88.5999 49.0227 88.9292 49.162C89.2712 49.3014 89.5372 49.4787 89.7272 49.694C89.9299 49.9347 90.0755 50.2514 90.1642 50.644C90.2529 51.024 90.2972 51.5307 90.2972 52.164V57.294C90.2972 57.826 90.3669 58.187 90.5062 58.377C90.6582 58.567 90.9179 58.662 91.2852 58.662V59.061C91.0445 59.0484 90.6899 59.0357 90.2212 59.023C89.7525 58.9977 89.2965 58.985 88.8532 58.985C88.3719 58.985 87.9032 58.9977 87.4472 59.023C86.9912 59.0357 86.6492 59.0484 86.4212 59.061V58.662C86.7125 58.662 86.9152 58.567 87.0292 58.377C87.1559 58.187 87.2192 57.826 87.2192 57.294V51.252C87.2192 50.9607 87.1939 50.7137 87.1432 50.511C87.0925 50.2957 87.0039 50.1374 86.8772 50.036C86.7505 49.922 86.5669 49.865 86.3262 49.865C86.0475 49.865 85.7815 49.941 85.5282 50.093C85.2875 50.245 85.0912 50.4604 84.9392 50.739C84.7999 51.005 84.7302 51.309 84.7302 51.651V57.294C84.7302 57.826 84.7872 58.187 84.9012 58.377C85.0152 58.567 85.2242 58.662 85.5282 58.662V59.061C85.3129 59.0484 84.9899 59.0357 84.5592 59.023C84.1285 58.9977 83.6915 58.985 83.2482 58.985C82.7289 58.985 82.2095 58.9977 81.6902 59.023C81.1709 59.0357 80.7782 59.0484 80.5122 59.061V58.662C80.9302 58.662 81.2215 58.567 81.3862 58.377C81.5635 58.187 81.6522 57.826 81.6522 57.294V51.29C81.6522 50.72 81.5699 50.302 81.4052 50.036C81.2405 49.7574 80.9429 49.618 80.5122 49.618V49.219C80.9175 49.257 81.3102 49.276 81.6902 49.276C82.2602 49.276 82.7985 49.257 83.3052 49.219C83.8245 49.1684 84.2995 49.0987 84.7302 49.01V50.549C85.0215 49.979 85.4142 49.5737 85.9082 49.333C86.4149 49.0797 86.9849 48.953 87.6182 48.953ZM93.3372 48.953C93.8819 48.953 94.3189 49.0227 94.6482 49.162C94.9902 49.3014 95.2562 49.4787 95.4462 49.694C95.6489 49.9347 95.7945 50.2514 95.8832 50.644C95.9719 51.024 96.0162 51.5307 96.0162 52.164V57.294C96.0162 57.826 96.0985 58.187 96.2632 58.377C96.4405 58.567 96.7382 58.662 97.1562 58.662V59.061C96.9029 59.0484 96.5229 59.0357 96.0162 59.023C95.5222 58.9977 95.0409 58.985 94.5722 58.985C94.0909 58.985 93.6222 58.9977 93.1662 59.023C92.7102 59.0357 92.3682 59.0484 92.1402 59.061V58.662C92.4315 58.662 92.6342 58.567 92.7482 58.377C92.8749 58.187 92.9382 57.826 92.9382 57.294V51.252C92.9382 50.9607 92.9065 50.7137 92.8432 50.511C92.7799 50.2957 92.6722 50.1374 92.5202 50.036C92.3809 49.922 92.1719 49.865 91.8932 49.865C91.6145 49.865 91.3485 49.9537 91.0952 50.131C90.8545 50.2957 90.6582 50.5174 90.5062 50.796C90.3669 51.0747 90.2845 51.385 90.2592 51.727L90.1452 50.777C90.4872 50.0677 90.9369 49.5864 91.4942 49.333C92.0515 49.0797 92.6659 48.953 93.3372 48.953ZM102.783 48.953C103.898 48.953 104.772 49.2824 105.405 49.941C106.038 50.5997 106.355 51.6827 106.355 53.19H100.256L100.237 52.829H103.771C103.796 52.2084 103.771 51.6384 103.695 51.119C103.619 50.587 103.492 50.1627 103.315 49.846C103.15 49.5294 102.929 49.371 102.65 49.371C102.27 49.371 101.947 49.6434 101.681 50.188C101.415 50.7327 101.25 51.6574 101.187 52.962L101.263 53.095C101.238 53.2344 101.225 53.38 101.225 53.532C101.225 53.6714 101.225 53.8234 101.225 53.988C101.225 54.862 101.339 55.5587 101.567 56.078C101.808 56.5974 102.105 56.9647 102.46 57.18C102.815 57.3954 103.182 57.503 103.562 57.503C103.777 57.503 104.018 57.4714 104.284 57.408C104.55 57.3447 104.829 57.2117 105.12 57.009C105.411 56.8064 105.69 56.5087 105.956 56.116L106.279 56.23C106.14 56.724 105.899 57.2117 105.557 57.693C105.228 58.1617 104.803 58.5544 104.284 58.871C103.765 59.175 103.138 59.327 102.403 59.327C101.567 59.327 100.82 59.156 100.161 58.814C99.5025 58.4594 98.9768 57.9084 98.5842 57.161C98.2042 56.401 98.0142 55.413 98.0142 54.197C98.0142 52.9937 98.2232 52.0057 98.6412 51.233C99.0592 50.4604 99.6292 49.8904 100.351 49.523C101.073 49.143 101.884 48.953 102.783 48.953ZM114.508 48.953C115.065 48.953 115.509 49.0227 115.838 49.162C116.18 49.3014 116.44 49.4787 116.617 49.694C116.82 49.9347 116.965 50.245 117.054 50.625C117.155 51.005 117.206 51.518 117.206 52.164V57.294C117.206 57.826 117.288 58.187 117.453 58.377C117.63 58.567 117.928 58.662 118.346 58.662V59.061C118.093 59.0484 117.713 59.0357 117.206 59.023C116.712 58.9977 116.231 58.985 115.762 58.985C115.243 58.985 114.742 58.9977 114.261 59.023C113.78 59.0357 113.419 59.0484 113.178 59.061V58.662C113.533 58.662 113.78 58.567 113.919 58.377C114.058 58.187 114.128 57.826 114.128 57.294V51.252C114.128 50.9607 114.096 50.7137 114.033 50.511C113.97 50.2957 113.862 50.1374 113.71 50.036C113.558 49.922 113.343 49.865 113.064 49.865C112.773 49.865 112.5 49.941 112.247 50.093C112.006 50.245 111.81 50.4604 111.658 50.739C111.519 51.005 111.449 51.309 111.449 51.651V57.294C111.449 57.826 111.519 58.187 111.658 58.377C111.797 58.567 112.044 58.662 112.399 58.662V59.061C112.158 59.0484 111.81 59.0357 111.354 59.023C110.898 58.9977 110.436 58.985 109.967 58.985C109.448 58.985 108.928 58.9977 108.409 59.023C107.89 59.0357 107.497 59.0484 107.231 59.061V58.662C107.649 58.662 107.94 58.567 108.105 58.377C108.282 58.187 108.371 57.826 108.371 57.294V51.29C108.371 50.72 108.289 50.302 108.124 50.036C107.959 49.7574 107.662 49.618 107.231 49.618V49.219C107.636 49.257 108.029 49.276 108.409 49.276C108.979 49.276 109.517 49.257 110.024 49.219C110.543 49.1684 111.018 49.0987 111.449 49.01V50.549C111.753 49.9664 112.165 49.5547 112.684 49.314C113.216 49.0734 113.824 48.953 114.508 48.953ZM123.118 46.122V49.219H125.17V49.599H123.118V57.37C123.118 57.6867 123.175 57.9147 123.289 58.054C123.403 58.1807 123.574 58.244 123.802 58.244C123.992 58.244 124.188 58.1807 124.391 58.054C124.606 57.9274 124.802 57.712 124.98 57.408L125.284 57.598C125.043 58.1174 124.707 58.5354 124.277 58.852C123.859 59.1687 123.308 59.327 122.624 59.327C122.206 59.327 121.832 59.27 121.503 59.156C121.186 59.0547 120.92 58.8964 120.705 58.681C120.426 58.4024 120.242 58.0604 120.154 57.655C120.078 57.237 120.04 56.6987 120.04 56.04V49.599H118.52V49.219H120.04V46.844C120.635 46.844 121.18 46.787 121.674 46.673C122.18 46.559 122.662 46.3754 123.118 46.122ZM128.24 59.194C127.657 59.194 127.176 59.0864 126.796 58.871C126.416 58.643 126.137 58.3454 125.96 57.978C125.782 57.6107 125.694 57.218 125.694 56.8C125.694 56.268 125.814 55.831 126.055 55.489C126.308 55.147 126.631 54.8747 127.024 54.672C127.416 54.4567 127.828 54.2794 128.259 54.14C128.689 54.0007 129.101 53.8677 129.494 53.741C129.886 53.6017 130.203 53.4434 130.444 53.266C130.684 53.076 130.805 52.8354 130.805 52.544V50.967C130.805 50.6884 130.76 50.4287 130.672 50.188C130.596 49.9347 130.45 49.732 130.235 49.58C130.032 49.4154 129.747 49.333 129.38 49.333C129.152 49.333 128.93 49.3647 128.715 49.428C128.499 49.4914 128.309 49.5927 128.145 49.732C128.55 49.8714 128.848 50.0804 129.038 50.359C129.24 50.6377 129.342 50.948 129.342 51.29C129.342 51.7587 129.177 52.1324 128.848 52.411C128.531 52.677 128.151 52.81 127.708 52.81C127.226 52.81 126.853 52.658 126.587 52.354C126.333 52.05 126.207 51.6827 126.207 51.252C126.207 50.872 126.302 50.5554 126.492 50.302C126.682 50.036 126.96 49.7954 127.328 49.58C127.695 49.3647 128.138 49.2064 128.658 49.105C129.177 49.0037 129.728 48.953 130.311 48.953C130.906 48.953 131.451 49.0164 131.945 49.143C132.451 49.257 132.882 49.4914 133.237 49.846C133.515 50.1374 133.693 50.492 133.769 50.91C133.845 51.328 133.883 51.86 133.883 52.506V57.636C133.883 57.9527 133.908 58.1744 133.959 58.301C134.022 58.415 134.117 58.472 134.244 58.472C134.358 58.472 134.465 58.4404 134.567 58.377C134.668 58.3137 134.769 58.244 134.871 58.168L135.08 58.491C134.801 58.719 134.472 58.8964 134.092 59.023C133.712 59.137 133.3 59.194 132.857 59.194C132.35 59.194 131.951 59.1307 131.66 59.004C131.381 58.8647 131.178 58.681 131.052 58.453C130.938 58.225 130.874 57.9717 130.862 57.693C130.583 58.149 130.235 58.5164 129.817 58.795C129.399 59.061 128.873 59.194 128.24 59.194ZM129.817 57.826C130.019 57.826 130.197 57.788 130.349 57.712C130.513 57.6234 130.665 57.4777 130.805 57.275V53.323C130.703 53.5004 130.564 53.6714 130.387 53.836C130.222 53.988 130.045 54.1464 129.855 54.311C129.665 54.463 129.481 54.634 129.304 54.824C129.139 55.014 129 55.242 128.886 55.508C128.784 55.7614 128.734 56.0717 128.734 56.439C128.734 56.933 128.835 57.2877 129.038 57.503C129.24 57.7184 129.5 57.826 129.817 57.826ZM139.762 44.203V57.294C139.762 57.826 139.844 58.187 140.009 58.377C140.186 58.567 140.484 58.662 140.902 58.662V59.061C140.661 59.0484 140.294 59.0357 139.8 59.023C139.306 58.9977 138.799 58.985 138.28 58.985C137.773 58.985 137.254 58.9977 136.722 59.023C136.202 59.0357 135.81 59.0484 135.544 59.061V58.662C135.962 58.662 136.253 58.567 136.418 58.377C136.595 58.187 136.684 57.826 136.684 57.294V46.464C136.684 45.9067 136.601 45.495 136.437 45.229C136.285 44.9504 135.987 44.811 135.544 44.811V44.412C135.949 44.45 136.342 44.469 136.722 44.469C137.304 44.469 137.849 44.45 138.356 44.412C138.862 44.3614 139.331 44.2917 139.762 44.203ZM145.563 48.953C146.12 48.953 146.601 49.0164 147.007 49.143C147.412 49.2697 147.71 49.39 147.9 49.504C148.343 49.7827 148.609 49.6054 148.698 48.972H149.097C149.071 49.3394 149.052 49.7827 149.04 50.302C149.027 50.8087 149.021 51.4927 149.021 52.354H148.622C148.571 51.8854 148.457 51.423 148.28 50.967C148.115 50.511 147.868 50.1374 147.539 49.846C147.209 49.542 146.779 49.39 146.247 49.39C145.905 49.39 145.613 49.4914 145.373 49.694C145.145 49.8967 145.031 50.1754 145.031 50.53C145.031 50.91 145.145 51.2457 145.373 51.537C145.601 51.8284 145.892 52.107 146.247 52.373C146.614 52.639 146.981 52.924 147.349 53.228C147.754 53.532 148.115 53.8424 148.432 54.159C148.761 54.463 149.021 54.7987 149.211 55.166C149.413 55.5207 149.515 55.9514 149.515 56.458C149.515 57.028 149.344 57.5284 149.002 57.959C148.66 58.3897 148.21 58.7254 147.653 58.966C147.095 59.2067 146.475 59.327 145.791 59.327C145.373 59.327 145.005 59.2827 144.689 59.194C144.385 59.118 144.131 59.0167 143.929 58.89C143.739 58.8014 143.568 58.7254 143.416 58.662C143.276 58.5987 143.137 58.5544 142.998 58.529C142.871 58.5164 142.763 58.5734 142.675 58.7C142.586 58.8267 142.516 58.9914 142.466 59.194H142.067C142.092 58.7887 142.111 58.2947 142.124 57.712C142.136 57.1294 142.143 56.3567 142.143 55.394H142.542C142.618 56.078 142.757 56.6797 142.96 57.199C143.175 57.7184 143.46 58.13 143.815 58.434C144.169 58.7254 144.587 58.871 145.069 58.871C145.284 58.871 145.48 58.833 145.658 58.757C145.848 58.6684 146 58.5354 146.114 58.358C146.24 58.1807 146.304 57.9527 146.304 57.674C146.304 57.1167 146.126 56.6544 145.772 56.287C145.417 55.907 144.98 55.4954 144.461 55.052C144.055 54.71 143.675 54.3744 143.321 54.045C142.979 53.7157 142.694 53.3547 142.466 52.962C142.25 52.5694 142.143 52.126 142.143 51.632C142.143 51.062 142.301 50.5807 142.618 50.188C142.947 49.7827 143.371 49.4787 143.891 49.276C144.41 49.0607 144.967 48.953 145.563 48.953Z" fill="#302C60"/>
<path d="M25.0899 92.6223H25.9039V99.6183H30.2159V100.322H25.0899V92.6223ZM36.3545 97.6713H31.5145C31.5585 98.2726 31.7895 98.7603 32.2075 99.1343C32.6255 99.5009 33.1535 99.6843 33.7915 99.6843C34.1509 99.6843 34.4809 99.6219 34.7815 99.4973C35.0822 99.3653 35.3425 99.1746 35.5625 98.9253L36.0025 99.4313C35.7459 99.7393 35.4232 99.9739 35.0345 100.135C34.6532 100.297 34.2315 100.377 33.7695 100.377C33.1755 100.377 32.6475 100.253 32.1855 100.003C31.7309 99.7466 31.3752 99.3946 31.1185 98.9473C30.8619 98.4999 30.7335 97.9939 30.7335 97.4293C30.7335 96.8646 30.8545 96.3586 31.0965 95.9113C31.3459 95.4639 31.6832 95.1156 32.1085 94.8663C32.5412 94.6169 33.0252 94.4923 33.5605 94.4923C34.0959 94.4923 34.5762 94.6169 35.0015 94.8663C35.4269 95.1156 35.7605 95.4639 36.0025 95.9113C36.2445 96.3513 36.3655 96.8573 36.3655 97.4293L36.3545 97.6713ZM33.5605 95.1633C33.0032 95.1633 32.5339 95.3429 32.1525 95.7023C31.7785 96.0543 31.5659 96.5163 31.5145 97.0883H35.6175C35.5662 96.5163 35.3499 96.0543 34.9685 95.7023C34.5945 95.3429 34.1252 95.1633 33.5605 95.1633ZM39.8181 94.4923C40.5734 94.4923 41.1527 94.6829 41.5561 95.0643C41.9594 95.4383 42.1611 95.9956 42.1611 96.7363V100.322H41.4131V99.4203C41.2371 99.7209 40.9767 99.9556 40.6321 100.124C40.2947 100.293 39.8914 100.377 39.4221 100.377C38.7767 100.377 38.2634 100.223 37.8821 99.9153C37.5007 99.6073 37.3101 99.2003 37.3101 98.6943C37.3101 98.2029 37.4861 97.8069 37.8381 97.5063C38.1974 97.2056 38.7657 97.0553 39.5431 97.0553H41.3801V96.7033C41.3801 96.2046 41.2407 95.8269 40.9621 95.5703C40.6834 95.3063 40.2764 95.1743 39.7411 95.1743C39.3744 95.1743 39.0224 95.2366 38.6851 95.3613C38.3477 95.4786 38.0581 95.6436 37.8161 95.8563L37.4641 95.2733C37.7574 95.0239 38.1094 94.8333 38.5201 94.7013C38.9307 94.5619 39.3634 94.4923 39.8181 94.4923ZM39.5431 99.7613C39.9831 99.7613 40.3607 99.6623 40.6761 99.4643C40.9914 99.2589 41.2261 98.9656 41.3801 98.5843V97.6383H39.5651C38.5751 97.6383 38.0801 97.9829 38.0801 98.6723C38.0801 99.0096 38.2084 99.2773 38.4651 99.4753C38.7217 99.6659 39.0811 99.7613 39.5431 99.7613ZM45.0304 95.6693C45.2137 95.2806 45.485 94.9873 45.8444 94.7893C46.211 94.5913 46.662 94.4923 47.1974 94.4923V95.2513L47.0104 95.2403C46.4017 95.2403 45.925 95.4273 45.5804 95.8013C45.2357 96.1753 45.0634 96.6996 45.0634 97.3743V100.322H44.2824V94.5363H45.0304V95.6693ZM51.5595 94.4923C52.2855 94.4923 52.8611 94.7049 53.2865 95.1303C53.7191 95.5483 53.9355 96.1606 53.9355 96.9673V100.322H53.1545V97.0443C53.1545 96.4429 53.0041 95.9846 52.7035 95.6693C52.4028 95.3539 51.9738 95.1963 51.4165 95.1963C50.7931 95.1963 50.2981 95.3833 49.9315 95.7573C49.5721 96.1239 49.3925 96.6336 49.3925 97.2863V100.322H48.6115V94.5363H49.3595V95.6033C49.5721 95.2513 49.8655 94.9799 50.2395 94.7893C50.6208 94.5913 51.0608 94.4923 51.5595 94.4923ZM61.9817 92.6223C62.9644 92.6223 63.7344 92.8569 64.2917 93.3263C64.849 93.7956 65.1277 94.4409 65.1277 95.2623C65.1277 96.0836 64.849 96.7289 64.2917 97.1983C63.7344 97.6603 62.9644 97.8913 61.9817 97.8913H59.9137V100.322H59.0997V92.6223H61.9817ZM61.9597 97.1763C62.7224 97.1763 63.3054 97.0113 63.7087 96.6813C64.112 96.3439 64.3137 95.8709 64.3137 95.2623C64.3137 94.6389 64.112 94.1623 63.7087 93.8323C63.3054 93.4949 62.7224 93.3263 61.9597 93.3263H59.9137V97.1763H61.9597ZM71.7388 96.3513C72.2448 96.4613 72.6335 96.6813 72.9048 97.0113C73.1835 97.3339 73.3228 97.7519 73.3228 98.2653C73.3228 98.9253 73.0771 99.4349 72.5858 99.7943C72.1018 100.146 71.3831 100.322 70.4298 100.322H66.8878V92.6223H70.2098C71.0678 92.6223 71.7315 92.7946 72.2008 93.1393C72.6775 93.4839 72.9158 93.9716 72.9158 94.6023C72.9158 95.0276 72.8095 95.3906 72.5968 95.6913C72.3915 95.9846 72.1055 96.2046 71.7388 96.3513ZM67.7018 93.2933V96.0873H70.1548C70.7781 96.0873 71.2585 95.9699 71.5958 95.7353C71.9331 95.4933 72.1018 95.1449 72.1018 94.6903C72.1018 94.2356 71.9331 93.8909 71.5958 93.6563C71.2585 93.4143 70.7781 93.2933 70.1548 93.2933H67.7018ZM70.4188 99.6513C71.1081 99.6513 71.6288 99.5339 71.9808 99.2993C72.3328 99.0646 72.5088 98.6979 72.5088 98.1993C72.5088 97.2386 71.8121 96.7583 70.4188 96.7583H67.7018V99.6513H70.4188ZM78.5248 100.388C77.7621 100.388 77.0728 100.22 76.4568 99.8823C75.8481 99.5449 75.3678 99.0793 75.0158 98.4853C74.6711 97.8839 74.4988 97.2129 74.4988 96.4723C74.4988 95.7316 74.6711 95.0643 75.0158 94.4703C75.3678 93.8689 75.8518 93.3996 76.4678 93.0623C77.0838 92.7249 77.7731 92.5563 78.5358 92.5563C79.1078 92.5563 79.6358 92.6516 80.1198 92.8423C80.6038 93.0329 81.0144 93.3116 81.3518 93.6783L80.8348 94.1953C80.2334 93.5866 79.4744 93.2823 78.5578 93.2823C77.9491 93.2823 77.3954 93.4216 76.8968 93.7003C76.3981 93.9789 76.0058 94.3603 75.7198 94.8443C75.4411 95.3283 75.3018 95.8709 75.3018 96.4723C75.3018 97.0736 75.4411 97.6163 75.7198 98.1003C76.0058 98.5843 76.3981 98.9656 76.8968 99.2443C77.3954 99.5229 77.9491 99.6623 78.5578 99.6623C79.4818 99.6623 80.2408 99.3543 80.8348 98.7383L81.3518 99.2553C81.0144 99.6219 80.6001 99.9043 80.1088 100.102C79.6248 100.293 79.0968 100.388 78.5248 100.388ZM88.7819 94.4923C89.3246 94.4923 89.8159 94.6169 90.2559 94.8663C90.6959 95.1083 91.0406 95.4529 91.2899 95.9003C91.5392 96.3476 91.6639 96.8573 91.6639 97.4293C91.6639 98.0013 91.5392 98.5109 91.2899 98.9583C91.0406 99.4056 90.6959 99.7539 90.2559 100.003C89.8159 100.253 89.3246 100.377 88.7819 100.377C88.2979 100.377 87.8616 100.275 87.4729 100.069C87.0916 99.8639 86.7836 99.5669 86.5489 99.1783V100.322H85.8009V92.1603H86.5819V95.6363C86.8239 95.2623 87.1319 94.9799 87.5059 94.7893C87.8872 94.5913 88.3126 94.4923 88.7819 94.4923ZM88.7269 99.6843C89.1302 99.6843 89.4969 99.5926 89.8269 99.4093C90.1569 99.2186 90.4136 98.9509 90.5969 98.6063C90.7876 98.2616 90.8829 97.8693 90.8829 97.4293C90.8829 96.9893 90.7876 96.5969 90.5969 96.2523C90.4136 95.9076 90.1569 95.6436 89.8269 95.4603C89.4969 95.2696 89.1302 95.1743 88.7269 95.1743C88.3162 95.1743 87.9459 95.2696 87.6159 95.4603C87.2932 95.6436 87.0366 95.9076 86.8459 96.2523C86.6626 96.5969 86.5709 96.9893 86.5709 97.4293C86.5709 97.8693 86.6626 98.2616 86.8459 98.6063C87.0366 98.9509 87.2932 99.2186 87.6159 99.4093C87.9459 99.5926 88.3162 99.6843 88.7269 99.6843ZM95.2478 94.4923C96.0031 94.4923 96.5824 94.6829 96.9858 95.0643C97.3891 95.4383 97.5908 95.9956 97.5908 96.7363V100.322H96.8428V99.4203C96.6668 99.7209 96.4064 99.9556 96.0618 100.124C95.7244 100.293 95.3211 100.377 94.8518 100.377C94.2064 100.377 93.6931 100.223 93.3118 99.9153C92.9304 99.6073 92.7398 99.2003 92.7398 98.6943C92.7398 98.2029 92.9158 97.8069 93.2678 97.5063C93.6271 97.2056 94.1954 97.0553 94.9728 97.0553H96.8098V96.7033C96.8098 96.2046 96.6704 95.8269 96.3918 95.5703C96.1131 95.3063 95.7061 95.1743 95.1708 95.1743C94.8041 95.1743 94.4521 95.2366 94.1148 95.3613C93.7774 95.4786 93.4878 95.6436 93.2458 95.8563L92.8938 95.2733C93.1871 95.0239 93.5391 94.8333 93.9498 94.7013C94.3604 94.5619 94.7931 94.4923 95.2478 94.4923ZM94.9728 99.7613C95.4128 99.7613 95.7904 99.6623 96.1058 99.4643C96.4211 99.2589 96.6558 98.9656 96.8098 98.5843V97.6383H94.9948C94.0048 97.6383 93.5098 97.9829 93.5098 98.6723C93.5098 99.0096 93.6381 99.2773 93.8948 99.4753C94.1514 99.6659 94.5108 99.7613 94.9728 99.7613ZM101.263 100.377C100.794 100.377 100.343 100.311 99.91 100.179C99.4847 100.04 99.151 99.8676 98.909 99.6623L99.261 99.0463C99.503 99.2369 99.8074 99.3946 100.174 99.5193C100.541 99.6366 100.922 99.6953 101.318 99.6953C101.846 99.6953 102.235 99.6146 102.484 99.4533C102.741 99.2846 102.869 99.0499 102.869 98.7493C102.869 98.5366 102.799 98.3716 102.66 98.2543C102.521 98.1296 102.345 98.0379 102.132 97.9793C101.919 97.9133 101.637 97.8509 101.285 97.7923C100.816 97.7043 100.438 97.6163 100.152 97.5283C99.866 97.4329 99.6204 97.2753 99.415 97.0553C99.217 96.8353 99.118 96.5309 99.118 96.1423C99.118 95.6583 99.3197 95.2623 99.723 94.9543C100.126 94.6463 100.687 94.4923 101.406 94.4923C101.78 94.4923 102.154 94.5436 102.528 94.6463C102.902 94.7416 103.21 94.8699 103.452 95.0313L103.111 95.6583C102.634 95.3283 102.066 95.1633 101.406 95.1633C100.907 95.1633 100.53 95.2513 100.273 95.4273C100.024 95.6033 99.899 95.8343 99.899 96.1203C99.899 96.3403 99.9687 96.5163 100.108 96.6483C100.255 96.7803 100.434 96.8793 100.647 96.9453C100.86 97.0039 101.153 97.0663 101.527 97.1323C101.989 97.2203 102.359 97.3083 102.638 97.3963C102.917 97.4843 103.155 97.6346 103.353 97.8473C103.551 98.0599 103.65 98.3533 103.65 98.7273C103.65 99.2333 103.437 99.6366 103.012 99.9373C102.594 100.231 102.011 100.377 101.263 100.377ZM105.094 94.5363H105.875V100.322H105.094V94.5363ZM105.49 93.2713C105.329 93.2713 105.193 93.2163 105.083 93.1063C104.973 92.9963 104.918 92.8643 104.918 92.7103C104.918 92.5636 104.973 92.4353 105.083 92.3253C105.193 92.2153 105.329 92.1603 105.49 92.1603C105.651 92.1603 105.787 92.2153 105.897 92.3253C106.007 92.4279 106.062 92.5526 106.062 92.6993C106.062 92.8606 106.007 92.9963 105.897 93.1063C105.787 93.2163 105.651 93.2713 105.49 93.2713ZM110.446 100.377C109.874 100.377 109.361 100.253 108.906 100.003C108.459 99.7539 108.107 99.4056 107.85 98.9583C107.593 98.5036 107.465 97.9939 107.465 97.4293C107.465 96.8646 107.593 96.3586 107.85 95.9113C108.107 95.4639 108.459 95.1156 108.906 94.8663C109.361 94.6169 109.874 94.4923 110.446 94.4923C110.945 94.4923 111.388 94.5913 111.777 94.7893C112.173 94.9799 112.485 95.2623 112.712 95.6363L112.129 96.0323C111.938 95.7463 111.696 95.5336 111.403 95.3943C111.11 95.2476 110.791 95.1743 110.446 95.1743C110.028 95.1743 109.65 95.2696 109.313 95.4603C108.983 95.6436 108.723 95.9076 108.532 96.2523C108.349 96.5969 108.257 96.9893 108.257 97.4293C108.257 97.8766 108.349 98.2726 108.532 98.6173C108.723 98.9546 108.983 99.2186 109.313 99.4093C109.65 99.5926 110.028 99.6843 110.446 99.6843C110.791 99.6843 111.11 99.6146 111.403 99.4753C111.696 99.3359 111.938 99.1233 112.129 98.8373L112.712 99.2333C112.485 99.6073 112.173 99.8933 111.777 100.091C111.381 100.282 110.937 100.377 110.446 100.377ZM115.797 100.377C115.328 100.377 114.877 100.311 114.444 100.179C114.019 100.04 113.685 99.8676 113.443 99.6623L113.795 99.0463C114.037 99.2369 114.342 99.3946 114.708 99.5193C115.075 99.6366 115.456 99.6953 115.852 99.6953C116.38 99.6953 116.769 99.6146 117.018 99.4533C117.275 99.2846 117.403 99.0499 117.403 98.7493C117.403 98.5366 117.334 98.3716 117.194 98.2543C117.055 98.1296 116.879 98.0379 116.666 97.9793C116.454 97.9133 116.171 97.8509 115.819 97.7923C115.35 97.7043 114.972 97.6163 114.686 97.5283C114.4 97.4329 114.155 97.2753 113.949 97.0553C113.751 96.8353 113.652 96.5309 113.652 96.1423C113.652 95.6583 113.854 95.2623 114.257 94.9543C114.661 94.6463 115.222 94.4923 115.94 94.4923C116.314 94.4923 116.688 94.5436 117.062 94.6463C117.436 94.7416 117.744 94.8699 117.986 95.0313L117.645 95.6583C117.169 95.3283 116.6 95.1633 115.94 95.1633C115.442 95.1633 115.064 95.2513 114.807 95.4273C114.558 95.6033 114.433 95.8343 114.433 96.1203C114.433 96.3403 114.503 96.5163 114.642 96.6483C114.789 96.7803 114.969 96.8793 115.181 96.9453C115.394 97.0039 115.687 97.0663 116.061 97.1323C116.523 97.2203 116.894 97.3083 117.172 97.3963C117.451 97.4843 117.689 97.6346 117.887 97.8473C118.085 98.0599 118.184 98.3533 118.184 98.7273C118.184 99.2333 117.972 99.6366 117.546 99.9373C117.128 100.231 116.545 100.377 115.797 100.377ZM119.705 100.377C119.544 100.377 119.404 100.319 119.287 100.201C119.177 100.084 119.122 99.9409 119.122 99.7723C119.122 99.6036 119.177 99.4643 119.287 99.3543C119.404 99.2369 119.544 99.1783 119.705 99.1783C119.866 99.1783 120.006 99.2369 120.123 99.3543C120.24 99.4643 120.299 99.6036 120.299 99.7723C120.299 99.9409 120.24 100.084 120.123 100.201C120.006 100.319 119.866 100.377 119.705 100.377ZM135.574 92.6223L132.978 100.322H132.12L129.865 93.7553L127.599 100.322H126.752L124.156 92.6223H124.992L127.214 99.2443L129.513 92.6223H130.272L132.538 99.2773L134.793 92.6223H135.574ZM140.011 94.4923C140.737 94.4923 141.312 94.7049 141.738 95.1303C142.17 95.5483 142.387 96.1606 142.387 96.9673V100.322H141.606V97.0443C141.606 96.4429 141.455 95.9846 141.155 95.6693C140.854 95.3539 140.425 95.1963 139.868 95.1963C139.244 95.1963 138.749 95.3833 138.383 95.7573C138.023 96.1239 137.844 96.6336 137.844 97.2863V100.322H137.063V92.1603H137.844V95.5483C138.056 95.2109 138.35 94.9506 138.724 94.7673C139.098 94.5839 139.527 94.4923 140.011 94.4923ZM146.531 94.4923C147.286 94.4923 147.866 94.6829 148.269 95.0643C148.672 95.4383 148.874 95.9956 148.874 96.7363V100.322H148.126V99.4203C147.95 99.7209 147.69 99.9556 147.345 100.124C147.008 100.293 146.604 100.377 146.135 100.377C145.49 100.377 144.976 100.223 144.595 99.9153C144.214 99.6073 144.023 99.2003 144.023 98.6943C144.023 98.2029 144.199 97.8069 144.551 97.5063C144.91 97.2056 145.479 97.0553 146.256 97.0553H148.093V96.7033C148.093 96.2046 147.954 95.8269 147.675 95.5703C147.396 95.3063 146.989 95.1743 146.454 95.1743C146.087 95.1743 145.735 95.2366 145.398 95.3613C145.061 95.4786 144.771 95.6436 144.529 95.8563L144.177 95.2733C144.47 95.0239 144.822 94.8333 145.233 94.7013C145.644 94.5619 146.076 94.4923 146.531 94.4923ZM146.256 99.7613C146.696 99.7613 147.074 99.6623 147.389 99.4643C147.704 99.2589 147.939 98.9656 148.093 98.5843V97.6383H146.278C145.288 97.6383 144.793 97.9829 144.793 98.6723C144.793 99.0096 144.921 99.2773 145.178 99.4753C145.435 99.6659 145.794 99.7613 146.256 99.7613ZM154.042 99.9703C153.896 100.102 153.712 100.205 153.492 100.278C153.28 100.344 153.056 100.377 152.821 100.377C152.279 100.377 151.861 100.231 151.567 99.9373C151.274 99.6439 151.127 99.2296 151.127 98.6943V95.1963H150.093V94.5363H151.127V93.2713H151.908V94.5363H153.668V95.1963H151.908V98.6503C151.908 98.9949 151.993 99.2589 152.161 99.4423C152.337 99.6183 152.587 99.7063 152.909 99.7063C153.071 99.7063 153.225 99.6806 153.371 99.6293C153.525 99.5779 153.657 99.5046 153.767 99.4093L154.042 99.9703ZM158.343 94.5363H159.124V100.322H158.343V94.5363ZM158.739 93.2713C158.578 93.2713 158.442 93.2163 158.332 93.1063C158.222 92.9963 158.167 92.8643 158.167 92.7103C158.167 92.5636 158.222 92.4353 158.332 92.3253C158.442 92.2153 158.578 92.1603 158.739 92.1603C158.9 92.1603 159.036 92.2153 159.146 92.3253C159.256 92.4279 159.311 92.5526 159.311 92.6993C159.311 92.8606 159.256 92.9963 159.146 93.1063C159.036 93.2163 158.9 93.2713 158.739 93.2713ZM162.848 100.377C162.379 100.377 161.928 100.311 161.495 100.179C161.07 100.04 160.736 99.8676 160.494 99.6623L160.846 99.0463C161.088 99.2369 161.392 99.3946 161.759 99.5193C162.126 99.6366 162.507 99.6953 162.903 99.6953C163.431 99.6953 163.82 99.6146 164.069 99.4533C164.326 99.2846 164.454 99.0499 164.454 98.7493C164.454 98.5366 164.384 98.3716 164.245 98.2543C164.106 98.1296 163.93 98.0379 163.717 97.9793C163.504 97.9133 163.222 97.8509 162.87 97.7923C162.401 97.7043 162.023 97.6163 161.737 97.5283C161.451 97.4329 161.205 97.2753 161 97.0553C160.802 96.8353 160.703 96.5309 160.703 96.1423C160.703 95.6583 160.905 95.2623 161.308 94.9543C161.711 94.6463 162.272 94.4923 162.991 94.4923C163.365 94.4923 163.739 94.5436 164.113 94.6463C164.487 94.7416 164.795 94.8699 165.037 95.0313L164.696 95.6583C164.219 95.3283 163.651 95.1633 162.991 95.1633C162.492 95.1633 162.115 95.2513 161.858 95.4273C161.609 95.6033 161.484 95.8343 161.484 96.1203C161.484 96.3403 161.554 96.5163 161.693 96.6483C161.84 96.7803 162.019 96.8793 162.232 96.9453C162.445 97.0039 162.738 97.0663 163.112 97.1323C163.574 97.2203 163.944 97.3083 164.223 97.3963C164.502 97.4843 164.74 97.6346 164.938 97.8473C165.136 98.0599 165.235 98.3533 165.235 98.7273C165.235 99.2333 165.022 99.6366 164.597 99.9373C164.179 100.231 163.596 100.377 162.848 100.377ZM177.72 92.6223V100.322H176.939V94.1623L173.914 99.3433H173.529L170.504 94.1953V100.322H169.723V92.6223H170.394L173.738 98.3313L177.049 92.6223H177.72ZM183.111 92.6223C184.093 92.6223 184.863 92.8569 185.421 93.3263C185.978 93.7956 186.257 94.4409 186.257 95.2623C186.257 96.0836 185.978 96.7289 185.421 97.1983C184.863 97.6603 184.093 97.8913 183.111 97.8913H181.043V100.322H180.229V92.6223H183.111ZM183.089 97.1763C183.851 97.1763 184.434 97.0113 184.838 96.6813C185.241 96.3439 185.443 95.8709 185.443 95.2623C185.443 94.6389 185.241 94.1623 184.838 93.8323C184.434 93.4949 183.851 93.3263 183.089 93.3263H181.043V97.1763H183.089ZM191.468 100.388C190.705 100.388 190.016 100.22 189.4 99.8823C188.791 99.5449 188.311 99.0793 187.959 98.4853C187.614 97.8839 187.442 97.2129 187.442 96.4723C187.442 95.7316 187.614 95.0643 187.959 94.4703C188.311 93.8689 188.795 93.3996 189.411 93.0623C190.027 92.7249 190.716 92.5563 191.479 92.5563C192.051 92.5563 192.579 92.6516 193.063 92.8423C193.547 93.0329 193.958 93.3116 194.295 93.6783L193.778 94.1953C193.177 93.5866 192.418 93.2823 191.501 93.2823C190.892 93.2823 190.339 93.4216 189.84 93.7003C189.341 93.9789 188.949 94.3603 188.663 94.8443C188.384 95.3283 188.245 95.8709 188.245 96.4723C188.245 97.0736 188.384 97.6163 188.663 98.1003C188.949 98.5843 189.341 98.9656 189.84 99.2443C190.339 99.5229 190.892 99.6623 191.501 99.6623C192.425 99.6623 193.184 99.3543 193.778 98.7383L194.295 99.2553C193.958 99.6219 193.543 99.9043 193.052 100.102C192.568 100.293 192.04 100.388 191.468 100.388ZM196.104 99.1783C196.272 99.1783 196.412 99.2369 196.522 99.3543C196.632 99.4643 196.687 99.6036 196.687 99.7723C196.687 99.8603 196.672 99.9556 196.643 100.058C196.621 100.161 196.584 100.278 196.533 100.41L196.071 101.928H195.543L195.917 100.333C195.799 100.297 195.704 100.231 195.631 100.135C195.557 100.033 195.521 99.9116 195.521 99.7723C195.521 99.6036 195.576 99.4643 195.686 99.3543C195.796 99.2369 195.935 99.1783 196.104 99.1783ZM28.4339 113.388C27.6713 113.388 26.9819 113.22 26.3659 112.882C25.7573 112.545 25.2769 112.079 24.9249 111.485C24.5803 110.884 24.4079 110.213 24.4079 109.472C24.4079 108.732 24.5803 108.064 24.9249 107.47C25.2769 106.869 25.7609 106.4 26.3769 106.062C26.9929 105.725 27.6823 105.556 28.4449 105.556C29.0169 105.556 29.5449 105.652 30.0289 105.842C30.5129 106.033 30.9236 106.312 31.2609 106.678L30.7439 107.195C30.1426 106.587 29.3836 106.282 28.4669 106.282C27.8583 106.282 27.3046 106.422 26.8059 106.7C26.3073 106.979 25.9149 107.36 25.6289 107.844C25.3503 108.328 25.2109 108.871 25.2109 109.472C25.2109 110.074 25.3503 110.616 25.6289 111.1C25.9149 111.584 26.3073 111.966 26.8059 112.244C27.3046 112.523 27.8583 112.662 28.4669 112.662C29.3909 112.662 30.1499 112.354 30.7439 111.738L31.2609 112.255C30.9236 112.622 30.5093 112.904 30.0179 113.102C29.5339 113.293 29.0059 113.388 28.4339 113.388ZM34.9384 113.377C34.381 113.377 33.8787 113.253 33.4314 113.003C32.984 112.747 32.632 112.395 32.3754 111.947C32.1187 111.5 31.9904 110.994 31.9904 110.429C31.9904 109.865 32.1187 109.359 32.3754 108.911C32.632 108.464 32.984 108.116 33.4314 107.866C33.8787 107.617 34.381 107.492 34.9384 107.492C35.4957 107.492 35.998 107.617 36.4454 107.866C36.8927 108.116 37.241 108.464 37.4904 108.911C37.747 109.359 37.8754 109.865 37.8754 110.429C37.8754 110.994 37.747 111.5 37.4904 111.947C37.241 112.395 36.8927 112.747 36.4454 113.003C35.998 113.253 35.4957 113.377 34.9384 113.377ZM34.9384 112.684C35.349 112.684 35.7157 112.593 36.0384 112.409C36.3684 112.219 36.625 111.951 36.8084 111.606C36.9917 111.262 37.0834 110.869 37.0834 110.429C37.0834 109.989 36.9917 109.597 36.8084 109.252C36.625 108.908 36.3684 108.644 36.0384 108.46C35.7157 108.27 35.349 108.174 34.9384 108.174C34.5277 108.174 34.1574 108.27 33.8274 108.46C33.5047 108.644 33.248 108.908 33.0574 109.252C32.874 109.597 32.7824 109.989 32.7824 110.429C32.7824 110.869 32.874 111.262 33.0574 111.606C33.248 111.951 33.5047 112.219 33.8274 112.409C34.1574 112.593 34.5277 112.684 34.9384 112.684ZM46.6859 107.492C47.4119 107.492 47.9802 107.701 48.3909 108.119C48.8089 108.537 49.0179 109.153 49.0179 109.967V113.322H48.2369V110.044C48.2369 109.443 48.0902 108.985 47.7969 108.669C47.5109 108.354 47.1039 108.196 46.5759 108.196C45.9745 108.196 45.5015 108.383 45.1569 108.757C44.8122 109.124 44.6399 109.634 44.6399 110.286V113.322H43.8589V110.044C43.8589 109.443 43.7122 108.985 43.4189 108.669C43.1329 108.354 42.7222 108.196 42.1869 108.196C41.5929 108.196 41.1199 108.383 40.7679 108.757C40.4232 109.124 40.2509 109.634 40.2509 110.286V113.322H39.4699V107.536H40.2179V108.592C40.4232 108.24 40.7092 107.969 41.0759 107.778C41.4425 107.588 41.8642 107.492 42.3409 107.492C42.8249 107.492 43.2429 107.595 43.5949 107.8C43.9542 108.006 44.2219 108.31 44.3979 108.713C44.6105 108.332 44.9149 108.035 45.3109 107.822C45.7142 107.602 46.1725 107.492 46.6859 107.492ZM54.1169 107.492C54.6595 107.492 55.1509 107.617 55.5909 107.866C56.0309 108.108 56.3755 108.453 56.6249 108.9C56.8742 109.348 56.9989 109.857 56.9989 110.429C56.9989 111.009 56.8742 111.522 56.6249 111.969C56.3755 112.417 56.0309 112.765 55.5909 113.014C55.1582 113.256 54.6669 113.377 54.1169 113.377C53.6475 113.377 53.2222 113.282 52.8409 113.091C52.4669 112.893 52.1589 112.607 51.9169 112.233V115.456H51.1359V107.536H51.8839V108.68C52.1185 108.299 52.4265 108.006 52.8079 107.8C53.1965 107.595 53.6329 107.492 54.1169 107.492ZM54.0619 112.684C54.4652 112.684 54.8319 112.593 55.1619 112.409C55.4919 112.219 55.7485 111.951 55.9319 111.606C56.1225 111.262 56.2179 110.869 56.2179 110.429C56.2179 109.989 56.1225 109.601 55.9319 109.263C55.7485 108.919 55.4919 108.651 55.1619 108.46C54.8319 108.27 54.4652 108.174 54.0619 108.174C53.6512 108.174 53.2809 108.27 52.9509 108.46C52.6282 108.651 52.3715 108.919 52.1809 109.263C51.9975 109.601 51.9059 109.989 51.9059 110.429C51.9059 110.869 51.9975 111.262 52.1809 111.606C52.3715 111.951 52.6282 112.219 52.9509 112.409C53.2809 112.593 53.6512 112.684 54.0619 112.684ZM58.591 105.16H59.372V113.322H58.591V105.16ZM66.5831 110.671H61.7431C61.7871 111.273 62.0181 111.76 62.4361 112.134C62.8541 112.501 63.3821 112.684 64.0201 112.684C64.3794 112.684 64.7094 112.622 65.0101 112.497C65.3107 112.365 65.5711 112.175 65.7911 111.925L66.2311 112.431C65.9744 112.739 65.6517 112.974 65.2631 113.135C64.8817 113.297 64.4601 113.377 63.9981 113.377C63.4041 113.377 62.8761 113.253 62.4141 113.003C61.9594 112.747 61.6037 112.395 61.3471 111.947C61.0904 111.5 60.9621 110.994 60.9621 110.429C60.9621 109.865 61.0831 109.359 61.3251 108.911C61.5744 108.464 61.9117 108.116 62.3371 107.866C62.7697 107.617 63.2537 107.492 63.7891 107.492C64.3244 107.492 64.8047 107.617 65.2301 107.866C65.6554 108.116 65.9891 108.464 66.2311 108.911C66.4731 109.351 66.5941 109.857 66.5941 110.429L66.5831 110.671ZM63.7891 108.163C63.2317 108.163 62.7624 108.343 62.3811 108.702C62.0071 109.054 61.7944 109.516 61.7431 110.088H65.8461C65.7947 109.516 65.5784 109.054 65.1971 108.702C64.8231 108.343 64.3537 108.163 63.7891 108.163ZM71.2307 112.97C71.0841 113.102 70.9007 113.205 70.6807 113.278C70.4681 113.344 70.2444 113.377 70.0097 113.377C69.4671 113.377 69.0491 113.231 68.7557 112.937C68.4624 112.644 68.3157 112.23 68.3157 111.694V108.196H67.2817V107.536H68.3157V106.271H69.0967V107.536H70.8567V108.196H69.0967V111.65C69.0967 111.995 69.1811 112.259 69.3497 112.442C69.5257 112.618 69.7751 112.706 70.0977 112.706C70.2591 112.706 70.4131 112.681 70.5597 112.629C70.7137 112.578 70.8457 112.505 70.9557 112.409L71.2307 112.97ZM77.4864 110.671H72.6464C72.6904 111.273 72.9214 111.76 73.3394 112.134C73.7574 112.501 74.2854 112.684 74.9234 112.684C75.2827 112.684 75.6127 112.622 75.9134 112.497C76.214 112.365 76.4744 112.175 76.6944 111.925L77.1344 112.431C76.8777 112.739 76.555 112.974 76.1664 113.135C75.785 113.297 75.3634 113.377 74.9014 113.377C74.3074 113.377 73.7794 113.253 73.3174 113.003C72.8627 112.747 72.507 112.395 72.2504 111.947C71.9937 111.5 71.8654 110.994 71.8654 110.429C71.8654 109.865 71.9864 109.359 72.2284 108.911C72.4777 108.464 72.815 108.116 73.2404 107.866C73.673 107.617 74.157 107.492 74.6924 107.492C75.2277 107.492 75.708 107.617 76.1334 107.866C76.5587 108.116 76.8924 108.464 77.1344 108.911C77.3764 109.351 77.4974 109.857 77.4974 110.429L77.4864 110.671ZM74.6924 108.163C74.135 108.163 73.6657 108.343 73.2844 108.702C72.9104 109.054 72.6977 109.516 72.6464 110.088H76.7494C76.698 109.516 76.4817 109.054 76.1004 108.702C75.7264 108.343 75.257 108.163 74.6924 108.163ZM84.254 113.388C83.682 113.388 83.132 113.297 82.604 113.113C82.0833 112.93 81.68 112.688 81.394 112.387L81.713 111.76C81.9916 112.039 82.362 112.266 82.824 112.442C83.286 112.611 83.7626 112.695 84.254 112.695C84.9433 112.695 85.4603 112.571 85.805 112.321C86.1496 112.065 86.322 111.735 86.322 111.331C86.322 111.023 86.2266 110.778 86.036 110.594C85.8526 110.411 85.6253 110.272 85.354 110.176C85.0826 110.074 84.705 109.964 84.221 109.846C83.6416 109.7 83.1796 109.56 82.835 109.428C82.4903 109.289 82.1933 109.08 81.944 108.801C81.702 108.523 81.581 108.145 81.581 107.668C81.581 107.28 81.6836 106.928 81.889 106.612C82.0943 106.29 82.4096 106.033 82.835 105.842C83.2603 105.652 83.7883 105.556 84.419 105.556C84.859 105.556 85.288 105.619 85.706 105.743C86.1313 105.861 86.498 106.026 86.806 106.238L86.531 106.887C86.2083 106.675 85.8636 106.517 85.497 106.414C85.1303 106.304 84.771 106.249 84.419 106.249C83.7443 106.249 83.2346 106.381 82.89 106.645C82.5526 106.902 82.384 107.236 82.384 107.646C82.384 107.954 82.4756 108.204 82.659 108.394C82.8496 108.578 83.0843 108.721 83.363 108.823C83.649 108.919 84.0303 109.025 84.507 109.142C85.0716 109.282 85.5263 109.421 85.871 109.56C86.223 109.692 86.52 109.898 86.762 110.176C87.004 110.448 87.125 110.818 87.125 111.287C87.125 111.676 87.0186 112.032 86.806 112.354C86.6006 112.67 86.2816 112.923 85.849 113.113C85.4163 113.297 84.8846 113.388 84.254 113.388ZM91.6815 107.492C92.4075 107.492 92.9832 107.705 93.4085 108.13C93.8412 108.548 94.0575 109.161 94.0575 109.967V113.322H93.2765V110.044C93.2765 109.443 93.1262 108.985 92.8255 108.669C92.5249 108.354 92.0959 108.196 91.5385 108.196C90.9152 108.196 90.4202 108.383 90.0535 108.757C89.6942 109.124 89.5145 109.634 89.5145 110.286V113.322H88.7335V105.16H89.5145V108.548C89.7272 108.211 90.0205 107.951 90.3945 107.767C90.7685 107.584 91.1975 107.492 91.6815 107.492ZM98.2019 107.492C98.9572 107.492 99.5365 107.683 99.9399 108.064C100.343 108.438 100.545 108.996 100.545 109.736V113.322H99.7969V112.42C99.6209 112.721 99.3605 112.956 99.0159 113.124C98.6785 113.293 98.2752 113.377 97.8059 113.377C97.1605 113.377 96.6472 113.223 96.2659 112.915C95.8845 112.607 95.6939 112.2 95.6939 111.694C95.6939 111.203 95.8699 110.807 96.2219 110.506C96.5812 110.206 97.1495 110.055 97.9269 110.055H99.7639V109.703C99.7639 109.205 99.6245 108.827 99.3459 108.57C99.0672 108.306 98.6602 108.174 98.1249 108.174C97.7582 108.174 97.4062 108.237 97.0689 108.361C96.7315 108.479 96.4419 108.644 96.1999 108.856L95.8479 108.273C96.1412 108.024 96.4932 107.833 96.9039 107.701C97.3145 107.562 97.7472 107.492 98.2019 107.492ZM97.9269 112.761C98.3669 112.761 98.7445 112.662 99.0599 112.464C99.3752 112.259 99.6099 111.966 99.7639 111.584V110.638H97.9489C96.9589 110.638 96.4639 110.983 96.4639 111.672C96.4639 112.01 96.5922 112.277 96.8489 112.475C97.1055 112.666 97.4649 112.761 97.9269 112.761ZM103.414 108.669C103.597 108.281 103.869 107.987 104.228 107.789C104.595 107.591 105.046 107.492 105.581 107.492V108.251L105.394 108.24C104.785 108.24 104.309 108.427 103.964 108.801C103.619 109.175 103.447 109.7 103.447 110.374V113.322H102.666V107.536H103.414V108.669ZM112.222 105.16V113.322H111.474V112.178C111.239 112.567 110.927 112.864 110.539 113.069C110.157 113.275 109.725 113.377 109.241 113.377C108.698 113.377 108.207 113.253 107.767 113.003C107.327 112.754 106.982 112.406 106.733 111.958C106.483 111.511 106.359 111.001 106.359 110.429C106.359 109.857 106.483 109.348 106.733 108.9C106.982 108.453 107.327 108.108 107.767 107.866C108.207 107.617 108.698 107.492 109.241 107.492C109.71 107.492 110.132 107.591 110.506 107.789C110.887 107.98 111.199 108.262 111.441 108.636V105.16H112.222ZM109.307 112.684C109.71 112.684 110.073 112.593 110.396 112.409C110.726 112.219 110.982 111.951 111.166 111.606C111.356 111.262 111.452 110.869 111.452 110.429C111.452 109.989 111.356 109.597 111.166 109.252C110.982 108.908 110.726 108.644 110.396 108.46C110.073 108.27 109.71 108.174 109.307 108.174C108.896 108.174 108.526 108.27 108.196 108.46C107.873 108.644 107.616 108.908 107.426 109.252C107.242 109.597 107.151 109.989 107.151 110.429C107.151 110.869 107.242 111.262 107.426 111.606C107.616 111.951 107.873 112.219 108.196 112.409C108.526 112.593 108.896 112.684 109.307 112.684ZM114.397 107.536H115.178V113.322H114.397V107.536ZM114.793 106.271C114.631 106.271 114.496 106.216 114.386 106.106C114.276 105.996 114.221 105.864 114.221 105.71C114.221 105.564 114.276 105.435 114.386 105.325C114.496 105.215 114.631 105.16 114.793 105.16C114.954 105.16 115.09 105.215 115.2 105.325C115.31 105.428 115.365 105.553 115.365 105.699C115.365 105.861 115.31 105.996 115.2 106.106C115.09 106.216 114.954 106.271 114.793 106.271ZM120.299 107.492C121.025 107.492 121.6 107.705 122.026 108.13C122.458 108.548 122.675 109.161 122.675 109.967V113.322H121.894V110.044C121.894 109.443 121.743 108.985 121.443 108.669C121.142 108.354 120.713 108.196 120.156 108.196C119.532 108.196 119.037 108.383 118.671 108.757C118.311 109.124 118.132 109.634 118.132 110.286V113.322H117.351V107.536H118.099V108.603C118.311 108.251 118.605 107.98 118.979 107.789C119.36 107.591 119.8 107.492 120.299 107.492ZM130.174 107.536V112.618C130.174 113.601 129.932 114.327 129.448 114.796C128.971 115.273 128.249 115.511 127.281 115.511C126.745 115.511 126.236 115.431 125.752 115.269C125.275 115.115 124.886 114.899 124.586 114.62L124.982 114.026C125.26 114.276 125.598 114.47 125.994 114.609C126.397 114.749 126.819 114.818 127.259 114.818C127.992 114.818 128.531 114.646 128.876 114.301C129.22 113.964 129.393 113.436 129.393 112.717V111.98C129.151 112.347 128.832 112.626 128.436 112.816C128.047 113.007 127.614 113.102 127.138 113.102C126.595 113.102 126.1 112.985 125.653 112.75C125.213 112.508 124.864 112.175 124.608 111.749C124.358 111.317 124.234 110.829 124.234 110.286C124.234 109.744 124.358 109.26 124.608 108.834C124.864 108.409 125.213 108.079 125.653 107.844C126.093 107.61 126.588 107.492 127.138 107.492C127.629 107.492 128.073 107.591 128.469 107.789C128.865 107.987 129.184 108.273 129.426 108.647V107.536H130.174ZM127.215 112.409C127.633 112.409 128.01 112.321 128.348 112.145C128.685 111.962 128.945 111.709 129.129 111.386C129.319 111.064 129.415 110.697 129.415 110.286C129.415 109.876 129.319 109.513 129.129 109.197C128.945 108.875 128.685 108.625 128.348 108.449C128.018 108.266 127.64 108.174 127.215 108.174C126.797 108.174 126.419 108.262 126.082 108.438C125.752 108.614 125.491 108.864 125.301 109.186C125.117 109.509 125.026 109.876 125.026 110.286C125.026 110.697 125.117 111.064 125.301 111.386C125.491 111.709 125.752 111.962 126.082 112.145C126.419 112.321 126.797 112.409 127.215 112.409ZM140.516 105.16V113.322H139.768V112.178C139.534 112.567 139.222 112.864 138.833 113.069C138.452 113.275 138.019 113.377 137.535 113.377C136.993 113.377 136.501 113.253 136.061 113.003C135.621 112.754 135.277 112.406 135.027 111.958C134.778 111.511 134.653 111.001 134.653 110.429C134.653 109.857 134.778 109.348 135.027 108.9C135.277 108.453 135.621 108.108 136.061 107.866C136.501 107.617 136.993 107.492 137.535 107.492C138.005 107.492 138.426 107.591 138.8 107.789C139.182 107.98 139.493 108.262 139.735 108.636V105.16H140.516ZM137.601 112.684C138.005 112.684 138.368 112.593 138.69 112.409C139.02 112.219 139.277 111.951 139.46 111.606C139.651 111.262 139.746 110.869 139.746 110.429C139.746 109.989 139.651 109.597 139.46 109.252C139.277 108.908 139.02 108.644 138.69 108.46C138.368 108.27 138.005 108.174 137.601 108.174C137.191 108.174 136.82 108.27 136.49 108.46C136.168 108.644 135.911 108.908 135.72 109.252C135.537 109.597 135.445 109.989 135.445 110.429C135.445 110.869 135.537 111.262 135.72 111.606C135.911 111.951 136.168 112.219 136.49 112.409C136.82 112.593 137.191 112.684 137.601 112.684ZM147.73 110.671H142.89C142.934 111.273 143.165 111.76 143.583 112.134C144.001 112.501 144.529 112.684 145.167 112.684C145.526 112.684 145.856 112.622 146.157 112.497C146.457 112.365 146.718 112.175 146.938 111.925L147.378 112.431C147.121 112.739 146.798 112.974 146.41 113.135C146.028 113.297 145.607 113.377 145.145 113.377C144.551 113.377 144.023 113.253 143.561 113.003C143.106 112.747 142.75 112.395 142.494 111.947C142.237 111.5 142.109 110.994 142.109 110.429C142.109 109.865 142.23 109.359 142.472 108.911C142.721 108.464 143.058 108.116 143.484 107.866C143.916 107.617 144.4 107.492 144.936 107.492C145.471 107.492 145.951 107.617 146.377 107.866C146.802 108.116 147.136 108.464 147.378 108.911C147.62 109.351 147.741 109.857 147.741 110.429L147.73 110.671ZM144.936 108.163C144.378 108.163 143.909 108.343 143.528 108.702C143.154 109.054 142.941 109.516 142.89 110.088H146.993C146.941 109.516 146.725 109.054 146.344 108.702C145.97 108.343 145.5 108.163 144.936 108.163ZM150.881 113.377C150.412 113.377 149.961 113.311 149.528 113.179C149.103 113.04 148.769 112.868 148.527 112.662L148.879 112.046C149.121 112.237 149.426 112.395 149.792 112.519C150.159 112.637 150.54 112.695 150.936 112.695C151.464 112.695 151.853 112.615 152.102 112.453C152.359 112.285 152.487 112.05 152.487 111.749C152.487 111.537 152.418 111.372 152.278 111.254C152.139 111.13 151.963 111.038 151.75 110.979C151.538 110.913 151.255 110.851 150.903 110.792C150.434 110.704 150.056 110.616 149.77 110.528C149.484 110.433 149.239 110.275 149.033 110.055C148.835 109.835 148.736 109.531 148.736 109.142C148.736 108.658 148.938 108.262 149.341 107.954C149.745 107.646 150.306 107.492 151.024 107.492C151.398 107.492 151.772 107.544 152.146 107.646C152.52 107.742 152.828 107.87 153.07 108.031L152.729 108.658C152.253 108.328 151.684 108.163 151.024 108.163C150.526 108.163 150.148 108.251 149.891 108.427C149.642 108.603 149.517 108.834 149.517 109.12C149.517 109.34 149.587 109.516 149.726 109.648C149.873 109.78 150.053 109.879 150.265 109.945C150.478 110.004 150.771 110.066 151.145 110.132C151.607 110.22 151.978 110.308 152.256 110.396C152.535 110.484 152.773 110.635 152.971 110.847C153.169 111.06 153.268 111.353 153.268 111.727C153.268 112.233 153.056 112.637 152.63 112.937C152.212 113.231 151.629 113.377 150.881 113.377ZM154.712 107.536H155.493V113.322H154.712V107.536ZM155.108 106.271C154.947 106.271 154.811 106.216 154.701 106.106C154.591 105.996 154.536 105.864 154.536 105.71C154.536 105.564 154.591 105.435 154.701 105.325C154.811 105.215 154.947 105.16 155.108 105.16C155.269 105.16 155.405 105.215 155.515 105.325C155.625 105.428 155.68 105.553 155.68 105.699C155.68 105.861 155.625 105.996 155.515 106.106C155.405 106.216 155.269 106.271 155.108 106.271ZM163.023 107.536V112.618C163.023 113.601 162.781 114.327 162.297 114.796C161.82 115.273 161.098 115.511 160.13 115.511C159.595 115.511 159.085 115.431 158.601 115.269C158.124 115.115 157.736 114.899 157.435 114.62L157.831 114.026C158.11 114.276 158.447 114.47 158.843 114.609C159.246 114.749 159.668 114.818 160.108 114.818C160.841 114.818 161.38 114.646 161.725 114.301C162.07 113.964 162.242 113.436 162.242 112.717V111.98C162 112.347 161.681 112.626 161.285 112.816C160.896 113.007 160.464 113.102 159.987 113.102C159.444 113.102 158.949 112.985 158.502 112.75C158.062 112.508 157.714 112.175 157.457 111.749C157.208 111.317 157.083 110.829 157.083 110.286C157.083 109.744 157.208 109.26 157.457 108.834C157.714 108.409 158.062 108.079 158.502 107.844C158.942 107.61 159.437 107.492 159.987 107.492C160.478 107.492 160.922 107.591 161.318 107.789C161.714 107.987 162.033 108.273 162.275 108.647V107.536H163.023ZM160.064 112.409C160.482 112.409 160.86 112.321 161.197 112.145C161.534 111.962 161.795 111.709 161.978 111.386C162.169 111.064 162.264 110.697 162.264 110.286C162.264 109.876 162.169 109.513 161.978 109.197C161.795 108.875 161.534 108.625 161.197 108.449C160.867 108.266 160.489 108.174 160.064 108.174C159.646 108.174 159.268 108.262 158.931 108.438C158.601 108.614 158.341 108.864 158.15 109.186C157.967 109.509 157.875 109.876 157.875 110.286C157.875 110.697 157.967 111.064 158.15 111.386C158.341 111.709 158.601 111.962 158.931 112.145C159.268 112.321 159.646 112.409 160.064 112.409ZM168.155 107.492C168.881 107.492 169.457 107.705 169.882 108.13C170.315 108.548 170.531 109.161 170.531 109.967V113.322H169.75V110.044C169.75 109.443 169.6 108.985 169.299 108.669C168.998 108.354 168.569 108.196 168.012 108.196C167.389 108.196 166.894 108.383 166.527 108.757C166.168 109.124 165.988 109.634 165.988 110.286V113.322H165.207V107.536H165.955V108.603C166.168 108.251 166.461 107.98 166.835 107.789C167.216 107.591 167.656 107.492 168.155 107.492ZM172.74 112.178C172.908 112.178 173.048 112.237 173.158 112.354C173.268 112.464 173.323 112.604 173.323 112.772C173.323 112.86 173.308 112.956 173.279 113.058C173.257 113.161 173.22 113.278 173.169 113.41L172.707 114.928H172.179L172.553 113.333C172.435 113.297 172.34 113.231 172.267 113.135C172.193 113.033 172.157 112.912 172.157 112.772C172.157 112.604 172.212 112.464 172.322 112.354C172.432 112.237 172.571 112.178 172.74 112.178ZM29.9409 122.351C30.4469 122.461 30.8356 122.681 31.1069 123.011C31.3856 123.334 31.5249 123.752 31.5249 124.265C31.5249 124.925 31.2793 125.435 30.7879 125.794C30.3039 126.146 29.5853 126.322 28.6319 126.322H25.0899V118.622H28.4119C29.2699 118.622 29.9336 118.795 30.4029 119.139C30.8796 119.484 31.1179 119.972 31.1179 120.602C31.1179 121.028 31.0116 121.391 30.7989 121.691C30.5936 121.985 30.3076 122.205 29.9409 122.351ZM25.9039 119.293V122.087H28.3569C28.9803 122.087 29.4606 121.97 29.7979 121.735C30.1353 121.493 30.3039 121.145 30.3039 120.69C30.3039 120.236 30.1353 119.891 29.7979 119.656C29.4606 119.414 28.9803 119.293 28.3569 119.293H25.9039ZM28.6209 125.651C29.3103 125.651 29.8309 125.534 30.1829 125.299C30.5349 125.065 30.7109 124.698 30.7109 124.199C30.7109 123.239 30.0143 122.758 28.6209 122.758H25.9039V125.651H28.6209ZM35.8618 123.66V126.322H35.0588V123.66L31.9788 118.622H32.8478L35.4878 122.945L38.1278 118.622H38.9418L35.8618 123.66ZM43.2372 126.388C42.4745 126.388 41.7815 126.22 41.1582 125.882C40.5422 125.538 40.0582 125.068 39.7062 124.474C39.3615 123.88 39.1892 123.213 39.1892 122.472C39.1892 121.732 39.3615 121.064 39.7062 120.47C40.0582 119.876 40.5422 119.411 41.1582 119.073C41.7815 118.729 42.4745 118.556 43.2372 118.556C43.9999 118.556 44.6855 118.725 45.2942 119.062C45.9102 119.4 46.3942 119.869 46.7462 120.47C47.0982 121.064 47.2742 121.732 47.2742 122.472C47.2742 123.213 47.0982 123.884 46.7462 124.485C46.3942 125.079 45.9102 125.545 45.2942 125.882C44.6855 126.22 43.9999 126.388 43.2372 126.388ZM43.2372 125.662C43.8459 125.662 44.3959 125.527 44.8872 125.255C45.3785 124.977 45.7635 124.595 46.0422 124.111C46.3209 123.62 46.4602 123.074 46.4602 122.472C46.4602 121.871 46.3209 121.328 46.0422 120.844C45.7635 120.353 45.3785 119.972 44.8872 119.7C44.3959 119.422 43.8459 119.282 43.2372 119.282C42.6285 119.282 42.0749 119.422 41.5762 119.7C41.0849 119.972 40.6962 120.353 40.4102 120.844C40.1315 121.328 39.9922 121.871 39.9922 122.472C39.9922 123.074 40.1315 123.62 40.4102 124.111C40.6962 124.595 41.0849 124.977 41.5762 125.255C42.0749 125.527 42.6285 125.662 43.2372 125.662ZM52.4427 126.388C51.6801 126.388 50.9907 126.22 50.3747 125.882C49.7661 125.545 49.2857 125.079 48.9337 124.485C48.5891 123.884 48.4167 123.213 48.4167 122.472C48.4167 121.732 48.5891 121.064 48.9337 120.47C49.2857 119.869 49.7697 119.4 50.3857 119.062C51.0017 118.725 51.6911 118.556 52.4537 118.556C53.0257 118.556 53.5537 118.652 54.0377 118.842C54.5217 119.033 54.9324 119.312 55.2697 119.678L54.7527 120.195C54.1514 119.587 53.3924 119.282 52.4757 119.282C51.8671 119.282 51.3134 119.422 50.8147 119.7C50.3161 119.979 49.9237 120.36 49.6377 120.844C49.3591 121.328 49.2197 121.871 49.2197 122.472C49.2197 123.074 49.3591 123.616 49.6377 124.1C49.9237 124.584 50.3161 124.966 50.8147 125.244C51.3134 125.523 51.8671 125.662 52.4757 125.662C53.3997 125.662 54.1587 125.354 54.7527 124.738L55.2697 125.255C54.9324 125.622 54.5181 125.904 54.0267 126.102C53.5427 126.293 53.0147 126.388 52.4427 126.388ZM61.7429 120.492C62.4982 120.492 63.0775 120.683 63.4809 121.064C63.8842 121.438 64.0859 121.996 64.0859 122.736V126.322H63.3379V125.42C63.1619 125.721 62.9015 125.956 62.5569 126.124C62.2195 126.293 61.8162 126.377 61.3469 126.377C60.7015 126.377 60.1882 126.223 59.8069 125.915C59.4255 125.607 59.2349 125.2 59.2349 124.694C59.2349 124.203 59.4109 123.807 59.7629 123.506C60.1222 123.206 60.6905 123.055 61.4679 123.055H63.3049V122.703C63.3049 122.205 63.1655 121.827 62.8869 121.57C62.6082 121.306 62.2012 121.174 61.6659 121.174C61.2992 121.174 60.9472 121.237 60.6099 121.361C60.2725 121.479 59.9829 121.644 59.7409 121.856L59.3889 121.273C59.6822 121.024 60.0342 120.833 60.4449 120.701C60.8555 120.562 61.2882 120.492 61.7429 120.492ZM61.4679 125.761C61.9079 125.761 62.2855 125.662 62.6009 125.464C62.9162 125.259 63.1509 124.966 63.3049 124.584V123.638H61.4899C60.4999 123.638 60.0049 123.983 60.0049 124.672C60.0049 125.01 60.1332 125.277 60.3899 125.475C60.6465 125.666 61.0059 125.761 61.4679 125.761ZM69.1552 120.492C69.8812 120.492 70.4568 120.705 70.8822 121.13C71.3148 121.548 71.5312 122.161 71.5312 122.967V126.322H70.7502V123.044C70.7502 122.443 70.5998 121.985 70.2992 121.669C69.9985 121.354 69.5695 121.196 69.0122 121.196C68.3888 121.196 67.8938 121.383 67.5272 121.757C67.1678 122.124 66.9882 122.634 66.9882 123.286V126.322H66.2072V120.536H66.9552V121.603C67.1678 121.251 67.4612 120.98 67.8352 120.789C68.2165 120.591 68.6565 120.492 69.1552 120.492ZM78.953 118.16V126.322H78.205V125.178C77.9703 125.567 77.6587 125.864 77.27 126.069C76.8887 126.275 76.456 126.377 75.972 126.377C75.4293 126.377 74.938 126.253 74.498 126.003C74.058 125.754 73.7133 125.406 73.464 124.958C73.2147 124.511 73.09 124.001 73.09 123.429C73.09 122.857 73.2147 122.348 73.464 121.9C73.7133 121.453 74.058 121.108 74.498 120.866C74.938 120.617 75.4293 120.492 75.972 120.492C76.4413 120.492 76.863 120.591 77.237 120.789C77.6183 120.98 77.93 121.262 78.172 121.636V118.16H78.953ZM76.038 125.684C76.4413 125.684 76.8043 125.593 77.127 125.409C77.457 125.219 77.7137 124.951 77.897 124.606C78.0877 124.262 78.183 123.869 78.183 123.429C78.183 122.989 78.0877 122.597 77.897 122.252C77.7137 121.908 77.457 121.644 77.127 121.46C76.8043 121.27 76.4413 121.174 76.038 121.174C75.6273 121.174 75.257 121.27 74.927 121.46C74.6043 121.644 74.3477 121.908 74.157 122.252C73.9737 122.597 73.882 122.989 73.882 123.429C73.882 123.869 73.9737 124.262 74.157 124.606C74.3477 124.951 74.6043 125.219 74.927 125.409C75.257 125.593 75.6273 125.684 76.038 125.684ZM91.223 120.492C91.949 120.492 92.5173 120.701 92.928 121.119C93.346 121.537 93.555 122.153 93.555 122.967V126.322H92.774V123.044C92.774 122.443 92.6273 121.985 92.334 121.669C92.048 121.354 91.641 121.196 91.113 121.196C90.5116 121.196 90.0386 121.383 89.694 121.757C89.3493 122.124 89.177 122.634 89.177 123.286V126.322H88.396V123.044C88.396 122.443 88.2493 121.985 87.956 121.669C87.67 121.354 87.2593 121.196 86.724 121.196C86.13 121.196 85.657 121.383 85.305 121.757C84.9603 122.124 84.788 122.634 84.788 123.286V126.322H84.007V120.536H84.755V121.592C84.9603 121.24 85.2463 120.969 85.613 120.778C85.9796 120.588 86.4013 120.492 86.878 120.492C87.362 120.492 87.78 120.595 88.132 120.8C88.4913 121.006 88.759 121.31 88.935 121.713C89.1476 121.332 89.452 121.035 89.848 120.822C90.2513 120.602 90.7096 120.492 91.223 120.492ZM98.0595 126.377C97.5021 126.377 96.9998 126.253 96.5525 126.003C96.1051 125.747 95.7531 125.395 95.4965 124.947C95.2398 124.5 95.1115 123.994 95.1115 123.429C95.1115 122.865 95.2398 122.359 95.4965 121.911C95.7531 121.464 96.1051 121.116 96.5525 120.866C96.9998 120.617 97.5021 120.492 98.0595 120.492C98.6168 120.492 99.1191 120.617 99.5665 120.866C100.014 121.116 100.362 121.464 100.611 121.911C100.868 122.359 100.996 122.865 100.996 123.429C100.996 123.994 100.868 124.5 100.611 124.947C100.362 125.395 100.014 125.747 99.5665 126.003C99.1191 126.253 98.6168 126.377 98.0595 126.377ZM98.0595 125.684C98.4701 125.684 98.8368 125.593 99.1595 125.409C99.4895 125.219 99.7461 124.951 99.9295 124.606C100.113 124.262 100.204 123.869 100.204 123.429C100.204 122.989 100.113 122.597 99.9295 122.252C99.7461 121.908 99.4895 121.644 99.1595 121.46C98.8368 121.27 98.4701 121.174 98.0595 121.174C97.6488 121.174 97.2785 121.27 96.9485 121.46C96.6258 121.644 96.3691 121.908 96.1785 122.252C95.9951 122.597 95.9035 122.989 95.9035 123.429C95.9035 123.869 95.9951 124.262 96.1785 124.606C96.3691 124.951 96.6258 125.219 96.9485 125.409C97.2785 125.593 97.6488 125.684 98.0595 125.684ZM103.339 121.669C103.522 121.281 103.794 120.987 104.153 120.789C104.52 120.591 104.971 120.492 105.506 120.492V121.251L105.319 121.24C104.71 121.24 104.234 121.427 103.889 121.801C103.544 122.175 103.372 122.7 103.372 123.374V126.322H102.591V120.536H103.339V121.669ZM111.904 123.671H107.064C107.108 124.273 107.339 124.76 107.757 125.134C108.175 125.501 108.703 125.684 109.341 125.684C109.701 125.684 110.031 125.622 110.331 125.497C110.632 125.365 110.892 125.175 111.112 124.925L111.552 125.431C111.296 125.739 110.973 125.974 110.584 126.135C110.203 126.297 109.781 126.377 109.319 126.377C108.725 126.377 108.197 126.253 107.735 126.003C107.281 125.747 106.925 125.395 106.668 124.947C106.412 124.5 106.283 123.994 106.283 123.429C106.283 122.865 106.404 122.359 106.646 121.911C106.896 121.464 107.233 121.116 107.658 120.866C108.091 120.617 108.575 120.492 109.11 120.492C109.646 120.492 110.126 120.617 110.551 120.866C110.977 121.116 111.31 121.464 111.552 121.911C111.794 122.351 111.915 122.857 111.915 123.429L111.904 123.671ZM109.11 121.163C108.553 121.163 108.084 121.343 107.702 121.702C107.328 122.054 107.116 122.516 107.064 123.088H111.167C111.116 122.516 110.9 122.054 110.518 121.702C110.144 121.343 109.675 121.163 109.11 121.163ZM113.582 126.377C113.421 126.377 113.281 126.319 113.164 126.201C113.054 126.084 112.999 125.941 112.999 125.772C112.999 125.604 113.054 125.464 113.164 125.354C113.281 125.237 113.421 125.178 113.582 125.178C113.743 125.178 113.883 125.237 114 125.354C114.117 125.464 114.176 125.604 114.176 125.772C114.176 125.941 114.117 126.084 114 126.201C113.883 126.319 113.743 126.377 113.582 126.377Z" fill="#302C60"/>
<path d="M197.246 50.9839L180.488 41.195L163.569 50.9825" stroke="#302C60" stroke-width="1.41994" stroke-linecap="round" stroke-linejoin="round"/>
<path d="M180.489 21.3888L180.489 41.1948" stroke="#302C60" stroke-width="1.41994" stroke-linecap="round" stroke-linejoin="round"/>
<path d="M197.398 30.6177V51.8267L180.245 61.2282" stroke="#302C60" stroke-width="1.41994" stroke-linecap="round" stroke-linejoin="round"/>
<path d="M163.497 30.6177V51.8267L180.333 61.1407" stroke="#302C60" stroke-width="1.41994" stroke-linecap="round" stroke-linejoin="round"/>
<path d="M163.569 30.492L180.443 20.9395L197.316 30.492" stroke="#302C60" stroke-width="1.41994" stroke-linecap="round" stroke-linejoin="round"/>
<path d="M180.43 31.4741L188.857 36.3399V46.0713L180.43 50.9371L172.002 46.0713V36.3399L180.43 31.4741Z" fill="#F8FAFF"/>
<path d="M172.119 36.313L180.388 41.143L188.736 36.3137" stroke="#302C60" stroke-width="1.41994" stroke-linecap="round" stroke-linejoin="round"/>
<path d="M180.388 50.9162V41.1436" stroke="#302C60" stroke-width="1.41994" stroke-linecap="round" stroke-linejoin="round"/>
<path d="M188.812 36.3042V46.7691L180.348 51.408" stroke="#302C60" stroke-width="1.41994" stroke-linecap="round" stroke-linejoin="round"/>
<path d="M172.083 36.3042V46.7691L180.391 51.3648" stroke="#302C60" stroke-width="1.41994" stroke-linecap="round" stroke-linejoin="round"/>
<path d="M172.119 36.2427L180.445 31.5293L188.771 36.2427" stroke="#302C60" stroke-width="1.41994" stroke-linecap="round" stroke-linejoin="round"/>
<defs>
<filter id="filter0_d_271_1767" x="0.101603" y="0" width="219.181" height="155.658" filterUnits="userSpaceOnUse" color-interpolation-filters="sRGB">
<feFlood flood-opacity="0" result="BackgroundImageFix"/>
<feColorMatrix in="SourceAlpha" type="matrix" values="0 0 0 0 0 0 0 0 0 0 0 0 0 0 0 0 0 0 127 0" result="hardAlpha"/>
<feOffset dy="1.8984"/>
<feGaussianBlur stdDeviation="0.949199"/>
<feComposite in2="hardAlpha" operator="out"/>
<feColorMatrix type="matrix" values="0 0 0 0 0 0 0 0 0 0 0 0 0 0 0 0 0 0 0.1 0"/>
<feBlend mode="normal" in2="BackgroundImageFix" result="effect1_dropShadow_271_1767"/>
<feBlend mode="normal" in="SourceGraphic" in2="effect1_dropShadow_271_1767" result="shape"/>
</filter>
</defs>
</svg>
