<svg width="311" height="213" viewBox="0 0 311 213" fill="none" xmlns="http://www.w3.org/2000/svg">
<g filter="url(#filter0_d_156_1396)">
<rect x="3" y="0.472656" width="304.826" height="206.56" rx="20" fill="#F8FAFF"/>
</g>
<path d="M41.3396 79.2595C41.9516 79.2822 42.7676 79.3049 43.7876 79.3275C44.8076 79.3502 45.8276 79.3615 46.8476 79.3615C47.9583 79.3615 49.0236 79.3502 50.0436 79.3275C51.0863 79.3049 51.823 79.2935 52.2536 79.2935C55.563 79.2935 58.0223 79.9169 59.6316 81.1635C61.2636 82.4102 62.0796 84.0195 62.0796 85.9915C62.0796 86.8075 61.9096 87.6689 61.5696 88.5755C61.2523 89.4595 60.697 90.2869 59.9036 91.0575C59.133 91.8055 58.0563 92.4175 56.6736 92.8935C55.3136 93.3695 53.591 93.6075 51.5056 93.6075H47.9696V92.9275H51.1656C52.4123 92.9275 53.353 92.6215 53.9876 92.0095C54.645 91.3975 55.087 90.5929 55.3136 89.5955C55.563 88.5982 55.6876 87.5215 55.6876 86.3655C55.6876 84.2122 55.4043 82.6029 54.8376 81.5375C54.271 80.4722 53.3076 79.9395 51.9476 79.9395C51.109 79.9395 50.565 80.1322 50.3156 80.5175C50.089 80.9029 49.9756 81.6849 49.9756 82.8635V99.4555C49.9756 100.362 50.0663 101.042 50.2476 101.496C50.429 101.926 50.7916 102.21 51.3356 102.346C51.8796 102.482 52.6616 102.561 53.6816 102.584V103.332C52.9336 103.309 51.9703 103.286 50.7916 103.264C49.613 103.241 48.3776 103.23 47.0856 103.23C46.0656 103.23 45.057 103.241 44.0596 103.264C43.085 103.286 42.1783 103.309 41.3396 103.332V102.652C42.0423 102.606 42.5636 102.516 42.9036 102.38C43.2663 102.244 43.5043 101.972 43.6176 101.564C43.7536 101.156 43.8216 100.544 43.8216 99.7275V82.8635C43.8216 82.0249 43.7536 81.4129 43.6176 81.0275C43.5043 80.6195 43.2663 80.3475 42.9036 80.2115C42.5636 80.0529 42.0423 79.9622 41.3396 79.9395V79.2595ZM63.5525 79.2595C64.1645 79.2822 64.9805 79.3049 66.0005 79.3275C67.0205 79.3502 68.0405 79.3615 69.0605 79.3615C70.1712 79.3615 71.2365 79.3502 72.2565 79.3275C73.2992 79.3049 74.0359 79.2935 74.4665 79.2935C77.4132 79.2935 79.6119 79.7922 81.0625 80.7895C82.5359 81.7869 83.2725 83.0675 83.2725 84.6315C83.2725 85.4249 83.0119 86.2409 82.4905 87.0795C81.9692 87.8955 81.1645 88.6322 80.0765 89.2895C79.0112 89.9242 77.6399 90.3662 75.9625 90.6155V90.6835C78.1839 90.8195 79.9519 91.2049 81.2665 91.8395C82.6039 92.4515 83.5672 93.1882 84.1565 94.0495C84.7459 94.9109 85.0405 95.8062 85.0405 96.7355C85.0405 98.2089 84.6439 99.4329 83.8505 100.408C83.0799 101.382 81.9579 102.119 80.4845 102.618C79.0339 103.094 77.2885 103.332 75.2485 103.332C74.7045 103.332 73.9112 103.32 72.8685 103.298C71.8259 103.252 70.5792 103.23 69.1285 103.23C68.0632 103.23 67.0205 103.241 66.0005 103.264C64.9805 103.264 64.1645 103.286 63.5525 103.332V102.652C64.2552 102.606 64.7765 102.516 65.1165 102.38C65.4792 102.244 65.7172 101.972 65.8305 101.564C65.9665 101.156 66.0345 100.544 66.0345 99.7275V82.8635C66.0345 82.0249 65.9665 81.4129 65.8305 81.0275C65.7172 80.6195 65.4792 80.3475 65.1165 80.2115C64.7765 80.0529 64.2552 79.9622 63.5525 79.9395V79.2595ZM74.1605 79.9395C73.3445 79.9395 72.8119 80.1322 72.5625 80.5175C72.3132 80.9029 72.1885 81.6849 72.1885 82.8635V99.7275C72.1885 100.521 72.2452 101.122 72.3585 101.53C72.4945 101.938 72.7212 102.21 73.0385 102.346C73.3559 102.482 73.8319 102.55 74.4665 102.55C75.9172 102.55 76.9712 102.04 77.6285 101.02C78.3085 99.9769 78.6485 98.5035 78.6485 96.5995C78.6485 94.8542 78.2179 93.5055 77.3565 92.5535C76.5179 91.6015 75.1125 91.1255 73.1405 91.1255H70.4545C70.4545 91.1255 70.4545 91.0349 70.4545 90.8535C70.4545 90.6495 70.4545 90.5475 70.4545 90.5475H73.3785C74.3532 90.5475 75.1012 90.2982 75.6225 89.7995C76.1439 89.2782 76.5065 88.5982 76.7105 87.7595C76.9145 86.8982 77.0165 85.9802 77.0165 85.0055C77.0165 83.3282 76.7899 82.0702 76.3365 81.2315C75.9059 80.3702 75.1805 79.9395 74.1605 79.9395ZM99.6767 78.7835C101.173 78.7835 102.397 79.0102 103.349 79.4635C104.323 79.8942 105.185 80.4042 105.933 80.9935C106.386 81.3335 106.726 81.3789 106.953 81.1295C107.202 80.8575 107.372 80.2342 107.463 79.2595H108.245C108.199 80.1435 108.165 81.2315 108.143 82.5235C108.12 83.8155 108.109 85.5155 108.109 87.6235H107.327C107.236 86.5582 107.089 85.6289 106.885 84.8355C106.703 84.0422 106.431 83.3395 106.069 82.7275C105.706 82.1155 105.185 81.5715 104.505 81.0955C103.983 80.6649 103.394 80.3362 102.737 80.1095C102.102 79.8602 101.445 79.7355 100.765 79.7355C99.5181 79.7355 98.4641 80.0869 97.6027 80.7895C96.7641 81.4695 96.0841 82.3762 95.5627 83.5095C95.0641 84.6202 94.7014 85.8669 94.4747 87.2495C94.2707 88.6095 94.1687 89.9809 94.1687 91.3635C94.1687 92.7689 94.2821 94.1629 94.5087 95.5455C94.7354 96.9055 95.0981 98.1409 95.5967 99.2515C96.1181 100.362 96.8094 101.258 97.6707 101.938C98.5321 102.595 99.5861 102.924 100.833 102.924C101.49 102.924 102.136 102.81 102.771 102.584C103.428 102.357 104.017 102.028 104.539 101.598C105.536 100.918 106.205 100.034 106.545 98.9455C106.907 97.8349 107.168 96.3955 107.327 94.6275H108.109C108.109 96.8262 108.12 98.6055 108.143 99.9655C108.165 101.303 108.199 102.425 108.245 103.332H107.463C107.372 102.357 107.213 101.745 106.987 101.496C106.783 101.246 106.431 101.28 105.933 101.598C105.094 102.187 104.199 102.708 103.247 103.162C102.317 103.592 101.116 103.808 99.6427 103.808C97.1721 103.808 94.9961 103.32 93.1147 102.346C91.2561 101.371 89.8054 99.9655 88.7627 98.1295C87.7427 96.2935 87.2327 94.0835 87.2327 91.4995C87.2327 88.9609 87.7654 86.7395 88.8307 84.8355C89.8961 82.9315 91.3581 81.4469 93.2167 80.3815C95.0981 79.3162 97.2514 78.7835 99.6767 78.7835ZM59.9376 114.26C59.847 115.348 59.779 116.39 59.7336 117.388C59.711 118.385 59.6996 119.156 59.6996 119.7C59.6996 120.198 59.711 120.663 59.7336 121.094C59.7563 121.524 59.779 121.898 59.8016 122.216H59.0196C58.6796 120.402 58.2036 118.974 57.5916 117.932C57.0023 116.866 56.311 116.118 55.5176 115.688C54.747 115.257 53.897 115.042 52.9676 115.042H52.1856C51.5736 115.042 51.0976 115.098 50.7576 115.212C50.4403 115.302 50.225 115.506 50.1116 115.824C50.021 116.141 49.9756 116.64 49.9756 117.32V134.456C49.9756 135.362 50.0663 136.042 50.2476 136.496C50.429 136.926 50.7916 137.21 51.3356 137.346C51.8796 137.482 52.6616 137.561 53.6816 137.584V138.332C52.9336 138.309 51.9703 138.286 50.7916 138.264C49.613 138.241 48.3776 138.23 47.0856 138.23C46.0656 138.23 45.057 138.241 44.0596 138.264C43.085 138.286 42.1783 138.309 41.3396 138.332V137.652C42.0423 137.606 42.5636 137.516 42.9036 137.38C43.2663 137.244 43.5043 136.972 43.6176 136.564C43.7536 136.156 43.8216 135.544 43.8216 134.728V117.864C43.8216 117.025 43.7536 116.413 43.6176 116.028C43.5043 115.62 43.2663 115.348 42.9036 115.212C42.5636 115.053 42.0423 114.962 41.3396 114.94V114.26C42.3143 114.282 43.3343 114.305 44.3996 114.328C45.4876 114.328 46.553 114.339 47.5956 114.362C48.661 114.362 49.647 114.362 50.5536 114.362C51.483 114.362 52.2423 114.362 52.8316 114.362C53.8743 114.362 55.053 114.362 56.3676 114.362C57.705 114.339 58.895 114.305 59.9376 114.26ZM54.9396 125.956C54.9396 125.956 54.9396 126.069 54.9396 126.296C54.9396 126.522 54.9396 126.636 54.9396 126.636H48.9556C48.9556 126.636 48.9556 126.522 48.9556 126.296C48.9556 126.069 48.9556 125.956 48.9556 125.956H54.9396ZM55.8576 121.468C55.767 122.76 55.7216 123.746 55.7216 124.426C55.7443 125.106 55.7556 125.729 55.7556 126.296C55.7556 126.862 55.767 127.486 55.7896 128.166C55.8123 128.846 55.869 129.832 55.9596 131.124H55.1776C55.0416 130.308 54.7923 129.56 54.4296 128.88C54.067 128.2 53.5796 127.656 52.9676 127.248C52.3783 126.84 51.6303 126.636 50.7236 126.636V125.956C51.381 125.956 51.959 125.82 52.4576 125.548C52.9563 125.253 53.3756 124.879 53.7156 124.426C54.0783 123.972 54.373 123.485 54.5996 122.964C54.8263 122.442 54.985 121.944 55.0756 121.468H55.8576ZM78.8624 120.346V134.626C78.8624 135.646 79.0097 136.405 79.3044 136.904C79.6217 137.38 80.1544 137.618 80.9024 137.618V138.332C80.1997 138.264 79.497 138.23 78.7944 138.23C77.7517 138.23 76.777 138.264 75.8704 138.332C74.9864 138.4 74.1477 138.524 73.3544 138.706V135.952C72.8104 136.972 72.0624 137.708 71.1104 138.162C70.181 138.592 69.1157 138.808 67.9144 138.808C66.917 138.808 66.1124 138.683 65.5004 138.434C64.911 138.184 64.4577 137.856 64.1404 137.448C63.7777 137.04 63.517 136.496 63.3584 135.816C63.1997 135.113 63.1204 134.195 63.1204 133.062V124.426C63.1204 123.406 62.973 122.658 62.6784 122.182C62.3837 121.683 61.851 121.434 61.0804 121.434V120.72C61.8057 120.788 62.5084 120.822 63.1884 120.822C64.231 120.822 65.2057 120.788 66.1124 120.72C67.019 120.629 67.8577 120.504 68.6284 120.346V134.694C68.6284 135.215 68.685 135.657 68.7984 136.02C68.9117 136.382 69.1044 136.666 69.3764 136.87C69.6484 137.074 70.011 137.176 70.4644 137.176C70.9857 137.176 71.4617 137.04 71.8924 136.768C72.323 136.496 72.6744 136.122 72.9464 135.646C73.2184 135.147 73.3544 134.592 73.3544 133.98V124.426C73.3544 123.406 73.207 122.658 72.9124 122.182C72.6177 121.683 72.085 121.434 71.3144 121.434V120.72C72.0397 120.788 72.7424 120.822 73.4224 120.822C74.465 120.822 75.4397 120.788 76.3464 120.72C77.253 120.629 78.0917 120.504 78.8624 120.346ZM95.3611 120.244C96.3585 120.244 97.1518 120.368 97.7411 120.618C98.3531 120.867 98.8178 121.184 99.1351 121.57C99.4978 122 99.7585 122.556 99.9171 123.236C100.098 123.916 100.189 124.834 100.189 125.99V135.17C100.189 136.122 100.336 136.768 100.631 137.108C100.948 137.448 101.481 137.618 102.229 137.618V138.332C101.776 138.309 101.096 138.286 100.189 138.264C99.3051 138.218 98.4438 138.196 97.6051 138.196C96.6758 138.196 95.7805 138.218 94.9191 138.264C94.0578 138.286 93.4118 138.309 92.9811 138.332V137.618C93.6158 137.618 94.0578 137.448 94.3071 137.108C94.5565 136.768 94.6811 136.122 94.6811 135.17V124.358C94.6811 123.836 94.6245 123.394 94.5111 123.032C94.3978 122.646 94.2051 122.363 93.9331 122.182C93.6611 121.978 93.2758 121.876 92.7771 121.876C92.2558 121.876 91.7685 122.012 91.3151 122.284C90.8845 122.556 90.5331 122.941 90.2611 123.44C90.0118 123.916 89.8871 124.46 89.8871 125.072V135.17C89.8871 136.122 90.0118 136.768 90.2611 137.108C90.5105 137.448 90.9525 137.618 91.5871 137.618V138.332C91.1565 138.309 90.5331 138.286 89.7171 138.264C88.9011 138.218 88.0738 138.196 87.2351 138.196C86.3058 138.196 85.3765 138.218 84.4471 138.264C83.5178 138.286 82.8151 138.309 82.3391 138.332V137.618C83.0871 137.618 83.6085 137.448 83.9031 137.108C84.2205 136.768 84.3791 136.122 84.3791 135.17V124.426C84.3791 123.406 84.2318 122.658 83.9371 122.182C83.6425 121.683 83.1098 121.434 82.3391 121.434V120.72C83.0645 120.788 83.7671 120.822 84.4471 120.822C85.4671 120.822 86.4305 120.788 87.3371 120.72C88.2665 120.629 89.1165 120.504 89.8871 120.346V123.1C90.4311 122.057 91.1678 121.32 92.0971 120.89C93.0491 120.459 94.1371 120.244 95.3611 120.244ZM120.492 111.744V134.592C120.492 135.612 120.639 136.371 120.934 136.87C121.251 137.346 121.784 137.584 122.532 137.584V138.298C121.829 138.23 121.127 138.196 120.424 138.196C119.404 138.196 118.441 138.23 117.534 138.298C116.627 138.366 115.777 138.49 114.984 138.672V115.824C114.984 114.804 114.837 114.056 114.542 113.58C114.27 113.081 113.737 112.832 112.944 112.832V112.118C113.669 112.186 114.372 112.22 115.052 112.22C116.095 112.22 117.069 112.186 117.976 112.118C118.883 112.027 119.721 111.902 120.492 111.744ZM111.346 120.244C112.343 120.244 113.205 120.391 113.93 120.686C114.655 120.958 115.256 121.422 115.732 122.08L115.324 122.42C115.029 122.034 114.667 121.751 114.236 121.57C113.828 121.388 113.397 121.298 112.944 121.298C111.856 121.298 111.006 121.978 110.394 123.338C109.805 124.675 109.51 126.738 109.51 129.526C109.51 131.475 109.623 133.016 109.85 134.15C110.099 135.26 110.428 136.042 110.836 136.496C111.267 136.949 111.743 137.176 112.264 137.176C112.967 137.176 113.59 136.915 114.134 136.394C114.701 135.85 114.995 135.136 115.018 134.252L115.12 135.68C114.712 136.722 114.145 137.504 113.42 138.026C112.717 138.547 111.811 138.808 110.7 138.808C109.385 138.808 108.195 138.479 107.13 137.822C106.087 137.164 105.26 136.156 104.648 134.796C104.059 133.413 103.764 131.622 103.764 129.424C103.764 127.361 104.081 125.661 104.716 124.324C105.373 122.964 106.269 121.944 107.402 121.264C108.558 120.584 109.873 120.244 111.346 120.244ZM128.5 138.57C127.458 138.57 126.596 138.377 125.916 137.992C125.236 137.584 124.738 137.051 124.42 136.394C124.103 135.736 123.944 135.034 123.944 134.286C123.944 133.334 124.16 132.552 124.59 131.94C125.044 131.328 125.622 130.84 126.324 130.478C127.027 130.092 127.764 129.775 128.534 129.526C129.305 129.276 130.042 129.038 130.744 128.812C131.447 128.562 132.014 128.279 132.444 127.962C132.875 127.622 133.09 127.191 133.09 126.67V123.848C133.09 123.349 133.011 122.884 132.852 122.454C132.716 122 132.456 121.638 132.07 121.366C131.708 121.071 131.198 120.924 130.54 120.924C130.132 120.924 129.736 120.98 129.35 121.094C128.965 121.207 128.625 121.388 128.33 121.638C129.056 121.887 129.588 122.261 129.928 122.76C130.291 123.258 130.472 123.814 130.472 124.426C130.472 125.264 130.178 125.933 129.588 126.432C129.022 126.908 128.342 127.146 127.548 127.146C126.687 127.146 126.018 126.874 125.542 126.33C125.089 125.786 124.862 125.128 124.862 124.358C124.862 123.678 125.032 123.111 125.372 122.658C125.712 122.182 126.211 121.751 126.868 121.366C127.526 120.98 128.319 120.697 129.248 120.516C130.178 120.334 131.164 120.244 132.206 120.244C133.272 120.244 134.246 120.357 135.13 120.584C136.037 120.788 136.808 121.207 137.442 121.842C137.941 122.363 138.258 122.998 138.394 123.746C138.53 124.494 138.598 125.446 138.598 126.602V135.782C138.598 136.348 138.644 136.745 138.734 136.972C138.848 137.176 139.018 137.278 139.244 137.278C139.448 137.278 139.641 137.221 139.822 137.108C140.004 136.994 140.185 136.87 140.366 136.734L140.74 137.312C140.242 137.72 139.652 138.037 138.972 138.264C138.292 138.468 137.556 138.57 136.762 138.57C135.856 138.57 135.142 138.456 134.62 138.23C134.122 137.98 133.759 137.652 133.532 137.244C133.328 136.836 133.215 136.382 133.192 135.884C132.694 136.7 132.07 137.357 131.322 137.856C130.574 138.332 129.634 138.57 128.5 138.57ZM131.322 136.122C131.685 136.122 132.002 136.054 132.274 135.918C132.569 135.759 132.841 135.498 133.09 135.136V128.064C132.909 128.381 132.66 128.687 132.342 128.982C132.048 129.254 131.73 129.537 131.39 129.832C131.05 130.104 130.722 130.41 130.404 130.75C130.11 131.09 129.86 131.498 129.656 131.974C129.475 132.427 129.384 132.982 129.384 133.64C129.384 134.524 129.566 135.158 129.928 135.544C130.291 135.929 130.756 136.122 131.322 136.122ZM154.422 120.244C155.397 120.244 156.179 120.368 156.768 120.618C157.38 120.867 157.856 121.184 158.196 121.57C158.559 122 158.82 122.567 158.978 123.27C159.137 123.95 159.216 124.856 159.216 125.99V135.17C159.216 136.122 159.341 136.768 159.59 137.108C159.862 137.448 160.327 137.618 160.984 137.618V138.332C160.554 138.309 159.919 138.286 159.08 138.264C158.242 138.218 157.426 138.196 156.632 138.196C155.771 138.196 154.932 138.218 154.116 138.264C153.3 138.286 152.688 138.309 152.28 138.332V137.618C152.802 137.618 153.164 137.448 153.368 137.108C153.595 136.768 153.708 136.122 153.708 135.17V124.358C153.708 123.836 153.663 123.394 153.572 123.032C153.482 122.646 153.323 122.363 153.096 122.182C152.87 121.978 152.541 121.876 152.11 121.876C151.612 121.876 151.136 122.012 150.682 122.284C150.252 122.556 149.9 122.941 149.628 123.44C149.379 123.916 149.254 124.46 149.254 125.072V135.17C149.254 136.122 149.356 136.768 149.56 137.108C149.764 137.448 150.138 137.618 150.682 137.618V138.332C150.297 138.309 149.719 138.286 148.948 138.264C148.178 138.218 147.396 138.196 146.602 138.196C145.673 138.196 144.744 138.218 143.814 138.264C142.885 138.286 142.182 138.309 141.706 138.332V137.618C142.454 137.618 142.976 137.448 143.27 137.108C143.588 136.768 143.746 136.122 143.746 135.17V124.426C143.746 123.406 143.599 122.658 143.304 122.182C143.01 121.683 142.477 121.434 141.706 121.434V120.72C142.432 120.788 143.134 120.822 143.814 120.822C144.834 120.822 145.798 120.788 146.704 120.72C147.634 120.629 148.484 120.504 149.254 120.346V123.1C149.776 122.08 150.478 121.354 151.362 120.924C152.269 120.47 153.289 120.244 154.422 120.244ZM164.656 120.244C165.631 120.244 166.413 120.368 167.002 120.618C167.614 120.867 168.09 121.184 168.43 121.57C168.793 122 169.054 122.567 169.212 123.27C169.371 123.95 169.45 124.856 169.45 125.99V135.17C169.45 136.122 169.598 136.768 169.892 137.108C170.21 137.448 170.742 137.618 171.49 137.618V138.332C171.037 138.309 170.357 138.286 169.45 138.264C168.566 138.218 167.705 138.196 166.866 138.196C166.005 138.196 165.166 138.218 164.35 138.264C163.534 138.286 162.922 138.309 162.514 138.332V137.618C163.036 137.618 163.398 137.448 163.602 137.108C163.829 136.768 163.942 136.122 163.942 135.17V124.358C163.942 123.836 163.886 123.394 163.772 123.032C163.659 122.646 163.466 122.363 163.194 122.182C162.945 121.978 162.571 121.876 162.072 121.876C161.574 121.876 161.098 122.034 160.644 122.352C160.214 122.646 159.862 123.043 159.59 123.542C159.341 124.04 159.194 124.596 159.148 125.208L158.944 123.508C159.556 122.238 160.361 121.377 161.358 120.924C162.356 120.47 163.455 120.244 164.656 120.244ZM181.56 120.244C183.554 120.244 185.118 120.833 186.252 122.012C187.385 123.19 187.952 125.128 187.952 127.826H177.038L177.004 127.18H183.328C183.373 126.069 183.328 125.049 183.192 124.12C183.056 123.168 182.829 122.408 182.512 121.842C182.217 121.275 181.82 120.992 181.322 120.992C180.642 120.992 180.064 121.479 179.588 122.454C179.112 123.428 178.817 125.083 178.704 127.418L178.84 127.656C178.794 127.905 178.772 128.166 178.772 128.438C178.772 128.687 178.772 128.959 178.772 129.254C178.772 130.818 178.976 132.064 179.384 132.994C179.814 133.923 180.347 134.58 180.982 134.966C181.616 135.351 182.274 135.544 182.954 135.544C183.339 135.544 183.77 135.487 184.246 135.374C184.722 135.26 185.22 135.022 185.742 134.66C186.263 134.297 186.762 133.764 187.238 133.062L187.816 133.266C187.566 134.15 187.136 135.022 186.524 135.884C185.934 136.722 185.175 137.425 184.246 137.992C183.316 138.536 182.194 138.808 180.88 138.808C179.384 138.808 178.046 138.502 176.868 137.89C175.689 137.255 174.748 136.269 174.046 134.932C173.366 133.572 173.026 131.804 173.026 129.628C173.026 127.474 173.4 125.706 174.148 124.324C174.896 122.941 175.916 121.921 177.208 121.264C178.5 120.584 179.95 120.244 181.56 120.244ZM202.541 120.244C203.538 120.244 204.331 120.368 204.921 120.618C205.533 120.867 205.997 121.184 206.315 121.57C206.677 122 206.938 122.556 207.097 123.236C207.278 123.916 207.369 124.834 207.369 125.99V135.17C207.369 136.122 207.516 136.768 207.811 137.108C208.128 137.448 208.661 137.618 209.409 137.618V138.332C208.955 138.309 208.275 138.286 207.369 138.264C206.485 138.218 205.623 138.196 204.785 138.196C203.855 138.196 202.96 138.218 202.099 138.264C201.237 138.286 200.591 138.309 200.161 138.332V137.618C200.795 137.618 201.237 137.448 201.487 137.108C201.736 136.768 201.861 136.122 201.861 135.17V124.358C201.861 123.836 201.804 123.394 201.691 123.032C201.577 122.646 201.385 122.363 201.113 122.182C200.841 121.978 200.455 121.876 199.957 121.876C199.435 121.876 198.948 122.012 198.495 122.284C198.064 122.556 197.713 122.941 197.441 123.44C197.191 123.916 197.067 124.46 197.067 125.072V135.17C197.067 136.122 197.191 136.768 197.441 137.108C197.69 137.448 198.132 137.618 198.767 137.618V138.332C198.336 138.309 197.713 138.286 196.897 138.264C196.081 138.218 195.253 138.196 194.415 138.196C193.485 138.196 192.556 138.218 191.627 138.264C190.697 138.286 189.995 138.309 189.519 138.332V137.618C190.267 137.618 190.788 137.448 191.083 137.108C191.4 136.768 191.559 136.122 191.559 135.17V124.426C191.559 123.406 191.411 122.658 191.117 122.182C190.822 121.683 190.289 121.434 189.519 121.434V120.72C190.244 120.788 190.947 120.822 191.627 120.822C192.647 120.822 193.61 120.788 194.517 120.72C195.446 120.629 196.296 120.504 197.067 120.346V123.1C197.611 122.057 198.347 121.32 199.277 120.89C200.229 120.459 201.317 120.244 202.541 120.244ZM217.948 115.178V120.72H221.62V121.4H217.948V135.306C217.948 135.872 218.05 136.28 218.254 136.53C218.458 136.756 218.764 136.87 219.172 136.87C219.512 136.87 219.863 136.756 220.226 136.53C220.611 136.303 220.962 135.918 221.28 135.374L221.824 135.714C221.393 136.643 220.792 137.391 220.022 137.958C219.274 138.524 218.288 138.808 217.064 138.808C216.316 138.808 215.647 138.706 215.058 138.502C214.491 138.32 214.015 138.037 213.63 137.652C213.131 137.153 212.802 136.541 212.644 135.816C212.508 135.068 212.44 134.104 212.44 132.926V121.4H209.72V120.72H212.44V116.47C213.505 116.47 214.48 116.368 215.364 116.164C216.27 115.96 217.132 115.631 217.948 115.178ZM227.114 138.57C226.071 138.57 225.21 138.377 224.53 137.992C223.85 137.584 223.351 137.051 223.034 136.394C222.716 135.736 222.558 135.034 222.558 134.286C222.558 133.334 222.773 132.552 223.204 131.94C223.657 131.328 224.235 130.84 224.938 130.478C225.64 130.092 226.377 129.775 227.148 129.526C227.918 129.276 228.655 129.038 229.358 128.812C230.06 128.562 230.627 128.279 231.058 127.962C231.488 127.622 231.704 127.191 231.704 126.67V123.848C231.704 123.349 231.624 122.884 231.466 122.454C231.33 122 231.069 121.638 230.684 121.366C230.321 121.071 229.811 120.924 229.154 120.924C228.746 120.924 228.349 120.98 227.964 121.094C227.578 121.207 227.238 121.388 226.944 121.638C227.669 121.887 228.202 122.261 228.542 122.76C228.904 123.258 229.086 123.814 229.086 124.426C229.086 125.264 228.791 125.933 228.202 126.432C227.635 126.908 226.955 127.146 226.162 127.146C225.3 127.146 224.632 126.874 224.156 126.33C223.702 125.786 223.476 125.128 223.476 124.358C223.476 123.678 223.646 123.111 223.986 122.658C224.326 122.182 224.824 121.751 225.482 121.366C226.139 120.98 226.932 120.697 227.862 120.516C228.791 120.334 229.777 120.244 230.82 120.244C231.885 120.244 232.86 120.357 233.744 120.584C234.65 120.788 235.421 121.207 236.056 121.842C236.554 122.363 236.872 122.998 237.008 123.746C237.144 124.494 237.212 125.446 237.212 126.602V135.782C237.212 136.348 237.257 136.745 237.348 136.972C237.461 137.176 237.631 137.278 237.858 137.278C238.062 137.278 238.254 137.221 238.436 137.108C238.617 136.994 238.798 136.87 238.98 136.734L239.354 137.312C238.855 137.72 238.266 138.037 237.586 138.264C236.906 138.468 236.169 138.57 235.376 138.57C234.469 138.57 233.755 138.456 233.234 138.23C232.735 137.98 232.372 137.652 232.146 137.244C231.942 136.836 231.828 136.382 231.806 135.884C231.307 136.7 230.684 137.357 229.936 137.856C229.188 138.332 228.247 138.57 227.114 138.57ZM229.936 136.122C230.298 136.122 230.616 136.054 230.888 135.918C231.182 135.759 231.454 135.498 231.704 135.136V128.064C231.522 128.381 231.273 128.687 230.956 128.982C230.661 129.254 230.344 129.537 230.004 129.832C229.664 130.104 229.335 130.41 229.018 130.75C228.723 131.09 228.474 131.498 228.27 131.974C228.088 132.427 227.998 132.982 227.998 133.64C227.998 134.524 228.179 135.158 228.542 135.544C228.904 135.929 229.369 136.122 229.936 136.122ZM247.732 111.744V135.17C247.732 136.122 247.879 136.768 248.174 137.108C248.491 137.448 249.024 137.618 249.772 137.618V138.332C249.341 138.309 248.684 138.286 247.8 138.264C246.916 138.218 246.009 138.196 245.08 138.196C244.173 138.196 243.244 138.218 242.292 138.264C241.362 138.286 240.66 138.309 240.184 138.332V137.618C240.932 137.618 241.453 137.448 241.748 137.108C242.065 136.768 242.224 136.122 242.224 135.17V115.79C242.224 114.792 242.076 114.056 241.782 113.58C241.51 113.081 240.977 112.832 240.184 112.832V112.118C240.909 112.186 241.612 112.22 242.292 112.22C243.334 112.22 244.309 112.186 245.216 112.118C246.122 112.027 246.961 111.902 247.732 111.744ZM258.112 120.244C259.11 120.244 259.971 120.357 260.696 120.584C261.422 120.81 261.954 121.026 262.294 121.23C263.088 121.728 263.564 121.411 263.722 120.278H264.436C264.391 120.935 264.357 121.728 264.334 122.658C264.312 123.564 264.3 124.788 264.3 126.33H263.586C263.496 125.491 263.292 124.664 262.974 123.848C262.68 123.032 262.238 122.363 261.648 121.842C261.059 121.298 260.288 121.026 259.336 121.026C258.724 121.026 258.203 121.207 257.772 121.57C257.364 121.932 257.16 122.431 257.16 123.066C257.16 123.746 257.364 124.346 257.772 124.868C258.18 125.389 258.702 125.888 259.336 126.364C259.994 126.84 260.651 127.35 261.308 127.894C262.034 128.438 262.68 128.993 263.246 129.56C263.836 130.104 264.3 130.704 264.64 131.362C265.003 131.996 265.184 132.767 265.184 133.674C265.184 134.694 264.878 135.589 264.266 136.36C263.654 137.13 262.85 137.731 261.852 138.162C260.855 138.592 259.744 138.808 258.52 138.808C257.772 138.808 257.115 138.728 256.548 138.57C256.004 138.434 255.551 138.252 255.188 138.026C254.848 137.867 254.542 137.731 254.27 137.618C254.021 137.504 253.772 137.425 253.522 137.38C253.296 137.357 253.103 137.459 252.944 137.686C252.786 137.912 252.661 138.207 252.57 138.57H251.856C251.902 137.844 251.936 136.96 251.958 135.918C251.981 134.875 251.992 133.492 251.992 131.77H252.706C252.842 132.994 253.092 134.07 253.454 135C253.84 135.929 254.35 136.666 254.984 137.21C255.619 137.731 256.367 137.992 257.228 137.992C257.614 137.992 257.965 137.924 258.282 137.788C258.622 137.629 258.894 137.391 259.098 137.074C259.325 136.756 259.438 136.348 259.438 135.85C259.438 134.852 259.121 134.025 258.486 133.368C257.852 132.688 257.07 131.951 256.14 131.158C255.415 130.546 254.735 129.945 254.1 129.356C253.488 128.766 252.978 128.12 252.57 127.418C252.185 126.715 251.992 125.922 251.992 125.038C251.992 124.018 252.276 123.156 252.842 122.454C253.432 121.728 254.191 121.184 255.12 120.822C256.05 120.436 257.047 120.244 258.112 120.244Z" fill="#302C60"/>
<path d="M40.9064 157.223H41.6464V163.583H45.5664V164.223H40.9064V157.223ZM51.1469 161.813H46.7469C46.7869 162.359 46.9969 162.803 47.3769 163.143C47.7569 163.476 48.2369 163.643 48.8169 163.643C49.1436 163.643 49.4436 163.586 49.7169 163.473C49.9902 163.353 50.2269 163.179 50.4269 162.953L50.8269 163.413C50.5936 163.693 50.3002 163.906 49.9469 164.053C49.6002 164.199 49.2169 164.273 48.7969 164.273C48.2569 164.273 47.7769 164.159 47.3569 163.933C46.9436 163.699 46.6202 163.379 46.3869 162.973C46.1536 162.566 46.0369 162.106 46.0369 161.593C46.0369 161.079 46.1469 160.619 46.3669 160.213C46.5936 159.806 46.9002 159.489 47.2869 159.263C47.6802 159.036 48.1202 158.923 48.6069 158.923C49.0936 158.923 49.5302 159.036 49.9169 159.263C50.3036 159.489 50.6069 159.806 50.8269 160.213C51.0469 160.613 51.1569 161.073 51.1569 161.593L51.1469 161.813ZM48.6069 159.533C48.1002 159.533 47.6736 159.696 47.3269 160.023C46.9869 160.343 46.7936 160.763 46.7469 161.283H50.4769C50.4302 160.763 50.2336 160.343 49.8869 160.023C49.5469 159.696 49.1202 159.533 48.6069 159.533ZM54.2956 158.923C54.9822 158.923 55.5089 159.096 55.8756 159.443C56.2422 159.783 56.4256 160.289 56.4256 160.963V164.223H55.7456V163.403C55.5856 163.676 55.3489 163.889 55.0356 164.043C54.7289 164.196 54.3622 164.273 53.9356 164.273C53.3489 164.273 52.8822 164.133 52.5356 163.853C52.1889 163.573 52.0156 163.203 52.0156 162.743C52.0156 162.296 52.1756 161.936 52.4956 161.663C52.8222 161.389 53.3389 161.253 54.0456 161.253H55.7156V160.933C55.7156 160.479 55.5889 160.136 55.3356 159.903C55.0822 159.663 54.7122 159.543 54.2256 159.543C53.8922 159.543 53.5722 159.599 53.2656 159.713C52.9589 159.819 52.6956 159.969 52.4756 160.163L52.1556 159.633C52.4222 159.406 52.7422 159.233 53.1156 159.113C53.4889 158.986 53.8822 158.923 54.2956 158.923ZM54.0456 163.713C54.4456 163.713 54.7889 163.623 55.0756 163.443C55.3622 163.256 55.5756 162.989 55.7156 162.643V161.783H54.0656C53.1656 161.783 52.7156 162.096 52.7156 162.723C52.7156 163.029 52.8322 163.273 53.0656 163.453C53.2989 163.626 53.6256 163.713 54.0456 163.713ZM59.034 159.993C59.2007 159.639 59.4473 159.373 59.774 159.193C60.1073 159.013 60.5173 158.923 61.004 158.923V159.613L60.834 159.603C60.2807 159.603 59.8473 159.773 59.534 160.113C59.2207 160.453 59.064 160.929 59.064 161.543V164.223H58.354V158.963H59.034V159.993ZM64.9696 158.923C65.6296 158.923 66.1529 159.116 66.5396 159.503C66.9329 159.883 67.1296 160.439 67.1296 161.173V164.223H66.4196V161.243C66.4196 160.696 66.2829 160.279 66.0096 159.993C65.7362 159.706 65.3462 159.563 64.8396 159.563C64.2729 159.563 63.8229 159.733 63.4896 160.073C63.1629 160.406 62.9996 160.869 62.9996 161.463V164.223H62.2896V158.963H62.9696V159.933C63.1629 159.613 63.4296 159.366 63.7696 159.193C64.1162 159.013 64.5162 158.923 64.9696 158.923ZM74.4443 157.223C75.3377 157.223 76.0377 157.436 76.5443 157.863C77.051 158.289 77.3043 158.876 77.3043 159.623C77.3043 160.369 77.051 160.956 76.5443 161.383C76.0377 161.803 75.3377 162.013 74.4443 162.013H72.5643V164.223H71.8243V157.223H74.4443ZM74.4243 161.363C75.1177 161.363 75.6477 161.213 76.0143 160.913C76.381 160.606 76.5643 160.176 76.5643 159.623C76.5643 159.056 76.381 158.623 76.0143 158.323C75.6477 158.016 75.1177 157.863 74.4243 157.863H72.5643V161.363H74.4243ZM83.3144 160.613C83.7744 160.713 84.1277 160.913 84.3744 161.213C84.6277 161.506 84.7544 161.886 84.7544 162.353C84.7544 162.953 84.5311 163.416 84.0844 163.743C83.6444 164.063 82.9911 164.223 82.1244 164.223H78.9044V157.223H81.9244C82.7044 157.223 83.3077 157.379 83.7344 157.693C84.1677 158.006 84.3844 158.449 84.3844 159.023C84.3844 159.409 84.2877 159.739 84.0944 160.013C83.9077 160.279 83.6477 160.479 83.3144 160.613ZM79.6444 157.833V160.373H81.8744C82.4411 160.373 82.8777 160.266 83.1844 160.053C83.4911 159.833 83.6444 159.516 83.6444 159.103C83.6444 158.689 83.4911 158.376 83.1844 158.163C82.8777 157.943 82.4411 157.833 81.8744 157.833H79.6444ZM82.1144 163.613C82.7411 163.613 83.2144 163.506 83.5344 163.293C83.8544 163.079 84.0144 162.746 84.0144 162.293C84.0144 161.419 83.3811 160.983 82.1144 160.983H79.6444V163.613H82.1144ZM89.4835 164.283C88.7901 164.283 88.1635 164.129 87.6035 163.823C87.0501 163.516 86.6135 163.093 86.2935 162.553C85.9801 162.006 85.8235 161.396 85.8235 160.723C85.8235 160.049 85.9801 159.443 86.2935 158.903C86.6135 158.356 87.0535 157.929 87.6135 157.623C88.1735 157.316 88.8001 157.163 89.4935 157.163C90.0135 157.163 90.4935 157.249 90.9335 157.423C91.3735 157.596 91.7468 157.849 92.0535 158.183L91.5835 158.653C91.0368 158.099 90.3468 157.823 89.5135 157.823C88.9601 157.823 88.4568 157.949 88.0035 158.203C87.5501 158.456 87.1935 158.803 86.9335 159.243C86.6801 159.683 86.5535 160.176 86.5535 160.723C86.5535 161.269 86.6801 161.763 86.9335 162.203C87.1935 162.643 87.5501 162.989 88.0035 163.243C88.4568 163.496 88.9601 163.623 89.5135 163.623C90.3535 163.623 91.0435 163.343 91.5835 162.783L92.0535 163.253C91.7468 163.586 91.3701 163.843 90.9235 164.023C90.4835 164.196 90.0035 164.283 89.4835 164.283ZM98.8082 158.923C99.3015 158.923 99.7482 159.036 100.148 159.263C100.548 159.483 100.861 159.796 101.088 160.203C101.315 160.609 101.428 161.073 101.428 161.593C101.428 162.113 101.315 162.576 101.088 162.983C100.861 163.389 100.548 163.706 100.148 163.933C99.7482 164.159 99.3015 164.273 98.8082 164.273C98.3682 164.273 97.9715 164.179 97.6182 163.993C97.2715 163.806 96.9915 163.536 96.7782 163.183V164.223H96.0982V156.803H96.8082V159.963C97.0282 159.623 97.3082 159.366 97.6482 159.193C97.9948 159.013 98.3815 158.923 98.8082 158.923ZM98.7582 163.643C99.1248 163.643 99.4582 163.559 99.7582 163.393C100.058 163.219 100.291 162.976 100.458 162.663C100.631 162.349 100.718 161.993 100.718 161.593C100.718 161.193 100.631 160.836 100.458 160.523C100.291 160.209 100.058 159.969 99.7582 159.803C99.4582 159.629 99.1248 159.543 98.7582 159.543C98.3848 159.543 98.0482 159.629 97.7482 159.803C97.4548 159.969 97.2215 160.209 97.0482 160.523C96.8815 160.836 96.7982 161.193 96.7982 161.593C96.7982 161.993 96.8815 162.349 97.0482 162.663C97.2215 162.976 97.4548 163.219 97.7482 163.393C98.0482 163.559 98.3848 163.643 98.7582 163.643ZM104.686 158.923C105.373 158.923 105.9 159.096 106.266 159.443C106.633 159.783 106.816 160.289 106.816 160.963V164.223H106.136V163.403C105.976 163.676 105.74 163.889 105.426 164.043C105.12 164.196 104.753 164.273 104.326 164.273C103.74 164.273 103.273 164.133 102.926 163.853C102.58 163.573 102.406 163.203 102.406 162.743C102.406 162.296 102.566 161.936 102.886 161.663C103.213 161.389 103.73 161.253 104.436 161.253H106.106V160.933C106.106 160.479 105.98 160.136 105.726 159.903C105.473 159.663 105.103 159.543 104.616 159.543C104.283 159.543 103.963 159.599 103.656 159.713C103.35 159.819 103.086 159.969 102.866 160.163L102.546 159.633C102.813 159.406 103.133 159.233 103.506 159.113C103.88 158.986 104.273 158.923 104.686 158.923ZM104.436 163.713C104.836 163.713 105.18 163.623 105.466 163.443C105.753 163.256 105.966 162.989 106.106 162.643V161.783H104.456C103.556 161.783 103.106 162.096 103.106 162.723C103.106 163.029 103.223 163.273 103.456 163.453C103.69 163.626 104.016 163.713 104.436 163.713ZM110.155 164.273C109.728 164.273 109.318 164.213 108.925 164.093C108.538 163.966 108.235 163.809 108.015 163.623L108.335 163.063C108.555 163.236 108.831 163.379 109.165 163.493C109.498 163.599 109.845 163.653 110.205 163.653C110.685 163.653 111.038 163.579 111.265 163.433C111.498 163.279 111.615 163.066 111.615 162.793C111.615 162.599 111.551 162.449 111.425 162.343C111.298 162.229 111.138 162.146 110.945 162.093C110.751 162.033 110.495 161.976 110.175 161.923C109.748 161.843 109.405 161.763 109.145 161.683C108.885 161.596 108.661 161.453 108.475 161.253C108.295 161.053 108.205 160.776 108.205 160.423C108.205 159.983 108.388 159.623 108.755 159.343C109.121 159.063 109.631 158.923 110.285 158.923C110.625 158.923 110.965 158.969 111.305 159.063C111.645 159.149 111.925 159.266 112.145 159.413L111.835 159.983C111.401 159.683 110.885 159.533 110.285 159.533C109.831 159.533 109.488 159.613 109.255 159.773C109.028 159.933 108.915 160.143 108.915 160.403C108.915 160.603 108.978 160.763 109.105 160.883C109.238 161.003 109.401 161.093 109.595 161.153C109.788 161.206 110.055 161.263 110.395 161.323C110.815 161.403 111.151 161.483 111.405 161.563C111.658 161.643 111.875 161.779 112.055 161.973C112.235 162.166 112.325 162.433 112.325 162.773C112.325 163.233 112.131 163.599 111.745 163.873C111.365 164.139 110.835 164.273 110.155 164.273ZM113.637 158.963H114.347V164.223H113.637V158.963ZM113.997 157.813C113.851 157.813 113.727 157.763 113.627 157.663C113.527 157.563 113.477 157.443 113.477 157.303C113.477 157.169 113.527 157.053 113.627 156.953C113.727 156.853 113.851 156.803 113.997 156.803C114.144 156.803 114.267 156.853 114.367 156.953C114.467 157.046 114.517 157.159 114.517 157.293C114.517 157.439 114.467 157.563 114.367 157.663C114.267 157.763 114.144 157.813 113.997 157.813ZM118.503 164.273C117.983 164.273 117.516 164.159 117.103 163.933C116.696 163.706 116.376 163.389 116.143 162.983C115.909 162.569 115.793 162.106 115.793 161.593C115.793 161.079 115.909 160.619 116.143 160.213C116.376 159.806 116.696 159.489 117.103 159.263C117.516 159.036 117.983 158.923 118.503 158.923C118.956 158.923 119.359 159.013 119.713 159.193C120.073 159.366 120.356 159.623 120.563 159.963L120.033 160.323C119.859 160.063 119.639 159.869 119.373 159.743C119.106 159.609 118.816 159.543 118.503 159.543C118.123 159.543 117.779 159.629 117.473 159.803C117.173 159.969 116.936 160.209 116.763 160.523C116.596 160.836 116.513 161.193 116.513 161.593C116.513 161.999 116.596 162.359 116.763 162.673C116.936 162.979 117.173 163.219 117.473 163.393C117.779 163.559 118.123 163.643 118.503 163.643C118.816 163.643 119.106 163.579 119.373 163.453C119.639 163.326 119.859 163.133 120.033 162.873L120.563 163.233C120.356 163.573 120.073 163.833 119.713 164.013C119.353 164.186 118.949 164.273 118.503 164.273ZM123.368 164.273C122.941 164.273 122.531 164.213 122.138 164.093C121.751 163.966 121.448 163.809 121.228 163.623L121.548 163.063C121.768 163.236 122.044 163.379 122.378 163.493C122.711 163.599 123.058 163.653 123.418 163.653C123.898 163.653 124.251 163.579 124.478 163.433C124.711 163.279 124.828 163.066 124.828 162.793C124.828 162.599 124.764 162.449 124.638 162.343C124.511 162.229 124.351 162.146 124.158 162.093C123.964 162.033 123.708 161.976 123.388 161.923C122.961 161.843 122.618 161.763 122.358 161.683C122.098 161.596 121.874 161.453 121.688 161.253C121.508 161.053 121.418 160.776 121.418 160.423C121.418 159.983 121.601 159.623 121.968 159.343C122.334 159.063 122.844 158.923 123.498 158.923C123.838 158.923 124.178 158.969 124.518 159.063C124.858 159.149 125.138 159.266 125.358 159.413L125.048 159.983C124.614 159.683 124.098 159.533 123.498 159.533C123.044 159.533 122.701 159.613 122.468 159.773C122.241 159.933 122.128 160.143 122.128 160.403C122.128 160.603 122.191 160.763 122.318 160.883C122.451 161.003 122.614 161.093 122.808 161.153C123.001 161.206 123.268 161.263 123.608 161.323C124.028 161.403 124.364 161.483 124.618 161.563C124.871 161.643 125.088 161.779 125.268 161.973C125.448 162.166 125.538 162.433 125.538 162.773C125.538 163.233 125.344 163.599 124.958 163.873C124.578 164.139 124.048 164.273 123.368 164.273ZM126.92 164.273C126.773 164.273 126.647 164.219 126.54 164.113C126.44 164.006 126.39 163.876 126.39 163.723C126.39 163.569 126.44 163.443 126.54 163.343C126.647 163.236 126.773 163.183 126.92 163.183C127.067 163.183 127.193 163.236 127.3 163.343C127.407 163.443 127.46 163.569 127.46 163.723C127.46 163.876 127.407 164.006 127.3 164.113C127.193 164.219 127.067 164.273 126.92 164.273ZM141.346 157.223L138.986 164.223H138.206L136.156 158.253L134.096 164.223H133.326L130.966 157.223H131.726L133.746 163.243L135.836 157.223H136.526L138.586 163.273L140.636 157.223H141.346ZM145.38 158.923C146.04 158.923 146.563 159.116 146.95 159.503C147.343 159.883 147.54 160.439 147.54 161.173V164.223H146.83V161.243C146.83 160.696 146.693 160.279 146.42 159.993C146.146 159.706 145.756 159.563 145.25 159.563C144.683 159.563 144.233 159.733 143.9 160.073C143.573 160.406 143.41 160.869 143.41 161.463V164.223H142.7V156.803H143.41V159.883C143.603 159.576 143.87 159.339 144.21 159.173C144.55 159.006 144.94 158.923 145.38 158.923ZM151.307 158.923C151.994 158.923 152.521 159.096 152.887 159.443C153.254 159.783 153.437 160.289 153.437 160.963V164.223H152.757V163.403C152.597 163.676 152.361 163.889 152.047 164.043C151.741 164.196 151.374 164.273 150.947 164.273C150.361 164.273 149.894 164.133 149.547 163.853C149.201 163.573 149.027 163.203 149.027 162.743C149.027 162.296 149.187 161.936 149.507 161.663C149.834 161.389 150.351 161.253 151.057 161.253H152.727V160.933C152.727 160.479 152.601 160.136 152.347 159.903C152.094 159.663 151.724 159.543 151.237 159.543C150.904 159.543 150.584 159.599 150.277 159.713C149.971 159.819 149.707 159.969 149.487 160.163L149.167 159.633C149.434 159.406 149.754 159.233 150.127 159.113C150.501 158.986 150.894 158.923 151.307 158.923ZM151.057 163.713C151.457 163.713 151.801 163.623 152.087 163.443C152.374 163.256 152.587 162.989 152.727 162.643V161.783H151.077C150.177 161.783 149.727 162.096 149.727 162.723C149.727 163.029 149.844 163.273 150.077 163.453C150.311 163.626 150.637 163.713 151.057 163.713ZM158.136 163.903C158.002 164.023 157.836 164.116 157.636 164.183C157.442 164.243 157.239 164.273 157.026 164.273C156.532 164.273 156.152 164.139 155.886 163.873C155.619 163.606 155.486 163.229 155.486 162.743V159.563H154.546V158.963H155.486V157.813H156.196V158.963H157.796V159.563H156.196V162.703C156.196 163.016 156.272 163.256 156.426 163.423C156.586 163.583 156.812 163.663 157.106 163.663C157.252 163.663 157.392 163.639 157.526 163.593C157.666 163.546 157.786 163.479 157.886 163.393L158.136 163.903ZM162.045 158.963H162.755V164.223H162.045V158.963ZM162.405 157.813C162.259 157.813 162.135 157.763 162.035 157.663C161.935 157.563 161.885 157.443 161.885 157.303C161.885 157.169 161.935 157.053 162.035 156.953C162.135 156.853 162.259 156.803 162.405 156.803C162.552 156.803 162.675 156.853 162.775 156.953C162.875 157.046 162.925 157.159 162.925 157.293C162.925 157.439 162.875 157.563 162.775 157.663C162.675 157.763 162.552 157.813 162.405 157.813ZM166.141 164.273C165.714 164.273 165.304 164.213 164.911 164.093C164.524 163.966 164.221 163.809 164.001 163.623L164.321 163.063C164.541 163.236 164.818 163.379 165.151 163.493C165.484 163.599 165.831 163.653 166.191 163.653C166.671 163.653 167.024 163.579 167.251 163.433C167.484 163.279 167.601 163.066 167.601 162.793C167.601 162.599 167.538 162.449 167.411 162.343C167.284 162.229 167.124 162.146 166.931 162.093C166.738 162.033 166.481 161.976 166.161 161.923C165.734 161.843 165.391 161.763 165.131 161.683C164.871 161.596 164.648 161.453 164.461 161.253C164.281 161.053 164.191 160.776 164.191 160.423C164.191 159.983 164.374 159.623 164.741 159.343C165.108 159.063 165.618 158.923 166.271 158.923C166.611 158.923 166.951 158.969 167.291 159.063C167.631 159.149 167.911 159.266 168.131 159.413L167.821 159.983C167.388 159.683 166.871 159.533 166.271 159.533C165.818 159.533 165.474 159.613 165.241 159.773C165.014 159.933 164.901 160.143 164.901 160.403C164.901 160.603 164.964 160.763 165.091 160.883C165.224 161.003 165.388 161.093 165.581 161.153C165.774 161.206 166.041 161.263 166.381 161.323C166.801 161.403 167.138 161.483 167.391 161.563C167.644 161.643 167.861 161.779 168.041 161.973C168.221 162.166 168.311 162.433 168.311 162.773C168.311 163.233 168.118 163.599 167.731 163.873C167.351 164.139 166.821 164.273 166.141 164.273ZM179.661 157.223V164.223H178.951V158.623L176.201 163.333H175.851L173.101 158.653V164.223H172.391V157.223H173.001L176.041 162.413L179.051 157.223H179.661ZM184.562 157.223C185.455 157.223 186.155 157.436 186.662 157.863C187.168 158.289 187.422 158.876 187.422 159.623C187.422 160.369 187.168 160.956 186.662 161.383C186.155 161.803 185.455 162.013 184.562 162.013H182.682V164.223H181.942V157.223H184.562ZM184.542 161.363C185.235 161.363 185.765 161.213 186.132 160.913C186.498 160.606 186.682 160.176 186.682 159.623C186.682 159.056 186.498 158.623 186.132 158.323C185.765 158.016 185.235 157.863 184.542 157.863H182.682V161.363H184.542ZM192.159 164.283C191.466 164.283 190.839 164.129 190.279 163.823C189.726 163.516 189.289 163.093 188.969 162.553C188.656 162.006 188.499 161.396 188.499 160.723C188.499 160.049 188.656 159.443 188.969 158.903C189.289 158.356 189.729 157.929 190.289 157.623C190.849 157.316 191.476 157.163 192.169 157.163C192.689 157.163 193.169 157.249 193.609 157.423C194.049 157.596 194.423 157.849 194.729 158.183L194.259 158.653C193.713 158.099 193.023 157.823 192.189 157.823C191.636 157.823 191.133 157.949 190.679 158.203C190.226 158.456 189.869 158.803 189.609 159.243C189.356 159.683 189.229 160.176 189.229 160.723C189.229 161.269 189.356 161.763 189.609 162.203C189.869 162.643 190.226 162.989 190.679 163.243C191.133 163.496 191.636 163.623 192.189 163.623C193.029 163.623 193.719 163.343 194.259 162.783L194.729 163.253C194.423 163.586 194.046 163.843 193.599 164.023C193.159 164.196 192.679 164.283 192.159 164.283ZM196.373 163.183C196.527 163.183 196.653 163.236 196.753 163.343C196.853 163.443 196.903 163.569 196.903 163.723C196.903 163.803 196.89 163.889 196.863 163.983C196.843 164.076 196.81 164.183 196.763 164.303L196.343 165.683H195.863L196.203 164.233C196.097 164.199 196.01 164.139 195.943 164.053C195.877 163.959 195.843 163.849 195.843 163.723C195.843 163.569 195.893 163.443 195.993 163.343C196.093 163.236 196.22 163.183 196.373 163.183ZM204.22 164.283C203.526 164.283 202.9 164.129 202.34 163.823C201.786 163.516 201.35 163.093 201.03 162.553C200.716 162.006 200.56 161.396 200.56 160.723C200.56 160.049 200.716 159.443 201.03 158.903C201.35 158.356 201.79 157.929 202.35 157.623C202.91 157.316 203.536 157.163 204.23 157.163C204.75 157.163 205.23 157.249 205.67 157.423C206.11 157.596 206.483 157.849 206.79 158.183L206.32 158.653C205.773 158.099 205.083 157.823 204.25 157.823C203.696 157.823 203.193 157.949 202.74 158.203C202.286 158.456 201.93 158.803 201.67 159.243C201.416 159.683 201.29 160.176 201.29 160.723C201.29 161.269 201.416 161.763 201.67 162.203C201.93 162.643 202.286 162.989 202.74 163.243C203.193 163.496 203.696 163.623 204.25 163.623C205.09 163.623 205.78 163.343 206.32 162.783L206.79 163.253C206.483 163.586 206.106 163.843 205.66 164.023C205.22 164.196 204.74 164.283 204.22 164.283ZM210.133 164.273C209.626 164.273 209.17 164.159 208.763 163.933C208.356 163.699 208.036 163.379 207.803 162.973C207.57 162.566 207.453 162.106 207.453 161.593C207.453 161.079 207.57 160.619 207.803 160.213C208.036 159.806 208.356 159.489 208.763 159.263C209.17 159.036 209.626 158.923 210.133 158.923C210.64 158.923 211.096 159.036 211.503 159.263C211.91 159.489 212.226 159.806 212.453 160.213C212.686 160.619 212.803 161.079 212.803 161.593C212.803 162.106 212.686 162.566 212.453 162.973C212.226 163.379 211.91 163.699 211.503 163.933C211.096 164.159 210.64 164.273 210.133 164.273ZM210.133 163.643C210.506 163.643 210.84 163.559 211.133 163.393C211.433 163.219 211.666 162.976 211.833 162.663C212 162.349 212.083 161.993 212.083 161.593C212.083 161.193 212 160.836 211.833 160.523C211.666 160.209 211.433 159.969 211.133 159.803C210.84 159.629 210.506 159.543 210.133 159.543C209.76 159.543 209.423 159.629 209.123 159.803C208.83 159.969 208.596 160.209 208.423 160.523C208.256 160.836 208.173 161.193 208.173 161.593C208.173 161.993 208.256 162.349 208.423 162.663C208.596 162.976 208.83 163.219 209.123 163.393C209.423 163.559 209.76 163.643 210.133 163.643ZM220.812 158.923C221.472 158.923 221.989 159.113 222.362 159.493C222.742 159.873 222.932 160.433 222.932 161.173V164.223H222.222V161.243C222.222 160.696 222.089 160.279 221.822 159.993C221.562 159.706 221.192 159.563 220.712 159.563C220.166 159.563 219.736 159.733 219.422 160.073C219.109 160.406 218.952 160.869 218.952 161.463V164.223H218.242V161.243C218.242 160.696 218.109 160.279 217.842 159.993C217.582 159.706 217.209 159.563 216.722 159.563C216.182 159.563 215.752 159.733 215.432 160.073C215.119 160.406 214.962 160.869 214.962 161.463V164.223H214.252V158.963H214.932V159.923C215.119 159.603 215.379 159.356 215.712 159.183C216.046 159.009 216.429 158.923 216.862 158.923C217.302 158.923 217.682 159.016 218.002 159.203C218.329 159.389 218.572 159.666 218.732 160.033C218.926 159.686 219.202 159.416 219.562 159.223C219.929 159.023 220.346 158.923 220.812 158.923ZM227.568 158.923C228.061 158.923 228.508 159.036 228.908 159.263C229.308 159.483 229.621 159.796 229.848 160.203C230.075 160.609 230.188 161.073 230.188 161.593C230.188 162.119 230.075 162.586 229.848 162.993C229.621 163.399 229.308 163.716 228.908 163.943C228.515 164.163 228.068 164.273 227.568 164.273C227.141 164.273 226.755 164.186 226.408 164.013C226.068 163.833 225.788 163.573 225.568 163.233V166.163H224.858V158.963H225.538V160.003C225.751 159.656 226.031 159.389 226.378 159.203C226.731 159.016 227.128 158.923 227.568 158.923ZM227.518 163.643C227.885 163.643 228.218 163.559 228.518 163.393C228.818 163.219 229.051 162.976 229.218 162.663C229.391 162.349 229.478 161.993 229.478 161.593C229.478 161.193 229.391 160.839 229.218 160.533C229.051 160.219 228.818 159.976 228.518 159.803C228.218 159.629 227.885 159.543 227.518 159.543C227.145 159.543 226.808 159.629 226.508 159.803C226.215 159.976 225.981 160.219 225.808 160.533C225.641 160.839 225.558 161.193 225.558 161.593C225.558 161.993 225.641 162.349 225.808 162.663C225.981 162.976 226.215 163.219 226.508 163.393C226.808 163.559 227.145 163.643 227.518 163.643ZM231.635 156.803H232.345V164.223H231.635V156.803ZM238.901 161.813H234.501C234.541 162.359 234.751 162.803 235.131 163.143C235.511 163.476 235.991 163.643 236.571 163.643C236.897 163.643 237.197 163.586 237.471 163.473C237.744 163.353 237.981 163.179 238.181 162.953L238.581 163.413C238.347 163.693 238.054 163.906 237.701 164.053C237.354 164.199 236.971 164.273 236.551 164.273C236.011 164.273 235.531 164.159 235.111 163.933C234.697 163.699 234.374 163.379 234.141 162.973C233.907 162.566 233.791 162.106 233.791 161.593C233.791 161.079 233.901 160.619 234.121 160.213C234.347 159.806 234.654 159.489 235.041 159.263C235.434 159.036 235.874 158.923 236.361 158.923C236.847 158.923 237.284 159.036 237.671 159.263C238.057 159.489 238.361 159.806 238.581 160.213C238.801 160.613 238.911 161.073 238.911 161.593L238.901 161.813ZM236.361 159.533C235.854 159.533 235.427 159.696 235.081 160.023C234.741 160.343 234.547 160.763 234.501 161.283H238.231C238.184 160.763 237.987 160.343 237.641 160.023C237.301 159.696 236.874 159.533 236.361 159.533ZM243.126 163.903C242.993 164.023 242.826 164.116 242.626 164.183C242.433 164.243 242.229 164.273 242.016 164.273C241.523 164.273 241.143 164.139 240.876 163.873C240.609 163.606 240.476 163.229 240.476 162.743V159.563H239.536V158.963H240.476V157.813H241.186V158.963H242.786V159.563H241.186V162.703C241.186 163.016 241.263 163.256 241.416 163.423C241.576 163.583 241.803 163.663 242.096 163.663C242.243 163.663 242.383 163.639 242.516 163.593C242.656 163.546 242.776 163.479 242.876 163.393L243.126 163.903ZM248.813 161.813H244.413C244.453 162.359 244.663 162.803 245.043 163.143C245.423 163.476 245.903 163.643 246.483 163.643C246.81 163.643 247.11 163.586 247.383 163.473C247.656 163.353 247.893 163.179 248.093 162.953L248.493 163.413C248.26 163.693 247.966 163.906 247.613 164.053C247.266 164.199 246.883 164.273 246.463 164.273C245.923 164.273 245.443 164.159 245.023 163.933C244.61 163.699 244.286 163.379 244.053 162.973C243.82 162.566 243.703 162.106 243.703 161.593C243.703 161.079 243.813 160.619 244.033 160.213C244.26 159.806 244.566 159.489 244.953 159.263C245.346 159.036 245.786 158.923 246.273 158.923C246.76 158.923 247.196 159.036 247.583 159.263C247.97 159.489 248.273 159.806 248.493 160.213C248.713 160.613 248.823 161.073 248.823 161.593L248.813 161.813ZM246.273 159.533C245.766 159.533 245.34 159.696 244.993 160.023C244.653 160.343 244.46 160.763 244.413 161.283H248.143C248.096 160.763 247.9 160.343 247.553 160.023C247.213 159.696 246.786 159.533 246.273 159.533ZM42.8364 176.283C42.3164 176.283 41.8164 176.199 41.3364 176.033C40.863 175.866 40.4964 175.646 40.2364 175.373L40.5264 174.803C40.7797 175.056 41.1164 175.263 41.5364 175.423C41.9564 175.576 42.3897 175.653 42.8364 175.653C43.463 175.653 43.933 175.539 44.2464 175.313C44.5597 175.079 44.7164 174.779 44.7164 174.413C44.7164 174.133 44.6297 173.909 44.4564 173.743C44.2897 173.576 44.083 173.449 43.8364 173.363C43.5897 173.269 43.2464 173.169 42.8064 173.063C42.2797 172.929 41.8597 172.803 41.5464 172.683C41.233 172.556 40.963 172.366 40.7364 172.113C40.5164 171.859 40.4064 171.516 40.4064 171.083C40.4064 170.729 40.4997 170.409 40.6864 170.123C40.873 169.829 41.1597 169.596 41.5464 169.423C41.933 169.249 42.413 169.163 42.9864 169.163C43.3864 169.163 43.7764 169.219 44.1564 169.333C44.543 169.439 44.8764 169.589 45.1564 169.783L44.9064 170.373C44.613 170.179 44.2997 170.036 43.9664 169.943C43.633 169.843 43.3064 169.793 42.9864 169.793C42.373 169.793 41.9097 169.913 41.5964 170.153C41.2897 170.386 41.1364 170.689 41.1364 171.063C41.1364 171.343 41.2197 171.569 41.3864 171.743C41.5597 171.909 41.773 172.039 42.0264 172.133C42.2864 172.219 42.633 172.316 43.0664 172.423C43.5797 172.549 43.993 172.676 44.3064 172.803C44.6264 172.923 44.8964 173.109 45.1164 173.363C45.3364 173.609 45.4464 173.946 45.4464 174.373C45.4464 174.726 45.3497 175.049 45.1564 175.343C44.9697 175.629 44.6797 175.859 44.2864 176.033C43.893 176.199 43.4097 176.283 42.8364 176.283ZM49.5887 170.923C50.2487 170.923 50.772 171.116 51.1587 171.503C51.552 171.883 51.7487 172.439 51.7487 173.173V176.223H51.0387V173.243C51.0387 172.696 50.902 172.279 50.6287 171.993C50.3554 171.706 49.9654 171.563 49.4587 171.563C48.892 171.563 48.442 171.733 48.1087 172.073C47.782 172.406 47.6187 172.869 47.6187 173.463V176.223H46.9087V168.803H47.6187V171.883C47.812 171.576 48.0787 171.339 48.4187 171.173C48.7587 171.006 49.1487 170.923 49.5887 170.923ZM55.5163 170.923C56.2029 170.923 56.7296 171.096 57.0963 171.443C57.4629 171.783 57.6463 172.289 57.6463 172.963V176.223H56.9663V175.403C56.8063 175.676 56.5696 175.889 56.2563 176.043C55.9496 176.196 55.5829 176.273 55.1563 176.273C54.5696 176.273 54.1029 176.133 53.7563 175.853C53.4096 175.573 53.2363 175.203 53.2363 174.743C53.2363 174.296 53.3963 173.936 53.7163 173.663C54.0429 173.389 54.5596 173.253 55.2663 173.253H56.9363V172.933C56.9363 172.479 56.8096 172.136 56.5563 171.903C56.3029 171.663 55.9329 171.543 55.4463 171.543C55.1129 171.543 54.7929 171.599 54.4863 171.713C54.1796 171.819 53.9163 171.969 53.6963 172.163L53.3763 171.633C53.6429 171.406 53.9629 171.233 54.3363 171.113C54.7096 170.986 55.1029 170.923 55.5163 170.923ZM55.2663 175.713C55.6663 175.713 56.0096 175.623 56.2963 175.443C56.5829 175.256 56.7963 174.989 56.9363 174.643V173.783H55.2863C54.3863 173.783 53.9363 174.096 53.9363 174.723C53.9363 175.029 54.0529 175.273 54.2863 175.453C54.5196 175.626 54.8463 175.713 55.2663 175.713ZM60.2547 171.993C60.4214 171.639 60.6681 171.373 60.9947 171.193C61.3281 171.013 61.7381 170.923 62.2247 170.923V171.613L62.0547 171.603C61.5014 171.603 61.0681 171.773 60.7547 172.113C60.4414 172.453 60.2847 172.929 60.2847 173.543V176.223H59.5747V170.963H60.2547V171.993ZM68.2614 168.803V176.223H67.5814V175.183C67.3681 175.536 67.0848 175.806 66.7314 175.993C66.3848 176.179 65.9914 176.273 65.5514 176.273C65.0581 176.273 64.6114 176.159 64.2114 175.933C63.8114 175.706 63.4981 175.389 63.2714 174.983C63.0448 174.576 62.9314 174.113 62.9314 173.593C62.9314 173.073 63.0448 172.609 63.2714 172.203C63.4981 171.796 63.8114 171.483 64.2114 171.263C64.6114 171.036 65.0581 170.923 65.5514 170.923C65.9781 170.923 66.3614 171.013 66.7014 171.193C67.0481 171.366 67.3314 171.623 67.5514 171.963V168.803H68.2614ZM65.6114 175.643C65.9781 175.643 66.3081 175.559 66.6014 175.393C66.9014 175.219 67.1348 174.976 67.3014 174.663C67.4748 174.349 67.5614 173.993 67.5614 173.593C67.5614 173.193 67.4748 172.836 67.3014 172.523C67.1348 172.209 66.9014 171.969 66.6014 171.803C66.3081 171.629 65.9781 171.543 65.6114 171.543C65.2381 171.543 64.9014 171.629 64.6014 171.803C64.3081 171.969 64.0748 172.209 63.9014 172.523C63.7348 172.836 63.6514 173.193 63.6514 173.593C63.6514 173.993 63.7348 174.349 63.9014 174.663C64.0748 174.976 64.3081 175.219 64.6014 175.393C64.9014 175.559 65.2381 175.643 65.6114 175.643ZM70.2388 170.963H70.9488V176.223H70.2388V170.963ZM70.5988 169.813C70.4521 169.813 70.3288 169.763 70.2288 169.663C70.1288 169.563 70.0788 169.443 70.0788 169.303C70.0788 169.169 70.1288 169.053 70.2288 168.953C70.3288 168.853 70.4521 168.803 70.5988 168.803C70.7454 168.803 70.8688 168.853 70.9688 168.953C71.0688 169.046 71.1188 169.159 71.1188 169.293C71.1188 169.439 71.0688 169.563 70.9688 169.663C70.8688 169.763 70.7454 169.813 70.5988 169.813ZM75.6043 170.923C76.2643 170.923 76.7877 171.116 77.1743 171.503C77.5677 171.883 77.7643 172.439 77.7643 173.173V176.223H77.0543V173.243C77.0543 172.696 76.9177 172.279 76.6443 171.993C76.371 171.706 75.981 171.563 75.4743 171.563C74.9077 171.563 74.4577 171.733 74.1243 172.073C73.7977 172.406 73.6343 172.869 73.6343 173.463V176.223H72.9243V170.963H73.6043V171.933C73.7977 171.613 74.0643 171.366 74.4043 171.193C74.751 171.013 75.151 170.923 75.6043 170.923ZM84.5814 170.963V175.583C84.5814 176.476 84.3614 177.136 83.9214 177.563C83.4881 177.996 82.8314 178.213 81.9514 178.213C81.4648 178.213 81.0014 178.139 80.5614 177.993C80.1281 177.853 79.7748 177.656 79.5014 177.403L79.8614 176.863C80.1148 177.089 80.4214 177.266 80.7814 177.393C81.1481 177.519 81.5314 177.583 81.9314 177.583C82.5981 177.583 83.0881 177.426 83.4014 177.113C83.7148 176.806 83.8714 176.326 83.8714 175.673V175.003C83.6514 175.336 83.3614 175.589 83.0014 175.763C82.6481 175.936 82.2548 176.023 81.8214 176.023C81.3281 176.023 80.8781 175.916 80.4714 175.703C80.0714 175.483 79.7548 175.179 79.5214 174.793C79.2948 174.399 79.1814 173.956 79.1814 173.463C79.1814 172.969 79.2948 172.529 79.5214 172.143C79.7548 171.756 80.0714 171.456 80.4714 171.243C80.8714 171.029 81.3214 170.923 81.8214 170.923C82.2681 170.923 82.6714 171.013 83.0314 171.193C83.3914 171.373 83.6814 171.633 83.9014 171.973V170.963H84.5814ZM81.8914 175.393C82.2714 175.393 82.6148 175.313 82.9214 175.153C83.2281 174.986 83.4648 174.756 83.6314 174.463C83.8048 174.169 83.8914 173.836 83.8914 173.463C83.8914 173.089 83.8048 172.759 83.6314 172.473C83.4648 172.179 83.2281 171.953 82.9214 171.793C82.6214 171.626 82.2781 171.543 81.8914 171.543C81.5114 171.543 81.1681 171.623 80.8614 171.783C80.5614 171.943 80.3248 172.169 80.1514 172.463C79.9848 172.756 79.9014 173.089 79.9014 173.463C79.9014 173.836 79.9848 174.169 80.1514 174.463C80.3248 174.756 80.5614 174.986 80.8614 175.153C81.1681 175.313 81.5114 175.393 81.8914 175.393ZM93.9841 168.803V176.223H93.3041V175.183C93.0908 175.536 92.8074 175.806 92.4541 175.993C92.1074 176.179 91.7141 176.273 91.2741 176.273C90.7808 176.273 90.3341 176.159 89.9341 175.933C89.5341 175.706 89.2208 175.389 88.9941 174.983C88.7674 174.576 88.6541 174.113 88.6541 173.593C88.6541 173.073 88.7674 172.609 88.9941 172.203C89.2208 171.796 89.5341 171.483 89.9341 171.263C90.3341 171.036 90.7808 170.923 91.2741 170.923C91.7008 170.923 92.0841 171.013 92.4241 171.193C92.7708 171.366 93.0541 171.623 93.2741 171.963V168.803H93.9841ZM91.3341 175.643C91.7008 175.643 92.0308 175.559 92.3241 175.393C92.6241 175.219 92.8574 174.976 93.0241 174.663C93.1974 174.349 93.2841 173.993 93.2841 173.593C93.2841 173.193 93.1974 172.836 93.0241 172.523C92.8574 172.209 92.6241 171.969 92.3241 171.803C92.0308 171.629 91.7008 171.543 91.3341 171.543C90.9608 171.543 90.6241 171.629 90.3241 171.803C90.0308 171.969 89.7974 172.209 89.6241 172.523C89.4574 172.836 89.3741 173.193 89.3741 173.593C89.3741 173.993 89.4574 174.349 89.6241 174.663C89.7974 174.976 90.0308 175.219 90.3241 175.393C90.6241 175.559 90.9608 175.643 91.3341 175.643ZM100.541 173.813H96.1414C96.1814 174.359 96.3914 174.803 96.7714 175.143C97.1514 175.476 97.6314 175.643 98.2114 175.643C98.5381 175.643 98.8381 175.586 99.1114 175.473C99.3848 175.353 99.6214 175.179 99.8214 174.953L100.221 175.413C99.9881 175.693 99.6948 175.906 99.3414 176.053C98.9948 176.199 98.6114 176.273 98.1914 176.273C97.6514 176.273 97.1714 176.159 96.7514 175.933C96.3381 175.699 96.0148 175.379 95.7814 174.973C95.5481 174.566 95.4314 174.106 95.4314 173.593C95.4314 173.079 95.5414 172.619 95.7614 172.213C95.9881 171.806 96.2948 171.489 96.6814 171.263C97.0748 171.036 97.5148 170.923 98.0014 170.923C98.4881 170.923 98.9248 171.036 99.3114 171.263C99.6981 171.489 100.001 171.806 100.221 172.213C100.441 172.613 100.551 173.073 100.551 173.593L100.541 173.813ZM98.0014 171.533C97.4948 171.533 97.0681 171.696 96.7214 172.023C96.3814 172.343 96.1881 172.763 96.1414 173.283H99.8714C99.8248 172.763 99.6281 172.343 99.2814 172.023C98.9414 171.696 98.5148 171.533 98.0014 171.533ZM103.407 176.273C102.98 176.273 102.57 176.213 102.177 176.093C101.79 175.966 101.487 175.809 101.267 175.623L101.587 175.063C101.807 175.236 102.083 175.379 102.417 175.493C102.75 175.599 103.097 175.653 103.457 175.653C103.937 175.653 104.29 175.579 104.517 175.433C104.75 175.279 104.867 175.066 104.867 174.793C104.867 174.599 104.803 174.449 104.677 174.343C104.55 174.229 104.39 174.146 104.197 174.093C104.003 174.033 103.747 173.976 103.427 173.923C103 173.843 102.657 173.763 102.397 173.683C102.137 173.596 101.913 173.453 101.727 173.253C101.547 173.053 101.457 172.776 101.457 172.423C101.457 171.983 101.64 171.623 102.007 171.343C102.373 171.063 102.883 170.923 103.537 170.923C103.877 170.923 104.217 170.969 104.557 171.063C104.897 171.149 105.177 171.266 105.397 171.413L105.087 171.983C104.653 171.683 104.137 171.533 103.537 171.533C103.083 171.533 102.74 171.613 102.507 171.773C102.28 171.933 102.167 172.143 102.167 172.403C102.167 172.603 102.23 172.763 102.357 172.883C102.49 173.003 102.653 173.093 102.847 173.153C103.04 173.206 103.307 173.263 103.647 173.323C104.067 173.403 104.403 173.483 104.657 173.563C104.91 173.643 105.127 173.779 105.307 173.973C105.487 174.166 105.577 174.433 105.577 174.773C105.577 175.233 105.383 175.599 104.997 175.873C104.617 176.139 104.087 176.273 103.407 176.273ZM106.889 170.963H107.599V176.223H106.889V170.963ZM107.249 169.813C107.103 169.813 106.979 169.763 106.879 169.663C106.779 169.563 106.729 169.443 106.729 169.303C106.729 169.169 106.779 169.053 106.879 168.953C106.979 168.853 107.103 168.803 107.249 168.803C107.396 168.803 107.519 168.853 107.619 168.953C107.719 169.046 107.769 169.159 107.769 169.293C107.769 169.439 107.719 169.563 107.619 169.663C107.519 169.763 107.396 169.813 107.249 169.813ZM114.445 170.963V175.583C114.445 176.476 114.225 177.136 113.785 177.563C113.351 177.996 112.695 178.213 111.815 178.213C111.328 178.213 110.865 178.139 110.425 177.993C109.991 177.853 109.638 177.656 109.365 177.403L109.725 176.863C109.978 177.089 110.285 177.266 110.645 177.393C111.011 177.519 111.395 177.583 111.795 177.583C112.461 177.583 112.951 177.426 113.265 177.113C113.578 176.806 113.735 176.326 113.735 175.673V175.003C113.515 175.336 113.225 175.589 112.865 175.763C112.511 175.936 112.118 176.023 111.685 176.023C111.191 176.023 110.741 175.916 110.335 175.703C109.935 175.483 109.618 175.179 109.385 174.793C109.158 174.399 109.045 173.956 109.045 173.463C109.045 172.969 109.158 172.529 109.385 172.143C109.618 171.756 109.935 171.456 110.335 171.243C110.735 171.029 111.185 170.923 111.685 170.923C112.131 170.923 112.535 171.013 112.895 171.193C113.255 171.373 113.545 171.633 113.765 171.973V170.963H114.445ZM111.755 175.393C112.135 175.393 112.478 175.313 112.785 175.153C113.091 174.986 113.328 174.756 113.495 174.463C113.668 174.169 113.755 173.836 113.755 173.463C113.755 173.089 113.668 172.759 113.495 172.473C113.328 172.179 113.091 171.953 112.785 171.793C112.485 171.626 112.141 171.543 111.755 171.543C111.375 171.543 111.031 171.623 110.725 171.783C110.425 171.943 110.188 172.169 110.015 172.463C109.848 172.756 109.765 173.089 109.765 173.463C109.765 173.836 109.848 174.169 110.015 174.463C110.188 174.756 110.425 174.986 110.725 175.153C111.031 175.313 111.375 175.393 111.755 175.393ZM119.11 170.923C119.77 170.923 120.294 171.116 120.68 171.503C121.074 171.883 121.27 172.439 121.27 173.173V176.223H120.56V173.243C120.56 172.696 120.424 172.279 120.15 171.993C119.877 171.706 119.487 171.563 118.98 171.563C118.414 171.563 117.964 171.733 117.63 172.073C117.304 172.406 117.14 172.869 117.14 173.463V176.223H116.43V170.963H117.11V171.933C117.304 171.613 117.57 171.366 117.91 171.193C118.257 171.013 118.657 170.923 119.11 170.923ZM123.278 175.183C123.431 175.183 123.558 175.236 123.658 175.343C123.758 175.443 123.808 175.569 123.808 175.723C123.808 175.803 123.794 175.889 123.768 175.983C123.748 176.076 123.714 176.183 123.668 176.303L123.248 177.683H122.768L123.108 176.233C123.001 176.199 122.914 176.139 122.848 176.053C122.781 175.959 122.748 175.849 122.748 175.723C122.748 175.569 122.798 175.443 122.898 175.343C122.998 175.236 123.124 175.183 123.278 175.183ZM132.494 172.613C132.954 172.713 133.307 172.913 133.554 173.213C133.807 173.506 133.934 173.886 133.934 174.353C133.934 174.953 133.711 175.416 133.264 175.743C132.824 176.063 132.171 176.223 131.304 176.223H128.084V169.223H131.104C131.884 169.223 132.487 169.379 132.914 169.693C133.347 170.006 133.564 170.449 133.564 171.023C133.564 171.409 133.467 171.739 133.274 172.013C133.087 172.279 132.827 172.479 132.494 172.613ZM128.824 169.833V172.373H131.054C131.621 172.373 132.057 172.266 132.364 172.053C132.671 171.833 132.824 171.516 132.824 171.103C132.824 170.689 132.671 170.376 132.364 170.163C132.057 169.943 131.621 169.833 131.054 169.833H128.824ZM131.294 175.613C131.921 175.613 132.394 175.506 132.714 175.293C133.034 175.079 133.194 174.746 133.194 174.293C133.194 173.419 132.561 172.983 131.294 172.983H128.824V175.613H131.294ZM137.877 173.803V176.223H137.147V173.803L134.347 169.223H135.137L137.537 173.153L139.937 169.223H140.677L137.877 173.803ZM144.582 176.283C143.888 176.283 143.258 176.129 142.692 175.823C142.132 175.509 141.692 175.083 141.372 174.543C141.058 174.003 140.902 173.396 140.902 172.723C140.902 172.049 141.058 171.443 141.372 170.903C141.692 170.363 142.132 169.939 142.692 169.633C143.258 169.319 143.888 169.163 144.582 169.163C145.275 169.163 145.898 169.316 146.452 169.623C147.012 169.929 147.452 170.356 147.772 170.903C148.092 171.443 148.252 172.049 148.252 172.723C148.252 173.396 148.092 174.006 147.772 174.553C147.452 175.093 147.012 175.516 146.452 175.823C145.898 176.129 145.275 176.283 144.582 176.283ZM144.582 175.623C145.135 175.623 145.635 175.499 146.082 175.253C146.528 174.999 146.878 174.653 147.132 174.213C147.385 173.766 147.512 173.269 147.512 172.723C147.512 172.176 147.385 171.683 147.132 171.243C146.878 170.796 146.528 170.449 146.082 170.203C145.635 169.949 145.135 169.823 144.582 169.823C144.028 169.823 143.525 169.949 143.072 170.203C142.625 170.449 142.272 170.796 142.012 171.243C141.758 171.683 141.632 172.176 141.632 172.723C141.632 173.269 141.758 173.766 142.012 174.213C142.272 174.653 142.625 174.999 143.072 175.253C143.525 175.499 144.028 175.623 144.582 175.623ZM152.95 176.283C152.257 176.283 151.63 176.129 151.07 175.823C150.517 175.516 150.08 175.093 149.76 174.553C149.447 174.006 149.29 173.396 149.29 172.723C149.29 172.049 149.447 171.443 149.76 170.903C150.08 170.356 150.52 169.929 151.08 169.623C151.64 169.316 152.267 169.163 152.96 169.163C153.48 169.163 153.96 169.249 154.4 169.423C154.84 169.596 155.214 169.849 155.52 170.183L155.05 170.653C154.504 170.099 153.814 169.823 152.98 169.823C152.427 169.823 151.924 169.949 151.47 170.203C151.017 170.456 150.66 170.803 150.4 171.243C150.147 171.683 150.02 172.176 150.02 172.723C150.02 173.269 150.147 173.763 150.4 174.203C150.66 174.643 151.017 174.989 151.47 175.243C151.924 175.496 152.427 175.623 152.98 175.623C153.82 175.623 154.51 175.343 155.05 174.783L155.52 175.253C155.214 175.586 154.837 175.843 154.39 176.023C153.95 176.196 153.47 176.283 152.95 176.283ZM161.405 170.923C162.092 170.923 162.618 171.096 162.985 171.443C163.352 171.783 163.535 172.289 163.535 172.963V176.223H162.855V175.403C162.695 175.676 162.458 175.889 162.145 176.043C161.838 176.196 161.472 176.273 161.045 176.273C160.458 176.273 159.992 176.133 159.645 175.853C159.298 175.573 159.125 175.203 159.125 174.743C159.125 174.296 159.285 173.936 159.605 173.663C159.932 173.389 160.448 173.253 161.155 173.253H162.825V172.933C162.825 172.479 162.698 172.136 162.445 171.903C162.192 171.663 161.822 171.543 161.335 171.543C161.002 171.543 160.682 171.599 160.375 171.713C160.068 171.819 159.805 171.969 159.585 172.163L159.265 171.633C159.532 171.406 159.852 171.233 160.225 171.113C160.598 170.986 160.992 170.923 161.405 170.923ZM161.155 175.713C161.555 175.713 161.898 175.623 162.185 175.443C162.472 175.256 162.685 174.989 162.825 174.643V173.783H161.175C160.275 173.783 159.825 174.096 159.825 174.723C159.825 175.029 159.942 175.273 160.175 175.453C160.408 175.626 160.735 175.713 161.155 175.713ZM168.143 170.923C168.803 170.923 169.327 171.116 169.713 171.503C170.107 171.883 170.303 172.439 170.303 173.173V176.223H169.593V173.243C169.593 172.696 169.457 172.279 169.183 171.993C168.91 171.706 168.52 171.563 168.013 171.563C167.447 171.563 166.997 171.733 166.663 172.073C166.337 172.406 166.173 172.869 166.173 173.463V176.223H165.463V170.963H166.143V171.933C166.337 171.613 166.603 171.366 166.943 171.193C167.29 171.013 167.69 170.923 168.143 170.923ZM177.05 168.803V176.223H176.37V175.183C176.157 175.536 175.874 175.806 175.52 175.993C175.174 176.179 174.78 176.273 174.34 176.273C173.847 176.273 173.4 176.159 173 175.933C172.6 175.706 172.287 175.389 172.06 174.983C171.834 174.576 171.72 174.113 171.72 173.593C171.72 173.073 171.834 172.609 172.06 172.203C172.287 171.796 172.6 171.483 173 171.263C173.4 171.036 173.847 170.923 174.34 170.923C174.767 170.923 175.15 171.013 175.49 171.193C175.837 171.366 176.12 171.623 176.34 171.963V168.803H177.05ZM174.4 175.643C174.767 175.643 175.097 175.559 175.39 175.393C175.69 175.219 175.924 174.976 176.09 174.663C176.264 174.349 176.35 173.993 176.35 173.593C176.35 173.193 176.264 172.836 176.09 172.523C175.924 172.209 175.69 171.969 175.39 171.803C175.097 171.629 174.767 171.543 174.4 171.543C174.027 171.543 173.69 171.629 173.39 171.803C173.097 171.969 172.864 172.209 172.69 172.523C172.524 172.836 172.44 173.193 172.44 173.593C172.44 173.993 172.524 174.349 172.69 174.663C172.864 174.976 173.097 175.219 173.39 175.393C173.69 175.559 174.027 175.643 174.4 175.643ZM188.205 170.923C188.865 170.923 189.382 171.113 189.755 171.493C190.135 171.873 190.325 172.433 190.325 173.173V176.223H189.615V173.243C189.615 172.696 189.482 172.279 189.215 171.993C188.955 171.706 188.585 171.563 188.105 171.563C187.558 171.563 187.128 171.733 186.815 172.073C186.502 172.406 186.345 172.869 186.345 173.463V176.223H185.635V173.243C185.635 172.696 185.502 172.279 185.235 171.993C184.975 171.706 184.602 171.563 184.115 171.563C183.575 171.563 183.145 171.733 182.825 172.073C182.512 172.406 182.355 172.869 182.355 173.463V176.223H181.645V170.963H182.325V171.923C182.512 171.603 182.772 171.356 183.105 171.183C183.438 171.009 183.822 170.923 184.255 170.923C184.695 170.923 185.075 171.016 185.395 171.203C185.722 171.389 185.965 171.666 186.125 172.033C186.318 171.686 186.595 171.416 186.955 171.223C187.322 171.023 187.738 170.923 188.205 170.923ZM194.42 176.273C193.913 176.273 193.457 176.159 193.05 175.933C192.643 175.699 192.323 175.379 192.09 174.973C191.857 174.566 191.74 174.106 191.74 173.593C191.74 173.079 191.857 172.619 192.09 172.213C192.323 171.806 192.643 171.489 193.05 171.263C193.457 171.036 193.913 170.923 194.42 170.923C194.927 170.923 195.383 171.036 195.79 171.263C196.197 171.489 196.513 171.806 196.74 172.213C196.973 172.619 197.09 173.079 197.09 173.593C197.09 174.106 196.973 174.566 196.74 174.973C196.513 175.379 196.197 175.699 195.79 175.933C195.383 176.159 194.927 176.273 194.42 176.273ZM194.42 175.643C194.793 175.643 195.127 175.559 195.42 175.393C195.72 175.219 195.953 174.976 196.12 174.663C196.287 174.349 196.37 173.993 196.37 173.593C196.37 173.193 196.287 172.836 196.12 172.523C195.953 172.209 195.72 171.969 195.42 171.803C195.127 171.629 194.793 171.543 194.42 171.543C194.047 171.543 193.71 171.629 193.41 171.803C193.117 171.969 192.883 172.209 192.71 172.523C192.543 172.836 192.46 173.193 192.46 173.593C192.46 173.993 192.543 174.349 192.71 174.663C192.883 174.976 193.117 175.219 193.41 175.393C193.71 175.559 194.047 175.643 194.42 175.643ZM199.22 171.993C199.386 171.639 199.633 171.373 199.96 171.193C200.293 171.013 200.703 170.923 201.19 170.923V171.613L201.02 171.603C200.466 171.603 200.033 171.773 199.72 172.113C199.406 172.453 199.25 172.929 199.25 173.543V176.223H198.54V170.963H199.22V171.993ZM207.006 173.813H202.606C202.646 174.359 202.856 174.803 203.236 175.143C203.616 175.476 204.096 175.643 204.676 175.643C205.003 175.643 205.303 175.586 205.576 175.473C205.85 175.353 206.086 175.179 206.286 174.953L206.686 175.413C206.453 175.693 206.16 175.906 205.806 176.053C205.46 176.199 205.076 176.273 204.656 176.273C204.116 176.273 203.636 176.159 203.216 175.933C202.803 175.699 202.48 175.379 202.246 174.973C202.013 174.566 201.896 174.106 201.896 173.593C201.896 173.079 202.006 172.619 202.226 172.213C202.453 171.806 202.76 171.489 203.146 171.263C203.54 171.036 203.98 170.923 204.466 170.923C204.953 170.923 205.39 171.036 205.776 171.263C206.163 171.489 206.466 171.806 206.686 172.213C206.906 172.613 207.016 173.073 207.016 173.593L207.006 173.813ZM204.466 171.533C203.96 171.533 203.533 171.696 203.186 172.023C202.846 172.343 202.653 172.763 202.606 173.283H206.336C206.29 172.763 206.093 172.343 205.746 172.023C205.406 171.696 204.98 171.533 204.466 171.533Z" fill="#302C60"/>
<path d="M227.412 164.789L228.946 164.435" stroke="#302C60" stroke-width="2.33967" stroke-linecap="round"/>
<path d="M270.039 78.4292L242.931 62.5942L215.562 78.427" stroke="#302C60" stroke-width="2" stroke-linecap="round" stroke-linejoin="round"/>
<path d="M242.931 30.5551L242.931 62.5942" stroke="#302C60" stroke-width="2" stroke-linecap="round" stroke-linejoin="round"/>
<path d="M270.286 45.4829V79.7916L242.538 95" stroke="#302C60" stroke-width="2" stroke-linecap="round" stroke-linejoin="round"/>
<path d="M215.444 45.4829V79.7916L242.679 94.8584" stroke="#302C60" stroke-width="2" stroke-linecap="round" stroke-linejoin="round"/>
<path d="M215.562 45.2806L242.859 29.8279L270.153 45.2806" stroke="#302C60" stroke-width="2" stroke-linecap="round" stroke-linejoin="round"/>
<path d="M242.835 46.8689L256.468 54.7399V70.482L242.835 78.3531L229.202 70.482V54.7399L242.835 46.8689Z" fill="#F8FAFF"/>
<path d="M229.393 54.6975L242.769 62.5108L256.273 54.6986" stroke="#302C60" stroke-width="2" stroke-linecap="round" stroke-linejoin="round"/>
<path d="M242.769 78.3192V62.5105" stroke="#302C60" stroke-width="2" stroke-linecap="round" stroke-linejoin="round"/>
<path d="M256.395 54.6833V71.6119L242.704 79.116" stroke="#302C60" stroke-width="2" stroke-linecap="round" stroke-linejoin="round"/>
<path d="M229.335 54.6833V71.6119L242.774 79.0461" stroke="#302C60" stroke-width="2" stroke-linecap="round" stroke-linejoin="round"/>
<path d="M229.393 54.5834L242.862 46.9587L256.329 54.5834" stroke="#302C60" stroke-width="2" stroke-linecap="round" stroke-linejoin="round"/>
<defs>
<filter id="filter0_d_156_1396" x="0.326087" y="0.472656" width="310.174" height="211.908" filterUnits="userSpaceOnUse" color-interpolation-filters="sRGB">
<feFlood flood-opacity="0" result="BackgroundImageFix"/>
<feColorMatrix in="SourceAlpha" type="matrix" values="0 0 0 0 0 0 0 0 0 0 0 0 0 0 0 0 0 0 127 0" result="hardAlpha"/>
<feOffset dy="2.67391"/>
<feGaussianBlur stdDeviation="1.33696"/>
<feComposite in2="hardAlpha" operator="out"/>
<feColorMatrix type="matrix" values="0 0 0 0 0 0 0 0 0 0 0 0 0 0 0 0 0 0 0.1 0"/>
<feBlend mode="normal" in2="BackgroundImageFix" result="effect1_dropShadow_156_1396"/>
<feBlend mode="normal" in="SourceGraphic" in2="effect1_dropShadow_156_1396" result="shape"/>
</filter>
</defs>
</svg>
