<svg width="219" height="156" viewBox="0 0 219 156" fill="none" xmlns="http://www.w3.org/2000/svg">
<g filter="url(#filter0_d_271_1738)">
<rect x="2.20508" width="214.391" height="151.861" rx="14.1994" fill="#F8FAFF"/>
</g>
<path d="M27.6232 25.362C28.4085 25.362 29.0165 25.4444 29.4472 25.609C29.8778 25.761 30.2452 25.9257 30.5492 26.103C30.7012 26.1917 30.8215 26.2614 30.9102 26.312C31.0115 26.35 31.1065 26.369 31.1952 26.369C31.3218 26.369 31.4105 26.2994 31.4612 26.16C31.5245 26.0207 31.5752 25.8117 31.6132 25.533H32.0502C32.0375 25.7864 32.0185 26.084 31.9932 26.426C31.9805 26.768 31.9678 27.224 31.9552 27.794C31.9552 28.3514 31.9552 29.0924 31.9552 30.017H31.5182C31.4675 29.333 31.3092 28.6744 31.0432 28.041C30.7772 27.4077 30.4098 26.882 29.9412 26.464C29.4852 26.046 28.9215 25.837 28.2502 25.837C27.6675 25.837 27.1862 26.0017 26.8062 26.331C26.4262 26.6477 26.2362 27.1037 26.2362 27.699C26.2362 28.1804 26.3565 28.5984 26.5972 28.953C26.8378 29.295 27.1988 29.6434 27.6802 29.998C28.1742 30.3527 28.7948 30.7897 29.5422 31.309C30.1375 31.7017 30.6695 32.0944 31.1382 32.487C31.6068 32.8797 31.9805 33.323 32.2592 33.817C32.5505 34.311 32.6962 34.9064 32.6962 35.603C32.6962 36.439 32.4682 37.1357 32.0122 37.693C31.5562 38.2377 30.9545 38.6494 30.2072 38.928C29.4598 39.194 28.6428 39.327 27.7562 39.327C26.9328 39.327 26.2742 39.251 25.7802 39.099C25.2988 38.947 24.8872 38.7887 24.5452 38.624C24.2665 38.4467 24.0512 38.358 23.8992 38.358C23.7725 38.358 23.6775 38.4277 23.6142 38.567C23.5635 38.7064 23.5192 38.9154 23.4812 39.194H23.0442C23.0695 38.8774 23.0822 38.51 23.0822 38.092C23.0948 37.6614 23.1012 37.1104 23.1012 36.439C23.1138 35.7677 23.1202 34.9127 23.1202 33.874H23.5572C23.6078 34.7354 23.7472 35.5397 23.9752 36.287C24.2158 37.0344 24.5768 37.6424 25.0582 38.111C25.5522 38.567 26.2045 38.795 27.0152 38.795C27.4712 38.795 27.8702 38.719 28.2122 38.567C28.5542 38.415 28.8265 38.1934 29.0292 37.902C29.2318 37.598 29.3332 37.2307 29.3332 36.8C29.3332 36.268 29.2128 35.8057 28.9722 35.413C28.7315 35.0204 28.4022 34.653 27.9842 34.311C27.5662 33.9564 27.0785 33.6017 26.5212 33.247C25.9258 32.8544 25.3685 32.4554 24.8492 32.05C24.3298 31.6447 23.9118 31.195 23.5952 30.701C23.2912 30.1944 23.1392 29.5864 23.1392 28.877C23.1392 28.0664 23.3482 27.4014 23.7662 26.882C24.1842 26.3627 24.7352 25.9827 25.4192 25.742C26.1158 25.4887 26.8505 25.362 27.6232 25.362ZM40.9546 28.953C41.4993 28.953 41.9363 29.0227 42.2656 29.162C42.6076 29.3014 42.8736 29.4787 43.0636 29.694C43.2663 29.9347 43.412 30.2514 43.5006 30.644C43.5893 31.024 43.6336 31.5307 43.6336 32.164V37.294C43.6336 37.826 43.7033 38.187 43.8426 38.377C43.9946 38.567 44.2543 38.662 44.6216 38.662V39.061C44.381 39.0484 44.0263 39.0357 43.5576 39.023C43.089 38.9977 42.633 38.985 42.1896 38.985C41.7083 38.985 41.2396 38.9977 40.7836 39.023C40.3276 39.0357 39.9856 39.0484 39.7576 39.061V38.662C40.049 38.662 40.2516 38.567 40.3656 38.377C40.4923 38.187 40.5556 37.826 40.5556 37.294V31.252C40.5556 30.9607 40.5303 30.7137 40.4796 30.511C40.429 30.2957 40.3403 30.1374 40.2136 30.036C40.087 29.922 39.9033 29.865 39.6626 29.865C39.384 29.865 39.118 29.941 38.8646 30.093C38.624 30.245 38.4276 30.4604 38.2756 30.739C38.1363 31.005 38.0666 31.309 38.0666 31.651V37.294C38.0666 37.826 38.1236 38.187 38.2376 38.377C38.3516 38.567 38.5606 38.662 38.8646 38.662V39.061C38.6493 39.0484 38.3263 39.0357 37.8956 39.023C37.465 38.9977 37.028 38.985 36.5846 38.985C36.0653 38.985 35.546 38.9977 35.0266 39.023C34.5073 39.0357 34.1146 39.0484 33.8486 39.061V38.662C34.2666 38.662 34.558 38.567 34.7226 38.377C34.9 38.187 34.9886 37.826 34.9886 37.294V31.29C34.9886 30.72 34.9063 30.302 34.7416 30.036C34.577 29.7574 34.2793 29.618 33.8486 29.618V29.219C34.254 29.257 34.6466 29.276 35.0266 29.276C35.5966 29.276 36.135 29.257 36.6416 29.219C37.161 29.1684 37.636 29.0987 38.0666 29.01V30.549C38.358 29.979 38.7506 29.5737 39.2446 29.333C39.7513 29.0797 40.3213 28.953 40.9546 28.953ZM46.6736 28.953C47.2183 28.953 47.6553 29.0227 47.9846 29.162C48.3266 29.3014 48.5926 29.4787 48.7826 29.694C48.9853 29.9347 49.131 30.2514 49.2196 30.644C49.3083 31.024 49.3526 31.5307 49.3526 32.164V37.294C49.3526 37.826 49.435 38.187 49.5996 38.377C49.777 38.567 50.0746 38.662 50.4926 38.662V39.061C50.2393 39.0484 49.8593 39.0357 49.3526 39.023C48.8586 38.9977 48.3773 38.985 47.9086 38.985C47.4273 38.985 46.9586 38.9977 46.5026 39.023C46.0466 39.0357 45.7046 39.0484 45.4766 39.061V38.662C45.768 38.662 45.9706 38.567 46.0846 38.377C46.2113 38.187 46.2746 37.826 46.2746 37.294V31.252C46.2746 30.9607 46.243 30.7137 46.1796 30.511C46.1163 30.2957 46.0086 30.1374 45.8566 30.036C45.7173 29.922 45.5083 29.865 45.2296 29.865C44.951 29.865 44.685 29.9537 44.4316 30.131C44.191 30.2957 43.9946 30.5174 43.8426 30.796C43.7033 31.0747 43.621 31.385 43.5956 31.727L43.4816 30.777C43.8236 30.0677 44.2733 29.5864 44.8306 29.333C45.388 29.0797 46.0023 28.953 46.6736 28.953ZM53.7256 39.194C53.1429 39.194 52.6616 39.0864 52.2816 38.871C51.9016 38.643 51.6229 38.3454 51.4456 37.978C51.2683 37.6107 51.1796 37.218 51.1796 36.8C51.1796 36.268 51.2999 35.831 51.5406 35.489C51.7939 35.147 52.1169 34.8747 52.5096 34.672C52.9023 34.4567 53.3139 34.2794 53.7446 34.14C54.1753 34.0007 54.5869 33.8677 54.9796 33.741C55.3723 33.6017 55.6889 33.4434 55.9296 33.266C56.1703 33.076 56.2906 32.8354 56.2906 32.544V30.967C56.2906 30.6884 56.2463 30.4287 56.1576 30.188C56.0816 29.9347 55.9359 29.732 55.7206 29.58C55.5179 29.4154 55.2329 29.333 54.8656 29.333C54.6376 29.333 54.4159 29.3647 54.2006 29.428C53.9853 29.4914 53.7953 29.5927 53.6306 29.732C54.0359 29.8714 54.3336 30.0804 54.5236 30.359C54.7263 30.6377 54.8276 30.948 54.8276 31.29C54.8276 31.7587 54.6629 32.1324 54.3336 32.411C54.0169 32.677 53.6369 32.81 53.1936 32.81C52.7123 32.81 52.3386 32.658 52.0726 32.354C51.8193 32.05 51.6926 31.6827 51.6926 31.252C51.6926 30.872 51.7876 30.5554 51.9776 30.302C52.1676 30.036 52.4463 29.7954 52.8136 29.58C53.1809 29.3647 53.6243 29.2064 54.1436 29.105C54.6629 29.0037 55.2139 28.953 55.7966 28.953C56.3919 28.953 56.9366 29.0164 57.4306 29.143C57.9373 29.257 58.3679 29.4914 58.7226 29.846C59.0013 30.1374 59.1786 30.492 59.2546 30.91C59.3306 31.328 59.3686 31.86 59.3686 32.506V37.636C59.3686 37.9527 59.3939 38.1744 59.4446 38.301C59.5079 38.415 59.6029 38.472 59.7296 38.472C59.8436 38.472 59.9513 38.4404 60.0526 38.377C60.1539 38.3137 60.2553 38.244 60.3566 38.168L60.5656 38.491C60.2869 38.719 59.9576 38.8964 59.5776 39.023C59.1976 39.137 58.7859 39.194 58.3426 39.194C57.8359 39.194 57.4369 39.1307 57.1456 39.004C56.8669 38.8647 56.6643 38.681 56.5376 38.453C56.4236 38.225 56.3603 37.9717 56.3476 37.693C56.0689 38.149 55.7206 38.5164 55.3026 38.795C54.8846 39.061 54.3589 39.194 53.7256 39.194ZM55.3026 37.826C55.5053 37.826 55.6826 37.788 55.8346 37.712C55.9993 37.6234 56.1513 37.4777 56.2906 37.275V33.323C56.1893 33.5004 56.0499 33.6714 55.8726 33.836C55.7079 33.988 55.5306 34.1464 55.3406 34.311C55.1506 34.463 54.9669 34.634 54.7896 34.824C54.6249 35.014 54.4856 35.242 54.3716 35.508C54.2703 35.7614 54.2196 36.0717 54.2196 36.439C54.2196 36.933 54.3209 37.2877 54.5236 37.503C54.7263 37.7184 54.9859 37.826 55.3026 37.826ZM67.8315 28.953C68.2621 28.953 68.6041 29.048 68.8575 29.238C69.1108 29.4154 69.2945 29.6497 69.4085 29.941C69.5225 30.2197 69.5795 30.4984 69.5795 30.777C69.5795 31.2964 69.4275 31.7144 69.1235 32.031C68.8321 32.3477 68.4458 32.506 67.9645 32.506C67.4578 32.506 67.0715 32.392 66.8055 32.164C66.5395 31.9234 66.4065 31.6067 66.4065 31.214C66.4065 30.8214 66.4888 30.4984 66.6535 30.245C66.8308 29.9917 67.0461 29.7764 67.2995 29.599C67.1095 29.5737 66.9258 29.599 66.7485 29.675C66.5458 29.7257 66.3558 29.8207 66.1785 29.96C66.0011 30.0994 65.8491 30.264 65.7225 30.454C65.5958 30.644 65.4945 30.853 65.4185 31.081C65.3551 31.2964 65.3235 31.518 65.3235 31.746V37.104C65.3235 37.712 65.4565 38.1237 65.7225 38.339C66.0011 38.5544 66.4381 38.662 67.0335 38.662V39.061C66.7421 39.0484 66.3115 39.0357 65.7415 39.023C65.1715 38.9977 64.5825 38.985 63.9745 38.985C63.4298 38.985 62.8788 38.9977 62.3215 39.023C61.7768 39.0357 61.3715 39.0484 61.1055 39.061V38.662C61.5235 38.662 61.8148 38.567 61.9795 38.377C62.1568 38.187 62.2455 37.826 62.2455 37.294V31.29C62.2455 30.72 62.1631 30.302 61.9985 30.036C61.8338 29.7574 61.5361 29.618 61.1055 29.618V29.219C61.5108 29.257 61.9035 29.276 62.2835 29.276C62.8535 29.276 63.3918 29.257 63.8985 29.219C64.4178 29.1684 64.8928 29.0987 65.3235 29.01V30.568C65.4755 30.2387 65.6718 29.9537 65.9125 29.713C66.1658 29.4724 66.4508 29.2887 66.7675 29.162C67.0968 29.0227 67.4515 28.953 67.8315 28.953ZM74.2275 26.122V29.219H76.2795V29.599H74.2275V37.37C74.2275 37.6867 74.2845 37.9147 74.3985 38.054C74.5125 38.1807 74.6835 38.244 74.9115 38.244C75.1015 38.244 75.2978 38.1807 75.5005 38.054C75.7158 37.9274 75.9121 37.712 76.0895 37.408L76.3935 37.598C76.1528 38.1174 75.8171 38.5354 75.3865 38.852C74.9685 39.1687 74.4175 39.327 73.7335 39.327C73.3155 39.327 72.9418 39.27 72.6125 39.156C72.2958 39.0547 72.0298 38.8964 71.8145 38.681C71.5358 38.4024 71.3521 38.0604 71.2635 37.655C71.1875 37.237 71.1495 36.6987 71.1495 36.04V29.599H69.6295V29.219H71.1495V26.844C71.7448 26.844 72.2895 26.787 72.7835 26.673C73.2901 26.559 73.7715 26.3754 74.2275 26.122ZM29.7512 45.343C30.5872 45.343 31.2712 45.4697 31.8032 45.723C32.3478 45.9637 32.8292 46.2487 33.2472 46.578C33.5005 46.768 33.6905 46.7934 33.8172 46.654C33.9565 46.502 34.0515 46.1537 34.1022 45.609H34.5392C34.5138 46.103 34.4948 46.711 34.4822 47.433C34.4695 48.155 34.4632 49.105 34.4632 50.283H34.0262C33.9755 49.6877 33.8932 49.1684 33.7792 48.725C33.6778 48.2817 33.5258 47.889 33.3232 47.547C33.1205 47.205 32.8292 46.901 32.4492 46.635C32.1578 46.3944 31.8285 46.2107 31.4612 46.084C31.1065 45.9447 30.7392 45.875 30.3592 45.875C29.6625 45.875 29.0735 46.0714 28.5922 46.464C28.1235 46.844 27.7435 47.3507 27.4522 47.984C27.1735 48.6047 26.9708 49.3014 26.8442 50.074C26.7302 50.834 26.6732 51.6004 26.6732 52.373C26.6732 53.1584 26.7365 53.9374 26.8632 54.71C26.9898 55.47 27.1925 56.1604 27.4712 56.781C27.7625 57.4017 28.1488 57.902 28.6302 58.282C29.1115 58.6494 29.7005 58.833 30.3972 58.833C30.7645 58.833 31.1255 58.7697 31.4802 58.643C31.8475 58.5164 32.1768 58.3327 32.4682 58.092C33.0255 57.712 33.3992 57.218 33.5892 56.61C33.7918 55.9894 33.9375 55.185 34.0262 54.197H34.4632C34.4632 55.4257 34.4695 56.42 34.4822 57.18C34.4948 57.9274 34.5138 58.5544 34.5392 59.061H34.1022C34.0515 58.5164 33.9628 58.1744 33.8362 58.035C33.7222 57.8957 33.5258 57.9147 33.2472 58.092C32.7785 58.4214 32.2782 58.7127 31.7462 58.966C31.2268 59.2067 30.5555 59.327 29.7322 59.327C28.3515 59.327 27.1355 59.0547 26.0842 58.51C25.0455 57.9654 24.2348 57.18 23.6522 56.154C23.0822 55.128 22.7972 53.893 22.7972 52.449C22.7972 51.0304 23.0948 49.789 23.6902 48.725C24.2855 47.661 25.1025 46.8314 26.1412 46.236C27.1925 45.6407 28.3958 45.343 29.7512 45.343ZM40.979 48.953C41.929 48.953 42.7586 49.124 43.468 49.466C44.19 49.7954 44.7473 50.34 45.14 51.1C45.5453 51.86 45.748 52.8734 45.748 54.14C45.748 55.4067 45.5453 56.42 45.14 57.18C44.7473 57.94 44.19 58.491 43.468 58.833C42.7586 59.1624 41.929 59.327 40.979 59.327C40.0416 59.327 39.212 59.1624 38.49 58.833C37.7806 58.491 37.2233 57.94 36.818 57.18C36.4126 56.42 36.21 55.4067 36.21 54.14C36.21 52.8734 36.4126 51.86 36.818 51.1C37.2233 50.34 37.7806 49.7954 38.49 49.466C39.212 49.124 40.0416 48.953 40.979 48.953ZM40.979 49.333C40.5356 49.333 40.162 49.713 39.858 50.473C39.5666 51.2204 39.421 52.4427 39.421 54.14C39.421 55.8374 39.5666 57.066 39.858 57.826C40.162 58.5734 40.5356 58.947 40.979 58.947C41.435 58.947 41.8086 58.5734 42.1 57.826C42.3913 57.066 42.537 55.8374 42.537 54.14C42.537 52.4427 42.3913 51.2204 42.1 50.473C41.8086 49.713 41.435 49.333 40.979 49.333ZM54.1139 48.953C54.6712 48.953 55.1146 49.0227 55.4439 49.162C55.7859 49.3014 56.0456 49.4787 56.2229 49.694C56.4256 49.9347 56.5712 50.245 56.6599 50.625C56.7612 51.005 56.8119 51.518 56.8119 52.164V57.294C56.8119 57.826 56.8942 58.187 57.0589 58.377C57.2362 58.567 57.5339 58.662 57.9519 58.662V59.061C57.6986 59.0484 57.3186 59.0357 56.8119 59.023C56.3179 58.9977 55.8366 58.985 55.3679 58.985C54.8486 58.985 54.3482 58.9977 53.8669 59.023C53.3856 59.0357 53.0246 59.0484 52.7839 59.061V58.662C53.1386 58.662 53.3856 58.567 53.5249 58.377C53.6642 58.187 53.7339 57.826 53.7339 57.294V51.252C53.7339 50.9607 53.7022 50.7137 53.6389 50.511C53.5756 50.2957 53.4679 50.1374 53.3159 50.036C53.1639 49.922 52.9486 49.865 52.6699 49.865C52.3786 49.865 52.1062 49.941 51.8529 50.093C51.6122 50.245 51.4159 50.4604 51.2639 50.739C51.1246 51.005 51.0549 51.309 51.0549 51.651V57.294C51.0549 57.826 51.1246 58.187 51.2639 58.377C51.4032 58.567 51.6502 58.662 52.0049 58.662V59.061C51.7642 59.0484 51.4159 59.0357 50.9599 59.023C50.5039 58.9977 50.0416 58.985 49.5729 58.985C49.0536 58.985 48.5342 58.9977 48.0149 59.023C47.4956 59.0357 47.1029 59.0484 46.8369 59.061V58.662C47.2549 58.662 47.5462 58.567 47.7109 58.377C47.8882 58.187 47.9769 57.826 47.9769 57.294V51.29C47.9769 50.72 47.8946 50.302 47.7299 50.036C47.5652 49.7574 47.2676 49.618 46.8369 49.618V49.219C47.2422 49.257 47.6349 49.276 48.0149 49.276C48.5849 49.276 49.1232 49.257 49.6299 49.219C50.1492 49.1684 50.6242 49.0987 51.0549 49.01V50.549C51.3589 49.9664 51.7706 49.5547 52.2899 49.314C52.8219 49.0734 53.4299 48.953 54.1139 48.953ZM62.7236 46.122V49.219H64.7756V49.599H62.7236V57.37C62.7236 57.6867 62.7806 57.9147 62.8946 58.054C63.0086 58.1807 63.1796 58.244 63.4076 58.244C63.5976 58.244 63.7939 58.1807 63.9966 58.054C64.2119 57.9274 64.4082 57.712 64.5856 57.408L64.8896 57.598C64.6489 58.1174 64.3132 58.5354 63.8826 58.852C63.4646 59.1687 62.9136 59.327 62.2296 59.327C61.8116 59.327 61.4379 59.27 61.1086 59.156C60.7919 59.0547 60.5259 58.8964 60.3106 58.681C60.0319 58.4024 59.8482 58.0604 59.7596 57.655C59.6836 57.237 59.6456 56.6987 59.6456 56.04V49.599H58.1256V49.219H59.6456V46.844C60.2409 46.844 60.7856 46.787 61.2796 46.673C61.7862 46.559 62.2676 46.3754 62.7236 46.122ZM71.9877 48.953C72.4184 48.953 72.7604 49.048 73.0137 49.238C73.267 49.4154 73.4507 49.6497 73.5647 49.941C73.6787 50.2197 73.7357 50.4984 73.7357 50.777C73.7357 51.2964 73.5837 51.7144 73.2797 52.031C72.9884 52.3477 72.602 52.506 72.1207 52.506C71.614 52.506 71.2277 52.392 70.9617 52.164C70.6957 51.9234 70.5627 51.6067 70.5627 51.214C70.5627 50.8214 70.645 50.4984 70.8097 50.245C70.987 49.9917 71.2024 49.7764 71.4557 49.599C71.2657 49.5737 71.082 49.599 70.9047 49.675C70.702 49.7257 70.512 49.8207 70.3347 49.96C70.1574 50.0994 70.0054 50.264 69.8787 50.454C69.752 50.644 69.6507 50.853 69.5747 51.081C69.5114 51.2964 69.4797 51.518 69.4797 51.746V57.104C69.4797 57.712 69.6127 58.1237 69.8787 58.339C70.1574 58.5544 70.5944 58.662 71.1897 58.662V59.061C70.8984 59.0484 70.4677 59.0357 69.8977 59.023C69.3277 58.9977 68.7387 58.985 68.1307 58.985C67.586 58.985 67.035 58.9977 66.4777 59.023C65.933 59.0357 65.5277 59.0484 65.2617 59.061V58.662C65.6797 58.662 65.971 58.567 66.1357 58.377C66.313 58.187 66.4017 57.826 66.4017 57.294V51.29C66.4017 50.72 66.3194 50.302 66.1547 50.036C65.99 49.7574 65.6924 49.618 65.2617 49.618V49.219C65.667 49.257 66.0597 49.276 66.4397 49.276C67.0097 49.276 67.548 49.257 68.0547 49.219C68.574 49.1684 69.049 49.0987 69.4797 49.01V50.568C69.6317 50.2387 69.828 49.9537 70.0687 49.713C70.322 49.4724 70.607 49.2887 70.9237 49.162C71.253 49.0227 71.6077 48.953 71.9877 48.953ZM76.8447 59.194C76.2621 59.194 75.7807 59.0864 75.4007 58.871C75.0207 58.643 74.7421 58.3454 74.5647 57.978C74.3874 57.6107 74.2987 57.218 74.2987 56.8C74.2987 56.268 74.4191 55.831 74.6597 55.489C74.9131 55.147 75.2361 54.8747 75.6287 54.672C76.0214 54.4567 76.4331 54.2794 76.8637 54.14C77.2944 54.0007 77.7061 53.8677 78.0987 53.741C78.4914 53.6017 78.8081 53.4434 79.0487 53.266C79.2894 53.076 79.4097 52.8354 79.4097 52.544V50.967C79.4097 50.6884 79.3654 50.4287 79.2767 50.188C79.2007 49.9347 79.0551 49.732 78.8397 49.58C78.6371 49.4154 78.3521 49.333 77.9847 49.333C77.7567 49.333 77.5351 49.3647 77.3197 49.428C77.1044 49.4914 76.9144 49.5927 76.7497 49.732C77.1551 49.8714 77.4527 50.0804 77.6427 50.359C77.8454 50.6377 77.9467 50.948 77.9467 51.29C77.9467 51.7587 77.7821 52.1324 77.4527 52.411C77.1361 52.677 76.7561 52.81 76.3127 52.81C75.8314 52.81 75.4577 52.658 75.1917 52.354C74.9384 52.05 74.8117 51.6827 74.8117 51.252C74.8117 50.872 74.9067 50.5554 75.0967 50.302C75.2867 50.036 75.5654 49.7954 75.9327 49.58C76.3001 49.3647 76.7434 49.2064 77.2627 49.105C77.7821 49.0037 78.3331 48.953 78.9157 48.953C79.5111 48.953 80.0557 49.0164 80.5497 49.143C81.0564 49.257 81.4871 49.4914 81.8417 49.846C82.1204 50.1374 82.2977 50.492 82.3737 50.91C82.4497 51.328 82.4877 51.86 82.4877 52.506V57.636C82.4877 57.9527 82.5131 58.1744 82.5637 58.301C82.6271 58.415 82.7221 58.472 82.8487 58.472C82.9627 58.472 83.0704 58.4404 83.1717 58.377C83.2731 58.3137 83.3744 58.244 83.4757 58.168L83.6847 58.491C83.4061 58.719 83.0767 58.8964 82.6967 59.023C82.3167 59.137 81.9051 59.194 81.4617 59.194C80.9551 59.194 80.5561 59.1307 80.2647 59.004C79.9861 58.8647 79.7834 58.681 79.6567 58.453C79.5427 58.225 79.4794 57.9717 79.4667 57.693C79.1881 58.149 78.8397 58.5164 78.4217 58.795C78.0037 59.061 77.4781 59.194 76.8447 59.194ZM78.4217 57.826C78.6244 57.826 78.8017 57.788 78.9537 57.712C79.1184 57.6234 79.2704 57.4777 79.4097 57.275V53.323C79.3084 53.5004 79.1691 53.6714 78.9917 53.836C78.8271 53.988 78.6497 54.1464 78.4597 54.311C78.2697 54.463 78.0861 54.634 77.9087 54.824C77.7441 55.014 77.6047 55.242 77.4907 55.508C77.3894 55.7614 77.3387 56.0717 77.3387 56.439C77.3387 56.933 77.4401 57.2877 77.6427 57.503C77.8454 57.7184 78.1051 57.826 78.4217 57.826ZM89.2026 48.953C89.7346 48.953 90.2096 49.01 90.6276 49.124C91.0456 49.2254 91.3876 49.3584 91.6536 49.523C91.9829 49.7257 92.2489 49.9854 92.4516 50.302C92.6543 50.6187 92.7556 50.986 92.7556 51.404C92.7556 51.8854 92.5973 52.2907 92.2806 52.62C91.9639 52.9367 91.5649 53.095 91.0836 53.095C90.5896 53.095 90.1969 52.9494 89.9056 52.658C89.6269 52.3667 89.4876 51.993 89.4876 51.537C89.4876 51.0937 89.6269 50.72 89.9056 50.416C90.1843 50.112 90.5136 49.9094 90.8936 49.808C90.7923 49.7067 90.6593 49.6244 90.4946 49.561C90.3426 49.4977 90.1589 49.466 89.9436 49.466C89.5129 49.466 89.1519 49.5927 88.8606 49.846C88.5693 50.0867 88.3286 50.4224 88.1386 50.853C87.9613 51.271 87.8283 51.746 87.7396 52.278C87.6636 52.7974 87.6256 53.3357 87.6256 53.893C87.6256 54.8304 87.7459 55.565 87.9866 56.097C88.2399 56.6164 88.5503 56.9837 88.9176 57.199C89.2976 57.4017 89.6839 57.503 90.0766 57.503C90.2793 57.503 90.5136 57.4714 90.7796 57.408C91.0456 57.3447 91.3243 57.2117 91.6156 57.009C91.9196 56.8064 92.2046 56.5024 92.4706 56.097L92.7936 56.211C92.6543 56.705 92.4199 57.1927 92.0906 57.674C91.7613 58.1554 91.3369 58.5544 90.8176 58.871C90.2983 59.175 89.6649 59.327 88.9176 59.327C88.0816 59.327 87.3216 59.156 86.6376 58.814C85.9663 58.472 85.4279 57.921 85.0226 57.161C84.6173 56.401 84.4146 55.4067 84.4146 54.178C84.4146 52.9874 84.6236 52.012 85.0416 51.252C85.4596 50.4794 86.0296 49.903 86.7516 49.523C87.4863 49.143 88.3033 48.953 89.2026 48.953ZM97.8476 46.122V49.219H99.8996V49.599H97.8476V57.37C97.8476 57.6867 97.9046 57.9147 98.0186 58.054C98.1326 58.1807 98.3036 58.244 98.5316 58.244C98.7216 58.244 98.9179 58.1807 99.1206 58.054C99.3359 57.9274 99.5323 57.712 99.7096 57.408L100.014 57.598C99.7729 58.1174 99.4373 58.5354 99.0066 58.852C98.5886 59.1687 98.0376 59.327 97.3536 59.327C96.9356 59.327 96.5619 59.27 96.2326 59.156C95.9159 59.0547 95.6499 58.8964 95.4346 58.681C95.1559 58.4024 94.9723 58.0604 94.8836 57.655C94.8076 57.237 94.7696 56.6987 94.7696 56.04V49.599H93.2496V49.219H94.7696V46.844C95.3649 46.844 95.9096 46.787 96.4036 46.673C96.9103 46.559 97.3916 46.3754 97.8476 46.122ZM104.243 48.953C104.8 48.953 105.281 49.0164 105.687 49.143C106.092 49.2697 106.39 49.39 106.58 49.504C107.023 49.7827 107.289 49.6054 107.378 48.972H107.777C107.751 49.3394 107.732 49.7827 107.72 50.302C107.707 50.8087 107.701 51.4927 107.701 52.354H107.302C107.251 51.8854 107.137 51.423 106.96 50.967C106.795 50.511 106.548 50.1374 106.219 49.846C105.889 49.542 105.459 49.39 104.927 49.39C104.585 49.39 104.293 49.4914 104.053 49.694C103.825 49.8967 103.711 50.1754 103.711 50.53C103.711 50.91 103.825 51.2457 104.053 51.537C104.281 51.8284 104.572 52.107 104.927 52.373C105.294 52.639 105.661 52.924 106.029 53.228C106.434 53.532 106.795 53.8424 107.112 54.159C107.441 54.463 107.701 54.7987 107.891 55.166C108.093 55.5207 108.195 55.9514 108.195 56.458C108.195 57.028 108.024 57.5284 107.682 57.959C107.34 58.3897 106.89 58.7254 106.333 58.966C105.775 59.2067 105.155 59.327 104.471 59.327C104.053 59.327 103.685 59.2827 103.369 59.194C103.065 59.118 102.811 59.0167 102.609 58.89C102.419 58.8014 102.248 58.7254 102.096 58.662C101.956 58.5987 101.817 58.5544 101.678 58.529C101.551 58.5164 101.443 58.5734 101.355 58.7C101.266 58.8267 101.196 58.9914 101.146 59.194H100.747C100.772 58.7887 100.791 58.2947 100.804 57.712C100.816 57.1294 100.823 56.3567 100.823 55.394H101.222C101.298 56.078 101.437 56.6797 101.64 57.199C101.855 57.7184 102.14 58.13 102.495 58.434C102.849 58.7254 103.267 58.871 103.749 58.871C103.964 58.871 104.16 58.833 104.338 58.757C104.528 58.6684 104.68 58.5354 104.794 58.358C104.92 58.1807 104.984 57.9527 104.984 57.674C104.984 57.1167 104.806 56.6544 104.452 56.287C104.097 55.907 103.66 55.4954 103.141 55.052C102.735 54.71 102.355 54.3744 102.001 54.045C101.659 53.7157 101.374 53.3547 101.146 52.962C100.93 52.5694 100.823 52.126 100.823 51.632C100.823 51.062 100.981 50.5807 101.298 50.188C101.627 49.7827 102.051 49.4787 102.571 49.276C103.09 49.0607 103.647 48.953 104.243 48.953Z" fill="#302C60"/>
<path d="M28.7332 96.4723H29.5142V99.4093C29.1548 99.7246 28.7295 99.9666 28.2382 100.135C27.7468 100.304 27.2298 100.388 26.6872 100.388C25.9172 100.388 25.2242 100.22 24.6082 99.8823C23.9922 99.5449 23.5082 99.0793 23.1562 98.4853C22.8042 97.8839 22.6282 97.2129 22.6282 96.4723C22.6282 95.7316 22.8042 95.0643 23.1562 94.4703C23.5082 93.8689 23.9922 93.3996 24.6082 93.0623C25.2242 92.7249 25.9208 92.5563 26.6982 92.5563C27.2848 92.5563 27.8238 92.6516 28.3152 92.8423C28.8065 93.0256 29.2208 93.3006 29.5582 93.6673L29.0522 94.1843C28.4435 93.5829 27.6698 93.2823 26.7312 93.2823C26.1078 93.2823 25.5432 93.4216 25.0372 93.7003C24.5385 93.9716 24.1462 94.3529 23.8602 94.8443C23.5742 95.3283 23.4312 95.8709 23.4312 96.4723C23.4312 97.0736 23.5742 97.6163 23.8602 98.1003C24.1462 98.5843 24.5385 98.9656 25.0372 99.2443C25.5358 99.5229 26.0968 99.6623 26.7202 99.6623C27.5122 99.6623 28.1832 99.4643 28.7332 99.0683V96.4723ZM36.867 94.5363V100.322H36.119V99.2663C35.9136 99.6183 35.6313 99.8933 35.272 100.091C34.9126 100.282 34.502 100.377 34.04 100.377C33.2846 100.377 32.687 100.168 32.247 99.7503C31.8143 99.3249 31.598 98.7053 31.598 97.8913V94.5363H32.379V97.8143C32.379 98.4229 32.5293 98.8849 32.83 99.2003C33.1306 99.5156 33.5596 99.6733 34.117 99.6733C34.7256 99.6733 35.206 99.4899 35.558 99.1233C35.91 98.7493 36.086 98.2323 36.086 97.5723V94.5363H36.867ZM39.0543 94.5363H39.8353V100.322H39.0543V94.5363ZM39.4503 93.2713C39.289 93.2713 39.1533 93.2163 39.0433 93.1063C38.9333 92.9963 38.8783 92.8643 38.8783 92.7103C38.8783 92.5636 38.9333 92.4353 39.0433 92.3253C39.1533 92.2153 39.289 92.1603 39.4503 92.1603C39.6117 92.1603 39.7473 92.2153 39.8573 92.3253C39.9673 92.4279 40.0223 92.5526 40.0223 92.6993C40.0223 92.8606 39.9673 92.9963 39.8573 93.1063C39.7473 93.2163 39.6117 93.2713 39.4503 93.2713ZM47.2884 92.1603V100.322H46.5404V99.1783C46.3058 99.5669 45.9941 99.8639 45.6054 100.069C45.2241 100.275 44.7914 100.377 44.3074 100.377C43.7648 100.377 43.2734 100.253 42.8334 100.003C42.3934 99.7539 42.0488 99.4056 41.7994 98.9583C41.5501 98.5109 41.4254 98.0013 41.4254 97.4293C41.4254 96.8573 41.5501 96.3476 41.7994 95.9003C42.0488 95.4529 42.3934 95.1083 42.8334 94.8663C43.2734 94.6169 43.7648 94.4923 44.3074 94.4923C44.7768 94.4923 45.1984 94.5913 45.5724 94.7893C45.9538 94.9799 46.2654 95.2623 46.5074 95.6363V92.1603H47.2884ZM44.3734 99.6843C44.7768 99.6843 45.1398 99.5926 45.4624 99.4093C45.7924 99.2186 46.0491 98.9509 46.2324 98.6063C46.4231 98.2616 46.5184 97.8693 46.5184 97.4293C46.5184 96.9893 46.4231 96.5969 46.2324 96.2523C46.0491 95.9076 45.7924 95.6436 45.4624 95.4603C45.1398 95.2696 44.7768 95.1743 44.3734 95.1743C43.9628 95.1743 43.5924 95.2696 43.2624 95.4603C42.9398 95.6436 42.6831 95.9076 42.4924 96.2523C42.3091 96.5969 42.2174 96.9893 42.2174 97.4293C42.2174 97.8693 42.3091 98.2616 42.4924 98.6063C42.6831 98.9509 42.9398 99.2186 43.2624 99.4093C43.5924 99.5926 43.9628 99.6843 44.3734 99.6843ZM54.5015 97.6713H49.6615C49.7055 98.2726 49.9365 98.7603 50.3545 99.1343C50.7725 99.5009 51.3005 99.6843 51.9385 99.6843C52.2978 99.6843 52.6278 99.6219 52.9285 99.4973C53.2292 99.3653 53.4895 99.1746 53.7095 98.9253L54.1495 99.4313C53.8928 99.7393 53.5702 99.9739 53.1815 100.135C52.8002 100.297 52.3785 100.377 51.9165 100.377C51.3225 100.377 50.7945 100.253 50.3325 100.003C49.8778 99.7466 49.5222 99.3946 49.2655 98.9473C49.0088 98.4999 48.8805 97.9939 48.8805 97.4293C48.8805 96.8646 49.0015 96.3586 49.2435 95.9113C49.4928 95.4639 49.8302 95.1156 50.2555 94.8663C50.6882 94.6169 51.1722 94.4923 51.7075 94.4923C52.2428 94.4923 52.7232 94.6169 53.1485 94.8663C53.5738 95.1156 53.9075 95.4639 54.1495 95.9113C54.3915 96.3513 54.5125 96.8573 54.5125 97.4293L54.5015 97.6713ZM51.7075 95.1633C51.1502 95.1633 50.6808 95.3429 50.2995 95.7023C49.9255 96.0543 49.7128 96.5163 49.6615 97.0883H53.7645C53.7132 96.5163 53.4968 96.0543 53.1155 95.7023C52.7415 95.3429 52.2722 95.1633 51.7075 95.1633ZM57.6532 100.377C57.1839 100.377 56.7329 100.311 56.3002 100.179C55.8749 100.04 55.5412 99.8676 55.2992 99.6623L55.6512 99.0463C55.8932 99.2369 56.1975 99.3946 56.5642 99.5193C56.9309 99.6366 57.3122 99.6953 57.7082 99.6953C58.2362 99.6953 58.6249 99.6146 58.8742 99.4533C59.1309 99.2846 59.2592 99.0499 59.2592 98.7493C59.2592 98.5366 59.1895 98.3716 59.0502 98.2543C58.9109 98.1296 58.7349 98.0379 58.5222 97.9793C58.3095 97.9133 58.0272 97.8509 57.6752 97.7923C57.2059 97.7043 56.8282 97.6163 56.5422 97.5283C56.2562 97.4329 56.0105 97.2753 55.8052 97.0553C55.6072 96.8353 55.5082 96.5309 55.5082 96.1423C55.5082 95.6583 55.7099 95.2623 56.1132 94.9543C56.5165 94.6463 57.0775 94.4923 57.7962 94.4923C58.1702 94.4923 58.5442 94.5436 58.9182 94.6463C59.2922 94.7416 59.6002 94.8699 59.8422 95.0313L59.5012 95.6583C59.0245 95.3283 58.4562 95.1633 57.7962 95.1633C57.2975 95.1633 56.9199 95.2513 56.6632 95.4273C56.4139 95.6033 56.2892 95.8343 56.2892 96.1203C56.2892 96.3403 56.3589 96.5163 56.4982 96.6483C56.6449 96.7803 56.8245 96.8793 57.0372 96.9453C57.2499 97.0039 57.5432 97.0663 57.9172 97.1323C58.3792 97.2203 58.7495 97.3083 59.0282 97.3963C59.3069 97.4843 59.5452 97.6346 59.7432 97.8473C59.9412 98.0599 60.0402 98.3533 60.0402 98.7273C60.0402 99.2333 59.8275 99.6366 59.4022 99.9373C58.9842 100.231 58.4012 100.377 57.6532 100.377ZM61.572 99.1783C61.7407 99.1783 61.88 99.2369 61.99 99.3543C62.1 99.4643 62.155 99.6036 62.155 99.7723C62.155 99.8603 62.1404 99.9556 62.111 100.058C62.089 100.161 62.0524 100.278 62.001 100.41L61.539 101.928H61.011L61.385 100.333C61.2677 100.297 61.1724 100.231 61.099 100.135C61.0257 100.033 60.989 99.9116 60.989 99.7723C60.989 99.6036 61.044 99.4643 61.154 99.3543C61.264 99.2369 61.4034 99.1783 61.572 99.1783ZM69.741 99.9703C69.5943 100.102 69.411 100.205 69.191 100.278C68.9783 100.344 68.7546 100.377 68.52 100.377C67.9773 100.377 67.5593 100.231 67.266 99.9373C66.9726 99.6439 66.826 99.2296 66.826 98.6943V95.1963H65.792V94.5363H66.826V93.2713H67.607V94.5363H69.367V95.1963H67.607V98.6503C67.607 98.9949 67.6913 99.2589 67.86 99.4423C68.036 99.6183 68.2853 99.7063 68.608 99.7063C68.7693 99.7063 68.9233 99.6806 69.07 99.6293C69.224 99.5779 69.356 99.5046 69.466 99.4093L69.741 99.9703ZM73.3236 100.377C72.7663 100.377 72.264 100.253 71.8166 100.003C71.3693 99.7466 71.0173 99.3946 70.7606 98.9473C70.504 98.4999 70.3756 97.9939 70.3756 97.4293C70.3756 96.8646 70.504 96.3586 70.7606 95.9113C71.0173 95.4639 71.3693 95.1156 71.8166 94.8663C72.264 94.6169 72.7663 94.4923 73.3236 94.4923C73.881 94.4923 74.3833 94.6169 74.8306 94.8663C75.278 95.1156 75.6263 95.4639 75.8756 95.9113C76.1323 96.3586 76.2606 96.8646 76.2606 97.4293C76.2606 97.9939 76.1323 98.4999 75.8756 98.9473C75.6263 99.3946 75.278 99.7466 74.8306 100.003C74.3833 100.253 73.881 100.377 73.3236 100.377ZM73.3236 99.6843C73.7343 99.6843 74.101 99.5926 74.4236 99.4093C74.7536 99.2186 75.0103 98.9509 75.1936 98.6063C75.377 98.2616 75.4686 97.8693 75.4686 97.4293C75.4686 96.9893 75.377 96.5969 75.1936 96.2523C75.0103 95.9076 74.7536 95.6436 74.4236 95.4603C74.101 95.2696 73.7343 95.1743 73.3236 95.1743C72.913 95.1743 72.5426 95.2696 72.2126 95.4603C71.89 95.6436 71.6333 95.9076 71.4426 96.2523C71.2593 96.5969 71.1676 96.9893 71.1676 97.4293C71.1676 97.8693 71.2593 98.2616 71.4426 98.6063C71.6333 98.9509 71.89 99.2186 72.2126 99.4093C72.5426 99.5926 72.913 99.6843 73.3236 99.6843ZM80.2201 100.377C79.6628 100.377 79.1604 100.253 78.7131 100.003C78.2658 99.7466 77.9138 99.3946 77.6571 98.9473C77.4004 98.4999 77.2721 97.9939 77.2721 97.4293C77.2721 96.8646 77.4004 96.3586 77.6571 95.9113C77.9138 95.4639 78.2658 95.1156 78.7131 94.8663C79.1604 94.6169 79.6628 94.4923 80.2201 94.4923C80.7774 94.4923 81.2798 94.6169 81.7271 94.8663C82.1744 95.1156 82.5228 95.4639 82.7721 95.9113C83.0288 96.3586 83.1571 96.8646 83.1571 97.4293C83.1571 97.9939 83.0288 98.4999 82.7721 98.9473C82.5228 99.3946 82.1744 99.7466 81.7271 100.003C81.2798 100.253 80.7774 100.377 80.2201 100.377ZM80.2201 99.6843C80.6308 99.6843 80.9974 99.5926 81.3201 99.4093C81.6501 99.2186 81.9068 98.9509 82.0901 98.6063C82.2734 98.2616 82.3651 97.8693 82.3651 97.4293C82.3651 96.9893 82.2734 96.5969 82.0901 96.2523C81.9068 95.9076 81.6501 95.6436 81.3201 95.4603C80.9974 95.2696 80.6308 95.1743 80.2201 95.1743C79.8094 95.1743 79.4391 95.2696 79.1091 95.4603C78.7864 95.6436 78.5298 95.9076 78.3391 96.2523C78.1558 96.5969 78.0641 96.9893 78.0641 97.4293C78.0641 97.8693 78.1558 98.2616 78.3391 98.6063C78.5298 98.9509 78.7864 99.2186 79.1091 99.4093C79.4391 99.5926 79.8094 99.6843 80.2201 99.6843ZM84.7516 92.1603H85.5326V100.322H84.7516V92.1603ZM89.2567 100.377C88.7874 100.377 88.3364 100.311 87.9037 100.179C87.4784 100.04 87.1447 99.8676 86.9027 99.6623L87.2547 99.0463C87.4967 99.2369 87.801 99.3946 88.1677 99.5193C88.5344 99.6366 88.9157 99.6953 89.3117 99.6953C89.8397 99.6953 90.2284 99.6146 90.4777 99.4533C90.7344 99.2846 90.8627 99.0499 90.8627 98.7493C90.8627 98.5366 90.793 98.3716 90.6537 98.2543C90.5144 98.1296 90.3384 98.0379 90.1257 97.9793C89.913 97.9133 89.6307 97.8509 89.2787 97.7923C88.8094 97.7043 88.4317 97.6163 88.1457 97.5283C87.8597 97.4329 87.614 97.2753 87.4087 97.0553C87.2107 96.8353 87.1117 96.5309 87.1117 96.1423C87.1117 95.6583 87.3134 95.2623 87.7167 94.9543C88.12 94.6463 88.681 94.4923 89.3997 94.4923C89.7737 94.4923 90.1477 94.5436 90.5217 94.6463C90.8957 94.7416 91.2037 94.8699 91.4457 95.0313L91.1047 95.6583C90.628 95.3283 90.0597 95.1633 89.3997 95.1633C88.901 95.1633 88.5234 95.2513 88.2667 95.4273C88.0174 95.6033 87.8927 95.8343 87.8927 96.1203C87.8927 96.3403 87.9624 96.5163 88.1017 96.6483C88.2484 96.7803 88.428 96.8793 88.6407 96.9453C88.8534 97.0039 89.1467 97.0663 89.5207 97.1323C89.9827 97.2203 90.353 97.3083 90.6317 97.3963C90.9104 97.4843 91.1487 97.6346 91.3467 97.8473C91.5447 98.0599 91.6437 98.3533 91.6437 98.7273C91.6437 99.2333 91.431 99.6366 91.0057 99.9373C90.5877 100.231 90.0047 100.377 89.2567 100.377ZM97.9904 94.4923C98.7458 94.4923 99.3251 94.6829 99.7284 95.0643C100.132 95.4383 100.333 95.9956 100.333 96.7363V100.322H99.5854V99.4203C99.4094 99.7209 99.1491 99.9556 98.8044 100.124C98.4671 100.293 98.0638 100.377 97.5944 100.377C96.9491 100.377 96.4358 100.223 96.0544 99.9153C95.6731 99.6073 95.4824 99.2003 95.4824 98.6943C95.4824 98.2029 95.6584 97.8069 96.0104 97.5063C96.3698 97.2056 96.9381 97.0553 97.7154 97.0553H99.5524V96.7033C99.5524 96.2046 99.4131 95.8269 99.1344 95.5703C98.8558 95.3063 98.4488 95.1743 97.9134 95.1743C97.5468 95.1743 97.1948 95.2366 96.8574 95.3613C96.5201 95.4786 96.2304 95.6436 95.9884 95.8563L95.6364 95.2733C95.9298 95.0239 96.2818 94.8333 96.6924 94.7013C97.1031 94.5619 97.5358 94.4923 97.9904 94.4923ZM97.7154 99.7613C98.1554 99.7613 98.5331 99.6623 98.8484 99.4643C99.1638 99.2589 99.3984 98.9656 99.5524 98.5843V97.6383H97.7374C96.7474 97.6383 96.2524 97.9829 96.2524 98.6723C96.2524 99.0096 96.3808 99.2773 96.6374 99.4753C96.8941 99.6659 97.2534 99.7613 97.7154 99.7613ZM105.403 94.4923C106.129 94.4923 106.704 94.7049 107.13 95.1303C107.562 95.5483 107.779 96.1606 107.779 96.9673V100.322H106.998V97.0443C106.998 96.4429 106.847 95.9846 106.547 95.6693C106.246 95.3539 105.817 95.1963 105.26 95.1963C104.636 95.1963 104.141 95.3833 103.775 95.7573C103.415 96.1239 103.236 96.6336 103.236 97.2863V100.322H102.455V94.5363H103.203V95.6033C103.415 95.2513 103.709 94.9799 104.083 94.7893C104.464 94.5913 104.904 94.4923 105.403 94.4923ZM115.201 92.1603V100.322H114.453V99.1783C114.218 99.5669 113.906 99.8639 113.518 100.069C113.136 100.275 112.704 100.377 112.22 100.377C111.677 100.377 111.186 100.253 110.746 100.003C110.306 99.7539 109.961 99.4056 109.712 98.9583C109.462 98.5109 109.338 98.0013 109.338 97.4293C109.338 96.8573 109.462 96.3476 109.712 95.9003C109.961 95.4529 110.306 95.1083 110.746 94.8663C111.186 94.6169 111.677 94.4923 112.22 94.4923C112.689 94.4923 113.111 94.5913 113.485 94.7893C113.866 94.9799 114.178 95.2623 114.42 95.6363V92.1603H115.201ZM112.286 99.6843C112.689 99.6843 113.052 99.5926 113.375 99.4093C113.705 99.2186 113.961 98.9509 114.145 98.6063C114.335 98.2616 114.431 97.8693 114.431 97.4293C114.431 96.9893 114.335 96.5969 114.145 96.2523C113.961 95.9076 113.705 95.6436 113.375 95.4603C113.052 95.2696 112.689 95.1743 112.286 95.1743C111.875 95.1743 111.505 95.2696 111.175 95.4603C110.852 95.6436 110.595 95.9076 110.405 96.2523C110.221 96.5969 110.13 96.9893 110.13 97.4293C110.13 97.8693 110.221 98.2616 110.405 98.6063C110.595 98.9509 110.852 99.2186 111.175 99.4093C111.505 99.5926 111.875 99.6843 112.286 99.6843ZM121.806 100.377C121.336 100.377 120.885 100.311 120.453 100.179C120.027 100.04 119.694 99.8676 119.452 99.6623L119.804 99.0463C120.046 99.2369 120.35 99.3946 120.717 99.5193C121.083 99.6366 121.465 99.6953 121.861 99.6953C122.389 99.6953 122.777 99.6146 123.027 99.4533C123.283 99.2846 123.412 99.0499 123.412 98.7493C123.412 98.5366 123.342 98.3716 123.203 98.2543C123.063 98.1296 122.887 98.0379 122.675 97.9793C122.462 97.9133 122.18 97.8509 121.828 97.7923C121.358 97.7043 120.981 97.6163 120.695 97.5283C120.409 97.4329 120.163 97.2753 119.958 97.0553C119.76 96.8353 119.661 96.5309 119.661 96.1423C119.661 95.6583 119.862 95.2623 120.266 94.9543C120.669 94.6463 121.23 94.4923 121.949 94.4923C122.323 94.4923 122.697 94.5436 123.071 94.6463C123.445 94.7416 123.753 94.8699 123.995 95.0313L123.654 95.6583C123.177 95.3283 122.609 95.1633 121.949 95.1633C121.45 95.1633 121.072 95.2513 120.816 95.4273C120.566 95.6033 120.442 95.8343 120.442 96.1203C120.442 96.3403 120.511 96.5163 120.651 96.6483C120.797 96.7803 120.977 96.8793 121.19 96.9453C121.402 97.0039 121.696 97.0663 122.07 97.1323C122.532 97.2203 122.902 97.3083 123.181 97.3963C123.459 97.4843 123.698 97.6346 123.896 97.8473C124.094 98.0599 124.193 98.3533 124.193 98.7273C124.193 99.2333 123.98 99.6366 123.555 99.9373C123.137 100.231 122.554 100.377 121.806 100.377ZM127.66 94.4923C128.416 94.4923 128.995 94.6829 129.398 95.0643C129.802 95.4383 130.003 95.9956 130.003 96.7363V100.322H129.255V99.4203C129.079 99.7209 128.819 99.9556 128.474 100.124C128.137 100.293 127.734 100.377 127.264 100.377C126.619 100.377 126.106 100.223 125.724 99.9153C125.343 99.6073 125.152 99.2003 125.152 98.6943C125.152 98.2029 125.328 97.8069 125.68 97.5063C126.04 97.2056 126.608 97.0553 127.385 97.0553H129.222V96.7033C129.222 96.2046 129.083 95.8269 128.804 95.5703C128.526 95.3063 128.119 95.1743 127.583 95.1743C127.217 95.1743 126.865 95.2366 126.527 95.3613C126.19 95.4786 125.9 95.6436 125.658 95.8563L125.306 95.2733C125.6 95.0239 125.952 94.8333 126.362 94.7013C126.773 94.5619 127.206 94.4923 127.66 94.4923ZM127.385 99.7613C127.825 99.7613 128.203 99.6623 128.518 99.4643C128.834 99.2589 129.068 98.9656 129.222 98.5843V97.6383H127.407C126.417 97.6383 125.922 97.9829 125.922 98.6723C125.922 99.0096 126.051 99.2773 126.307 99.4753C126.564 99.6659 126.923 99.7613 127.385 99.7613ZM139.341 94.4923C140.067 94.4923 140.635 94.7013 141.046 95.1193C141.464 95.5373 141.673 96.1533 141.673 96.9673V100.322H140.892V97.0443C140.892 96.4429 140.745 95.9846 140.452 95.6693C140.166 95.3539 139.759 95.1963 139.231 95.1963C138.629 95.1963 138.156 95.3833 137.812 95.7573C137.467 96.1239 137.295 96.6336 137.295 97.2863V100.322H136.514V97.0443C136.514 96.4429 136.367 95.9846 136.074 95.6693C135.788 95.3539 135.377 95.1963 134.842 95.1963C134.248 95.1963 133.775 95.3833 133.423 95.7573C133.078 96.1239 132.906 96.6336 132.906 97.2863V100.322H132.125V94.5363H132.873V95.5923C133.078 95.2403 133.364 94.9689 133.731 94.7783C134.097 94.5876 134.519 94.4923 134.996 94.4923C135.48 94.4923 135.898 94.5949 136.25 94.8003C136.609 95.0056 136.877 95.3099 137.053 95.7133C137.265 95.3319 137.57 95.0349 137.966 94.8223C138.369 94.6023 138.827 94.4923 139.341 94.4923ZM146.772 94.4923C147.314 94.4923 147.806 94.6169 148.246 94.8663C148.686 95.1083 149.03 95.4529 149.28 95.9003C149.529 96.3476 149.654 96.8573 149.654 97.4293C149.654 98.0086 149.529 98.5219 149.28 98.9693C149.03 99.4166 148.686 99.7649 148.246 100.014C147.813 100.256 147.322 100.377 146.772 100.377C146.302 100.377 145.877 100.282 145.496 100.091C145.122 99.8933 144.814 99.6073 144.572 99.2333V102.456H143.791V94.5363H144.539V95.6803C144.773 95.2989 145.081 95.0056 145.463 94.8003C145.851 94.5949 146.288 94.4923 146.772 94.4923ZM146.717 99.6843C147.12 99.6843 147.487 99.5926 147.817 99.4093C148.147 99.2186 148.403 98.9509 148.587 98.6063C148.777 98.2616 148.873 97.8693 148.873 97.4293C148.873 96.9893 148.777 96.6006 148.587 96.2633C148.403 95.9186 148.147 95.6509 147.817 95.4603C147.487 95.2696 147.12 95.1743 146.717 95.1743C146.306 95.1743 145.936 95.2696 145.606 95.4603C145.283 95.6509 145.026 95.9186 144.836 96.2633C144.652 96.6006 144.561 96.9893 144.561 97.4293C144.561 97.8693 144.652 98.2616 144.836 98.6063C145.026 98.9509 145.283 99.2186 145.606 99.4093C145.936 99.5926 146.306 99.6843 146.717 99.6843ZM151.246 92.1603H152.027V100.322H151.246V92.1603ZM159.238 97.6713H154.398C154.442 98.2726 154.673 98.7603 155.091 99.1343C155.509 99.5009 156.037 99.6843 156.675 99.6843C157.034 99.6843 157.364 99.6219 157.665 99.4973C157.966 99.3653 158.226 99.1746 158.446 98.9253L158.886 99.4313C158.629 99.7393 158.307 99.9739 157.918 100.135C157.537 100.297 157.115 100.377 156.653 100.377C156.059 100.377 155.531 100.253 155.069 100.003C154.614 99.7466 154.259 99.3946 154.002 98.9473C153.745 98.4999 153.617 97.9939 153.617 97.4293C153.617 96.8646 153.738 96.3586 153.98 95.9113C154.229 95.4639 154.567 95.1156 154.992 94.8663C155.425 94.6169 155.909 94.4923 156.444 94.4923C156.979 94.4923 157.46 94.6169 157.885 94.8663C158.31 95.1156 158.644 95.4639 158.886 95.9113C159.128 96.3513 159.249 96.8573 159.249 97.4293L159.238 97.6713ZM156.444 95.1633C155.887 95.1633 155.417 95.3429 155.036 95.7023C154.662 96.0543 154.449 96.5163 154.398 97.0883H158.501C158.45 96.5163 158.233 96.0543 157.852 95.7023C157.478 95.3429 157.009 95.1633 156.444 95.1633ZM162.39 100.377C161.92 100.377 161.469 100.311 161.037 100.179C160.611 100.04 160.278 99.8676 160.036 99.6623L160.388 99.0463C160.63 99.2369 160.934 99.3946 161.301 99.5193C161.667 99.6366 162.049 99.6953 162.445 99.6953C162.973 99.6953 163.361 99.6146 163.611 99.4533C163.867 99.2846 163.996 99.0499 163.996 98.7493C163.996 98.5366 163.926 98.3716 163.787 98.2543C163.647 98.1296 163.471 98.0379 163.259 97.9793C163.046 97.9133 162.764 97.8509 162.412 97.7923C161.942 97.7043 161.565 97.6163 161.279 97.5283C160.993 97.4329 160.747 97.2753 160.542 97.0553C160.344 96.8353 160.245 96.5309 160.245 96.1423C160.245 95.6583 160.446 95.2623 160.85 94.9543C161.253 94.6463 161.814 94.4923 162.533 94.4923C162.907 94.4923 163.281 94.5436 163.655 94.6463C164.029 94.7416 164.337 94.8699 164.579 95.0313L164.238 95.6583C163.761 95.3283 163.193 95.1633 162.533 95.1633C162.034 95.1633 161.656 95.2513 161.4 95.4273C161.15 95.6033 161.026 95.8343 161.026 96.1203C161.026 96.3403 161.095 96.5163 161.235 96.6483C161.381 96.7803 161.561 96.8793 161.774 96.9453C161.986 97.0039 162.28 97.0663 162.654 97.1323C163.116 97.2203 163.486 97.3083 163.765 97.3963C164.043 97.4843 164.282 97.6346 164.48 97.8473C164.678 98.0599 164.777 98.3533 164.777 98.7273C164.777 99.2333 164.564 99.6366 164.139 99.9373C163.721 100.231 163.138 100.377 162.39 100.377ZM172.146 99.9703C172 100.102 171.816 100.205 171.596 100.278C171.384 100.344 171.16 100.377 170.925 100.377C170.383 100.377 169.965 100.231 169.671 99.9373C169.378 99.6439 169.231 99.2296 169.231 98.6943V95.1963H168.197V94.5363H169.231V93.2713H170.012V94.5363H171.772V95.1963H170.012V98.6503C170.012 98.9949 170.097 99.2589 170.265 99.4423C170.441 99.6183 170.691 99.7063 171.013 99.7063C171.175 99.7063 171.329 99.6806 171.475 99.6293C171.629 99.5779 171.761 99.5046 171.871 99.4093L172.146 99.9703ZM175.729 100.377C175.172 100.377 174.669 100.253 174.222 100.003C173.775 99.7466 173.423 99.3946 173.166 98.9473C172.909 98.4999 172.781 97.9939 172.781 97.4293C172.781 96.8646 172.909 96.3586 173.166 95.9113C173.423 95.4639 173.775 95.1156 174.222 94.8663C174.669 94.6169 175.172 94.4923 175.729 94.4923C176.286 94.4923 176.789 94.6169 177.236 94.8663C177.683 95.1156 178.032 95.4639 178.281 95.9113C178.538 96.3586 178.666 96.8646 178.666 97.4293C178.666 97.9939 178.538 98.4999 178.281 98.9473C178.032 99.3946 177.683 99.7466 177.236 100.003C176.789 100.253 176.286 100.377 175.729 100.377ZM175.729 99.6843C176.14 99.6843 176.506 99.5926 176.829 99.4093C177.159 99.2186 177.416 98.9509 177.599 98.6063C177.782 98.2616 177.874 97.8693 177.874 97.4293C177.874 96.9893 177.782 96.5969 177.599 96.2523C177.416 95.9076 177.159 95.6436 176.829 95.4603C176.506 95.2696 176.14 95.1743 175.729 95.1743C175.318 95.1743 174.948 95.2696 174.618 95.4603C174.295 95.6436 174.039 95.9076 173.848 96.2523C173.665 96.5969 173.573 96.9893 173.573 97.4293C173.573 97.8693 173.665 98.2616 173.848 98.6063C174.039 98.9509 174.295 99.2186 174.618 99.4093C174.948 99.5926 175.318 99.6843 175.729 99.6843ZM26.0932 107.492C26.8192 107.492 27.3948 107.705 27.8202 108.13C28.2528 108.548 28.4692 109.161 28.4692 109.967V113.322H27.6882V110.044C27.6882 109.443 27.5378 108.985 27.2372 108.669C26.9365 108.354 26.5075 108.196 25.9502 108.196C25.3268 108.196 24.8318 108.383 24.4652 108.757C24.1058 109.124 23.9262 109.634 23.9262 110.286V113.322H23.1452V105.16H23.9262V108.548C24.1388 108.211 24.4322 107.951 24.8062 107.767C25.1802 107.584 25.6092 107.492 26.0932 107.492ZM35.649 110.671H30.809C30.853 111.273 31.084 111.76 31.502 112.134C31.92 112.501 32.448 112.684 33.086 112.684C33.4453 112.684 33.7753 112.622 34.076 112.497C34.3766 112.365 34.637 112.175 34.857 111.925L35.297 112.431C35.0403 112.739 34.7176 112.974 34.329 113.135C33.9476 113.297 33.526 113.377 33.064 113.377C32.47 113.377 31.942 113.253 31.48 113.003C31.0253 112.747 30.6696 112.395 30.413 111.947C30.1563 111.5 30.028 110.994 30.028 110.429C30.028 109.865 30.149 109.359 30.391 108.911C30.6403 108.464 30.9776 108.116 31.403 107.866C31.8356 107.617 32.3196 107.492 32.855 107.492C33.3903 107.492 33.8706 107.617 34.296 107.866C34.7213 108.116 35.055 108.464 35.297 108.911C35.539 109.351 35.66 109.857 35.66 110.429L35.649 110.671ZM32.855 108.163C32.2976 108.163 31.8283 108.343 31.447 108.702C31.073 109.054 30.8603 109.516 30.809 110.088H34.912C34.8606 109.516 34.6443 109.054 34.263 108.702C33.889 108.343 33.4196 108.163 32.855 108.163ZM37.2496 105.16H38.0306V113.322H37.2496V105.16ZM43.1847 107.492C43.7274 107.492 44.2187 107.617 44.6587 107.866C45.0987 108.108 45.4434 108.453 45.6927 108.9C45.9421 109.348 46.0667 109.857 46.0667 110.429C46.0667 111.009 45.9421 111.522 45.6927 111.969C45.4434 112.417 45.0987 112.765 44.6587 113.014C44.2261 113.256 43.7347 113.377 43.1847 113.377C42.7154 113.377 42.2901 113.282 41.9087 113.091C41.5347 112.893 41.2267 112.607 40.9847 112.233V115.456H40.2037V107.536H40.9517V108.68C41.1864 108.299 41.4944 108.006 41.8757 107.8C42.2644 107.595 42.7007 107.492 43.1847 107.492ZM43.1297 112.684C43.5331 112.684 43.8997 112.593 44.2297 112.409C44.5597 112.219 44.8164 111.951 44.9997 111.606C45.1904 111.262 45.2857 110.869 45.2857 110.429C45.2857 109.989 45.1904 109.601 44.9997 109.263C44.8164 108.919 44.5597 108.651 44.2297 108.46C43.8997 108.27 43.5331 108.174 43.1297 108.174C42.7191 108.174 42.3487 108.27 42.0187 108.46C41.6961 108.651 41.4394 108.919 41.2487 109.263C41.0654 109.601 40.9737 109.989 40.9737 110.429C40.9737 110.869 41.0654 111.262 41.2487 111.606C41.4394 111.951 41.6961 112.219 42.0187 112.409C42.3487 112.593 42.7191 112.684 43.1297 112.684ZM55.3997 107.536L52.5067 114.015C52.2721 114.558 52.0007 114.943 51.6927 115.17C51.3847 115.398 51.0144 115.511 50.5817 115.511C50.3031 115.511 50.0427 115.467 49.8007 115.379C49.5587 115.291 49.3497 115.159 49.1737 114.983L49.5367 114.4C49.8301 114.694 50.1821 114.84 50.5927 114.84C50.8567 114.84 51.0804 114.767 51.2637 114.62C51.4544 114.474 51.6304 114.224 51.7917 113.872L52.0447 113.311L49.4597 107.536H50.2737L52.4517 112.453L54.6297 107.536H55.3997ZM58.7035 113.377C58.1462 113.377 57.6438 113.253 57.1965 113.003C56.7492 112.747 56.3972 112.395 56.1405 111.947C55.8838 111.5 55.7555 110.994 55.7555 110.429C55.7555 109.865 55.8838 109.359 56.1405 108.911C56.3972 108.464 56.7492 108.116 57.1965 107.866C57.6438 107.617 58.1462 107.492 58.7035 107.492C59.2608 107.492 59.7632 107.617 60.2105 107.866C60.6578 108.116 61.0062 108.464 61.2555 108.911C61.5122 109.359 61.6405 109.865 61.6405 110.429C61.6405 110.994 61.5122 111.5 61.2555 111.947C61.0062 112.395 60.6578 112.747 60.2105 113.003C59.7632 113.253 59.2608 113.377 58.7035 113.377ZM58.7035 112.684C59.1142 112.684 59.4808 112.593 59.8035 112.409C60.1335 112.219 60.3902 111.951 60.5735 111.606C60.7568 111.262 60.8485 110.869 60.8485 110.429C60.8485 109.989 60.7568 109.597 60.5735 109.252C60.3902 108.908 60.1335 108.644 59.8035 108.46C59.4808 108.27 59.1142 108.174 58.7035 108.174C58.2928 108.174 57.9225 108.27 57.5925 108.46C57.2698 108.644 57.0132 108.908 56.8225 109.252C56.6392 109.597 56.5475 109.989 56.5475 110.429C56.5475 110.869 56.6392 111.262 56.8225 111.606C57.0132 111.951 57.2698 112.219 57.5925 112.409C57.9225 112.593 58.2928 112.684 58.7035 112.684ZM68.449 107.536V113.322H67.701V112.266C67.4957 112.618 67.2133 112.893 66.854 113.091C66.4947 113.282 66.084 113.377 65.622 113.377C64.8667 113.377 64.269 113.168 63.829 112.75C63.3963 112.325 63.18 111.705 63.18 110.891V107.536H63.961V110.814C63.961 111.423 64.1113 111.885 64.412 112.2C64.7127 112.516 65.1417 112.673 65.699 112.673C66.3077 112.673 66.788 112.49 67.14 112.123C67.492 111.749 67.668 111.232 67.668 110.572V107.536H68.449ZM76.4963 107.492C77.0389 107.492 77.5303 107.617 77.9703 107.866C78.4103 108.108 78.7549 108.453 79.0043 108.9C79.2536 109.348 79.3783 109.857 79.3783 110.429C79.3783 111.001 79.2536 111.511 79.0043 111.958C78.7549 112.406 78.4103 112.754 77.9703 113.003C77.5303 113.253 77.0389 113.377 76.4963 113.377C76.0123 113.377 75.5759 113.275 75.1873 113.069C74.8059 112.864 74.4979 112.567 74.2633 112.178V113.322H73.5153V105.16H74.2963V108.636C74.5383 108.262 74.8463 107.98 75.2203 107.789C75.6016 107.591 76.0269 107.492 76.4963 107.492ZM76.4413 112.684C76.8446 112.684 77.2113 112.593 77.5413 112.409C77.8713 112.219 78.1279 111.951 78.3113 111.606C78.5019 111.262 78.5973 110.869 78.5973 110.429C78.5973 109.989 78.5019 109.597 78.3113 109.252C78.1279 108.908 77.8713 108.644 77.5413 108.46C77.2113 108.27 76.8446 108.174 76.4413 108.174C76.0306 108.174 75.6603 108.27 75.3303 108.46C75.0076 108.644 74.7509 108.908 74.5603 109.252C74.3769 109.597 74.2853 109.989 74.2853 110.429C74.2853 110.869 74.3769 111.262 74.5603 111.606C74.7509 111.951 75.0076 112.219 75.3303 112.409C75.6603 112.593 76.0306 112.684 76.4413 112.684ZM86.1843 107.536V113.322H85.4363V112.266C85.231 112.618 84.9487 112.893 84.5893 113.091C84.23 113.282 83.8193 113.377 83.3573 113.377C82.602 113.377 82.0043 113.168 81.5643 112.75C81.1317 112.325 80.9153 111.705 80.9153 110.891V107.536H81.6963V110.814C81.6963 111.423 81.8467 111.885 82.1473 112.2C82.448 112.516 82.877 112.673 83.4343 112.673C84.043 112.673 84.5233 112.49 84.8753 112.123C85.2273 111.749 85.4033 111.232 85.4033 110.572V107.536H86.1843ZM88.3717 107.536H89.1527V113.322H88.3717V107.536ZM88.7677 106.271C88.6064 106.271 88.4707 106.216 88.3607 106.106C88.2507 105.996 88.1957 105.864 88.1957 105.71C88.1957 105.564 88.2507 105.435 88.3607 105.325C88.4707 105.215 88.6064 105.16 88.7677 105.16C88.929 105.16 89.0647 105.215 89.1747 105.325C89.2847 105.428 89.3397 105.553 89.3397 105.699C89.3397 105.861 89.2847 105.996 89.1747 106.106C89.0647 106.216 88.929 106.271 88.7677 106.271ZM91.3258 105.16H92.1068V113.322H91.3258V105.16ZM99.5599 105.16V113.322H98.8119V112.178C98.5773 112.567 98.2656 112.864 97.8769 113.069C97.4956 113.275 97.0629 113.377 96.5789 113.377C96.0363 113.377 95.5449 113.253 95.1049 113.003C94.6649 112.754 94.3203 112.406 94.0709 111.958C93.8216 111.511 93.6969 111.001 93.6969 110.429C93.6969 109.857 93.8216 109.348 94.0709 108.9C94.3203 108.453 94.6649 108.108 95.1049 107.866C95.5449 107.617 96.0363 107.492 96.5789 107.492C97.0483 107.492 97.4699 107.591 97.8439 107.789C98.2253 107.98 98.5369 108.262 98.7789 108.636V105.16H99.5599ZM96.6449 112.684C97.0483 112.684 97.4113 112.593 97.7339 112.409C98.0639 112.219 98.3206 111.951 98.5039 111.606C98.6946 111.262 98.7899 110.869 98.7899 110.429C98.7899 109.989 98.6946 109.597 98.5039 109.252C98.3206 108.908 98.0639 108.644 97.7339 108.46C97.4113 108.27 97.0483 108.174 96.6449 108.174C96.2343 108.174 95.8639 108.27 95.5339 108.46C95.2113 108.644 94.9546 108.908 94.7639 109.252C94.5806 109.597 94.4889 109.989 94.4889 110.429C94.4889 110.869 94.5806 111.262 94.7639 111.606C94.9546 111.951 95.2113 112.219 95.5339 112.409C95.8639 112.593 96.2343 112.684 96.6449 112.684ZM107.595 107.492C108.138 107.492 108.629 107.617 109.069 107.866C109.509 108.108 109.854 108.453 110.103 108.9C110.352 109.348 110.477 109.857 110.477 110.429C110.477 111.001 110.352 111.511 110.103 111.958C109.854 112.406 109.509 112.754 109.069 113.003C108.629 113.253 108.138 113.377 107.595 113.377C107.111 113.377 106.675 113.275 106.286 113.069C105.905 112.864 105.597 112.567 105.362 112.178V113.322H104.614V105.16H105.395V108.636C105.637 108.262 105.945 107.98 106.319 107.789C106.7 107.591 107.126 107.492 107.595 107.492ZM107.54 112.684C107.943 112.684 108.31 112.593 108.64 112.409C108.97 112.219 109.227 111.951 109.41 111.606C109.601 111.262 109.696 110.869 109.696 110.429C109.696 109.989 109.601 109.597 109.41 109.252C109.227 108.908 108.97 108.644 108.64 108.46C108.31 108.27 107.943 108.174 107.54 108.174C107.129 108.174 106.759 108.27 106.429 108.46C106.106 108.644 105.85 108.908 105.659 109.252C105.476 109.597 105.384 109.989 105.384 110.429C105.384 110.869 105.476 111.262 105.659 111.606C105.85 111.951 106.106 112.219 106.429 112.409C106.759 112.593 107.129 112.684 107.54 112.684ZM114.434 113.377C113.877 113.377 113.374 113.253 112.927 113.003C112.48 112.747 112.128 112.395 111.871 111.947C111.614 111.5 111.486 110.994 111.486 110.429C111.486 109.865 111.614 109.359 111.871 108.911C112.128 108.464 112.48 108.116 112.927 107.866C113.374 107.617 113.877 107.492 114.434 107.492C114.991 107.492 115.494 107.617 115.941 107.866C116.388 108.116 116.737 108.464 116.986 108.911C117.243 109.359 117.371 109.865 117.371 110.429C117.371 110.994 117.243 111.5 116.986 111.947C116.737 112.395 116.388 112.747 115.941 113.003C115.494 113.253 114.991 113.377 114.434 113.377ZM114.434 112.684C114.845 112.684 115.211 112.593 115.534 112.409C115.864 112.219 116.121 111.951 116.304 111.606C116.487 111.262 116.579 110.869 116.579 110.429C116.579 109.989 116.487 109.597 116.304 109.252C116.121 108.908 115.864 108.644 115.534 108.46C115.211 108.27 114.845 108.174 114.434 108.174C114.023 108.174 113.653 108.27 113.323 108.46C113 108.644 112.744 108.908 112.553 109.252C112.37 109.597 112.278 109.989 112.278 110.429C112.278 110.869 112.37 111.262 112.553 111.606C112.744 111.951 113 112.219 113.323 112.409C113.653 112.593 114.023 112.684 114.434 112.684ZM122.012 112.97C121.866 113.102 121.682 113.205 121.462 113.278C121.25 113.344 121.026 113.377 120.791 113.377C120.249 113.377 119.831 113.231 119.537 112.937C119.244 112.644 119.097 112.23 119.097 111.694V108.196H118.063V107.536H119.097V106.271H119.878V107.536H121.638V108.196H119.878V111.65C119.878 111.995 119.963 112.259 120.131 112.442C120.307 112.618 120.557 112.706 120.879 112.706C121.041 112.706 121.195 112.681 121.341 112.629C121.495 112.578 121.627 112.505 121.737 112.409L122.012 112.97ZM126.382 107.492C127.108 107.492 127.684 107.705 128.109 108.13C128.542 108.548 128.758 109.161 128.758 109.967V113.322H127.977V110.044C127.977 109.443 127.827 108.985 127.526 108.669C127.226 108.354 126.797 108.196 126.239 108.196C125.616 108.196 125.121 108.383 124.754 108.757C124.395 109.124 124.215 109.634 124.215 110.286V113.322H123.434V105.16H124.215V108.548C124.428 108.211 124.721 107.951 125.095 107.767C125.469 107.584 125.898 107.492 126.382 107.492ZM136.705 107.492C137.431 107.492 138.007 107.705 138.432 108.13C138.865 108.548 139.081 109.161 139.081 109.967V113.322H138.3V110.044C138.3 109.443 138.15 108.985 137.849 108.669C137.549 108.354 137.12 108.196 136.562 108.196C135.939 108.196 135.444 108.383 135.077 108.757C134.718 109.124 134.538 109.634 134.538 110.286V113.322H133.757V107.536H134.505V108.603C134.718 108.251 135.011 107.98 135.385 107.789C135.767 107.591 136.207 107.492 136.705 107.492ZM143.588 113.377C143.031 113.377 142.529 113.253 142.081 113.003C141.634 112.747 141.282 112.395 141.025 111.947C140.769 111.5 140.64 110.994 140.64 110.429C140.64 109.865 140.769 109.359 141.025 108.911C141.282 108.464 141.634 108.116 142.081 107.866C142.529 107.617 143.031 107.492 143.588 107.492C144.146 107.492 144.648 107.617 145.095 107.866C145.543 108.116 145.891 108.464 146.14 108.911C146.397 109.359 146.525 109.865 146.525 110.429C146.525 110.994 146.397 111.5 146.14 111.947C145.891 112.395 145.543 112.747 145.095 113.003C144.648 113.253 144.146 113.377 143.588 113.377ZM143.588 112.684C143.999 112.684 144.366 112.593 144.688 112.409C145.018 112.219 145.275 111.951 145.458 111.606C145.642 111.262 145.733 110.869 145.733 110.429C145.733 109.989 145.642 109.597 145.458 109.252C145.275 108.908 145.018 108.644 144.688 108.46C144.366 108.27 143.999 108.174 143.588 108.174C143.178 108.174 142.807 108.27 142.477 108.46C142.155 108.644 141.898 108.908 141.707 109.252C141.524 109.597 141.432 109.989 141.432 110.429C141.432 110.869 141.524 111.262 141.707 111.606C141.898 111.951 142.155 112.219 142.477 112.409C142.807 112.593 143.178 112.684 143.588 112.684ZM148.868 108.669C149.051 108.281 149.322 107.987 149.682 107.789C150.048 107.591 150.499 107.492 151.035 107.492V108.251L150.848 108.24C150.239 108.24 149.762 108.427 149.418 108.801C149.073 109.175 148.901 109.7 148.901 110.374V113.322H148.12V107.536H148.868V108.669ZM159.665 107.492C160.391 107.492 160.959 107.701 161.37 108.119C161.788 108.537 161.997 109.153 161.997 109.967V113.322H161.216V110.044C161.216 109.443 161.069 108.985 160.776 108.669C160.49 108.354 160.083 108.196 159.555 108.196C158.954 108.196 158.481 108.383 158.136 108.757C157.791 109.124 157.619 109.634 157.619 110.286V113.322H156.838V110.044C156.838 109.443 156.691 108.985 156.398 108.669C156.112 108.354 155.701 108.196 155.166 108.196C154.572 108.196 154.099 108.383 153.747 108.757C153.402 109.124 153.23 109.634 153.23 110.286V113.322H152.449V107.536H153.197V108.592C153.402 108.24 153.688 107.969 154.055 107.778C154.422 107.588 154.843 107.492 155.32 107.492C155.804 107.492 156.222 107.595 156.574 107.8C156.933 108.006 157.201 108.31 157.377 108.713C157.59 108.332 157.894 108.035 158.29 107.822C158.693 107.602 159.152 107.492 159.665 107.492ZM166.139 107.492C166.894 107.492 167.474 107.683 167.877 108.064C168.28 108.438 168.482 108.996 168.482 109.736V113.322H167.734V112.42C167.558 112.721 167.298 112.956 166.953 113.124C166.616 113.293 166.212 113.377 165.743 113.377C165.098 113.377 164.584 113.223 164.203 112.915C163.822 112.607 163.631 112.2 163.631 111.694C163.631 111.203 163.807 110.807 164.159 110.506C164.518 110.206 165.087 110.055 165.864 110.055H167.701V109.703C167.701 109.205 167.562 108.827 167.283 108.57C167.004 108.306 166.597 108.174 166.062 108.174C165.695 108.174 165.343 108.237 165.006 108.361C164.669 108.479 164.379 108.644 164.137 108.856L163.785 108.273C164.078 108.024 164.43 107.833 164.841 107.701C165.252 107.562 165.684 107.492 166.139 107.492ZM165.864 112.761C166.304 112.761 166.682 112.662 166.997 112.464C167.312 112.259 167.547 111.966 167.701 111.584V110.638H165.886C164.896 110.638 164.401 110.983 164.401 111.672C164.401 112.01 164.529 112.277 164.786 112.475C165.043 112.666 165.402 112.761 165.864 112.761ZM170.603 105.16H171.384V113.322H170.603V105.16ZM178.46 107.492C179.216 107.492 179.795 107.683 180.198 108.064C180.602 108.438 180.803 108.996 180.803 109.736V113.322H180.055V112.42C179.879 112.721 179.619 112.956 179.274 113.124C178.937 113.293 178.534 113.377 178.064 113.377C177.419 113.377 176.906 113.223 176.524 112.915C176.143 112.607 175.952 112.2 175.952 111.694C175.952 111.203 176.128 110.807 176.48 110.506C176.84 110.206 177.408 110.055 178.185 110.055H180.022V109.703C180.022 109.205 179.883 108.827 179.604 108.57C179.326 108.306 178.919 108.174 178.383 108.174C178.017 108.174 177.665 108.237 177.327 108.361C176.99 108.479 176.7 108.644 176.458 108.856L176.106 108.273C176.4 108.024 176.752 107.833 177.162 107.701C177.573 107.562 178.006 107.492 178.46 107.492ZM178.185 112.761C178.625 112.761 179.003 112.662 179.318 112.464C179.634 112.259 179.868 111.966 180.022 111.584V110.638H178.207C177.217 110.638 176.722 110.983 176.722 111.672C176.722 112.01 176.851 112.277 177.107 112.475C177.364 112.666 177.723 112.761 178.185 112.761ZM185.872 107.492C186.598 107.492 187.174 107.705 187.599 108.13C188.032 108.548 188.248 109.161 188.248 109.967V113.322H187.467V110.044C187.467 109.443 187.317 108.985 187.016 108.669C186.716 108.354 186.287 108.196 185.729 108.196C185.106 108.196 184.611 108.383 184.244 108.757C183.885 109.124 183.705 109.634 183.705 110.286V113.322H182.924V107.536H183.672V108.603C183.885 108.251 184.178 107.98 184.552 107.789C184.934 107.591 185.374 107.492 185.872 107.492ZM195.67 105.16V113.322H194.922V112.178C194.688 112.567 194.376 112.864 193.987 113.069C193.606 113.275 193.173 113.377 192.689 113.377C192.147 113.377 191.655 113.253 191.215 113.003C190.775 112.754 190.431 112.406 190.181 111.958C189.932 111.511 189.807 111.001 189.807 110.429C189.807 109.857 189.932 109.348 190.181 108.9C190.431 108.453 190.775 108.108 191.215 107.866C191.655 107.617 192.147 107.492 192.689 107.492C193.159 107.492 193.58 107.591 193.954 107.789C194.336 107.98 194.647 108.262 194.889 108.636V105.16H195.67ZM192.755 112.684C193.159 112.684 193.522 112.593 193.844 112.409C194.174 112.219 194.431 111.951 194.614 111.606C194.805 111.262 194.9 110.869 194.9 110.429C194.9 109.989 194.805 109.597 194.614 109.252C194.431 108.908 194.174 108.644 193.844 108.46C193.522 108.27 193.159 108.174 192.755 108.174C192.345 108.174 191.974 108.27 191.644 108.46C191.322 108.644 191.065 108.908 190.874 109.252C190.691 109.597 190.599 109.989 190.599 110.429C190.599 110.869 190.691 111.262 190.874 111.606C191.065 111.951 191.322 112.219 191.644 112.409C191.974 112.593 192.345 112.684 192.755 112.684ZM28.8652 125.618V126.322H22.5512V125.761L27.6552 119.326H22.6282V118.622H28.7332V119.183L23.6402 125.618H28.8652ZM32.8622 122.703L31.2892 124.298V126.322H30.4752V118.622H31.2892V123.275L35.8102 118.622H36.7452L33.4122 122.109L36.9762 126.322H36.0082L32.8622 122.703ZM42.5604 126.377C42.0911 126.377 41.6401 126.311 41.2074 126.179C40.7821 126.04 40.4484 125.868 40.2064 125.662L40.5584 125.046C40.8004 125.237 41.1047 125.395 41.4714 125.519C41.8381 125.637 42.2194 125.695 42.6154 125.695C43.1434 125.695 43.5321 125.615 43.7814 125.453C44.0381 125.285 44.1664 125.05 44.1664 124.749C44.1664 124.537 44.0967 124.372 43.9574 124.254C43.8181 124.13 43.6421 124.038 43.4294 123.979C43.2167 123.913 42.9344 123.851 42.5824 123.792C42.1131 123.704 41.7354 123.616 41.4494 123.528C41.1634 123.433 40.9177 123.275 40.7124 123.055C40.5144 122.835 40.4154 122.531 40.4154 122.142C40.4154 121.658 40.6171 121.262 41.0204 120.954C41.4237 120.646 41.9847 120.492 42.7034 120.492C43.0774 120.492 43.4514 120.544 43.8254 120.646C44.1994 120.742 44.5074 120.87 44.7494 121.031L44.4084 121.658C43.9317 121.328 43.3634 121.163 42.7034 121.163C42.2047 121.163 41.8271 121.251 41.5704 121.427C41.3211 121.603 41.1964 121.834 41.1964 122.12C41.1964 122.34 41.2661 122.516 41.4054 122.648C41.5521 122.78 41.7317 122.879 41.9444 122.945C42.1571 123.004 42.4504 123.066 42.8244 123.132C43.2864 123.22 43.6567 123.308 43.9354 123.396C44.2141 123.484 44.4524 123.635 44.6504 123.847C44.8484 124.06 44.9474 124.353 44.9474 124.727C44.9474 125.233 44.7347 125.637 44.3094 125.937C43.8914 126.231 43.3084 126.377 42.5604 126.377ZM53.6072 120.492C54.3332 120.492 54.9016 120.701 55.3122 121.119C55.7302 121.537 55.9392 122.153 55.9392 122.967V126.322H55.1582V123.044C55.1582 122.443 55.0116 121.985 54.7182 121.669C54.4322 121.354 54.0252 121.196 53.4972 121.196C52.8959 121.196 52.4229 121.383 52.0782 121.757C51.7336 122.124 51.5612 122.634 51.5612 123.286V126.322H50.7802V123.044C50.7802 122.443 50.6336 121.985 50.3402 121.669C50.0542 121.354 49.6436 121.196 49.1082 121.196C48.5142 121.196 48.0412 121.383 47.6892 121.757C47.3446 122.124 47.1722 122.634 47.1722 123.286V126.322H46.3912V120.536H47.1392V121.592C47.3446 121.24 47.6306 120.969 47.9972 120.778C48.3639 120.588 48.7856 120.492 49.2622 120.492C49.7462 120.492 50.1642 120.595 50.5162 120.8C50.8756 121.006 51.1432 121.31 51.3192 121.713C51.5319 121.332 51.8362 121.035 52.2322 120.822C52.6356 120.602 53.0939 120.492 53.6072 120.492ZM60.0813 120.492C60.8366 120.492 61.4159 120.683 61.8193 121.064C62.2226 121.438 62.4243 121.996 62.4243 122.736V126.322H61.6763V125.42C61.5003 125.721 61.2399 125.956 60.8953 126.124C60.5579 126.293 60.1546 126.377 59.6853 126.377C59.0399 126.377 58.5266 126.223 58.1453 125.915C57.7639 125.607 57.5733 125.2 57.5733 124.694C57.5733 124.203 57.7493 123.807 58.1013 123.506C58.4606 123.206 59.0289 123.055 59.8063 123.055H61.6433V122.703C61.6433 122.205 61.5039 121.827 61.2253 121.57C60.9466 121.306 60.5396 121.174 60.0043 121.174C59.6376 121.174 59.2856 121.237 58.9483 121.361C58.6109 121.479 58.3213 121.644 58.0793 121.856L57.7273 121.273C58.0206 121.024 58.3726 120.833 58.7833 120.701C59.1939 120.562 59.6266 120.492 60.0813 120.492ZM59.8063 125.761C60.2463 125.761 60.6239 125.662 60.9393 125.464C61.2546 125.259 61.4893 124.966 61.6433 124.584V123.638H59.8283C58.8383 123.638 58.3433 123.983 58.3433 124.672C58.3433 125.01 58.4716 125.277 58.7283 125.475C58.9849 125.666 59.3443 125.761 59.8063 125.761ZM65.2935 121.669C65.4769 121.281 65.7482 120.987 66.1075 120.789C66.4742 120.591 66.9252 120.492 67.4605 120.492V121.251L67.2735 121.24C66.6649 121.24 66.1882 121.427 65.8435 121.801C65.4989 122.175 65.3265 122.7 65.3265 123.374V126.322H64.5455V120.536H65.2935V121.669ZM72.1687 125.97C72.022 126.102 71.8387 126.205 71.6187 126.278C71.406 126.344 71.1824 126.377 70.9477 126.377C70.405 126.377 69.987 126.231 69.6937 125.937C69.4004 125.644 69.2537 125.23 69.2537 124.694V121.196H68.2197V120.536H69.2537V119.271H70.0347V120.536H71.7947V121.196H70.0347V124.65C70.0347 124.995 70.119 125.259 70.2877 125.442C70.4637 125.618 70.713 125.706 71.0357 125.706C71.197 125.706 71.351 125.681 71.4977 125.629C71.6517 125.578 71.7837 125.505 71.8937 125.409L72.1687 125.97ZM78.8674 126.377C78.2954 126.377 77.782 126.253 77.3274 126.003C76.88 125.754 76.528 125.406 76.2714 124.958C76.0147 124.504 75.8864 123.994 75.8864 123.429C75.8864 122.865 76.0147 122.359 76.2714 121.911C76.528 121.464 76.88 121.116 77.3274 120.866C77.782 120.617 78.2954 120.492 78.8674 120.492C79.366 120.492 79.8097 120.591 80.1984 120.789C80.5944 120.98 80.906 121.262 81.1334 121.636L80.5504 122.032C80.3597 121.746 80.1177 121.534 79.8244 121.394C79.531 121.248 79.212 121.174 78.8674 121.174C78.4494 121.174 78.0717 121.27 77.7344 121.46C77.4044 121.644 77.144 121.908 76.9534 122.252C76.77 122.597 76.6784 122.989 76.6784 123.429C76.6784 123.877 76.77 124.273 76.9534 124.617C77.144 124.955 77.4044 125.219 77.7344 125.409C78.0717 125.593 78.4494 125.684 78.8674 125.684C79.212 125.684 79.531 125.615 79.8244 125.475C80.1177 125.336 80.3597 125.123 80.5504 124.837L81.1334 125.233C80.906 125.607 80.5944 125.893 80.1984 126.091C79.8024 126.282 79.3587 126.377 78.8674 126.377ZM84.9359 126.377C84.3786 126.377 83.8763 126.253 83.4289 126.003C82.9816 125.747 82.6296 125.395 82.3729 124.947C82.1163 124.5 81.9879 123.994 81.9879 123.429C81.9879 122.865 82.1163 122.359 82.3729 121.911C82.6296 121.464 82.9816 121.116 83.4289 120.866C83.8763 120.617 84.3786 120.492 84.9359 120.492C85.4933 120.492 85.9956 120.617 86.4429 120.866C86.8903 121.116 87.2386 121.464 87.4879 121.911C87.7446 122.359 87.8729 122.865 87.8729 123.429C87.8729 123.994 87.7446 124.5 87.4879 124.947C87.2386 125.395 86.8903 125.747 86.4429 126.003C85.9956 126.253 85.4933 126.377 84.9359 126.377ZM84.9359 125.684C85.3466 125.684 85.7133 125.593 86.0359 125.409C86.3659 125.219 86.6226 124.951 86.8059 124.606C86.9893 124.262 87.0809 123.869 87.0809 123.429C87.0809 122.989 86.9893 122.597 86.8059 122.252C86.6226 121.908 86.3659 121.644 86.0359 121.46C85.7133 121.27 85.3466 121.174 84.9359 121.174C84.5253 121.174 84.1549 121.27 83.8249 121.46C83.5023 121.644 83.2456 121.908 83.0549 122.252C82.8716 122.597 82.7799 122.989 82.7799 123.429C82.7799 123.869 82.8716 124.262 83.0549 124.606C83.2456 124.951 83.5023 125.219 83.8249 125.409C84.1549 125.593 84.5253 125.684 84.9359 125.684ZM92.4154 120.492C93.1414 120.492 93.7171 120.705 94.1424 121.13C94.5751 121.548 94.7914 122.161 94.7914 122.967V126.322H94.0104V123.044C94.0104 122.443 93.8601 121.985 93.5594 121.669C93.2588 121.354 92.8298 121.196 92.2724 121.196C91.6491 121.196 91.1541 121.383 90.7874 121.757C90.4281 122.124 90.2484 122.634 90.2484 123.286V126.322H89.4674V120.536H90.2154V121.603C90.4281 121.251 90.7214 120.98 91.0954 120.789C91.4768 120.591 91.9168 120.492 92.4154 120.492ZM99.9588 125.97C99.8121 126.102 99.6288 126.205 99.4088 126.278C99.1961 126.344 98.9724 126.377 98.7378 126.377C98.1951 126.377 97.7771 126.231 97.4838 125.937C97.1904 125.644 97.0438 125.23 97.0438 124.694V121.196H96.0098V120.536H97.0438V119.271H97.8248V120.536H99.5848V121.196H97.8248V124.65C97.8248 124.995 97.9091 125.259 98.0778 125.442C98.2538 125.618 98.5031 125.706 98.8258 125.706C98.9871 125.706 99.1411 125.681 99.2878 125.629C99.4418 125.578 99.5738 125.505 99.6838 125.409L99.9588 125.97ZM102.129 121.669C102.312 121.281 102.583 120.987 102.943 120.789C103.309 120.591 103.76 120.492 104.296 120.492V121.251L104.109 121.24C103.5 121.24 103.023 121.427 102.679 121.801C102.334 122.175 102.162 122.7 102.162 123.374V126.322H101.381V120.536H102.129V121.669ZM107.723 120.492C108.478 120.492 109.058 120.683 109.461 121.064C109.864 121.438 110.066 121.996 110.066 122.736V126.322H109.318V125.42C109.142 125.721 108.882 125.956 108.537 126.124C108.2 126.293 107.796 126.377 107.327 126.377C106.682 126.377 106.168 126.223 105.787 125.915C105.406 125.607 105.215 125.2 105.215 124.694C105.215 124.203 105.391 123.807 105.743 123.506C106.102 123.206 106.671 123.055 107.448 123.055H109.285V122.703C109.285 122.205 109.146 121.827 108.867 121.57C108.588 121.306 108.181 121.174 107.646 121.174C107.279 121.174 106.927 121.237 106.59 121.361C106.253 121.479 105.963 121.644 105.721 121.856L105.369 121.273C105.662 121.024 106.014 120.833 106.425 120.701C106.836 120.562 107.268 120.492 107.723 120.492ZM107.448 125.761C107.888 125.761 108.266 125.662 108.581 125.464C108.896 125.259 109.131 124.966 109.285 124.584V123.638H107.47C106.48 123.638 105.985 123.983 105.985 124.672C105.985 125.01 106.113 125.277 106.37 125.475C106.627 125.666 106.986 125.761 107.448 125.761ZM114.607 126.377C114.035 126.377 113.521 126.253 113.067 126.003C112.619 125.754 112.267 125.406 112.011 124.958C111.754 124.504 111.626 123.994 111.626 123.429C111.626 122.865 111.754 122.359 112.011 121.911C112.267 121.464 112.619 121.116 113.067 120.866C113.521 120.617 114.035 120.492 114.607 120.492C115.105 120.492 115.549 120.591 115.938 120.789C116.334 120.98 116.645 121.262 116.873 121.636L116.29 122.032C116.099 121.746 115.857 121.534 115.564 121.394C115.27 121.248 114.951 121.174 114.607 121.174C114.189 121.174 113.811 121.27 113.474 121.46C113.144 121.644 112.883 121.908 112.693 122.252C112.509 122.597 112.418 122.989 112.418 123.429C112.418 123.877 112.509 124.273 112.693 124.617C112.883 124.955 113.144 125.219 113.474 125.409C113.811 125.593 114.189 125.684 114.607 125.684C114.951 125.684 115.27 125.615 115.564 125.475C115.857 125.336 116.099 125.123 116.29 124.837L116.873 125.233C116.645 125.607 116.334 125.893 115.938 126.091C115.542 126.282 115.098 126.377 114.607 126.377ZM121.518 125.97C121.372 126.102 121.188 126.205 120.968 126.278C120.756 126.344 120.532 126.377 120.297 126.377C119.755 126.377 119.337 126.231 119.043 125.937C118.75 125.644 118.603 125.23 118.603 124.694V121.196H117.569V120.536H118.603V119.271H119.384V120.536H121.144V121.196H119.384V124.65C119.384 124.995 119.469 125.259 119.637 125.442C119.813 125.618 120.063 125.706 120.385 125.706C120.547 125.706 120.701 125.681 120.847 125.629C121.001 125.578 121.133 125.505 121.243 125.409L121.518 125.97ZM124.491 126.377C124.022 126.377 123.571 126.311 123.138 126.179C122.713 126.04 122.379 125.868 122.137 125.662L122.489 125.046C122.731 125.237 123.035 125.395 123.402 125.519C123.769 125.637 124.15 125.695 124.546 125.695C125.074 125.695 125.463 125.615 125.712 125.453C125.969 125.285 126.097 125.05 126.097 124.749C126.097 124.537 126.027 124.372 125.888 124.254C125.749 124.13 125.573 124.038 125.36 123.979C125.147 123.913 124.865 123.851 124.513 123.792C124.044 123.704 123.666 123.616 123.38 123.528C123.094 123.433 122.848 123.275 122.643 123.055C122.445 122.835 122.346 122.531 122.346 122.142C122.346 121.658 122.548 121.262 122.951 120.954C123.354 120.646 123.915 120.492 124.634 120.492C125.008 120.492 125.382 120.544 125.756 120.646C126.13 120.742 126.438 120.87 126.68 121.031L126.339 121.658C125.862 121.328 125.294 121.163 124.634 121.163C124.135 121.163 123.758 121.251 123.501 121.427C123.252 121.603 123.127 121.834 123.127 122.12C123.127 122.34 123.197 122.516 123.336 122.648C123.483 122.78 123.662 122.879 123.875 122.945C124.088 123.004 124.381 123.066 124.755 123.132C125.217 123.22 125.587 123.308 125.866 123.396C126.145 123.484 126.383 123.635 126.581 123.847C126.779 124.06 126.878 124.353 126.878 124.727C126.878 125.233 126.665 125.637 126.24 125.937C125.822 126.231 125.239 126.377 124.491 126.377ZM133.566 126.377C133.008 126.377 132.506 126.253 132.059 126.003C131.611 125.747 131.259 125.395 131.003 124.947C130.746 124.5 130.618 123.994 130.618 123.429C130.618 122.865 130.746 122.359 131.003 121.911C131.259 121.464 131.611 121.116 132.059 120.866C132.506 120.617 133.008 120.492 133.566 120.492C134.123 120.492 134.625 120.617 135.073 120.866C135.52 121.116 135.868 121.464 136.118 121.911C136.374 122.359 136.503 122.865 136.503 123.429C136.503 123.994 136.374 124.5 136.118 124.947C135.868 125.395 135.52 125.747 135.073 126.003C134.625 126.253 134.123 126.377 133.566 126.377ZM133.566 125.684C133.976 125.684 134.343 125.593 134.666 125.409C134.996 125.219 135.252 124.951 135.436 124.606C135.619 124.262 135.711 123.869 135.711 123.429C135.711 122.989 135.619 122.597 135.436 122.252C135.252 121.908 134.996 121.644 134.666 121.46C134.343 121.27 133.976 121.174 133.566 121.174C133.155 121.174 132.785 121.27 132.455 121.46C132.132 121.644 131.875 121.908 131.685 122.252C131.501 122.597 131.41 122.989 131.41 123.429C131.41 123.869 131.501 124.262 131.685 124.606C131.875 124.951 132.132 125.219 132.455 125.409C132.785 125.593 133.155 125.684 133.566 125.684ZM141.045 120.492C141.771 120.492 142.347 120.705 142.772 121.13C143.205 121.548 143.421 122.161 143.421 122.967V126.322H142.64V123.044C142.64 122.443 142.49 121.985 142.189 121.669C141.889 121.354 141.46 121.196 140.902 121.196C140.279 121.196 139.784 121.383 139.417 121.757C139.058 122.124 138.878 122.634 138.878 123.286V126.322H138.097V120.536H138.845V121.603C139.058 121.251 139.351 120.98 139.725 120.789C140.107 120.591 140.547 120.492 141.045 120.492ZM151.468 118.622C152.45 118.622 153.22 118.857 153.778 119.326C154.335 119.796 154.614 120.441 154.614 121.262C154.614 122.084 154.335 122.729 153.778 123.198C153.22 123.66 152.45 123.891 151.468 123.891H149.4V126.322H148.586V118.622H151.468ZM151.446 123.176C152.208 123.176 152.791 123.011 153.195 122.681C153.598 122.344 153.8 121.871 153.8 121.262C153.8 120.639 153.598 120.162 153.195 119.832C152.791 119.495 152.208 119.326 151.446 119.326H149.4V123.176H151.446ZM161.225 122.351C161.731 122.461 162.119 122.681 162.391 123.011C162.669 123.334 162.809 123.752 162.809 124.265C162.809 124.925 162.563 125.435 162.072 125.794C161.588 126.146 160.869 126.322 159.916 126.322H156.374V118.622H159.696C160.554 118.622 161.217 118.795 161.687 119.139C162.163 119.484 162.402 119.972 162.402 120.602C162.402 121.028 162.295 121.391 162.083 121.691C161.877 121.985 161.591 122.205 161.225 122.351ZM157.188 119.293V122.087H159.641C160.264 122.087 160.744 121.97 161.082 121.735C161.419 121.493 161.588 121.145 161.588 120.69C161.588 120.236 161.419 119.891 161.082 119.656C160.744 119.414 160.264 119.293 159.641 119.293H157.188ZM159.905 125.651C160.594 125.651 161.115 125.534 161.467 125.299C161.819 125.065 161.995 124.698 161.995 124.199C161.995 123.239 161.298 122.758 159.905 122.758H157.188V125.651H159.905ZM168.011 126.388C167.248 126.388 166.559 126.22 165.943 125.882C165.334 125.545 164.854 125.079 164.502 124.485C164.157 123.884 163.985 123.213 163.985 122.472C163.985 121.732 164.157 121.064 164.502 120.47C164.854 119.869 165.338 119.4 165.954 119.062C166.57 118.725 167.259 118.556 168.022 118.556C168.594 118.556 169.122 118.652 169.606 118.842C170.09 119.033 170.5 119.312 170.838 119.678L170.321 120.195C169.719 119.587 168.96 119.282 168.044 119.282C167.435 119.282 166.881 119.422 166.383 119.7C165.884 119.979 165.492 120.36 165.206 120.844C164.927 121.328 164.788 121.871 164.788 122.472C164.788 123.074 164.927 123.616 165.206 124.1C165.492 124.584 165.884 124.966 166.383 125.244C166.881 125.523 167.435 125.662 168.044 125.662C168.968 125.662 169.727 125.354 170.321 124.738L170.838 125.255C170.5 125.622 170.086 125.904 169.595 126.102C169.111 126.293 168.583 126.388 168.011 126.388ZM172.635 126.377C172.474 126.377 172.335 126.319 172.217 126.201C172.107 126.084 172.052 125.941 172.052 125.772C172.052 125.604 172.107 125.464 172.217 125.354C172.335 125.237 172.474 125.178 172.635 125.178C172.797 125.178 172.936 125.237 173.053 125.354C173.171 125.464 173.229 125.604 173.229 125.772C173.229 125.941 173.171 126.084 173.053 126.201C172.936 126.319 172.797 126.377 172.635 126.377Z" fill="#302C60"/>
<rect x="150.079" y="22.6421" width="21.8759" height="26.8686" fill="#F8FAFF" stroke="#302C60" stroke-width="1.4238"/>
<line x1="154.36" y1="26.627" x2="167.674" y2="26.627" stroke="#302C60" stroke-width="1.4238"/>
<line x1="154.36" y1="30.7881" x2="167.674" y2="30.7881" stroke="#302C60" stroke-width="1.4238"/>
<line x1="154.36" y1="34.9487" x2="167.674" y2="34.9487" stroke="#302C60" stroke-width="1.4238"/>
<line x1="154.36" y1="39.5259" x2="167.674" y2="39.5259" stroke="#302C60" stroke-width="1.4238"/>
<line x1="154.36" y1="44.1016" x2="162.682" y2="44.1016" stroke="#302C60" stroke-width="1.4238"/>
<rect x="162.145" y="30.9629" width="21.8759" height="26.8686" fill="#F8FAFF" stroke="#302C60" stroke-width="1.4238"/>
<line x1="166.426" y1="34.9487" x2="179.74" y2="34.9487" stroke="#302C60" stroke-width="1.4238"/>
<line x1="166.426" y1="39.1089" x2="179.74" y2="39.1089" stroke="#302C60" stroke-width="1.4238"/>
<line x1="166.426" y1="43.27" x2="179.74" y2="43.27" stroke="#302C60" stroke-width="1.4238"/>
<line x1="166.426" y1="47.8467" x2="179.74" y2="47.8467" stroke="#302C60" stroke-width="1.4238"/>
<line x1="166.426" y1="52.4238" x2="174.747" y2="52.4238" stroke="#302C60" stroke-width="1.4238"/>
<rect x="172.13" y="39.2842" width="21.8759" height="26.8686" fill="#F8FAFF" stroke="#302C60" stroke-width="1.4238"/>
<line x1="176.412" y1="43.27" x2="189.726" y2="43.27" stroke="#302C60" stroke-width="1.4238"/>
<line x1="176.412" y1="47.4302" x2="189.726" y2="47.4302" stroke="#302C60" stroke-width="1.4238"/>
<line x1="176.412" y1="51.5908" x2="189.726" y2="51.5908" stroke="#302C60" stroke-width="1.4238"/>
<line x1="176.412" y1="56.168" x2="189.726" y2="56.168" stroke="#302C60" stroke-width="1.4238"/>
<line x1="176.412" y1="60.7446" x2="184.733" y2="60.7446" stroke="#302C60" stroke-width="1.4238"/>
<defs>
<filter id="filter0_d_271_1738" x="0.306681" y="0" width="218.188" height="155.658" filterUnits="userSpaceOnUse" color-interpolation-filters="sRGB">
<feFlood flood-opacity="0" result="BackgroundImageFix"/>
<feColorMatrix in="SourceAlpha" type="matrix" values="0 0 0 0 0 0 0 0 0 0 0 0 0 0 0 0 0 0 127 0" result="hardAlpha"/>
<feOffset dy="1.8984"/>
<feGaussianBlur stdDeviation="0.949199"/>
<feColorMatrix type="matrix" values="0 0 0 0 0 0 0 0 0 0 0 0 0 0 0 0 0 0 0.1 0"/>
<feBlend mode="normal" in2="BackgroundImageFix" result="effect1_dropShadow_271_1738"/>
<feBlend mode="normal" in="SourceGraphic" in2="effect1_dropShadow_271_1738" result="shape"/>
</filter>
</defs>
</svg>
