<svg width="312" height="213" viewBox="0 0 312 213" fill="none" xmlns="http://www.w3.org/2000/svg">
<g filter="url(#filter0_d_156_1490)">
<rect x="3.58691" y="0.472656" width="304.826" height="206.56" rx="20" fill="#E0E7F5"/>
</g>
<path d="M48.3097 78.8175C49.715 78.8175 50.803 78.9649 51.5737 79.2595C52.3443 79.5315 53.0017 79.8262 53.5457 80.1435C53.8177 80.3022 54.033 80.4269 54.1917 80.5175C54.373 80.5855 54.543 80.6195 54.7017 80.6195C54.9283 80.6195 55.087 80.4949 55.1777 80.2455C55.291 79.9962 55.3817 79.6222 55.4497 79.1235H56.2317C56.209 79.5769 56.175 80.1095 56.1297 80.7215C56.107 81.3335 56.0843 82.1495 56.0617 83.1695C56.0617 84.1669 56.0617 85.4929 56.0617 87.1475H55.2797C55.189 85.9235 54.9057 84.7449 54.4297 83.6115C53.9537 82.4782 53.2963 81.5375 52.4577 80.7895C51.6417 80.0415 50.633 79.6675 49.4317 79.6675C48.389 79.6675 47.5277 79.9622 46.8477 80.5515C46.1677 81.1182 45.8277 81.9342 45.8277 82.9995C45.8277 83.8609 46.043 84.6089 46.4737 85.2435C46.9043 85.8555 47.5503 86.4789 48.4117 87.1135C49.2957 87.7482 50.4063 88.5302 51.7437 89.4595C52.809 90.1622 53.761 90.8649 54.5997 91.5675C55.4383 92.2702 56.107 93.0635 56.6057 93.9475C57.127 94.8315 57.3877 95.8969 57.3877 97.1435C57.3877 98.6395 56.9797 99.8862 56.1637 100.884C55.3477 101.858 54.271 102.595 52.9337 103.094C51.5963 103.57 50.1343 103.808 48.5477 103.808C47.0743 103.808 45.8957 103.672 45.0117 103.4C44.1503 103.128 43.4137 102.844 42.8017 102.55C42.303 102.232 41.9177 102.074 41.6457 102.074C41.419 102.074 41.249 102.198 41.1357 102.448C41.045 102.697 40.9657 103.071 40.8977 103.57H40.1157C40.161 103.003 40.1837 102.346 40.1837 101.598C40.2063 100.827 40.2177 99.8409 40.2177 98.6395C40.2403 97.4382 40.2517 95.9082 40.2517 94.0495H41.0337C41.1243 95.5909 41.3737 97.0302 41.7817 98.3675C42.2123 99.7049 42.8583 100.793 43.7197 101.632C44.6037 102.448 45.771 102.856 47.2217 102.856C48.0377 102.856 48.7517 102.72 49.3637 102.448C49.9757 102.176 50.463 101.779 50.8257 101.258C51.1883 100.714 51.3697 100.056 51.3697 99.2855C51.3697 98.3335 51.1543 97.5062 50.7237 96.8035C50.293 96.1009 49.7037 95.4435 48.9557 94.8315C48.2077 94.1969 47.335 93.5622 46.3377 92.9275C45.2723 92.2249 44.275 91.5109 43.3457 90.7855C42.4163 90.0602 41.6683 89.2555 41.1017 88.3715C40.5577 87.4649 40.2857 86.3769 40.2857 85.1075C40.2857 83.6569 40.6597 82.4669 41.4077 81.5375C42.1557 80.6082 43.1417 79.9282 44.3657 79.4975C45.6123 79.0442 46.927 78.8175 48.3097 78.8175ZM72.166 85.2435C73.1406 85.2435 73.9226 85.3682 74.512 85.6175C75.124 85.8669 75.6 86.1842 75.94 86.5695C76.3026 87.0002 76.5633 87.5669 76.722 88.2695C76.8806 88.9495 76.96 89.8562 76.96 90.9895V100.17C76.96 101.122 77.0846 101.768 77.334 102.108C77.606 102.448 78.0706 102.618 78.728 102.618V103.332C78.2973 103.309 77.6626 103.286 76.824 103.264C75.9853 103.218 75.1693 103.196 74.376 103.196C73.5146 103.196 72.676 103.218 71.86 103.264C71.044 103.286 70.432 103.309 70.024 103.332V102.618C70.5453 102.618 70.908 102.448 71.112 102.108C71.3386 101.768 71.452 101.122 71.452 100.17V89.3575C71.452 88.8362 71.4066 88.3942 71.316 88.0315C71.2253 87.6462 71.0666 87.3629 70.84 87.1815C70.6133 86.9775 70.2846 86.8755 69.854 86.8755C69.3553 86.8755 68.8793 87.0115 68.426 87.2835C67.9953 87.5555 67.644 87.9409 67.372 88.4395C67.1226 88.9155 66.998 89.4595 66.998 90.0715V100.17C66.998 101.122 67.1 101.768 67.304 102.108C67.508 102.448 67.882 102.618 68.426 102.618V103.332C68.0406 103.309 67.4626 103.286 66.692 103.264C65.9213 103.218 65.1393 103.196 64.346 103.196C63.4166 103.196 62.4873 103.218 61.558 103.264C60.6286 103.286 59.926 103.309 59.45 103.332V102.618C60.198 102.618 60.7193 102.448 61.014 102.108C61.3313 101.768 61.49 101.122 61.49 100.17V89.4255C61.49 88.4055 61.3426 87.6575 61.048 87.1815C60.7533 86.6829 60.2206 86.4335 59.45 86.4335V85.7195C60.1753 85.7875 60.878 85.8215 61.558 85.8215C62.578 85.8215 63.5413 85.7875 64.448 85.7195C65.3773 85.6289 66.2273 85.5042 66.998 85.3455V88.0995C67.5193 87.0795 68.222 86.3542 69.106 85.9235C70.0126 85.4702 71.0326 85.2435 72.166 85.2435ZM82.4 85.2435C83.3746 85.2435 84.1566 85.3682 84.746 85.6175C85.358 85.8669 85.834 86.1842 86.174 86.5695C86.5366 87.0002 86.7973 87.5669 86.956 88.2695C87.1146 88.9495 87.194 89.8562 87.194 90.9895V100.17C87.194 101.122 87.3413 101.768 87.636 102.108C87.9533 102.448 88.486 102.618 89.234 102.618V103.332C88.7806 103.309 88.1006 103.286 87.194 103.264C86.31 103.218 85.4486 103.196 84.61 103.196C83.7486 103.196 82.91 103.218 82.094 103.264C81.278 103.286 80.666 103.309 80.258 103.332V102.618C80.7793 102.618 81.142 102.448 81.346 102.108C81.5726 101.768 81.686 101.122 81.686 100.17V89.3575C81.686 88.8362 81.6293 88.3942 81.516 88.0315C81.4026 87.6462 81.21 87.3629 80.938 87.1815C80.6886 86.9775 80.3146 86.8755 79.816 86.8755C79.3173 86.8755 78.8413 87.0342 78.388 87.3515C77.9573 87.6462 77.606 88.0429 77.334 88.5415C77.0846 89.0402 76.9373 89.5955 76.892 90.2075L76.688 88.5075C77.3 87.2382 78.1046 86.3769 79.102 85.9235C80.0993 85.4702 81.1986 85.2435 82.4 85.2435ZM95.0193 103.57C93.9766 103.57 93.1153 103.377 92.4353 102.992C91.7553 102.584 91.2566 102.051 90.9393 101.394C90.6219 100.736 90.4633 100.034 90.4633 99.2855C90.4633 98.3335 90.6786 97.5515 91.1093 96.9395C91.5626 96.3275 92.1406 95.8402 92.8433 95.4775C93.5459 95.0922 94.2826 94.7749 95.0533 94.5255C95.8239 94.2762 96.5606 94.0382 97.2633 93.8115C97.9659 93.5622 98.5326 93.2789 98.9633 92.9615C99.3939 92.6215 99.6093 92.1909 99.6093 91.6695V88.8475C99.6093 88.3489 99.5299 87.8842 99.3713 87.4535C99.2353 87.0002 98.9746 86.6375 98.5893 86.3655C98.2266 86.0709 97.7166 85.9235 97.0593 85.9235C96.6513 85.9235 96.2546 85.9802 95.8693 86.0935C95.4839 86.2069 95.1439 86.3882 94.8493 86.6375C95.5746 86.8869 96.1073 87.2609 96.4473 87.7595C96.8099 88.2582 96.9913 88.8135 96.9913 89.4255C96.9913 90.2642 96.6966 90.9329 96.1073 91.4315C95.5406 91.9075 94.8606 92.1455 94.0673 92.1455C93.2059 92.1455 92.5373 91.8735 92.0613 91.3295C91.6079 90.7855 91.3813 90.1282 91.3813 89.3575C91.3813 88.6775 91.5513 88.1109 91.8913 87.6575C92.2313 87.1815 92.7299 86.7509 93.3873 86.3655C94.0446 85.9802 94.8379 85.6969 95.7673 85.5155C96.6966 85.3342 97.6826 85.2435 98.7253 85.2435C99.7906 85.2435 100.765 85.3569 101.649 85.5835C102.556 85.7875 103.327 86.2069 103.961 86.8415C104.46 87.3629 104.777 87.9975 104.913 88.7455C105.049 89.4935 105.117 90.4455 105.117 91.6015V100.782C105.117 101.348 105.163 101.745 105.253 101.972C105.367 102.176 105.537 102.278 105.763 102.278C105.967 102.278 106.16 102.221 106.341 102.108C106.523 101.994 106.704 101.87 106.885 101.734L107.259 102.312C106.761 102.72 106.171 103.037 105.491 103.264C104.811 103.468 104.075 103.57 103.281 103.57C102.375 103.57 101.661 103.456 101.139 103.23C100.641 102.98 100.278 102.652 100.051 102.244C99.8473 101.836 99.7339 101.382 99.7113 100.884C99.2126 101.7 98.5893 102.357 97.8413 102.856C97.0933 103.332 96.1526 103.57 95.0193 103.57ZM97.8413 101.122C98.2039 101.122 98.5213 101.054 98.7933 100.918C99.0879 100.759 99.3599 100.498 99.6093 100.136V93.0635C99.4279 93.3809 99.1786 93.6869 98.8613 93.9815C98.5666 94.2535 98.2493 94.5369 97.9093 94.8315C97.5693 95.1035 97.2406 95.4095 96.9233 95.7495C96.6286 96.0895 96.3793 96.4975 96.1753 96.9735C95.9939 97.4269 95.9033 97.9822 95.9033 98.6395C95.9033 99.5235 96.0846 100.158 96.4473 100.544C96.8099 100.929 97.2746 101.122 97.8413 101.122ZM120.261 85.2435C121.032 85.2435 121.644 85.4135 122.097 85.7535C122.551 86.0709 122.879 86.4902 123.083 87.0115C123.287 87.5102 123.389 88.0089 123.389 88.5075C123.389 89.4369 123.117 90.1849 122.573 90.7515C122.052 91.3182 121.361 91.6015 120.499 91.6015C119.593 91.6015 118.901 91.3975 118.425 90.9895C117.949 90.5589 117.711 89.9922 117.711 89.2895C117.711 88.5869 117.859 88.0089 118.153 87.5555C118.471 87.1022 118.856 86.7169 119.309 86.3995C118.969 86.3542 118.641 86.3995 118.323 86.5355C117.961 86.6262 117.621 86.7962 117.303 87.0455C116.986 87.2949 116.714 87.5895 116.487 87.9295C116.261 88.2695 116.079 88.6435 115.943 89.0515C115.83 89.4369 115.773 89.8335 115.773 90.2415V99.8295C115.773 100.918 116.011 101.654 116.487 102.04C116.986 102.425 117.768 102.618 118.833 102.618V103.332C118.312 103.309 117.541 103.286 116.521 103.264C115.501 103.218 114.447 103.196 113.359 103.196C112.385 103.196 111.399 103.218 110.401 103.264C109.427 103.286 108.701 103.309 108.225 103.332V102.618C108.973 102.618 109.495 102.448 109.789 102.108C110.107 101.768 110.265 101.122 110.265 100.17V89.4255C110.265 88.4055 110.118 87.6575 109.823 87.1815C109.529 86.6829 108.996 86.4335 108.225 86.4335V85.7195C108.951 85.7875 109.653 85.8215 110.333 85.8215C111.353 85.8215 112.317 85.7875 113.223 85.7195C114.153 85.6289 115.003 85.5042 115.773 85.3455V88.1335C116.045 87.5442 116.397 87.0342 116.827 86.6035C117.281 86.1729 117.791 85.8442 118.357 85.6175C118.947 85.3682 119.581 85.2435 120.261 85.2435ZM131.707 80.1775V85.7195H135.379V86.3995H131.707V100.306C131.707 100.872 131.809 101.28 132.013 101.53C132.217 101.756 132.523 101.87 132.931 101.87C133.271 101.87 133.622 101.756 133.985 101.53C134.37 101.303 134.722 100.918 135.039 100.374L135.583 100.714C135.152 101.643 134.552 102.391 133.781 102.958C133.033 103.524 132.047 103.808 130.823 103.808C130.075 103.808 129.406 103.706 128.817 103.502C128.25 103.32 127.774 103.037 127.389 102.652C126.89 102.153 126.562 101.541 126.403 100.816C126.267 100.068 126.199 99.1042 126.199 97.9255V86.3995H123.479V85.7195H126.199V81.4695C127.264 81.4695 128.239 81.3675 129.123 81.1635C130.03 80.9595 130.891 80.6309 131.707 80.1775ZM52.1177 113.784C53.6137 113.784 54.8377 114.01 55.7897 114.464C56.7643 114.894 57.6257 115.404 58.3737 115.994C58.827 116.334 59.167 116.379 59.3937 116.13C59.643 115.858 59.813 115.234 59.9037 114.26H60.6857C60.6403 115.144 60.6063 116.232 60.5837 117.524C60.561 118.816 60.5497 120.516 60.5497 122.624H59.7677C59.677 121.558 59.5297 120.629 59.3257 119.836C59.1443 119.042 58.8723 118.34 58.5097 117.728C58.147 117.116 57.6257 116.572 56.9457 116.096C56.4243 115.665 55.835 115.336 55.1777 115.11C54.543 114.86 53.8857 114.736 53.2057 114.736C51.959 114.736 50.905 115.087 50.0437 115.79C49.205 116.47 48.525 117.376 48.0037 118.51C47.505 119.62 47.1423 120.867 46.9157 122.25C46.7117 123.61 46.6097 124.981 46.6097 126.364C46.6097 127.769 46.723 129.163 46.9497 130.546C47.1763 131.906 47.539 133.141 48.0377 134.252C48.559 135.362 49.2503 136.258 50.1117 136.938C50.973 137.595 52.027 137.924 53.2737 137.924C53.931 137.924 54.577 137.81 55.2117 137.584C55.869 137.357 56.4583 137.028 56.9797 136.598C57.977 135.918 58.6457 135.034 58.9857 133.946C59.3483 132.835 59.609 131.396 59.7677 129.628H60.5497C60.5497 131.826 60.561 133.606 60.5837 134.966C60.6063 136.303 60.6403 137.425 60.6857 138.332H59.9037C59.813 137.357 59.6543 136.745 59.4277 136.496C59.2237 136.246 58.8723 136.28 58.3737 136.598C57.535 137.187 56.6397 137.708 55.6877 138.162C54.7583 138.592 53.557 138.808 52.0837 138.808C49.613 138.808 47.437 138.32 45.5557 137.346C43.697 136.371 42.2463 134.966 41.2037 133.13C40.1837 131.294 39.6737 129.084 39.6737 126.5C39.6737 123.961 40.2063 121.74 41.2717 119.836C42.337 117.932 43.799 116.447 45.6577 115.382C47.539 114.316 49.6923 113.784 52.1177 113.784ZM72.2095 120.244C73.9095 120.244 75.3942 120.55 76.6635 121.162C77.9555 121.751 78.9529 122.726 79.6555 124.086C80.3809 125.446 80.7435 127.259 80.7435 129.526C80.7435 131.792 80.3809 133.606 79.6555 134.966C78.9529 136.326 77.9555 137.312 76.6635 137.924C75.3942 138.513 73.9095 138.808 72.2095 138.808C70.5322 138.808 69.0475 138.513 67.7555 137.924C66.4862 137.312 65.4889 136.326 64.7635 134.966C64.0382 133.606 63.6755 131.792 63.6755 129.526C63.6755 127.259 64.0382 125.446 64.7635 124.086C65.4889 122.726 66.4862 121.751 67.7555 121.162C69.0475 120.55 70.5322 120.244 72.2095 120.244ZM72.2095 120.924C71.4162 120.924 70.7475 121.604 70.2035 122.964C69.6822 124.301 69.4215 126.488 69.4215 129.526C69.4215 132.563 69.6822 134.762 70.2035 136.122C70.7475 137.459 71.4162 138.128 72.2095 138.128C73.0255 138.128 73.6942 137.459 74.2155 136.122C74.7369 134.762 74.9975 132.563 74.9975 129.526C74.9975 126.488 74.7369 124.301 74.2155 122.964C73.6942 121.604 73.0255 120.924 72.2095 120.924ZM95.7142 120.244C96.7115 120.244 97.5048 120.368 98.0942 120.618C98.7062 120.867 99.1708 121.184 99.4882 121.57C99.8508 122 100.111 122.556 100.27 123.236C100.451 123.916 100.542 124.834 100.542 125.99V135.17C100.542 136.122 100.689 136.768 100.984 137.108C101.301 137.448 101.834 137.618 102.582 137.618V138.332C102.129 138.309 101.449 138.286 100.542 138.264C99.6582 138.218 98.7968 138.196 97.9582 138.196C97.0288 138.196 96.1335 138.218 95.2722 138.264C94.4108 138.286 93.7648 138.309 93.3342 138.332V137.618C93.9688 137.618 94.4108 137.448 94.6602 137.108C94.9095 136.768 95.0342 136.122 95.0342 135.17V124.358C95.0342 123.836 94.9775 123.394 94.8642 123.032C94.7508 122.646 94.5582 122.363 94.2862 122.182C94.0142 121.978 93.6288 121.876 93.1302 121.876C92.6088 121.876 92.1215 122.012 91.6682 122.284C91.2375 122.556 90.8862 122.941 90.6142 123.44C90.3648 123.916 90.2402 124.46 90.2402 125.072V135.17C90.2402 136.122 90.3648 136.768 90.6142 137.108C90.8635 137.448 91.3055 137.618 91.9402 137.618V138.332C91.5095 138.309 90.8862 138.286 90.0702 138.264C89.2542 138.218 88.4268 138.196 87.5882 138.196C86.6588 138.196 85.7295 138.218 84.8002 138.264C83.8708 138.286 83.1682 138.309 82.6922 138.332V137.618C83.4402 137.618 83.9615 137.448 84.2562 137.108C84.5735 136.768 84.7322 136.122 84.7322 135.17V124.426C84.7322 123.406 84.5848 122.658 84.2902 122.182C83.9955 121.683 83.4628 121.434 82.6922 121.434V120.72C83.4175 120.788 84.1202 120.822 84.8002 120.822C85.8202 120.822 86.7835 120.788 87.6902 120.72C88.6195 120.629 89.4695 120.504 90.2402 120.346V123.1C90.7842 122.057 91.5208 121.32 92.4502 120.89C93.4022 120.459 94.4902 120.244 95.7142 120.244ZM111.121 115.178V120.72H114.793V121.4H111.121V135.306C111.121 135.872 111.223 136.28 111.427 136.53C111.631 136.756 111.937 136.87 112.345 136.87C112.685 136.87 113.036 136.756 113.399 136.53C113.784 136.303 114.136 135.918 114.453 135.374L114.997 135.714C114.566 136.643 113.966 137.391 113.195 137.958C112.447 138.524 111.461 138.808 110.237 138.808C109.489 138.808 108.82 138.706 108.231 138.502C107.664 138.32 107.188 138.037 106.803 137.652C106.304 137.153 105.976 136.541 105.817 135.816C105.681 135.068 105.613 134.104 105.613 132.926V121.4H102.893V120.72H105.613V116.47C106.678 116.47 107.653 116.368 108.537 116.164C109.444 115.96 110.305 115.631 111.121 115.178ZM127.699 120.244C128.47 120.244 129.082 120.414 129.535 120.754C129.988 121.071 130.317 121.49 130.521 122.012C130.725 122.51 130.827 123.009 130.827 123.508C130.827 124.437 130.555 125.185 130.011 125.752C129.49 126.318 128.798 126.602 127.937 126.602C127.03 126.602 126.339 126.398 125.863 125.99C125.387 125.559 125.149 124.992 125.149 124.29C125.149 123.587 125.296 123.009 125.591 122.556C125.908 122.102 126.294 121.717 126.747 121.4C126.407 121.354 126.078 121.4 125.761 121.536C125.398 121.626 125.058 121.796 124.741 122.046C124.424 122.295 124.152 122.59 123.925 122.93C123.698 123.27 123.517 123.644 123.381 124.052C123.268 124.437 123.211 124.834 123.211 125.242V134.83C123.211 135.918 123.449 136.654 123.925 137.04C124.424 137.425 125.206 137.618 126.271 137.618V138.332C125.75 138.309 124.979 138.286 123.959 138.264C122.939 138.218 121.885 138.196 120.797 138.196C119.822 138.196 118.836 138.218 117.839 138.264C116.864 138.286 116.139 138.309 115.663 138.332V137.618C116.411 137.618 116.932 137.448 117.227 137.108C117.544 136.768 117.703 136.122 117.703 135.17V124.426C117.703 123.406 117.556 122.658 117.261 122.182C116.966 121.683 116.434 121.434 115.663 121.434V120.72C116.388 120.788 117.091 120.822 117.771 120.822C118.791 120.822 119.754 120.788 120.661 120.72C121.59 120.629 122.44 120.504 123.211 120.346V123.134C123.483 122.544 123.834 122.034 124.265 121.604C124.718 121.173 125.228 120.844 125.795 120.618C126.384 120.368 127.019 120.244 127.699 120.244ZM136.39 138.57C135.348 138.57 134.486 138.377 133.806 137.992C133.126 137.584 132.628 137.051 132.31 136.394C131.993 135.736 131.834 135.034 131.834 134.286C131.834 133.334 132.05 132.552 132.48 131.94C132.934 131.328 133.512 130.84 134.214 130.478C134.917 130.092 135.654 129.775 136.424 129.526C137.195 129.276 137.932 129.038 138.634 128.812C139.337 128.562 139.904 128.279 140.334 127.962C140.765 127.622 140.98 127.191 140.98 126.67V123.848C140.98 123.349 140.901 122.884 140.742 122.454C140.606 122 140.346 121.638 139.96 121.366C139.598 121.071 139.088 120.924 138.43 120.924C138.022 120.924 137.626 120.98 137.24 121.094C136.855 121.207 136.515 121.388 136.22 121.638C136.946 121.887 137.478 122.261 137.818 122.76C138.181 123.258 138.362 123.814 138.362 124.426C138.362 125.264 138.068 125.933 137.478 126.432C136.912 126.908 136.232 127.146 135.438 127.146C134.577 127.146 133.908 126.874 133.432 126.33C132.979 125.786 132.752 125.128 132.752 124.358C132.752 123.678 132.922 123.111 133.262 122.658C133.602 122.182 134.101 121.751 134.758 121.366C135.416 120.98 136.209 120.697 137.138 120.516C138.068 120.334 139.054 120.244 140.096 120.244C141.162 120.244 142.136 120.357 143.02 120.584C143.927 120.788 144.698 121.207 145.332 121.842C145.831 122.363 146.148 122.998 146.284 123.746C146.42 124.494 146.488 125.446 146.488 126.602V135.782C146.488 136.348 146.534 136.745 146.624 136.972C146.738 137.176 146.908 137.278 147.134 137.278C147.338 137.278 147.531 137.221 147.712 137.108C147.894 136.994 148.075 136.87 148.256 136.734L148.63 137.312C148.132 137.72 147.542 138.037 146.862 138.264C146.182 138.468 145.446 138.57 144.652 138.57C143.746 138.57 143.032 138.456 142.51 138.23C142.012 137.98 141.649 137.652 141.422 137.244C141.218 136.836 141.105 136.382 141.082 135.884C140.584 136.7 139.96 137.357 139.212 137.856C138.464 138.332 137.524 138.57 136.39 138.57ZM139.212 136.122C139.575 136.122 139.892 136.054 140.164 135.918C140.459 135.759 140.731 135.498 140.98 135.136V128.064C140.799 128.381 140.55 128.687 140.232 128.982C139.938 129.254 139.62 129.537 139.28 129.832C138.94 130.104 138.612 130.41 138.294 130.75C138 131.09 137.75 131.498 137.546 131.974C137.365 132.427 137.274 132.982 137.274 133.64C137.274 134.524 137.456 135.158 137.818 135.544C138.181 135.929 138.646 136.122 139.212 136.122ZM158.504 120.244C159.456 120.244 160.306 120.346 161.054 120.55C161.802 120.731 162.414 120.969 162.89 121.264C163.48 121.626 163.956 122.091 164.318 122.658C164.681 123.224 164.862 123.882 164.862 124.63C164.862 125.491 164.579 126.216 164.012 126.806C163.446 127.372 162.732 127.656 161.87 127.656C160.986 127.656 160.284 127.395 159.762 126.874C159.264 126.352 159.014 125.684 159.014 124.868C159.014 124.074 159.264 123.406 159.762 122.862C160.261 122.318 160.85 121.955 161.53 121.774C161.349 121.592 161.111 121.445 160.816 121.332C160.544 121.218 160.216 121.162 159.83 121.162C159.06 121.162 158.414 121.388 157.892 121.842C157.371 122.272 156.94 122.873 156.6 123.644C156.283 124.392 156.045 125.242 155.886 126.194C155.75 127.123 155.682 128.086 155.682 129.084C155.682 130.761 155.898 132.076 156.328 133.028C156.782 133.957 157.337 134.614 157.994 135C158.674 135.362 159.366 135.544 160.068 135.544C160.431 135.544 160.85 135.487 161.326 135.374C161.802 135.26 162.301 135.022 162.822 134.66C163.366 134.297 163.876 133.753 164.352 133.028L164.93 133.232C164.681 134.116 164.262 134.988 163.672 135.85C163.083 136.711 162.324 137.425 161.394 137.992C160.465 138.536 159.332 138.808 157.994 138.808C156.498 138.808 155.138 138.502 153.914 137.89C152.713 137.278 151.75 136.292 151.024 134.932C150.299 133.572 149.936 131.792 149.936 129.594C149.936 127.463 150.31 125.718 151.058 124.358C151.806 122.975 152.826 121.944 154.118 121.264C155.433 120.584 156.895 120.244 158.504 120.244ZM173.974 115.178V120.72H177.646V121.4H173.974V135.306C173.974 135.872 174.076 136.28 174.28 136.53C174.484 136.756 174.79 136.87 175.198 136.87C175.538 136.87 175.89 136.756 176.252 136.53C176.638 136.303 176.989 135.918 177.306 135.374L177.85 135.714C177.42 136.643 176.819 137.391 176.048 137.958C175.3 138.524 174.314 138.808 173.09 138.808C172.342 138.808 171.674 138.706 171.084 138.502C170.518 138.32 170.042 138.037 169.656 137.652C169.158 137.153 168.829 136.541 168.67 135.816C168.534 135.068 168.466 134.104 168.466 132.926V121.4H165.746V120.72H168.466V116.47C169.532 116.47 170.506 116.368 171.39 116.164C172.297 115.96 173.158 115.631 173.974 115.178ZM185.418 120.244C186.416 120.244 187.277 120.357 188.002 120.584C188.728 120.81 189.26 121.026 189.6 121.23C190.394 121.728 190.87 121.411 191.028 120.278H191.742C191.697 120.935 191.663 121.728 191.64 122.658C191.618 123.564 191.606 124.788 191.606 126.33H190.892C190.802 125.491 190.598 124.664 190.28 123.848C189.986 123.032 189.544 122.363 188.954 121.842C188.365 121.298 187.594 121.026 186.642 121.026C186.03 121.026 185.509 121.207 185.078 121.57C184.67 121.932 184.466 122.431 184.466 123.066C184.466 123.746 184.67 124.346 185.078 124.868C185.486 125.389 186.008 125.888 186.642 126.364C187.3 126.84 187.957 127.35 188.614 127.894C189.34 128.438 189.986 128.993 190.552 129.56C191.142 130.104 191.606 130.704 191.946 131.362C192.309 131.996 192.49 132.767 192.49 133.674C192.49 134.694 192.184 135.589 191.572 136.36C190.96 137.13 190.156 137.731 189.158 138.162C188.161 138.592 187.05 138.808 185.826 138.808C185.078 138.808 184.421 138.728 183.854 138.57C183.31 138.434 182.857 138.252 182.494 138.026C182.154 137.867 181.848 137.731 181.576 137.618C181.327 137.504 181.078 137.425 180.828 137.38C180.602 137.357 180.409 137.459 180.25 137.686C180.092 137.912 179.967 138.207 179.876 138.57H179.162C179.208 137.844 179.242 136.96 179.264 135.918C179.287 134.875 179.298 133.492 179.298 131.77H180.012C180.148 132.994 180.398 134.07 180.76 135C181.146 135.929 181.656 136.666 182.29 137.21C182.925 137.731 183.673 137.992 184.534 137.992C184.92 137.992 185.271 137.924 185.588 137.788C185.928 137.629 186.2 137.391 186.404 137.074C186.631 136.756 186.744 136.348 186.744 135.85C186.744 134.852 186.427 134.025 185.792 133.368C185.158 132.688 184.376 131.951 183.446 131.158C182.721 130.546 182.041 129.945 181.406 129.356C180.794 128.766 180.284 128.12 179.876 127.418C179.491 126.715 179.298 125.922 179.298 125.038C179.298 124.018 179.582 123.156 180.148 122.454C180.738 121.728 181.497 121.184 182.426 120.822C183.356 120.436 184.353 120.244 185.418 120.244Z" fill="#302C60"/>
<path d="M44.4177 160.723H45.1277V163.393C44.801 163.679 44.4143 163.899 43.9677 164.053C43.521 164.206 43.051 164.283 42.5577 164.283C41.8577 164.283 41.2277 164.129 40.6677 163.823C40.1077 163.516 39.6677 163.093 39.3477 162.553C39.0277 162.006 38.8677 161.396 38.8677 160.723C38.8677 160.049 39.0277 159.443 39.3477 158.903C39.6677 158.356 40.1077 157.929 40.6677 157.623C41.2277 157.316 41.861 157.163 42.5677 157.163C43.101 157.163 43.591 157.249 44.0377 157.423C44.4843 157.589 44.861 157.839 45.1677 158.173L44.7077 158.643C44.1543 158.096 43.451 157.823 42.5977 157.823C42.031 157.823 41.5177 157.949 41.0577 158.203C40.6043 158.449 40.2477 158.796 39.9877 159.243C39.7277 159.683 39.5977 160.176 39.5977 160.723C39.5977 161.269 39.7277 161.763 39.9877 162.203C40.2477 162.643 40.6043 162.989 41.0577 163.243C41.511 163.496 42.021 163.623 42.5877 163.623C43.3077 163.623 43.9177 163.443 44.4177 163.083V160.723ZM51.812 158.963V164.223H51.132V163.263C50.9454 163.583 50.6887 163.833 50.362 164.013C50.0354 164.186 49.662 164.273 49.242 164.273C48.5554 164.273 48.012 164.083 47.612 163.703C47.2187 163.316 47.022 162.753 47.022 162.013V158.963H47.732V161.943C47.732 162.496 47.8687 162.916 48.142 163.203C48.4154 163.489 48.8054 163.633 49.312 163.633C49.8654 163.633 50.302 163.466 50.622 163.133C50.942 162.793 51.102 162.323 51.102 161.723V158.963H51.812ZM53.8005 158.963H54.5105V164.223H53.8005V158.963ZM54.1605 157.813C54.0139 157.813 53.8905 157.763 53.7905 157.663C53.6905 157.563 53.6405 157.443 53.6405 157.303C53.6405 157.169 53.6905 157.053 53.7905 156.953C53.8905 156.853 54.0139 156.803 54.1605 156.803C54.3072 156.803 54.4305 156.853 54.5305 156.953C54.6305 157.046 54.6805 157.159 54.6805 157.293C54.6805 157.439 54.6305 157.563 54.5305 157.663C54.4305 157.763 54.3072 157.813 54.1605 157.813ZM61.2861 156.803V164.223H60.6061V163.183C60.3928 163.536 60.1094 163.806 59.7561 163.993C59.4094 164.179 59.0161 164.273 58.5761 164.273C58.0828 164.273 57.6361 164.159 57.2361 163.933C56.8361 163.706 56.5228 163.389 56.2961 162.983C56.0694 162.576 55.9561 162.113 55.9561 161.593C55.9561 161.073 56.0694 160.609 56.2961 160.203C56.5228 159.796 56.8361 159.483 57.2361 159.263C57.6361 159.036 58.0828 158.923 58.5761 158.923C59.0028 158.923 59.3861 159.013 59.7261 159.193C60.0728 159.366 60.3561 159.623 60.5761 159.963V156.803H61.2861ZM58.6361 163.643C59.0028 163.643 59.3328 163.559 59.6261 163.393C59.9261 163.219 60.1594 162.976 60.3261 162.663C60.4994 162.349 60.5861 161.993 60.5861 161.593C60.5861 161.193 60.4994 160.836 60.3261 160.523C60.1594 160.209 59.9261 159.969 59.6261 159.803C59.3328 159.629 59.0028 159.543 58.6361 159.543C58.2628 159.543 57.9261 159.629 57.6261 159.803C57.3328 159.969 57.0994 160.209 56.9261 160.523C56.7594 160.836 56.6761 161.193 56.6761 161.593C56.6761 161.993 56.7594 162.349 56.9261 162.663C57.0994 162.976 57.3328 163.219 57.6261 163.393C57.9261 163.559 58.2628 163.643 58.6361 163.643ZM67.8434 161.813H63.4434C63.4834 162.359 63.6934 162.803 64.0734 163.143C64.4534 163.476 64.9334 163.643 65.5134 163.643C65.8401 163.643 66.1401 163.586 66.4134 163.473C66.6868 163.353 66.9234 163.179 67.1234 162.953L67.5234 163.413C67.2901 163.693 66.9968 163.906 66.6434 164.053C66.2968 164.199 65.9134 164.273 65.4934 164.273C64.9534 164.273 64.4734 164.159 64.0534 163.933C63.6401 163.699 63.3168 163.379 63.0834 162.973C62.8501 162.566 62.7334 162.106 62.7334 161.593C62.7334 161.079 62.8434 160.619 63.0634 160.213C63.2901 159.806 63.5968 159.489 63.9834 159.263C64.3768 159.036 64.8168 158.923 65.3034 158.923C65.7901 158.923 66.2268 159.036 66.6134 159.263C67.0001 159.489 67.3034 159.806 67.5234 160.213C67.7434 160.613 67.8534 161.073 67.8534 161.593L67.8434 161.813ZM65.3034 159.533C64.7968 159.533 64.3701 159.696 64.0234 160.023C63.6834 160.343 63.4901 160.763 63.4434 161.283H67.1734C67.1268 160.763 66.9301 160.343 66.5834 160.023C66.2434 159.696 65.8168 159.533 65.3034 159.533ZM70.7086 164.273C70.2819 164.273 69.8719 164.213 69.4786 164.093C69.0919 163.966 68.7886 163.809 68.5686 163.623L68.8886 163.063C69.1086 163.236 69.3853 163.379 69.7186 163.493C70.0519 163.599 70.3986 163.653 70.7586 163.653C71.2386 163.653 71.5919 163.579 71.8186 163.433C72.0519 163.279 72.1686 163.066 72.1686 162.793C72.1686 162.599 72.1053 162.449 71.9786 162.343C71.8519 162.229 71.6919 162.146 71.4986 162.093C71.3053 162.033 71.0486 161.976 70.7286 161.923C70.3019 161.843 69.9586 161.763 69.6986 161.683C69.4386 161.596 69.2153 161.453 69.0286 161.253C68.8486 161.053 68.7586 160.776 68.7586 160.423C68.7586 159.983 68.9419 159.623 69.3086 159.343C69.6753 159.063 70.1853 158.923 70.8386 158.923C71.1786 158.923 71.5186 158.969 71.8586 159.063C72.1986 159.149 72.4786 159.266 72.6986 159.413L72.3886 159.983C71.9553 159.683 71.4386 159.533 70.8386 159.533C70.3853 159.533 70.0419 159.613 69.8086 159.773C69.5819 159.933 69.4686 160.143 69.4686 160.403C69.4686 160.603 69.5319 160.763 69.6586 160.883C69.7919 161.003 69.9553 161.093 70.1486 161.153C70.3419 161.206 70.6086 161.263 70.9486 161.323C71.3686 161.403 71.7053 161.483 71.9586 161.563C72.2119 161.643 72.4286 161.779 72.6086 161.973C72.7886 162.166 72.8786 162.433 72.8786 162.773C72.8786 163.233 72.6853 163.599 72.2986 163.873C71.9186 164.139 71.3886 164.273 70.7086 164.273ZM74.2712 163.183C74.4245 163.183 74.5512 163.236 74.6512 163.343C74.7512 163.443 74.8012 163.569 74.8012 163.723C74.8012 163.803 74.7878 163.889 74.7612 163.983C74.7412 164.076 74.7078 164.183 74.6612 164.303L74.2412 165.683H73.7612L74.1012 164.233C73.9945 164.199 73.9078 164.139 73.8412 164.053C73.7745 163.959 73.7412 163.849 73.7412 163.723C73.7412 163.569 73.7912 163.443 73.8912 163.343C73.9912 163.236 74.1178 163.183 74.2712 163.183ZM81.6975 163.903C81.5642 164.023 81.3975 164.116 81.1975 164.183C81.0042 164.243 80.8008 164.273 80.5875 164.273C80.0942 164.273 79.7142 164.139 79.4475 163.873C79.1808 163.606 79.0475 163.229 79.0475 162.743V159.563H78.1075V158.963H79.0475V157.813H79.7575V158.963H81.3575V159.563H79.7575V162.703C79.7575 163.016 79.8342 163.256 79.9875 163.423C80.1475 163.583 80.3742 163.663 80.6675 163.663C80.8142 163.663 80.9542 163.639 81.0875 163.593C81.2275 163.546 81.3475 163.479 81.4475 163.393L81.6975 163.903ZM84.9545 164.273C84.4478 164.273 83.9911 164.159 83.5845 163.933C83.1778 163.699 82.8578 163.379 82.6245 162.973C82.3911 162.566 82.2745 162.106 82.2745 161.593C82.2745 161.079 82.3911 160.619 82.6245 160.213C82.8578 159.806 83.1778 159.489 83.5845 159.263C83.9911 159.036 84.4478 158.923 84.9545 158.923C85.4611 158.923 85.9178 159.036 86.3245 159.263C86.7311 159.489 87.0478 159.806 87.2745 160.213C87.5078 160.619 87.6245 161.079 87.6245 161.593C87.6245 162.106 87.5078 162.566 87.2745 162.973C87.0478 163.379 86.7311 163.699 86.3245 163.933C85.9178 164.159 85.4611 164.273 84.9545 164.273ZM84.9545 163.643C85.3278 163.643 85.6611 163.559 85.9545 163.393C86.2545 163.219 86.4878 162.976 86.6545 162.663C86.8211 162.349 86.9045 161.993 86.9045 161.593C86.9045 161.193 86.8211 160.836 86.6545 160.523C86.4878 160.209 86.2545 159.969 85.9545 159.803C85.6611 159.629 85.3278 159.543 84.9545 159.543C84.5811 159.543 84.2445 159.629 83.9445 159.803C83.6511 159.969 83.4178 160.209 83.2445 160.523C83.0778 160.836 82.9945 161.193 82.9945 161.593C82.9945 161.993 83.0778 162.349 83.2445 162.663C83.4178 162.976 83.6511 163.219 83.9445 163.393C84.2445 163.559 84.5811 163.643 84.9545 163.643ZM91.224 164.273C90.7173 164.273 90.2607 164.159 89.854 163.933C89.4473 163.699 89.1273 163.379 88.894 162.973C88.6607 162.566 88.544 162.106 88.544 161.593C88.544 161.079 88.6607 160.619 88.894 160.213C89.1273 159.806 89.4473 159.489 89.854 159.263C90.2607 159.036 90.7173 158.923 91.224 158.923C91.7307 158.923 92.1873 159.036 92.594 159.263C93.0007 159.489 93.3173 159.806 93.544 160.213C93.7773 160.619 93.894 161.079 93.894 161.593C93.894 162.106 93.7773 162.566 93.544 162.973C93.3173 163.379 93.0007 163.699 92.594 163.933C92.1873 164.159 91.7307 164.273 91.224 164.273ZM91.224 163.643C91.5973 163.643 91.9307 163.559 92.224 163.393C92.524 163.219 92.7573 162.976 92.924 162.663C93.0907 162.349 93.174 161.993 93.174 161.593C93.174 161.193 93.0907 160.836 92.924 160.523C92.7573 160.209 92.524 159.969 92.224 159.803C91.9307 159.629 91.5973 159.543 91.224 159.543C90.8507 159.543 90.514 159.629 90.214 159.803C89.9207 159.969 89.6873 160.209 89.514 160.523C89.3473 160.836 89.264 161.193 89.264 161.593C89.264 161.993 89.3473 162.349 89.514 162.663C89.6873 162.976 89.9207 163.219 90.214 163.393C90.514 163.559 90.8507 163.643 91.224 163.643ZM95.3435 156.803H96.0535V164.223H95.3435V156.803ZM99.4391 164.273C99.0124 164.273 98.6024 164.213 98.2091 164.093C97.8224 163.966 97.5191 163.809 97.2991 163.623L97.6191 163.063C97.8391 163.236 98.1157 163.379 98.4491 163.493C98.7824 163.599 99.1291 163.653 99.4891 163.653C99.9691 163.653 100.322 163.579 100.549 163.433C100.782 163.279 100.899 163.066 100.899 162.793C100.899 162.599 100.836 162.449 100.709 162.343C100.582 162.229 100.422 162.146 100.229 162.093C100.036 162.033 99.7791 161.976 99.4591 161.923C99.0324 161.843 98.6891 161.763 98.4291 161.683C98.1691 161.596 97.9457 161.453 97.7591 161.253C97.5791 161.053 97.4891 160.776 97.4891 160.423C97.4891 159.983 97.6724 159.623 98.0391 159.343C98.4057 159.063 98.9157 158.923 99.5691 158.923C99.9091 158.923 100.249 158.969 100.589 159.063C100.929 159.149 101.209 159.266 101.429 159.413L101.119 159.983C100.686 159.683 100.169 159.533 99.5691 159.533C99.1157 159.533 98.7724 159.613 98.5391 159.773C98.3124 159.933 98.1991 160.143 98.1991 160.403C98.1991 160.603 98.2624 160.763 98.3891 160.883C98.5224 161.003 98.6857 161.093 98.8791 161.153C99.0724 161.206 99.3391 161.263 99.6791 161.323C100.099 161.403 100.436 161.483 100.689 161.563C100.942 161.643 101.159 161.779 101.339 161.973C101.519 162.166 101.609 162.433 101.609 162.773C101.609 163.233 101.416 163.599 101.029 163.873C100.649 164.139 100.119 164.273 99.4391 164.273ZM107.379 158.923C108.065 158.923 108.592 159.096 108.959 159.443C109.325 159.783 109.509 160.289 109.509 160.963V164.223H108.829V163.403C108.669 163.676 108.432 163.889 108.119 164.043C107.812 164.196 107.445 164.273 107.019 164.273C106.432 164.273 105.965 164.133 105.619 163.853C105.272 163.573 105.099 163.203 105.099 162.743C105.099 162.296 105.259 161.936 105.579 161.663C105.905 161.389 106.422 161.253 107.129 161.253H108.799V160.933C108.799 160.479 108.672 160.136 108.419 159.903C108.165 159.663 107.795 159.543 107.309 159.543C106.975 159.543 106.655 159.599 106.349 159.713C106.042 159.819 105.779 159.969 105.559 160.163L105.239 159.633C105.505 159.406 105.825 159.233 106.199 159.113C106.572 158.986 106.965 158.923 107.379 158.923ZM107.129 163.713C107.529 163.713 107.872 163.623 108.159 163.443C108.445 163.256 108.659 162.989 108.799 162.643V161.783H107.149C106.249 161.783 105.799 162.096 105.799 162.723C105.799 163.029 105.915 163.273 106.149 163.453C106.382 163.626 106.709 163.713 107.129 163.713ZM114.117 158.923C114.777 158.923 115.301 159.116 115.687 159.503C116.081 159.883 116.277 160.439 116.277 161.173V164.223H115.567V161.243C115.567 160.696 115.431 160.279 115.157 159.993C114.884 159.706 114.494 159.563 113.987 159.563C113.421 159.563 112.971 159.733 112.637 160.073C112.311 160.406 112.147 160.869 112.147 161.463V164.223H111.437V158.963H112.117V159.933C112.311 159.613 112.577 159.366 112.917 159.193C113.264 159.013 113.664 158.923 114.117 158.923ZM123.024 156.803V164.223H122.344V163.183C122.131 163.536 121.848 163.806 121.494 163.993C121.148 164.179 120.754 164.273 120.314 164.273C119.821 164.273 119.374 164.159 118.974 163.933C118.574 163.706 118.261 163.389 118.034 162.983C117.808 162.576 117.694 162.113 117.694 161.593C117.694 161.073 117.808 160.609 118.034 160.203C118.261 159.796 118.574 159.483 118.974 159.263C119.374 159.036 119.821 158.923 120.314 158.923C120.741 158.923 121.124 159.013 121.464 159.193C121.811 159.366 122.094 159.623 122.314 159.963V156.803H123.024ZM120.374 163.643C120.741 163.643 121.071 163.559 121.364 163.393C121.664 163.219 121.898 162.976 122.064 162.663C122.238 162.349 122.324 161.993 122.324 161.593C122.324 161.193 122.238 160.836 122.064 160.523C121.898 160.209 121.664 159.969 121.364 159.803C121.071 159.629 120.741 159.543 120.374 159.543C120.001 159.543 119.664 159.629 119.364 159.803C119.071 159.969 118.838 160.209 118.664 160.523C118.498 160.836 118.414 161.193 118.414 161.593C118.414 161.993 118.498 162.349 118.664 162.663C118.838 162.976 119.071 163.219 119.364 163.393C119.664 163.559 120.001 163.643 120.374 163.643ZM129.029 164.273C128.602 164.273 128.192 164.213 127.799 164.093C127.412 163.966 127.109 163.809 126.889 163.623L127.209 163.063C127.429 163.236 127.706 163.379 128.039 163.493C128.372 163.599 128.719 163.653 129.079 163.653C129.559 163.653 129.912 163.579 130.139 163.433C130.372 163.279 130.489 163.066 130.489 162.793C130.489 162.599 130.426 162.449 130.299 162.343C130.172 162.229 130.012 162.146 129.819 162.093C129.626 162.033 129.369 161.976 129.049 161.923C128.622 161.843 128.279 161.763 128.019 161.683C127.759 161.596 127.536 161.453 127.349 161.253C127.169 161.053 127.079 160.776 127.079 160.423C127.079 159.983 127.262 159.623 127.629 159.343C127.996 159.063 128.506 158.923 129.159 158.923C129.499 158.923 129.839 158.969 130.179 159.063C130.519 159.149 130.799 159.266 131.019 159.413L130.709 159.983C130.276 159.683 129.759 159.533 129.159 159.533C128.706 159.533 128.362 159.613 128.129 159.773C127.902 159.933 127.789 160.143 127.789 160.403C127.789 160.603 127.852 160.763 127.979 160.883C128.112 161.003 128.276 161.093 128.469 161.153C128.662 161.206 128.929 161.263 129.269 161.323C129.689 161.403 130.026 161.483 130.279 161.563C130.532 161.643 130.749 161.779 130.929 161.973C131.109 162.166 131.199 162.433 131.199 162.773C131.199 163.233 131.006 163.599 130.619 163.873C130.239 164.139 129.709 164.273 129.029 164.273ZM134.351 158.923C135.038 158.923 135.565 159.096 135.931 159.443C136.298 159.783 136.481 160.289 136.481 160.963V164.223H135.801V163.403C135.641 163.676 135.405 163.889 135.091 164.043C134.785 164.196 134.418 164.273 133.991 164.273C133.405 164.273 132.938 164.133 132.591 163.853C132.245 163.573 132.071 163.203 132.071 162.743C132.071 162.296 132.231 161.936 132.551 161.663C132.878 161.389 133.395 161.253 134.101 161.253H135.771V160.933C135.771 160.479 135.645 160.136 135.391 159.903C135.138 159.663 134.768 159.543 134.281 159.543C133.948 159.543 133.628 159.599 133.321 159.713C133.015 159.819 132.751 159.969 132.531 160.163L132.211 159.633C132.478 159.406 132.798 159.233 133.171 159.113C133.545 158.986 133.938 158.923 134.351 158.923ZM134.101 163.713C134.501 163.713 134.845 163.623 135.131 163.443C135.418 163.256 135.631 162.989 135.771 162.643V161.783H134.121C133.221 161.783 132.771 162.096 132.771 162.723C132.771 163.029 132.888 163.273 133.121 163.453C133.355 163.626 133.681 163.713 134.101 163.713ZM144.97 158.923C145.63 158.923 146.147 159.113 146.52 159.493C146.9 159.873 147.09 160.433 147.09 161.173V164.223H146.38V161.243C146.38 160.696 146.247 160.279 145.98 159.993C145.72 159.706 145.35 159.563 144.87 159.563C144.323 159.563 143.893 159.733 143.58 160.073C143.267 160.406 143.11 160.869 143.11 161.463V164.223H142.4V161.243C142.4 160.696 142.267 160.279 142 159.993C141.74 159.706 141.367 159.563 140.88 159.563C140.34 159.563 139.91 159.733 139.59 160.073C139.277 160.406 139.12 160.869 139.12 161.463V164.223H138.41V158.963H139.09V159.923C139.277 159.603 139.537 159.356 139.87 159.183C140.203 159.009 140.587 158.923 141.02 158.923C141.46 158.923 141.84 159.016 142.16 159.203C142.487 159.389 142.73 159.666 142.89 160.033C143.083 159.686 143.36 159.416 143.72 159.223C144.087 159.023 144.503 158.923 144.97 158.923ZM151.725 158.923C152.219 158.923 152.665 159.036 153.065 159.263C153.465 159.483 153.779 159.796 154.005 160.203C154.232 160.609 154.345 161.073 154.345 161.593C154.345 162.119 154.232 162.586 154.005 162.993C153.779 163.399 153.465 163.716 153.065 163.943C152.672 164.163 152.225 164.273 151.725 164.273C151.299 164.273 150.912 164.186 150.565 164.013C150.225 163.833 149.945 163.573 149.725 163.233V166.163H149.015V158.963H149.695V160.003C149.909 159.656 150.189 159.389 150.535 159.203C150.889 159.016 151.285 158.923 151.725 158.923ZM151.675 163.643C152.042 163.643 152.375 163.559 152.675 163.393C152.975 163.219 153.209 162.976 153.375 162.663C153.549 162.349 153.635 161.993 153.635 161.593C153.635 161.193 153.549 160.839 153.375 160.533C153.209 160.219 152.975 159.976 152.675 159.803C152.375 159.629 152.042 159.543 151.675 159.543C151.302 159.543 150.965 159.629 150.665 159.803C150.372 159.976 150.139 160.219 149.965 160.533C149.799 160.839 149.715 161.193 149.715 161.593C149.715 161.993 149.799 162.349 149.965 162.663C150.139 162.976 150.372 163.219 150.665 163.393C150.965 163.559 151.302 163.643 151.675 163.643ZM155.793 156.803H156.503V164.223H155.793V156.803ZM163.058 161.813H158.658C158.698 162.359 158.908 162.803 159.288 163.143C159.668 163.476 160.148 163.643 160.728 163.643C161.055 163.643 161.355 163.586 161.628 163.473C161.902 163.353 162.138 163.179 162.338 162.953L162.738 163.413C162.505 163.693 162.212 163.906 161.858 164.053C161.512 164.199 161.128 164.273 160.708 164.273C160.168 164.273 159.688 164.159 159.268 163.933C158.855 163.699 158.532 163.379 158.298 162.973C158.065 162.566 157.948 162.106 157.948 161.593C157.948 161.079 158.058 160.619 158.278 160.213C158.505 159.806 158.812 159.489 159.198 159.263C159.592 159.036 160.032 158.923 160.518 158.923C161.005 158.923 161.442 159.036 161.828 159.263C162.215 159.489 162.518 159.806 162.738 160.213C162.958 160.613 163.068 161.073 163.068 161.593L163.058 161.813ZM160.518 159.533C160.012 159.533 159.585 159.696 159.238 160.023C158.898 160.343 158.705 160.763 158.658 161.283H162.388C162.342 160.763 162.145 160.343 161.798 160.023C161.458 159.696 161.032 159.533 160.518 159.533ZM165.923 164.273C165.497 164.273 165.087 164.213 164.693 164.093C164.307 163.966 164.003 163.809 163.783 163.623L164.103 163.063C164.323 163.236 164.6 163.379 164.933 163.493C165.267 163.599 165.613 163.653 165.973 163.653C166.453 163.653 166.807 163.579 167.033 163.433C167.267 163.279 167.383 163.066 167.383 162.793C167.383 162.599 167.32 162.449 167.193 162.343C167.067 162.229 166.907 162.146 166.713 162.093C166.52 162.033 166.263 161.976 165.943 161.923C165.517 161.843 165.173 161.763 164.913 161.683C164.653 161.596 164.43 161.453 164.243 161.253C164.063 161.053 163.973 160.776 163.973 160.423C163.973 159.983 164.157 159.623 164.523 159.343C164.89 159.063 165.4 158.923 166.053 158.923C166.393 158.923 166.733 158.969 167.073 159.063C167.413 159.149 167.693 159.266 167.913 159.413L167.603 159.983C167.17 159.683 166.653 159.533 166.053 159.533C165.6 159.533 165.257 159.613 165.023 159.773C164.797 159.933 164.683 160.143 164.683 160.403C164.683 160.603 164.747 160.763 164.873 160.883C165.007 161.003 165.17 161.093 165.363 161.153C165.557 161.206 165.823 161.263 166.163 161.323C166.583 161.403 166.92 161.483 167.173 161.563C167.427 161.643 167.643 161.779 167.823 161.973C168.003 162.166 168.093 162.433 168.093 162.773C168.093 163.233 167.9 163.599 167.513 163.873C167.133 164.139 166.603 164.273 165.923 164.273ZM174.793 163.903C174.66 164.023 174.493 164.116 174.293 164.183C174.1 164.243 173.897 164.273 173.683 164.273C173.19 164.273 172.81 164.139 172.543 163.873C172.277 163.606 172.143 163.229 172.143 162.743V159.563H171.203V158.963H172.143V157.813H172.853V158.963H174.453V159.563H172.853V162.703C172.853 163.016 172.93 163.256 173.083 163.423C173.243 163.583 173.47 163.663 173.763 163.663C173.91 163.663 174.05 163.639 174.183 163.593C174.323 163.546 174.443 163.479 174.543 163.393L174.793 163.903ZM178.05 164.273C177.543 164.273 177.087 164.159 176.68 163.933C176.273 163.699 175.953 163.379 175.72 162.973C175.487 162.566 175.37 162.106 175.37 161.593C175.37 161.079 175.487 160.619 175.72 160.213C175.953 159.806 176.273 159.489 176.68 159.263C177.087 159.036 177.543 158.923 178.05 158.923C178.557 158.923 179.013 159.036 179.42 159.263C179.827 159.489 180.143 159.806 180.37 160.213C180.603 160.619 180.72 161.079 180.72 161.593C180.72 162.106 180.603 162.566 180.37 162.973C180.143 163.379 179.827 163.699 179.42 163.933C179.013 164.159 178.557 164.273 178.05 164.273ZM178.05 163.643C178.423 163.643 178.757 163.559 179.05 163.393C179.35 163.219 179.583 162.976 179.75 162.663C179.917 162.349 180 161.993 180 161.593C180 161.193 179.917 160.836 179.75 160.523C179.583 160.209 179.35 159.969 179.05 159.803C178.757 159.629 178.423 159.543 178.05 159.543C177.677 159.543 177.34 159.629 177.04 159.803C176.747 159.969 176.513 160.209 176.34 160.523C176.173 160.836 176.09 161.193 176.09 161.593C176.09 161.993 176.173 162.349 176.34 162.663C176.513 162.976 176.747 163.219 177.04 163.393C177.34 163.559 177.677 163.643 178.05 163.643ZM187.467 158.923C188.127 158.923 188.65 159.116 189.037 159.503C189.43 159.883 189.627 160.439 189.627 161.173V164.223H188.917V161.243C188.917 160.696 188.78 160.279 188.507 159.993C188.234 159.706 187.844 159.563 187.337 159.563C186.77 159.563 186.32 159.733 185.987 160.073C185.66 160.406 185.497 160.869 185.497 161.463V164.223H184.787V156.803H185.497V159.883C185.69 159.576 185.957 159.339 186.297 159.173C186.637 159.006 187.027 158.923 187.467 158.923ZM196.154 161.813H191.754C191.794 162.359 192.004 162.803 192.384 163.143C192.764 163.476 193.244 163.643 193.824 163.643C194.151 163.643 194.451 163.586 194.724 163.473C194.997 163.353 195.234 163.179 195.434 162.953L195.834 163.413C195.601 163.693 195.307 163.906 194.954 164.053C194.607 164.199 194.224 164.273 193.804 164.273C193.264 164.273 192.784 164.159 192.364 163.933C191.951 163.699 191.627 163.379 191.394 162.973C191.161 162.566 191.044 162.106 191.044 161.593C191.044 161.079 191.154 160.619 191.374 160.213C191.601 159.806 191.907 159.489 192.294 159.263C192.687 159.036 193.127 158.923 193.614 158.923C194.101 158.923 194.537 159.036 194.924 159.263C195.311 159.489 195.614 159.806 195.834 160.213C196.054 160.613 196.164 161.073 196.164 161.593L196.154 161.813ZM193.614 159.533C193.107 159.533 192.681 159.696 192.334 160.023C191.994 160.343 191.801 160.763 191.754 161.283H195.484C195.437 160.763 195.241 160.343 194.894 160.023C194.554 159.696 194.127 159.533 193.614 159.533ZM197.609 156.803H198.319V164.223H197.609V156.803ZM203.005 158.923C203.498 158.923 203.945 159.036 204.345 159.263C204.745 159.483 205.058 159.796 205.285 160.203C205.511 160.609 205.625 161.073 205.625 161.593C205.625 162.119 205.511 162.586 205.285 162.993C205.058 163.399 204.745 163.716 204.345 163.943C203.951 164.163 203.505 164.273 203.005 164.273C202.578 164.273 202.191 164.186 201.845 164.013C201.505 163.833 201.225 163.573 201.005 163.233V166.163H200.295V158.963H200.975V160.003C201.188 159.656 201.468 159.389 201.815 159.203C202.168 159.016 202.565 158.923 203.005 158.923ZM202.955 163.643C203.321 163.643 203.655 163.559 203.955 163.393C204.255 163.219 204.488 162.976 204.655 162.663C204.828 162.349 204.915 161.993 204.915 161.593C204.915 161.193 204.828 160.839 204.655 160.533C204.488 160.219 204.255 159.976 203.955 159.803C203.655 159.629 203.321 159.543 202.955 159.543C202.581 159.543 202.245 159.629 201.945 159.803C201.651 159.976 201.418 160.219 201.245 160.533C201.078 160.839 200.995 161.193 200.995 161.593C200.995 161.993 201.078 162.349 201.245 162.663C201.418 162.976 201.651 163.219 201.945 163.393C202.245 163.559 202.581 163.643 202.955 163.643ZM214.109 158.963L211.479 164.853C211.266 165.346 211.019 165.696 210.739 165.903C210.459 166.109 210.123 166.213 209.729 166.213C209.476 166.213 209.239 166.173 209.019 166.093C208.799 166.013 208.609 165.893 208.449 165.733L208.779 165.203C209.046 165.469 209.366 165.603 209.739 165.603C209.979 165.603 210.183 165.536 210.349 165.403C210.523 165.269 210.683 165.043 210.829 164.723L211.059 164.213L208.709 158.963H209.449L211.429 163.433L213.409 158.963H214.109ZM217.113 164.273C216.606 164.273 216.149 164.159 215.743 163.933C215.336 163.699 215.016 163.379 214.783 162.973C214.549 162.566 214.433 162.106 214.433 161.593C214.433 161.079 214.549 160.619 214.783 160.213C215.016 159.806 215.336 159.489 215.743 159.263C216.149 159.036 216.606 158.923 217.113 158.923C217.619 158.923 218.076 159.036 218.483 159.263C218.889 159.489 219.206 159.806 219.433 160.213C219.666 160.619 219.783 161.079 219.783 161.593C219.783 162.106 219.666 162.566 219.433 162.973C219.206 163.379 218.889 163.699 218.483 163.933C218.076 164.159 217.619 164.273 217.113 164.273ZM217.113 163.643C217.486 163.643 217.819 163.559 218.113 163.393C218.413 163.219 218.646 162.976 218.813 162.663C218.979 162.349 219.063 161.993 219.063 161.593C219.063 161.193 218.979 160.836 218.813 160.523C218.646 160.209 218.413 159.969 218.113 159.803C217.819 159.629 217.486 159.543 217.113 159.543C216.739 159.543 216.403 159.629 216.103 159.803C215.809 159.969 215.576 160.209 215.403 160.523C215.236 160.836 215.153 161.193 215.153 161.593C215.153 161.993 215.236 162.349 215.403 162.663C215.576 162.976 215.809 163.219 216.103 163.393C216.403 163.559 216.739 163.643 217.113 163.643ZM225.972 158.963V164.223H225.292V163.263C225.106 163.583 224.849 163.833 224.522 164.013C224.196 164.186 223.822 164.273 223.402 164.273C222.716 164.273 222.172 164.083 221.772 163.703C221.379 163.316 221.182 162.753 221.182 162.013V158.963H221.892V161.943C221.892 162.496 222.029 162.916 222.302 163.203C222.576 163.489 222.966 163.633 223.472 163.633C224.026 163.633 224.462 163.466 224.782 163.133C225.102 162.793 225.262 162.323 225.262 161.723V158.963H225.972ZM233.288 158.923C233.781 158.923 234.228 159.036 234.628 159.263C235.028 159.483 235.341 159.796 235.568 160.203C235.795 160.609 235.908 161.073 235.908 161.593C235.908 162.113 235.795 162.576 235.568 162.983C235.341 163.389 235.028 163.706 234.628 163.933C234.228 164.159 233.781 164.273 233.288 164.273C232.848 164.273 232.451 164.179 232.098 163.993C231.751 163.806 231.471 163.536 231.258 163.183V164.223H230.578V156.803H231.288V159.963C231.508 159.623 231.788 159.366 232.128 159.193C232.475 159.013 232.861 158.923 233.288 158.923ZM233.238 163.643C233.605 163.643 233.938 163.559 234.238 163.393C234.538 163.219 234.771 162.976 234.938 162.663C235.111 162.349 235.198 161.993 235.198 161.593C235.198 161.193 235.111 160.836 234.938 160.523C234.771 160.209 234.538 159.969 234.238 159.803C233.938 159.629 233.605 159.543 233.238 159.543C232.865 159.543 232.528 159.629 232.228 159.803C231.935 159.969 231.701 160.209 231.528 160.523C231.361 160.836 231.278 161.193 231.278 161.593C231.278 161.993 231.361 162.349 231.528 162.663C231.701 162.976 231.935 163.219 232.228 163.393C232.528 163.559 232.865 163.643 233.238 163.643ZM242.095 158.963V164.223H241.415V163.263C241.229 163.583 240.972 163.833 240.645 164.013C240.319 164.186 239.945 164.273 239.525 164.273C238.839 164.273 238.295 164.083 237.895 163.703C237.502 163.316 237.305 162.753 237.305 162.013V158.963H238.015V161.943C238.015 162.496 238.152 162.916 238.425 163.203C238.699 163.489 239.089 163.633 239.595 163.633C240.149 163.633 240.585 163.466 240.905 163.133C241.225 162.793 241.385 162.323 241.385 161.723V158.963H242.095ZM244.084 158.963H244.794V164.223H244.084V158.963ZM244.444 157.813C244.297 157.813 244.174 157.763 244.074 157.663C243.974 157.563 243.924 157.443 243.924 157.303C243.924 157.169 243.974 157.053 244.074 156.953C244.174 156.853 244.297 156.803 244.444 156.803C244.59 156.803 244.714 156.853 244.814 156.953C244.914 157.046 244.964 157.159 244.964 157.293C244.964 157.439 244.914 157.563 244.814 157.663C244.714 157.763 244.59 157.813 244.444 157.813ZM246.769 156.803H247.479V164.223H246.769V156.803ZM254.255 156.803V164.223H253.575V163.183C253.362 163.536 253.078 163.806 252.725 163.993C252.378 164.179 251.985 164.273 251.545 164.273C251.052 164.273 250.605 164.159 250.205 163.933C249.805 163.706 249.492 163.389 249.265 162.983C249.038 162.576 248.925 162.113 248.925 161.593C248.925 161.073 249.038 160.609 249.265 160.203C249.492 159.796 249.805 159.483 250.205 159.263C250.605 159.036 251.052 158.923 251.545 158.923C251.972 158.923 252.355 159.013 252.695 159.193C253.042 159.366 253.325 159.623 253.545 159.963V156.803H254.255ZM251.605 163.643C251.972 163.643 252.302 163.559 252.595 163.393C252.895 163.219 253.128 162.976 253.295 162.663C253.468 162.349 253.555 161.993 253.555 161.593C253.555 161.193 253.468 160.836 253.295 160.523C253.128 160.209 252.895 159.969 252.595 159.803C252.302 159.629 251.972 159.543 251.605 159.543C251.232 159.543 250.895 159.629 250.595 159.803C250.302 159.969 250.068 160.209 249.895 160.523C249.728 160.836 249.645 161.193 249.645 161.593C249.645 161.993 249.728 162.349 249.895 162.663C250.068 162.976 250.302 163.219 250.595 163.393C250.895 163.559 251.232 163.643 251.605 163.643ZM42.0477 170.923C42.541 170.923 42.9877 171.036 43.3877 171.263C43.7877 171.483 44.101 171.796 44.3277 172.203C44.5543 172.609 44.6677 173.073 44.6677 173.593C44.6677 174.113 44.5543 174.576 44.3277 174.983C44.101 175.389 43.7877 175.706 43.3877 175.933C42.9877 176.159 42.541 176.273 42.0477 176.273C41.6077 176.273 41.211 176.179 40.8577 175.993C40.511 175.806 40.231 175.536 40.0177 175.183V176.223H39.3377V168.803H40.0477V171.963C40.2677 171.623 40.5477 171.366 40.8877 171.193C41.2343 171.013 41.621 170.923 42.0477 170.923ZM41.9977 175.643C42.3643 175.643 42.6977 175.559 42.9977 175.393C43.2977 175.219 43.531 174.976 43.6977 174.663C43.871 174.349 43.9577 173.993 43.9577 173.593C43.9577 173.193 43.871 172.836 43.6977 172.523C43.531 172.209 43.2977 171.969 42.9977 171.803C42.6977 171.629 42.3643 171.543 41.9977 171.543C41.6243 171.543 41.2877 171.629 40.9877 171.803C40.6943 171.969 40.461 172.209 40.2877 172.523C40.121 172.836 40.0377 173.193 40.0377 173.593C40.0377 173.993 40.121 174.349 40.2877 174.663C40.461 174.976 40.6943 175.219 40.9877 175.393C41.2877 175.559 41.6243 175.643 41.9977 175.643ZM48.265 176.273C47.7583 176.273 47.3017 176.159 46.895 175.933C46.4883 175.699 46.1683 175.379 45.935 174.973C45.7017 174.566 45.585 174.106 45.585 173.593C45.585 173.079 45.7017 172.619 45.935 172.213C46.1683 171.806 46.4883 171.489 46.895 171.263C47.3017 171.036 47.7583 170.923 48.265 170.923C48.7717 170.923 49.2283 171.036 49.635 171.263C50.0417 171.489 50.3583 171.806 50.585 172.213C50.8183 172.619 50.935 173.079 50.935 173.593C50.935 174.106 50.8183 174.566 50.585 174.973C50.3583 175.379 50.0417 175.699 49.635 175.933C49.2283 176.159 48.7717 176.273 48.265 176.273ZM48.265 175.643C48.6383 175.643 48.9717 175.559 49.265 175.393C49.565 175.219 49.7983 174.976 49.965 174.663C50.1317 174.349 50.215 173.993 50.215 173.593C50.215 173.193 50.1317 172.836 49.965 172.523C49.7983 172.209 49.565 171.969 49.265 171.803C48.9717 171.629 48.6383 171.543 48.265 171.543C47.8917 171.543 47.555 171.629 47.255 171.803C46.9617 171.969 46.7283 172.209 46.555 172.523C46.3883 172.836 46.305 173.193 46.305 173.593C46.305 173.993 46.3883 174.349 46.555 174.663C46.7283 174.976 46.9617 175.219 47.255 175.393C47.555 175.559 47.8917 175.643 48.265 175.643ZM55.1545 175.903C55.0212 176.023 54.8545 176.116 54.6545 176.183C54.4612 176.243 54.2579 176.273 54.0445 176.273C53.5512 176.273 53.1712 176.139 52.9045 175.873C52.6379 175.606 52.5045 175.229 52.5045 174.743V171.563H51.5645V170.963H52.5045V169.813H53.2145V170.963H54.8145V171.563H53.2145V174.703C53.2145 175.016 53.2912 175.256 53.4445 175.423C53.6045 175.583 53.8312 175.663 54.1245 175.663C54.2712 175.663 54.4112 175.639 54.5445 175.593C54.6845 175.546 54.8045 175.479 54.9045 175.393L55.1545 175.903ZM59.127 170.923C59.787 170.923 60.3104 171.116 60.697 171.503C61.0904 171.883 61.287 172.439 61.287 173.173V176.223H60.577V173.243C60.577 172.696 60.4404 172.279 60.167 171.993C59.8937 171.706 59.5037 171.563 58.997 171.563C58.4304 171.563 57.9804 171.733 57.647 172.073C57.3204 172.406 57.157 172.869 57.157 173.463V176.223H56.447V168.803H57.157V171.883C57.3504 171.576 57.617 171.339 57.957 171.173C58.297 171.006 58.687 170.923 59.127 170.923ZM68.5118 170.923C69.1718 170.923 69.6951 171.116 70.0818 171.503C70.4751 171.883 70.6718 172.439 70.6718 173.173V176.223H69.9618V173.243C69.9618 172.696 69.8251 172.279 69.5518 171.993C69.2785 171.706 68.8885 171.563 68.3818 171.563C67.8151 171.563 67.3651 171.733 67.0318 172.073C66.7051 172.406 66.5418 172.869 66.5418 173.463V176.223H65.8318V170.963H66.5118V171.933C66.7051 171.613 66.9718 171.366 67.3118 171.193C67.6585 171.013 68.0585 170.923 68.5118 170.923ZM74.7689 176.273C74.2622 176.273 73.8056 176.159 73.3989 175.933C72.9922 175.699 72.6722 175.379 72.4389 174.973C72.2056 174.566 72.0889 174.106 72.0889 173.593C72.0889 173.079 72.2056 172.619 72.4389 172.213C72.6722 171.806 72.9922 171.489 73.3989 171.263C73.8056 171.036 74.2622 170.923 74.7689 170.923C75.2756 170.923 75.7322 171.036 76.1389 171.263C76.5456 171.489 76.8622 171.806 77.0889 172.213C77.3222 172.619 77.4389 173.079 77.4389 173.593C77.4389 174.106 77.3222 174.566 77.0889 174.973C76.8622 175.379 76.5456 175.699 76.1389 175.933C75.7322 176.159 75.2756 176.273 74.7689 176.273ZM74.7689 175.643C75.1422 175.643 75.4756 175.559 75.7689 175.393C76.0689 175.219 76.3022 174.976 76.4689 174.663C76.6356 174.349 76.7189 173.993 76.7189 173.593C76.7189 173.193 76.6356 172.836 76.4689 172.523C76.3022 172.209 76.0689 171.969 75.7689 171.803C75.4756 171.629 75.1422 171.543 74.7689 171.543C74.3956 171.543 74.0589 171.629 73.7589 171.803C73.4656 171.969 73.2322 172.209 73.0589 172.523C72.8922 172.836 72.8089 173.193 72.8089 173.593C72.8089 173.993 72.8922 174.349 73.0589 174.663C73.2322 174.976 73.4656 175.219 73.7589 175.393C74.0589 175.559 74.3956 175.643 74.7689 175.643ZM79.5684 171.993C79.7351 171.639 79.9818 171.373 80.3084 171.193C80.6418 171.013 81.0518 170.923 81.5384 170.923V171.613L81.3684 171.603C80.8151 171.603 80.3818 171.773 80.0684 172.113C79.7551 172.453 79.5984 172.929 79.5984 173.543V176.223H78.8884V170.963H79.5684V171.993ZM89.384 170.923C90.044 170.923 90.5607 171.113 90.934 171.493C91.314 171.873 91.504 172.433 91.504 173.173V176.223H90.794V173.243C90.794 172.696 90.6607 172.279 90.394 171.993C90.134 171.706 89.764 171.563 89.284 171.563C88.7373 171.563 88.3073 171.733 87.994 172.073C87.6807 172.406 87.524 172.869 87.524 173.463V176.223H86.814V173.243C86.814 172.696 86.6807 172.279 86.414 171.993C86.154 171.706 85.7807 171.563 85.294 171.563C84.754 171.563 84.324 171.733 84.004 172.073C83.6907 172.406 83.534 172.869 83.534 173.463V176.223H82.824V170.963H83.504V171.923C83.6907 171.603 83.9507 171.356 84.284 171.183C84.6173 171.009 85.0007 170.923 85.434 170.923C85.874 170.923 86.254 171.016 86.574 171.203C86.9007 171.389 87.144 171.666 87.304 172.033C87.4973 171.686 87.774 171.416 88.134 171.223C88.5007 171.023 88.9173 170.923 89.384 170.923ZM95.2695 170.923C95.9561 170.923 96.4828 171.096 96.8495 171.443C97.2161 171.783 97.3995 172.289 97.3995 172.963V176.223H96.7195V175.403C96.5595 175.676 96.3228 175.889 96.0095 176.043C95.7028 176.196 95.3361 176.273 94.9095 176.273C94.3228 176.273 93.8561 176.133 93.5095 175.853C93.1628 175.573 92.9895 175.203 92.9895 174.743C92.9895 174.296 93.1495 173.936 93.4695 173.663C93.7961 173.389 94.3128 173.253 95.0195 173.253H96.6895V172.933C96.6895 172.479 96.5628 172.136 96.3095 171.903C96.0561 171.663 95.6861 171.543 95.1995 171.543C94.8661 171.543 94.5461 171.599 94.2395 171.713C93.9328 171.819 93.6695 171.969 93.4495 172.163L93.1295 171.633C93.3961 171.406 93.7161 171.233 94.0895 171.113C94.4628 170.986 94.8561 170.923 95.2695 170.923ZM95.0195 175.713C95.4195 175.713 95.7628 175.623 96.0495 175.443C96.3361 175.256 96.5495 174.989 96.6895 174.643V173.783H95.0395C94.1395 173.783 93.6895 174.096 93.6895 174.723C93.6895 175.029 93.8061 175.273 94.0395 175.453C94.2728 175.626 94.5995 175.713 95.0195 175.713ZM99.3279 168.803H100.038V176.223H99.3279V168.803ZM106.471 170.923C107.157 170.923 107.684 171.096 108.051 171.443C108.417 171.783 108.601 172.289 108.601 172.963V176.223H107.921V175.403C107.761 175.676 107.524 175.889 107.211 176.043C106.904 176.196 106.537 176.273 106.111 176.273C105.524 176.273 105.057 176.133 104.711 175.853C104.364 175.573 104.191 175.203 104.191 174.743C104.191 174.296 104.351 173.936 104.671 173.663C104.997 173.389 105.514 173.253 106.221 173.253H107.891V172.933C107.891 172.479 107.764 172.136 107.511 171.903C107.257 171.663 106.887 171.543 106.401 171.543C106.067 171.543 105.747 171.599 105.441 171.713C105.134 171.819 104.871 171.969 104.651 172.163L104.331 171.633C104.597 171.406 104.917 171.233 105.291 171.113C105.664 170.986 106.057 170.923 106.471 170.923ZM106.221 175.713C106.621 175.713 106.964 175.623 107.251 175.443C107.537 175.256 107.751 174.989 107.891 174.643V173.783H106.241C105.341 173.783 104.891 174.096 104.891 174.723C104.891 175.029 105.007 175.273 105.241 175.453C105.474 175.626 105.801 175.713 106.221 175.713ZM113.209 170.923C113.869 170.923 114.392 171.116 114.779 171.503C115.172 171.883 115.369 172.439 115.369 173.173V176.223H114.659V173.243C114.659 172.696 114.522 172.279 114.249 171.993C113.976 171.706 113.586 171.563 113.079 171.563C112.512 171.563 112.062 171.733 111.729 172.073C111.402 172.406 111.239 172.869 111.239 173.463V176.223H110.529V170.963H111.209V171.933C111.402 171.613 111.669 171.366 112.009 171.193C112.356 171.013 112.756 170.923 113.209 170.923ZM122.116 168.803V176.223H121.436V175.183C121.223 175.536 120.94 175.806 120.586 175.993C120.24 176.179 119.846 176.273 119.406 176.273C118.913 176.273 118.466 176.159 118.066 175.933C117.666 175.706 117.353 175.389 117.126 174.983C116.9 174.576 116.786 174.113 116.786 173.593C116.786 173.073 116.9 172.609 117.126 172.203C117.353 171.796 117.666 171.483 118.066 171.263C118.466 171.036 118.913 170.923 119.406 170.923C119.833 170.923 120.216 171.013 120.556 171.193C120.903 171.366 121.186 171.623 121.406 171.963V168.803H122.116ZM119.466 175.643C119.833 175.643 120.163 175.559 120.456 175.393C120.756 175.219 120.99 174.976 121.156 174.663C121.33 174.349 121.416 173.993 121.416 173.593C121.416 173.193 121.33 172.836 121.156 172.523C120.99 172.209 120.756 171.969 120.456 171.803C120.163 171.629 119.833 171.543 119.466 171.543C119.093 171.543 118.756 171.629 118.456 171.803C118.163 171.969 117.93 172.209 117.756 172.523C117.59 172.836 117.506 173.193 117.506 173.593C117.506 173.993 117.59 174.349 117.756 174.663C117.93 174.976 118.163 175.219 118.456 175.393C118.756 175.559 119.093 175.643 119.466 175.643ZM131.911 175.583V176.223H126.171V175.713L130.811 169.863H126.241V169.223H131.791V169.733L127.161 175.583H131.911ZM135.544 172.933L134.114 174.383V176.223H133.374V169.223H134.114V173.453L138.224 169.223H139.074L136.044 172.393L139.284 176.223H138.404L135.544 172.933ZM144.361 176.273C143.934 176.273 143.524 176.213 143.131 176.093C142.744 175.966 142.441 175.809 142.221 175.623L142.541 175.063C142.761 175.236 143.038 175.379 143.371 175.493C143.704 175.599 144.051 175.653 144.411 175.653C144.891 175.653 145.244 175.579 145.471 175.433C145.704 175.279 145.821 175.066 145.821 174.793C145.821 174.599 145.758 174.449 145.631 174.343C145.504 174.229 145.344 174.146 145.151 174.093C144.958 174.033 144.701 173.976 144.381 173.923C143.954 173.843 143.611 173.763 143.351 173.683C143.091 173.596 142.868 173.453 142.681 173.253C142.501 173.053 142.411 172.776 142.411 172.423C142.411 171.983 142.594 171.623 142.961 171.343C143.328 171.063 143.838 170.923 144.491 170.923C144.831 170.923 145.171 170.969 145.511 171.063C145.851 171.149 146.131 171.266 146.351 171.413L146.041 171.983C145.608 171.683 145.091 171.533 144.491 171.533C144.038 171.533 143.694 171.613 143.461 171.773C143.234 171.933 143.121 172.143 143.121 172.403C143.121 172.603 143.184 172.763 143.311 172.883C143.444 173.003 143.608 173.093 143.801 173.153C143.994 173.206 144.261 173.263 144.601 173.323C145.021 173.403 145.358 173.483 145.611 173.563C145.864 173.643 146.081 173.779 146.261 173.973C146.441 174.166 146.531 174.433 146.531 174.773C146.531 175.233 146.338 175.599 145.951 175.873C145.571 176.139 145.041 176.273 144.361 176.273ZM154.404 170.923C155.064 170.923 155.58 171.113 155.954 171.493C156.334 171.873 156.524 172.433 156.524 173.173V176.223H155.814V173.243C155.814 172.696 155.68 172.279 155.414 171.993C155.154 171.706 154.784 171.563 154.304 171.563C153.757 171.563 153.327 171.733 153.014 172.073C152.7 172.406 152.544 172.869 152.544 173.463V176.223H151.834V173.243C151.834 172.696 151.7 172.279 151.434 171.993C151.174 171.706 150.8 171.563 150.314 171.563C149.774 171.563 149.344 171.733 149.024 172.073C148.71 172.406 148.554 172.869 148.554 173.463V176.223H147.844V170.963H148.524V171.923C148.71 171.603 148.97 171.356 149.304 171.183C149.637 171.009 150.02 170.923 150.454 170.923C150.894 170.923 151.274 171.016 151.594 171.203C151.92 171.389 152.164 171.666 152.324 172.033C152.517 171.686 152.794 171.416 153.154 171.223C153.52 171.023 153.937 170.923 154.404 170.923ZM160.289 170.923C160.976 170.923 161.502 171.096 161.869 171.443C162.236 171.783 162.419 172.289 162.419 172.963V176.223H161.739V175.403C161.579 175.676 161.342 175.889 161.029 176.043C160.722 176.196 160.356 176.273 159.929 176.273C159.342 176.273 158.876 176.133 158.529 175.853C158.182 175.573 158.009 175.203 158.009 174.743C158.009 174.296 158.169 173.936 158.489 173.663C158.816 173.389 159.332 173.253 160.039 173.253H161.709V172.933C161.709 172.479 161.582 172.136 161.329 171.903C161.076 171.663 160.706 171.543 160.219 171.543C159.886 171.543 159.566 171.599 159.259 171.713C158.952 171.819 158.689 171.969 158.469 172.163L158.149 171.633C158.416 171.406 158.736 171.233 159.109 171.113C159.482 170.986 159.876 170.923 160.289 170.923ZM160.039 175.713C160.439 175.713 160.782 175.623 161.069 175.443C161.356 175.256 161.569 174.989 161.709 174.643V173.783H160.059C159.159 173.783 158.709 174.096 158.709 174.723C158.709 175.029 158.826 175.273 159.059 175.453C159.292 175.626 159.619 175.713 160.039 175.713ZM165.027 171.993C165.194 171.639 165.441 171.373 165.767 171.193C166.101 171.013 166.511 170.923 166.997 170.923V171.613L166.827 171.603C166.274 171.603 165.841 171.773 165.527 172.113C165.214 172.453 165.057 172.929 165.057 173.543V176.223H164.347V170.963H165.027V171.993ZM171.278 175.903C171.144 176.023 170.978 176.116 170.778 176.183C170.584 176.243 170.381 176.273 170.168 176.273C169.674 176.273 169.294 176.139 169.028 175.873C168.761 175.606 168.628 175.229 168.628 174.743V171.563H167.688V170.963H168.628V169.813H169.338V170.963H170.938V171.563H169.338V174.703C169.338 175.016 169.414 175.256 169.568 175.423C169.728 175.583 169.954 175.663 170.248 175.663C170.394 175.663 170.534 175.639 170.668 175.593C170.808 175.546 170.928 175.479 171.028 175.393L171.278 175.903ZM177.367 176.273C176.847 176.273 176.381 176.159 175.967 175.933C175.561 175.706 175.241 175.389 175.007 174.983C174.774 174.569 174.657 174.106 174.657 173.593C174.657 173.079 174.774 172.619 175.007 172.213C175.241 171.806 175.561 171.489 175.967 171.263C176.381 171.036 176.847 170.923 177.367 170.923C177.821 170.923 178.224 171.013 178.577 171.193C178.937 171.366 179.221 171.623 179.427 171.963L178.897 172.323C178.724 172.063 178.504 171.869 178.237 171.743C177.971 171.609 177.681 171.543 177.367 171.543C176.987 171.543 176.644 171.629 176.337 171.803C176.037 171.969 175.801 172.209 175.627 172.523C175.461 172.836 175.377 173.193 175.377 173.593C175.377 173.999 175.461 174.359 175.627 174.673C175.801 174.979 176.037 175.219 176.337 175.393C176.644 175.559 176.987 175.643 177.367 175.643C177.681 175.643 177.971 175.579 178.237 175.453C178.504 175.326 178.724 175.133 178.897 174.873L179.427 175.233C179.221 175.573 178.937 175.833 178.577 176.013C178.217 176.186 177.814 176.273 177.367 176.273ZM182.884 176.273C182.377 176.273 181.921 176.159 181.514 175.933C181.107 175.699 180.787 175.379 180.554 174.973C180.321 174.566 180.204 174.106 180.204 173.593C180.204 173.079 180.321 172.619 180.554 172.213C180.787 171.806 181.107 171.489 181.514 171.263C181.921 171.036 182.377 170.923 182.884 170.923C183.391 170.923 183.847 171.036 184.254 171.263C184.661 171.489 184.977 171.806 185.204 172.213C185.437 172.619 185.554 173.079 185.554 173.593C185.554 174.106 185.437 174.566 185.204 174.973C184.977 175.379 184.661 175.699 184.254 175.933C183.847 176.159 183.391 176.273 182.884 176.273ZM182.884 175.643C183.257 175.643 183.591 175.559 183.884 175.393C184.184 175.219 184.417 174.976 184.584 174.663C184.751 174.349 184.834 173.993 184.834 173.593C184.834 173.193 184.751 172.836 184.584 172.523C184.417 172.209 184.184 171.969 183.884 171.803C183.591 171.629 183.257 171.543 182.884 171.543C182.511 171.543 182.174 171.629 181.874 171.803C181.581 171.969 181.347 172.209 181.174 172.523C181.007 172.836 180.924 173.193 180.924 173.593C180.924 173.993 181.007 174.349 181.174 174.663C181.347 174.976 181.581 175.219 181.874 175.393C182.174 175.559 182.511 175.643 182.884 175.643ZM189.684 170.923C190.344 170.923 190.867 171.116 191.254 171.503C191.647 171.883 191.844 172.439 191.844 173.173V176.223H191.134V173.243C191.134 172.696 190.997 172.279 190.724 171.993C190.45 171.706 190.06 171.563 189.554 171.563C188.987 171.563 188.537 171.733 188.204 172.073C187.877 172.406 187.714 172.869 187.714 173.463V176.223H187.004V170.963H187.684V171.933C187.877 171.613 188.144 171.366 188.484 171.193C188.83 171.013 189.23 170.923 189.684 170.923ZM196.541 175.903C196.408 176.023 196.241 176.116 196.041 176.183C195.848 176.243 195.645 176.273 195.431 176.273C194.938 176.273 194.558 176.139 194.291 175.873C194.025 175.606 193.891 175.229 193.891 174.743V171.563H192.951V170.963H193.891V169.813H194.601V170.963H196.201V171.563H194.601V174.703C194.601 175.016 194.678 175.256 194.831 175.423C194.991 175.583 195.218 175.663 195.511 175.663C195.658 175.663 195.798 175.639 195.931 175.593C196.071 175.546 196.191 175.479 196.291 175.393L196.541 175.903ZM198.514 171.993C198.68 171.639 198.927 171.373 199.254 171.193C199.587 171.013 199.997 170.923 200.484 170.923V171.613L200.314 171.603C199.76 171.603 199.327 171.773 199.014 172.113C198.7 172.453 198.544 172.929 198.544 173.543V176.223H197.834V170.963H198.514V171.993ZM203.6 170.923C204.286 170.923 204.813 171.096 205.18 171.443C205.546 171.783 205.73 172.289 205.73 172.963V176.223H205.05V175.403C204.89 175.676 204.653 175.889 204.34 176.043C204.033 176.196 203.666 176.273 203.24 176.273C202.653 176.273 202.186 176.133 201.84 175.853C201.493 175.573 201.32 175.203 201.32 174.743C201.32 174.296 201.48 173.936 201.8 173.663C202.126 173.389 202.643 173.253 203.35 173.253H205.02V172.933C205.02 172.479 204.893 172.136 204.64 171.903C204.386 171.663 204.016 171.543 203.53 171.543C203.196 171.543 202.876 171.599 202.57 171.713C202.263 171.819 202 171.969 201.78 172.163L201.46 171.633C201.726 171.406 202.046 171.233 202.42 171.113C202.793 170.986 203.186 170.923 203.6 170.923ZM203.35 175.713C203.75 175.713 204.093 175.623 204.38 175.443C204.666 175.256 204.88 174.989 205.02 174.643V173.783H203.37C202.47 173.783 202.02 174.096 202.02 174.723C202.02 175.029 202.136 175.273 202.37 175.453C202.603 175.626 202.93 175.713 203.35 175.713ZM209.858 176.273C209.338 176.273 208.871 176.159 208.458 175.933C208.051 175.706 207.731 175.389 207.498 174.983C207.264 174.569 207.148 174.106 207.148 173.593C207.148 173.079 207.264 172.619 207.498 172.213C207.731 171.806 208.051 171.489 208.458 171.263C208.871 171.036 209.338 170.923 209.858 170.923C210.311 170.923 210.714 171.013 211.068 171.193C211.428 171.366 211.711 171.623 211.918 171.963L211.388 172.323C211.214 172.063 210.994 171.869 210.728 171.743C210.461 171.609 210.171 171.543 209.858 171.543C209.478 171.543 209.134 171.629 208.828 171.803C208.528 171.969 208.291 172.209 208.118 172.523C207.951 172.836 207.868 173.193 207.868 173.593C207.868 173.999 207.951 174.359 208.118 174.673C208.291 174.979 208.528 175.219 208.828 175.393C209.134 175.559 209.478 175.643 209.858 175.643C210.171 175.643 210.461 175.579 210.728 175.453C210.994 175.326 211.214 175.133 211.388 174.873L211.918 175.233C211.711 175.573 211.428 175.833 211.068 176.013C210.708 176.186 210.304 176.273 209.858 176.273ZM216.141 175.903C216.008 176.023 215.841 176.116 215.641 176.183C215.448 176.243 215.244 176.273 215.031 176.273C214.538 176.273 214.158 176.139 213.891 175.873C213.624 175.606 213.491 175.229 213.491 174.743V171.563H212.551V170.963H213.491V169.813H214.201V170.963H215.801V171.563H214.201V174.703C214.201 175.016 214.278 175.256 214.431 175.423C214.591 175.583 214.818 175.663 215.111 175.663C215.258 175.663 215.398 175.639 215.531 175.593C215.671 175.546 215.791 175.479 215.891 175.393L216.141 175.903ZM218.843 176.273C218.417 176.273 218.007 176.213 217.613 176.093C217.227 175.966 216.923 175.809 216.703 175.623L217.023 175.063C217.243 175.236 217.52 175.379 217.853 175.493C218.187 175.599 218.533 175.653 218.893 175.653C219.373 175.653 219.727 175.579 219.953 175.433C220.187 175.279 220.303 175.066 220.303 174.793C220.303 174.599 220.24 174.449 220.113 174.343C219.987 174.229 219.827 174.146 219.633 174.093C219.44 174.033 219.183 173.976 218.863 173.923C218.437 173.843 218.093 173.763 217.833 173.683C217.573 173.596 217.35 173.453 217.163 173.253C216.983 173.053 216.893 172.776 216.893 172.423C216.893 171.983 217.077 171.623 217.443 171.343C217.81 171.063 218.32 170.923 218.973 170.923C219.313 170.923 219.653 170.969 219.993 171.063C220.333 171.149 220.613 171.266 220.833 171.413L220.523 171.983C220.09 171.683 219.573 171.533 218.973 171.533C218.52 171.533 218.177 171.613 217.943 171.773C217.717 171.933 217.603 172.143 217.603 172.403C217.603 172.603 217.667 172.763 217.793 172.883C217.927 173.003 218.09 173.093 218.283 173.153C218.477 173.206 218.743 173.263 219.083 173.323C219.503 173.403 219.84 173.483 220.093 173.563C220.347 173.643 220.563 173.779 220.743 173.973C220.923 174.166 221.013 174.433 221.013 174.773C221.013 175.233 220.82 175.599 220.433 175.873C220.053 176.139 219.523 176.273 218.843 176.273ZM227.093 176.273C226.586 176.273 226.13 176.159 225.723 175.933C225.316 175.699 224.996 175.379 224.763 174.973C224.53 174.566 224.413 174.106 224.413 173.593C224.413 173.079 224.53 172.619 224.763 172.213C224.996 171.806 225.316 171.489 225.723 171.263C226.13 171.036 226.586 170.923 227.093 170.923C227.6 170.923 228.056 171.036 228.463 171.263C228.87 171.489 229.186 171.806 229.413 172.213C229.646 172.619 229.763 173.079 229.763 173.593C229.763 174.106 229.646 174.566 229.413 174.973C229.186 175.379 228.87 175.699 228.463 175.933C228.056 176.159 227.6 176.273 227.093 176.273ZM227.093 175.643C227.466 175.643 227.8 175.559 228.093 175.393C228.393 175.219 228.626 174.976 228.793 174.663C228.96 174.349 229.043 173.993 229.043 173.593C229.043 173.193 228.96 172.836 228.793 172.523C228.626 172.209 228.393 171.969 228.093 171.803C227.8 171.629 227.466 171.543 227.093 171.543C226.72 171.543 226.383 171.629 226.083 171.803C225.79 171.969 225.556 172.209 225.383 172.523C225.216 172.836 225.133 173.193 225.133 173.593C225.133 173.993 225.216 174.349 225.383 174.663C225.556 174.976 225.79 175.219 226.083 175.393C226.383 175.559 226.72 175.643 227.093 175.643ZM233.893 170.923C234.553 170.923 235.076 171.116 235.463 171.503C235.856 171.883 236.053 172.439 236.053 173.173V176.223H235.343V173.243C235.343 172.696 235.206 172.279 234.933 171.993C234.659 171.706 234.269 171.563 233.763 171.563C233.196 171.563 232.746 171.733 232.413 172.073C232.086 172.406 231.923 172.869 231.923 173.463V176.223H231.213V170.963H231.893V171.933C232.086 171.613 232.353 171.366 232.693 171.193C233.039 171.013 233.439 170.923 233.893 170.923ZM243.367 169.223C244.261 169.223 244.961 169.436 245.467 169.863C245.974 170.289 246.227 170.876 246.227 171.623C246.227 172.369 245.974 172.956 245.467 173.383C244.961 173.803 244.261 174.013 243.367 174.013H241.487V176.223H240.747V169.223H243.367ZM243.347 173.363C244.041 173.363 244.571 173.213 244.937 172.913C245.304 172.606 245.487 172.176 245.487 171.623C245.487 171.056 245.304 170.623 244.937 170.323C244.571 170.016 244.041 169.863 243.347 169.863H241.487V173.363H243.347ZM252.238 172.613C252.698 172.713 253.051 172.913 253.298 173.213C253.551 173.506 253.678 173.886 253.678 174.353C253.678 174.953 253.454 175.416 253.008 175.743C252.568 176.063 251.914 176.223 251.048 176.223H247.828V169.223H250.848C251.628 169.223 252.231 169.379 252.658 169.693C253.091 170.006 253.308 170.449 253.308 171.023C253.308 171.409 253.211 171.739 253.018 172.013C252.831 172.279 252.571 172.479 252.238 172.613ZM248.568 169.833V172.373H250.798C251.364 172.373 251.801 172.266 252.108 172.053C252.414 171.833 252.567 171.516 252.567 171.103C252.567 170.689 252.414 170.376 252.108 170.163C251.801 169.943 251.364 169.833 250.798 169.833H248.568ZM251.038 175.613C251.664 175.613 252.138 175.506 252.458 175.293C252.778 175.079 252.938 174.746 252.938 174.293C252.938 173.419 252.304 172.983 251.038 172.983H248.568V175.613H251.038ZM258.407 176.283C257.713 176.283 257.087 176.129 256.527 175.823C255.973 175.516 255.537 175.093 255.217 174.553C254.903 174.006 254.747 173.396 254.747 172.723C254.747 172.049 254.903 171.443 255.217 170.903C255.537 170.356 255.977 169.929 256.537 169.623C257.097 169.316 257.723 169.163 258.417 169.163C258.937 169.163 259.417 169.249 259.857 169.423C260.297 169.596 260.67 169.849 260.977 170.183L260.507 170.653C259.96 170.099 259.27 169.823 258.437 169.823C257.883 169.823 257.38 169.949 256.927 170.203C256.473 170.456 256.117 170.803 255.857 171.243C255.603 171.683 255.477 172.176 255.477 172.723C255.477 173.269 255.603 173.763 255.857 174.203C256.117 174.643 256.473 174.989 256.927 175.243C257.38 175.496 257.883 175.623 258.437 175.623C259.277 175.623 259.967 175.343 260.507 174.783L260.977 175.253C260.67 175.586 260.293 175.843 259.847 176.023C259.407 176.196 258.927 176.283 258.407 176.283Z" fill="#302C60"/>
<rect x="203.288" y="32.2364" width="31.0586" height="38.1437" fill="#E0E7F5" stroke="#302C60" stroke-width="2.00543"/>
<line x1="209.371" y1="37.9065" x2="228.265" y2="37.9065" stroke="#302C60" stroke-width="2.00543"/>
<line x1="209.371" y1="43.8108" x2="228.265" y2="43.8108" stroke="#302C60" stroke-width="2.00543"/>
<line x1="209.371" y1="49.7151" x2="228.265" y2="49.7151" stroke="#302C60" stroke-width="2.00543"/>
<line x1="209.371" y1="56.2099" x2="228.265" y2="56.2099" stroke="#302C60" stroke-width="2.00543"/>
<line x1="209.371" y1="62.7046" x2="221.18" y2="62.7046" stroke="#302C60" stroke-width="2.00543"/>
<rect x="220.411" y="44.045" width="31.0586" height="38.1437" fill="#E0E7F5" stroke="#302C60" stroke-width="2.00543"/>
<line x1="226.493" y1="49.7151" x2="245.387" y2="49.7151" stroke="#302C60" stroke-width="2.00543"/>
<line x1="226.493" y1="55.6194" x2="245.387" y2="55.6194" stroke="#302C60" stroke-width="2.00543"/>
<line x1="226.493" y1="61.5236" x2="245.387" y2="61.5237" stroke="#302C60" stroke-width="2.00543"/>
<line x1="226.493" y1="68.0185" x2="245.387" y2="68.0185" stroke="#302C60" stroke-width="2.00543"/>
<line x1="226.493" y1="74.5132" x2="238.302" y2="74.5132" stroke="#302C60" stroke-width="2.00543"/>
<rect x="234.581" y="55.8535" width="31.0586" height="38.1437" fill="#E0E7F5" stroke="#302C60" stroke-width="2.00543"/>
<line x1="240.664" y1="61.5236" x2="259.558" y2="61.5237" stroke="#302C60" stroke-width="2.00543"/>
<line x1="240.664" y1="67.4279" x2="259.558" y2="67.4279" stroke="#302C60" stroke-width="2.00543"/>
<line x1="240.664" y1="73.3322" x2="259.558" y2="73.3322" stroke="#302C60" stroke-width="2.00543"/>
<line x1="240.664" y1="79.8269" x2="259.558" y2="79.8269" stroke="#302C60" stroke-width="2.00543"/>
<line x1="240.664" y1="86.3217" x2="252.472" y2="86.3217" stroke="#302C60" stroke-width="2.00543"/>
<defs>
<filter id="filter0_d_156_1490" x="0.913001" y="0.472656" width="310.174" height="211.908" filterUnits="userSpaceOnUse" color-interpolation-filters="sRGB">
<feFlood flood-opacity="0" result="BackgroundImageFix"/>
<feColorMatrix in="SourceAlpha" type="matrix" values="0 0 0 0 0 0 0 0 0 0 0 0 0 0 0 0 0 0 127 0" result="hardAlpha"/>
<feOffset dy="2.67391"/>
<feGaussianBlur stdDeviation="1.33696"/>
<feComposite in2="hardAlpha" operator="out"/>
<feColorMatrix type="matrix" values="0 0 0 0 0 0 0 0 0 0 0 0 0 0 0 0 0 0 0.1 0"/>
<feBlend mode="normal" in2="BackgroundImageFix" result="effect1_dropShadow_156_1490"/>
<feBlend mode="normal" in="SourceGraphic" in2="effect1_dropShadow_156_1490" result="shape"/>
</filter>
</defs>
</svg>
