<svg width="220" height="156" viewBox="0 0 220 156" fill="none" xmlns="http://www.w3.org/2000/svg">
<g filter="url(#filter0_d_285_1544)">
<path d="M2.61572 14.1994C2.61572 6.35727 8.97301 0 16.8151 0H203.8C211.642 0 218 6.35729 218 14.1994V137.661C218 145.503 211.642 151.861 203.8 151.861H16.8151C8.97304 151.861 2.61572 145.503 2.61572 137.661V14.1994Z" fill="#F8FAFF"/>
</g>
<path d="M31.14 25.6091C33.724 25.6091 35.6367 26.1791 36.878 27.3191C38.132 28.4465 38.759 30.0678 38.759 32.1831C38.759 33.5638 38.4487 34.7735 37.828 35.8121C37.22 36.8381 36.3333 37.6361 35.168 38.2061C34.0027 38.7761 32.603 39.0611 30.969 39.0611C30.7663 39.0611 30.5003 39.0548 30.171 39.0421C29.8417 39.0295 29.4933 39.0231 29.126 39.0231C28.7713 39.0105 28.4483 39.0041 28.157 39.0041C27.5617 39.0041 26.979 39.0105 26.409 39.0231C25.839 39.0231 25.383 39.0358 25.041 39.0611V38.6811C25.4337 38.6558 25.725 38.6051 25.915 38.5291C26.1177 38.4531 26.2507 38.3011 26.314 38.0731C26.39 37.8451 26.428 37.5031 26.428 37.0471V27.6231C26.428 27.1545 26.39 26.8125 26.314 26.5971C26.2507 26.3691 26.1177 26.2171 25.915 26.1411C25.725 26.0525 25.4337 26.0018 25.041 25.9891V25.6091C25.383 25.6218 25.839 25.6408 26.409 25.6661C26.979 25.6788 27.549 25.6788 28.119 25.6661C28.575 25.6535 29.0943 25.6408 29.677 25.6281C30.2597 25.6155 30.7473 25.6091 31.14 25.6091ZM31.273 25.9511C30.6903 25.9511 30.3103 26.0588 30.133 26.2741C29.9557 26.4895 29.867 26.9265 29.867 27.5851V37.0851C29.867 37.7438 29.9557 38.1808 30.133 38.3961C30.323 38.6115 30.7093 38.7191 31.292 38.7191C32.2547 38.7191 33.021 38.4721 33.591 37.9781C34.161 37.4715 34.5663 36.7368 34.807 35.7741C35.0603 34.8115 35.187 33.6398 35.187 32.2591C35.187 30.8405 35.054 29.6688 34.788 28.7441C34.522 27.8068 34.0977 27.1101 33.515 26.6541C32.945 26.1855 32.1977 25.9511 31.273 25.9511Z" fill="#302C60"/>
<path d="M44.9334 28.9531C45.8834 28.9531 46.7131 29.1241 47.4224 29.4661C48.1444 29.7955 48.7018 30.3401 49.0944 31.1001C49.4998 31.8601 49.7024 32.8735 49.7024 34.1401C49.7024 35.4068 49.4998 36.4201 49.0944 37.1801C48.7018 37.9401 48.1444 38.4911 47.4224 38.8331C46.7131 39.1625 45.8834 39.3271 44.9334 39.3271C43.9961 39.3271 43.1664 39.1625 42.4444 38.8331C41.7351 38.4911 41.1778 37.9401 40.7724 37.1801C40.3671 36.4201 40.1644 35.4068 40.1644 34.1401C40.1644 32.8735 40.3671 31.8601 40.7724 31.1001C41.1778 30.3401 41.7351 29.7955 42.4444 29.4661C43.1664 29.1241 43.9961 28.9531 44.9334 28.9531ZM44.9334 29.3331C44.4901 29.3331 44.1164 29.7131 43.8124 30.4731C43.5211 31.2205 43.3754 32.4428 43.3754 34.1401C43.3754 35.8375 43.5211 37.0661 43.8124 37.8261C44.1164 38.5735 44.4901 38.9471 44.9334 38.9471C45.3894 38.9471 45.7631 38.5735 46.0544 37.8261C46.3458 37.0661 46.4914 35.8375 46.4914 34.1401C46.4914 32.4428 46.3458 31.2205 46.0544 30.4731C45.7631 29.7131 45.3894 29.3331 44.9334 29.3331Z" fill="#302C60"/>
<path d="M63.9634 29.2191V29.6181C63.7227 29.6941 63.4884 29.8525 63.2604 30.0931C63.0451 30.3338 62.8361 30.7518 62.6334 31.3471L60.1064 38.6431L59.2704 40.4101L54.9194 30.6821C54.7041 30.2008 54.4951 29.9031 54.2924 29.7891C54.0897 29.6751 53.9187 29.6181 53.7794 29.6181V29.2191C54.2481 29.2571 54.7294 29.2888 55.2234 29.3141C55.7174 29.3268 56.1861 29.3331 56.6294 29.3331C57.1867 29.3331 57.6807 29.3205 58.1114 29.2951C58.5421 29.2698 58.9474 29.2445 59.3274 29.2191V29.6181C59.0867 29.6181 58.8587 29.6308 58.6434 29.6561C58.4281 29.6815 58.2761 29.7575 58.1874 29.8841C58.1114 29.9981 58.1367 30.2071 58.2634 30.5111L60.6764 36.2871L60.4864 36.4201L61.6454 33.0571C61.9114 32.2845 62.0254 31.6511 61.9874 31.1571C61.9494 30.6631 61.8037 30.2895 61.5504 30.0361C61.2971 29.7828 60.9741 29.6435 60.5814 29.6181V29.2191C60.7714 29.2318 60.9804 29.2445 61.2084 29.2571C61.4491 29.2698 61.6834 29.2825 61.9114 29.2951C62.1394 29.2951 62.3357 29.2951 62.5004 29.2951C62.7411 29.2951 63.0071 29.2888 63.2984 29.2761C63.5897 29.2635 63.8114 29.2445 63.9634 29.2191ZM60.1064 38.6431L59.3464 40.8091C59.2324 41.1258 59.1057 41.3981 58.9664 41.6261C58.8397 41.8541 58.6877 42.0378 58.5104 42.1771C58.3331 42.3165 58.1051 42.4241 57.8264 42.5001C57.5604 42.5888 57.2184 42.6331 56.8004 42.6331C56.4711 42.6331 56.1227 42.5761 55.7554 42.4621C55.4007 42.3608 55.0967 42.1898 54.8434 41.9491C54.6027 41.7085 54.4824 41.3855 54.4824 40.9801C54.4824 40.5621 54.6344 40.2265 54.9384 39.9731C55.2424 39.7325 55.6541 39.6121 56.1734 39.6121C56.6421 39.6121 57.0157 39.7198 57.2944 39.9351C57.5857 40.1505 57.7314 40.4735 57.7314 40.9041C57.7314 41.1701 57.6427 41.4298 57.4654 41.6831C57.2881 41.9365 57.0094 42.1265 56.6294 42.2531C56.7181 42.2658 56.8131 42.2721 56.9144 42.2721C57.0284 42.2848 57.1171 42.2911 57.1804 42.2911C57.5731 42.2911 57.9214 42.1645 58.2254 41.9111C58.5294 41.6705 58.7701 41.2905 58.9474 40.7711L59.6124 38.7571L60.1064 38.6431Z" fill="#302C60"/>
<path d="M69.1658 28.9531C70.1158 28.9531 70.9455 29.1241 71.6548 29.4661C72.3768 29.7955 72.9342 30.3401 73.3268 31.1001C73.7322 31.8601 73.9348 32.8735 73.9348 34.1401C73.9348 35.4068 73.7322 36.4201 73.3268 37.1801C72.9342 37.9401 72.3768 38.4911 71.6548 38.8331C70.9455 39.1625 70.1158 39.3271 69.1658 39.3271C68.2285 39.3271 67.3988 39.1625 66.6768 38.8331C65.9675 38.4911 65.4102 37.9401 65.0048 37.1801C64.5995 36.4201 64.3968 35.4068 64.3968 34.1401C64.3968 32.8735 64.5995 31.8601 65.0048 31.1001C65.4102 30.3401 65.9675 29.7955 66.6768 29.4661C67.3988 29.1241 68.2285 28.9531 69.1658 28.9531ZM69.1658 29.3331C68.7225 29.3331 68.3488 29.7131 68.0448 30.4731C67.7535 31.2205 67.6078 32.4428 67.6078 34.1401C67.6078 35.8375 67.7535 37.0661 68.0448 37.8261C68.3488 38.5735 68.7225 38.9471 69.1658 38.9471C69.6218 38.9471 69.9955 38.5735 70.2868 37.8261C70.5782 37.0661 70.7238 35.8375 70.7238 34.1401C70.7238 32.4428 70.5782 31.2205 70.2868 30.4731C69.9955 29.7131 69.6218 29.3331 69.1658 29.3331Z" fill="#302C60"/>
<path d="M84.7518 29.0101V36.9901C84.7518 37.5601 84.8341 37.9845 84.9988 38.2631C85.1761 38.5291 85.4738 38.6621 85.8918 38.6621V39.0611C85.4991 39.0231 85.1064 39.0041 84.7138 39.0041C84.1311 39.0041 83.5864 39.0231 83.0798 39.0611C82.5858 39.0991 82.1171 39.1688 81.6738 39.2701V37.7311C81.3698 38.3011 80.9518 38.7128 80.4198 38.9661C79.9004 39.2068 79.3051 39.3271 78.6338 39.3271C78.0764 39.3271 77.6268 39.2575 77.2848 39.1181C76.9554 38.9788 76.7021 38.7951 76.5248 38.5671C76.3221 38.3391 76.1764 38.0351 76.0878 37.6551C75.9991 37.2625 75.9548 36.7495 75.9548 36.1161V31.2901C75.9548 30.7201 75.8724 30.3021 75.7078 30.0361C75.5431 29.7575 75.2454 29.6181 74.8148 29.6181V29.2191C75.2201 29.2571 75.6128 29.2761 75.9928 29.2761C76.5754 29.2761 77.1201 29.2571 77.6268 29.2191C78.1334 29.1685 78.6021 29.0988 79.0328 29.0101V37.0281C79.0328 37.3195 79.0644 37.5665 79.1278 37.7691C79.1911 37.9718 79.2988 38.1301 79.4508 38.2441C79.6028 38.3581 79.8054 38.4151 80.0588 38.4151C80.3501 38.4151 80.6161 38.3391 80.8568 38.1871C81.0974 38.0351 81.2938 37.8261 81.4458 37.5601C81.5978 37.2815 81.6738 36.9711 81.6738 36.6291V31.2901C81.6738 30.7201 81.5914 30.3021 81.4268 30.0361C81.2621 29.7575 80.9644 29.6181 80.5338 29.6181V29.2191C80.9391 29.2571 81.3318 29.2761 81.7118 29.2761C82.2944 29.2761 82.8391 29.2571 83.3458 29.2191C83.8524 29.1685 84.3211 29.0988 84.7518 29.0101Z" fill="#302C60"/>
<path d="M98.2949 28.9531C98.8523 28.9531 99.2956 29.0228 99.6249 29.1621C99.9669 29.3015 100.227 29.4788 100.404 29.6941C100.607 29.9348 100.752 30.2451 100.841 30.6251C100.942 31.0051 100.993 31.5181 100.993 32.1641V37.2941C100.993 37.8261 101.075 38.1871 101.24 38.3771C101.417 38.5671 101.715 38.6621 102.133 38.6621V39.0611C101.88 39.0485 101.5 39.0358 100.993 39.0231C100.499 38.9978 100.018 38.9851 99.5489 38.9851C99.0296 38.9851 98.5293 38.9978 98.0479 39.0231C97.5666 39.0358 97.2056 39.0485 96.9649 39.0611V38.6621C97.3196 38.6621 97.5666 38.5671 97.7059 38.3771C97.8453 38.1871 97.9149 37.8261 97.9149 37.2941V31.2521C97.9149 30.9608 97.8833 30.7138 97.8199 30.5111C97.7566 30.2958 97.6489 30.1375 97.4969 30.0361C97.3449 29.9221 97.1296 29.8651 96.8509 29.8651C96.5596 29.8651 96.2873 29.9411 96.0339 30.0931C95.7933 30.2451 95.5969 30.4605 95.4449 30.7391C95.3056 31.0051 95.2359 31.3091 95.2359 31.6511V37.2941C95.2359 37.8261 95.3056 38.1871 95.4449 38.3771C95.5843 38.5671 95.8313 38.6621 96.1859 38.6621V39.0611C95.9453 39.0485 95.5969 39.0358 95.1409 39.0231C94.6849 38.9978 94.2226 38.9851 93.7539 38.9851C93.2346 38.9851 92.7153 38.9978 92.1959 39.0231C91.6766 39.0358 91.2839 39.0485 91.0179 39.0611V38.6621C91.4359 38.6621 91.7273 38.5671 91.8919 38.3771C92.0693 38.1871 92.1579 37.8261 92.1579 37.2941V31.2901C92.1579 30.7201 92.0756 30.3021 91.9109 30.0361C91.7463 29.7575 91.4486 29.6181 91.0179 29.6181V29.2191C91.4233 29.2571 91.8159 29.2761 92.1959 29.2761C92.7659 29.2761 93.3043 29.2571 93.8109 29.2191C94.3303 29.1685 94.8053 29.0988 95.2359 29.0101V30.5491C95.5399 29.9665 95.9516 29.5548 96.4709 29.3141C97.0029 29.0735 97.6109 28.9531 98.2949 28.9531Z" fill="#302C60"/>
<path d="M107.76 28.9531C108.874 28.9531 109.748 29.2825 110.382 29.9411C111.015 30.5998 111.332 31.6828 111.332 33.1901H105.233L105.214 32.8291H108.748C108.773 32.2085 108.748 31.6385 108.672 31.1191C108.596 30.5871 108.469 30.1628 108.292 29.8461C108.127 29.5295 107.905 29.3711 107.627 29.3711C107.247 29.3711 106.924 29.6435 106.658 30.1881C106.392 30.7328 106.227 31.6575 106.164 32.9621L106.24 33.0951C106.214 33.2345 106.202 33.3801 106.202 33.5321C106.202 33.6715 106.202 33.8235 106.202 33.9881C106.202 34.8621 106.316 35.5588 106.544 36.0781C106.784 36.5975 107.082 36.9648 107.437 37.1801C107.791 37.3955 108.159 37.5031 108.539 37.5031C108.754 37.5031 108.995 37.4715 109.261 37.4081C109.527 37.3448 109.805 37.2118 110.097 37.0091C110.388 36.8065 110.667 36.5088 110.933 36.1161L111.256 36.2301C111.116 36.7241 110.876 37.2118 110.534 37.6931C110.204 38.1618 109.78 38.5545 109.261 38.8711C108.741 39.1751 108.114 39.3271 107.38 39.3271C106.544 39.3271 105.796 39.1561 105.138 38.8141C104.479 38.4595 103.953 37.9085 103.561 37.1611C103.181 36.4011 102.991 35.4131 102.991 34.1971C102.991 32.9938 103.2 32.0058 103.618 31.2331C104.036 30.4605 104.606 29.8905 105.328 29.5231C106.05 29.1431 106.86 28.9531 107.76 28.9531Z" fill="#302C60"/>
<path d="M117.334 28.9531C118.448 28.9531 119.322 29.2825 119.956 29.9411C120.589 30.5998 120.906 31.6828 120.906 33.1901H114.807L114.788 32.8291H118.322C118.347 32.2085 118.322 31.6385 118.246 31.1191C118.17 30.5871 118.043 30.1628 117.866 29.8461C117.701 29.5295 117.479 29.3711 117.201 29.3711C116.821 29.3711 116.498 29.6435 116.232 30.1881C115.966 30.7328 115.801 31.6575 115.738 32.9621L115.814 33.0951C115.788 33.2345 115.776 33.3801 115.776 33.5321C115.776 33.6715 115.776 33.8235 115.776 33.9881C115.776 34.8621 115.89 35.5588 116.118 36.0781C116.358 36.5975 116.656 36.9648 117.011 37.1801C117.365 37.3955 117.733 37.5031 118.113 37.5031C118.328 37.5031 118.569 37.4715 118.835 37.4081C119.101 37.3448 119.379 37.2118 119.671 37.0091C119.962 36.8065 120.241 36.5088 120.507 36.1161L120.83 36.2301C120.69 36.7241 120.45 37.2118 120.108 37.6931C119.778 38.1618 119.354 38.5545 118.835 38.8711C118.315 39.1751 117.688 39.3271 116.954 39.3271C116.118 39.3271 115.37 39.1561 114.712 38.8141C114.053 38.4595 113.527 37.9085 113.135 37.1611C112.755 36.4011 112.565 35.4131 112.565 34.1971C112.565 32.9938 112.774 32.0058 113.192 31.2331C113.61 30.4605 114.18 29.8905 114.902 29.5231C115.624 29.1431 116.434 28.9531 117.334 28.9531Z" fill="#302C60"/>
<path d="M131.487 24.2031V36.9711C131.487 37.5411 131.569 37.9655 131.734 38.2441C131.911 38.5101 132.209 38.6431 132.627 38.6431V39.0421C132.234 39.0041 131.842 38.9851 131.449 38.9851C130.879 38.9851 130.341 39.0041 129.834 39.0421C129.327 39.0801 128.852 39.1498 128.409 39.2511V26.4831C128.409 25.9131 128.327 25.4951 128.162 25.2291C128.01 24.9505 127.712 24.8111 127.269 24.8111V24.4121C127.674 24.4501 128.067 24.4691 128.447 24.4691C129.03 24.4691 129.574 24.4501 130.081 24.4121C130.588 24.3615 131.056 24.2918 131.487 24.2031ZM126.376 28.9531C126.933 28.9531 127.415 29.0355 127.82 29.2001C128.225 29.3521 128.561 29.6118 128.827 29.9791L128.599 30.1691C128.434 29.9538 128.232 29.7955 127.991 29.6941C127.763 29.5928 127.522 29.5421 127.269 29.5421C126.661 29.5421 126.186 29.9221 125.844 30.6821C125.515 31.4295 125.35 32.5821 125.35 34.1401C125.35 35.2295 125.413 36.0908 125.54 36.7241C125.679 37.3448 125.863 37.7818 126.091 38.0351C126.332 38.2885 126.598 38.4151 126.889 38.4151C127.282 38.4151 127.63 38.2695 127.934 37.9781C128.251 37.6741 128.415 37.2751 128.428 36.7811L128.485 37.5791C128.257 38.1618 127.94 38.5988 127.535 38.8901C127.142 39.1815 126.636 39.3271 126.015 39.3271C125.28 39.3271 124.615 39.1435 124.02 38.7761C123.437 38.4088 122.975 37.8451 122.633 37.0851C122.304 36.3125 122.139 35.3118 122.139 34.0831C122.139 32.9305 122.316 31.9805 122.671 31.2331C123.038 30.4731 123.539 29.9031 124.172 29.5231C124.818 29.1431 125.553 28.9531 126.376 28.9531Z" fill="#302C60"/>
<path d="M28.746 48.9531C29.3033 48.9531 29.7847 49.0165 30.19 49.1431C30.5953 49.2698 30.893 49.3901 31.083 49.5041C31.5263 49.7828 31.7923 49.6055 31.881 48.9721H32.28C32.2547 49.3395 32.2357 49.7828 32.223 50.3021C32.2103 50.8088 32.204 51.4928 32.204 52.3541H31.805C31.7543 51.8855 31.6403 51.4231 31.463 50.9671C31.2983 50.5111 31.0513 50.1375 30.722 49.8461C30.3927 49.5421 29.962 49.3901 29.43 49.3901C29.088 49.3901 28.7967 49.4915 28.556 49.6941C28.328 49.8968 28.214 50.1755 28.214 50.5301C28.214 50.9101 28.328 51.2458 28.556 51.5371C28.784 51.8285 29.0753 52.1071 29.43 52.3731C29.7973 52.6391 30.1647 52.9241 30.532 53.2281C30.9373 53.5321 31.2983 53.8425 31.615 54.1591C31.9443 54.4631 32.204 54.7988 32.394 55.1661C32.5967 55.5208 32.698 55.9515 32.698 56.4581C32.698 57.0281 32.527 57.5285 32.185 57.9591C31.843 58.3898 31.3933 58.7255 30.836 58.9661C30.2787 59.2068 29.658 59.3271 28.974 59.3271C28.556 59.3271 28.1887 59.2828 27.872 59.1941C27.568 59.1181 27.3147 59.0168 27.112 58.8901C26.922 58.8015 26.751 58.7255 26.599 58.6621C26.4597 58.5988 26.3203 58.5545 26.181 58.5291C26.0543 58.5165 25.9467 58.5735 25.858 58.7001C25.7693 58.8268 25.6997 58.9915 25.649 59.1941H25.25C25.2753 58.7888 25.2943 58.2948 25.307 57.7121C25.3197 57.1295 25.326 56.3568 25.326 55.3941H25.725C25.801 56.0781 25.9403 56.6798 26.143 57.1991C26.3583 57.7185 26.6433 58.1301 26.998 58.4341C27.3527 58.7255 27.7707 58.8711 28.252 58.8711C28.4673 58.8711 28.6637 58.8331 28.841 58.7571C29.031 58.6685 29.183 58.5355 29.297 58.3581C29.4237 58.1808 29.487 57.9528 29.487 57.6741C29.487 57.1168 29.3097 56.6545 28.955 56.2871C28.6003 55.9071 28.1633 55.4955 27.644 55.0521C27.2387 54.7101 26.8587 54.3745 26.504 54.0451C26.162 53.7158 25.877 53.3548 25.649 52.9621C25.4337 52.5695 25.326 52.1261 25.326 51.6321C25.326 51.0621 25.4843 50.5808 25.801 50.1881C26.1303 49.7828 26.5547 49.4788 27.074 49.2761C27.5933 49.0608 28.1507 48.9531 28.746 48.9531Z" fill="#302C60"/>
<path d="M43.4862 49.0101V56.9901C43.4862 57.5601 43.5685 57.9845 43.7332 58.2631C43.9105 58.5291 44.2082 58.6621 44.6262 58.6621V59.0611C44.2335 59.0231 43.8408 59.0041 43.4482 59.0041C42.8655 59.0041 42.3208 59.0231 41.8142 59.0611C41.3202 59.0991 40.8515 59.1688 40.4082 59.2701V57.7311C40.1042 58.3011 39.6862 58.7128 39.1542 58.9661C38.6348 59.2068 38.0395 59.3271 37.3682 59.3271C36.8108 59.3271 36.3612 59.2575 36.0192 59.1181C35.6898 58.9788 35.4365 58.7951 35.2592 58.5671C35.0565 58.3391 34.9108 58.0351 34.8222 57.6551C34.7335 57.2625 34.6892 56.7495 34.6892 56.1161V51.2901C34.6892 50.7201 34.6068 50.3021 34.4422 50.0361C34.2775 49.7575 33.9798 49.6181 33.5492 49.6181V49.2191C33.9545 49.2571 34.3472 49.2761 34.7272 49.2761C35.3098 49.2761 35.8545 49.2571 36.3612 49.2191C36.8678 49.1685 37.3365 49.0988 37.7672 49.0101V57.0281C37.7672 57.3195 37.7988 57.5665 37.8622 57.7691C37.9255 57.9718 38.0332 58.1301 38.1852 58.2441C38.3372 58.3581 38.5398 58.4151 38.7932 58.4151C39.0845 58.4151 39.3505 58.3391 39.5912 58.1871C39.8318 58.0351 40.0282 57.8261 40.1802 57.5601C40.3322 57.2815 40.4082 56.9711 40.4082 56.6291V51.2901C40.4082 50.7201 40.3258 50.3021 40.1612 50.0361C39.9965 49.7575 39.6988 49.6181 39.2682 49.6181V49.2191C39.6735 49.2571 40.0662 49.2761 40.4462 49.2761C41.0288 49.2761 41.5735 49.2571 42.0802 49.2191C42.5868 49.1685 43.0555 49.0988 43.4862 49.0101Z" fill="#302C60"/>
<path d="M49.5711 49.0291V60.5811C49.5711 61.1891 49.7167 61.5945 50.0081 61.7971C50.3121 61.9998 50.7237 62.1011 51.2431 62.1011V62.5001C50.9011 62.4875 50.4261 62.4685 49.8181 62.4431C49.2101 62.4305 48.5704 62.4241 47.8991 62.4241C47.4177 62.4241 46.9364 62.4305 46.4551 62.4431C45.9864 62.4685 45.6317 62.4875 45.3911 62.5001V62.1011C45.7964 62.1011 46.0814 62.0061 46.2461 61.8161C46.4107 61.6388 46.4931 61.2905 46.4931 60.7711V51.3091C46.4931 50.7391 46.4107 50.3211 46.2461 50.0551C46.0814 49.7765 45.7837 49.6371 45.3531 49.6371V49.2381C45.7584 49.2761 46.1511 49.2951 46.5311 49.2951C47.1137 49.2951 47.6584 49.2761 48.1651 49.2381C48.6717 49.1875 49.1404 49.1178 49.5711 49.0291ZM52.4781 48.9531C53.1241 48.9531 53.6941 49.1305 54.1881 49.4851C54.6947 49.8271 55.0937 50.3528 55.3851 51.0621C55.6891 51.7588 55.8411 52.6391 55.8411 53.7031C55.8411 54.7038 55.7271 55.5588 55.4991 56.2681C55.2837 56.9775 54.9734 57.5601 54.5681 58.0161C54.1754 58.4721 53.7067 58.8078 53.1621 59.0231C52.6301 59.2258 52.0537 59.3271 51.4331 59.3271C50.9644 59.3271 50.5274 59.2575 50.1221 59.1181C49.7294 58.9915 49.4191 58.7825 49.1911 58.4911L49.3811 58.2441C49.4951 58.4215 49.6534 58.5545 49.8561 58.6431C50.0587 58.7318 50.2741 58.7761 50.5021 58.7761C51.0214 58.7761 51.4331 58.5988 51.7371 58.2441C52.0537 57.8768 52.2817 57.3448 52.4211 56.6481C52.5604 55.9515 52.6301 55.1028 52.6301 54.1021C52.6301 53.0001 52.5667 52.1451 52.4401 51.5371C52.3134 50.9165 52.1424 50.4795 51.9271 50.2261C51.7117 49.9728 51.4584 49.8461 51.1671 49.8461C50.7617 49.8461 50.3944 50.0045 50.0651 50.3211C49.7484 50.6251 49.5711 51.0431 49.5331 51.5751L49.4951 50.7771C49.7611 50.1691 50.1537 49.7131 50.6731 49.4091C51.1924 49.1051 51.7941 48.9531 52.4781 48.9531Z" fill="#302C60"/>
<path d="M61.0935 49.0291V60.5811C61.0935 61.1891 61.2392 61.5945 61.5305 61.7971C61.8345 61.9998 62.2462 62.1011 62.7655 62.1011V62.5001C62.4235 62.4875 61.9485 62.4685 61.3405 62.4431C60.7325 62.4305 60.0928 62.4241 59.4215 62.4241C58.9402 62.4241 58.4588 62.4305 57.9775 62.4431C57.5088 62.4685 57.1542 62.4875 56.9135 62.5001V62.1011C57.3188 62.1011 57.6038 62.0061 57.7685 61.8161C57.9332 61.6388 58.0155 61.2905 58.0155 60.7711V51.3091C58.0155 50.7391 57.9332 50.3211 57.7685 50.0551C57.6038 49.7765 57.3062 49.6371 56.8755 49.6371V49.2381C57.2808 49.2761 57.6735 49.2951 58.0535 49.2951C58.6362 49.2951 59.1808 49.2761 59.6875 49.2381C60.1942 49.1875 60.6628 49.1178 61.0935 49.0291ZM64.0005 48.9531C64.6465 48.9531 65.2165 49.1305 65.7105 49.4851C66.2172 49.8271 66.6162 50.3528 66.9075 51.0621C67.2115 51.7588 67.3635 52.6391 67.3635 53.7031C67.3635 54.7038 67.2495 55.5588 67.0215 56.2681C66.8062 56.9775 66.4958 57.5601 66.0905 58.0161C65.6978 58.4721 65.2292 58.8078 64.6845 59.0231C64.1525 59.2258 63.5762 59.3271 62.9555 59.3271C62.4869 59.3271 62.0498 59.2575 61.6445 59.1181C61.2518 58.9915 60.9415 58.7825 60.7135 58.4911L60.9035 58.2441C61.0175 58.4215 61.1758 58.5545 61.3785 58.6431C61.5812 58.7318 61.7965 58.7761 62.0245 58.7761C62.5439 58.7761 62.9555 58.5988 63.2595 58.2441C63.5762 57.8768 63.8042 57.3448 63.9435 56.6481C64.0828 55.9515 64.1525 55.1028 64.1525 54.1021C64.1525 53.0001 64.0892 52.1451 63.9625 51.5371C63.8359 50.9165 63.6648 50.4795 63.4495 50.2261C63.2342 49.9728 62.9808 49.8461 62.6895 49.8461C62.2842 49.8461 61.9169 50.0045 61.5875 50.3211C61.2709 50.6251 61.0935 51.0431 61.0555 51.5751L61.0175 50.7771C61.2835 50.1691 61.6762 49.7131 62.1955 49.4091C62.7148 49.1051 63.3165 48.9531 64.0005 48.9531Z" fill="#302C60"/>
<path d="M73.452 48.9531C74.402 48.9531 75.2316 49.1241 75.941 49.4661C76.663 49.7955 77.2203 50.3401 77.613 51.1001C78.0183 51.8601 78.221 52.8735 78.221 54.1401C78.221 55.4068 78.0183 56.4201 77.613 57.1801C77.2203 57.9401 76.663 58.4911 75.941 58.8331C75.2316 59.1625 74.402 59.3271 73.452 59.3271C72.5146 59.3271 71.685 59.1625 70.963 58.8331C70.2536 58.4911 69.6963 57.9401 69.291 57.1801C68.8856 56.4201 68.683 55.4068 68.683 54.1401C68.683 52.8735 68.8856 51.8601 69.291 51.1001C69.6963 50.3401 70.2536 49.7955 70.963 49.4661C71.685 49.1241 72.5146 48.9531 73.452 48.9531ZM73.452 49.3331C73.0086 49.3331 72.635 49.7131 72.331 50.4731C72.0396 51.2205 71.894 52.4428 71.894 54.1401C71.894 55.8375 72.0396 57.0661 72.331 57.8261C72.635 58.5735 73.0086 58.9471 73.452 58.9471C73.908 58.9471 74.2816 58.5735 74.573 57.8261C74.8643 57.0661 75.01 55.8375 75.01 54.1401C75.01 52.4428 74.8643 51.2205 74.573 50.4731C74.2816 49.7131 73.908 49.3331 73.452 49.3331Z" fill="#302C60"/>
<path d="M86.0359 48.9531C86.4666 48.9531 86.8086 49.0481 87.0619 49.2381C87.3152 49.4155 87.4989 49.6498 87.6129 49.9411C87.7269 50.2198 87.7839 50.4985 87.7839 50.7771C87.7839 51.2965 87.6319 51.7145 87.3279 52.0311C87.0366 52.3478 86.6502 52.5061 86.1689 52.5061C85.6622 52.5061 85.2759 52.3921 85.0099 52.1641C84.7439 51.9235 84.6109 51.6068 84.6109 51.2141C84.6109 50.8215 84.6932 50.4985 84.8579 50.2451C85.0352 49.9918 85.2506 49.7765 85.5039 49.5991C85.3139 49.5738 85.1302 49.5991 84.9529 49.6751C84.7502 49.7258 84.5602 49.8208 84.3829 49.9601C84.2056 50.0995 84.0536 50.2641 83.9269 50.4541C83.8002 50.6441 83.6989 50.8531 83.6229 51.0811C83.5596 51.2965 83.5279 51.5181 83.5279 51.7461V57.1041C83.5279 57.7121 83.6609 58.1238 83.9269 58.3391C84.2056 58.5545 84.6426 58.6621 85.2379 58.6621V59.0611C84.9466 59.0485 84.5159 59.0358 83.9459 59.0231C83.3759 58.9978 82.7869 58.9851 82.1789 58.9851C81.6342 58.9851 81.0832 58.9978 80.5259 59.0231C79.9812 59.0358 79.5759 59.0485 79.3099 59.0611V58.6621C79.7279 58.6621 80.0192 58.5671 80.1839 58.3771C80.3612 58.1871 80.4499 57.8261 80.4499 57.2941V51.2901C80.4499 50.7201 80.3676 50.3021 80.2029 50.0361C80.0382 49.7575 79.7406 49.6181 79.3099 49.6181V49.2191C79.7152 49.2571 80.1079 49.2761 80.4879 49.2761C81.0579 49.2761 81.5962 49.2571 82.1029 49.2191C82.6222 49.1685 83.0972 49.0988 83.5279 49.0101V50.5681C83.6799 50.2388 83.8762 49.9538 84.1169 49.7131C84.3702 49.4725 84.6552 49.2888 84.9719 49.1621C85.3012 49.0228 85.6559 48.9531 86.0359 48.9531Z" fill="#302C60"/>
<path d="M92.4319 46.1221V49.2191H94.4839V49.5991H92.4319V57.3701C92.4319 57.6868 92.4889 57.9148 92.6029 58.0541C92.7169 58.1808 92.8879 58.2441 93.1159 58.2441C93.3059 58.2441 93.5023 58.1808 93.7049 58.0541C93.9203 57.9275 94.1166 57.7121 94.2939 57.4081L94.5979 57.5981C94.3573 58.1175 94.0216 58.5355 93.5909 58.8521C93.1729 59.1688 92.6219 59.3271 91.9379 59.3271C91.5199 59.3271 91.1463 59.2701 90.8169 59.1561C90.5003 59.0548 90.2343 58.8965 90.0189 58.6811C89.7403 58.4025 89.5566 58.0605 89.4679 57.6551C89.3919 57.2371 89.3539 56.6988 89.3539 56.0401V49.5991H87.8339V49.2191H89.3539V46.8441C89.9493 46.8441 90.4939 46.7871 90.9879 46.6731C91.4946 46.5591 91.9759 46.3755 92.4319 46.1221Z" fill="#302C60"/>
<path d="M99.1691 44.2031C100.119 44.2031 100.949 44.3425 101.658 44.6211C102.367 44.8871 102.918 45.2798 103.311 45.7991C103.716 46.3058 103.919 46.9138 103.919 47.6231C103.919 48.3325 103.704 48.9658 103.273 49.5231C102.855 50.0805 102.266 50.5555 101.506 50.9481C100.759 51.3281 99.8847 51.6258 98.8841 51.8411V54.6151H98.5041V51.6701C99.1754 51.3535 99.6757 51.0051 100.005 50.6251C100.347 50.2451 100.575 49.8335 100.689 49.3901C100.803 48.9468 100.86 48.4781 100.86 47.9841C100.86 46.7808 100.651 45.9131 100.233 45.3811C99.8277 44.8491 99.2957 44.5831 98.6371 44.5831C98.2824 44.5831 97.9657 44.6211 97.6871 44.6971C97.4084 44.7731 97.1994 44.8745 97.0601 45.0011C97.4401 45.1405 97.7251 45.3368 97.9151 45.5901C98.1177 45.8308 98.2191 46.1475 98.2191 46.5401C98.2191 46.9581 98.0671 47.3128 97.7631 47.6041C97.4591 47.8828 97.0537 48.0221 96.5471 48.0221C96.1164 48.0221 95.7681 47.8828 95.5021 47.6041C95.2361 47.3128 95.1031 46.9771 95.1031 46.5971C95.1031 46.1791 95.2107 45.8371 95.4261 45.5711C95.6414 45.2925 95.9137 45.0581 96.2431 44.8681C96.5597 44.6908 96.9651 44.5388 97.4591 44.4121C97.9531 44.2728 98.5231 44.2031 99.1691 44.2031ZM98.7321 56.2301C99.2641 56.2301 99.6884 56.3631 100.005 56.6291C100.322 56.8951 100.48 57.2751 100.48 57.7691C100.48 58.2758 100.322 58.6621 100.005 58.9281C99.6884 59.1941 99.2641 59.3271 98.7321 59.3271C98.1747 59.3271 97.7441 59.1941 97.4401 58.9281C97.1361 58.6621 96.9841 58.2758 96.9841 57.7691C96.9841 57.2751 97.1361 56.8951 97.4401 56.6291C97.7441 56.3631 98.1747 56.2301 98.7321 56.2301Z" fill="#302C60"/>
<path d="M30.9643 100.322L29.2043 97.8472C29.0063 97.8692 28.8009 97.8802 28.5883 97.8802H26.5203V100.322H25.7063V92.6222H28.5883C29.5709 92.6222 30.3409 92.8568 30.8983 93.3262C31.4556 93.7955 31.7343 94.4408 31.7343 95.2622C31.7343 95.8635 31.5803 96.3732 31.2723 96.7912C30.9716 97.2018 30.5389 97.4988 29.9743 97.6822L31.8553 100.322H30.9643ZM28.5663 97.1872C29.3289 97.1872 29.9119 97.0185 30.3153 96.6812C30.7186 96.3438 30.9203 95.8708 30.9203 95.2622C30.9203 94.6388 30.7186 94.1622 30.3153 93.8322C29.9119 93.4948 29.3289 93.3262 28.5663 93.3262H26.5203V97.1872H28.5663Z" fill="#302C60"/>
<path d="M38.5285 97.6712H33.6885C33.7325 98.2725 33.9635 98.7602 34.3815 99.1342C34.7995 99.5008 35.3275 99.6842 35.9655 99.6842C36.3248 99.6842 36.6548 99.6218 36.9555 99.4972C37.2562 99.3652 37.5165 99.1745 37.7365 98.9252L38.1765 99.4312C37.9198 99.7392 37.5972 99.9738 37.2085 100.135C36.8272 100.296 36.4055 100.377 35.9435 100.377C35.3495 100.377 34.8215 100.252 34.3595 100.003C33.9048 99.7465 33.5492 99.3945 33.2925 98.9472C33.0358 98.4998 32.9075 97.9938 32.9075 97.4292C32.9075 96.8645 33.0285 96.3585 33.2705 95.9112C33.5198 95.4638 33.8572 95.1155 34.2825 94.8662C34.7152 94.6168 35.1992 94.4922 35.7345 94.4922C36.2698 94.4922 36.7502 94.6168 37.1755 94.8662C37.6008 95.1155 37.9345 95.4638 38.1765 95.9112C38.4185 96.3512 38.5395 96.8572 38.5395 97.4292L38.5285 97.6712ZM35.7345 95.1632C35.1772 95.1632 34.7078 95.3428 34.3265 95.7022C33.9525 96.0542 33.7398 96.5162 33.6885 97.0882H37.7915C37.7402 96.5162 37.5238 96.0542 37.1425 95.7022C36.7685 95.3428 36.2992 95.1632 35.7345 95.1632Z" fill="#302C60"/>
<path d="M41.992 94.4922C42.7474 94.4922 43.3267 94.6828 43.73 95.0642C44.1334 95.4382 44.335 95.9955 44.335 96.7362V100.322H43.587V99.4202C43.411 99.7208 43.1507 99.9555 42.806 100.124C42.4687 100.293 42.0654 100.377 41.596 100.377C40.9507 100.377 40.4374 100.223 40.056 99.9152C39.6747 99.6072 39.484 99.2002 39.484 98.6942C39.484 98.2028 39.66 97.8068 40.012 97.5062C40.3714 97.2055 40.9397 97.0552 41.717 97.0552H43.554V96.7032C43.554 96.2045 43.4147 95.8268 43.136 95.5702C42.8574 95.3062 42.4504 95.1742 41.915 95.1742C41.5484 95.1742 41.1964 95.2365 40.859 95.3612C40.5217 95.4785 40.232 95.6435 39.99 95.8562L39.638 95.2732C39.9314 95.0238 40.2834 94.8332 40.694 94.7012C41.1047 94.5618 41.5374 94.4922 41.992 94.4922ZM41.717 99.7612C42.157 99.7612 42.5347 99.6622 42.85 99.4642C43.1654 99.2588 43.4 98.9655 43.554 98.5842V97.6382H41.739C40.749 97.6382 40.254 97.9828 40.254 98.6722C40.254 99.0095 40.3824 99.2772 40.639 99.4752C40.8957 99.6658 41.255 99.7612 41.717 99.7612Z" fill="#302C60"/>
<path d="M48.8758 100.377C48.3038 100.377 47.7905 100.252 47.3358 100.003C46.8885 99.7538 46.5365 99.4055 46.2798 98.9582C46.0231 98.5035 45.8948 97.9938 45.8948 97.4292C45.8948 96.8645 46.0231 96.3585 46.2798 95.9112C46.5365 95.4638 46.8885 95.1155 47.3358 94.8662C47.7905 94.6168 48.3038 94.4922 48.8758 94.4922C49.3745 94.4922 49.8181 94.5912 50.2068 94.7892C50.6028 94.9798 50.9145 95.2622 51.1418 95.6362L50.5588 96.0322C50.3681 95.7462 50.1261 95.5335 49.8328 95.3942C49.5395 95.2475 49.2205 95.1742 48.8758 95.1742C48.4578 95.1742 48.0801 95.2695 47.7428 95.4602C47.4128 95.6435 47.1525 95.9075 46.9618 96.2522C46.7785 96.5968 46.6868 96.9892 46.6868 97.4292C46.6868 97.8765 46.7785 98.2725 46.9618 98.6172C47.1525 98.9545 47.4128 99.2185 47.7428 99.4092C48.0801 99.5925 48.4578 99.6842 48.8758 99.6842C49.2205 99.6842 49.5395 99.6145 49.8328 99.4752C50.1261 99.3358 50.3681 99.1232 50.5588 98.8372L51.1418 99.2332C50.9145 99.6072 50.6028 99.8932 50.2068 100.091C49.8108 100.282 49.3671 100.377 48.8758 100.377Z" fill="#302C60"/>
<path d="M55.5381 94.4922C56.2641 94.4922 56.8398 94.7048 57.2651 95.1302C57.6978 95.5482 57.9141 96.1605 57.9141 96.9672V100.322H57.1331V97.0442C57.1331 96.4428 56.9828 95.9845 56.6821 95.6692C56.3814 95.3538 55.9524 95.1962 55.3951 95.1962C54.7718 95.1962 54.2768 95.3832 53.9101 95.7572C53.5508 96.1238 53.3711 96.6335 53.3711 97.2862V100.322H52.5901V92.1602H53.3711V95.5482C53.5838 95.2108 53.8771 94.9505 54.2511 94.7672C54.6251 94.5838 55.0541 94.4922 55.5381 94.4922Z" fill="#302C60"/>
<path d="M65.2784 100.377C64.721 100.377 64.2187 100.252 63.7714 100.003C63.324 99.7465 62.972 99.3945 62.7154 98.9472C62.4587 98.4998 62.3304 97.9938 62.3304 97.4292C62.3304 96.8645 62.4587 96.3585 62.7154 95.9112C62.972 95.4638 63.324 95.1155 63.7714 94.8662C64.2187 94.6168 64.721 94.4922 65.2784 94.4922C65.8357 94.4922 66.338 94.6168 66.7854 94.8662C67.2327 95.1155 67.581 95.4638 67.8304 95.9112C68.087 96.3585 68.2154 96.8645 68.2154 97.4292C68.2154 97.9938 68.087 98.4998 67.8304 98.9472C67.581 99.3945 67.2327 99.7465 66.7854 100.003C66.338 100.252 65.8357 100.377 65.2784 100.377ZM65.2784 99.6842C65.689 99.6842 66.0557 99.5925 66.3784 99.4092C66.7084 99.2185 66.965 98.9508 67.1484 98.6062C67.3317 98.2615 67.4234 97.8692 67.4234 97.4292C67.4234 96.9892 67.3317 96.5968 67.1484 96.2522C66.965 95.9075 66.7084 95.6435 66.3784 95.4602C66.0557 95.2695 65.689 95.1742 65.2784 95.1742C64.8677 95.1742 64.4974 95.2695 64.1674 95.4602C63.8447 95.6435 63.588 95.9075 63.3974 96.2522C63.214 96.5968 63.1224 96.9892 63.1224 97.4292C63.1224 97.8692 63.214 98.2615 63.3974 98.6062C63.588 98.9508 63.8447 99.2185 64.1674 99.4092C64.4974 99.5925 64.8677 99.6842 65.2784 99.6842Z" fill="#302C60"/>
<path d="M75.0238 94.5362V100.322H74.2758V99.2662C74.0705 99.6182 73.7882 99.8932 73.4288 100.091C73.0695 100.282 72.6588 100.377 72.1968 100.377C71.4415 100.377 70.8438 100.168 70.4038 99.7502C69.9712 99.3248 69.7548 98.7052 69.7548 97.8912V94.5362H70.5358V97.8142C70.5358 98.4228 70.6862 98.8848 70.9868 99.2002C71.2875 99.5155 71.7165 99.6732 72.2738 99.6732C72.8825 99.6732 73.3628 99.4898 73.7148 99.1232C74.0668 98.7492 74.2428 98.2322 74.2428 97.5722V94.5362H75.0238Z" fill="#302C60"/>
<path d="M80.2582 99.9702C80.1115 100.102 79.9282 100.205 79.7082 100.278C79.4955 100.344 79.2719 100.377 79.0372 100.377C78.4945 100.377 78.0765 100.23 77.7832 99.9372C77.4899 99.6438 77.3432 99.2295 77.3432 98.6942V95.1962H76.3092V94.5362H77.3432V93.2712H78.1242V94.5362H79.8842V95.1962H78.1242V98.6502C78.1242 98.9948 78.2085 99.2588 78.3772 99.4422C78.5532 99.6182 78.8025 99.7062 79.1252 99.7062C79.2865 99.7062 79.4405 99.6805 79.5872 99.6292C79.7412 99.5778 79.8732 99.5045 79.9832 99.4092L80.2582 99.9702Z" fill="#302C60"/>
<path d="M89.4209 94.5362L86.8469 100.322H86.0439L83.4809 94.5362H84.2949L86.4619 99.4642L88.6509 94.5362H89.4209Z" fill="#302C60"/>
<path d="M90.5208 94.5362H91.3018V100.322H90.5208V94.5362ZM90.9168 93.2712C90.7554 93.2712 90.6198 93.2162 90.5098 93.1062C90.3998 92.9962 90.3448 92.8642 90.3448 92.7102C90.3448 92.5635 90.3998 92.4352 90.5098 92.3252C90.6198 92.2152 90.7554 92.1602 90.9168 92.1602C91.0781 92.1602 91.2138 92.2152 91.3238 92.3252C91.4338 92.4278 91.4888 92.5525 91.4888 92.6992C91.4888 92.8605 91.4338 92.9962 91.3238 93.1062C91.2138 93.2162 91.0781 93.2712 90.9168 93.2712Z" fill="#302C60"/>
<path d="M95.4989 94.4922C96.2542 94.4922 96.8335 94.6828 97.2369 95.0642C97.6402 95.4382 97.8419 95.9955 97.8419 96.7362V100.322H97.0939V99.4202C96.9179 99.7208 96.6575 99.9555 96.3129 100.124C95.9755 100.293 95.5722 100.377 95.1029 100.377C94.4575 100.377 93.9442 100.223 93.5629 99.9152C93.1815 99.6072 92.9909 99.2002 92.9909 98.6942C92.9909 98.2028 93.1669 97.8068 93.5189 97.5062C93.8782 97.2055 94.4465 97.0552 95.2239 97.0552H97.0609V96.7032C97.0609 96.2045 96.9215 95.8268 96.6429 95.5702C96.3642 95.3062 95.9572 95.1742 95.4219 95.1742C95.0552 95.1742 94.7032 95.2365 94.3659 95.3612C94.0285 95.4785 93.7389 95.6435 93.4969 95.8562L93.1449 95.2732C93.4382 95.0238 93.7902 94.8332 94.2009 94.7012C94.6115 94.5618 95.0442 94.4922 95.4989 94.4922ZM95.2239 99.7612C95.6639 99.7612 96.0415 99.6622 96.3569 99.4642C96.6722 99.2588 96.9069 98.9655 97.0609 98.5842V97.6382H95.2459C94.2559 97.6382 93.7609 97.9828 93.7609 98.6722C93.7609 99.0095 93.8892 99.2772 94.1459 99.4752C94.4025 99.6658 94.7619 99.7612 95.2239 99.7612Z" fill="#302C60"/>
<path d="M103.007 92.6222H106.142C106.956 92.6222 107.675 92.7872 108.298 93.1172C108.921 93.4398 109.405 93.8945 109.75 94.4812C110.095 95.0605 110.267 95.7242 110.267 96.4722C110.267 97.2202 110.095 97.8875 109.75 98.4742C109.405 99.0535 108.921 99.5082 108.298 99.8382C107.675 100.161 106.956 100.322 106.142 100.322H103.007V92.6222ZM106.098 99.6182C106.773 99.6182 107.363 99.4862 107.869 99.2222C108.375 98.9508 108.767 98.5805 109.046 98.1112C109.325 97.6345 109.464 97.0882 109.464 96.4722C109.464 95.8562 109.325 95.3135 109.046 94.8442C108.767 94.3675 108.375 93.9972 107.869 93.7332C107.363 93.4618 106.773 93.3262 106.098 93.3262H103.821V99.6182H106.098Z" fill="#302C60"/>
<path d="M111.93 94.5362H112.711V100.322H111.93V94.5362ZM112.326 93.2712C112.165 93.2712 112.029 93.2162 111.919 93.1062C111.809 92.9962 111.754 92.8642 111.754 92.7102C111.754 92.5635 111.809 92.4352 111.919 92.3252C112.029 92.2152 112.165 92.1602 112.326 92.1602C112.487 92.1602 112.623 92.2152 112.733 92.3252C112.843 92.4278 112.898 92.5525 112.898 92.6992C112.898 92.8605 112.843 92.9962 112.733 93.1062C112.623 93.2162 112.487 93.2712 112.326 93.2712Z" fill="#302C60"/>
<path d="M116.435 100.377C115.966 100.377 115.515 100.311 115.082 100.179C114.657 100.04 114.323 99.8675 114.081 99.6622L114.433 99.0462C114.675 99.2368 114.979 99.3945 115.346 99.5192C115.713 99.6365 116.094 99.6952 116.49 99.6952C117.018 99.6952 117.407 99.6145 117.656 99.4532C117.913 99.2845 118.041 99.0498 118.041 98.7492C118.041 98.5365 117.971 98.3715 117.832 98.2542C117.693 98.1295 117.517 98.0378 117.304 97.9792C117.091 97.9132 116.809 97.8508 116.457 97.7922C115.988 97.7042 115.61 97.6162 115.324 97.5282C115.038 97.4328 114.792 97.2752 114.587 97.0552C114.389 96.8352 114.29 96.5308 114.29 96.1422C114.29 95.6582 114.492 95.2622 114.895 94.9542C115.298 94.6462 115.859 94.4922 116.578 94.4922C116.952 94.4922 117.326 94.5435 117.7 94.6462C118.074 94.7415 118.382 94.8698 118.624 95.0312L118.283 95.6582C117.806 95.3282 117.238 95.1632 116.578 95.1632C116.079 95.1632 115.702 95.2512 115.445 95.4272C115.196 95.6032 115.071 95.8342 115.071 96.1202C115.071 96.3402 115.141 96.5162 115.28 96.6482C115.427 96.7802 115.606 96.8792 115.819 96.9452C116.032 97.0038 116.325 97.0662 116.699 97.1322C117.161 97.2202 117.531 97.3082 117.81 97.3962C118.089 97.4842 118.327 97.6345 118.525 97.8472C118.723 98.0598 118.822 98.3532 118.822 98.7272C118.822 99.2332 118.609 99.6365 118.184 99.9372C117.766 100.23 117.183 100.377 116.435 100.377Z" fill="#302C60"/>
<path d="M122.664 100.377C122.092 100.377 121.579 100.252 121.124 100.003C120.677 99.7538 120.325 99.4055 120.068 98.9582C119.811 98.5035 119.683 97.9938 119.683 97.4292C119.683 96.8645 119.811 96.3585 120.068 95.9112C120.325 95.4638 120.677 95.1155 121.124 94.8662C121.579 94.6168 122.092 94.4922 122.664 94.4922C123.163 94.4922 123.606 94.5912 123.995 94.7892C124.391 94.9798 124.703 95.2622 124.93 95.6362L124.347 96.0322C124.156 95.7462 123.914 95.5335 123.621 95.3942C123.328 95.2475 123.009 95.1742 122.664 95.1742C122.246 95.1742 121.868 95.2695 121.531 95.4602C121.201 95.6435 120.941 95.9075 120.75 96.2522C120.567 96.5968 120.475 96.9892 120.475 97.4292C120.475 97.8765 120.567 98.2725 120.75 98.6172C120.941 98.9545 121.201 99.2185 121.531 99.4092C121.868 99.5925 122.246 99.6842 122.664 99.6842C123.009 99.6842 123.328 99.6145 123.621 99.4752C123.914 99.3358 124.156 99.1232 124.347 98.8372L124.93 99.2332C124.703 99.6072 124.391 99.8932 123.995 100.091C123.599 100.282 123.155 100.377 122.664 100.377Z" fill="#302C60"/>
<path d="M128.732 100.377C128.175 100.377 127.673 100.252 127.225 100.003C126.778 99.7465 126.426 99.3945 126.169 98.9472C125.913 98.4998 125.784 97.9938 125.784 97.4292C125.784 96.8645 125.913 96.3585 126.169 95.9112C126.426 95.4638 126.778 95.1155 127.225 94.8662C127.673 94.6168 128.175 94.4922 128.732 94.4922C129.29 94.4922 129.792 94.6168 130.239 94.8662C130.687 95.1155 131.035 95.4638 131.284 95.9112C131.541 96.3585 131.669 96.8645 131.669 97.4292C131.669 97.9938 131.541 98.4998 131.284 98.9472C131.035 99.3945 130.687 99.7465 130.239 100.003C129.792 100.252 129.29 100.377 128.732 100.377ZM128.732 99.6842C129.143 99.6842 129.51 99.5925 129.832 99.4092C130.162 99.2185 130.419 98.9508 130.602 98.6062C130.786 98.2615 130.877 97.8692 130.877 97.4292C130.877 96.9892 130.786 96.5968 130.602 96.2522C130.419 95.9075 130.162 95.6435 129.832 95.4602C129.51 95.2695 129.143 95.1742 128.732 95.1742C128.322 95.1742 127.951 95.2695 127.621 95.4602C127.299 95.6435 127.042 95.9075 126.851 96.2522C126.668 96.5968 126.576 96.9892 126.576 97.4292C126.576 97.8692 126.668 98.2615 126.851 98.6062C127.042 98.9508 127.299 99.2185 127.621 99.4092C127.951 99.5925 128.322 99.6842 128.732 99.6842Z" fill="#302C60"/>
<path d="M134.012 95.6692C134.195 95.2805 134.467 94.9872 134.826 94.7892C135.193 94.5912 135.644 94.4922 136.179 94.4922V95.2512L135.992 95.2402C135.383 95.2402 134.907 95.4272 134.562 95.8012C134.217 96.1752 134.045 96.6995 134.045 97.3742V100.322H133.264V94.5362H134.012V95.6692Z" fill="#302C60"/>
<path d="M142.819 92.1602V100.322H142.071V99.1782C141.837 99.5668 141.525 99.8638 141.136 100.069C140.755 100.274 140.322 100.377 139.838 100.377C139.296 100.377 138.804 100.252 138.364 100.003C137.924 99.7538 137.58 99.4055 137.33 98.9582C137.081 98.5108 136.956 98.0012 136.956 97.4292C136.956 96.8572 137.081 96.3475 137.33 95.9002C137.58 95.4528 137.924 95.1082 138.364 94.8662C138.804 94.6168 139.296 94.4922 139.838 94.4922C140.308 94.4922 140.729 94.5912 141.103 94.7892C141.485 94.9798 141.796 95.2622 142.038 95.6362V92.1602H142.819ZM139.904 99.6842C140.308 99.6842 140.671 99.5925 140.993 99.4092C141.323 99.2185 141.58 98.9508 141.763 98.6062C141.954 98.2615 142.049 97.8692 142.049 97.4292C142.049 96.9892 141.954 96.5968 141.763 96.2522C141.58 95.9075 141.323 95.6435 140.993 95.4602C140.671 95.2695 140.308 95.1742 139.904 95.1742C139.494 95.1742 139.123 95.2695 138.793 95.4602C138.471 95.6435 138.214 95.9075 138.023 96.2522C137.84 96.5968 137.748 96.9892 137.748 97.4292C137.748 97.8692 137.84 98.2615 138.023 98.6062C138.214 98.9508 138.471 99.2185 138.793 99.4092C139.123 99.5925 139.494 99.6842 139.904 99.6842Z" fill="#302C60"/>
<path d="M145.082 99.1782C145.251 99.1782 145.39 99.2368 145.5 99.3542C145.61 99.4642 145.665 99.6035 145.665 99.7722C145.665 99.8602 145.651 99.9555 145.621 100.058C145.599 100.161 145.563 100.278 145.511 100.41L145.049 101.928H144.521L144.895 100.333C144.778 100.296 144.683 100.23 144.609 100.135C144.536 100.032 144.499 99.9115 144.499 99.7722C144.499 99.6035 144.554 99.4642 144.664 99.3542C144.774 99.2368 144.914 99.1782 145.082 99.1782Z" fill="#302C60"/>
<path d="M155.242 97.6712H150.402C150.446 98.2725 150.677 98.7602 151.095 99.1342C151.513 99.5008 152.041 99.6842 152.679 99.6842C153.039 99.6842 153.369 99.6218 153.669 99.4972C153.97 99.3652 154.23 99.1745 154.45 98.9252L154.89 99.4312C154.634 99.7392 154.311 99.9738 153.922 100.135C153.541 100.296 153.119 100.377 152.657 100.377C152.063 100.377 151.535 100.252 151.073 100.003C150.619 99.7465 150.263 99.3945 150.006 98.9472C149.75 98.4998 149.621 97.9938 149.621 97.4292C149.621 96.8645 149.742 96.3585 149.984 95.9112C150.234 95.4638 150.571 95.1155 150.996 94.8662C151.429 94.6168 151.913 94.4922 152.448 94.4922C152.984 94.4922 153.464 94.6168 153.889 94.8662C154.315 95.1155 154.648 95.4638 154.89 95.9112C155.132 96.3512 155.253 96.8572 155.253 97.4292L155.242 97.6712ZM152.448 95.1632C151.891 95.1632 151.422 95.3428 151.04 95.7022C150.666 96.0542 150.454 96.5162 150.402 97.0882H154.505C154.454 96.5162 154.238 96.0542 153.856 95.7022C153.482 95.3428 153.013 95.1632 152.448 95.1632Z" fill="#302C60"/>
<path d="M164.059 94.4922C164.785 94.4922 165.353 94.7012 165.764 95.1192C166.182 95.5372 166.391 96.1532 166.391 96.9672V100.322H165.61V97.0442C165.61 96.4428 165.463 95.9845 165.17 95.6692C164.884 95.3538 164.477 95.1962 163.949 95.1962C163.348 95.1962 162.875 95.3832 162.53 95.7572C162.185 96.1238 162.013 96.6335 162.013 97.2862V100.322H161.232V97.0442C161.232 96.4428 161.085 95.9845 160.792 95.6692C160.506 95.3538 160.095 95.1962 159.56 95.1962C158.966 95.1962 158.493 95.3832 158.141 95.7572C157.796 96.1238 157.624 96.6335 157.624 97.2862V100.322H156.843V94.5362H157.591V95.5922C157.796 95.2402 158.082 94.9688 158.449 94.7782C158.816 94.5875 159.237 94.4922 159.714 94.4922C160.198 94.4922 160.616 94.5948 160.968 94.8002C161.327 95.0055 161.595 95.3098 161.771 95.7132C161.984 95.3318 162.288 95.0348 162.684 94.8222C163.087 94.6022 163.546 94.4922 164.059 94.4922Z" fill="#302C60"/>
<path d="M170.533 94.4922C171.288 94.4922 171.868 94.6828 172.271 95.0642C172.674 95.4382 172.876 95.9955 172.876 96.7362V100.322H172.128V99.4202C171.952 99.7208 171.692 99.9555 171.347 100.124C171.01 100.293 170.606 100.377 170.137 100.377C169.492 100.377 168.978 100.223 168.597 99.9152C168.216 99.6072 168.025 99.2002 168.025 98.6942C168.025 98.2028 168.201 97.8068 168.553 97.5062C168.912 97.2055 169.481 97.0552 170.258 97.0552H172.095V96.7032C172.095 96.2045 171.956 95.8268 171.677 95.5702C171.398 95.3062 170.991 95.1742 170.456 95.1742C170.089 95.1742 169.737 95.2365 169.4 95.3612C169.063 95.4785 168.773 95.6435 168.531 95.8562L168.179 95.2732C168.472 95.0238 168.824 94.8332 169.235 94.7012C169.646 94.5618 170.078 94.4922 170.533 94.4922ZM170.258 99.7612C170.698 99.7612 171.076 99.6622 171.391 99.4642C171.706 99.2588 171.941 98.9655 172.095 98.5842V97.6382H170.28C169.29 97.6382 168.795 97.9828 168.795 98.6722C168.795 99.0095 168.923 99.2772 169.18 99.4752C169.437 99.6658 169.796 99.7612 170.258 99.7612Z" fill="#302C60"/>
<path d="M174.997 94.5362H175.778V100.322H174.997V94.5362ZM175.393 93.2712C175.232 93.2712 175.096 93.2162 174.986 93.1062C174.876 92.9962 174.821 92.8642 174.821 92.7102C174.821 92.5635 174.876 92.4352 174.986 92.3252C175.096 92.2152 175.232 92.1602 175.393 92.1602C175.555 92.1602 175.69 92.2152 175.8 92.3252C175.91 92.4278 175.965 92.5525 175.965 92.6992C175.965 92.8605 175.91 92.9962 175.8 93.1062C175.69 93.2162 175.555 93.2712 175.393 93.2712Z" fill="#302C60"/>
<path d="M177.951 92.1602H178.732V100.322H177.951V92.1602Z" fill="#302C60"/>
<path d="M182.457 100.377C181.987 100.377 181.536 100.311 181.104 100.179C180.678 100.04 180.345 99.8675 180.103 99.6622L180.455 99.0462C180.697 99.2368 181.001 99.3945 181.368 99.5192C181.734 99.6365 182.116 99.6952 182.512 99.6952C183.04 99.6952 183.428 99.6145 183.678 99.4532C183.934 99.2845 184.063 99.0498 184.063 98.7492C184.063 98.5365 183.993 98.3715 183.854 98.2542C183.714 98.1295 183.538 98.0378 183.326 97.9792C183.113 97.9132 182.831 97.8508 182.479 97.7922C182.009 97.7042 181.632 97.6162 181.346 97.5282C181.06 97.4328 180.814 97.2752 180.609 97.0552C180.411 96.8352 180.312 96.5308 180.312 96.1422C180.312 95.6582 180.513 95.2622 180.917 94.9542C181.32 94.6462 181.881 94.4922 182.6 94.4922C182.974 94.4922 183.348 94.5435 183.722 94.6462C184.096 94.7415 184.404 94.8698 184.646 95.0312L184.305 95.6582C183.828 95.3282 183.26 95.1632 182.6 95.1632C182.101 95.1632 181.723 95.2512 181.467 95.4272C181.217 95.6032 181.093 95.8342 181.093 96.1202C181.093 96.3402 181.162 96.5162 181.302 96.6482C181.448 96.7802 181.628 96.8792 181.841 96.9452C182.053 97.0038 182.347 97.0662 182.721 97.1322C183.183 97.2202 183.553 97.3082 183.832 97.3962C184.11 97.4842 184.349 97.6345 184.547 97.8472C184.745 98.0598 184.844 98.3532 184.844 98.7272C184.844 99.2332 184.631 99.6365 184.206 99.9372C183.788 100.23 183.205 100.377 182.457 100.377Z" fill="#302C60"/>
<path d="M27.5653 106.492C28.3206 106.492 28.8999 106.683 29.3033 107.064C29.7066 107.438 29.9083 107.995 29.9083 108.736V112.322H29.1603V111.42C28.9843 111.721 28.7239 111.955 28.3793 112.124C28.0419 112.293 27.6386 112.377 27.1693 112.377C26.5239 112.377 26.0106 112.223 25.6293 111.915C25.2479 111.607 25.0573 111.2 25.0573 110.694C25.0573 110.203 25.2333 109.807 25.5853 109.506C25.9446 109.205 26.5129 109.055 27.2903 109.055H29.1273V108.703C29.1273 108.204 28.9879 107.827 28.7093 107.57C28.4306 107.306 28.0236 107.174 27.4883 107.174C27.1216 107.174 26.7696 107.236 26.4323 107.361C26.0949 107.478 25.8053 107.643 25.5633 107.856L25.2113 107.273C25.5046 107.024 25.8566 106.833 26.2673 106.701C26.6779 106.562 27.1106 106.492 27.5653 106.492ZM27.2903 111.761C27.7303 111.761 28.1079 111.662 28.4233 111.464C28.7386 111.259 28.9733 110.965 29.1273 110.584V109.638H27.3123C26.3223 109.638 25.8273 109.983 25.8273 110.672C25.8273 111.009 25.9556 111.277 26.2123 111.475C26.4689 111.666 26.8283 111.761 27.2903 111.761Z" fill="#302C60"/>
<path d="M34.9776 106.492C35.7036 106.492 36.2792 106.705 36.7046 107.13C37.1372 107.548 37.3536 108.16 37.3536 108.967V112.322H36.5726V109.044C36.5726 108.443 36.4222 107.984 36.1216 107.669C35.8209 107.354 35.3919 107.196 34.8346 107.196C34.2112 107.196 33.7162 107.383 33.3496 107.757C32.9902 108.124 32.8106 108.633 32.8106 109.286V112.322H32.0296V106.536H32.7776V107.603C32.9902 107.251 33.2836 106.98 33.6576 106.789C34.0389 106.591 34.4789 106.492 34.9776 106.492Z" fill="#302C60"/>
<path d="M44.7754 104.16V112.322H44.0274V111.178C43.7927 111.567 43.4811 111.864 43.0924 112.069C42.7111 112.274 42.2784 112.377 41.7944 112.377C41.2517 112.377 40.7604 112.252 40.3204 112.003C39.8804 111.754 39.5357 111.405 39.2864 110.958C39.037 110.511 38.9124 110.001 38.9124 109.429C38.9124 108.857 39.037 108.347 39.2864 107.9C39.5357 107.453 39.8804 107.108 40.3204 106.866C40.7604 106.617 41.2517 106.492 41.7944 106.492C42.2637 106.492 42.6854 106.591 43.0594 106.789C43.4407 106.98 43.7524 107.262 43.9944 107.636V104.16H44.7754ZM41.8604 111.684C42.2637 111.684 42.6267 111.592 42.9494 111.409C43.2794 111.218 43.5361 110.951 43.7194 110.606C43.91 110.261 44.0054 109.869 44.0054 109.429C44.0054 108.989 43.91 108.597 43.7194 108.252C43.5361 107.907 43.2794 107.643 42.9494 107.46C42.6267 107.269 42.2637 107.174 41.8604 107.174C41.4497 107.174 41.0794 107.269 40.7494 107.46C40.4267 107.643 40.17 107.907 39.9794 108.252C39.796 108.597 39.7044 108.989 39.7044 109.429C39.7044 109.869 39.796 110.261 39.9794 110.606C40.17 110.951 40.4267 111.218 40.7494 111.409C41.0794 111.592 41.4497 111.684 41.8604 111.684Z" fill="#302C60"/>
<path d="M50.5774 107.669C50.7607 107.28 51.032 106.987 51.3914 106.789C51.758 106.591 52.209 106.492 52.7444 106.492V107.251L52.5574 107.24C51.9487 107.24 51.472 107.427 51.1274 107.801C50.7827 108.175 50.6104 108.699 50.6104 109.374V112.322H49.8294V106.536H50.5774V107.669Z" fill="#302C60"/>
<path d="M59.1428 109.671H54.3028C54.3468 110.272 54.5778 110.76 54.9958 111.134C55.4138 111.501 55.9418 111.684 56.5798 111.684C56.9391 111.684 57.2691 111.622 57.5698 111.497C57.8704 111.365 58.1308 111.174 58.3508 110.925L58.7908 111.431C58.5341 111.739 58.2114 111.974 57.8228 112.135C57.4414 112.296 57.0198 112.377 56.5578 112.377C55.9638 112.377 55.4358 112.252 54.9738 112.003C54.5191 111.746 54.1634 111.394 53.9068 110.947C53.6501 110.5 53.5218 109.994 53.5218 109.429C53.5218 108.864 53.6428 108.358 53.8848 107.911C54.1341 107.464 54.4714 107.115 54.8968 106.866C55.3294 106.617 55.8134 106.492 56.3488 106.492C56.8841 106.492 57.3644 106.617 57.7898 106.866C58.2151 107.115 58.5488 107.464 58.7908 107.911C59.0328 108.351 59.1538 108.857 59.1538 109.429L59.1428 109.671ZM56.3488 107.163C55.7914 107.163 55.3221 107.343 54.9408 107.702C54.5668 108.054 54.3541 108.516 54.3028 109.088H58.4058C58.3544 108.516 58.1381 108.054 57.7568 107.702C57.3828 107.343 56.9134 107.163 56.3488 107.163Z" fill="#302C60"/>
<path d="M63.7244 106.492C64.2671 106.492 64.7584 106.617 65.1984 106.866C65.6384 107.108 65.9831 107.453 66.2324 107.9C66.4818 108.347 66.6064 108.857 66.6064 109.429C66.6064 110.008 66.4818 110.522 66.2324 110.969C65.9831 111.416 65.6384 111.765 65.1984 112.014C64.7658 112.256 64.2744 112.377 63.7244 112.377C63.2551 112.377 62.8298 112.282 62.4484 112.091C62.0744 111.893 61.7664 111.607 61.5244 111.233V114.456H60.7434V106.536H61.4914V107.68C61.7261 107.299 62.0341 107.005 62.4154 106.8C62.8041 106.595 63.2404 106.492 63.7244 106.492ZM63.6694 111.684C64.0728 111.684 64.4394 111.592 64.7694 111.409C65.0994 111.218 65.3561 110.951 65.5394 110.606C65.7301 110.261 65.8254 109.869 65.8254 109.429C65.8254 108.989 65.7301 108.6 65.5394 108.263C65.3561 107.918 65.0994 107.651 64.7694 107.46C64.4394 107.269 64.0728 107.174 63.6694 107.174C63.2588 107.174 62.8884 107.269 62.5584 107.46C62.2358 107.651 61.9791 107.918 61.7884 108.263C61.6051 108.6 61.5134 108.989 61.5134 109.429C61.5134 109.869 61.6051 110.261 61.7884 110.606C61.9791 110.951 62.2358 111.218 62.5584 111.409C62.8884 111.592 63.2588 111.684 63.6694 111.684Z" fill="#302C60"/>
<path d="M70.5635 112.377C70.0062 112.377 69.5038 112.252 69.0565 112.003C68.6092 111.746 68.2572 111.394 68.0005 110.947C67.7438 110.5 67.6155 109.994 67.6155 109.429C67.6155 108.864 67.7438 108.358 68.0005 107.911C68.2572 107.464 68.6092 107.115 69.0565 106.866C69.5038 106.617 70.0062 106.492 70.5635 106.492C71.1208 106.492 71.6232 106.617 72.0705 106.866C72.5178 107.115 72.8662 107.464 73.1155 107.911C73.3722 108.358 73.5005 108.864 73.5005 109.429C73.5005 109.994 73.3722 110.5 73.1155 110.947C72.8662 111.394 72.5178 111.746 72.0705 112.003C71.6232 112.252 71.1208 112.377 70.5635 112.377ZM70.5635 111.684C70.9742 111.684 71.3408 111.592 71.6635 111.409C71.9935 111.218 72.2502 110.951 72.4335 110.606C72.6168 110.261 72.7085 109.869 72.7085 109.429C72.7085 108.989 72.6168 108.597 72.4335 108.252C72.2502 107.907 71.9935 107.643 71.6635 107.46C71.3408 107.269 70.9742 107.174 70.5635 107.174C70.1528 107.174 69.7825 107.269 69.4525 107.46C69.1298 107.643 68.8732 107.907 68.6825 108.252C68.4992 108.597 68.4075 108.989 68.4075 109.429C68.4075 109.869 68.4992 110.261 68.6825 110.606C68.8732 110.951 69.1298 111.218 69.4525 111.409C69.7825 111.592 70.1528 111.684 70.5635 111.684Z" fill="#302C60"/>
<path d="M76.646 112.377C76.1767 112.377 75.7257 112.311 75.293 112.179C74.8677 112.04 74.534 111.867 74.292 111.662L74.644 111.046C74.886 111.237 75.1903 111.394 75.557 111.519C75.9237 111.636 76.305 111.695 76.701 111.695C77.229 111.695 77.6177 111.614 77.867 111.453C78.1237 111.284 78.252 111.05 78.252 110.749C78.252 110.536 78.1823 110.371 78.043 110.254C77.9037 110.129 77.7277 110.038 77.515 109.979C77.3023 109.913 77.02 109.851 76.668 109.792C76.1987 109.704 75.821 109.616 75.535 109.528C75.249 109.433 75.0033 109.275 74.798 109.055C74.6 108.835 74.501 108.531 74.501 108.142C74.501 107.658 74.7027 107.262 75.106 106.954C75.5093 106.646 76.0703 106.492 76.789 106.492C77.163 106.492 77.537 106.543 77.911 106.646C78.285 106.741 78.593 106.87 78.835 107.031L78.494 107.658C78.0173 107.328 77.449 107.163 76.789 107.163C76.2903 107.163 75.9127 107.251 75.656 107.427C75.4067 107.603 75.282 107.834 75.282 108.12C75.282 108.34 75.3517 108.516 75.491 108.648C75.6377 108.78 75.8173 108.879 76.03 108.945C76.2427 109.004 76.536 109.066 76.91 109.132C77.372 109.22 77.7423 109.308 78.021 109.396C78.2997 109.484 78.538 109.634 78.736 109.847C78.934 110.06 79.033 110.353 79.033 110.727C79.033 111.233 78.8203 111.636 78.395 111.937C77.977 112.23 77.394 112.377 76.646 112.377Z" fill="#302C60"/>
<path d="M85.3797 106.492C86.1351 106.492 86.7144 106.683 87.1177 107.064C87.5211 107.438 87.7227 107.995 87.7227 108.736V112.322H86.9747V111.42C86.7987 111.721 86.5384 111.955 86.1937 112.124C85.8564 112.293 85.4531 112.377 84.9837 112.377C84.3384 112.377 83.8251 112.223 83.4437 111.915C83.0624 111.607 82.8717 111.2 82.8717 110.694C82.8717 110.203 83.0477 109.807 83.3997 109.506C83.7591 109.205 84.3274 109.055 85.1047 109.055H86.9417V108.703C86.9417 108.204 86.8024 107.827 86.5237 107.57C86.2451 107.306 85.8381 107.174 85.3027 107.174C84.9361 107.174 84.5841 107.236 84.2467 107.361C83.9094 107.478 83.6197 107.643 83.3777 107.856L83.0257 107.273C83.3191 107.024 83.6711 106.833 84.0817 106.701C84.4924 106.562 84.9251 106.492 85.3797 106.492ZM85.1047 111.761C85.5447 111.761 85.9224 111.662 86.2377 111.464C86.5531 111.259 86.7877 110.965 86.9417 110.584V109.638H85.1267C84.1367 109.638 83.6417 109.983 83.6417 110.672C83.6417 111.009 83.7701 111.277 84.0267 111.475C84.2834 111.666 84.6427 111.761 85.1047 111.761Z" fill="#302C60"/>
<path d="M92.792 106.492C93.518 106.492 94.0937 106.705 94.519 107.13C94.9517 107.548 95.168 108.16 95.168 108.967V112.322H94.387V109.044C94.387 108.443 94.2367 107.984 93.936 107.669C93.6353 107.354 93.2063 107.196 92.649 107.196C92.0257 107.196 91.5307 107.383 91.164 107.757C90.8047 108.124 90.625 108.633 90.625 109.286V112.322H89.844V106.536H90.592V107.603C90.8047 107.251 91.098 106.98 91.472 106.789C91.8533 106.591 92.2933 106.492 92.792 106.492Z" fill="#302C60"/>
<path d="M102.59 104.16V112.322H101.842V111.178C101.607 111.567 101.295 111.864 100.907 112.069C100.525 112.274 100.093 112.377 99.6088 112.377C99.0662 112.377 98.5748 112.252 98.1348 112.003C97.6948 111.754 97.3502 111.405 97.1008 110.958C96.8515 110.511 96.7268 110.001 96.7268 109.429C96.7268 108.857 96.8515 108.347 97.1008 107.9C97.3502 107.453 97.6948 107.108 98.1348 106.866C98.5748 106.617 99.0662 106.492 99.6088 106.492C100.078 106.492 100.5 106.591 100.874 106.789C101.255 106.98 101.567 107.262 101.809 107.636V104.16H102.59ZM99.6748 111.684C100.078 111.684 100.441 111.592 100.764 111.409C101.094 111.218 101.351 110.951 101.534 110.606C101.725 110.261 101.82 109.869 101.82 109.429C101.82 108.989 101.725 108.597 101.534 108.252C101.351 107.907 101.094 107.643 100.764 107.46C100.441 107.269 100.078 107.174 99.6748 107.174C99.2642 107.174 98.8938 107.269 98.5638 107.46C98.2412 107.643 97.9845 107.907 97.7938 108.252C97.6105 108.597 97.5188 108.989 97.5188 109.429C97.5188 109.869 97.6105 110.261 97.7938 110.606C97.9845 110.951 98.2412 111.218 98.5638 111.409C98.8938 111.592 99.2642 111.684 99.6748 111.684Z" fill="#302C60"/>
<path d="M113.001 106.536V111.618C113.001 112.601 112.759 113.327 112.275 113.796C111.798 114.273 111.076 114.511 110.108 114.511C109.572 114.511 109.063 114.43 108.579 114.269C108.102 114.115 107.713 113.899 107.413 113.62L107.809 113.026C108.087 113.275 108.425 113.47 108.821 113.609C109.224 113.748 109.646 113.818 110.086 113.818C110.819 113.818 111.358 113.646 111.703 113.301C112.047 112.964 112.22 112.436 112.22 111.717V110.98C111.978 111.347 111.659 111.625 111.263 111.816C110.874 112.007 110.441 112.102 109.965 112.102C109.422 112.102 108.927 111.985 108.48 111.75C108.04 111.508 107.691 111.174 107.435 110.749C107.185 110.316 107.061 109.829 107.061 109.286C107.061 108.743 107.185 108.259 107.435 107.834C107.691 107.409 108.04 107.079 108.48 106.844C108.92 106.609 109.415 106.492 109.965 106.492C110.456 106.492 110.9 106.591 111.296 106.789C111.692 106.987 112.011 107.273 112.253 107.647V106.536H113.001ZM110.042 111.409C110.46 111.409 110.837 111.321 111.175 111.145C111.512 110.962 111.772 110.709 111.956 110.386C112.146 110.063 112.242 109.697 112.242 109.286C112.242 108.875 112.146 108.512 111.956 108.197C111.772 107.874 111.512 107.625 111.175 107.449C110.845 107.266 110.467 107.174 110.042 107.174C109.624 107.174 109.246 107.262 108.909 107.438C108.579 107.614 108.318 107.863 108.128 108.186C107.944 108.509 107.853 108.875 107.853 109.286C107.853 109.697 107.944 110.063 108.128 110.386C108.318 110.709 108.579 110.962 108.909 111.145C109.246 111.321 109.624 111.409 110.042 111.409Z" fill="#302C60"/>
<path d="M120.223 109.671H115.383C115.427 110.272 115.658 110.76 116.076 111.134C116.494 111.501 117.022 111.684 117.66 111.684C118.019 111.684 118.349 111.622 118.65 111.497C118.951 111.365 119.211 111.174 119.431 110.925L119.871 111.431C119.614 111.739 119.291 111.974 118.903 112.135C118.521 112.296 118.1 112.377 117.638 112.377C117.044 112.377 116.516 112.252 116.054 112.003C115.599 111.746 115.243 111.394 114.987 110.947C114.73 110.5 114.602 109.994 114.602 109.429C114.602 108.864 114.723 108.358 114.965 107.911C115.214 107.464 115.551 107.115 115.977 106.866C116.409 106.617 116.893 106.492 117.429 106.492C117.964 106.492 118.445 106.617 118.87 106.866C119.295 107.115 119.629 107.464 119.871 107.911C120.113 108.351 120.234 108.857 120.234 109.429L120.223 109.671ZM117.429 107.163C116.871 107.163 116.402 107.343 116.021 107.702C115.647 108.054 115.434 108.516 115.383 109.088H119.486C119.434 108.516 119.218 108.054 118.837 107.702C118.463 107.343 117.993 107.163 117.429 107.163Z" fill="#302C60"/>
<path d="M124.871 111.97C124.724 112.102 124.541 112.205 124.321 112.278C124.108 112.344 123.884 112.377 123.65 112.377C123.107 112.377 122.689 112.23 122.396 111.937C122.102 111.644 121.956 111.229 121.956 110.694V107.196H120.922V106.536H121.956V105.271H122.737V106.536H124.497V107.196H122.737V110.65C122.737 110.995 122.821 111.259 122.99 111.442C123.166 111.618 123.415 111.706 123.738 111.706C123.899 111.706 124.053 111.68 124.2 111.629C124.354 111.578 124.486 111.504 124.596 111.409L124.871 111.97Z" fill="#302C60"/>
<path d="M131.195 106.492C131.95 106.492 132.53 106.683 132.933 107.064C133.336 107.438 133.538 107.995 133.538 108.736V112.322H132.79V111.42C132.614 111.721 132.354 111.955 132.009 112.124C131.672 112.293 131.268 112.377 130.799 112.377C130.154 112.377 129.64 112.223 129.259 111.915C128.878 111.607 128.687 111.2 128.687 110.694C128.687 110.203 128.863 109.807 129.215 109.506C129.574 109.205 130.143 109.055 130.92 109.055H132.757V108.703C132.757 108.204 132.618 107.827 132.339 107.57C132.06 107.306 131.653 107.174 131.118 107.174C130.751 107.174 130.399 107.236 130.062 107.361C129.725 107.478 129.435 107.643 129.193 107.856L128.841 107.273C129.134 107.024 129.486 106.833 129.897 106.701C130.308 106.562 130.74 106.492 131.195 106.492ZM130.92 111.761C131.36 111.761 131.738 111.662 132.053 111.464C132.368 111.259 132.603 110.965 132.757 110.584V109.638H130.942C129.952 109.638 129.457 109.983 129.457 110.672C129.457 111.009 129.585 111.277 129.842 111.475C130.099 111.666 130.458 111.761 130.92 111.761Z" fill="#302C60"/>
<path d="M135.659 104.16H136.44V112.322H135.659V104.16Z" fill="#302C60"/>
<path d="M138.614 104.16H139.395V112.322H138.614V104.16Z" fill="#302C60"/>
<path d="M147.494 111.97C147.347 112.102 147.164 112.205 146.944 112.278C146.731 112.344 146.507 112.377 146.273 112.377C145.73 112.377 145.312 112.23 145.019 111.937C144.725 111.644 144.579 111.229 144.579 110.694V107.196H143.545V106.536H144.579V105.271H145.36V106.536H147.12V107.196H145.36V110.65C145.36 110.995 145.444 111.259 145.613 111.442C145.789 111.618 146.038 111.706 146.361 111.706C146.522 111.706 146.676 111.68 146.823 111.629C146.977 111.578 147.109 111.504 147.219 111.409L147.494 111.97Z" fill="#302C60"/>
<path d="M151.863 106.492C152.589 106.492 153.165 106.705 153.59 107.13C154.023 107.548 154.239 108.16 154.239 108.967V112.322H153.458V109.044C153.458 108.443 153.308 107.984 153.007 107.669C152.707 107.354 152.278 107.196 151.72 107.196C151.097 107.196 150.602 107.383 150.235 107.757C149.876 108.124 149.696 108.633 149.696 109.286V112.322H148.915V104.16H149.696V107.548C149.909 107.211 150.202 106.95 150.576 106.767C150.95 106.584 151.379 106.492 151.863 106.492Z" fill="#302C60"/>
<path d="M161.419 109.671H156.579C156.623 110.272 156.854 110.76 157.272 111.134C157.69 111.501 158.218 111.684 158.856 111.684C159.215 111.684 159.545 111.622 159.846 111.497C160.147 111.365 160.407 111.174 160.627 110.925L161.067 111.431C160.81 111.739 160.488 111.974 160.099 112.135C159.718 112.296 159.296 112.377 158.834 112.377C158.24 112.377 157.712 112.252 157.25 112.003C156.795 111.746 156.44 111.394 156.183 110.947C155.926 110.5 155.798 109.994 155.798 109.429C155.798 108.864 155.919 108.358 156.161 107.911C156.41 107.464 156.748 107.115 157.173 106.866C157.606 106.617 158.09 106.492 158.625 106.492C159.16 106.492 159.641 106.617 160.066 106.866C160.491 107.115 160.825 107.464 161.067 107.911C161.309 108.351 161.43 108.857 161.43 109.429L161.419 109.671ZM158.625 107.163C158.068 107.163 157.598 107.343 157.217 107.702C156.843 108.054 156.63 108.516 156.579 109.088H160.682C160.631 108.516 160.414 108.054 160.033 107.702C159.659 107.343 159.19 107.163 158.625 107.163Z" fill="#302C60"/>
<path d="M27.0923 124.377C26.6229 124.377 26.1719 124.311 25.7393 124.179C25.3139 124.04 24.9803 123.867 24.7383 123.662L25.0903 123.046C25.3323 123.237 25.6366 123.394 26.0033 123.519C26.3699 123.636 26.7513 123.695 27.1473 123.695C27.6753 123.695 28.0639 123.614 28.3133 123.453C28.5699 123.284 28.6983 123.05 28.6983 122.749C28.6983 122.536 28.6286 122.371 28.4893 122.254C28.3499 122.129 28.1739 122.038 27.9613 121.979C27.7486 121.913 27.4663 121.851 27.1143 121.792C26.6449 121.704 26.2673 121.616 25.9813 121.528C25.6953 121.433 25.4496 121.275 25.2443 121.055C25.0463 120.835 24.9473 120.531 24.9473 120.142C24.9473 119.658 25.1489 119.262 25.5523 118.954C25.9556 118.646 26.5166 118.492 27.2353 118.492C27.6093 118.492 27.9833 118.543 28.3573 118.646C28.7313 118.741 29.0393 118.87 29.2813 119.031L28.9403 119.658C28.4636 119.328 27.8953 119.163 27.2353 119.163C26.7366 119.163 26.3589 119.251 26.1023 119.427C25.8529 119.603 25.7283 119.834 25.7283 120.12C25.7283 120.34 25.7979 120.516 25.9373 120.648C26.0839 120.78 26.2636 120.879 26.4763 120.945C26.6889 121.004 26.9823 121.066 27.3563 121.132C27.8183 121.22 28.1886 121.308 28.4673 121.396C28.7459 121.484 28.9843 121.634 29.1823 121.847C29.3803 122.06 29.4793 122.353 29.4793 122.727C29.4793 123.233 29.2666 123.636 28.8413 123.937C28.4233 124.23 27.8403 124.377 27.0923 124.377Z" fill="#302C60"/>
<path d="M36.1371 118.536V124.322H35.3891V123.266C35.1838 123.618 34.9015 123.893 34.5421 124.091C34.1828 124.282 33.7721 124.377 33.3101 124.377C32.5548 124.377 31.9571 124.168 31.5171 123.75C31.0845 123.325 30.8681 122.705 30.8681 121.891V118.536H31.6491V121.814C31.6491 122.423 31.7995 122.885 32.1001 123.2C32.4008 123.515 32.8298 123.673 33.3871 123.673C33.9958 123.673 34.4761 123.49 34.8281 123.123C35.1801 122.749 35.3561 122.232 35.3561 121.572V118.536H36.1371Z" fill="#302C60"/>
<path d="M41.3055 118.492C41.8482 118.492 42.3395 118.617 42.7795 118.866C43.2195 119.108 43.5642 119.453 43.8135 119.9C44.0628 120.347 44.1875 120.857 44.1875 121.429C44.1875 122.008 44.0628 122.522 43.8135 122.969C43.5642 123.416 43.2195 123.765 42.7795 124.014C42.3468 124.256 41.8555 124.377 41.3055 124.377C40.8362 124.377 40.4108 124.282 40.0295 124.091C39.6555 123.893 39.3475 123.607 39.1055 123.233V126.456H38.3245V118.536H39.0725V119.68C39.3072 119.299 39.6152 119.005 39.9965 118.8C40.3852 118.595 40.8215 118.492 41.3055 118.492ZM41.2505 123.684C41.6538 123.684 42.0205 123.592 42.3505 123.409C42.6805 123.218 42.9372 122.951 43.1205 122.606C43.3112 122.261 43.4065 121.869 43.4065 121.429C43.4065 120.989 43.3112 120.6 43.1205 120.263C42.9372 119.918 42.6805 119.651 42.3505 119.46C42.0205 119.269 41.6538 119.174 41.2505 119.174C40.8398 119.174 40.4695 119.269 40.1395 119.46C39.8168 119.651 39.5602 119.918 39.3695 120.263C39.1862 120.6 39.0945 120.989 39.0945 121.429C39.0945 121.869 39.1862 122.261 39.3695 122.606C39.5602 122.951 39.8168 123.218 40.1395 123.409C40.4695 123.592 40.8398 123.684 41.2505 123.684Z" fill="#302C60"/>
<path d="M48.7606 118.492C49.3032 118.492 49.7946 118.617 50.2346 118.866C50.6746 119.108 51.0192 119.453 51.2686 119.9C51.5179 120.347 51.6426 120.857 51.6426 121.429C51.6426 122.008 51.5179 122.522 51.2686 122.969C51.0192 123.416 50.6746 123.765 50.2346 124.014C49.8019 124.256 49.3106 124.377 48.7606 124.377C48.2912 124.377 47.8659 124.282 47.4846 124.091C47.1106 123.893 46.8026 123.607 46.5606 123.233V126.456H45.7796V118.536H46.5276V119.68C46.7622 119.299 47.0702 119.005 47.4516 118.8C47.8402 118.595 48.2766 118.492 48.7606 118.492ZM48.7056 123.684C49.1089 123.684 49.4756 123.592 49.8056 123.409C50.1356 123.218 50.3922 122.951 50.5756 122.606C50.7662 122.261 50.8616 121.869 50.8616 121.429C50.8616 120.989 50.7662 120.6 50.5756 120.263C50.3922 119.918 50.1356 119.651 49.8056 119.46C49.4756 119.269 49.1089 119.174 48.7056 119.174C48.2949 119.174 47.9246 119.269 47.5946 119.46C47.2719 119.651 47.0152 119.918 46.8246 120.263C46.6412 120.6 46.5496 120.989 46.5496 121.429C46.5496 121.869 46.6412 122.261 46.8246 122.606C47.0152 122.951 47.2719 123.218 47.5946 123.409C47.9246 123.592 48.2949 123.684 48.7056 123.684Z" fill="#302C60"/>
<path d="M55.5996 124.377C55.0423 124.377 54.54 124.252 54.0926 124.003C53.6453 123.746 53.2933 123.394 53.0366 122.947C52.78 122.5 52.6516 121.994 52.6516 121.429C52.6516 120.864 52.78 120.358 53.0366 119.911C53.2933 119.464 53.6453 119.115 54.0926 118.866C54.54 118.617 55.0423 118.492 55.5996 118.492C56.157 118.492 56.6593 118.617 57.1066 118.866C57.554 119.115 57.9023 119.464 58.1516 119.911C58.4083 120.358 58.5366 120.864 58.5366 121.429C58.5366 121.994 58.4083 122.5 58.1516 122.947C57.9023 123.394 57.554 123.746 57.1066 124.003C56.6593 124.252 56.157 124.377 55.5996 124.377ZM55.5996 123.684C56.0103 123.684 56.377 123.592 56.6996 123.409C57.0296 123.218 57.2863 122.951 57.4696 122.606C57.653 122.261 57.7446 121.869 57.7446 121.429C57.7446 120.989 57.653 120.597 57.4696 120.252C57.2863 119.907 57.0296 119.643 56.6996 119.46C56.377 119.269 56.0103 119.174 55.5996 119.174C55.189 119.174 54.8186 119.269 54.4886 119.46C54.166 119.643 53.9093 119.907 53.7186 120.252C53.5353 120.597 53.4436 120.989 53.4436 121.429C53.4436 121.869 53.5353 122.261 53.7186 122.606C53.9093 122.951 54.166 123.218 54.4886 123.409C54.8186 123.592 55.189 123.684 55.5996 123.684Z" fill="#302C60"/>
<path d="M60.8791 119.669C61.0625 119.28 61.3338 118.987 61.6931 118.789C62.0598 118.591 62.5108 118.492 63.0461 118.492V119.251L62.8591 119.24C62.2505 119.24 61.7738 119.427 61.4291 119.801C61.0845 120.175 60.9121 120.699 60.9121 121.374V124.322H60.1311V118.536H60.8791V119.669Z" fill="#302C60"/>
<path d="M67.7543 123.97C67.6076 124.102 67.4243 124.205 67.2043 124.278C66.9916 124.344 66.768 124.377 66.5333 124.377C65.9906 124.377 65.5726 124.23 65.2793 123.937C64.986 123.644 64.8393 123.229 64.8393 122.694V119.196H63.8053V118.536H64.8393V117.271H65.6203V118.536H67.3803V119.196H65.6203V122.65C65.6203 122.995 65.7046 123.259 65.8733 123.442C66.0493 123.618 66.2986 123.706 66.6213 123.706C66.7826 123.706 66.9366 123.68 67.0833 123.629C67.2373 123.578 67.3693 123.504 67.4793 123.409L67.7543 123.97Z" fill="#302C60"/>
<path d="M79.7959 118.536L76.9029 125.015C76.6682 125.558 76.3969 125.943 76.0889 126.17C75.7809 126.397 75.4105 126.511 74.9779 126.511C74.6992 126.511 74.4389 126.467 74.1969 126.379C73.9549 126.291 73.7459 126.159 73.5699 125.983L73.9329 125.4C74.2262 125.693 74.5782 125.84 74.9889 125.84C75.2529 125.84 75.4765 125.767 75.6599 125.62C75.8505 125.473 76.0265 125.224 76.1879 124.872L76.4409 124.311L73.8559 118.536H74.6699L76.8479 123.453L79.0259 118.536H79.7959Z" fill="#302C60"/>
<path d="M83.0996 124.377C82.5423 124.377 82.04 124.252 81.5926 124.003C81.1453 123.746 80.7933 123.394 80.5366 122.947C80.28 122.5 80.1516 121.994 80.1516 121.429C80.1516 120.864 80.28 120.358 80.5366 119.911C80.7933 119.464 81.1453 119.115 81.5926 118.866C82.04 118.617 82.5423 118.492 83.0996 118.492C83.657 118.492 84.1593 118.617 84.6066 118.866C85.054 119.115 85.4023 119.464 85.6516 119.911C85.9083 120.358 86.0366 120.864 86.0366 121.429C86.0366 121.994 85.9083 122.5 85.6516 122.947C85.4023 123.394 85.054 123.746 84.6066 124.003C84.1593 124.252 83.657 124.377 83.0996 124.377ZM83.0996 123.684C83.5103 123.684 83.877 123.592 84.1996 123.409C84.5296 123.218 84.7863 122.951 84.9696 122.606C85.153 122.261 85.2446 121.869 85.2446 121.429C85.2446 120.989 85.153 120.597 84.9696 120.252C84.7863 119.907 84.5296 119.643 84.1996 119.46C83.877 119.269 83.5103 119.174 83.0996 119.174C82.689 119.174 82.3186 119.269 81.9886 119.46C81.666 119.643 81.4093 119.907 81.2186 120.252C81.0353 120.597 80.9436 120.989 80.9436 121.429C80.9436 121.869 81.0353 122.261 81.2186 122.606C81.4093 122.951 81.666 123.218 81.9886 123.409C82.3186 123.592 82.689 123.684 83.0996 123.684Z" fill="#302C60"/>
<path d="M92.8451 118.536V124.322H92.0971V123.266C91.8918 123.618 91.6095 123.893 91.2501 124.091C90.8908 124.282 90.4801 124.377 90.0181 124.377C89.2628 124.377 88.6651 124.168 88.2251 123.75C87.7925 123.325 87.5761 122.705 87.5761 121.891V118.536H88.3571V121.814C88.3571 122.423 88.5075 122.885 88.8081 123.2C89.1088 123.515 89.5378 123.673 90.0951 123.673C90.7038 123.673 91.1841 123.49 91.5361 123.123C91.8881 122.749 92.0641 122.232 92.0641 121.572V118.536H92.8451Z" fill="#302C60"/>
<path d="M105.127 118.492C105.853 118.492 106.422 118.701 106.832 119.119C107.25 119.537 107.459 120.153 107.459 120.967V124.322H106.678V121.044C106.678 120.443 106.532 119.984 106.238 119.669C105.952 119.354 105.545 119.196 105.017 119.196C104.416 119.196 103.943 119.383 103.598 119.757C103.254 120.124 103.081 120.633 103.081 121.286V124.322H102.3V121.044C102.3 120.443 102.154 119.984 101.86 119.669C101.574 119.354 101.164 119.196 100.628 119.196C100.034 119.196 99.5614 119.383 99.2094 119.757C98.8647 120.124 98.6924 120.633 98.6924 121.286V124.322H97.9114V118.536H98.6594V119.592C98.8647 119.24 99.1507 118.969 99.5174 118.778C99.8841 118.587 100.306 118.492 100.782 118.492C101.266 118.492 101.684 118.595 102.036 118.8C102.396 119.005 102.663 119.31 102.839 119.713C103.052 119.332 103.356 119.035 103.752 118.822C104.156 118.602 104.614 118.492 105.127 118.492Z" fill="#302C60"/>
<path d="M109.577 118.536H110.358V124.322H109.577V118.536ZM109.973 117.271C109.812 117.271 109.676 117.216 109.566 117.106C109.456 116.996 109.401 116.864 109.401 116.71C109.401 116.563 109.456 116.435 109.566 116.325C109.676 116.215 109.812 116.16 109.973 116.16C110.135 116.16 110.27 116.215 110.38 116.325C110.49 116.428 110.545 116.552 110.545 116.699C110.545 116.86 110.49 116.996 110.38 117.106C110.27 117.216 110.135 117.271 109.973 117.271Z" fill="#302C60"/>
<path d="M117.889 118.536V123.618C117.889 124.601 117.647 125.327 117.163 125.796C116.686 126.273 115.964 126.511 114.996 126.511C114.46 126.511 113.951 126.43 113.467 126.269C112.99 126.115 112.601 125.899 112.301 125.62L112.697 125.026C112.975 125.275 113.313 125.47 113.709 125.609C114.112 125.748 114.534 125.818 114.974 125.818C115.707 125.818 116.246 125.646 116.591 125.301C116.935 124.964 117.108 124.436 117.108 123.717V122.98C116.866 123.347 116.547 123.625 116.151 123.816C115.762 124.007 115.329 124.102 114.853 124.102C114.31 124.102 113.815 123.985 113.368 123.75C112.928 123.508 112.579 123.174 112.323 122.749C112.073 122.316 111.949 121.829 111.949 121.286C111.949 120.743 112.073 120.259 112.323 119.834C112.579 119.409 112.928 119.079 113.368 118.844C113.808 118.609 114.303 118.492 114.853 118.492C115.344 118.492 115.788 118.591 116.184 118.789C116.58 118.987 116.899 119.273 117.141 119.647V118.536H117.889ZM114.93 123.409C115.348 123.409 115.725 123.321 116.063 123.145C116.4 122.962 116.66 122.709 116.844 122.386C117.034 122.063 117.13 121.697 117.13 121.286C117.13 120.875 117.034 120.512 116.844 120.197C116.66 119.874 116.4 119.625 116.063 119.449C115.733 119.266 115.355 119.174 114.93 119.174C114.512 119.174 114.134 119.262 113.797 119.438C113.467 119.614 113.206 119.863 113.016 120.186C112.832 120.509 112.741 120.875 112.741 121.286C112.741 121.697 112.832 122.063 113.016 122.386C113.206 122.709 113.467 122.962 113.797 123.145C114.134 123.321 114.512 123.409 114.93 123.409Z" fill="#302C60"/>
<path d="M123.021 118.492C123.747 118.492 124.322 118.705 124.748 119.13C125.18 119.548 125.397 120.16 125.397 120.967V124.322H124.616V121.044C124.616 120.443 124.465 119.984 124.165 119.669C123.864 119.354 123.435 119.196 122.878 119.196C122.254 119.196 121.759 119.383 121.393 119.757C121.033 120.124 120.854 120.633 120.854 121.286V124.322H120.073V116.16H120.854V119.548C121.066 119.211 121.36 118.95 121.734 118.767C122.108 118.584 122.537 118.492 123.021 118.492Z" fill="#302C60"/>
<path d="M130.564 123.97C130.417 124.102 130.234 124.205 130.014 124.278C129.801 124.344 129.578 124.377 129.343 124.377C128.8 124.377 128.382 124.23 128.089 123.937C127.796 123.644 127.649 123.229 127.649 122.694V119.196H126.615V118.536H127.649V117.271H128.43V118.536H130.19V119.196H128.43V122.65C128.43 122.995 128.514 123.259 128.683 123.442C128.859 123.618 129.108 123.706 129.431 123.706C129.592 123.706 129.746 123.68 129.893 123.629C130.047 123.578 130.179 123.504 130.289 123.409L130.564 123.97Z" fill="#302C60"/>
<path d="M137.813 118.492C138.539 118.492 139.114 118.705 139.54 119.13C139.972 119.548 140.189 120.16 140.189 120.967V124.322H139.408V121.044C139.408 120.443 139.257 119.984 138.957 119.669C138.656 119.354 138.227 119.196 137.67 119.196C137.046 119.196 136.551 119.383 136.185 119.757C135.825 120.124 135.646 120.633 135.646 121.286V124.322H134.865V118.536H135.613V119.603C135.825 119.251 136.119 118.98 136.493 118.789C136.874 118.591 137.314 118.492 137.813 118.492Z" fill="#302C60"/>
<path d="M147.368 121.671H142.528C142.572 122.272 142.803 122.76 143.221 123.134C143.639 123.501 144.167 123.684 144.805 123.684C145.165 123.684 145.495 123.622 145.795 123.497C146.096 123.365 146.356 123.174 146.576 122.925L147.016 123.431C146.76 123.739 146.437 123.974 146.048 124.135C145.667 124.296 145.245 124.377 144.783 124.377C144.189 124.377 143.661 124.252 143.199 124.003C142.745 123.746 142.389 123.394 142.132 122.947C141.876 122.5 141.747 121.994 141.747 121.429C141.747 120.864 141.868 120.358 142.11 119.911C142.36 119.464 142.697 119.115 143.122 118.866C143.555 118.617 144.039 118.492 144.574 118.492C145.11 118.492 145.59 118.617 146.015 118.866C146.441 119.115 146.774 119.464 147.016 119.911C147.258 120.351 147.379 120.857 147.379 121.429L147.368 121.671ZM144.574 119.163C144.017 119.163 143.548 119.343 143.166 119.702C142.792 120.054 142.58 120.516 142.528 121.088H146.631C146.58 120.516 146.364 120.054 145.982 119.702C145.608 119.343 145.139 119.163 144.574 119.163Z" fill="#302C60"/>
<path d="M154.007 121.671H149.167C149.211 122.272 149.442 122.76 149.86 123.134C150.278 123.501 150.806 123.684 151.444 123.684C151.803 123.684 152.133 123.622 152.434 123.497C152.735 123.365 152.995 123.174 153.215 122.925L153.655 123.431C153.398 123.739 153.076 123.974 152.687 124.135C152.306 124.296 151.884 124.377 151.422 124.377C150.828 124.377 150.3 124.252 149.838 124.003C149.383 123.746 149.028 123.394 148.771 122.947C148.514 122.5 148.386 121.994 148.386 121.429C148.386 120.864 148.507 120.358 148.749 119.911C148.998 119.464 149.336 119.115 149.761 118.866C150.194 118.617 150.678 118.492 151.213 118.492C151.748 118.492 152.229 118.617 152.654 118.866C153.079 119.115 153.413 119.464 153.655 119.911C153.897 120.351 154.018 120.857 154.018 121.429L154.007 121.671ZM151.213 119.163C150.656 119.163 150.186 119.343 149.805 119.702C149.431 120.054 149.218 120.516 149.167 121.088H153.27C153.219 120.516 153.002 120.054 152.621 119.702C152.247 119.343 151.778 119.163 151.213 119.163Z" fill="#302C60"/>
<path d="M160.888 116.16V124.322H160.14V123.178C159.905 123.567 159.593 123.864 159.205 124.069C158.823 124.274 158.391 124.377 157.907 124.377C157.364 124.377 156.873 124.252 156.433 124.003C155.993 123.754 155.648 123.405 155.399 122.958C155.149 122.511 155.025 122.001 155.025 121.429C155.025 120.857 155.149 120.347 155.399 119.9C155.648 119.453 155.993 119.108 156.433 118.866C156.873 118.617 157.364 118.492 157.907 118.492C158.376 118.492 158.798 118.591 159.172 118.789C159.553 118.98 159.865 119.262 160.107 119.636V116.16H160.888ZM157.973 123.684C158.376 123.684 158.739 123.592 159.062 123.409C159.392 123.218 159.648 122.951 159.832 122.606C160.022 122.261 160.118 121.869 160.118 121.429C160.118 120.989 160.022 120.597 159.832 120.252C159.648 119.907 159.392 119.643 159.062 119.46C158.739 119.269 158.376 119.174 157.973 119.174C157.562 119.174 157.192 119.269 156.862 119.46C156.539 119.643 156.282 119.907 156.092 120.252C155.908 120.597 155.817 120.989 155.817 121.429C155.817 121.869 155.908 122.261 156.092 122.606C156.282 122.951 156.539 123.218 156.862 123.409C157.192 123.592 157.562 123.684 157.973 123.684Z" fill="#302C60"/>
<path d="M162.942 116.622H163.866L163.701 122.012H163.096L162.942 116.622ZM163.404 124.377C163.242 124.377 163.103 124.322 162.986 124.212C162.876 124.095 162.821 123.959 162.821 123.805C162.821 123.644 162.876 123.512 162.986 123.409C163.096 123.299 163.235 123.244 163.404 123.244C163.565 123.244 163.701 123.299 163.811 123.409C163.921 123.512 163.976 123.644 163.976 123.805C163.976 123.959 163.921 124.095 163.811 124.212C163.701 124.322 163.565 124.377 163.404 124.377Z" fill="#302C60"/>
<path fill-rule="evenodd" clip-rule="evenodd" d="M190.385 58.4091H198.269V25.2891H158.807V58.4091H182.841L190.385 66.4322L190.385 58.4091ZM188.965 62.8492L188.965 56.9892H196.849V26.709H160.227V56.9892H183.455L188.965 62.8492Z" fill="#302C60"/>
<path d="M178.571 36.8975C179.238 36.8975 179.821 36.9984 180.318 37.2002C180.823 37.3929 181.212 37.6773 181.486 38.0535C181.769 38.4204 181.91 38.8608 181.91 39.3746C181.91 39.8884 181.761 40.3471 181.461 40.7508C181.17 41.1545 180.759 41.4985 180.228 41.7829C179.697 42.0582 179.08 42.2738 178.378 42.4297V44.439H178.121V42.3059C178.549 42.0765 178.866 41.8242 179.071 41.549C179.286 41.2737 179.427 40.9756 179.495 40.6544C179.572 40.3333 179.611 39.9939 179.611 39.6361C179.611 38.7645 179.478 38.136 179.213 37.7507C178.947 37.3654 178.605 37.1727 178.185 37.1727C177.937 37.1727 177.723 37.2002 177.543 37.2553C177.372 37.3011 177.247 37.3608 177.17 37.4342C177.444 37.5443 177.65 37.6956 177.787 37.8883C177.932 38.081 178.005 38.3333 178.005 38.6452C178.005 38.9663 177.894 39.2416 177.671 39.4709C177.449 39.6911 177.149 39.8012 176.772 39.8012C176.455 39.8012 176.198 39.6911 176.001 39.4709C175.813 39.2416 175.719 38.9847 175.719 38.7003C175.719 38.3608 175.796 38.0902 175.95 37.8883C176.113 37.6865 176.31 37.5167 176.541 37.3791C176.764 37.2507 177.046 37.1406 177.389 37.0488C177.731 36.9479 178.125 36.8975 178.571 36.8975ZM178.275 45.4849C178.678 45.4849 178.99 45.5858 179.213 45.7876C179.435 45.9803 179.547 46.2739 179.547 46.6684C179.547 47.0629 179.435 47.3611 179.213 47.5629C178.99 47.7556 178.678 47.8519 178.275 47.8519C177.864 47.8519 177.547 47.7556 177.324 47.5629C177.11 47.3611 177.003 47.0629 177.003 46.6684C177.003 46.2739 177.11 45.9803 177.324 45.7876C177.547 45.5858 177.864 45.4849 178.275 45.4849Z" fill="#302C60"/>
<path d="M168.495 38.2303C169.03 37.2497 169.49 36.2181 170.116 35.2983C171.777 32.8587 174.072 31.2754 177.002 30.7404C180.166 30.1627 183.021 30.9419 185.52 32.954C187.197 34.3042 188.362 36.0227 189.089 38.036C189.16 38.2306 189.249 38.2961 189.461 38.2985C191.273 38.3185 192.628 39.6939 192.63 41.5002C192.631 42.6002 192.633 43.7003 192.629 44.8002C192.623 46.4981 191.21 47.9492 189.507 47.8904C188.718 47.863 188.291 48.0869 187.855 48.7773C186.224 51.3572 183.884 53.0068 180.854 53.6248C180.384 53.7207 179.9 53.7506 179.421 53.8024C179.099 53.8373 178.817 53.7403 178.755 53.4602C178.69 53.1612 178.932 52.9269 179.24 52.9102C182.729 52.7204 185.318 51.035 187.203 48.1781C187.235 48.1293 187.266 48.0795 187.295 48.0283C187.305 48.0095 187.306 47.9854 187.323 47.9111C186.908 47.9111 186.505 47.9026 186.102 47.9139C185.773 47.923 185.634 47.7847 185.635 47.4549C185.64 44.5526 185.64 41.6504 185.635 38.7482C185.634 38.4177 185.776 38.2851 186.104 38.2898C186.786 38.2995 187.468 38.2928 188.224 38.2928C187.538 36.4284 186.468 34.8919 184.964 33.6561C183.456 32.4172 181.726 31.6671 179.777 31.493C174.538 31.0251 170.75 34.7484 169.59 38.2927C170.245 38.2927 170.885 38.2925 171.525 38.2928C172.102 38.2929 172.142 38.3332 172.142 38.914C172.142 41.7225 172.142 44.5311 172.142 47.3397C172.142 47.8502 172.083 47.9109 171.582 47.9111C170.476 47.9117 169.369 47.9149 168.262 47.9103C166.577 47.9033 165.159 46.4975 165.152 44.8242C165.146 43.7126 165.149 42.6008 165.151 41.4891C165.155 39.686 166.521 38.3136 168.33 38.2929C168.363 38.2926 168.396 38.2978 168.427 38.2882C168.456 38.2793 168.476 38.2523 168.495 38.2303ZM171.225 39.2055C171.142 39.1956 171.096 39.1855 171.05 39.1857C170.097 39.1873 169.144 39.171 168.192 39.1975C167.03 39.2298 166.08 40.1894 166.06 41.3474C166.04 42.5166 166.04 43.6861 166.058 44.8553C166.076 46.0102 167.027 46.975 168.189 47.0081C169.153 47.0357 170.118 47.0166 171.083 47.0164C171.126 47.0164 171.169 46.998 171.225 46.9855V39.2055ZM186.549 47.0145C187.578 47.0145 188.575 47.0349 189.571 47.0092C190.754 46.9786 191.706 46.0143 191.723 44.8406C191.74 43.6832 191.74 42.5251 191.722 41.3677C191.703 40.188 190.756 39.2293 189.574 39.1968C188.633 39.1708 187.692 39.1862 186.751 39.1862C186.686 39.1862 186.62 39.2113 186.549 39.226V47.0145Z" fill="#302C60"/>
<defs>
<filter id="filter0_d_285_1544" x="0.717325" y="0" width="219.181" height="155.658" filterUnits="userSpaceOnUse" color-interpolation-filters="sRGB">
<feFlood flood-opacity="0" result="BackgroundImageFix"/>
<feColorMatrix in="SourceAlpha" type="matrix" values="0 0 0 0 0 0 0 0 0 0 0 0 0 0 0 0 0 0 127 0" result="hardAlpha"/>
<feOffset dy="1.8984"/>
<feGaussianBlur stdDeviation="0.949199"/>
<feColorMatrix type="matrix" values="0 0 0 0 0 0 0 0 0 0 0 0 0 0 0 0 0 0 0.1 0"/>
<feBlend mode="normal" in2="BackgroundImageFix" result="effect1_dropShadow_285_1544"/>
<feBlend mode="normal" in="SourceGraphic" in2="effect1_dropShadow_285_1544" result="shape"/>
</filter>
</defs>
</svg>
