<svg width="220" height="156" viewBox="0 0 220 156" fill="none" xmlns="http://www.w3.org/2000/svg">
<g filter="url(#filter0_d_285_1551)">
<path d="M2 14.1994C2 6.35727 8.35729 0 16.1994 0H203.185C211.027 0 217.384 6.35729 217.384 14.1994V137.661C217.384 145.503 211.027 151.861 203.185 151.861H16.1994C8.35731 151.861 2 145.503 2 137.661V14.1994Z" fill="#E0E7F5"/>
</g>
<path d="M30.5243 25.6091C33.1083 25.6091 35.021 26.1791 36.2623 27.3191C37.5163 28.4465 38.1433 30.0678 38.1433 32.1831C38.1433 33.5638 37.833 34.7735 37.2123 35.8121C36.6043 36.8381 35.7176 37.6361 34.5523 38.2061C33.387 38.7761 31.9873 39.0611 30.3533 39.0611C30.1506 39.0611 29.8846 39.0548 29.5553 39.0421C29.226 39.0295 28.8776 39.0231 28.5103 39.0231C28.1556 39.0105 27.8326 39.0041 27.5413 39.0041C26.946 39.0041 26.3633 39.0105 25.7933 39.0231C25.2233 39.0231 24.7673 39.0358 24.4253 39.0611V38.6811C24.818 38.6558 25.1093 38.6051 25.2993 38.5291C25.502 38.4531 25.635 38.3011 25.6983 38.0731C25.7743 37.8451 25.8123 37.5031 25.8123 37.0471V27.6231C25.8123 27.1545 25.7743 26.8125 25.6983 26.5971C25.635 26.3691 25.502 26.2171 25.2993 26.1411C25.1093 26.0525 24.818 26.0018 24.4253 25.9891V25.6091C24.7673 25.6218 25.2233 25.6408 25.7933 25.6661C26.3633 25.6788 26.9333 25.6788 27.5033 25.6661C27.9593 25.6535 28.4786 25.6408 29.0613 25.6281C29.644 25.6155 30.1316 25.6091 30.5243 25.6091ZM30.6573 25.9511C30.0746 25.9511 29.6946 26.0588 29.5173 26.2741C29.34 26.4895 29.2513 26.9265 29.2513 27.5851V37.0851C29.2513 37.7438 29.34 38.1808 29.5173 38.3961C29.7073 38.6115 30.0936 38.7191 30.6763 38.7191C31.639 38.7191 32.4053 38.4721 32.9753 37.9781C33.5453 37.4715 33.9506 36.7368 34.1913 35.7741C34.4446 34.8115 34.5713 33.6398 34.5713 32.2591C34.5713 30.8405 34.4383 29.6688 34.1723 28.7441C33.9063 27.8068 33.482 27.1101 32.8993 26.6541C32.3293 26.1855 31.582 25.9511 30.6573 25.9511Z" fill="#302C60"/>
<path d="M44.3177 28.9531C45.2677 28.9531 46.0974 29.1241 46.8067 29.4661C47.5287 29.7955 48.086 30.3401 48.4787 31.1001C48.884 31.8601 49.0867 32.8735 49.0867 34.1401C49.0867 35.4068 48.884 36.4201 48.4787 37.1801C48.086 37.9401 47.5287 38.4911 46.8067 38.8331C46.0974 39.1625 45.2677 39.3271 44.3177 39.3271C43.3804 39.3271 42.5507 39.1625 41.8287 38.8331C41.1194 38.4911 40.562 37.9401 40.1567 37.1801C39.7514 36.4201 39.5487 35.4068 39.5487 34.1401C39.5487 32.8735 39.7514 31.8601 40.1567 31.1001C40.562 30.3401 41.1194 29.7955 41.8287 29.4661C42.5507 29.1241 43.3804 28.9531 44.3177 28.9531ZM44.3177 29.3331C43.8744 29.3331 43.5007 29.7131 43.1967 30.4731C42.9054 31.2205 42.7597 32.4428 42.7597 34.1401C42.7597 35.8375 42.9054 37.0661 43.1967 37.8261C43.5007 38.5735 43.8744 38.9471 44.3177 38.9471C44.7737 38.9471 45.1474 38.5735 45.4387 37.8261C45.73 37.0661 45.8757 35.8375 45.8757 34.1401C45.8757 32.4428 45.73 31.2205 45.4387 30.4731C45.1474 29.7131 44.7737 29.3331 44.3177 29.3331Z" fill="#302C60"/>
<path d="M63.3477 29.2191V29.6181C63.107 29.6941 62.8727 29.8525 62.6447 30.0931C62.4294 30.3338 62.2204 30.7518 62.0177 31.3471L59.4907 38.6431L58.6547 40.4101L54.3037 30.6821C54.0883 30.2008 53.8794 29.9031 53.6767 29.7891C53.474 29.6751 53.303 29.6181 53.1637 29.6181V29.2191C53.6323 29.2571 54.1137 29.2888 54.6077 29.3141C55.1017 29.3268 55.5704 29.3331 56.0137 29.3331C56.571 29.3331 57.065 29.3205 57.4957 29.2951C57.9263 29.2698 58.3317 29.2445 58.7117 29.2191V29.6181C58.471 29.6181 58.243 29.6308 58.0277 29.6561C57.8124 29.6815 57.6603 29.7575 57.5717 29.8841C57.4957 29.9981 57.521 30.2071 57.6477 30.5111L60.0607 36.2871L59.8707 36.4201L61.0297 33.0571C61.2957 32.2845 61.4097 31.6511 61.3717 31.1571C61.3337 30.6631 61.188 30.2895 60.9347 30.0361C60.6814 29.7828 60.3583 29.6435 59.9657 29.6181V29.2191C60.1557 29.2318 60.3647 29.2445 60.5927 29.2571C60.8333 29.2698 61.0677 29.2825 61.2957 29.2951C61.5237 29.2951 61.72 29.2951 61.8847 29.2951C62.1253 29.2951 62.3913 29.2888 62.6827 29.2761C62.974 29.2635 63.1957 29.2445 63.3477 29.2191ZM59.4907 38.6431L58.7307 40.8091C58.6167 41.1258 58.49 41.3981 58.3507 41.6261C58.224 41.8541 58.072 42.0378 57.8947 42.1771C57.7174 42.3165 57.4893 42.4241 57.2107 42.5001C56.9447 42.5888 56.6027 42.6331 56.1847 42.6331C55.8554 42.6331 55.507 42.5761 55.1397 42.4621C54.785 42.3608 54.481 42.1898 54.2277 41.9491C53.987 41.7085 53.8667 41.3855 53.8667 40.9801C53.8667 40.5621 54.0187 40.2265 54.3227 39.9731C54.6267 39.7325 55.0383 39.6121 55.5577 39.6121C56.0263 39.6121 56.4 39.7198 56.6787 39.9351C56.97 40.1505 57.1157 40.4735 57.1157 40.9041C57.1157 41.1701 57.027 41.4298 56.8497 41.6831C56.6723 41.9365 56.3937 42.1265 56.0137 42.2531C56.1023 42.2658 56.1973 42.2721 56.2987 42.2721C56.4127 42.2848 56.5013 42.2911 56.5647 42.2911C56.9573 42.2911 57.3057 42.1645 57.6097 41.9111C57.9137 41.6705 58.1544 41.2905 58.3317 40.7711L58.9967 38.7571L59.4907 38.6431Z" fill="#302C60"/>
<path d="M68.5501 28.9531C69.5001 28.9531 70.3298 29.1241 71.0391 29.4661C71.7611 29.7955 72.3185 30.3401 72.7111 31.1001C73.1165 31.8601 73.3191 32.8735 73.3191 34.1401C73.3191 35.4068 73.1165 36.4201 72.7111 37.1801C72.3185 37.9401 71.7611 38.4911 71.0391 38.8331C70.3298 39.1625 69.5001 39.3271 68.5501 39.3271C67.6128 39.3271 66.7831 39.1625 66.0611 38.8331C65.3518 38.4911 64.7945 37.9401 64.3891 37.1801C63.9838 36.4201 63.7811 35.4068 63.7811 34.1401C63.7811 32.8735 63.9838 31.8601 64.3891 31.1001C64.7945 30.3401 65.3518 29.7955 66.0611 29.4661C66.7831 29.1241 67.6128 28.9531 68.5501 28.9531ZM68.5501 29.3331C68.1068 29.3331 67.7331 29.7131 67.4291 30.4731C67.1378 31.2205 66.9921 32.4428 66.9921 34.1401C66.9921 35.8375 67.1378 37.0661 67.4291 37.8261C67.7331 38.5735 68.1068 38.9471 68.5501 38.9471C69.0061 38.9471 69.3798 38.5735 69.6711 37.8261C69.9625 37.0661 70.1081 35.8375 70.1081 34.1401C70.1081 32.4428 69.9625 31.2205 69.6711 30.4731C69.3798 29.7131 69.0061 29.3331 68.5501 29.3331Z" fill="#302C60"/>
<path d="M84.1361 29.0101V36.9901C84.1361 37.5601 84.2184 37.9845 84.3831 38.2631C84.5604 38.5291 84.8581 38.6621 85.2761 38.6621V39.0611C84.8834 39.0231 84.4907 39.0041 84.0981 39.0041C83.5154 39.0041 82.9707 39.0231 82.4641 39.0611C81.9701 39.0991 81.5014 39.1688 81.0581 39.2701V37.7311C80.7541 38.3011 80.3361 38.7128 79.8041 38.9661C79.2847 39.2068 78.6894 39.3271 78.0181 39.3271C77.4607 39.3271 77.0111 39.2575 76.6691 39.1181C76.3397 38.9788 76.0864 38.7951 75.9091 38.5671C75.7064 38.3391 75.5607 38.0351 75.4721 37.6551C75.3834 37.2625 75.3391 36.7495 75.3391 36.1161V31.2901C75.3391 30.7201 75.2567 30.3021 75.0921 30.0361C74.9274 29.7575 74.6297 29.6181 74.1991 29.6181V29.2191C74.6044 29.2571 74.9971 29.2761 75.3771 29.2761C75.9597 29.2761 76.5044 29.2571 77.0111 29.2191C77.5177 29.1685 77.9864 29.0988 78.4171 29.0101V37.0281C78.4171 37.3195 78.4487 37.5665 78.5121 37.7691C78.5754 37.9718 78.6831 38.1301 78.8351 38.2441C78.9871 38.3581 79.1897 38.4151 79.4431 38.4151C79.7344 38.4151 80.0004 38.3391 80.2411 38.1871C80.4817 38.0351 80.6781 37.8261 80.8301 37.5601C80.9821 37.2815 81.0581 36.9711 81.0581 36.6291V31.2901C81.0581 30.7201 80.9757 30.3021 80.8111 30.0361C80.6464 29.7575 80.3487 29.6181 79.9181 29.6181V29.2191C80.3234 29.2571 80.7161 29.2761 81.0961 29.2761C81.6787 29.2761 82.2234 29.2571 82.7301 29.2191C83.2367 29.1685 83.7054 29.0988 84.1361 29.0101Z" fill="#302C60"/>
<path d="M97.6792 28.9531C98.2365 28.9531 98.6799 29.0228 99.0092 29.1621C99.3512 29.3015 99.6109 29.4788 99.7882 29.6941C99.9909 29.9348 100.137 30.2451 100.225 30.6251C100.327 31.0051 100.377 31.5181 100.377 32.1641V37.2941C100.377 37.8261 100.46 38.1871 100.624 38.3771C100.802 38.5671 101.099 38.6621 101.517 38.6621V39.0611C101.264 39.0485 100.884 39.0358 100.377 39.0231C99.8832 38.9978 99.4019 38.9851 98.9332 38.9851C98.4139 38.9851 97.9135 38.9978 97.4322 39.0231C96.9509 39.0358 96.5899 39.0485 96.3492 39.0611V38.6621C96.7039 38.6621 96.9509 38.5671 97.0902 38.3771C97.2295 38.1871 97.2992 37.8261 97.2992 37.2941V31.2521C97.2992 30.9608 97.2675 30.7138 97.2042 30.5111C97.1409 30.2958 97.0332 30.1375 96.8812 30.0361C96.7292 29.9221 96.5139 29.8651 96.2352 29.8651C95.9439 29.8651 95.6715 29.9411 95.4182 30.0931C95.1775 30.2451 94.9812 30.4605 94.8292 30.7391C94.6899 31.0051 94.6202 31.3091 94.6202 31.6511V37.2941C94.6202 37.8261 94.6899 38.1871 94.8292 38.3771C94.9685 38.5671 95.2155 38.6621 95.5702 38.6621V39.0611C95.3295 39.0485 94.9812 39.0358 94.5252 39.0231C94.0692 38.9978 93.6069 38.9851 93.1382 38.9851C92.6189 38.9851 92.0995 38.9978 91.5802 39.0231C91.0609 39.0358 90.6682 39.0485 90.4022 39.0611V38.6621C90.8202 38.6621 91.1115 38.5671 91.2762 38.3771C91.4535 38.1871 91.5422 37.8261 91.5422 37.2941V31.2901C91.5422 30.7201 91.4599 30.3021 91.2952 30.0361C91.1305 29.7575 90.8329 29.6181 90.4022 29.6181V29.2191C90.8075 29.2571 91.2002 29.2761 91.5802 29.2761C92.1502 29.2761 92.6885 29.2571 93.1952 29.2191C93.7145 29.1685 94.1895 29.0988 94.6202 29.0101V30.5491C94.9242 29.9665 95.3359 29.5548 95.8552 29.3141C96.3872 29.0735 96.9952 28.9531 97.6792 28.9531Z" fill="#302C60"/>
<path d="M107.144 28.9531C108.259 28.9531 109.133 29.2825 109.766 29.9411C110.399 30.5998 110.716 31.6828 110.716 33.1901H104.617L104.598 32.8291H108.132C108.157 32.2085 108.132 31.6385 108.056 31.1191C107.98 30.5871 107.853 30.1628 107.676 29.8461C107.511 29.5295 107.29 29.3711 107.011 29.3711C106.631 29.3711 106.308 29.6435 106.042 30.1881C105.776 30.7328 105.611 31.6575 105.548 32.9621L105.624 33.0951C105.599 33.2345 105.586 33.3801 105.586 33.5321C105.586 33.6715 105.586 33.8235 105.586 33.9881C105.586 34.8621 105.7 35.5588 105.928 36.0781C106.169 36.5975 106.466 36.9648 106.821 37.1801C107.176 37.3955 107.543 37.5031 107.923 37.5031C108.138 37.5031 108.379 37.4715 108.645 37.4081C108.911 37.3448 109.19 37.2118 109.481 37.0091C109.772 36.8065 110.051 36.5088 110.317 36.1161L110.64 36.2301C110.501 36.7241 110.26 37.2118 109.918 37.6931C109.589 38.1618 109.164 38.5545 108.645 38.8711C108.126 39.1751 107.499 39.3271 106.764 39.3271C105.928 39.3271 105.181 39.1561 104.522 38.8141C103.863 38.4595 103.338 37.9085 102.945 37.1611C102.565 36.4011 102.375 35.4131 102.375 34.1971C102.375 32.9938 102.584 32.0058 103.002 31.2331C103.42 30.4605 103.99 29.8905 104.712 29.5231C105.434 29.1431 106.245 28.9531 107.144 28.9531Z" fill="#302C60"/>
<path d="M116.718 28.9531C117.833 28.9531 118.707 29.2825 119.34 29.9411C119.973 30.5998 120.29 31.6828 120.29 33.1901H114.191L114.172 32.8291H117.706C117.731 32.2085 117.706 31.6385 117.63 31.1191C117.554 30.5871 117.427 30.1628 117.25 29.8461C117.085 29.5295 116.864 29.3711 116.585 29.3711C116.205 29.3711 115.882 29.6435 115.616 30.1881C115.35 30.7328 115.185 31.6575 115.122 32.9621L115.198 33.0951C115.173 33.2345 115.16 33.3801 115.16 33.5321C115.16 33.6715 115.16 33.8235 115.16 33.9881C115.16 34.8621 115.274 35.5588 115.502 36.0781C115.743 36.5975 116.04 36.9648 116.395 37.1801C116.75 37.3955 117.117 37.5031 117.497 37.5031C117.712 37.5031 117.953 37.4715 118.219 37.4081C118.485 37.3448 118.764 37.2118 119.055 37.0091C119.346 36.8065 119.625 36.5088 119.891 36.1161L120.214 36.2301C120.075 36.7241 119.834 37.2118 119.492 37.6931C119.163 38.1618 118.738 38.5545 118.219 38.8711C117.7 39.1751 117.073 39.3271 116.338 39.3271C115.502 39.3271 114.755 39.1561 114.096 38.8141C113.437 38.4595 112.912 37.9085 112.519 37.1611C112.139 36.4011 111.949 35.4131 111.949 34.1971C111.949 32.9938 112.158 32.0058 112.576 31.2331C112.994 30.4605 113.564 29.8905 114.286 29.5231C115.008 29.1431 115.819 28.9531 116.718 28.9531Z" fill="#302C60"/>
<path d="M130.871 24.2031V36.9711C130.871 37.5411 130.954 37.9655 131.118 38.2441C131.296 38.5101 131.593 38.6431 132.011 38.6431V39.0421C131.619 39.0041 131.226 38.9851 130.833 38.9851C130.263 38.9851 129.725 39.0041 129.218 39.0421C128.712 39.0801 128.237 39.1498 127.793 39.2511V26.4831C127.793 25.9131 127.711 25.4951 127.546 25.2291C127.394 24.9505 127.097 24.8111 126.653 24.8111V24.4121C127.059 24.4501 127.451 24.4691 127.831 24.4691C128.414 24.4691 128.959 24.4501 129.465 24.4121C129.972 24.3615 130.441 24.2918 130.871 24.2031ZM125.76 28.9531C126.318 28.9531 126.799 29.0355 127.204 29.2001C127.61 29.3521 127.945 29.6118 128.211 29.9791L127.983 30.1691C127.819 29.9538 127.616 29.7955 127.375 29.6941C127.147 29.5928 126.907 29.5421 126.653 29.5421C126.045 29.5421 125.57 29.9221 125.228 30.6821C124.899 31.4295 124.734 32.5821 124.734 34.1401C124.734 35.2295 124.798 36.0908 124.924 36.7241C125.064 37.3448 125.247 37.7818 125.475 38.0351C125.716 38.2885 125.982 38.4151 126.273 38.4151C126.666 38.4151 127.014 38.2695 127.318 37.9781C127.635 37.6741 127.8 37.2751 127.812 36.7811L127.869 37.5791C127.641 38.1618 127.325 38.5988 126.919 38.8901C126.527 39.1815 126.02 39.3271 125.399 39.3271C124.665 39.3271 124 39.1435 123.404 38.7761C122.822 38.4088 122.359 37.8451 122.017 37.0851C121.688 36.3125 121.523 35.3118 121.523 34.0831C121.523 32.9305 121.701 31.9805 122.055 31.2331C122.423 30.4731 122.923 29.9031 123.556 29.5231C124.202 29.1431 124.937 28.9531 125.76 28.9531Z" fill="#302C60"/>
<path d="M28.1303 48.9531C28.6876 48.9531 29.169 49.0165 29.5743 49.1431C29.9796 49.2698 30.2773 49.3901 30.4673 49.5041C30.9106 49.7828 31.1766 49.6055 31.2653 48.9721H31.6643C31.639 49.3395 31.62 49.7828 31.6073 50.3021C31.5946 50.8088 31.5883 51.4928 31.5883 52.3541H31.1893C31.1386 51.8855 31.0246 51.4231 30.8473 50.9671C30.6826 50.5111 30.4356 50.1375 30.1063 49.8461C29.777 49.5421 29.3463 49.3901 28.8143 49.3901C28.4723 49.3901 28.181 49.4915 27.9403 49.6941C27.7123 49.8968 27.5983 50.1755 27.5983 50.5301C27.5983 50.9101 27.7123 51.2458 27.9403 51.5371C28.1683 51.8285 28.4596 52.1071 28.8143 52.3731C29.1816 52.6391 29.549 52.9241 29.9163 53.2281C30.3216 53.5321 30.6826 53.8425 30.9993 54.1591C31.3286 54.4631 31.5883 54.7988 31.7783 55.1661C31.981 55.5208 32.0823 55.9515 32.0823 56.4581C32.0823 57.0281 31.9113 57.5285 31.5693 57.9591C31.2273 58.3898 30.7776 58.7255 30.2203 58.9661C29.663 59.2068 29.0423 59.3271 28.3583 59.3271C27.9403 59.3271 27.573 59.2828 27.2563 59.1941C26.9523 59.1181 26.699 59.0168 26.4963 58.8901C26.3063 58.8015 26.1353 58.7255 25.9833 58.6621C25.844 58.5988 25.7046 58.5545 25.5653 58.5291C25.4386 58.5165 25.331 58.5735 25.2423 58.7001C25.1536 58.8268 25.084 58.9915 25.0333 59.1941H24.6343C24.6596 58.7888 24.6786 58.2948 24.6913 57.7121C24.704 57.1295 24.7103 56.3568 24.7103 55.3941H25.1093C25.1853 56.0781 25.3246 56.6798 25.5273 57.1991C25.7426 57.7185 26.0276 58.1301 26.3823 58.4341C26.737 58.7255 27.155 58.8711 27.6363 58.8711C27.8516 58.8711 28.048 58.8331 28.2253 58.7571C28.4153 58.6685 28.5673 58.5355 28.6813 58.3581C28.808 58.1808 28.8713 57.9528 28.8713 57.6741C28.8713 57.1168 28.694 56.6545 28.3393 56.2871C27.9846 55.9071 27.5476 55.4955 27.0283 55.0521C26.623 54.7101 26.243 54.3745 25.8883 54.0451C25.5463 53.7158 25.2613 53.3548 25.0333 52.9621C24.818 52.5695 24.7103 52.1261 24.7103 51.6321C24.7103 51.0621 24.8686 50.5808 25.1853 50.1881C25.5146 49.7828 25.939 49.4788 26.4583 49.2761C26.9776 49.0608 27.535 48.9531 28.1303 48.9531Z" fill="#302C60"/>
<path d="M42.8704 49.0101V56.9901C42.8704 57.5601 42.9528 57.9845 43.1174 58.2631C43.2948 58.5291 43.5924 58.6621 44.0104 58.6621V59.0611C43.6178 59.0231 43.2251 59.0041 42.8324 59.0041C42.2498 59.0041 41.7051 59.0231 41.1984 59.0611C40.7044 59.0991 40.2358 59.1688 39.7924 59.2701V57.7311C39.4884 58.3011 39.0704 58.7128 38.5384 58.9661C38.0191 59.2068 37.4238 59.3271 36.7524 59.3271C36.1951 59.3271 35.7454 59.2575 35.4034 59.1181C35.0741 58.9788 34.8208 58.7951 34.6434 58.5671C34.4408 58.3391 34.2951 58.0351 34.2064 57.6551C34.1178 57.2625 34.0734 56.7495 34.0734 56.1161V51.2901C34.0734 50.7201 33.9911 50.3021 33.8264 50.0361C33.6618 49.7575 33.3641 49.6181 32.9334 49.6181V49.2191C33.3388 49.2571 33.7314 49.2761 34.1114 49.2761C34.6941 49.2761 35.2388 49.2571 35.7454 49.2191C36.2521 49.1685 36.7208 49.0988 37.1514 49.0101V57.0281C37.1514 57.3195 37.1831 57.5665 37.2464 57.7691C37.3098 57.9718 37.4174 58.1301 37.5694 58.2441C37.7214 58.3581 37.9241 58.4151 38.1774 58.4151C38.4688 58.4151 38.7348 58.3391 38.9754 58.1871C39.2161 58.0351 39.4124 57.8261 39.5644 57.5601C39.7164 57.2815 39.7924 56.9711 39.7924 56.6291V51.2901C39.7924 50.7201 39.7101 50.3021 39.5454 50.0361C39.3808 49.7575 39.0831 49.6181 38.6524 49.6181V49.2191C39.0578 49.2571 39.4504 49.2761 39.8304 49.2761C40.4131 49.2761 40.9578 49.2571 41.4644 49.2191C41.9711 49.1685 42.4398 49.0988 42.8704 49.0101Z" fill="#302C60"/>
<path d="M48.9553 49.0291V60.5811C48.9553 61.1891 49.101 61.5945 49.3923 61.7971C49.6963 61.9998 50.108 62.1011 50.6273 62.1011V62.5001C50.2853 62.4875 49.8103 62.4685 49.2023 62.4431C48.5943 62.4305 47.9547 62.4241 47.2833 62.4241C46.802 62.4241 46.3207 62.4305 45.8393 62.4431C45.3707 62.4685 45.016 62.4875 44.7753 62.5001V62.1011C45.1807 62.1011 45.4657 62.0061 45.6303 61.8161C45.795 61.6388 45.8773 61.2905 45.8773 60.7711V51.3091C45.8773 50.7391 45.795 50.3211 45.6303 50.0551C45.4657 49.7765 45.168 49.6371 44.7373 49.6371V49.2381C45.1427 49.2761 45.5353 49.2951 45.9153 49.2951C46.498 49.2951 47.0427 49.2761 47.5493 49.2381C48.056 49.1875 48.5247 49.1178 48.9553 49.0291ZM51.8623 48.9531C52.5083 48.9531 53.0783 49.1305 53.5723 49.4851C54.079 49.8271 54.478 50.3528 54.7693 51.0621C55.0733 51.7588 55.2253 52.6391 55.2253 53.7031C55.2253 54.7038 55.1113 55.5588 54.8833 56.2681C54.668 56.9775 54.3577 57.5601 53.9523 58.0161C53.5597 58.4721 53.091 58.8078 52.5463 59.0231C52.0143 59.2258 51.438 59.3271 50.8173 59.3271C50.3487 59.3271 49.9117 59.2575 49.5063 59.1181C49.1137 58.9915 48.8033 58.7825 48.5753 58.4911L48.7653 58.2441C48.8793 58.4215 49.0377 58.5545 49.2403 58.6431C49.443 58.7318 49.6583 58.7761 49.8863 58.7761C50.4057 58.7761 50.8173 58.5988 51.1213 58.2441C51.438 57.8768 51.666 57.3448 51.8053 56.6481C51.9447 55.9515 52.0143 55.1028 52.0143 54.1021C52.0143 53.0001 51.951 52.1451 51.8243 51.5371C51.6977 50.9165 51.5267 50.4795 51.3113 50.2261C51.096 49.9728 50.8427 49.8461 50.5513 49.8461C50.146 49.8461 49.7787 50.0045 49.4493 50.3211C49.1327 50.6251 48.9553 51.0431 48.9173 51.5751L48.8793 50.7771C49.1453 50.1691 49.538 49.7131 50.0573 49.4091C50.5767 49.1051 51.1783 48.9531 51.8623 48.9531Z" fill="#302C60"/>
<path d="M60.4778 49.0291V60.5811C60.4778 61.1891 60.6235 61.5945 60.9148 61.7971C61.2188 61.9998 61.6305 62.1011 62.1498 62.1011V62.5001C61.8078 62.4875 61.3328 62.4685 60.7248 62.4431C60.1168 62.4305 59.4771 62.4241 58.8058 62.4241C58.3245 62.4241 57.8431 62.4305 57.3618 62.4431C56.8931 62.4685 56.5385 62.4875 56.2978 62.5001V62.1011C56.7031 62.1011 56.9881 62.0061 57.1528 61.8161C57.3175 61.6388 57.3998 61.2905 57.3998 60.7711V51.3091C57.3998 50.7391 57.3175 50.3211 57.1528 50.0551C56.9881 49.7765 56.6905 49.6371 56.2598 49.6371V49.2381C56.6651 49.2761 57.0578 49.2951 57.4378 49.2951C58.0205 49.2951 58.5651 49.2761 59.0718 49.2381C59.5785 49.1875 60.0471 49.1178 60.4778 49.0291ZM63.3848 48.9531C64.0308 48.9531 64.6008 49.1305 65.0948 49.4851C65.6015 49.8271 66.0005 50.3528 66.2918 51.0621C66.5958 51.7588 66.7478 52.6391 66.7478 53.7031C66.7478 54.7038 66.6338 55.5588 66.4058 56.2681C66.1905 56.9775 65.8801 57.5601 65.4748 58.0161C65.0821 58.4721 64.6135 58.8078 64.0688 59.0231C63.5368 59.2258 62.9605 59.3271 62.3398 59.3271C61.8711 59.3271 61.4341 59.2575 61.0288 59.1181C60.6361 58.9915 60.3258 58.7825 60.0978 58.4911L60.2878 58.2441C60.4018 58.4215 60.5601 58.5545 60.7628 58.6431C60.9655 58.7318 61.1808 58.7761 61.4088 58.7761C61.9281 58.7761 62.3398 58.5988 62.6438 58.2441C62.9605 57.8768 63.1885 57.3448 63.3278 56.6481C63.4671 55.9515 63.5368 55.1028 63.5368 54.1021C63.5368 53.0001 63.4735 52.1451 63.3468 51.5371C63.2201 50.9165 63.0491 50.4795 62.8338 50.2261C62.6185 49.9728 62.3651 49.8461 62.0738 49.8461C61.6685 49.8461 61.3011 50.0045 60.9718 50.3211C60.6551 50.6251 60.4778 51.0431 60.4398 51.5751L60.4018 50.7771C60.6678 50.1691 61.0605 49.7131 61.5798 49.4091C62.0991 49.1051 62.7008 48.9531 63.3848 48.9531Z" fill="#302C60"/>
<path d="M72.8363 48.9531C73.7863 48.9531 74.6159 49.1241 75.3253 49.4661C76.0473 49.7955 76.6046 50.3401 76.9973 51.1001C77.4026 51.8601 77.6053 52.8735 77.6053 54.1401C77.6053 55.4068 77.4026 56.4201 76.9973 57.1801C76.6046 57.9401 76.0473 58.4911 75.3253 58.8331C74.6159 59.1625 73.7863 59.3271 72.8363 59.3271C71.8989 59.3271 71.0693 59.1625 70.3473 58.8331C69.6379 58.4911 69.0806 57.9401 68.6753 57.1801C68.2699 56.4201 68.0673 55.4068 68.0673 54.1401C68.0673 52.8735 68.2699 51.8601 68.6753 51.1001C69.0806 50.3401 69.6379 49.7955 70.3473 49.4661C71.0693 49.1241 71.8989 48.9531 72.8363 48.9531ZM72.8363 49.3331C72.3929 49.3331 72.0193 49.7131 71.7153 50.4731C71.4239 51.2205 71.2783 52.4428 71.2783 54.1401C71.2783 55.8375 71.4239 57.0661 71.7153 57.8261C72.0193 58.5735 72.3929 58.9471 72.8363 58.9471C73.2923 58.9471 73.6659 58.5735 73.9573 57.8261C74.2486 57.0661 74.3943 55.8375 74.3943 54.1401C74.3943 52.4428 74.2486 51.2205 73.9573 50.4731C73.6659 49.7131 73.2923 49.3331 72.8363 49.3331Z" fill="#302C60"/>
<path d="M85.4202 48.9531C85.8509 48.9531 86.1929 49.0481 86.4462 49.2381C86.6995 49.4155 86.8832 49.6498 86.9972 49.9411C87.1112 50.2198 87.1682 50.4985 87.1682 50.7771C87.1682 51.2965 87.0162 51.7145 86.7122 52.0311C86.4209 52.3478 86.0345 52.5061 85.5532 52.5061C85.0465 52.5061 84.6602 52.3921 84.3942 52.1641C84.1282 51.9235 83.9952 51.6068 83.9952 51.2141C83.9952 50.8215 84.0775 50.4985 84.2422 50.2451C84.4195 49.9918 84.6349 49.7765 84.8882 49.5991C84.6982 49.5738 84.5145 49.5991 84.3372 49.6751C84.1345 49.7258 83.9445 49.8208 83.7672 49.9601C83.5899 50.0995 83.4379 50.2641 83.3112 50.4541C83.1845 50.6441 83.0832 50.8531 83.0072 51.0811C82.9439 51.2965 82.9122 51.5181 82.9122 51.7461V57.1041C82.9122 57.7121 83.0452 58.1238 83.3112 58.3391C83.5899 58.5545 84.0269 58.6621 84.6222 58.6621V59.0611C84.3309 59.0485 83.9002 59.0358 83.3302 59.0231C82.7602 58.9978 82.1712 58.9851 81.5632 58.9851C81.0185 58.9851 80.4675 58.9978 79.9102 59.0231C79.3655 59.0358 78.9602 59.0485 78.6942 59.0611V58.6621C79.1122 58.6621 79.4035 58.5671 79.5682 58.3771C79.7455 58.1871 79.8342 57.8261 79.8342 57.2941V51.2901C79.8342 50.7201 79.7519 50.3021 79.5872 50.0361C79.4225 49.7575 79.1249 49.6181 78.6942 49.6181V49.2191C79.0995 49.2571 79.4922 49.2761 79.8722 49.2761C80.4422 49.2761 80.9805 49.2571 81.4872 49.2191C82.0065 49.1685 82.4815 49.0988 82.9122 49.0101V50.5681C83.0642 50.2388 83.2605 49.9538 83.5012 49.7131C83.7545 49.4725 84.0395 49.2888 84.3562 49.1621C84.6855 49.0228 85.0402 48.9531 85.4202 48.9531Z" fill="#302C60"/>
<path d="M91.8162 46.1221V49.2191H93.8682V49.5991H91.8162V57.3701C91.8162 57.6868 91.8732 57.9148 91.9872 58.0541C92.1012 58.1808 92.2722 58.2441 92.5002 58.2441C92.6902 58.2441 92.8866 58.1808 93.0892 58.0541C93.3046 57.9275 93.5009 57.7121 93.6782 57.4081L93.9822 57.5981C93.7415 58.1175 93.4059 58.5355 92.9752 58.8521C92.5572 59.1688 92.0062 59.3271 91.3222 59.3271C90.9042 59.3271 90.5306 59.2701 90.2012 59.1561C89.8846 59.0548 89.6186 58.8965 89.4032 58.6811C89.1246 58.4025 88.9409 58.0605 88.8522 57.6551C88.7762 57.2371 88.7382 56.6988 88.7382 56.0401V49.5991H87.2182V49.2191H88.7382V46.8441C89.3336 46.8441 89.8782 46.7871 90.3722 46.6731C90.8789 46.5591 91.3602 46.3755 91.8162 46.1221Z" fill="#302C60"/>
<path d="M98.5534 44.2031C99.5034 44.2031 100.333 44.3425 101.042 44.6211C101.752 44.8871 102.303 45.2798 102.695 45.7991C103.101 46.3058 103.303 46.9138 103.303 47.6231C103.303 48.3325 103.088 48.9658 102.657 49.5231C102.239 50.0805 101.65 50.5555 100.89 50.9481C100.143 51.3281 99.269 51.6258 98.2683 51.8411V54.6151H97.8884V51.6701C98.5597 51.3535 99.06 51.0051 99.3894 50.6251C99.7314 50.2451 99.9593 49.8335 100.073 49.3901C100.187 48.9468 100.244 48.4781 100.244 47.9841C100.244 46.7808 100.035 45.9131 99.6173 45.3811C99.212 44.8491 98.68 44.5831 98.0214 44.5831C97.6667 44.5831 97.35 44.6211 97.0714 44.6971C96.7927 44.7731 96.5837 44.8745 96.4444 45.0011C96.8244 45.1405 97.1094 45.3368 97.2994 45.5901C97.502 45.8308 97.6033 46.1475 97.6033 46.5401C97.6033 46.9581 97.4514 47.3128 97.1474 47.6041C96.8434 47.8828 96.438 48.0221 95.9314 48.0221C95.5007 48.0221 95.1524 47.8828 94.8864 47.6041C94.6204 47.3128 94.4874 46.9771 94.4874 46.5971C94.4874 46.1791 94.595 45.8371 94.8103 45.5711C95.0257 45.2925 95.298 45.0581 95.6273 44.8681C95.944 44.6908 96.3494 44.5388 96.8434 44.4121C97.3374 44.2728 97.9074 44.2031 98.5534 44.2031ZM98.1163 56.2301C98.6483 56.2301 99.0727 56.3631 99.3894 56.6291C99.706 56.8951 99.8643 57.2751 99.8643 57.7691C99.8643 58.2758 99.706 58.6621 99.3894 58.9281C99.0727 59.1941 98.6483 59.3271 98.1163 59.3271C97.559 59.3271 97.1283 59.1941 96.8243 58.9281C96.5203 58.6621 96.3683 58.2758 96.3683 57.7691C96.3683 57.2751 96.5203 56.8951 96.8243 56.6291C97.1283 56.3631 97.559 56.2301 98.1163 56.2301Z" fill="#302C60"/>
<path d="M30.3486 100.322L28.5886 97.8472C28.3906 97.8692 28.1852 97.8802 27.9726 97.8802H25.9046V100.322H25.0906V92.6222H27.9726C28.9552 92.6222 29.7252 92.8568 30.2826 93.3262C30.8399 93.7955 31.1186 94.4408 31.1186 95.2622C31.1186 95.8635 30.9646 96.3732 30.6566 96.7912C30.3559 97.2018 29.9232 97.4988 29.3586 97.6822L31.2396 100.322H30.3486ZM27.9506 97.1872C28.7132 97.1872 29.2962 97.0185 29.6996 96.6812C30.1029 96.3438 30.3046 95.8708 30.3046 95.2622C30.3046 94.6388 30.1029 94.1622 29.6996 93.8322C29.2962 93.4948 28.7132 93.3262 27.9506 93.3262H25.9046V97.1872H27.9506Z" fill="#302C60"/>
<path d="M37.9128 97.6712H33.0728C33.1168 98.2725 33.3478 98.7602 33.7658 99.1342C34.1838 99.5008 34.7118 99.6842 35.3498 99.6842C35.7091 99.6842 36.0391 99.6218 36.3398 99.4972C36.6404 99.3652 36.9008 99.1745 37.1208 98.9252L37.5608 99.4312C37.3041 99.7392 36.9814 99.9738 36.5928 100.135C36.2114 100.296 35.7898 100.377 35.3278 100.377C34.7338 100.377 34.2058 100.252 33.7438 100.003C33.2891 99.7465 32.9334 99.3945 32.6768 98.9472C32.4201 98.4998 32.2918 97.9938 32.2918 97.4292C32.2918 96.8645 32.4128 96.3585 32.6548 95.9112C32.9041 95.4638 33.2414 95.1155 33.6668 94.8662C34.0994 94.6168 34.5834 94.4922 35.1188 94.4922C35.6541 94.4922 36.1344 94.6168 36.5598 94.8662C36.9851 95.1155 37.3188 95.4638 37.5608 95.9112C37.8028 96.3512 37.9238 96.8572 37.9238 97.4292L37.9128 97.6712ZM35.1188 95.1632C34.5614 95.1632 34.0921 95.3428 33.7108 95.7022C33.3368 96.0542 33.1241 96.5162 33.0728 97.0882H37.1758C37.1244 96.5162 36.9081 96.0542 36.5268 95.7022C36.1528 95.3428 35.6834 95.1632 35.1188 95.1632Z" fill="#302C60"/>
<path d="M41.3763 94.4922C42.1317 94.4922 42.711 94.6828 43.1143 95.0642C43.5177 95.4382 43.7193 95.9955 43.7193 96.7362V100.322H42.9713V99.4202C42.7953 99.7208 42.535 99.9555 42.1903 100.124C41.853 100.293 41.4497 100.377 40.9803 100.377C40.335 100.377 39.8216 100.223 39.4403 99.9152C39.059 99.6072 38.8683 99.2002 38.8683 98.6942C38.8683 98.2028 39.0443 97.8068 39.3963 97.5062C39.7556 97.2055 40.324 97.0552 41.1013 97.0552H42.9383V96.7032C42.9383 96.2045 42.799 95.8268 42.5203 95.5702C42.2417 95.3062 41.8346 95.1742 41.2993 95.1742C40.9326 95.1742 40.5807 95.2365 40.2433 95.3612C39.906 95.4785 39.6163 95.6435 39.3743 95.8562L39.0223 95.2732C39.3156 95.0238 39.6677 94.8332 40.0783 94.7012C40.489 94.5618 40.9217 94.4922 41.3763 94.4922ZM41.1013 99.7612C41.5413 99.7612 41.919 99.6622 42.2343 99.4642C42.5497 99.2588 42.7843 98.9655 42.9383 98.5842V97.6382H41.1233C40.1333 97.6382 39.6383 97.9828 39.6383 98.6722C39.6383 99.0095 39.7666 99.2772 40.0233 99.4752C40.28 99.6658 40.6393 99.7612 41.1013 99.7612Z" fill="#302C60"/>
<path d="M48.2601 100.377C47.6881 100.377 47.1747 100.252 46.7201 100.003C46.2727 99.7538 45.9208 99.4055 45.6641 98.9582C45.4074 98.5035 45.2791 97.9938 45.2791 97.4292C45.2791 96.8645 45.4074 96.3585 45.6641 95.9112C45.9208 95.4638 46.2727 95.1155 46.7201 94.8662C47.1747 94.6168 47.6881 94.4922 48.2601 94.4922C48.7587 94.4922 49.2024 94.5912 49.5911 94.7892C49.9871 94.9798 50.2987 95.2622 50.5261 95.6362L49.9431 96.0322C49.7524 95.7462 49.5104 95.5335 49.2171 95.3942C48.9237 95.2475 48.6047 95.1742 48.2601 95.1742C47.8421 95.1742 47.4644 95.2695 47.1271 95.4602C46.7971 95.6435 46.5367 95.9075 46.3461 96.2522C46.1627 96.5968 46.0711 96.9892 46.0711 97.4292C46.0711 97.8765 46.1627 98.2725 46.3461 98.6172C46.5367 98.9545 46.7971 99.2185 47.1271 99.4092C47.4644 99.5925 47.8421 99.6842 48.2601 99.6842C48.6047 99.6842 48.9237 99.6145 49.2171 99.4752C49.5104 99.3358 49.7524 99.1232 49.9431 98.8372L50.5261 99.2332C50.2987 99.6072 49.9871 99.8932 49.5911 100.091C49.1951 100.282 48.7514 100.377 48.2601 100.377Z" fill="#302C60"/>
<path d="M54.9224 94.4922C55.6484 94.4922 56.2241 94.7048 56.6494 95.1302C57.0821 95.5482 57.2984 96.1605 57.2984 96.9672V100.322H56.5174V97.0442C56.5174 96.4428 56.3671 95.9845 56.0664 95.6692C55.7657 95.3538 55.3367 95.1962 54.7794 95.1962C54.1561 95.1962 53.6611 95.3832 53.2944 95.7572C52.9351 96.1238 52.7554 96.6335 52.7554 97.2862V100.322H51.9744V92.1602H52.7554V95.5482C52.9681 95.2108 53.2614 94.9505 53.6354 94.7672C54.0094 94.5838 54.4384 94.4922 54.9224 94.4922Z" fill="#302C60"/>
<path d="M64.6626 100.377C64.1053 100.377 63.603 100.252 63.1556 100.003C62.7083 99.7465 62.3563 99.3945 62.0996 98.9472C61.843 98.4998 61.7146 97.9938 61.7146 97.4292C61.7146 96.8645 61.843 96.3585 62.0996 95.9112C62.3563 95.4638 62.7083 95.1155 63.1556 94.8662C63.603 94.6168 64.1053 94.4922 64.6626 94.4922C65.22 94.4922 65.7223 94.6168 66.1696 94.8662C66.617 95.1155 66.9653 95.4638 67.2146 95.9112C67.4713 96.3585 67.5996 96.8645 67.5996 97.4292C67.5996 97.9938 67.4713 98.4998 67.2146 98.9472C66.9653 99.3945 66.617 99.7465 66.1696 100.003C65.7223 100.252 65.22 100.377 64.6626 100.377ZM64.6626 99.6842C65.0733 99.6842 65.44 99.5925 65.7626 99.4092C66.0926 99.2185 66.3493 98.9508 66.5326 98.6062C66.716 98.2615 66.8076 97.8692 66.8076 97.4292C66.8076 96.9892 66.716 96.5968 66.5326 96.2522C66.3493 95.9075 66.0926 95.6435 65.7626 95.4602C65.44 95.2695 65.0733 95.1742 64.6626 95.1742C64.252 95.1742 63.8816 95.2695 63.5516 95.4602C63.229 95.6435 62.9723 95.9075 62.7816 96.2522C62.5983 96.5968 62.5066 96.9892 62.5066 97.4292C62.5066 97.8692 62.5983 98.2615 62.7816 98.6062C62.9723 98.9508 63.229 99.2185 63.5516 99.4092C63.8816 99.5925 64.252 99.6842 64.6626 99.6842Z" fill="#302C60"/>
<path d="M74.4081 94.5362V100.322H73.6601V99.2662C73.4548 99.6182 73.1724 99.8932 72.8131 100.091C72.4538 100.282 72.0431 100.377 71.5811 100.377C70.8258 100.377 70.2281 100.168 69.7881 99.7502C69.3554 99.3248 69.1391 98.7052 69.1391 97.8912V94.5362H69.9201V97.8142C69.9201 98.4228 70.0704 98.8848 70.3711 99.2002C70.6718 99.5155 71.1008 99.6732 71.6581 99.6732C72.2668 99.6732 72.7471 99.4898 73.0991 99.1232C73.4511 98.7492 73.6271 98.2322 73.6271 97.5722V94.5362H74.4081Z" fill="#302C60"/>
<path d="M79.6425 99.9702C79.4958 100.102 79.3125 100.205 79.0925 100.278C78.8798 100.344 78.6561 100.377 78.4215 100.377C77.8788 100.377 77.4608 100.23 77.1675 99.9372C76.8741 99.6438 76.7275 99.2295 76.7275 98.6942V95.1962H75.6935V94.5362H76.7275V93.2712H77.5085V94.5362H79.2685V95.1962H77.5085V98.6502C77.5085 98.9948 77.5928 99.2588 77.7615 99.4422C77.9375 99.6182 78.1868 99.7062 78.5095 99.7062C78.6708 99.7062 78.8248 99.6805 78.9715 99.6292C79.1255 99.5778 79.2575 99.5045 79.3675 99.4092L79.6425 99.9702Z" fill="#302C60"/>
<path d="M88.8051 94.5362L86.2311 100.322H85.4281L82.8651 94.5362H83.6791L85.8461 99.4642L88.0351 94.5362H88.8051Z" fill="#302C60"/>
<path d="M89.905 94.5362H90.6861V100.322H89.905V94.5362ZM90.301 93.2712C90.1397 93.2712 90.0041 93.2162 89.8941 93.1062C89.7841 92.9962 89.729 92.8642 89.729 92.7102C89.729 92.5635 89.7841 92.4352 89.8941 92.3252C90.0041 92.2152 90.1397 92.1602 90.301 92.1602C90.4624 92.1602 90.598 92.2152 90.708 92.3252C90.818 92.4278 90.873 92.5525 90.873 92.6992C90.873 92.8605 90.818 92.9962 90.708 93.1062C90.598 93.2162 90.4624 93.2712 90.301 93.2712Z" fill="#302C60"/>
<path d="M94.8831 94.4922C95.6385 94.4922 96.2178 94.6828 96.6211 95.0642C97.0245 95.4382 97.2262 95.9955 97.2262 96.7362V100.322H96.4781V99.4202C96.3021 99.7208 96.0418 99.9555 95.6972 100.124C95.3598 100.293 94.9565 100.377 94.4872 100.377C93.8418 100.377 93.3285 100.223 92.9472 99.9152C92.5658 99.6072 92.3752 99.2002 92.3752 98.6942C92.3752 98.2028 92.5512 97.8068 92.9032 97.5062C93.2625 97.2055 93.8308 97.0552 94.6081 97.0552H96.4452V96.7032C96.4452 96.2045 96.3058 95.8268 96.0272 95.5702C95.7485 95.3062 95.3415 95.1742 94.8062 95.1742C94.4395 95.1742 94.0875 95.2365 93.7502 95.3612C93.4128 95.4785 93.1231 95.6435 92.8811 95.8562L92.5292 95.2732C92.8225 95.0238 93.1745 94.8332 93.5852 94.7012C93.9958 94.5618 94.4285 94.4922 94.8831 94.4922ZM94.6081 99.7612C95.0481 99.7612 95.4258 99.6622 95.7411 99.4642C96.0565 99.2588 96.2912 98.9655 96.4452 98.5842V97.6382H94.6301C93.6401 97.6382 93.1451 97.9828 93.1451 98.6722C93.1451 99.0095 93.2735 99.2772 93.5302 99.4752C93.7868 99.6658 94.1461 99.7612 94.6081 99.7612Z" fill="#302C60"/>
<path d="M102.391 92.6222H105.526C106.34 92.6222 107.059 92.7872 107.682 93.1172C108.306 93.4398 108.79 93.8945 109.134 94.4812C109.479 95.0605 109.651 95.7242 109.651 96.4722C109.651 97.2202 109.479 97.8875 109.134 98.4742C108.79 99.0535 108.306 99.5082 107.682 99.8382C107.059 100.161 106.34 100.322 105.526 100.322H102.391V92.6222ZM105.482 99.6182C106.157 99.6182 106.747 99.4862 107.253 99.2222C107.759 98.9508 108.152 98.5805 108.43 98.1112C108.709 97.6345 108.848 97.0882 108.848 96.4722C108.848 95.8562 108.709 95.3135 108.43 94.8442C108.152 94.3675 107.759 93.9972 107.253 93.7332C106.747 93.4618 106.157 93.3262 105.482 93.3262H103.205V99.6182H105.482Z" fill="#302C60"/>
<path d="M111.314 94.5362H112.095V100.322H111.314V94.5362ZM111.71 93.2712C111.549 93.2712 111.413 93.2162 111.303 93.1062C111.193 92.9962 111.138 92.8642 111.138 92.7102C111.138 92.5635 111.193 92.4352 111.303 92.3252C111.413 92.2152 111.549 92.1602 111.71 92.1602C111.872 92.1602 112.007 92.2152 112.117 92.3252C112.227 92.4278 112.282 92.5525 112.282 92.6992C112.282 92.8605 112.227 92.9962 112.117 93.1062C112.007 93.2162 111.872 93.2712 111.71 93.2712Z" fill="#302C60"/>
<path d="M115.819 100.377C115.35 100.377 114.899 100.311 114.466 100.179C114.041 100.04 113.707 99.8675 113.465 99.6622L113.817 99.0462C114.059 99.2368 114.364 99.3945 114.73 99.5192C115.097 99.6365 115.478 99.6952 115.874 99.6952C116.402 99.6952 116.791 99.6145 117.04 99.4532C117.297 99.2845 117.425 99.0498 117.425 98.7492C117.425 98.5365 117.356 98.3715 117.216 98.2542C117.077 98.1295 116.901 98.0378 116.688 97.9792C116.476 97.9132 116.193 97.8508 115.841 97.7922C115.372 97.7042 114.994 97.6162 114.708 97.5282C114.422 97.4328 114.177 97.2752 113.971 97.0552C113.773 96.8352 113.674 96.5308 113.674 96.1422C113.674 95.6582 113.876 95.2622 114.279 94.9542C114.683 94.6462 115.244 94.4922 115.962 94.4922C116.336 94.4922 116.71 94.5435 117.084 94.6462C117.458 94.7415 117.766 94.8698 118.008 95.0312L117.667 95.6582C117.191 95.3282 116.622 95.1632 115.962 95.1632C115.464 95.1632 115.086 95.2512 114.829 95.4272C114.58 95.6032 114.455 95.8342 114.455 96.1202C114.455 96.3402 114.525 96.5162 114.664 96.6482C114.811 96.7802 114.991 96.8792 115.203 96.9452C115.416 97.0038 115.709 97.0662 116.083 97.1322C116.545 97.2202 116.916 97.3082 117.194 97.3962C117.473 97.4842 117.711 97.6345 117.909 97.8472C118.107 98.0598 118.206 98.3532 118.206 98.7272C118.206 99.2332 117.994 99.6365 117.568 99.9372C117.15 100.23 116.567 100.377 115.819 100.377Z" fill="#302C60"/>
<path d="M122.048 100.377C121.476 100.377 120.963 100.252 120.508 100.003C120.061 99.7538 119.709 99.4055 119.452 98.9582C119.195 98.5035 119.067 97.9938 119.067 97.4292C119.067 96.8645 119.195 96.3585 119.452 95.9112C119.709 95.4638 120.061 95.1155 120.508 94.8662C120.963 94.6168 121.476 94.4922 122.048 94.4922C122.547 94.4922 122.99 94.5912 123.379 94.7892C123.775 94.9798 124.087 95.2622 124.314 95.6362L123.731 96.0322C123.54 95.7462 123.298 95.5335 123.005 95.3942C122.712 95.2475 122.393 95.1742 122.048 95.1742C121.63 95.1742 121.253 95.2695 120.915 95.4602C120.585 95.6435 120.325 95.9075 120.134 96.2522C119.951 96.5968 119.859 96.9892 119.859 97.4292C119.859 97.8765 119.951 98.2725 120.134 98.6172C120.325 98.9545 120.585 99.2185 120.915 99.4092C121.253 99.5925 121.63 99.6842 122.048 99.6842C122.393 99.6842 122.712 99.6145 123.005 99.4752C123.298 99.3358 123.54 99.1232 123.731 98.8372L124.314 99.2332C124.087 99.6072 123.775 99.8932 123.379 100.091C122.983 100.282 122.539 100.377 122.048 100.377Z" fill="#302C60"/>
<path d="M128.117 100.377C127.559 100.377 127.057 100.252 126.61 100.003C126.162 99.7465 125.81 99.3945 125.554 98.9472C125.297 98.4998 125.169 97.9938 125.169 97.4292C125.169 96.8645 125.297 96.3585 125.554 95.9112C125.81 95.4638 126.162 95.1155 126.61 94.8662C127.057 94.6168 127.559 94.4922 128.117 94.4922C128.674 94.4922 129.176 94.6168 129.624 94.8662C130.071 95.1155 130.419 95.4638 130.669 95.9112C130.925 96.3585 131.054 96.8645 131.054 97.4292C131.054 97.9938 130.925 98.4998 130.669 98.9472C130.419 99.3945 130.071 99.7465 129.624 100.003C129.176 100.252 128.674 100.377 128.117 100.377ZM128.117 99.6842C128.527 99.6842 128.894 99.5925 129.217 99.4092C129.547 99.2185 129.803 98.9508 129.987 98.6062C130.17 98.2615 130.262 97.8692 130.262 97.4292C130.262 96.9892 130.17 96.5968 129.987 96.2522C129.803 95.9075 129.547 95.6435 129.217 95.4602C128.894 95.2695 128.527 95.1742 128.117 95.1742C127.706 95.1742 127.336 95.2695 127.006 95.4602C126.683 95.6435 126.426 95.9075 126.236 96.2522C126.052 96.5968 125.961 96.9892 125.961 97.4292C125.961 97.8692 126.052 98.2615 126.236 98.6062C126.426 98.9508 126.683 99.2185 127.006 99.4092C127.336 99.5925 127.706 99.6842 128.117 99.6842Z" fill="#302C60"/>
<path d="M133.396 95.6692C133.58 95.2805 133.851 94.9872 134.21 94.7892C134.577 94.5912 135.028 94.4922 135.563 94.4922V95.2512L135.376 95.2402C134.768 95.2402 134.291 95.4272 133.946 95.8012C133.602 96.1752 133.429 96.6995 133.429 97.3742V100.322H132.648V94.5362H133.396V95.6692Z" fill="#302C60"/>
<path d="M142.204 92.1602V100.322H141.456V99.1782C141.221 99.5668 140.909 99.8638 140.521 100.069C140.139 100.274 139.707 100.377 139.223 100.377C138.68 100.377 138.189 100.252 137.749 100.003C137.309 99.7538 136.964 99.4055 136.715 98.9582C136.465 98.5108 136.341 98.0012 136.341 97.4292C136.341 96.8572 136.465 96.3475 136.715 95.9002C136.964 95.4528 137.309 95.1082 137.749 94.8662C138.189 94.6168 138.68 94.4922 139.223 94.4922C139.692 94.4922 140.114 94.5912 140.488 94.7892C140.869 94.9798 141.181 95.2622 141.423 95.6362V92.1602H142.204ZM139.289 99.6842C139.692 99.6842 140.055 99.5925 140.378 99.4092C140.708 99.2185 140.964 98.9508 141.148 98.6062C141.338 98.2615 141.434 97.8692 141.434 97.4292C141.434 96.9892 141.338 96.5968 141.148 96.2522C140.964 95.9075 140.708 95.6435 140.378 95.4602C140.055 95.2695 139.692 95.1742 139.289 95.1742C138.878 95.1742 138.508 95.2695 138.178 95.4602C137.855 95.6435 137.598 95.9075 137.408 96.2522C137.224 96.5968 137.133 96.9892 137.133 97.4292C137.133 97.8692 137.224 98.2615 137.408 98.6062C137.598 98.9508 137.855 99.2185 138.178 99.4092C138.508 99.5925 138.878 99.6842 139.289 99.6842Z" fill="#302C60"/>
<path d="M144.467 99.1782C144.635 99.1782 144.775 99.2368 144.885 99.3542C144.995 99.4642 145.05 99.6035 145.05 99.7722C145.05 99.8602 145.035 99.9555 145.006 100.058C144.984 100.161 144.947 100.278 144.896 100.41L144.434 101.928H143.906L144.28 100.333C144.162 100.296 144.067 100.23 143.994 100.135C143.92 100.032 143.884 99.9115 143.884 99.7722C143.884 99.6035 143.939 99.4642 144.049 99.3542C144.159 99.2368 144.298 99.1782 144.467 99.1782Z" fill="#302C60"/>
<path d="M154.627 97.6712H149.787C149.831 98.2725 150.062 98.7602 150.48 99.1342C150.898 99.5008 151.426 99.6842 152.064 99.6842C152.423 99.6842 152.753 99.6218 153.054 99.4972C153.354 99.3652 153.615 99.1745 153.835 98.9252L154.275 99.4312C154.018 99.7392 153.695 99.9738 153.307 100.135C152.925 100.296 152.504 100.377 152.042 100.377C151.448 100.377 150.92 100.252 150.458 100.003C150.003 99.7465 149.647 99.3945 149.391 98.9472C149.134 98.4998 149.006 97.9938 149.006 97.4292C149.006 96.8645 149.127 96.3585 149.369 95.9112C149.618 95.4638 149.955 95.1155 150.381 94.8662C150.813 94.6168 151.297 94.4922 151.833 94.4922C152.368 94.4922 152.848 94.6168 153.274 94.8662C153.699 95.1155 154.033 95.4638 154.275 95.9112C154.517 96.3512 154.638 96.8572 154.638 97.4292L154.627 97.6712ZM151.833 95.1632C151.275 95.1632 150.806 95.3428 150.425 95.7022C150.051 96.0542 149.838 96.5162 149.787 97.0882H153.89C153.838 96.5162 153.622 96.0542 153.241 95.7022C152.867 95.3428 152.397 95.1632 151.833 95.1632Z" fill="#302C60"/>
<path d="M163.443 94.4922C164.169 94.4922 164.738 94.7012 165.148 95.1192C165.566 95.5372 165.775 96.1532 165.775 96.9672V100.322H164.994V97.0442C164.994 96.4428 164.848 95.9845 164.554 95.6692C164.268 95.3538 163.861 95.1962 163.333 95.1962C162.732 95.1962 162.259 95.3832 161.914 95.7572C161.57 96.1238 161.397 96.6335 161.397 97.2862V100.322H160.616V97.0442C160.616 96.4428 160.47 95.9845 160.176 95.6692C159.89 95.3538 159.48 95.1962 158.944 95.1962C158.35 95.1962 157.877 95.3832 157.525 95.7572C157.181 96.1238 157.008 96.6335 157.008 97.2862V100.322H156.227V94.5362H156.975V95.5922C157.181 95.2402 157.467 94.9688 157.833 94.7782C158.2 94.5875 158.622 94.4922 159.098 94.4922C159.582 94.4922 160 94.5948 160.352 94.8002C160.712 95.0055 160.979 95.3098 161.155 95.7132C161.368 95.3318 161.672 95.0348 162.068 94.8222C162.472 94.6022 162.93 94.4922 163.443 94.4922Z" fill="#302C60"/>
<path d="M169.917 94.4922C170.673 94.4922 171.252 94.6828 171.655 95.0642C172.059 95.4382 172.26 95.9955 172.26 96.7362V100.322H171.512V99.4202C171.336 99.7208 171.076 99.9555 170.731 100.124C170.394 100.293 169.991 100.377 169.521 100.377C168.876 100.377 168.363 100.223 167.981 99.9152C167.6 99.6072 167.409 99.2002 167.409 98.6942C167.409 98.2028 167.585 97.8068 167.937 97.5062C168.297 97.2055 168.865 97.0552 169.642 97.0552H171.479V96.7032C171.479 96.2045 171.34 95.8268 171.061 95.5702C170.783 95.3062 170.376 95.1742 169.84 95.1742C169.474 95.1742 169.122 95.2365 168.784 95.3612C168.447 95.4785 168.157 95.6435 167.915 95.8562L167.563 95.2732C167.857 95.0238 168.209 94.8332 168.619 94.7012C169.03 94.5618 169.463 94.4922 169.917 94.4922ZM169.642 99.7612C170.082 99.7612 170.46 99.6622 170.775 99.4642C171.091 99.2588 171.325 98.9655 171.479 98.5842V97.6382H169.664C168.674 97.6382 168.179 97.9828 168.179 98.6722C168.179 99.0095 168.308 99.2772 168.564 99.4752C168.821 99.6658 169.18 99.7612 169.642 99.7612Z" fill="#302C60"/>
<path d="M174.382 94.5362H175.163V100.322H174.382V94.5362ZM174.778 93.2712C174.616 93.2712 174.481 93.2162 174.371 93.1062C174.261 92.9962 174.206 92.8642 174.206 92.7102C174.206 92.5635 174.261 92.4352 174.371 92.3252C174.481 92.2152 174.616 92.1602 174.778 92.1602C174.939 92.1602 175.075 92.2152 175.185 92.3252C175.295 92.4278 175.35 92.5525 175.35 92.6992C175.35 92.8605 175.295 92.9962 175.185 93.1062C175.075 93.2162 174.939 93.2712 174.778 93.2712Z" fill="#302C60"/>
<path d="M177.336 92.1602H178.117V100.322H177.336V92.1602Z" fill="#302C60"/>
<path d="M181.841 100.377C181.371 100.377 180.92 100.311 180.488 100.179C180.062 100.04 179.729 99.8675 179.487 99.6622L179.839 99.0462C180.081 99.2368 180.385 99.3945 180.752 99.5192C181.118 99.6365 181.5 99.6952 181.896 99.6952C182.424 99.6952 182.812 99.6145 183.062 99.4532C183.318 99.2845 183.447 99.0498 183.447 98.7492C183.447 98.5365 183.377 98.3715 183.238 98.2542C183.098 98.1295 182.922 98.0378 182.71 97.9792C182.497 97.9132 182.215 97.8508 181.863 97.7922C181.393 97.7042 181.016 97.6162 180.73 97.5282C180.444 97.4328 180.198 97.2752 179.993 97.0552C179.795 96.8352 179.696 96.5308 179.696 96.1422C179.696 95.6582 179.897 95.2622 180.301 94.9542C180.704 94.6462 181.265 94.4922 181.984 94.4922C182.358 94.4922 182.732 94.5435 183.106 94.6462C183.48 94.7415 183.788 94.8698 184.03 95.0312L183.689 95.6582C183.212 95.3282 182.644 95.1632 181.984 95.1632C181.485 95.1632 181.107 95.2512 180.851 95.4272C180.601 95.6032 180.477 95.8342 180.477 96.1202C180.477 96.3402 180.546 96.5162 180.686 96.6482C180.832 96.7802 181.012 96.8792 181.225 96.9452C181.437 97.0038 181.731 97.0662 182.105 97.1322C182.567 97.2202 182.937 97.3082 183.216 97.3962C183.494 97.4842 183.733 97.6345 183.931 97.8472C184.129 98.0598 184.228 98.3532 184.228 98.7272C184.228 99.2332 184.015 99.6365 183.59 99.9372C183.172 100.23 182.589 100.377 181.841 100.377Z" fill="#302C60"/>
<path d="M26.9496 106.492C27.7049 106.492 28.2842 106.683 28.6876 107.064C29.0909 107.438 29.2926 107.995 29.2926 108.736V112.322H28.5446V111.42C28.3686 111.721 28.1082 111.955 27.7636 112.124C27.4262 112.293 27.0229 112.377 26.5536 112.377C25.9082 112.377 25.3949 112.223 25.0136 111.915C24.6322 111.607 24.4416 111.2 24.4416 110.694C24.4416 110.203 24.6176 109.807 24.9696 109.506C25.3289 109.205 25.8972 109.055 26.6746 109.055H28.5116V108.703C28.5116 108.204 28.3722 107.827 28.0936 107.57C27.8149 107.306 27.4079 107.174 26.8726 107.174C26.5059 107.174 26.1539 107.236 25.8166 107.361C25.4792 107.478 25.1896 107.643 24.9476 107.856L24.5956 107.273C24.8889 107.024 25.2409 106.833 25.6516 106.701C26.0622 106.562 26.4949 106.492 26.9496 106.492ZM26.6746 111.761C27.1146 111.761 27.4922 111.662 27.8076 111.464C28.1229 111.259 28.3576 110.965 28.5116 110.584V109.638H26.6966C25.7066 109.638 25.2116 109.983 25.2116 110.672C25.2116 111.009 25.3399 111.277 25.5966 111.475C25.8532 111.666 26.2126 111.761 26.6746 111.761Z" fill="#302C60"/>
<path d="M34.3618 106.492C35.0878 106.492 35.6635 106.705 36.0888 107.13C36.5215 107.548 36.7378 108.16 36.7378 108.967V112.322H35.9568V109.044C35.9568 108.443 35.8065 107.984 35.5058 107.669C35.2052 107.354 34.7762 107.196 34.2188 107.196C33.5955 107.196 33.1005 107.383 32.7338 107.757C32.3745 108.124 32.1948 108.633 32.1948 109.286V112.322H31.4138V106.536H32.1618V107.603C32.3745 107.251 32.6678 106.98 33.0418 106.789C33.4232 106.591 33.8632 106.492 34.3618 106.492Z" fill="#302C60"/>
<path d="M44.1597 104.16V112.322H43.4117V111.178C43.177 111.567 42.8653 111.864 42.4767 112.069C42.0953 112.274 41.6627 112.377 41.1787 112.377C40.636 112.377 40.1447 112.252 39.7047 112.003C39.2647 111.754 38.92 111.405 38.6707 110.958C38.4213 110.511 38.2967 110.001 38.2967 109.429C38.2967 108.857 38.4213 108.347 38.6707 107.9C38.92 107.453 39.2647 107.108 39.7047 106.866C40.1447 106.617 40.636 106.492 41.1787 106.492C41.648 106.492 42.0697 106.591 42.4437 106.789C42.825 106.98 43.1367 107.262 43.3787 107.636V104.16H44.1597ZM41.2447 111.684C41.648 111.684 42.011 111.592 42.3337 111.409C42.6637 111.218 42.9203 110.951 43.1037 110.606C43.2943 110.261 43.3897 109.869 43.3897 109.429C43.3897 108.989 43.2943 108.597 43.1037 108.252C42.9203 107.907 42.6637 107.643 42.3337 107.46C42.011 107.269 41.648 107.174 41.2447 107.174C40.834 107.174 40.4637 107.269 40.1337 107.46C39.811 107.643 39.5543 107.907 39.3637 108.252C39.1803 108.597 39.0887 108.989 39.0887 109.429C39.0887 109.869 39.1803 110.261 39.3637 110.606C39.5543 110.951 39.811 111.218 40.1337 111.409C40.4637 111.592 40.834 111.684 41.2447 111.684Z" fill="#302C60"/>
<path d="M49.9616 107.669C50.145 107.28 50.4163 106.987 50.7756 106.789C51.1423 106.591 51.5933 106.492 52.1286 106.492V107.251L51.9416 107.24C51.333 107.24 50.8563 107.427 50.5116 107.801C50.167 108.175 49.9946 108.699 49.9946 109.374V112.322H49.2136V106.536H49.9616V107.669Z" fill="#302C60"/>
<path d="M58.527 109.671H53.687C53.731 110.272 53.962 110.76 54.38 111.134C54.798 111.501 55.326 111.684 55.964 111.684C56.3234 111.684 56.6534 111.622 56.954 111.497C57.2547 111.365 57.515 111.174 57.735 110.925L58.175 111.431C57.9184 111.739 57.5957 111.974 57.207 112.135C56.8257 112.296 56.404 112.377 55.942 112.377C55.348 112.377 54.82 112.252 54.358 112.003C53.9034 111.746 53.5477 111.394 53.291 110.947C53.0344 110.5 52.906 109.994 52.906 109.429C52.906 108.864 53.027 108.358 53.269 107.911C53.5184 107.464 53.8557 107.115 54.281 106.866C54.7137 106.617 55.1977 106.492 55.733 106.492C56.2684 106.492 56.7487 106.617 57.174 106.866C57.5994 107.115 57.933 107.464 58.175 107.911C58.417 108.351 58.538 108.857 58.538 109.429L58.527 109.671ZM55.733 107.163C55.1757 107.163 54.7064 107.343 54.325 107.702C53.951 108.054 53.7384 108.516 53.687 109.088H57.79C57.7387 108.516 57.5224 108.054 57.141 107.702C56.767 107.343 56.2977 107.163 55.733 107.163Z" fill="#302C60"/>
<path d="M63.1087 106.492C63.6514 106.492 64.1427 106.617 64.5827 106.866C65.0227 107.108 65.3674 107.453 65.6167 107.9C65.866 108.347 65.9907 108.857 65.9907 109.429C65.9907 110.008 65.866 110.522 65.6167 110.969C65.3674 111.416 65.0227 111.765 64.5827 112.014C64.15 112.256 63.6587 112.377 63.1087 112.377C62.6394 112.377 62.214 112.282 61.8327 112.091C61.4587 111.893 61.1507 111.607 60.9087 111.233V114.456H60.1277V106.536H60.8757V107.68C61.1104 107.299 61.4184 107.005 61.7997 106.8C62.1884 106.595 62.6247 106.492 63.1087 106.492ZM63.0537 111.684C63.457 111.684 63.8237 111.592 64.1537 111.409C64.4837 111.218 64.7404 110.951 64.9237 110.606C65.1144 110.261 65.2097 109.869 65.2097 109.429C65.2097 108.989 65.1144 108.6 64.9237 108.263C64.7404 107.918 64.4837 107.651 64.1537 107.46C63.8237 107.269 63.457 107.174 63.0537 107.174C62.643 107.174 62.2727 107.269 61.9427 107.46C61.62 107.651 61.3634 107.918 61.1727 108.263C60.9894 108.6 60.8977 108.989 60.8977 109.429C60.8977 109.869 60.9894 110.261 61.1727 110.606C61.3634 110.951 61.62 111.218 61.9427 111.409C62.2727 111.592 62.643 111.684 63.0537 111.684Z" fill="#302C60"/>
<path d="M69.9478 112.377C69.3905 112.377 68.8881 112.252 68.4408 112.003C67.9935 111.746 67.6415 111.394 67.3848 110.947C67.1281 110.5 66.9998 109.994 66.9998 109.429C66.9998 108.864 67.1281 108.358 67.3848 107.911C67.6415 107.464 67.9935 107.115 68.4408 106.866C68.8881 106.617 69.3905 106.492 69.9478 106.492C70.5051 106.492 71.0075 106.617 71.4548 106.866C71.9021 107.115 72.2505 107.464 72.4998 107.911C72.7565 108.358 72.8848 108.864 72.8848 109.429C72.8848 109.994 72.7565 110.5 72.4998 110.947C72.2505 111.394 71.9021 111.746 71.4548 112.003C71.0075 112.252 70.5051 112.377 69.9478 112.377ZM69.9478 111.684C70.3585 111.684 70.7251 111.592 71.0478 111.409C71.3778 111.218 71.6345 110.951 71.8178 110.606C72.0011 110.261 72.0928 109.869 72.0928 109.429C72.0928 108.989 72.0011 108.597 71.8178 108.252C71.6345 107.907 71.3778 107.643 71.0478 107.46C70.7251 107.269 70.3585 107.174 69.9478 107.174C69.5371 107.174 69.1668 107.269 68.8368 107.46C68.5141 107.643 68.2575 107.907 68.0668 108.252C67.8835 108.597 67.7918 108.989 67.7918 109.429C67.7918 109.869 67.8835 110.261 68.0668 110.606C68.2575 110.951 68.5141 111.218 68.8368 111.409C69.1668 111.592 69.5371 111.684 69.9478 111.684Z" fill="#302C60"/>
<path d="M76.0303 112.377C75.5609 112.377 75.1099 112.311 74.6773 112.179C74.2519 112.04 73.9183 111.867 73.6763 111.662L74.0283 111.046C74.2703 111.237 74.5746 111.394 74.9413 111.519C75.3079 111.636 75.6893 111.695 76.0853 111.695C76.6133 111.695 77.0019 111.614 77.2513 111.453C77.5079 111.284 77.6363 111.05 77.6363 110.749C77.6363 110.536 77.5666 110.371 77.4273 110.254C77.2879 110.129 77.1119 110.038 76.8993 109.979C76.6866 109.913 76.4043 109.851 76.0523 109.792C75.5829 109.704 75.2053 109.616 74.9193 109.528C74.6333 109.433 74.3876 109.275 74.1823 109.055C73.9843 108.835 73.8853 108.531 73.8853 108.142C73.8853 107.658 74.0869 107.262 74.4903 106.954C74.8936 106.646 75.4546 106.492 76.1733 106.492C76.5473 106.492 76.9213 106.543 77.2953 106.646C77.6693 106.741 77.9773 106.87 78.2193 107.031L77.8783 107.658C77.4016 107.328 76.8333 107.163 76.1733 107.163C75.6746 107.163 75.2969 107.251 75.0403 107.427C74.7909 107.603 74.6663 107.834 74.6663 108.12C74.6663 108.34 74.7359 108.516 74.8753 108.648C75.0219 108.78 75.2016 108.879 75.4143 108.945C75.6269 109.004 75.9203 109.066 76.2943 109.132C76.7563 109.22 77.1266 109.308 77.4053 109.396C77.6839 109.484 77.9223 109.634 78.1203 109.847C78.3183 110.06 78.4173 110.353 78.4173 110.727C78.4173 111.233 78.2046 111.636 77.7793 111.937C77.3613 112.23 76.7783 112.377 76.0303 112.377Z" fill="#302C60"/>
<path d="M84.764 106.492C85.5193 106.492 86.0987 106.683 86.502 107.064C86.9053 107.438 87.107 107.995 87.107 108.736V112.322H86.359V111.42C86.183 111.721 85.9227 111.955 85.578 112.124C85.2407 112.293 84.8373 112.377 84.368 112.377C83.7227 112.377 83.2093 112.223 82.828 111.915C82.4467 111.607 82.256 111.2 82.256 110.694C82.256 110.203 82.432 109.807 82.784 109.506C83.1433 109.205 83.7117 109.055 84.489 109.055H86.326V108.703C86.326 108.204 86.1867 107.827 85.908 107.57C85.6293 107.306 85.2223 107.174 84.687 107.174C84.3203 107.174 83.9683 107.236 83.631 107.361C83.2937 107.478 83.004 107.643 82.762 107.856L82.41 107.273C82.7033 107.024 83.0553 106.833 83.466 106.701C83.8767 106.562 84.3093 106.492 84.764 106.492ZM84.489 111.761C84.929 111.761 85.3067 111.662 85.622 111.464C85.9373 111.259 86.172 110.965 86.326 110.584V109.638H84.511C83.521 109.638 83.026 109.983 83.026 110.672C83.026 111.009 83.1543 111.277 83.411 111.475C83.6677 111.666 84.027 111.761 84.489 111.761Z" fill="#302C60"/>
<path d="M92.1763 106.492C92.9023 106.492 93.478 106.705 93.9033 107.13C94.336 107.548 94.5523 108.16 94.5523 108.967V112.322H93.7713V109.044C93.7713 108.443 93.621 107.984 93.3203 107.669C93.0196 107.354 92.5906 107.196 92.0333 107.196C91.41 107.196 90.915 107.383 90.5483 107.757C90.189 108.124 90.0093 108.633 90.0093 109.286V112.322H89.2283V106.536H89.9763V107.603C90.189 107.251 90.4823 106.98 90.8563 106.789C91.2376 106.591 91.6776 106.492 92.1763 106.492Z" fill="#302C60"/>
<path d="M101.974 104.16V112.322H101.226V111.178C100.991 111.567 100.68 111.864 100.291 112.069C99.9098 112.274 99.4771 112.377 98.9931 112.377C98.4504 112.377 97.9591 112.252 97.5191 112.003C97.0791 111.754 96.7344 111.405 96.4851 110.958C96.2358 110.511 96.1111 110.001 96.1111 109.429C96.1111 108.857 96.2358 108.347 96.4851 107.9C96.7344 107.453 97.0791 107.108 97.5191 106.866C97.9591 106.617 98.4504 106.492 98.9931 106.492C99.4624 106.492 99.8841 106.591 100.258 106.789C100.639 106.98 100.951 107.262 101.193 107.636V104.16H101.974ZM99.0591 111.684C99.4624 111.684 99.8254 111.592 100.148 111.409C100.478 111.218 100.735 110.951 100.918 110.606C101.109 110.261 101.204 109.869 101.204 109.429C101.204 108.989 101.109 108.597 100.918 108.252C100.735 107.907 100.478 107.643 100.148 107.46C99.8254 107.269 99.4624 107.174 99.0591 107.174C98.6484 107.174 98.2781 107.269 97.9481 107.46C97.6254 107.643 97.3688 107.907 97.1781 108.252C96.9948 108.597 96.9031 108.989 96.9031 109.429C96.9031 109.869 96.9948 110.261 97.1781 110.606C97.3688 110.951 97.6254 111.218 97.9481 111.409C98.2781 111.592 98.6484 111.684 99.0591 111.684Z" fill="#302C60"/>
<path d="M112.385 106.536V111.618C112.385 112.601 112.143 113.327 111.659 113.796C111.182 114.273 110.46 114.511 109.492 114.511C108.957 114.511 108.447 114.43 107.963 114.269C107.486 114.115 107.098 113.899 106.797 113.62L107.193 113.026C107.472 113.275 107.809 113.47 108.205 113.609C108.608 113.748 109.03 113.818 109.47 113.818C110.203 113.818 110.742 113.646 111.087 113.301C111.432 112.964 111.604 112.436 111.604 111.717V110.98C111.362 111.347 111.043 111.625 110.647 111.816C110.258 112.007 109.826 112.102 109.349 112.102C108.806 112.102 108.311 111.985 107.864 111.75C107.424 111.508 107.076 111.174 106.819 110.749C106.57 110.316 106.445 109.829 106.445 109.286C106.445 108.743 106.57 108.259 106.819 107.834C107.076 107.409 107.424 107.079 107.864 106.844C108.304 106.609 108.799 106.492 109.349 106.492C109.84 106.492 110.284 106.591 110.68 106.789C111.076 106.987 111.395 107.273 111.637 107.647V106.536H112.385ZM109.426 111.409C109.844 111.409 110.222 111.321 110.559 111.145C110.896 110.962 111.157 110.709 111.34 110.386C111.531 110.063 111.626 109.697 111.626 109.286C111.626 108.875 111.531 108.512 111.34 108.197C111.157 107.874 110.896 107.625 110.559 107.449C110.229 107.266 109.851 107.174 109.426 107.174C109.008 107.174 108.63 107.262 108.293 107.438C107.963 107.614 107.703 107.863 107.512 108.186C107.329 108.509 107.237 108.875 107.237 109.286C107.237 109.697 107.329 110.063 107.512 110.386C107.703 110.709 107.963 110.962 108.293 111.145C108.63 111.321 109.008 111.409 109.426 111.409Z" fill="#302C60"/>
<path d="M119.607 109.671H114.767C114.811 110.272 115.042 110.76 115.46 111.134C115.878 111.501 116.406 111.684 117.044 111.684C117.403 111.684 117.733 111.622 118.034 111.497C118.335 111.365 118.595 111.174 118.815 110.925L119.255 111.431C118.998 111.739 118.676 111.974 118.287 112.135C117.906 112.296 117.484 112.377 117.022 112.377C116.428 112.377 115.9 112.252 115.438 112.003C114.983 111.746 114.628 111.394 114.371 110.947C114.114 110.5 113.986 109.994 113.986 109.429C113.986 108.864 114.107 108.358 114.349 107.911C114.598 107.464 114.936 107.115 115.361 106.866C115.794 106.617 116.278 106.492 116.813 106.492C117.348 106.492 117.829 106.617 118.254 106.866C118.679 107.115 119.013 107.464 119.255 107.911C119.497 108.351 119.618 108.857 119.618 109.429L119.607 109.671ZM116.813 107.163C116.256 107.163 115.786 107.343 115.405 107.702C115.031 108.054 114.818 108.516 114.767 109.088H118.87C118.819 108.516 118.602 108.054 118.221 107.702C117.847 107.343 117.378 107.163 116.813 107.163Z" fill="#302C60"/>
<path d="M124.255 111.97C124.108 112.102 123.925 112.205 123.705 112.278C123.492 112.344 123.268 112.377 123.034 112.377C122.491 112.377 122.073 112.23 121.78 111.937C121.486 111.644 121.34 111.229 121.34 110.694V107.196H120.306V106.536H121.34V105.271H122.121V106.536H123.881V107.196H122.121V110.65C122.121 110.995 122.205 111.259 122.374 111.442C122.55 111.618 122.799 111.706 123.122 111.706C123.283 111.706 123.437 111.68 123.584 111.629C123.738 111.578 123.87 111.504 123.98 111.409L124.255 111.97Z" fill="#302C60"/>
<path d="M130.579 106.492C131.335 106.492 131.914 106.683 132.317 107.064C132.721 107.438 132.922 107.995 132.922 108.736V112.322H132.174V111.42C131.998 111.721 131.738 111.955 131.393 112.124C131.056 112.293 130.653 112.377 130.183 112.377C129.538 112.377 129.025 112.223 128.643 111.915C128.262 111.607 128.071 111.2 128.071 110.694C128.071 110.203 128.247 109.807 128.599 109.506C128.959 109.205 129.527 109.055 130.304 109.055H132.141V108.703C132.141 108.204 132.002 107.827 131.723 107.57C131.445 107.306 131.038 107.174 130.502 107.174C130.136 107.174 129.784 107.236 129.446 107.361C129.109 107.478 128.819 107.643 128.577 107.856L128.225 107.273C128.519 107.024 128.871 106.833 129.281 106.701C129.692 106.562 130.125 106.492 130.579 106.492ZM130.304 111.761C130.744 111.761 131.122 111.662 131.437 111.464C131.753 111.259 131.987 110.965 132.141 110.584V109.638H130.326C129.336 109.638 128.841 109.983 128.841 110.672C128.841 111.009 128.97 111.277 129.226 111.475C129.483 111.666 129.842 111.761 130.304 111.761Z" fill="#302C60"/>
<path d="M135.044 104.16H135.825V112.322H135.044V104.16Z" fill="#302C60"/>
<path d="M137.998 104.16H138.779V112.322H137.998V104.16Z" fill="#302C60"/>
<path d="M146.878 111.97C146.731 112.102 146.548 112.205 146.328 112.278C146.115 112.344 145.891 112.377 145.657 112.377C145.114 112.377 144.696 112.23 144.403 111.937C144.109 111.644 143.963 111.229 143.963 110.694V107.196H142.929V106.536H143.963V105.271H144.744V106.536H146.504V107.196H144.744V110.65C144.744 110.995 144.828 111.259 144.997 111.442C145.173 111.618 145.422 111.706 145.745 111.706C145.906 111.706 146.06 111.68 146.207 111.629C146.361 111.578 146.493 111.504 146.603 111.409L146.878 111.97Z" fill="#302C60"/>
<path d="M151.248 106.492C151.974 106.492 152.549 106.705 152.975 107.13C153.407 107.548 153.624 108.16 153.624 108.967V112.322H152.843V109.044C152.843 108.443 152.692 107.984 152.392 107.669C152.091 107.354 151.662 107.196 151.105 107.196C150.481 107.196 149.986 107.383 149.62 107.757C149.26 108.124 149.081 108.633 149.081 109.286V112.322H148.3V104.16H149.081V107.548C149.293 107.211 149.587 106.95 149.961 106.767C150.335 106.584 150.764 106.492 151.248 106.492Z" fill="#302C60"/>
<path d="M160.803 109.671H155.963C156.007 110.272 156.238 110.76 156.656 111.134C157.074 111.501 157.602 111.684 158.24 111.684C158.6 111.684 158.93 111.622 159.23 111.497C159.531 111.365 159.791 111.174 160.011 110.925L160.451 111.431C160.195 111.739 159.872 111.974 159.483 112.135C159.102 112.296 158.68 112.377 158.218 112.377C157.624 112.377 157.096 112.252 156.634 112.003C156.18 111.746 155.824 111.394 155.567 110.947C155.311 110.5 155.182 109.994 155.182 109.429C155.182 108.864 155.303 108.358 155.545 107.911C155.795 107.464 156.132 107.115 156.557 106.866C156.99 106.617 157.474 106.492 158.009 106.492C158.545 106.492 159.025 106.617 159.45 106.866C159.876 107.115 160.209 107.464 160.451 107.911C160.693 108.351 160.814 108.857 160.814 109.429L160.803 109.671ZM158.009 107.163C157.452 107.163 156.983 107.343 156.601 107.702C156.227 108.054 156.015 108.516 155.963 109.088H160.066C160.015 108.516 159.799 108.054 159.417 107.702C159.043 107.343 158.574 107.163 158.009 107.163Z" fill="#302C60"/>
<path d="M26.4766 124.377C26.0072 124.377 25.5562 124.311 25.1236 124.179C24.6982 124.04 24.3646 123.867 24.1226 123.662L24.4746 123.046C24.7166 123.237 25.0209 123.394 25.3876 123.519C25.7542 123.636 26.1356 123.695 26.5316 123.695C27.0596 123.695 27.4482 123.614 27.6976 123.453C27.9542 123.284 28.0826 123.05 28.0826 122.749C28.0826 122.536 28.0129 122.371 27.8736 122.254C27.7342 122.129 27.5582 122.038 27.3456 121.979C27.1329 121.913 26.8506 121.851 26.4986 121.792C26.0292 121.704 25.6516 121.616 25.3656 121.528C25.0796 121.433 24.8339 121.275 24.6286 121.055C24.4306 120.835 24.3316 120.531 24.3316 120.142C24.3316 119.658 24.5332 119.262 24.9366 118.954C25.3399 118.646 25.9009 118.492 26.6196 118.492C26.9936 118.492 27.3676 118.543 27.7416 118.646C28.1156 118.741 28.4236 118.87 28.6656 119.031L28.3246 119.658C27.8479 119.328 27.2796 119.163 26.6196 119.163C26.1209 119.163 25.7432 119.251 25.4866 119.427C25.2372 119.603 25.1126 119.834 25.1126 120.12C25.1126 120.34 25.1822 120.516 25.3216 120.648C25.4682 120.78 25.6479 120.879 25.8606 120.945C26.0732 121.004 26.3666 121.066 26.7406 121.132C27.2026 121.22 27.5729 121.308 27.8516 121.396C28.1302 121.484 28.3686 121.634 28.5666 121.847C28.7646 122.06 28.8636 122.353 28.8636 122.727C28.8636 123.233 28.6509 123.636 28.2256 123.937C27.8076 124.23 27.2246 124.377 26.4766 124.377Z" fill="#302C60"/>
<path d="M35.5214 118.536V124.322H34.7734V123.266C34.5681 123.618 34.2857 123.893 33.9264 124.091C33.5671 124.282 33.1564 124.377 32.6944 124.377C31.9391 124.377 31.3414 124.168 30.9014 123.75C30.4687 123.325 30.2524 122.705 30.2524 121.891V118.536H31.0334V121.814C31.0334 122.423 31.1837 122.885 31.4844 123.2C31.7851 123.515 32.2141 123.673 32.7714 123.673C33.3801 123.673 33.8604 123.49 34.2124 123.123C34.5644 122.749 34.7404 122.232 34.7404 121.572V118.536H35.5214Z" fill="#302C60"/>
<path d="M40.6898 118.492C41.2324 118.492 41.7238 118.617 42.1638 118.866C42.6038 119.108 42.9484 119.453 43.1978 119.9C43.4471 120.347 43.5718 120.857 43.5718 121.429C43.5718 122.008 43.4471 122.522 43.1978 122.969C42.9484 123.416 42.6038 123.765 42.1638 124.014C41.7311 124.256 41.2398 124.377 40.6898 124.377C40.2204 124.377 39.7951 124.282 39.4138 124.091C39.0398 123.893 38.7318 123.607 38.4898 123.233V126.456H37.7088V118.536H38.4568V119.68C38.6914 119.299 38.9994 119.005 39.3808 118.8C39.7694 118.595 40.2058 118.492 40.6898 118.492ZM40.6348 123.684C41.0381 123.684 41.4048 123.592 41.7348 123.409C42.0648 123.218 42.3214 122.951 42.5048 122.606C42.6954 122.261 42.7908 121.869 42.7908 121.429C42.7908 120.989 42.6954 120.6 42.5048 120.263C42.3214 119.918 42.0648 119.651 41.7348 119.46C41.4048 119.269 41.0381 119.174 40.6348 119.174C40.2241 119.174 39.8538 119.269 39.5238 119.46C39.2011 119.651 38.9444 119.918 38.7538 120.263C38.5704 120.6 38.4788 120.989 38.4788 121.429C38.4788 121.869 38.5704 122.261 38.7538 122.606C38.9444 122.951 39.2011 123.218 39.5238 123.409C39.8538 123.592 40.2241 123.684 40.6348 123.684Z" fill="#302C60"/>
<path d="M48.1448 118.492C48.6875 118.492 49.1788 118.617 49.6188 118.866C50.0588 119.108 50.4035 119.453 50.6528 119.9C50.9022 120.347 51.0268 120.857 51.0268 121.429C51.0268 122.008 50.9022 122.522 50.6528 122.969C50.4035 123.416 50.0588 123.765 49.6188 124.014C49.1862 124.256 48.6948 124.377 48.1448 124.377C47.6755 124.377 47.2502 124.282 46.8688 124.091C46.4948 123.893 46.1868 123.607 45.9448 123.233V126.456H45.1638V118.536H45.9118V119.68C46.1465 119.299 46.4545 119.005 46.8358 118.8C47.2245 118.595 47.6608 118.492 48.1448 118.492ZM48.0898 123.684C48.4932 123.684 48.8598 123.592 49.1898 123.409C49.5198 123.218 49.7765 122.951 49.9598 122.606C50.1505 122.261 50.2458 121.869 50.2458 121.429C50.2458 120.989 50.1505 120.6 49.9598 120.263C49.7765 119.918 49.5198 119.651 49.1898 119.46C48.8598 119.269 48.4932 119.174 48.0898 119.174C47.6792 119.174 47.3088 119.269 46.9788 119.46C46.6562 119.651 46.3995 119.918 46.2088 120.263C46.0255 120.6 45.9338 120.989 45.9338 121.429C45.9338 121.869 46.0255 122.261 46.2088 122.606C46.3995 122.951 46.6562 123.218 46.9788 123.409C47.3088 123.592 47.6792 123.684 48.0898 123.684Z" fill="#302C60"/>
<path d="M54.9839 124.377C54.4266 124.377 53.9243 124.252 53.4769 124.003C53.0296 123.746 52.6776 123.394 52.4209 122.947C52.1643 122.5 52.0359 121.994 52.0359 121.429C52.0359 120.864 52.1643 120.358 52.4209 119.911C52.6776 119.464 53.0296 119.115 53.4769 118.866C53.9243 118.617 54.4266 118.492 54.9839 118.492C55.5413 118.492 56.0436 118.617 56.4909 118.866C56.9383 119.115 57.2866 119.464 57.5359 119.911C57.7926 120.358 57.9209 120.864 57.9209 121.429C57.9209 121.994 57.7926 122.5 57.5359 122.947C57.2866 123.394 56.9383 123.746 56.4909 124.003C56.0436 124.252 55.5413 124.377 54.9839 124.377ZM54.9839 123.684C55.3946 123.684 55.7613 123.592 56.0839 123.409C56.4139 123.218 56.6706 122.951 56.8539 122.606C57.0373 122.261 57.1289 121.869 57.1289 121.429C57.1289 120.989 57.0373 120.597 56.8539 120.252C56.6706 119.907 56.4139 119.643 56.0839 119.46C55.7613 119.269 55.3946 119.174 54.9839 119.174C54.5733 119.174 54.2029 119.269 53.8729 119.46C53.5503 119.643 53.2936 119.907 53.1029 120.252C52.9196 120.597 52.8279 120.989 52.8279 121.429C52.8279 121.869 52.9196 122.261 53.1029 122.606C53.2936 122.951 53.5503 123.218 53.8729 123.409C54.2029 123.592 54.5733 123.684 54.9839 123.684Z" fill="#302C60"/>
<path d="M60.2634 119.669C60.4467 119.28 60.7181 118.987 61.0774 118.789C61.4441 118.591 61.8951 118.492 62.4304 118.492V119.251L62.2434 119.24C61.6347 119.24 61.1581 119.427 60.8134 119.801C60.4687 120.175 60.2964 120.699 60.2964 121.374V124.322H59.5154V118.536H60.2634V119.669Z" fill="#302C60"/>
<path d="M67.1386 123.97C66.9919 124.102 66.8086 124.205 66.5886 124.278C66.3759 124.344 66.1522 124.377 65.9176 124.377C65.3749 124.377 64.9569 124.23 64.6636 123.937C64.3702 123.644 64.2236 123.229 64.2236 122.694V119.196H63.1896V118.536H64.2236V117.271H65.0046V118.536H66.7646V119.196H65.0046V122.65C65.0046 122.995 65.0889 123.259 65.2576 123.442C65.4336 123.618 65.6829 123.706 66.0056 123.706C66.1669 123.706 66.3209 123.68 66.4676 123.629C66.6216 123.578 66.7536 123.504 66.8636 123.409L67.1386 123.97Z" fill="#302C60"/>
<path d="M79.1801 118.536L76.2871 125.015C76.0525 125.558 75.7811 125.943 75.4731 126.17C75.1651 126.397 74.7948 126.511 74.3621 126.511C74.0835 126.511 73.8231 126.467 73.5811 126.379C73.3391 126.291 73.1301 126.159 72.9541 125.983L73.3171 125.4C73.6105 125.693 73.9625 125.84 74.3731 125.84C74.6371 125.84 74.8608 125.767 75.0441 125.62C75.2348 125.473 75.4108 125.224 75.5721 124.872L75.8251 124.311L73.2401 118.536H74.0541L76.2321 123.453L78.4101 118.536H79.1801Z" fill="#302C60"/>
<path d="M82.4839 124.377C81.9266 124.377 81.4243 124.252 80.9769 124.003C80.5296 123.746 80.1776 123.394 79.9209 122.947C79.6643 122.5 79.5359 121.994 79.5359 121.429C79.5359 120.864 79.6643 120.358 79.9209 119.911C80.1776 119.464 80.5296 119.115 80.9769 118.866C81.4243 118.617 81.9266 118.492 82.4839 118.492C83.0413 118.492 83.5436 118.617 83.9909 118.866C84.4383 119.115 84.7866 119.464 85.0359 119.911C85.2926 120.358 85.4209 120.864 85.4209 121.429C85.4209 121.994 85.2926 122.5 85.0359 122.947C84.7866 123.394 84.4383 123.746 83.9909 124.003C83.5436 124.252 83.0413 124.377 82.4839 124.377ZM82.4839 123.684C82.8946 123.684 83.2613 123.592 83.5839 123.409C83.9139 123.218 84.1706 122.951 84.3539 122.606C84.5373 122.261 84.6289 121.869 84.6289 121.429C84.6289 120.989 84.5373 120.597 84.3539 120.252C84.1706 119.907 83.9139 119.643 83.5839 119.46C83.2613 119.269 82.8946 119.174 82.4839 119.174C82.0733 119.174 81.7029 119.269 81.3729 119.46C81.0503 119.643 80.7936 119.907 80.6029 120.252C80.4196 120.597 80.3279 120.989 80.3279 121.429C80.3279 121.869 80.4196 122.261 80.6029 122.606C80.7936 122.951 81.0503 123.218 81.3729 123.409C81.7029 123.592 82.0733 123.684 82.4839 123.684Z" fill="#302C60"/>
<path d="M92.2294 118.536V124.322H91.4814V123.266C91.2761 123.618 90.9937 123.893 90.6344 124.091C90.2751 124.282 89.8644 124.377 89.4024 124.377C88.6471 124.377 88.0494 124.168 87.6094 123.75C87.1767 123.325 86.9604 122.705 86.9604 121.891V118.536H87.7414V121.814C87.7414 122.423 87.8917 122.885 88.1924 123.2C88.4931 123.515 88.9221 123.673 89.4794 123.673C90.0881 123.673 90.5684 123.49 90.9204 123.123C91.2724 122.749 91.4484 122.232 91.4484 121.572V118.536H92.2294Z" fill="#302C60"/>
<path d="M104.512 118.492C105.238 118.492 105.806 118.701 106.217 119.119C106.635 119.537 106.844 120.153 106.844 120.967V124.322H106.063V121.044C106.063 120.443 105.916 119.984 105.623 119.669C105.337 119.354 104.93 119.196 104.402 119.196C103.8 119.196 103.327 119.383 102.983 119.757C102.638 120.124 102.466 120.633 102.466 121.286V124.322H101.685V121.044C101.685 120.443 101.538 119.984 101.245 119.669C100.959 119.354 100.548 119.196 100.013 119.196C99.4187 119.196 98.9457 119.383 98.5937 119.757C98.249 120.124 98.0767 120.633 98.0767 121.286V124.322H97.2957V118.536H98.0437V119.592C98.249 119.24 98.535 118.969 98.9017 118.778C99.2683 118.587 99.69 118.492 100.167 118.492C100.651 118.492 101.069 118.595 101.421 118.8C101.78 119.005 102.048 119.31 102.224 119.713C102.436 119.332 102.741 119.035 103.137 118.822C103.54 118.602 103.998 118.492 104.512 118.492Z" fill="#302C60"/>
<path d="M108.962 118.536H109.743V124.322H108.962V118.536ZM109.358 117.271C109.196 117.271 109.061 117.216 108.951 117.106C108.841 116.996 108.786 116.864 108.786 116.71C108.786 116.563 108.841 116.435 108.951 116.325C109.061 116.215 109.196 116.16 109.358 116.16C109.519 116.16 109.655 116.215 109.765 116.325C109.875 116.428 109.93 116.552 109.93 116.699C109.93 116.86 109.875 116.996 109.765 117.106C109.655 117.216 109.519 117.271 109.358 117.271Z" fill="#302C60"/>
<path d="M117.273 118.536V123.618C117.273 124.601 117.031 125.327 116.547 125.796C116.07 126.273 115.348 126.511 114.38 126.511C113.844 126.511 113.335 126.43 112.851 126.269C112.374 126.115 111.985 125.899 111.685 125.62L112.081 125.026C112.359 125.275 112.697 125.47 113.093 125.609C113.496 125.748 113.918 125.818 114.358 125.818C115.091 125.818 115.63 125.646 115.975 125.301C116.319 124.964 116.492 124.436 116.492 123.717V122.98C116.25 123.347 115.931 123.625 115.535 123.816C115.146 124.007 114.713 124.102 114.237 124.102C113.694 124.102 113.199 123.985 112.752 123.75C112.312 123.508 111.963 123.174 111.707 122.749C111.457 122.316 111.333 121.829 111.333 121.286C111.333 120.743 111.457 120.259 111.707 119.834C111.963 119.409 112.312 119.079 112.752 118.844C113.192 118.609 113.687 118.492 114.237 118.492C114.728 118.492 115.172 118.591 115.568 118.789C115.964 118.987 116.283 119.273 116.525 119.647V118.536H117.273ZM114.314 123.409C114.732 123.409 115.109 123.321 115.447 123.145C115.784 122.962 116.044 122.709 116.228 122.386C116.418 122.063 116.514 121.697 116.514 121.286C116.514 120.875 116.418 120.512 116.228 120.197C116.044 119.874 115.784 119.625 115.447 119.449C115.117 119.266 114.739 119.174 114.314 119.174C113.896 119.174 113.518 119.262 113.181 119.438C112.851 119.614 112.59 119.863 112.4 120.186C112.216 120.509 112.125 120.875 112.125 121.286C112.125 121.697 112.216 122.063 112.4 122.386C112.59 122.709 112.851 122.962 113.181 123.145C113.518 123.321 113.896 123.409 114.314 123.409Z" fill="#302C60"/>
<path d="M122.405 118.492C123.131 118.492 123.706 118.705 124.132 119.13C124.564 119.548 124.781 120.16 124.781 120.967V124.322H124V121.044C124 120.443 123.849 119.984 123.549 119.669C123.248 119.354 122.819 119.196 122.262 119.196C121.638 119.196 121.143 119.383 120.777 119.757C120.417 120.124 120.238 120.633 120.238 121.286V124.322H119.457V116.16H120.238V119.548C120.45 119.211 120.744 118.95 121.118 118.767C121.492 118.584 121.921 118.492 122.405 118.492Z" fill="#302C60"/>
<path d="M129.948 123.97C129.801 124.102 129.618 124.205 129.398 124.278C129.185 124.344 128.962 124.377 128.727 124.377C128.184 124.377 127.766 124.23 127.473 123.937C127.18 123.644 127.033 123.229 127.033 122.694V119.196H125.999V118.536H127.033V117.271H127.814V118.536H129.574V119.196H127.814V122.65C127.814 122.995 127.898 123.259 128.067 123.442C128.243 123.618 128.492 123.706 128.815 123.706C128.976 123.706 129.13 123.68 129.277 123.629C129.431 123.578 129.563 123.504 129.673 123.409L129.948 123.97Z" fill="#302C60"/>
<path d="M137.197 118.492C137.923 118.492 138.498 118.705 138.924 119.13C139.356 119.548 139.573 120.16 139.573 120.967V124.322H138.792V121.044C138.792 120.443 138.641 119.984 138.341 119.669C138.04 119.354 137.611 119.196 137.054 119.196C136.43 119.196 135.935 119.383 135.569 119.757C135.209 120.124 135.03 120.633 135.03 121.286V124.322H134.249V118.536H134.997V119.603C135.209 119.251 135.503 118.98 135.877 118.789C136.258 118.591 136.698 118.492 137.197 118.492Z" fill="#302C60"/>
<path d="M146.753 121.671H141.913C141.957 122.272 142.188 122.76 142.606 123.134C143.024 123.501 143.552 123.684 144.19 123.684C144.549 123.684 144.879 123.622 145.18 123.497C145.48 123.365 145.741 123.174 145.961 122.925L146.401 123.431C146.144 123.739 145.821 123.974 145.433 124.135C145.051 124.296 144.63 124.377 144.168 124.377C143.574 124.377 143.046 124.252 142.584 124.003C142.129 123.746 141.773 123.394 141.517 122.947C141.26 122.5 141.132 121.994 141.132 121.429C141.132 120.864 141.253 120.358 141.495 119.911C141.744 119.464 142.081 119.115 142.507 118.866C142.939 118.617 143.423 118.492 143.959 118.492C144.494 118.492 144.974 118.617 145.4 118.866C145.825 119.115 146.159 119.464 146.401 119.911C146.643 120.351 146.764 120.857 146.764 121.429L146.753 121.671ZM143.959 119.163C143.401 119.163 142.932 119.343 142.551 119.702C142.177 120.054 141.964 120.516 141.913 121.088H146.016C145.964 120.516 145.748 120.054 145.367 119.702C144.993 119.343 144.523 119.163 143.959 119.163Z" fill="#302C60"/>
<path d="M153.391 121.671H148.551C148.595 122.272 148.826 122.76 149.244 123.134C149.662 123.501 150.19 123.684 150.828 123.684C151.188 123.684 151.518 123.622 151.818 123.497C152.119 123.365 152.379 123.174 152.599 122.925L153.039 123.431C152.783 123.739 152.46 123.974 152.071 124.135C151.69 124.296 151.268 124.377 150.806 124.377C150.212 124.377 149.684 124.252 149.222 124.003C148.768 123.746 148.412 123.394 148.155 122.947C147.899 122.5 147.77 121.994 147.77 121.429C147.77 120.864 147.891 120.358 148.133 119.911C148.383 119.464 148.72 119.115 149.145 118.866C149.578 118.617 150.062 118.492 150.597 118.492C151.133 118.492 151.613 118.617 152.038 118.866C152.464 119.115 152.797 119.464 153.039 119.911C153.281 120.351 153.402 120.857 153.402 121.429L153.391 121.671ZM150.597 119.163C150.04 119.163 149.571 119.343 149.189 119.702C148.815 120.054 148.603 120.516 148.551 121.088H152.654C152.603 120.516 152.387 120.054 152.005 119.702C151.631 119.343 151.162 119.163 150.597 119.163Z" fill="#302C60"/>
<path d="M160.272 116.16V124.322H159.524V123.178C159.289 123.567 158.978 123.864 158.589 124.069C158.208 124.274 157.775 124.377 157.291 124.377C156.748 124.377 156.257 124.252 155.817 124.003C155.377 123.754 155.032 123.405 154.783 122.958C154.534 122.511 154.409 122.001 154.409 121.429C154.409 120.857 154.534 120.347 154.783 119.9C155.032 119.453 155.377 119.108 155.817 118.866C156.257 118.617 156.748 118.492 157.291 118.492C157.76 118.492 158.182 118.591 158.556 118.789C158.937 118.98 159.249 119.262 159.491 119.636V116.16H160.272ZM157.357 123.684C157.76 123.684 158.123 123.592 158.446 123.409C158.776 123.218 159.033 122.951 159.216 122.606C159.407 122.261 159.502 121.869 159.502 121.429C159.502 120.989 159.407 120.597 159.216 120.252C159.033 119.907 158.776 119.643 158.446 119.46C158.123 119.269 157.76 119.174 157.357 119.174C156.946 119.174 156.576 119.269 156.246 119.46C155.923 119.643 155.667 119.907 155.476 120.252C155.293 120.597 155.201 120.989 155.201 121.429C155.201 121.869 155.293 122.261 155.476 122.606C155.667 122.951 155.923 123.218 156.246 123.409C156.576 123.592 156.946 123.684 157.357 123.684Z" fill="#302C60"/>
<path d="M162.326 116.622H163.25L163.085 122.012H162.48L162.326 116.622ZM162.788 124.377C162.627 124.377 162.487 124.322 162.37 124.212C162.26 124.095 162.205 123.959 162.205 123.805C162.205 123.644 162.26 123.512 162.37 123.409C162.48 123.299 162.619 123.244 162.788 123.244C162.949 123.244 163.085 123.299 163.195 123.409C163.305 123.512 163.36 123.644 163.36 123.805C163.36 123.959 163.305 124.095 163.195 124.212C163.085 124.322 162.949 124.377 162.788 124.377Z" fill="#302C60"/>
<path fill-rule="evenodd" clip-rule="evenodd" d="M189.769 58.4091H197.653V25.2891H158.191V58.4091H182.226L189.77 66.4322L189.769 58.4091ZM188.35 62.8492L188.35 56.9892H196.233V26.709H159.611V56.9892H182.839L188.35 62.8492Z" fill="#302C60"/>
<path d="M177.955 36.8975C178.623 36.8975 179.205 36.9984 179.702 37.2002C180.207 37.3929 180.597 37.6773 180.871 38.0535C181.153 38.4204 181.295 38.8608 181.295 39.3746C181.295 39.8884 181.145 40.3471 180.845 40.7508C180.554 41.1545 180.143 41.4985 179.612 41.7829C179.081 42.0582 178.464 42.2738 177.762 42.4297V44.439H177.505V42.3059C177.933 42.0765 178.25 41.8242 178.456 41.549C178.67 41.2737 178.811 40.9756 178.88 40.6544C178.957 40.3333 178.995 39.9939 178.995 39.6361C178.995 38.7645 178.863 38.136 178.597 37.7507C178.332 37.3654 177.989 37.1727 177.569 37.1727C177.321 37.1727 177.107 37.2002 176.927 37.2553C176.756 37.3011 176.632 37.3608 176.555 37.4342C176.829 37.5443 177.034 37.6956 177.171 37.8883C177.317 38.081 177.39 38.3333 177.39 38.6452C177.39 38.9663 177.278 39.2416 177.056 39.4709C176.833 39.6911 176.533 39.8012 176.156 39.8012C175.84 39.8012 175.583 39.6911 175.386 39.4709C175.197 39.2416 175.103 38.9847 175.103 38.7003C175.103 38.3608 175.18 38.0902 175.334 37.8883C175.497 37.6865 175.694 37.5167 175.925 37.3791C176.148 37.2507 176.43 37.1406 176.773 37.0488C177.116 36.9479 177.509 36.8975 177.955 36.8975ZM177.659 45.4849C178.062 45.4849 178.374 45.5858 178.597 45.7876C178.82 45.9803 178.931 46.2739 178.931 46.6684C178.931 47.0629 178.82 47.3611 178.597 47.5629C178.374 47.7556 178.062 47.8519 177.659 47.8519C177.248 47.8519 176.931 47.7556 176.709 47.5629C176.495 47.3611 176.388 47.0629 176.388 46.6684C176.388 46.2739 176.495 45.9803 176.709 45.7876C176.931 45.5858 177.248 45.4849 177.659 45.4849Z" fill="#302C60"/>
<path d="M167.879 38.2303C168.414 37.2497 168.874 36.2181 169.5 35.2983C171.161 32.8587 173.457 31.2754 176.386 30.7404C179.55 30.1627 182.405 30.9419 184.904 32.954C186.581 34.3042 187.746 36.0227 188.474 38.036C188.544 38.2306 188.634 38.2961 188.845 38.2985C190.657 38.3185 192.012 39.6939 192.014 41.5002C192.015 42.6002 192.017 43.7003 192.013 44.8002C192.008 46.4981 190.594 47.9492 188.892 47.8904C188.102 47.863 187.676 48.0869 187.239 48.7773C185.608 51.3572 183.268 53.0068 180.239 53.6248C179.769 53.7207 179.284 53.7506 178.806 53.8024C178.483 53.8373 178.201 53.7403 178.14 53.4602C178.074 53.1612 178.316 52.9269 178.624 52.9102C182.113 52.7204 184.703 51.035 186.587 48.1781C186.62 48.1293 186.651 48.0795 186.679 48.0283C186.689 48.0095 186.69 47.9854 186.707 47.9111C186.293 47.9111 185.889 47.9026 185.486 47.9139C185.157 47.923 185.019 47.7847 185.019 47.4549C185.024 44.5526 185.024 41.6504 185.019 38.7482C185.019 38.4177 185.161 38.2851 185.488 38.2898C186.17 38.2995 186.852 38.2928 187.608 38.2928C186.923 36.4284 185.852 34.8919 184.348 33.6561C182.84 32.4172 181.11 31.6671 179.161 31.493C173.923 31.0251 170.135 34.7484 168.974 38.2927C169.629 38.2927 170.269 38.2925 170.91 38.2928C171.487 38.2929 171.527 38.3332 171.527 38.914C171.527 41.7225 171.527 44.5311 171.526 47.3397C171.526 47.8502 171.467 47.9109 170.967 47.9111C169.86 47.9117 168.753 47.9149 167.647 47.9103C165.961 47.9033 164.544 46.4975 164.536 44.8242C164.531 43.7126 164.533 42.6008 164.535 41.4891C164.539 39.686 165.906 38.3136 167.715 38.2929C167.747 38.2926 167.78 38.2978 167.812 38.2882C167.841 38.2793 167.86 38.2523 167.879 38.2303ZM170.609 39.2055C170.526 39.1956 170.48 39.1855 170.434 39.1857C169.482 39.1873 168.528 39.171 167.576 39.1975C166.414 39.2298 165.464 40.1894 165.444 41.3474C165.425 42.5166 165.424 43.6861 165.442 44.8553C165.46 46.0102 166.412 46.975 167.573 47.0081C168.537 47.0357 169.502 47.0166 170.467 47.0164C170.51 47.0164 170.554 46.998 170.609 46.9855V39.2055ZM185.933 47.0145C186.962 47.0145 187.959 47.0349 188.955 47.0092C190.138 46.9786 191.091 46.0143 191.107 44.8406C191.124 43.6832 191.124 42.5251 191.106 41.3677C191.087 40.188 190.14 39.2293 188.958 39.1968C188.018 39.1708 187.076 39.1862 186.135 39.1862C186.07 39.1862 186.005 39.2113 185.933 39.226V47.0145Z" fill="#302C60"/>
<defs>
<filter id="filter0_d_285_1551" x="0.101603" y="0" width="219.181" height="155.658" filterUnits="userSpaceOnUse" color-interpolation-filters="sRGB">
<feFlood flood-opacity="0" result="BackgroundImageFix"/>
<feColorMatrix in="SourceAlpha" type="matrix" values="0 0 0 0 0 0 0 0 0 0 0 0 0 0 0 0 0 0 127 0" result="hardAlpha"/>
<feOffset dy="1.8984"/>
<feGaussianBlur stdDeviation="0.949199"/>
<feColorMatrix type="matrix" values="0 0 0 0 0 0 0 0 0 0 0 0 0 0 0 0 0 0 0.1 0"/>
<feBlend mode="normal" in2="BackgroundImageFix" result="effect1_dropShadow_285_1551"/>
<feBlend mode="normal" in="SourceGraphic" in2="effect1_dropShadow_285_1551" result="shape"/>
</filter>
</defs>
</svg>
