<svg width="220" height="156" viewBox="0 0 220 156" fill="none" xmlns="http://www.w3.org/2000/svg">
<g filter="url(#filter0_d_271_1861)">
<rect x="2.61572" width="215.384" height="151.861" rx="14.1994" fill="#E0E7F5"/>
</g>
<path d="M31.1401 25.609C33.7241 25.609 35.6368 26.179 36.8781 27.319C38.1321 28.4464 38.7591 30.0677 38.7591 32.183C38.7591 33.5637 38.4488 34.7734 37.8281 35.812C37.2201 36.838 36.3335 37.636 35.1681 38.206C34.0028 38.776 32.6031 39.061 30.9691 39.061C30.7665 39.061 30.5005 39.0547 30.1711 39.042C29.8418 39.0294 29.4935 39.023 29.1261 39.023C28.7715 39.0104 28.4485 39.004 28.1571 39.004C27.5618 39.004 26.9791 39.0104 26.4091 39.023C25.8391 39.023 25.3831 39.0357 25.0411 39.061V38.681C25.4338 38.6557 25.7251 38.605 25.9151 38.529C26.1178 38.453 26.2508 38.301 26.3141 38.073C26.3901 37.845 26.4281 37.503 26.4281 37.047V27.623C26.4281 27.1544 26.3901 26.8124 26.3141 26.597C26.2508 26.369 26.1178 26.217 25.9151 26.141C25.7251 26.0524 25.4338 26.0017 25.0411 25.989V25.609C25.3831 25.6217 25.8391 25.6407 26.4091 25.666C26.9791 25.6787 27.5491 25.6787 28.1191 25.666C28.5751 25.6534 29.0945 25.6407 29.6771 25.628C30.2598 25.6154 30.7475 25.609 31.1401 25.609ZM31.2731 25.951C30.6905 25.951 30.3105 26.0587 30.1331 26.274C29.9558 26.4894 29.8671 26.9264 29.8671 27.585V37.085C29.8671 37.7437 29.9558 38.1807 30.1331 38.396C30.3231 38.6114 30.7095 38.719 31.2921 38.719C32.2548 38.719 33.0211 38.472 33.5911 37.978C34.1611 37.4714 34.5665 36.7367 34.8071 35.774C35.0605 34.8114 35.1871 33.6397 35.1871 32.259C35.1871 30.8404 35.0541 29.6687 34.7881 28.744C34.5221 27.8067 34.0978 27.11 33.5151 26.654C32.9451 26.1854 32.1978 25.951 31.2731 25.951ZM44.9336 28.953C45.8836 28.953 46.7132 29.124 47.4226 29.466C48.1446 29.7954 48.7019 30.34 49.0946 31.1C49.4999 31.86 49.7026 32.8734 49.7026 34.14C49.7026 35.4067 49.4999 36.42 49.0946 37.18C48.7019 37.94 48.1446 38.491 47.4226 38.833C46.7132 39.1624 45.8836 39.327 44.9336 39.327C43.9962 39.327 43.1666 39.1624 42.4446 38.833C41.7352 38.491 41.1779 37.94 40.7726 37.18C40.3672 36.42 40.1646 35.4067 40.1646 34.14C40.1646 32.8734 40.3672 31.86 40.7726 31.1C41.1779 30.34 41.7352 29.7954 42.4446 29.466C43.1666 29.124 43.9962 28.953 44.9336 28.953ZM44.9336 29.333C44.4902 29.333 44.1166 29.713 43.8126 30.473C43.5212 31.2204 43.3756 32.4427 43.3756 34.14C43.3756 35.8374 43.5212 37.066 43.8126 37.826C44.1166 38.5734 44.4902 38.947 44.9336 38.947C45.3896 38.947 45.7632 38.5734 46.0546 37.826C46.3459 37.066 46.4916 35.8374 46.4916 34.14C46.4916 32.4427 46.3459 31.2204 46.0546 30.473C45.7632 29.713 45.3896 29.333 44.9336 29.333ZM63.9635 29.219V29.618C63.7229 29.694 63.4885 29.8524 63.2605 30.093C63.0452 30.3337 62.8362 30.7517 62.6335 31.347L60.1065 38.643L59.2705 40.41L54.9195 30.682C54.7042 30.2007 54.4952 29.903 54.2925 29.789C54.0899 29.675 53.9189 29.618 53.7795 29.618V29.219C54.2482 29.257 54.7295 29.2887 55.2235 29.314C55.7175 29.3267 56.1862 29.333 56.6295 29.333C57.1869 29.333 57.6809 29.3204 58.1115 29.295C58.5422 29.2697 58.9475 29.2444 59.3275 29.219V29.618C59.0869 29.618 58.8589 29.6307 58.6435 29.656C58.4282 29.6814 58.2762 29.7574 58.1875 29.884C58.1115 29.998 58.1369 30.207 58.2635 30.511L60.6765 36.287L60.4865 36.42L61.6455 33.057C61.9115 32.2844 62.0255 31.651 61.9875 31.157C61.9495 30.663 61.8039 30.2894 61.5505 30.036C61.2972 29.7827 60.9742 29.6434 60.5815 29.618V29.219C60.7715 29.2317 60.9805 29.2444 61.2085 29.257C61.4492 29.2697 61.6835 29.2824 61.9115 29.295C62.1395 29.295 62.3359 29.295 62.5005 29.295C62.7412 29.295 63.0072 29.2887 63.2985 29.276C63.5899 29.2634 63.8115 29.2444 63.9635 29.219ZM60.1065 38.643L59.3465 40.809C59.2325 41.1257 59.1059 41.398 58.9665 41.626C58.8399 41.854 58.6879 42.0377 58.5105 42.177C58.3332 42.3164 58.1052 42.424 57.8265 42.5C57.5605 42.5887 57.2185 42.633 56.8005 42.633C56.4712 42.633 56.1229 42.576 55.7555 42.462C55.4009 42.3607 55.0969 42.1897 54.8435 41.949C54.6029 41.7084 54.4825 41.3854 54.4825 40.98C54.4825 40.562 54.6345 40.2264 54.9385 39.973C55.2425 39.7324 55.6542 39.612 56.1735 39.612C56.6422 39.612 57.0159 39.7197 57.2945 39.935C57.5859 40.1504 57.7315 40.4734 57.7315 40.904C57.7315 41.17 57.6429 41.4297 57.4655 41.683C57.2882 41.9364 57.0095 42.1264 56.6295 42.253C56.7182 42.2657 56.8132 42.272 56.9145 42.272C57.0285 42.2847 57.1172 42.291 57.1805 42.291C57.5732 42.291 57.9215 42.1644 58.2255 41.911C58.5295 41.6704 58.7702 41.2904 58.9475 40.771L59.6125 38.757L60.1065 38.643ZM69.166 28.953C70.116 28.953 70.9456 29.124 71.655 29.466C72.377 29.7954 72.9343 30.34 73.327 31.1C73.7323 31.86 73.935 32.8734 73.935 34.14C73.935 35.4067 73.7323 36.42 73.327 37.18C72.9343 37.94 72.377 38.491 71.655 38.833C70.9456 39.1624 70.116 39.327 69.166 39.327C68.2286 39.327 67.399 39.1624 66.677 38.833C65.9676 38.491 65.4103 37.94 65.005 37.18C64.5996 36.42 64.397 35.4067 64.397 34.14C64.397 32.8734 64.5996 31.86 65.005 31.1C65.4103 30.34 65.9676 29.7954 66.677 29.466C67.399 29.124 68.2286 28.953 69.166 28.953ZM69.166 29.333C68.7226 29.333 68.349 29.713 68.045 30.473C67.7536 31.2204 67.608 32.4427 67.608 34.14C67.608 35.8374 67.7536 37.066 68.045 37.826C68.349 38.5734 68.7226 38.947 69.166 38.947C69.622 38.947 69.9956 38.5734 70.287 37.826C70.5783 37.066 70.724 35.8374 70.724 34.14C70.724 32.4427 70.5783 31.2204 70.287 30.473C69.9956 29.713 69.622 29.333 69.166 29.333ZM84.7519 29.01V36.99C84.7519 37.56 84.8342 37.9844 84.9989 38.263C85.1762 38.529 85.4739 38.662 85.8919 38.662V39.061C85.4992 39.023 85.1066 39.004 84.7139 39.004C84.1312 39.004 83.5866 39.023 83.0799 39.061C82.5859 39.099 82.1172 39.1687 81.6739 39.27V37.731C81.3699 38.301 80.9519 38.7127 80.4199 38.966C79.9006 39.2067 79.3052 39.327 78.6339 39.327C78.0766 39.327 77.6269 39.2574 77.2849 39.118C76.9556 38.9787 76.7022 38.795 76.5249 38.567C76.3222 38.339 76.1766 38.035 76.0879 37.655C75.9992 37.2624 75.9549 36.7494 75.9549 36.116V31.29C75.9549 30.72 75.8726 30.302 75.7079 30.036C75.5432 29.7574 75.2456 29.618 74.8149 29.618V29.219C75.2202 29.257 75.6129 29.276 75.9929 29.276C76.5756 29.276 77.1202 29.257 77.6269 29.219C78.1336 29.1684 78.6022 29.0987 79.0329 29.01V37.028C79.0329 37.3194 79.0646 37.5664 79.1279 37.769C79.1912 37.9717 79.2989 38.13 79.4509 38.244C79.6029 38.358 79.8056 38.415 80.0589 38.415C80.3502 38.415 80.6162 38.339 80.8569 38.187C81.0976 38.035 81.2939 37.826 81.4459 37.56C81.5979 37.2814 81.6739 36.971 81.6739 36.629V31.29C81.6739 30.72 81.5916 30.302 81.4269 30.036C81.2622 29.7574 80.9646 29.618 80.5339 29.618V29.219C80.9392 29.257 81.3319 29.276 81.7119 29.276C82.2946 29.276 82.8392 29.257 83.3459 29.219C83.8526 29.1684 84.3212 29.0987 84.7519 29.01ZM98.2951 28.953C98.8524 28.953 99.2957 29.0227 99.6251 29.162C99.9671 29.3014 100.227 29.4787 100.404 29.694C100.607 29.9347 100.752 30.245 100.841 30.625C100.942 31.005 100.993 31.518 100.993 32.164V37.294C100.993 37.826 101.075 38.187 101.24 38.377C101.417 38.567 101.715 38.662 102.133 38.662V39.061C101.88 39.0484 101.5 39.0357 100.993 39.023C100.499 38.9977 100.018 38.985 99.5491 38.985C99.0297 38.985 98.5294 38.9977 98.0481 39.023C97.5667 39.0357 97.2057 39.0484 96.9651 39.061V38.662C97.3197 38.662 97.5667 38.567 97.7061 38.377C97.8454 38.187 97.9151 37.826 97.9151 37.294V31.252C97.9151 30.9607 97.8834 30.7137 97.8201 30.511C97.7567 30.2957 97.6491 30.1374 97.4971 30.036C97.3451 29.922 97.1297 29.865 96.8511 29.865C96.5597 29.865 96.2874 29.941 96.0341 30.093C95.7934 30.245 95.5971 30.4604 95.4451 30.739C95.3057 31.005 95.2361 31.309 95.2361 31.651V37.294C95.2361 37.826 95.3057 38.187 95.4451 38.377C95.5844 38.567 95.8314 38.662 96.1861 38.662V39.061C95.9454 39.0484 95.5971 39.0357 95.1411 39.023C94.6851 38.9977 94.2227 38.985 93.7541 38.985C93.2347 38.985 92.7154 38.9977 92.1961 39.023C91.6767 39.0357 91.2841 39.0484 91.0181 39.061V38.662C91.4361 38.662 91.7274 38.567 91.8921 38.377C92.0694 38.187 92.1581 37.826 92.1581 37.294V31.29C92.1581 30.72 92.0757 30.302 91.9111 30.036C91.7464 29.7574 91.4487 29.618 91.0181 29.618V29.219C91.4234 29.257 91.8161 29.276 92.1961 29.276C92.7661 29.276 93.3044 29.257 93.8111 29.219C94.3304 29.1684 94.8054 29.0987 95.2361 29.01V30.549C95.5401 29.9664 95.9517 29.5547 96.4711 29.314C97.0031 29.0734 97.6111 28.953 98.2951 28.953ZM107.76 28.953C108.874 28.953 109.748 29.2824 110.382 29.941C111.015 30.5997 111.332 31.6827 111.332 33.19H105.233L105.214 32.829H108.748C108.773 32.2084 108.748 31.6384 108.672 31.119C108.596 30.587 108.469 30.1627 108.292 29.846C108.127 29.5294 107.905 29.371 107.627 29.371C107.247 29.371 106.924 29.6434 106.658 30.188C106.392 30.7327 106.227 31.6574 106.164 32.962L106.24 33.095C106.214 33.2344 106.202 33.38 106.202 33.532C106.202 33.6714 106.202 33.8234 106.202 33.988C106.202 34.862 106.316 35.5587 106.544 36.078C106.784 36.5974 107.082 36.9647 107.437 37.18C107.791 37.3954 108.159 37.503 108.539 37.503C108.754 37.503 108.995 37.4714 109.261 37.408C109.527 37.3447 109.805 37.2117 110.097 37.009C110.388 36.8064 110.667 36.5087 110.933 36.116L111.256 36.23C111.116 36.724 110.876 37.2117 110.534 37.693C110.204 38.1617 109.78 38.5544 109.261 38.871C108.741 39.175 108.114 39.327 107.38 39.327C106.544 39.327 105.796 39.156 105.138 38.814C104.479 38.4594 103.953 37.9084 103.561 37.161C103.181 36.401 102.991 35.413 102.991 34.197C102.991 32.9937 103.2 32.0057 103.618 31.233C104.036 30.4604 104.606 29.8904 105.328 29.523C106.05 29.143 106.86 28.953 107.76 28.953ZM117.334 28.953C118.449 28.953 119.323 29.2824 119.956 29.941C120.589 30.5997 120.906 31.6827 120.906 33.19H114.807L114.788 32.829H118.322C118.347 32.2084 118.322 31.6384 118.246 31.119C118.17 30.587 118.043 30.1627 117.866 29.846C117.701 29.5294 117.48 29.371 117.201 29.371C116.821 29.371 116.498 29.6434 116.232 30.188C115.966 30.7327 115.801 31.6574 115.738 32.962L115.814 33.095C115.789 33.2344 115.776 33.38 115.776 33.532C115.776 33.6714 115.776 33.8234 115.776 33.988C115.776 34.862 115.89 35.5587 116.118 36.078C116.359 36.5974 116.656 36.9647 117.011 37.18C117.366 37.3954 117.733 37.503 118.113 37.503C118.328 37.503 118.569 37.4714 118.835 37.408C119.101 37.3447 119.38 37.2117 119.671 37.009C119.962 36.8064 120.241 36.5087 120.507 36.116L120.83 36.23C120.691 36.724 120.45 37.2117 120.108 37.693C119.779 38.1617 119.354 38.5544 118.835 38.871C118.316 39.175 117.689 39.327 116.954 39.327C116.118 39.327 115.371 39.156 114.712 38.814C114.053 38.4594 113.528 37.9084 113.135 37.161C112.755 36.401 112.565 35.413 112.565 34.197C112.565 32.9937 112.774 32.0057 113.192 31.233C113.61 30.4604 114.18 29.8904 114.902 29.523C115.624 29.143 116.435 28.953 117.334 28.953ZM131.487 24.203V36.971C131.487 37.541 131.569 37.9654 131.734 38.244C131.911 38.51 132.209 38.643 132.627 38.643V39.042C132.234 39.004 131.842 38.985 131.449 38.985C130.879 38.985 130.341 39.004 129.834 39.042C129.327 39.08 128.852 39.1497 128.409 39.251V26.483C128.409 25.913 128.327 25.495 128.162 25.229C128.01 24.9504 127.712 24.811 127.269 24.811V24.412C127.674 24.45 128.067 24.469 128.447 24.469C129.03 24.469 129.574 24.45 130.081 24.412C130.588 24.3614 131.056 24.2917 131.487 24.203ZM126.376 28.953C126.933 28.953 127.415 29.0354 127.82 29.2C128.225 29.352 128.561 29.6117 128.827 29.979L128.599 30.169C128.434 29.9537 128.232 29.7954 127.991 29.694C127.763 29.5927 127.522 29.542 127.269 29.542C126.661 29.542 126.186 29.922 125.844 30.682C125.515 31.4294 125.35 32.582 125.35 34.14C125.35 35.2294 125.413 36.0907 125.54 36.724C125.679 37.3447 125.863 37.7817 126.091 38.035C126.332 38.2884 126.598 38.415 126.889 38.415C127.282 38.415 127.63 38.2694 127.934 37.978C128.251 37.674 128.415 37.275 128.428 36.781L128.485 37.579C128.257 38.1617 127.94 38.5987 127.535 38.89C127.142 39.1814 126.636 39.327 126.015 39.327C125.28 39.327 124.615 39.1434 124.02 38.776C123.437 38.4087 122.975 37.845 122.633 37.085C122.304 36.3124 122.139 35.3117 122.139 34.083C122.139 32.9304 122.316 31.9804 122.671 31.233C123.038 30.473 123.539 29.903 124.172 29.523C124.818 29.143 125.553 28.953 126.376 28.953ZM28.7461 48.953C29.3035 48.953 29.7848 49.0164 30.1901 49.143C30.5955 49.2697 30.8931 49.39 31.0831 49.504C31.5265 49.7827 31.7925 49.6054 31.8811 48.972H32.2801C32.2548 49.3394 32.2358 49.7827 32.2231 50.302C32.2105 50.8087 32.2041 51.4927 32.2041 52.354H31.8051C31.7545 51.8854 31.6405 51.423 31.4631 50.967C31.2985 50.511 31.0515 50.1374 30.7221 49.846C30.3928 49.542 29.9621 49.39 29.4301 49.39C29.0881 49.39 28.7968 49.4914 28.5561 49.694C28.3281 49.8967 28.2141 50.1754 28.2141 50.53C28.2141 50.91 28.3281 51.2457 28.5561 51.537C28.7841 51.8284 29.0755 52.107 29.4301 52.373C29.7975 52.639 30.1648 52.924 30.5321 53.228C30.9375 53.532 31.2985 53.8424 31.6151 54.159C31.9445 54.463 32.2041 54.7987 32.3941 55.166C32.5968 55.5207 32.6981 55.9514 32.6981 56.458C32.6981 57.028 32.5271 57.5284 32.1851 57.959C31.8431 58.3897 31.3935 58.7254 30.8361 58.966C30.2788 59.2067 29.6581 59.327 28.9741 59.327C28.5561 59.327 28.1888 59.2827 27.8721 59.194C27.5681 59.118 27.3148 59.0167 27.1121 58.89C26.9221 58.8014 26.7511 58.7254 26.5991 58.662C26.4598 58.5987 26.3205 58.5544 26.1811 58.529C26.0545 58.5164 25.9468 58.5734 25.8581 58.7C25.7695 58.8267 25.6998 58.9914 25.6491 59.194H25.2501C25.2755 58.7887 25.2945 58.2947 25.3071 57.712C25.3198 57.1294 25.3261 56.3567 25.3261 55.394H25.7251C25.8011 56.078 25.9405 56.6797 26.1431 57.199C26.3585 57.7184 26.6435 58.13 26.9981 58.434C27.3528 58.7254 27.7708 58.871 28.2521 58.871C28.4675 58.871 28.6638 58.833 28.8411 58.757C29.0311 58.6684 29.1831 58.5354 29.2971 58.358C29.4238 58.1807 29.4871 57.9527 29.4871 57.674C29.4871 57.1167 29.3098 56.6544 28.9551 56.287C28.6005 55.907 28.1635 55.4954 27.6441 55.052C27.2388 54.71 26.8588 54.3744 26.5041 54.045C26.1621 53.7157 25.8771 53.3547 25.6491 52.962C25.4338 52.5694 25.3261 52.126 25.3261 51.632C25.3261 51.062 25.4845 50.5807 25.8011 50.188C26.1305 49.7827 26.5548 49.4787 27.0741 49.276C27.5935 49.0607 28.1508 48.953 28.7461 48.953ZM43.4863 49.01V56.99C43.4863 57.56 43.5686 57.9844 43.7333 58.263C43.9106 58.529 44.2083 58.662 44.6263 58.662V59.061C44.2336 59.023 43.841 59.004 43.4483 59.004C42.8656 59.004 42.321 59.023 41.8143 59.061C41.3203 59.099 40.8516 59.1687 40.4083 59.27V57.731C40.1043 58.301 39.6863 58.7127 39.1543 58.966C38.635 59.2067 38.0396 59.327 37.3683 59.327C36.811 59.327 36.3613 59.2574 36.0193 59.118C35.69 58.9787 35.4366 58.795 35.2593 58.567C35.0566 58.339 34.911 58.035 34.8223 57.655C34.7336 57.2624 34.6893 56.7494 34.6893 56.116V51.29C34.6893 50.72 34.607 50.302 34.4423 50.036C34.2776 49.7574 33.98 49.618 33.5493 49.618V49.219C33.9546 49.257 34.3473 49.276 34.7273 49.276C35.31 49.276 35.8546 49.257 36.3613 49.219C36.868 49.1684 37.3366 49.0987 37.7673 49.01V57.028C37.7673 57.3194 37.799 57.5664 37.8623 57.769C37.9256 57.9717 38.0333 58.13 38.1853 58.244C38.3373 58.358 38.54 58.415 38.7933 58.415C39.0846 58.415 39.3506 58.339 39.5913 58.187C39.832 58.035 40.0283 57.826 40.1803 57.56C40.3323 57.2814 40.4083 56.971 40.4083 56.629V51.29C40.4083 50.72 40.326 50.302 40.1613 50.036C39.9966 49.7574 39.699 49.618 39.2683 49.618V49.219C39.6736 49.257 40.0663 49.276 40.4463 49.276C41.029 49.276 41.5736 49.257 42.0803 49.219C42.587 49.1684 43.0556 49.0987 43.4863 49.01ZM49.5712 49.029V60.581C49.5712 61.189 49.7169 61.5944 50.0082 61.797C50.3122 61.9997 50.7239 62.101 51.2432 62.101V62.5C50.9012 62.4874 50.4262 62.4684 49.8182 62.443C49.2102 62.4304 48.5705 62.424 47.8992 62.424C47.4179 62.424 46.9365 62.4304 46.4552 62.443C45.9865 62.4684 45.6319 62.4874 45.3912 62.5V62.101C45.7965 62.101 46.0815 62.006 46.2462 61.816C46.4109 61.6387 46.4932 61.2904 46.4932 60.771V51.309C46.4932 50.739 46.4109 50.321 46.2462 50.055C46.0815 49.7764 45.7839 49.637 45.3532 49.637V49.238C45.7585 49.276 46.1512 49.295 46.5312 49.295C47.1139 49.295 47.6585 49.276 48.1652 49.238C48.6719 49.1874 49.1405 49.1177 49.5712 49.029ZM52.4782 48.953C53.1242 48.953 53.6942 49.1304 54.1882 49.485C54.6949 49.827 55.0939 50.3527 55.3852 51.062C55.6892 51.7587 55.8412 52.639 55.8412 53.703C55.8412 54.7037 55.7272 55.5587 55.4992 56.268C55.2839 56.9774 54.9735 57.56 54.5682 58.016C54.1755 58.472 53.7069 58.8077 53.1622 59.023C52.6302 59.2257 52.0539 59.327 51.4332 59.327C50.9645 59.327 50.5275 59.2574 50.1222 59.118C49.7295 58.9914 49.4192 58.7824 49.1912 58.491L49.3812 58.244C49.4952 58.4214 49.6535 58.5544 49.8562 58.643C50.0589 58.7317 50.2742 58.776 50.5022 58.776C51.0215 58.776 51.4332 58.5987 51.7372 58.244C52.0539 57.8767 52.2819 57.3447 52.4212 56.648C52.5605 55.9514 52.6302 55.1027 52.6302 54.102C52.6302 53 52.5669 52.145 52.4402 51.537C52.3135 50.9164 52.1425 50.4794 51.9272 50.226C51.7119 49.9727 51.4585 49.846 51.1672 49.846C50.7619 49.846 50.3945 50.0044 50.0652 50.321C49.7485 50.625 49.5712 51.043 49.5332 51.575L49.4952 50.777C49.7612 50.169 50.1539 49.713 50.6732 49.409C51.1925 49.105 51.7942 48.953 52.4782 48.953ZM61.0936 49.029V60.581C61.0936 61.189 61.2393 61.5944 61.5306 61.797C61.8346 61.9997 62.2463 62.101 62.7656 62.101V62.5C62.4236 62.4874 61.9486 62.4684 61.3406 62.443C60.7326 62.4304 60.093 62.424 59.4216 62.424C58.9403 62.424 58.459 62.4304 57.9776 62.443C57.509 62.4684 57.1543 62.4874 56.9136 62.5V62.101C57.319 62.101 57.604 62.006 57.7686 61.816C57.9333 61.6387 58.0156 61.2904 58.0156 60.771V51.309C58.0156 50.739 57.9333 50.321 57.7686 50.055C57.604 49.7764 57.3063 49.637 56.8756 49.637V49.238C57.281 49.276 57.6736 49.295 58.0536 49.295C58.6363 49.295 59.181 49.276 59.6876 49.238C60.1943 49.1874 60.663 49.1177 61.0936 49.029ZM64.0006 48.953C64.6466 48.953 65.2166 49.1304 65.7106 49.485C66.2173 49.827 66.6163 50.3527 66.9076 51.062C67.2116 51.7587 67.3636 52.639 67.3636 53.703C67.3636 54.7037 67.2496 55.5587 67.0216 56.268C66.8063 56.9774 66.496 57.56 66.0906 58.016C65.698 58.472 65.2293 58.8077 64.6846 59.023C64.1526 59.2257 63.5763 59.327 62.9556 59.327C62.487 59.327 62.05 59.2574 61.6446 59.118C61.252 58.9914 60.9416 58.7824 60.7136 58.491L60.9036 58.244C61.0176 58.4214 61.176 58.5544 61.3786 58.643C61.5813 58.7317 61.7966 58.776 62.0246 58.776C62.544 58.776 62.9556 58.5987 63.2596 58.244C63.5763 57.8767 63.8043 57.3447 63.9436 56.648C64.083 55.9514 64.1526 55.1027 64.1526 54.102C64.1526 53 64.0893 52.145 63.9626 51.537C63.836 50.9164 63.665 50.4794 63.4496 50.226C63.2343 49.9727 62.981 49.846 62.6896 49.846C62.2843 49.846 61.917 50.0044 61.5876 50.321C61.271 50.625 61.0936 51.043 61.0556 51.575L61.0176 50.777C61.2836 50.169 61.6763 49.713 62.1956 49.409C62.715 49.105 63.3166 48.953 64.0006 48.953ZM73.4521 48.953C74.4021 48.953 75.2318 49.124 75.9411 49.466C76.6631 49.7954 77.2204 50.34 77.6131 51.1C78.0184 51.86 78.2211 52.8734 78.2211 54.14C78.2211 55.4067 78.0184 56.42 77.6131 57.18C77.2204 57.94 76.6631 58.491 75.9411 58.833C75.2318 59.1624 74.4021 59.327 73.4521 59.327C72.5148 59.327 71.6851 59.1624 70.9631 58.833C70.2538 58.491 69.6964 57.94 69.2911 57.18C68.8858 56.42 68.6831 55.4067 68.6831 54.14C68.6831 52.8734 68.8858 51.86 69.2911 51.1C69.6964 50.34 70.2538 49.7954 70.9631 49.466C71.6851 49.124 72.5148 48.953 73.4521 48.953ZM73.4521 49.333C73.0088 49.333 72.6351 49.713 72.3311 50.473C72.0398 51.2204 71.8941 52.4427 71.8941 54.14C71.8941 55.8374 72.0398 57.066 72.3311 57.826C72.6351 58.5734 73.0088 58.947 73.4521 58.947C73.9081 58.947 74.2818 58.5734 74.5731 57.826C74.8644 57.066 75.0101 55.8374 75.0101 54.14C75.0101 52.4427 74.8644 51.2204 74.5731 50.473C74.2818 49.713 73.9081 49.333 73.4521 49.333ZM86.036 48.953C86.4667 48.953 86.8087 49.048 87.062 49.238C87.3154 49.4154 87.499 49.6497 87.613 49.941C87.727 50.2197 87.784 50.4984 87.784 50.777C87.784 51.2964 87.632 51.7144 87.328 52.031C87.0367 52.3477 86.6504 52.506 86.169 52.506C85.6624 52.506 85.276 52.392 85.01 52.164C84.744 51.9234 84.611 51.6067 84.611 51.214C84.611 50.8214 84.6934 50.4984 84.858 50.245C85.0354 49.9917 85.2507 49.7764 85.504 49.599C85.314 49.5737 85.1304 49.599 84.953 49.675C84.7504 49.7257 84.5604 49.8207 84.383 49.96C84.2057 50.0994 84.0537 50.264 83.927 50.454C83.8004 50.644 83.699 50.853 83.623 51.081C83.5597 51.2964 83.528 51.518 83.528 51.746V57.104C83.528 57.712 83.661 58.1237 83.927 58.339C84.2057 58.5544 84.6427 58.662 85.238 58.662V59.061C84.9467 59.0484 84.516 59.0357 83.946 59.023C83.376 58.9977 82.787 58.985 82.179 58.985C81.6344 58.985 81.0834 58.9977 80.526 59.023C79.9814 59.0357 79.576 59.0484 79.31 59.061V58.662C79.728 58.662 80.0194 58.567 80.184 58.377C80.3614 58.187 80.45 57.826 80.45 57.294V51.29C80.45 50.72 80.3677 50.302 80.203 50.036C80.0384 49.7574 79.7407 49.618 79.31 49.618V49.219C79.7154 49.257 80.108 49.276 80.488 49.276C81.058 49.276 81.5964 49.257 82.103 49.219C82.6224 49.1684 83.0974 49.0987 83.528 49.01V50.568C83.68 50.2387 83.8764 49.9537 84.117 49.713C84.3704 49.4724 84.6554 49.2887 84.972 49.162C85.3014 49.0227 85.656 48.953 86.036 48.953ZM92.4321 46.122V49.219H94.4841V49.599H92.4321V57.37C92.4321 57.6867 92.4891 57.9147 92.6031 58.054C92.7171 58.1807 92.8881 58.244 93.1161 58.244C93.3061 58.244 93.5024 58.1807 93.7051 58.054C93.9204 57.9274 94.1167 57.712 94.2941 57.408L94.5981 57.598C94.3574 58.1174 94.0217 58.5354 93.5911 58.852C93.1731 59.1687 92.6221 59.327 91.9381 59.327C91.5201 59.327 91.1464 59.27 90.8171 59.156C90.5004 59.0547 90.2344 58.8964 90.0191 58.681C89.7404 58.4024 89.5567 58.0604 89.4681 57.655C89.3921 57.237 89.3541 56.6987 89.3541 56.04V49.599H87.8341V49.219H89.3541V46.844C89.9494 46.844 90.4941 46.787 90.9881 46.673C91.4947 46.559 91.9761 46.3754 92.4321 46.122ZM99.1692 44.203C100.119 44.203 100.949 44.3424 101.658 44.621C102.368 44.887 102.919 45.2797 103.311 45.799C103.717 46.3057 103.919 46.9137 103.919 47.623C103.919 48.3324 103.704 48.9657 103.273 49.523C102.855 50.0804 102.266 50.5554 101.506 50.948C100.759 51.328 99.8849 51.6257 98.8842 51.841V54.615H98.5042V51.67C99.1755 51.3534 99.6759 51.005 100.005 50.625C100.347 50.245 100.575 49.8334 100.689 49.39C100.803 48.9467 100.86 48.478 100.86 47.984C100.86 46.7807 100.651 45.913 100.233 45.381C99.8279 44.849 99.2959 44.583 98.6372 44.583C98.2825 44.583 97.9659 44.621 97.6872 44.697C97.4085 44.773 97.1995 44.8744 97.0602 45.001C97.4402 45.1404 97.7252 45.3367 97.9152 45.59C98.1179 45.8307 98.2192 46.1474 98.2192 46.54C98.2192 46.958 98.0672 47.3127 97.7632 47.604C97.4592 47.8827 97.0539 48.022 96.5472 48.022C96.1165 48.022 95.7682 47.8827 95.5022 47.604C95.2362 47.3127 95.1032 46.977 95.1032 46.597C95.1032 46.179 95.2109 45.837 95.4262 45.571C95.6415 45.2924 95.9139 45.058 96.2432 44.868C96.5599 44.6907 96.9652 44.5387 97.4592 44.412C97.9532 44.2727 98.5232 44.203 99.1692 44.203ZM98.7322 56.23C99.2642 56.23 99.6885 56.363 100.005 56.629C100.322 56.895 100.48 57.275 100.48 57.769C100.48 58.2757 100.322 58.662 100.005 58.928C99.6885 59.194 99.2642 59.327 98.7322 59.327C98.1749 59.327 97.7442 59.194 97.4402 58.928C97.1362 58.662 96.9842 58.2757 96.9842 57.769C96.9842 57.275 97.1362 56.895 97.4402 56.629C97.7442 56.363 98.1749 56.23 98.7322 56.23Z" fill="#302C60"/>
<path d="M30.9641 100.322L29.2041 97.8473C29.0061 97.8693 28.8008 97.8803 28.5881 97.8803H26.5201V100.322H25.7061V92.6223H28.5881C29.5708 92.6223 30.3408 92.8569 30.8981 93.3263C31.4555 93.7956 31.7341 94.4409 31.7341 95.2623C31.7341 95.8636 31.5801 96.3733 31.2721 96.7913C30.9715 97.2019 30.5388 97.4989 29.9741 97.6823L31.8551 100.322H30.9641ZM28.5661 97.1873C29.3288 97.1873 29.9118 97.0186 30.3151 96.6813C30.7185 96.3439 30.9201 95.8709 30.9201 95.2623C30.9201 94.6389 30.7185 94.1623 30.3151 93.8323C29.9118 93.4949 29.3288 93.3263 28.5661 93.3263H26.5201V97.1873H28.5661ZM38.5284 97.6713H33.6884C33.7324 98.2726 33.9634 98.7603 34.3814 99.1343C34.7994 99.5009 35.3274 99.6843 35.9654 99.6843C36.3247 99.6843 36.6547 99.6219 36.9554 99.4973C37.256 99.3653 37.5164 99.1746 37.7364 98.9253L38.1764 99.4313C37.9197 99.7393 37.597 99.9739 37.2084 100.135C36.827 100.297 36.4054 100.377 35.9434 100.377C35.3494 100.377 34.8214 100.253 34.3594 100.003C33.9047 99.7466 33.549 99.3946 33.2924 98.9473C33.0357 98.4999 32.9074 97.9939 32.9074 97.4293C32.9074 96.8646 33.0284 96.3586 33.2704 95.9113C33.5197 95.4639 33.857 95.1156 34.2824 94.8663C34.715 94.6169 35.199 94.4923 35.7344 94.4923C36.2697 94.4923 36.75 94.6169 37.1754 94.8663C37.6007 95.1156 37.9344 95.4639 38.1764 95.9113C38.4184 96.3513 38.5394 96.8573 38.5394 97.4293L38.5284 97.6713ZM35.7344 95.1633C35.177 95.1633 34.7077 95.3429 34.3264 95.7023C33.9524 96.0543 33.7397 96.5163 33.6884 97.0883H37.7914C37.74 96.5163 37.5237 96.0543 37.1424 95.7023C36.7684 95.3429 36.299 95.1633 35.7344 95.1633ZM41.9919 94.4923C42.7472 94.4923 43.3266 94.6829 43.7299 95.0643C44.1332 95.4383 44.3349 95.9956 44.3349 96.7363V100.322H43.5869V99.4203C43.4109 99.7209 43.1506 99.9556 42.8059 100.124C42.4686 100.293 42.0652 100.377 41.5959 100.377C40.9506 100.377 40.4372 100.223 40.0559 99.9153C39.6746 99.6073 39.4839 99.2003 39.4839 98.6943C39.4839 98.2029 39.6599 97.8069 40.0119 97.5063C40.3712 97.2056 40.9396 97.0553 41.7169 97.0553H43.5539V96.7033C43.5539 96.2046 43.4146 95.8269 43.1359 95.5703C42.8572 95.3063 42.4502 95.1743 41.9149 95.1743C41.5482 95.1743 41.1962 95.2366 40.8589 95.3613C40.5216 95.4786 40.2319 95.6436 39.9899 95.8563L39.6379 95.2733C39.9312 95.0239 40.2832 94.8333 40.6939 94.7013C41.1046 94.5619 41.5372 94.4923 41.9919 94.4923ZM41.7169 99.7613C42.1569 99.7613 42.5346 99.6623 42.8499 99.4643C43.1652 99.2589 43.3999 98.9656 43.5539 98.5843V97.6383H41.7389C40.7489 97.6383 40.2539 97.9829 40.2539 98.6723C40.2539 99.0096 40.3822 99.2773 40.6389 99.4753C40.8956 99.6659 41.2549 99.7613 41.7169 99.7613ZM48.8757 100.377C48.3037 100.377 47.7903 100.253 47.3357 100.003C46.8883 99.7539 46.5363 99.4056 46.2797 98.9583C46.023 98.5036 45.8947 97.9939 45.8947 97.4293C45.8947 96.8646 46.023 96.3586 46.2797 95.9113C46.5363 95.4639 46.8883 95.1156 47.3357 94.8663C47.7903 94.6169 48.3037 94.4923 48.8757 94.4923C49.3743 94.4923 49.818 94.5913 50.2067 94.7893C50.6027 94.9799 50.9143 95.2623 51.1417 95.6363L50.5587 96.0323C50.368 95.7463 50.126 95.5336 49.8327 95.3943C49.5393 95.2476 49.2203 95.1743 48.8757 95.1743C48.4577 95.1743 48.08 95.2696 47.7427 95.4603C47.4127 95.6436 47.1523 95.9076 46.9617 96.2523C46.7783 96.5969 46.6867 96.9893 46.6867 97.4293C46.6867 97.8766 46.7783 98.2726 46.9617 98.6173C47.1523 98.9546 47.4127 99.2186 47.7427 99.4093C48.08 99.5926 48.4577 99.6843 48.8757 99.6843C49.2203 99.6843 49.5393 99.6146 49.8327 99.4753C50.126 99.3359 50.368 99.1233 50.5587 98.8373L51.1417 99.2333C50.9143 99.6073 50.6027 99.8933 50.2067 100.091C49.8107 100.282 49.367 100.377 48.8757 100.377ZM55.538 94.4923C56.264 94.4923 56.8396 94.7049 57.265 95.1303C57.6976 95.5483 57.914 96.1606 57.914 96.9673V100.322H57.133V97.0443C57.133 96.4429 56.9826 95.9846 56.682 95.6693C56.3813 95.3539 55.9523 95.1963 55.395 95.1963C54.7716 95.1963 54.2766 95.3833 53.91 95.7573C53.5506 96.1239 53.371 96.6336 53.371 97.2863V100.322H52.59V92.1603H53.371V95.5483C53.5836 95.2109 53.877 94.9506 54.251 94.7673C54.625 94.5839 55.054 94.4923 55.538 94.4923ZM65.2782 100.377C64.7209 100.377 64.2186 100.253 63.7712 100.003C63.3239 99.7466 62.9719 99.3946 62.7152 98.9473C62.4586 98.4999 62.3302 97.9939 62.3302 97.4293C62.3302 96.8646 62.4586 96.3586 62.7152 95.9113C62.9719 95.4639 63.3239 95.1156 63.7712 94.8663C64.2186 94.6169 64.7209 94.4923 65.2782 94.4923C65.8356 94.4923 66.3379 94.6169 66.7852 94.8663C67.2326 95.1156 67.5809 95.4639 67.8302 95.9113C68.0869 96.3586 68.2152 96.8646 68.2152 97.4293C68.2152 97.9939 68.0869 98.4999 67.8302 98.9473C67.5809 99.3946 67.2326 99.7466 66.7852 100.003C66.3379 100.253 65.8356 100.377 65.2782 100.377ZM65.2782 99.6843C65.6889 99.6843 66.0556 99.5926 66.3782 99.4093C66.7082 99.2186 66.9649 98.9509 67.1482 98.6063C67.3316 98.2616 67.4232 97.8693 67.4232 97.4293C67.4232 96.9893 67.3316 96.5969 67.1482 96.2523C66.9649 95.9076 66.7082 95.6436 66.3782 95.4603C66.0556 95.2696 65.6889 95.1743 65.2782 95.1743C64.8676 95.1743 64.4972 95.2696 64.1672 95.4603C63.8446 95.6436 63.5879 95.9076 63.3972 96.2523C63.2139 96.5969 63.1222 96.9893 63.1222 97.4293C63.1222 97.8693 63.2139 98.2616 63.3972 98.6063C63.5879 98.9509 63.8446 99.2186 64.1672 99.4093C64.4972 99.5926 64.8676 99.6843 65.2782 99.6843ZM75.0237 94.5363V100.322H74.2757V99.2663C74.0704 99.6183 73.788 99.8933 73.4287 100.091C73.0694 100.282 72.6587 100.377 72.1967 100.377C71.4414 100.377 70.8437 100.168 70.4037 99.7503C69.971 99.3249 69.7547 98.7053 69.7547 97.8913V94.5363H70.5357V97.8143C70.5357 98.4229 70.686 98.8849 70.9867 99.2003C71.2874 99.5156 71.7164 99.6733 72.2737 99.6733C72.8824 99.6733 73.3627 99.4899 73.7147 99.1233C74.0667 98.7493 74.2427 98.2323 74.2427 97.5723V94.5363H75.0237ZM80.2581 99.9703C80.1114 100.102 79.9281 100.205 79.7081 100.278C79.4954 100.344 79.2717 100.377 79.0371 100.377C78.4944 100.377 78.0764 100.231 77.7831 99.9373C77.4897 99.6439 77.3431 99.2296 77.3431 98.6943V95.1963H76.3091V94.5363H77.3431V93.2713H78.1241V94.5363H79.8841V95.1963H78.1241V98.6503C78.1241 98.9949 78.2084 99.2589 78.3771 99.4423C78.5531 99.6183 78.8024 99.7063 79.1251 99.7063C79.2864 99.7063 79.4404 99.6806 79.5871 99.6293C79.7411 99.5779 79.8731 99.5046 79.9831 99.4093L80.2581 99.9703ZM89.4207 94.5363L86.8467 100.322H86.0437L83.4807 94.5363H84.2947L86.4617 99.4643L88.6507 94.5363H89.4207ZM90.5206 94.5363H91.3016V100.322H90.5206V94.5363ZM90.9166 93.2713C90.7553 93.2713 90.6196 93.2163 90.5096 93.1063C90.3996 92.9963 90.3446 92.8643 90.3446 92.7103C90.3446 92.5636 90.3996 92.4353 90.5096 92.3253C90.6196 92.2153 90.7553 92.1603 90.9166 92.1603C91.078 92.1603 91.2136 92.2153 91.3236 92.3253C91.4336 92.4279 91.4886 92.5526 91.4886 92.6993C91.4886 92.8606 91.4336 92.9963 91.3236 93.1063C91.2136 93.2163 91.078 93.2713 90.9166 93.2713ZM95.4987 94.4923C96.2541 94.4923 96.8334 94.6829 97.2367 95.0643C97.6401 95.4383 97.8417 95.9956 97.8417 96.7363V100.322H97.0937V99.4203C96.9177 99.7209 96.6574 99.9556 96.3127 100.124C95.9754 100.293 95.5721 100.377 95.1027 100.377C94.4574 100.377 93.9441 100.223 93.5627 99.9153C93.1814 99.6073 92.9907 99.2003 92.9907 98.6943C92.9907 98.2029 93.1667 97.8069 93.5187 97.5063C93.8781 97.2056 94.4464 97.0553 95.2237 97.0553H97.0607V96.7033C97.0607 96.2046 96.9214 95.8269 96.6427 95.5703C96.3641 95.3063 95.9571 95.1743 95.4217 95.1743C95.0551 95.1743 94.7031 95.2366 94.3657 95.3613C94.0284 95.4786 93.7387 95.6436 93.4967 95.8563L93.1447 95.2733C93.4381 95.0239 93.7901 94.8333 94.2007 94.7013C94.6114 94.5619 95.0441 94.4923 95.4987 94.4923ZM95.2237 99.7613C95.6637 99.7613 96.0414 99.6623 96.3567 99.4643C96.6721 99.2589 96.9067 98.9656 97.0607 98.5843V97.6383H95.2457C94.2557 97.6383 93.7607 97.9829 93.7607 98.6723C93.7607 99.0096 93.8891 99.2773 94.1457 99.4753C94.4024 99.6659 94.7617 99.7613 95.2237 99.7613ZM103.007 92.6223H106.142C106.956 92.6223 107.675 92.7873 108.298 93.1173C108.921 93.4399 109.405 93.8946 109.75 94.4813C110.095 95.0606 110.267 95.7243 110.267 96.4723C110.267 97.2203 110.095 97.8876 109.75 98.4743C109.405 99.0536 108.921 99.5083 108.298 99.8383C107.675 100.161 106.956 100.322 106.142 100.322H103.007V92.6223ZM106.098 99.6183C106.773 99.6183 107.363 99.4863 107.869 99.2223C108.375 98.9509 108.767 98.5806 109.046 98.1113C109.325 97.6346 109.464 97.0883 109.464 96.4723C109.464 95.8563 109.325 95.3136 109.046 94.8443C108.767 94.3676 108.375 93.9973 107.869 93.7333C107.363 93.4619 106.773 93.3263 106.098 93.3263H103.821V99.6183H106.098ZM111.93 94.5363H112.711V100.322H111.93V94.5363ZM112.326 93.2713C112.164 93.2713 112.029 93.2163 111.919 93.1063C111.809 92.9963 111.754 92.8643 111.754 92.7103C111.754 92.5636 111.809 92.4353 111.919 92.3253C112.029 92.2153 112.164 92.1603 112.326 92.1603C112.487 92.1603 112.623 92.2153 112.733 92.3253C112.843 92.4279 112.898 92.5526 112.898 92.6993C112.898 92.8606 112.843 92.9963 112.733 93.1063C112.623 93.2163 112.487 93.2713 112.326 93.2713ZM116.435 100.377C115.966 100.377 115.515 100.311 115.082 100.179C114.657 100.04 114.323 99.8676 114.081 99.6623L114.433 99.0463C114.675 99.2369 114.979 99.3946 115.346 99.5193C115.713 99.6366 116.094 99.6953 116.49 99.6953C117.018 99.6953 117.407 99.6146 117.656 99.4533C117.913 99.2846 118.041 99.0499 118.041 98.7493C118.041 98.5366 117.971 98.3716 117.832 98.2543C117.693 98.1296 117.517 98.0379 117.304 97.9793C117.091 97.9133 116.809 97.8509 116.457 97.7923C115.988 97.7043 115.61 97.6163 115.324 97.5283C115.038 97.4329 114.792 97.2753 114.587 97.0553C114.389 96.8353 114.29 96.5309 114.29 96.1423C114.29 95.6583 114.492 95.2623 114.895 94.9543C115.298 94.6463 115.859 94.4923 116.578 94.4923C116.952 94.4923 117.326 94.5436 117.7 94.6463C118.074 94.7416 118.382 94.8699 118.624 95.0313L118.283 95.6583C117.806 95.3283 117.238 95.1633 116.578 95.1633C116.079 95.1633 115.702 95.2513 115.445 95.4273C115.196 95.6033 115.071 95.8343 115.071 96.1203C115.071 96.3403 115.141 96.5163 115.28 96.6483C115.427 96.7803 115.606 96.8793 115.819 96.9453C116.032 97.0039 116.325 97.0663 116.699 97.1323C117.161 97.2203 117.531 97.3083 117.81 97.3963C118.089 97.4843 118.327 97.6346 118.525 97.8473C118.723 98.0599 118.822 98.3533 118.822 98.7273C118.822 99.2333 118.609 99.6366 118.184 99.9373C117.766 100.231 117.183 100.377 116.435 100.377ZM122.664 100.377C122.092 100.377 121.578 100.253 121.124 100.003C120.676 99.7539 120.324 99.4056 120.068 98.9583C119.811 98.5036 119.683 97.9939 119.683 97.4293C119.683 96.8646 119.811 96.3586 120.068 95.9113C120.324 95.4639 120.676 95.1156 121.124 94.8663C121.578 94.6169 122.092 94.4923 122.664 94.4923C123.162 94.4923 123.606 94.5913 123.995 94.7893C124.391 94.9799 124.702 95.2623 124.93 95.6363L124.347 96.0323C124.156 95.7463 123.914 95.5336 123.621 95.3943C123.327 95.2476 123.008 95.1743 122.664 95.1743C122.246 95.1743 121.868 95.2696 121.531 95.4603C121.201 95.6436 120.94 95.9076 120.75 96.2523C120.566 96.5969 120.475 96.9893 120.475 97.4293C120.475 97.8766 120.566 98.2726 120.75 98.6173C120.94 98.9546 121.201 99.2186 121.531 99.4093C121.868 99.5926 122.246 99.6843 122.664 99.6843C123.008 99.6843 123.327 99.6146 123.621 99.4753C123.914 99.3359 124.156 99.1233 124.347 98.8373L124.93 99.2333C124.702 99.6073 124.391 99.8933 123.995 100.091C123.599 100.282 123.155 100.377 122.664 100.377ZM128.732 100.377C128.175 100.377 127.673 100.253 127.225 100.003C126.778 99.7466 126.426 99.3946 126.169 98.9473C125.913 98.4999 125.784 97.9939 125.784 97.4293C125.784 96.8646 125.913 96.3586 126.169 95.9113C126.426 95.4639 126.778 95.1156 127.225 94.8663C127.673 94.6169 128.175 94.4923 128.732 94.4923C129.29 94.4923 129.792 94.6169 130.239 94.8663C130.687 95.1156 131.035 95.4639 131.284 95.9113C131.541 96.3586 131.669 96.8646 131.669 97.4293C131.669 97.9939 131.541 98.4999 131.284 98.9473C131.035 99.3946 130.687 99.7466 130.239 100.003C129.792 100.253 129.29 100.377 128.732 100.377ZM128.732 99.6843C129.143 99.6843 129.51 99.5926 129.832 99.4093C130.162 99.2186 130.419 98.9509 130.602 98.6063C130.786 98.2616 130.877 97.8693 130.877 97.4293C130.877 96.9893 130.786 96.5969 130.602 96.2523C130.419 95.9076 130.162 95.6436 129.832 95.4603C129.51 95.2696 129.143 95.1743 128.732 95.1743C128.322 95.1743 127.951 95.2696 127.621 95.4603C127.299 95.6436 127.042 95.9076 126.851 96.2523C126.668 96.5969 126.576 96.9893 126.576 97.4293C126.576 97.8693 126.668 98.2616 126.851 98.6063C127.042 98.9509 127.299 99.2186 127.621 99.4093C127.951 99.5926 128.322 99.6843 128.732 99.6843ZM134.012 95.6693C134.195 95.2806 134.466 94.9873 134.826 94.7893C135.192 94.5913 135.643 94.4923 136.179 94.4923V95.2513L135.992 95.2403C135.383 95.2403 134.906 95.4273 134.562 95.8013C134.217 96.1753 134.045 96.6996 134.045 97.3743V100.322H133.264V94.5363H134.012V95.6693ZM142.819 92.1603V100.322H142.071V99.1783C141.837 99.5669 141.525 99.8639 141.136 100.069C140.755 100.275 140.322 100.377 139.838 100.377C139.296 100.377 138.804 100.253 138.364 100.003C137.924 99.7539 137.58 99.4056 137.33 98.9583C137.081 98.5109 136.956 98.0013 136.956 97.4293C136.956 96.8573 137.081 96.3476 137.33 95.9003C137.58 95.4529 137.924 95.1083 138.364 94.8663C138.804 94.6169 139.296 94.4923 139.838 94.4923C140.308 94.4923 140.729 94.5913 141.103 94.7893C141.485 94.9799 141.796 95.2623 142.038 95.6363V92.1603H142.819ZM139.904 99.6843C140.308 99.6843 140.671 99.5926 140.993 99.4093C141.323 99.2186 141.58 98.9509 141.763 98.6063C141.954 98.2616 142.049 97.8693 142.049 97.4293C142.049 96.9893 141.954 96.5969 141.763 96.2523C141.58 95.9076 141.323 95.6436 140.993 95.4603C140.671 95.2696 140.308 95.1743 139.904 95.1743C139.494 95.1743 139.123 95.2696 138.793 95.4603C138.471 95.6436 138.214 95.9076 138.023 96.2523C137.84 96.5969 137.748 96.9893 137.748 97.4293C137.748 97.8693 137.84 98.2616 138.023 98.6063C138.214 98.9509 138.471 99.2186 138.793 99.4093C139.123 99.5926 139.494 99.6843 139.904 99.6843ZM145.082 99.1783C145.251 99.1783 145.39 99.2369 145.5 99.3543C145.61 99.4643 145.665 99.6036 145.665 99.7723C145.665 99.8603 145.651 99.9556 145.621 100.058C145.599 100.161 145.563 100.278 145.511 100.41L145.049 101.928H144.521L144.895 100.333C144.778 100.297 144.683 100.231 144.609 100.135C144.536 100.033 144.499 99.9116 144.499 99.7723C144.499 99.6036 144.554 99.4643 144.664 99.3543C144.774 99.2369 144.914 99.1783 145.082 99.1783ZM155.242 97.6713H150.402C150.446 98.2726 150.677 98.7603 151.095 99.1343C151.513 99.5009 152.041 99.6843 152.679 99.6843C153.039 99.6843 153.369 99.6219 153.669 99.4973C153.97 99.3653 154.23 99.1746 154.45 98.9253L154.89 99.4313C154.634 99.7393 154.311 99.9739 153.922 100.135C153.541 100.297 153.119 100.377 152.657 100.377C152.063 100.377 151.535 100.253 151.073 100.003C150.619 99.7466 150.263 99.3946 150.006 98.9473C149.75 98.4999 149.621 97.9939 149.621 97.4293C149.621 96.8646 149.742 96.3586 149.984 95.9113C150.234 95.4639 150.571 95.1156 150.996 94.8663C151.429 94.6169 151.913 94.4923 152.448 94.4923C152.984 94.4923 153.464 94.6169 153.889 94.8663C154.315 95.1156 154.648 95.4639 154.89 95.9113C155.132 96.3513 155.253 96.8573 155.253 97.4293L155.242 97.6713ZM152.448 95.1633C151.891 95.1633 151.422 95.3429 151.04 95.7023C150.666 96.0543 150.454 96.5163 150.402 97.0883H154.505C154.454 96.5163 154.238 96.0543 153.856 95.7023C153.482 95.3429 153.013 95.1633 152.448 95.1633ZM164.059 94.4923C164.785 94.4923 165.353 94.7013 165.764 95.1193C166.182 95.5373 166.391 96.1533 166.391 96.9673V100.322H165.61V97.0443C165.61 96.4429 165.463 95.9846 165.17 95.6693C164.884 95.3539 164.477 95.1963 163.949 95.1963C163.348 95.1963 162.875 95.3833 162.53 95.7573C162.185 96.1239 162.013 96.6336 162.013 97.2863V100.322H161.232V97.0443C161.232 96.4429 161.085 95.9846 160.792 95.6693C160.506 95.3539 160.095 95.1963 159.56 95.1963C158.966 95.1963 158.493 95.3833 158.141 95.7573C157.796 96.1239 157.624 96.6336 157.624 97.2863V100.322H156.843V94.5363H157.591V95.5923C157.796 95.2403 158.082 94.9689 158.449 94.7783C158.816 94.5876 159.237 94.4923 159.714 94.4923C160.198 94.4923 160.616 94.5949 160.968 94.8003C161.327 95.0056 161.595 95.3099 161.771 95.7133C161.984 95.3319 162.288 95.0349 162.684 94.8223C163.087 94.6023 163.546 94.4923 164.059 94.4923ZM170.533 94.4923C171.288 94.4923 171.868 94.6829 172.271 95.0643C172.674 95.4383 172.876 95.9956 172.876 96.7363V100.322H172.128V99.4203C171.952 99.7209 171.692 99.9556 171.347 100.124C171.01 100.293 170.606 100.377 170.137 100.377C169.492 100.377 168.978 100.223 168.597 99.9153C168.216 99.6073 168.025 99.2003 168.025 98.6943C168.025 98.2029 168.201 97.8069 168.553 97.5063C168.912 97.2056 169.481 97.0553 170.258 97.0553H172.095V96.7033C172.095 96.2046 171.956 95.8269 171.677 95.5703C171.398 95.3063 170.991 95.1743 170.456 95.1743C170.089 95.1743 169.737 95.2366 169.4 95.3613C169.063 95.4786 168.773 95.6436 168.531 95.8563L168.179 95.2733C168.472 95.0239 168.824 94.8333 169.235 94.7013C169.646 94.5619 170.078 94.4923 170.533 94.4923ZM170.258 99.7613C170.698 99.7613 171.076 99.6623 171.391 99.4643C171.706 99.2589 171.941 98.9656 172.095 98.5843V97.6383H170.28C169.29 97.6383 168.795 97.9829 168.795 98.6723C168.795 99.0096 168.923 99.2773 169.18 99.4753C169.437 99.6659 169.796 99.7613 170.258 99.7613ZM174.997 94.5363H175.778V100.322H174.997V94.5363ZM175.393 93.2713C175.232 93.2713 175.096 93.2163 174.986 93.1063C174.876 92.9963 174.821 92.8643 174.821 92.7103C174.821 92.5636 174.876 92.4353 174.986 92.3253C175.096 92.2153 175.232 92.1603 175.393 92.1603C175.555 92.1603 175.69 92.2153 175.8 92.3253C175.91 92.4279 175.965 92.5526 175.965 92.6993C175.965 92.8606 175.91 92.9963 175.8 93.1063C175.69 93.2163 175.555 93.2713 175.393 93.2713ZM177.951 92.1603H178.732V100.322H177.951V92.1603ZM182.456 100.377C181.987 100.377 181.536 100.311 181.103 100.179C180.678 100.04 180.344 99.8676 180.102 99.6623L180.454 99.0463C180.696 99.2369 181.001 99.3946 181.367 99.5193C181.734 99.6366 182.115 99.6953 182.511 99.6953C183.039 99.6953 183.428 99.6146 183.677 99.4533C183.934 99.2846 184.062 99.0499 184.062 98.7493C184.062 98.5366 183.993 98.3716 183.853 98.2543C183.714 98.1296 183.538 98.0379 183.325 97.9793C183.113 97.9133 182.83 97.8509 182.478 97.7923C182.009 97.7043 181.631 97.6163 181.345 97.5283C181.059 97.4329 180.814 97.2753 180.608 97.0553C180.41 96.8353 180.311 96.5309 180.311 96.1423C180.311 95.6583 180.513 95.2623 180.916 94.9543C181.32 94.6463 181.881 94.4923 182.599 94.4923C182.973 94.4923 183.347 94.5436 183.721 94.6463C184.095 94.7416 184.403 94.8699 184.645 95.0313L184.304 95.6583C183.828 95.3283 183.259 95.1633 182.599 95.1633C182.101 95.1633 181.723 95.2513 181.466 95.4273C181.217 95.6033 181.092 95.8343 181.092 96.1203C181.092 96.3403 181.162 96.5163 181.301 96.6483C181.448 96.7803 181.628 96.8793 181.84 96.9453C182.053 97.0039 182.346 97.0663 182.72 97.1323C183.182 97.2203 183.553 97.3083 183.831 97.3963C184.11 97.4843 184.348 97.6346 184.546 97.8473C184.744 98.0599 184.843 98.3533 184.843 98.7273C184.843 99.2333 184.631 99.6366 184.205 99.9373C183.787 100.231 183.204 100.377 182.456 100.377ZM27.5651 106.492C28.3205 106.492 28.8998 106.683 29.3031 107.064C29.7065 107.438 29.9081 107.996 29.9081 108.736V112.322H29.1601V111.42C28.9841 111.721 28.7238 111.956 28.3791 112.124C28.0418 112.293 27.6385 112.377 27.1691 112.377C26.5238 112.377 26.0105 112.223 25.6291 111.915C25.2478 111.607 25.0571 111.2 25.0571 110.694C25.0571 110.203 25.2331 109.807 25.5851 109.506C25.9445 109.206 26.5128 109.055 27.2901 109.055H29.1271V108.703C29.1271 108.205 28.9878 107.827 28.7091 107.57C28.4305 107.306 28.0235 107.174 27.4881 107.174C27.1215 107.174 26.7695 107.237 26.4321 107.361C26.0948 107.479 25.8051 107.644 25.5631 107.856L25.2111 107.273C25.5045 107.024 25.8565 106.833 26.2671 106.701C26.6778 106.562 27.1105 106.492 27.5651 106.492ZM27.2901 111.761C27.7301 111.761 28.1078 111.662 28.4231 111.464C28.7385 111.259 28.9731 110.966 29.1271 110.584V109.638H27.3121C26.3221 109.638 25.8271 109.983 25.8271 110.672C25.8271 111.01 25.9555 111.277 26.2121 111.475C26.4688 111.666 26.8281 111.761 27.2901 111.761ZM34.9774 106.492C35.7034 106.492 36.2791 106.705 36.7044 107.13C37.1371 107.548 37.3534 108.161 37.3534 108.967V112.322H36.5724V109.044C36.5724 108.443 36.4221 107.985 36.1214 107.669C35.8208 107.354 35.3918 107.196 34.8344 107.196C34.2111 107.196 33.7161 107.383 33.3494 107.757C32.9901 108.124 32.8104 108.634 32.8104 109.286V112.322H32.0294V106.536H32.7774V107.603C32.9901 107.251 33.2834 106.98 33.6574 106.789C34.0388 106.591 34.4788 106.492 34.9774 106.492ZM44.7753 104.16V112.322H44.0273V111.178C43.7926 111.567 43.4809 111.864 43.0923 112.069C42.7109 112.275 42.2783 112.377 41.7943 112.377C41.2516 112.377 40.7603 112.253 40.3203 112.003C39.8803 111.754 39.5356 111.406 39.2863 110.958C39.0369 110.511 38.9123 110.001 38.9123 109.429C38.9123 108.857 39.0369 108.348 39.2863 107.9C39.5356 107.453 39.8803 107.108 40.3203 106.866C40.7603 106.617 41.2516 106.492 41.7943 106.492C42.2636 106.492 42.6853 106.591 43.0593 106.789C43.4406 106.98 43.7523 107.262 43.9943 107.636V104.16H44.7753ZM41.8603 111.684C42.2636 111.684 42.6266 111.593 42.9493 111.409C43.2793 111.219 43.5359 110.951 43.7193 110.606C43.9099 110.262 44.0053 109.869 44.0053 109.429C44.0053 108.989 43.9099 108.597 43.7193 108.252C43.5359 107.908 43.2793 107.644 42.9493 107.46C42.6266 107.27 42.2636 107.174 41.8603 107.174C41.4496 107.174 41.0793 107.27 40.7493 107.46C40.4266 107.644 40.1699 107.908 39.9793 108.252C39.7959 108.597 39.7043 108.989 39.7043 109.429C39.7043 109.869 39.7959 110.262 39.9793 110.606C40.1699 110.951 40.4266 111.219 40.7493 111.409C41.0793 111.593 41.4496 111.684 41.8603 111.684ZM50.5772 107.669C50.7606 107.281 51.0319 106.987 51.3912 106.789C51.7579 106.591 52.2089 106.492 52.7442 106.492V107.251L52.5572 107.24C51.9486 107.24 51.4719 107.427 51.1272 107.801C50.7826 108.175 50.6102 108.7 50.6102 109.374V112.322H49.8292V106.536H50.5772V107.669ZM59.1426 109.671H54.3026C54.3466 110.273 54.5776 110.76 54.9956 111.134C55.4136 111.501 55.9416 111.684 56.5796 111.684C56.939 111.684 57.269 111.622 57.5696 111.497C57.8703 111.365 58.1306 111.175 58.3506 110.925L58.7906 111.431C58.534 111.739 58.2113 111.974 57.8226 112.135C57.4413 112.297 57.0196 112.377 56.5576 112.377C55.9636 112.377 55.4356 112.253 54.9736 112.003C54.519 111.747 54.1633 111.395 53.9066 110.947C53.65 110.5 53.5216 109.994 53.5216 109.429C53.5216 108.865 53.6426 108.359 53.8846 107.911C54.134 107.464 54.4713 107.116 54.8966 106.866C55.3293 106.617 55.8133 106.492 56.3486 106.492C56.884 106.492 57.3643 106.617 57.7896 106.866C58.215 107.116 58.5486 107.464 58.7906 107.911C59.0326 108.351 59.1536 108.857 59.1536 109.429L59.1426 109.671ZM56.3486 107.163C55.7913 107.163 55.322 107.343 54.9406 107.702C54.5666 108.054 54.354 108.516 54.3026 109.088H58.4056C58.3543 108.516 58.138 108.054 57.7566 107.702C57.3826 107.343 56.9133 107.163 56.3486 107.163ZM63.7243 106.492C64.267 106.492 64.7583 106.617 65.1983 106.866C65.6383 107.108 65.983 107.453 66.2323 107.9C66.4816 108.348 66.6063 108.857 66.6063 109.429C66.6063 110.009 66.4816 110.522 66.2323 110.969C65.983 111.417 65.6383 111.765 65.1983 112.014C64.7656 112.256 64.2743 112.377 63.7243 112.377C63.255 112.377 62.8296 112.282 62.4483 112.091C62.0743 111.893 61.7663 111.607 61.5243 111.233V114.456H60.7433V106.536H61.4913V107.68C61.726 107.299 62.034 107.006 62.4153 106.8C62.804 106.595 63.2403 106.492 63.7243 106.492ZM63.6693 111.684C64.0726 111.684 64.4393 111.593 64.7693 111.409C65.0993 111.219 65.356 110.951 65.5393 110.606C65.73 110.262 65.8253 109.869 65.8253 109.429C65.8253 108.989 65.73 108.601 65.5393 108.263C65.356 107.919 65.0993 107.651 64.7693 107.46C64.4393 107.27 64.0726 107.174 63.6693 107.174C63.2586 107.174 62.8883 107.27 62.5583 107.46C62.2356 107.651 61.979 107.919 61.7883 108.263C61.605 108.601 61.5133 108.989 61.5133 109.429C61.5133 109.869 61.605 110.262 61.7883 110.606C61.979 110.951 62.2356 111.219 62.5583 111.409C62.8883 111.593 63.2586 111.684 63.6693 111.684ZM70.5634 112.377C70.006 112.377 69.5037 112.253 69.0564 112.003C68.609 111.747 68.257 111.395 68.0004 110.947C67.7437 110.5 67.6154 109.994 67.6154 109.429C67.6154 108.865 67.7437 108.359 68.0004 107.911C68.257 107.464 68.609 107.116 69.0564 106.866C69.5037 106.617 70.006 106.492 70.5634 106.492C71.1207 106.492 71.623 106.617 72.0704 106.866C72.5177 107.116 72.866 107.464 73.1154 107.911C73.372 108.359 73.5004 108.865 73.5004 109.429C73.5004 109.994 73.372 110.5 73.1154 110.947C72.866 111.395 72.5177 111.747 72.0704 112.003C71.623 112.253 71.1207 112.377 70.5634 112.377ZM70.5634 111.684C70.974 111.684 71.3407 111.593 71.6634 111.409C71.9934 111.219 72.25 110.951 72.4334 110.606C72.6167 110.262 72.7084 109.869 72.7084 109.429C72.7084 108.989 72.6167 108.597 72.4334 108.252C72.25 107.908 71.9934 107.644 71.6634 107.46C71.3407 107.27 70.974 107.174 70.5634 107.174C70.1527 107.174 69.7824 107.27 69.4524 107.46C69.1297 107.644 68.873 107.908 68.6824 108.252C68.499 108.597 68.4074 108.989 68.4074 109.429C68.4074 109.869 68.499 110.262 68.6824 110.606C68.873 110.951 69.1297 111.219 69.4524 111.409C69.7824 111.593 70.1527 111.684 70.5634 111.684ZM76.6459 112.377C76.1765 112.377 75.7255 112.311 75.2929 112.179C74.8675 112.04 74.5339 111.868 74.2919 111.662L74.6439 111.046C74.8859 111.237 75.1902 111.395 75.5569 111.519C75.9235 111.637 76.3049 111.695 76.7009 111.695C77.2289 111.695 77.6175 111.615 77.8669 111.453C78.1235 111.285 78.2519 111.05 78.2519 110.749C78.2519 110.537 78.1822 110.372 78.0429 110.254C77.9035 110.13 77.7275 110.038 77.5149 109.979C77.3022 109.913 77.0199 109.851 76.6679 109.792C76.1985 109.704 75.8209 109.616 75.5349 109.528C75.2489 109.433 75.0032 109.275 74.7979 109.055C74.5999 108.835 74.5009 108.531 74.5009 108.142C74.5009 107.658 74.7025 107.262 75.1059 106.954C75.5092 106.646 76.0702 106.492 76.7889 106.492C77.1629 106.492 77.5369 106.544 77.9109 106.646C78.2849 106.742 78.5929 106.87 78.8349 107.031L78.4939 107.658C78.0172 107.328 77.4489 107.163 76.7889 107.163C76.2902 107.163 75.9125 107.251 75.6559 107.427C75.4065 107.603 75.2819 107.834 75.2819 108.12C75.2819 108.34 75.3515 108.516 75.4909 108.648C75.6375 108.78 75.8172 108.879 76.0299 108.945C76.2425 109.004 76.5359 109.066 76.9099 109.132C77.3719 109.22 77.7422 109.308 78.0209 109.396C78.2995 109.484 78.5379 109.635 78.7359 109.847C78.9339 110.06 79.0329 110.353 79.0329 110.727C79.0329 111.233 78.8202 111.637 78.3949 111.937C77.9769 112.231 77.3939 112.377 76.6459 112.377ZM85.3796 106.492C86.1349 106.492 86.7143 106.683 87.1176 107.064C87.5209 107.438 87.7226 107.996 87.7226 108.736V112.322H86.9746V111.42C86.7986 111.721 86.5383 111.956 86.1936 112.124C85.8563 112.293 85.4529 112.377 84.9836 112.377C84.3383 112.377 83.8249 112.223 83.4436 111.915C83.0623 111.607 82.8716 111.2 82.8716 110.694C82.8716 110.203 83.0476 109.807 83.3996 109.506C83.7589 109.206 84.3273 109.055 85.1046 109.055H86.9416V108.703C86.9416 108.205 86.8023 107.827 86.5236 107.57C86.2449 107.306 85.8379 107.174 85.3026 107.174C84.9359 107.174 84.5839 107.237 84.2466 107.361C83.9093 107.479 83.6196 107.644 83.3776 107.856L83.0256 107.273C83.3189 107.024 83.6709 106.833 84.0816 106.701C84.4923 106.562 84.9249 106.492 85.3796 106.492ZM85.1046 111.761C85.5446 111.761 85.9223 111.662 86.2376 111.464C86.5529 111.259 86.7876 110.966 86.9416 110.584V109.638H85.1266C84.1366 109.638 83.6416 109.983 83.6416 110.672C83.6416 111.01 83.7699 111.277 84.0266 111.475C84.2833 111.666 84.6426 111.761 85.1046 111.761ZM92.7919 106.492C93.5179 106.492 94.0935 106.705 94.5189 107.13C94.9515 107.548 95.1679 108.161 95.1679 108.967V112.322H94.3869V109.044C94.3869 108.443 94.2365 107.985 93.9359 107.669C93.6352 107.354 93.2062 107.196 92.6489 107.196C92.0255 107.196 91.5305 107.383 91.1639 107.757C90.8045 108.124 90.6249 108.634 90.6249 109.286V112.322H89.8439V106.536H90.5919V107.603C90.8045 107.251 91.0979 106.98 91.4719 106.789C91.8532 106.591 92.2932 106.492 92.7919 106.492ZM102.59 104.16V112.322H101.842V111.178C101.607 111.567 101.295 111.864 100.907 112.069C100.525 112.275 100.093 112.377 99.6087 112.377C99.066 112.377 98.5747 112.253 98.1347 112.003C97.6947 111.754 97.35 111.406 97.1007 110.958C96.8514 110.511 96.7267 110.001 96.7267 109.429C96.7267 108.857 96.8514 108.348 97.1007 107.9C97.35 107.453 97.6947 107.108 98.1347 106.866C98.5747 106.617 99.066 106.492 99.6087 106.492C100.078 106.492 100.5 106.591 100.874 106.789C101.255 106.98 101.567 107.262 101.809 107.636V104.16H102.59ZM99.6747 111.684C100.078 111.684 100.441 111.593 100.764 111.409C101.094 111.219 101.35 110.951 101.534 110.606C101.724 110.262 101.82 109.869 101.82 109.429C101.82 108.989 101.724 108.597 101.534 108.252C101.35 107.908 101.094 107.644 100.764 107.46C100.441 107.27 100.078 107.174 99.6747 107.174C99.264 107.174 98.8937 107.27 98.5637 107.46C98.241 107.644 97.9844 107.908 97.7937 108.252C97.6104 108.597 97.5187 108.989 97.5187 109.429C97.5187 109.869 97.6104 110.262 97.7937 110.606C97.9844 110.951 98.241 111.219 98.5637 111.409C98.8937 111.593 99.264 111.684 99.6747 111.684ZM113.001 106.536V111.618C113.001 112.601 112.759 113.327 112.275 113.796C111.798 114.273 111.076 114.511 110.108 114.511C109.572 114.511 109.063 114.431 108.579 114.269C108.102 114.115 107.713 113.899 107.413 113.62L107.809 113.026C108.087 113.276 108.425 113.47 108.821 113.609C109.224 113.749 109.646 113.818 110.086 113.818C110.819 113.818 111.358 113.646 111.703 113.301C112.047 112.964 112.22 112.436 112.22 111.717V110.98C111.978 111.347 111.659 111.626 111.263 111.816C110.874 112.007 110.441 112.102 109.965 112.102C109.422 112.102 108.927 111.985 108.48 111.75C108.04 111.508 107.691 111.175 107.435 110.749C107.185 110.317 107.061 109.829 107.061 109.286C107.061 108.744 107.185 108.26 107.435 107.834C107.691 107.409 108.04 107.079 108.48 106.844C108.92 106.61 109.415 106.492 109.965 106.492C110.456 106.492 110.9 106.591 111.296 106.789C111.692 106.987 112.011 107.273 112.253 107.647V106.536H113.001ZM110.042 111.409C110.46 111.409 110.837 111.321 111.175 111.145C111.512 110.962 111.772 110.709 111.956 110.386C112.146 110.064 112.242 109.697 112.242 109.286C112.242 108.876 112.146 108.513 111.956 108.197C111.772 107.875 111.512 107.625 111.175 107.449C110.845 107.266 110.467 107.174 110.042 107.174C109.624 107.174 109.246 107.262 108.909 107.438C108.579 107.614 108.318 107.864 108.128 108.186C107.944 108.509 107.853 108.876 107.853 109.286C107.853 109.697 107.944 110.064 108.128 110.386C108.318 110.709 108.579 110.962 108.909 111.145C109.246 111.321 109.624 111.409 110.042 111.409ZM120.223 109.671H115.383C115.427 110.273 115.658 110.76 116.076 111.134C116.494 111.501 117.022 111.684 117.66 111.684C118.019 111.684 118.349 111.622 118.65 111.497C118.95 111.365 119.211 111.175 119.431 110.925L119.871 111.431C119.614 111.739 119.291 111.974 118.903 112.135C118.521 112.297 118.1 112.377 117.638 112.377C117.044 112.377 116.516 112.253 116.054 112.003C115.599 111.747 115.243 111.395 114.987 110.947C114.73 110.5 114.602 109.994 114.602 109.429C114.602 108.865 114.723 108.359 114.965 107.911C115.214 107.464 115.551 107.116 115.977 106.866C116.409 106.617 116.893 106.492 117.429 106.492C117.964 106.492 118.444 106.617 118.87 106.866C119.295 107.116 119.629 107.464 119.871 107.911C120.113 108.351 120.234 108.857 120.234 109.429L120.223 109.671ZM117.429 107.163C116.871 107.163 116.402 107.343 116.021 107.702C115.647 108.054 115.434 108.516 115.383 109.088H119.486C119.434 108.516 119.218 108.054 118.837 107.702C118.463 107.343 117.993 107.163 117.429 107.163ZM124.87 111.97C124.724 112.102 124.54 112.205 124.32 112.278C124.108 112.344 123.884 112.377 123.649 112.377C123.107 112.377 122.689 112.231 122.395 111.937C122.102 111.644 121.955 111.23 121.955 110.694V107.196H120.921V106.536H121.955V105.271H122.736V106.536H124.496V107.196H122.736V110.65C122.736 110.995 122.821 111.259 122.989 111.442C123.165 111.618 123.415 111.706 123.737 111.706C123.899 111.706 124.053 111.681 124.199 111.629C124.353 111.578 124.485 111.505 124.595 111.409L124.87 111.97ZM131.195 106.492C131.95 106.492 132.53 106.683 132.933 107.064C133.336 107.438 133.538 107.996 133.538 108.736V112.322H132.79V111.42C132.614 111.721 132.354 111.956 132.009 112.124C131.672 112.293 131.268 112.377 130.799 112.377C130.154 112.377 129.64 112.223 129.259 111.915C128.878 111.607 128.687 111.2 128.687 110.694C128.687 110.203 128.863 109.807 129.215 109.506C129.574 109.206 130.143 109.055 130.92 109.055H132.757V108.703C132.757 108.205 132.618 107.827 132.339 107.57C132.06 107.306 131.653 107.174 131.118 107.174C130.751 107.174 130.399 107.237 130.062 107.361C129.725 107.479 129.435 107.644 129.193 107.856L128.841 107.273C129.134 107.024 129.486 106.833 129.897 106.701C130.308 106.562 130.74 106.492 131.195 106.492ZM130.92 111.761C131.36 111.761 131.738 111.662 132.053 111.464C132.368 111.259 132.603 110.966 132.757 110.584V109.638H130.942C129.952 109.638 129.457 109.983 129.457 110.672C129.457 111.01 129.585 111.277 129.842 111.475C130.099 111.666 130.458 111.761 130.92 111.761ZM135.659 104.16H136.44V112.322H135.659V104.16ZM138.613 104.16H139.394V112.322H138.613V104.16ZM147.493 111.97C147.347 112.102 147.163 112.205 146.943 112.278C146.731 112.344 146.507 112.377 146.272 112.377C145.73 112.377 145.312 112.231 145.018 111.937C144.725 111.644 144.578 111.23 144.578 110.694V107.196H143.544V106.536H144.578V105.271H145.359V106.536H147.119V107.196H145.359V110.65C145.359 110.995 145.444 111.259 145.612 111.442C145.788 111.618 146.038 111.706 146.36 111.706C146.522 111.706 146.676 111.681 146.822 111.629C146.976 111.578 147.108 111.505 147.218 111.409L147.493 111.97ZM151.863 106.492C152.589 106.492 153.165 106.705 153.59 107.13C154.023 107.548 154.239 108.161 154.239 108.967V112.322H153.458V109.044C153.458 108.443 153.308 107.985 153.007 107.669C152.707 107.354 152.278 107.196 151.72 107.196C151.097 107.196 150.602 107.383 150.235 107.757C149.876 108.124 149.696 108.634 149.696 109.286V112.322H148.915V104.16H149.696V107.548C149.909 107.211 150.202 106.951 150.576 106.767C150.95 106.584 151.379 106.492 151.863 106.492ZM161.419 109.671H156.579C156.623 110.273 156.854 110.76 157.272 111.134C157.69 111.501 158.218 111.684 158.856 111.684C159.215 111.684 159.545 111.622 159.846 111.497C160.147 111.365 160.407 111.175 160.627 110.925L161.067 111.431C160.81 111.739 160.488 111.974 160.099 112.135C159.718 112.297 159.296 112.377 158.834 112.377C158.24 112.377 157.712 112.253 157.25 112.003C156.795 111.747 156.44 111.395 156.183 110.947C155.926 110.5 155.798 109.994 155.798 109.429C155.798 108.865 155.919 108.359 156.161 107.911C156.41 107.464 156.748 107.116 157.173 106.866C157.606 106.617 158.09 106.492 158.625 106.492C159.16 106.492 159.641 106.617 160.066 106.866C160.491 107.116 160.825 107.464 161.067 107.911C161.309 108.351 161.43 108.857 161.43 109.429L161.419 109.671ZM158.625 107.163C158.068 107.163 157.598 107.343 157.217 107.702C156.843 108.054 156.63 108.516 156.579 109.088H160.682C160.631 108.516 160.414 108.054 160.033 107.702C159.659 107.343 159.19 107.163 158.625 107.163ZM27.0921 124.377C26.6228 124.377 26.1718 124.311 25.7391 124.179C25.3138 124.04 24.9801 123.868 24.7381 123.662L25.0901 123.046C25.3321 123.237 25.6365 123.395 26.0031 123.519C26.3698 123.637 26.7511 123.695 27.1471 123.695C27.6751 123.695 28.0638 123.615 28.3131 123.453C28.5698 123.285 28.6981 123.05 28.6981 122.749C28.6981 122.537 28.6285 122.372 28.4891 122.254C28.3498 122.13 28.1738 122.038 27.9611 121.979C27.7485 121.913 27.4661 121.851 27.1141 121.792C26.6448 121.704 26.2671 121.616 25.9811 121.528C25.6951 121.433 25.4495 121.275 25.2441 121.055C25.0461 120.835 24.9471 120.531 24.9471 120.142C24.9471 119.658 25.1488 119.262 25.5521 118.954C25.9555 118.646 26.5165 118.492 27.2351 118.492C27.6091 118.492 27.9831 118.544 28.3571 118.646C28.7311 118.742 29.0391 118.87 29.2811 119.031L28.9401 119.658C28.4635 119.328 27.8951 119.163 27.2351 119.163C26.7365 119.163 26.3588 119.251 26.1021 119.427C25.8528 119.603 25.7281 119.834 25.7281 120.12C25.7281 120.34 25.7978 120.516 25.9371 120.648C26.0838 120.78 26.2635 120.879 26.4761 120.945C26.6888 121.004 26.9821 121.066 27.3561 121.132C27.8181 121.22 28.1885 121.308 28.4671 121.396C28.7458 121.484 28.9841 121.635 29.1821 121.847C29.3801 122.06 29.4791 122.353 29.4791 122.727C29.4791 123.233 29.2665 123.637 28.8411 123.937C28.4231 124.231 27.8401 124.377 27.0921 124.377ZM36.137 118.536V124.322H35.389V123.266C35.1837 123.618 34.9013 123.893 34.542 124.091C34.1827 124.282 33.772 124.377 33.31 124.377C32.5547 124.377 31.957 124.168 31.517 123.75C31.0843 123.325 30.868 122.705 30.868 121.891V118.536H31.649V121.814C31.649 122.423 31.7993 122.885 32.1 123.2C32.4007 123.516 32.8297 123.673 33.387 123.673C33.9957 123.673 34.476 123.49 34.828 123.123C35.18 122.749 35.356 122.232 35.356 121.572V118.536H36.137ZM41.3054 118.492C41.848 118.492 42.3394 118.617 42.7794 118.866C43.2194 119.108 43.564 119.453 43.8134 119.9C44.0627 120.348 44.1874 120.857 44.1874 121.429C44.1874 122.009 44.0627 122.522 43.8134 122.969C43.564 123.417 43.2194 123.765 42.7794 124.014C42.3467 124.256 41.8554 124.377 41.3054 124.377C40.836 124.377 40.4107 124.282 40.0294 124.091C39.6554 123.893 39.3474 123.607 39.1054 123.233V126.456H38.3244V118.536H39.0724V119.68C39.307 119.299 39.615 119.006 39.9964 118.8C40.385 118.595 40.8214 118.492 41.3054 118.492ZM41.2504 123.684C41.6537 123.684 42.0204 123.593 42.3504 123.409C42.6804 123.219 42.937 122.951 43.1204 122.606C43.311 122.262 43.4064 121.869 43.4064 121.429C43.4064 120.989 43.311 120.601 43.1204 120.263C42.937 119.919 42.6804 119.651 42.3504 119.46C42.0204 119.27 41.6537 119.174 41.2504 119.174C40.8397 119.174 40.4694 119.27 40.1394 119.46C39.8167 119.651 39.56 119.919 39.3694 120.263C39.186 120.601 39.0944 120.989 39.0944 121.429C39.0944 121.869 39.186 122.262 39.3694 122.606C39.56 122.951 39.8167 123.219 40.1394 123.409C40.4694 123.593 40.8397 123.684 41.2504 123.684ZM48.7604 118.492C49.3031 118.492 49.7944 118.617 50.2344 118.866C50.6744 119.108 51.0191 119.453 51.2684 119.9C51.5178 120.348 51.6424 120.857 51.6424 121.429C51.6424 122.009 51.5178 122.522 51.2684 122.969C51.0191 123.417 50.6744 123.765 50.2344 124.014C49.8018 124.256 49.3104 124.377 48.7604 124.377C48.2911 124.377 47.8658 124.282 47.4844 124.091C47.1104 123.893 46.8024 123.607 46.5604 123.233V126.456H45.7794V118.536H46.5274V119.68C46.7621 119.299 47.0701 119.006 47.4514 118.8C47.8401 118.595 48.2764 118.492 48.7604 118.492ZM48.7054 123.684C49.1088 123.684 49.4754 123.593 49.8054 123.409C50.1354 123.219 50.3921 122.951 50.5754 122.606C50.7661 122.262 50.8614 121.869 50.8614 121.429C50.8614 120.989 50.7661 120.601 50.5754 120.263C50.3921 119.919 50.1354 119.651 49.8054 119.46C49.4754 119.27 49.1088 119.174 48.7054 119.174C48.2948 119.174 47.9244 119.27 47.5944 119.46C47.2718 119.651 47.0151 119.919 46.8244 120.263C46.6411 120.601 46.5494 120.989 46.5494 121.429C46.5494 121.869 46.6411 122.262 46.8244 122.606C47.0151 122.951 47.2718 123.219 47.5944 123.409C47.9244 123.593 48.2948 123.684 48.7054 123.684ZM55.5995 124.377C55.0422 124.377 54.5398 124.253 54.0925 124.003C53.6452 123.747 53.2932 123.395 53.0365 122.947C52.7798 122.5 52.6515 121.994 52.6515 121.429C52.6515 120.865 52.7798 120.359 53.0365 119.911C53.2932 119.464 53.6452 119.116 54.0925 118.866C54.5398 118.617 55.0422 118.492 55.5995 118.492C56.1568 118.492 56.6592 118.617 57.1065 118.866C57.5538 119.116 57.9022 119.464 58.1515 119.911C58.4082 120.359 58.5365 120.865 58.5365 121.429C58.5365 121.994 58.4082 122.5 58.1515 122.947C57.9022 123.395 57.5538 123.747 57.1065 124.003C56.6592 124.253 56.1568 124.377 55.5995 124.377ZM55.5995 123.684C56.0102 123.684 56.3768 123.593 56.6995 123.409C57.0295 123.219 57.2862 122.951 57.4695 122.606C57.6528 122.262 57.7445 121.869 57.7445 121.429C57.7445 120.989 57.6528 120.597 57.4695 120.252C57.2862 119.908 57.0295 119.644 56.6995 119.46C56.3768 119.27 56.0102 119.174 55.5995 119.174C55.1888 119.174 54.8185 119.27 54.4885 119.46C54.1658 119.644 53.9092 119.908 53.7185 120.252C53.5352 120.597 53.4435 120.989 53.4435 121.429C53.4435 121.869 53.5352 122.262 53.7185 122.606C53.9092 122.951 54.1658 123.219 54.4885 123.409C54.8185 123.593 55.1888 123.684 55.5995 123.684ZM60.879 119.669C61.0623 119.281 61.3337 118.987 61.693 118.789C62.0597 118.591 62.5107 118.492 63.046 118.492V119.251L62.859 119.24C62.2503 119.24 61.7737 119.427 61.429 119.801C61.0843 120.175 60.912 120.7 60.912 121.374V124.322H60.131V118.536H60.879V119.669ZM67.7542 123.97C67.6075 124.102 67.4242 124.205 67.2042 124.278C66.9915 124.344 66.7678 124.377 66.5332 124.377C65.9905 124.377 65.5725 124.231 65.2792 123.937C64.9858 123.644 64.8392 123.23 64.8392 122.694V119.196H63.8052V118.536H64.8392V117.271H65.6202V118.536H67.3802V119.196H65.6202V122.65C65.6202 122.995 65.7045 123.259 65.8732 123.442C66.0492 123.618 66.2985 123.706 66.6212 123.706C66.7825 123.706 66.9365 123.681 67.0832 123.629C67.2372 123.578 67.3692 123.505 67.4792 123.409L67.7542 123.97ZM79.7957 118.536L76.9027 125.015C76.6681 125.558 76.3967 125.943 76.0887 126.17C75.7807 126.398 75.4104 126.511 74.9777 126.511C74.6991 126.511 74.4387 126.467 74.1967 126.379C73.9547 126.291 73.7457 126.159 73.5697 125.983L73.9327 125.4C74.2261 125.694 74.5781 125.84 74.9887 125.84C75.2527 125.84 75.4764 125.767 75.6597 125.62C75.8504 125.474 76.0264 125.224 76.1877 124.872L76.4407 124.311L73.8557 118.536H74.6697L76.8477 123.453L79.0257 118.536H79.7957ZM83.0995 124.377C82.5422 124.377 82.0398 124.253 81.5925 124.003C81.1452 123.747 80.7932 123.395 80.5365 122.947C80.2798 122.5 80.1515 121.994 80.1515 121.429C80.1515 120.865 80.2798 120.359 80.5365 119.911C80.7932 119.464 81.1452 119.116 81.5925 118.866C82.0398 118.617 82.5422 118.492 83.0995 118.492C83.6568 118.492 84.1592 118.617 84.6065 118.866C85.0538 119.116 85.4022 119.464 85.6515 119.911C85.9082 120.359 86.0365 120.865 86.0365 121.429C86.0365 121.994 85.9082 122.5 85.6515 122.947C85.4022 123.395 85.0538 123.747 84.6065 124.003C84.1592 124.253 83.6568 124.377 83.0995 124.377ZM83.0995 123.684C83.5102 123.684 83.8768 123.593 84.1995 123.409C84.5295 123.219 84.7862 122.951 84.9695 122.606C85.1528 122.262 85.2445 121.869 85.2445 121.429C85.2445 120.989 85.1528 120.597 84.9695 120.252C84.7862 119.908 84.5295 119.644 84.1995 119.46C83.8768 119.27 83.5102 119.174 83.0995 119.174C82.6888 119.174 82.3185 119.27 81.9885 119.46C81.6658 119.644 81.4092 119.908 81.2185 120.252C81.0352 120.597 80.9435 120.989 80.9435 121.429C80.9435 121.869 81.0352 122.262 81.2185 122.606C81.4092 122.951 81.6658 123.219 81.9885 123.409C82.3185 123.593 82.6888 123.684 83.0995 123.684ZM92.845 118.536V124.322H92.097V123.266C91.8917 123.618 91.6093 123.893 91.25 124.091C90.8907 124.282 90.48 124.377 90.018 124.377C89.2627 124.377 88.665 124.168 88.225 123.75C87.7923 123.325 87.576 122.705 87.576 121.891V118.536H88.357V121.814C88.357 122.423 88.5073 122.885 88.808 123.2C89.1087 123.516 89.5377 123.673 90.095 123.673C90.7037 123.673 91.184 123.49 91.536 123.123C91.888 122.749 92.064 122.232 92.064 121.572V118.536H92.845ZM105.127 118.492C105.853 118.492 106.422 118.701 106.832 119.119C107.25 119.537 107.459 120.153 107.459 120.967V124.322H106.678V121.044C106.678 120.443 106.532 119.985 106.238 119.669C105.952 119.354 105.545 119.196 105.017 119.196C104.416 119.196 103.943 119.383 103.598 119.757C103.254 120.124 103.081 120.634 103.081 121.286V124.322H102.3V121.044C102.3 120.443 102.154 119.985 101.86 119.669C101.574 119.354 101.164 119.196 100.628 119.196C100.034 119.196 99.5613 119.383 99.2093 119.757C98.8646 120.124 98.6923 120.634 98.6923 121.286V124.322H97.9113V118.536H98.6593V119.592C98.8646 119.24 99.1506 118.969 99.5173 118.778C99.8839 118.588 100.306 118.492 100.782 118.492C101.266 118.492 101.684 118.595 102.036 118.8C102.396 119.006 102.663 119.31 102.839 119.713C103.052 119.332 103.356 119.035 103.752 118.822C104.156 118.602 104.614 118.492 105.127 118.492ZM109.577 118.536H110.358V124.322H109.577V118.536ZM109.973 117.271C109.812 117.271 109.676 117.216 109.566 117.106C109.456 116.996 109.401 116.864 109.401 116.71C109.401 116.564 109.456 116.435 109.566 116.325C109.676 116.215 109.812 116.16 109.973 116.16C110.135 116.16 110.27 116.215 110.38 116.325C110.49 116.428 110.545 116.553 110.545 116.699C110.545 116.861 110.49 116.996 110.38 117.106C110.27 117.216 110.135 117.271 109.973 117.271ZM117.888 118.536V123.618C117.888 124.601 117.646 125.327 117.162 125.796C116.686 126.273 115.963 126.511 114.995 126.511C114.46 126.511 113.95 126.431 113.466 126.269C112.99 126.115 112.601 125.899 112.3 125.62L112.696 125.026C112.975 125.276 113.312 125.47 113.708 125.609C114.112 125.749 114.533 125.818 114.973 125.818C115.707 125.818 116.246 125.646 116.59 125.301C116.935 124.964 117.107 124.436 117.107 123.717V122.98C116.865 123.347 116.546 123.626 116.15 123.816C115.762 124.007 115.329 124.102 114.852 124.102C114.31 124.102 113.815 123.985 113.367 123.75C112.927 123.508 112.579 123.175 112.322 122.749C112.073 122.317 111.948 121.829 111.948 121.286C111.948 120.744 112.073 120.26 112.322 119.834C112.579 119.409 112.927 119.079 113.367 118.844C113.807 118.61 114.302 118.492 114.852 118.492C115.344 118.492 115.787 118.591 116.183 118.789C116.579 118.987 116.898 119.273 117.14 119.647V118.536H117.888ZM114.929 123.409C115.347 123.409 115.725 123.321 116.062 123.145C116.4 122.962 116.66 122.709 116.843 122.386C117.034 122.064 117.129 121.697 117.129 121.286C117.129 120.876 117.034 120.513 116.843 120.197C116.66 119.875 116.4 119.625 116.062 119.449C115.732 119.266 115.355 119.174 114.929 119.174C114.511 119.174 114.134 119.262 113.796 119.438C113.466 119.614 113.206 119.864 113.015 120.186C112.832 120.509 112.74 120.876 112.74 121.286C112.74 121.697 112.832 122.064 113.015 122.386C113.206 122.709 113.466 122.962 113.796 123.145C114.134 123.321 114.511 123.409 114.929 123.409ZM123.02 118.492C123.746 118.492 124.322 118.705 124.747 119.13C125.18 119.548 125.396 120.161 125.396 120.967V124.322H124.615V121.044C124.615 120.443 124.465 119.985 124.164 119.669C123.864 119.354 123.435 119.196 122.877 119.196C122.254 119.196 121.759 119.383 121.392 119.757C121.033 120.124 120.853 120.634 120.853 121.286V124.322H120.072V116.16H120.853V119.548C121.066 119.211 121.359 118.951 121.733 118.767C122.107 118.584 122.536 118.492 123.02 118.492ZM130.564 123.97C130.417 124.102 130.234 124.205 130.014 124.278C129.801 124.344 129.577 124.377 129.343 124.377C128.8 124.377 128.382 124.231 128.089 123.937C127.795 123.644 127.649 123.23 127.649 122.694V119.196H126.615V118.536H127.649V117.271H128.43V118.536H130.19V119.196H128.43V122.65C128.43 122.995 128.514 123.259 128.683 123.442C128.859 123.618 129.108 123.706 129.431 123.706C129.592 123.706 129.746 123.681 129.893 123.629C130.047 123.578 130.179 123.505 130.289 123.409L130.564 123.97ZM137.812 118.492C138.538 118.492 139.114 118.705 139.539 119.13C139.972 119.548 140.188 120.161 140.188 120.967V124.322H139.407V121.044C139.407 120.443 139.257 119.985 138.956 119.669C138.656 119.354 138.227 119.196 137.669 119.196C137.046 119.196 136.551 119.383 136.184 119.757C135.825 120.124 135.645 120.634 135.645 121.286V124.322H134.864V118.536H135.612V119.603C135.825 119.251 136.118 118.98 136.492 118.789C136.874 118.591 137.314 118.492 137.812 118.492ZM147.368 121.671H142.528C142.572 122.273 142.803 122.76 143.221 123.134C143.639 123.501 144.167 123.684 144.805 123.684C145.165 123.684 145.495 123.622 145.795 123.497C146.096 123.365 146.356 123.175 146.576 122.925L147.016 123.431C146.76 123.739 146.437 123.974 146.048 124.135C145.667 124.297 145.245 124.377 144.783 124.377C144.189 124.377 143.661 124.253 143.199 124.003C142.745 123.747 142.389 123.395 142.132 122.947C141.876 122.5 141.747 121.994 141.747 121.429C141.747 120.865 141.868 120.359 142.11 119.911C142.36 119.464 142.697 119.116 143.122 118.866C143.555 118.617 144.039 118.492 144.574 118.492C145.11 118.492 145.59 118.617 146.015 118.866C146.441 119.116 146.774 119.464 147.016 119.911C147.258 120.351 147.379 120.857 147.379 121.429L147.368 121.671ZM144.574 119.163C144.017 119.163 143.548 119.343 143.166 119.702C142.792 120.054 142.58 120.516 142.528 121.088H146.631C146.58 120.516 146.364 120.054 145.982 119.702C145.608 119.343 145.139 119.163 144.574 119.163ZM154.007 121.671H149.167C149.211 122.273 149.442 122.76 149.86 123.134C150.278 123.501 150.806 123.684 151.444 123.684C151.803 123.684 152.133 123.622 152.434 123.497C152.735 123.365 152.995 123.175 153.215 122.925L153.655 123.431C153.398 123.739 153.076 123.974 152.687 124.135C152.306 124.297 151.884 124.377 151.422 124.377C150.828 124.377 150.3 124.253 149.838 124.003C149.383 123.747 149.028 123.395 148.771 122.947C148.514 122.5 148.386 121.994 148.386 121.429C148.386 120.865 148.507 120.359 148.749 119.911C148.998 119.464 149.336 119.116 149.761 118.866C150.194 118.617 150.678 118.492 151.213 118.492C151.748 118.492 152.229 118.617 152.654 118.866C153.079 119.116 153.413 119.464 153.655 119.911C153.897 120.351 154.018 120.857 154.018 121.429L154.007 121.671ZM151.213 119.163C150.656 119.163 150.186 119.343 149.805 119.702C149.431 120.054 149.218 120.516 149.167 121.088H153.27C153.219 120.516 153.002 120.054 152.621 119.702C152.247 119.343 151.778 119.163 151.213 119.163ZM160.888 116.16V124.322H160.14V123.178C159.905 123.567 159.593 123.864 159.205 124.069C158.823 124.275 158.391 124.377 157.907 124.377C157.364 124.377 156.873 124.253 156.433 124.003C155.993 123.754 155.648 123.406 155.399 122.958C155.149 122.511 155.025 122.001 155.025 121.429C155.025 120.857 155.149 120.348 155.399 119.9C155.648 119.453 155.993 119.108 156.433 118.866C156.873 118.617 157.364 118.492 157.907 118.492C158.376 118.492 158.798 118.591 159.172 118.789C159.553 118.98 159.865 119.262 160.107 119.636V116.16H160.888ZM157.973 123.684C158.376 123.684 158.739 123.593 159.062 123.409C159.392 123.219 159.648 122.951 159.832 122.606C160.022 122.262 160.118 121.869 160.118 121.429C160.118 120.989 160.022 120.597 159.832 120.252C159.648 119.908 159.392 119.644 159.062 119.46C158.739 119.27 158.376 119.174 157.973 119.174C157.562 119.174 157.192 119.27 156.862 119.46C156.539 119.644 156.282 119.908 156.092 120.252C155.908 120.597 155.817 120.989 155.817 121.429C155.817 121.869 155.908 122.262 156.092 122.606C156.282 122.951 156.539 123.219 156.862 123.409C157.192 123.593 157.562 123.684 157.973 123.684ZM162.942 116.622H163.866L163.701 122.012H163.096L162.942 116.622ZM163.404 124.377C163.242 124.377 163.103 124.322 162.986 124.212C162.876 124.095 162.821 123.959 162.821 123.805C162.821 123.644 162.876 123.512 162.986 123.409C163.096 123.299 163.235 123.244 163.404 123.244C163.565 123.244 163.701 123.299 163.811 123.409C163.921 123.512 163.976 123.644 163.976 123.805C163.976 123.959 163.921 124.095 163.811 124.212C163.701 124.322 163.565 124.377 163.404 124.377Z" fill="#302C60"/>
<mask id="path-4-inside-1_271_1861" fill="white">
<path fill-rule="evenodd" clip-rule="evenodd" d="M198.269 25.2891H158.807V58.4091H182.841L190.385 66.4322L190.385 58.4091H198.269V25.2891Z"/>
</mask>
<path d="M158.807 25.2891V23.8691H157.387V25.2891H158.807ZM198.269 25.2891H199.689V23.8691H198.269V25.2891ZM158.807 58.4091H157.387V59.8291H158.807V58.4091ZM182.841 58.4091L183.876 57.4365L183.455 56.9892H182.841V58.4091ZM190.385 66.4322L189.351 67.4049L191.805 70.0152L191.805 66.4322L190.385 66.4322ZM190.385 58.4091V56.9892H188.965L188.965 58.4092L190.385 58.4091ZM198.269 58.4091V59.8291H199.689V58.4091H198.269ZM158.807 26.709H198.269V23.8691H158.807V26.709ZM160.227 58.4091V25.2891H157.387V58.4091H160.227ZM182.841 56.9892H158.807V59.8291H182.841V56.9892ZM191.42 65.4595L183.876 57.4365L181.807 59.3818L189.351 67.4049L191.42 65.4595ZM188.965 58.4092L188.965 66.4322L191.805 66.4322L191.805 58.4091L188.965 58.4092ZM198.269 56.9892H190.385V59.8291H198.269V56.9892ZM196.849 25.2891V58.4091H199.689V25.2891H196.849Z" fill="#302C60" mask="url(#path-4-inside-1_271_1861)"/>
<path d="M178.571 36.8975C179.238 36.8975 179.821 36.9984 180.318 37.2002C180.823 37.3929 181.212 37.6773 181.486 38.0535C181.769 38.4204 181.91 38.8608 181.91 39.3746C181.91 39.8884 181.761 40.3471 181.461 40.7508C181.17 41.1545 180.759 41.4985 180.228 41.7829C179.697 42.0582 179.08 42.2738 178.378 42.4297V44.439H178.121V42.3059C178.549 42.0765 178.866 41.8242 179.071 41.549C179.286 41.2737 179.427 40.9756 179.495 40.6544C179.572 40.3333 179.611 39.9939 179.611 39.6361C179.611 38.7645 179.478 38.136 179.213 37.7507C178.947 37.3654 178.605 37.1727 178.185 37.1727C177.937 37.1727 177.723 37.2002 177.543 37.2553C177.372 37.3011 177.247 37.3608 177.17 37.4342C177.444 37.5443 177.65 37.6956 177.787 37.8883C177.932 38.081 178.005 38.3333 178.005 38.6452C178.005 38.9663 177.894 39.2416 177.671 39.4709C177.449 39.6911 177.149 39.8012 176.772 39.8012C176.455 39.8012 176.198 39.6911 176.001 39.4709C175.813 39.2416 175.719 38.9847 175.719 38.7003C175.719 38.3608 175.796 38.0902 175.95 37.8883C176.113 37.6865 176.31 37.5167 176.541 37.3791C176.764 37.2507 177.046 37.1406 177.389 37.0488C177.731 36.9479 178.125 36.8975 178.571 36.8975ZM178.275 45.4849C178.678 45.4849 178.99 45.5858 179.213 45.7876C179.435 45.9803 179.547 46.2739 179.547 46.6684C179.547 47.0629 179.435 47.3611 179.213 47.5629C178.99 47.7556 178.678 47.8519 178.275 47.8519C177.864 47.8519 177.547 47.7556 177.324 47.5629C177.11 47.3611 177.003 47.0629 177.003 46.6684C177.003 46.2739 177.11 45.9803 177.324 45.7876C177.547 45.5858 177.864 45.4849 178.275 45.4849Z" fill="#302C60"/>
<path d="M170.116 35.2983L170.028 35.2384C171.703 32.7769 174.023 31.1761 176.983 30.6356C180.179 30.0521 183.064 30.8404 185.586 32.871C187.28 34.2346 188.456 35.9698 189.19 37.9998L189.089 38.036L189.19 37.9998C189.222 38.0889 189.252 38.1299 189.284 38.1525C189.316 38.1752 189.365 38.1909 189.462 38.192C191.332 38.2127 192.734 39.6357 192.736 41.5001C192.736 41.6619 192.736 41.8238 192.737 41.9856C192.738 42.9238 192.739 43.8622 192.735 44.8006C192.73 46.5545 191.271 48.0578 189.504 47.9968C189.119 47.9835 188.836 48.0319 188.599 48.1586C188.361 48.2854 188.158 48.4973 187.945 48.8342C186.299 51.4381 183.934 53.1053 180.876 53.7292C180.517 53.8023 180.149 53.8378 179.787 53.8727C179.668 53.8842 179.55 53.8956 179.433 53.9083C179.26 53.927 179.087 53.9117 178.946 53.8461C178.8 53.7786 178.69 53.6587 178.651 53.4831C178.651 53.483 178.651 53.483 178.651 53.483L178.755 53.4602C178.69 53.1612 178.932 52.9269 179.24 52.9102C182.729 52.7204 185.318 51.035 187.203 48.1781C187.235 48.1293 187.266 48.0795 187.295 48.0283C187.296 48.025 187.298 48.0215 187.299 48.0176L170.116 35.2983ZM170.116 35.2983L170.028 35.2384C169.594 35.8757 169.237 36.5701 168.884 37.2576C168.726 37.565 168.569 37.871 168.406 38.17L168.406 38.1706L168.399 38.1783C168.396 38.1823 168.393 38.1851 168.391 38.1871C168.389 38.1874 168.385 38.1875 168.38 38.1875C168.374 38.1875 168.368 38.1873 168.361 38.187L168.359 38.1869C168.35 38.1867 168.34 38.1863 168.329 38.1864L168.329 38.1864C166.462 38.2078 165.048 39.6271 165.044 41.4889L165.13 41.4891M170.116 35.2983L165.13 41.4891M169.738 38.1862C170.939 34.7205 174.658 31.1427 179.767 31.5991C181.694 31.7712 183.404 32.5121 184.896 33.7383C186.346 34.9298 187.389 36.4034 188.07 38.1864C187.9 38.1866 187.733 38.187 187.569 38.1875C187.063 38.1888 186.584 38.1901 186.105 38.1833C185.93 38.1808 185.778 38.214 185.672 38.3168C185.566 38.42 185.528 38.5711 185.528 38.7484C185.533 41.6505 185.533 44.5526 185.528 47.4547C185.528 47.6312 185.564 47.7832 185.67 47.8874C185.776 47.9918 185.928 48.0252 186.105 48.0203H186.105C186.384 48.0125 186.662 48.0143 186.946 48.0161C187.023 48.0165 187.1 48.017 187.178 48.0173L169.738 38.1862ZM169.738 38.1862C169.885 38.1862 170.032 38.1862 170.179 38.1862C170.631 38.1861 171.078 38.1861 171.525 38.1863L169.738 38.1862ZM165.13 41.4891L165.044 41.4889C165.042 42.6006 165.04 43.7126 165.045 44.8247C165.053 46.5572 166.519 48.0096 168.262 48.0168C169.094 48.0203 169.926 48.0193 170.758 48.0184C171.033 48.018 171.308 48.0177 171.582 48.0176C171.708 48.0175 171.814 48.0138 171.9 47.9983C171.987 47.9826 172.066 47.9528 172.126 47.8913C172.186 47.8301 172.215 47.7505 172.23 47.6625C172.245 47.5752 172.249 47.4676 172.249 47.3398C172.249 44.5311 172.249 41.7225 172.249 38.914C172.249 38.7697 172.246 38.6506 172.232 38.5562M165.13 41.4891L172.232 38.5562M171.05 39.2922L171.05 39.2922C170.768 39.2926 170.486 39.2916 170.204 39.2905C169.533 39.2879 168.864 39.2853 168.195 39.3039C167.09 39.3347 166.185 40.2483 166.166 41.3491L171.05 39.2922ZM171.05 39.2922C171.066 39.2921 171.083 39.2937 171.109 39.2974C171.112 39.2978 171.115 39.2982 171.119 39.2987V46.9035C171.1 46.9084 171.09 46.9099 171.083 46.9099H171.082C170.804 46.9099 170.527 46.9116 170.249 46.9132C169.562 46.9172 168.877 46.9213 168.192 46.9017C167.087 46.8702 166.181 45.9514 166.165 44.8537L166.165 44.8536M171.05 39.2922L166.165 44.8536M166.165 44.8536C166.146 43.6855 166.147 42.5172 166.166 41.3492L166.165 44.8536ZM172.232 38.5562C172.218 38.4614 172.19 38.3754 172.126 38.3106M172.232 38.5562L172.126 38.3106M172.126 38.3106C172.061 38.2457 171.976 38.2172 171.881 38.2029M172.126 38.3106L171.881 38.2029M171.881 38.2029C171.787 38.1887 171.669 38.1863 171.526 38.1863L171.881 38.2029ZM189.568 46.9027C188.882 46.9204 188.196 46.9162 187.497 46.9119C187.219 46.9101 186.939 46.9084 186.656 46.908V39.3096C186.664 39.3075 186.671 39.3056 186.677 39.3041C186.708 39.2965 186.731 39.2927 186.751 39.2927C187.007 39.2927 187.263 39.2916 187.519 39.2905C188.204 39.2874 188.887 39.2844 189.571 39.3032C190.696 39.3342 191.597 40.2467 191.615 41.3693C191.633 42.5256 191.633 43.6827 191.617 44.8391C191.601 45.9554 190.694 46.8736 189.568 46.9027Z" fill="#302C60" stroke="#302C60" stroke-width="0.212991"/>
<defs>
<filter id="filter0_d_271_1861" x="0.717325" y="0" width="219.181" height="155.658" filterUnits="userSpaceOnUse" color-interpolation-filters="sRGB">
<feFlood flood-opacity="0" result="BackgroundImageFix"/>
<feColorMatrix in="SourceAlpha" type="matrix" values="0 0 0 0 0 0 0 0 0 0 0 0 0 0 0 0 0 0 127 0" result="hardAlpha"/>
<feOffset dy="1.8984"/>
<feGaussianBlur stdDeviation="0.949199"/>
<feComposite in2="hardAlpha" operator="out"/>
<feColorMatrix type="matrix" values="0 0 0 0 0 0 0 0 0 0 0 0 0 0 0 0 0 0 0.1 0"/>
<feBlend mode="normal" in2="BackgroundImageFix" result="effect1_dropShadow_271_1861"/>
<feBlend mode="normal" in="SourceGraphic" in2="effect1_dropShadow_271_1861" result="shape"/>
</filter>
</defs>
</svg>
