<svg width="2016" height="167" viewBox="0 0 2016 167" fill="none" xmlns="http://www.w3.org/2000/svg">
<path d="M169.69 5.53999H150.63V31.78C150.63 57.45 129.49 78.21 103.25 78.4H60.4C26.99 78.4 0 105.01 0 137.67V163.91H57.19V137.49C57.19 111.82 78.33 91.06 104.57 90.87H147.42C180.64 90.87 207.63 64.45 207.63 31.79V5.55H169.69V5.53999Z" fill="#1D70EA"/>
<path d="M28.69 57.39C44.5351 57.39 57.38 44.545 57.38 28.7C57.38 12.8549 44.5351 0.00999451 28.69 0.00999451C12.845 0.00999451 0 12.8549 0 28.7C0 44.545 12.845 57.39 28.69 57.39Z" fill="#1D70EA"/>
<path d="M255.44 163.85V5.66H309.45C322.11 5.66 332.5 7.77001 340.64 11.99C348.78 16.21 354.8 21.86 358.72 28.94C362.64 36.02 364.6 44.08 364.6 53.12C364.6 62.16 362.68 69.58 358.84 76.74C355 83.9 349.01 89.62 340.87 93.92C332.73 98.21 322.26 100.36 309.46 100.36H278.05V163.86H255.44V163.85ZM278.04 81.59H308.55C320.45 81.59 328.92 78.99 333.97 73.79C339.02 68.59 341.54 61.7 341.54 53.11C341.54 43.92 339.02 36.84 333.97 31.87C328.92 26.9 320.45 24.41 308.55 24.41H278.04V81.59Z" fill="#1D70EA"/>
<path d="M420.86 166.56C410.01 166.56 400.44 163.96 392.16 158.76C383.87 153.56 377.43 146.48 372.84 137.52C368.24 128.56 365.95 118.35 365.95 106.9C365.95 95.45 368.28 85.06 372.96 76.17C377.63 67.28 384.11 60.24 392.39 55.04C400.67 49.84 410.24 47.24 421.09 47.24C429.98 47.24 437.81 49.05 444.59 52.66C451.37 56.28 456.64 61.25 460.41 67.58L461.99 49.95H483.01V163.85H462.22L460.41 146.22C456.94 151.5 451.97 156.2 445.49 160.34C439.01 164.48 430.8 166.55 420.86 166.55V166.56ZM424.48 146.9C431.56 146.9 437.81 145.24 443.24 141.93C448.66 138.62 452.84 133.95 455.78 127.92C458.72 121.9 460.19 114.89 460.19 106.9C460.19 98.91 458.72 91.95 455.78 86C452.84 80.05 448.66 75.38 443.24 71.99C437.82 68.6 431.56 66.91 424.48 66.91C417.4 66.91 411.6 68.6 406.18 71.99C400.76 75.38 396.54 80.05 393.52 86C390.5 91.95 389 98.92 389 106.9C389 114.88 390.5 121.89 393.52 127.92C396.53 133.95 400.75 138.62 406.18 141.93C411.6 145.25 417.71 146.9 424.48 146.9Z" fill="#1D70EA"/>
<path d="M502.66 163.85V49.95H523L525.03 71.42C527.59 66.3 544.16 49.95 563.84 49.95H583.5V69.16H563.84C540.11 69.16 529.78 85.06 527.97 89.73C526.16 94.4 525.26 100.2 525.26 107.13V163.85H502.66Z" fill="#1D70EA"/>
<path d="M618.53 163.85C611.45 163.85 605.27 162.72 600 160.46C594.72 158.2 590.66 154.44 587.8 149.16C584.94 143.89 583.51 136.73 583.51 127.69V69.16H563.85V49.95H573.32C579.1 49.95 583.93 45.56 584.48 39.8L586.23 21.47H606.12V49.94H638.44V69.15H606.12V127.91C606.12 134.39 607.48 138.8 610.19 141.13C612.9 143.47 617.57 144.63 624.2 144.63H637.31V163.84H618.53V163.85Z" fill="#1D70EA"/>
<path d="M665.09 28.48C660.72 28.48 657.14 27.12 654.36 24.41C651.57 21.7 650.18 18.23 650.18 14.01C650.18 9.78999 651.57 6.59 654.36 3.95C657.15 1.32 660.72 0 665.09 0C669.46 0 672.85 1.32 675.71 3.95C678.57 6.59 680 9.93999 680 14.01C680 18.08 678.57 21.69 675.71 24.41C672.85 27.12 669.3 28.48 665.09 28.48ZM653.56 163.85V49.95H676.16V163.85H653.56Z" fill="#1D70EA"/>
<path d="M741.24 166.56C731.6 166.56 723.16 164.98 715.93 161.81C708.7 158.65 702.97 154.2 698.75 148.48C694.53 142.76 691.97 136.05 691.07 128.37H714.12C714.87 131.99 716.34 135.3 718.53 138.31C720.71 141.33 723.73 143.73 727.57 145.54C731.41 147.35 735.97 148.25 741.24 148.25C746.21 148.25 750.31 147.54 753.56 146.1C756.8 144.67 759.17 142.71 760.68 140.22C762.18 137.73 762.94 135.06 762.94 132.2C762.94 127.98 761.92 124.78 759.89 122.6C757.86 120.42 754.84 118.68 750.85 117.4C746.86 116.12 742.07 114.95 736.5 113.9C731.22 113 726.14 111.75 721.25 110.17C716.35 108.59 711.98 106.59 708.14 104.18C704.3 101.77 701.25 98.72 698.99 95.03C696.73 91.34 695.6 86.78 695.6 81.36C695.6 74.88 697.33 69.04 700.8 63.85C704.26 58.65 709.2 54.58 715.6 51.65C722 48.71 729.57 47.24 738.31 47.24C750.97 47.24 761.13 50.26 768.82 56.28C776.5 62.31 781.02 70.82 782.38 81.82H760.46C759.86 76.7 757.6 72.74 753.68 69.96C749.76 67.17 744.56 65.78 738.09 65.78C731.62 65.78 726.64 67.06 723.17 69.62C719.7 72.18 717.97 75.57 717.97 79.79C717.97 82.5 718.95 84.91 720.91 87.02C722.87 89.13 725.77 90.9 729.61 92.33C733.45 93.76 738.16 95.08 743.73 96.28C751.71 97.79 758.87 99.67 765.2 101.93C771.53 104.19 776.57 107.51 780.34 111.87C784.1 116.24 785.99 122.49 785.99 130.63C786.14 137.71 784.37 143.96 780.68 149.39C776.99 154.81 771.79 159.03 765.09 162.05C758.38 165.06 750.44 166.57 741.25 166.57L741.24 166.56Z" fill="#1D70EA"/>
<path d="M814.46 28.48C810.09 28.48 806.51 27.12 803.73 24.41C800.94 21.7 799.55 18.23 799.55 14.01C799.55 9.78999 800.94 6.59 803.73 3.95C806.52 1.32 810.09 0 814.46 0C818.83 0 822.22 1.32 825.08 3.95C827.94 6.59 829.37 9.93999 829.37 14.01C829.37 18.08 827.94 21.69 825.08 24.41C822.22 27.12 818.67 28.48 814.46 28.48ZM802.93 163.85V49.95H825.53V163.85H802.93Z" fill="#1D70EA"/>
<path d="M897.17 166.56C886.32 166.56 876.75 163.96 868.47 158.76C860.18 153.56 853.74 146.48 849.15 137.52C844.55 128.56 842.26 118.35 842.26 106.9C842.26 95.45 844.59 85.06 849.27 76.17C853.94 67.28 860.42 60.24 868.7 55.04C876.98 49.84 886.55 47.24 897.4 47.24C906.29 47.24 914.12 49.05 920.9 52.66C927.68 56.28 932.95 61.25 936.72 67.58L938.3 49.95H959.32V163.85H938.53L936.72 146.22C933.25 151.5 928.28 156.2 921.8 160.34C915.32 164.48 907.11 166.55 897.17 166.55V166.56ZM900.79 146.9C907.87 146.9 914.12 145.24 919.55 141.93C924.97 138.62 929.15 133.95 932.09 127.92C935.03 121.9 936.5 114.89 936.5 106.9C936.5 98.91 935.03 91.95 932.09 86C929.15 80.05 924.97 75.38 919.55 71.99C914.13 68.6 907.87 66.91 900.79 66.91C893.71 66.91 887.91 68.6 882.49 71.99C877.07 75.38 872.85 80.05 869.83 86C866.81 91.95 865.31 98.92 865.31 106.9C865.31 114.88 866.81 121.89 869.83 127.92C872.84 133.95 877.06 138.62 882.49 141.93C887.91 145.25 894.02 146.9 900.79 146.9Z" fill="#1D70EA"/>
<path d="M980.11 163.85V5.66H1038.64C1049.64 5.66 1058.83 7.43 1066.21 10.97C1073.59 14.51 1079.13 19.33 1082.82 25.43C1086.51 31.53 1088.36 38.42 1088.36 46.11C1088.36 53.8 1086.63 60.8 1083.16 66.22C1079.69 71.64 1075.14 75.82 1069.49 78.76C1063.84 81.7 1057.77 83.39 1051.3 83.84L1054.46 81.58C1061.39 81.73 1067.72 83.58 1073.44 87.12C1079.16 90.66 1083.68 95.37 1087 101.24C1090.31 107.12 1091.97 113.6 1091.97 120.67C1091.97 128.81 1090.01 136.15 1086.1 142.7C1082.18 149.25 1076.38 154.42 1068.7 158.18C1061.02 161.95 1051.6 163.83 1040.45 163.83H980.11V163.85ZM1002.71 73.91H1036.16C1045.65 73.91 1052.88 71.69 1057.85 67.24C1062.82 62.8 1065.31 56.66 1065.31 48.82C1065.31 40.98 1062.82 35.3 1057.85 30.85C1052.88 26.41 1045.42 24.18 1035.48 24.18H1002.71V73.9V73.91ZM1002.71 145.1H1037.51C1047.45 145.1 1055.17 142.8 1060.67 138.21C1066.17 133.62 1068.92 127.1 1068.92 118.66C1068.92 110.22 1066.09 103.74 1060.44 98.77C1054.79 93.8 1046.99 91.31 1037.05 91.31H1002.7V145.1H1002.71Z" fill="#1D70EA"/>
<path d="M1106.43 163.85V1.14H1129.03V163.85H1106.43Z" fill="#1D70EA"/>
<path d="M1200.67 166.56C1189.97 166.56 1180.37 164.07 1171.86 159.1C1163.35 154.13 1156.64 147.16 1151.75 138.2C1146.85 129.24 1144.41 118.88 1144.41 107.13C1144.41 95.38 1146.9 84.57 1151.87 75.6C1156.84 66.64 1163.62 59.67 1172.21 54.7C1180.8 49.73 1190.44 47.24 1201.14 47.24C1211.84 47.24 1221.63 49.73 1230.07 54.7C1238.51 59.67 1245.17 66.6 1250.07 75.49C1254.96 84.38 1257.41 94.85 1257.41 106.9C1257.41 118.95 1254.96 129.42 1250.07 138.31C1245.17 147.2 1238.43 154.13 1229.84 159.1C1221.25 164.07 1211.54 166.56 1200.69 166.56H1200.67ZM1200.67 147.13C1206.85 147.13 1212.46 145.63 1217.51 142.61C1222.56 139.6 1226.62 135.12 1229.71 129.16C1232.8 123.21 1234.34 115.79 1234.34 106.9C1234.34 98.01 1232.83 90.59 1229.82 84.64C1226.81 78.69 1222.78 74.21 1217.73 71.19C1212.68 68.18 1207.14 66.67 1201.12 66.67C1195.1 66.67 1189.52 68.18 1184.4 71.19C1179.28 74.21 1175.17 78.69 1172.08 84.64C1168.99 90.59 1167.45 98.01 1167.45 106.9C1167.45 115.79 1168.99 123.21 1172.08 129.16C1175.17 135.11 1179.23 139.59 1184.28 142.61C1189.33 145.63 1194.79 147.13 1200.66 147.13H1200.67Z" fill="#1D70EA"/>
<path d="M1325.42 166.56C1314.42 166.56 1304.63 164.04 1296.04 158.99C1287.45 153.94 1280.71 146.98 1275.81 138.09C1270.91 129.2 1268.47 118.88 1268.47 107.13C1268.47 95.38 1270.92 84.8 1275.81 75.83C1280.7 66.87 1287.45 59.86 1296.04 54.81C1304.63 49.76 1314.42 47.24 1325.42 47.24C1339.28 47.24 1350.88 50.86 1360.22 58.09C1369.56 65.32 1375.51 75.12 1378.07 87.47H1354.57C1353.06 80.84 1349.63 75.72 1344.29 72.1C1338.94 68.48 1332.57 66.68 1325.19 66.68C1319.16 66.68 1313.59 68.23 1308.47 71.31C1303.35 74.4 1299.24 78.92 1296.15 84.87C1293.06 90.82 1291.52 98.17 1291.52 106.9C1291.52 113.38 1292.42 119.14 1294.23 124.19C1296.04 129.24 1298.49 133.49 1301.57 136.96C1304.66 140.43 1308.24 143.03 1312.3 144.76C1316.37 146.49 1320.66 147.36 1325.18 147.36C1330.15 147.36 1334.63 146.57 1338.63 144.99C1342.62 143.41 1346.01 141.04 1348.8 137.87C1351.59 134.71 1353.51 130.94 1354.56 126.57H1378.06C1375.5 138.63 1369.55 148.3 1360.21 155.61C1350.87 162.92 1339.27 166.57 1325.41 166.57H1325.42V166.56Z" fill="#1D70EA"/>
<path d="M1393.21 163.85V1.14H1415.81V163.85H1393.21ZM1464.85 163.85L1412.42 101.48L1459.88 49.95H1487.22L1430.72 110.29V93.34L1493.32 163.85H1464.85Z" fill="#1D70EA"/>
<path d="M1545.07 166.56C1534.07 166.56 1524.28 164.04 1515.69 158.99C1507.1 153.94 1500.36 146.98 1495.46 138.09C1490.56 129.2 1488.12 118.88 1488.12 107.13C1488.12 95.38 1490.57 84.8 1495.46 75.83C1500.35 66.87 1507.1 59.86 1515.69 54.81C1524.28 49.76 1534.07 47.24 1545.07 47.24C1558.93 47.24 1570.53 50.86 1579.87 58.09C1589.21 65.32 1595.16 75.12 1597.72 87.47H1574.22C1572.71 80.84 1569.28 75.72 1563.94 72.1C1558.59 68.48 1552.22 66.68 1544.84 66.68C1538.81 66.68 1533.24 68.23 1528.12 71.31C1523 74.4 1518.89 78.92 1515.8 84.87C1512.71 90.82 1511.17 98.17 1511.17 106.9C1511.17 113.38 1512.07 119.14 1513.88 124.19C1515.69 129.24 1518.14 133.49 1521.22 136.96C1524.31 140.43 1527.89 143.03 1531.95 144.76C1536.02 146.49 1540.31 147.36 1544.83 147.36C1549.8 147.36 1554.28 146.57 1558.28 144.99C1562.27 143.41 1565.66 141.04 1568.45 137.87C1571.24 134.71 1573.16 130.94 1574.21 126.57H1597.71C1595.15 138.63 1589.2 148.3 1579.86 155.61C1570.52 162.92 1558.92 166.57 1545.06 166.57H1545.07V166.56Z" fill="#1D70EA"/>
<path d="M1612.87 163.85V1.14H1635.47V68.48C1639.23 61.85 1644.47 56.65 1651.18 52.89C1657.88 49.13 1665.31 47.24 1673.44 47.24C1682.48 47.24 1690.24 49.09 1696.72 52.78C1703.2 56.47 1708.17 61.97 1711.64 69.28C1715.1 76.59 1716.84 85.74 1716.84 96.74V163.86H1694.47V99.23C1694.47 88.53 1692.21 80.44 1687.69 74.94C1683.17 69.44 1676.46 66.69 1667.58 66.69C1661.55 66.69 1656.13 68.12 1651.31 70.98C1646.49 73.84 1642.65 78.02 1639.79 83.52C1636.93 89.02 1635.5 95.69 1635.5 103.52V163.86H1612.87V163.85Z" fill="#1D70EA"/>
<path d="M1785.07 166.56C1774.22 166.56 1764.65 163.96 1756.37 158.76C1748.08 153.56 1741.64 146.48 1737.05 137.52C1732.45 128.56 1730.16 118.35 1730.16 106.9C1730.16 95.45 1732.49 85.06 1737.17 76.17C1741.84 67.28 1748.32 60.24 1756.6 55.04C1764.88 49.84 1774.45 47.24 1785.3 47.24C1794.19 47.24 1802.02 49.05 1808.8 52.66C1815.58 56.28 1820.85 61.25 1824.62 67.58L1826.2 49.95H1847.22V163.85H1826.43L1824.62 146.22C1821.15 151.5 1816.18 156.2 1809.7 160.34C1803.22 164.48 1795.01 166.55 1785.07 166.55V166.56ZM1788.69 146.9C1795.77 146.9 1802.02 145.24 1807.45 141.93C1812.87 138.62 1817.05 133.95 1819.99 127.92C1822.93 121.9 1824.4 114.89 1824.4 106.9C1824.4 98.91 1822.93 91.95 1819.99 86C1817.05 80.05 1812.87 75.38 1807.45 71.99C1802.03 68.6 1795.77 66.91 1788.69 66.91C1781.61 66.91 1775.81 68.6 1770.39 71.99C1764.97 75.38 1760.75 80.05 1757.73 86C1754.71 91.95 1753.21 98.92 1753.21 106.9C1753.21 114.88 1754.71 121.89 1757.73 127.92C1760.74 133.95 1764.96 138.62 1770.39 141.93C1775.81 145.25 1781.92 146.9 1788.69 146.9Z" fill="#1D70EA"/>
<path d="M1879.98 28.48C1875.61 28.48 1872.03 27.12 1869.25 24.41C1866.46 21.7 1865.07 18.23 1865.07 14.01C1865.07 9.78999 1866.46 6.59 1869.25 3.95C1872.04 1.32 1875.61 0 1879.98 0C1884.35 0 1887.74 1.32 1890.6 3.95C1893.46 6.59 1894.89 9.93999 1894.89 14.01C1894.89 18.08 1893.46 21.69 1890.6 24.41C1887.74 27.12 1884.19 28.48 1879.98 28.48ZM1868.45 163.85V49.95H1891.05V163.85H1868.45Z" fill="#1D70EA"/>
<path d="M1912.07 163.85V49.95H1932.41L1933.77 69.38C1937.39 62.6 1942.51 57.22 1949.14 53.22C1955.77 49.23 1963.38 47.23 1971.96 47.23C1981 47.23 1988.76 49.04 1995.24 52.65C2001.72 56.27 2006.77 61.73 2010.38 69.03C2014 76.34 2015.8 85.49 2015.8 96.49V163.83H1993.2V98.75C1993.2 88.21 1990.86 80.22 1986.19 74.8C1981.52 69.38 1974.74 66.66 1965.85 66.66C1959.97 66.66 1954.7 68.05 1950.03 70.84C1945.36 73.63 1941.63 77.73 1938.84 83.16C1936.05 88.58 1934.66 95.22 1934.66 103.05V163.84H1912.06H1912.07V163.85Z" fill="#1D70EA"/>
</svg>
